<svg xmlns="http://www.w3.org/2000/svg" viewBox="0 0 576 512"><!--! Font Awesome Pro 6.2.0 by @fontawesome - https://fontawesome.com License - https://fontawesome.com/license (Commercial License) Copyright 2022 Fonticons, Inc. --><defs><style>.fa-secondary{opacity:.4}</style></defs><path class="fa-primary" d="M355.4 171.3L452.6 125C468.8 117.3 488.1 121.4 499.7 135C548.9 192.4 576 265.6 576 341.2V378.8C576 388.6 565.8 394.9 557.1 390.5L493.3 358.6C485.8 354.9 476.7 357.5 472.4 364.7L442.5 414.4C437.2 423.4 424.9 424.9 417.5 417.5L380.9 380.9C374.1 374.1 362.8 374.8 356.9 382.4L300.7 455.5C294.3 463.8 281.7 463.8 275.3 455.5L219.1 382.4C213.2 374.8 201.9 374.1 195.1 380.9L158.5 417.5C151.1 424.9 138.8 423.4 133.5 414.4L103.6 364.7C99.32 357.5 90.23 354.9 82.75 358.6L18.93 390.5C10.23 394.9 0 388.6 0 378.8V341.2C0 265.6 27.05 192.4 76.27 135C87.91 121.4 107.2 117.3 123.4 125L220.6 171.3C227.1 174.4 234.1 176 241.2 176H334.8C341.9 176 348.9 174.4 355.4 171.3H355.4z"/><path class="fa-secondary" d="M235.6 52.81L256 80H320L340.4 52.81C342.7 49.78 346.2 48 350 48C355.8 48 360.8 52.12 361.8 57.81L380.9 159.2L355.4 171.3C348.9 174.4 341.9 176 334.8 176H241.2C234.1 176 227.1 174.4 220.6 171.3L195.1 159.2L214.2 57.81C215.2 52.12 220.2 48 225.1 48C229.8 48 233.3 49.78 235.6 52.81z"/></svg>