<svg xmlns="http://www.w3.org/2000/svg" viewBox="0 0 576 512"><!--! Font Awesome Pro 6.2.0 by @fontawesome - https://fontawesome.com License - https://fontawesome.com/license (Commercial License) Copyright 2022 Fonticons, Inc. --><defs><style>.fa-secondary{opacity:.4}</style></defs><path class="fa-primary" d="M32 0C49.67 0 64 14.33 64 32V128H576V480C576 497.7 561.7 512 544 512C526.3 512 512 497.7 512 480V448H64V480C64 497.7 49.67 512 32 512C14.33 512 0 497.7 0 480V32C0 14.33 14.33 0 32 0zM64 384H512V192H64V384z"/><path class="fa-secondary" d="M192 48C192 74.51 170.5 96 144 96C117.5 96 96 74.51 96 48C96 21.49 117.5 0 144 0C170.5 0 192 21.49 192 48zM192 304C192 330.5 170.5 352 144 352C117.5 352 96 330.5 96 304C96 277.5 117.5 256 144 256C170.5 256 192 277.5 192 304zM448 0C518.7 0 576 57.31 576 128H224V16C224 7.164 231.2 0 240 0H448zM512 256V384H224V272C224 263.2 231.2 256 240 256H512z"/></svg>