<svg xmlns="http://www.w3.org/2000/svg" viewBox="0 0 640 512"><!--! Font Awesome Pro 6.2.0 by @fontawesome - https://fontawesome.com License - https://fontawesome.com/license (Commercial License) Copyright 2022 Fonticons, Inc. --><defs><style>.fa-secondary{opacity:.4}</style></defs><path class="fa-primary" d="M32 32C49.67 32 64 46.33 64 64V320H640V448C640 465.7 625.7 480 608 480C590.3 480 576 465.7 576 448V416H64V448C64 465.7 49.67 480 32 480C14.33 480 0 465.7 0 448V64C0 46.33 14.33 32 32 32z"/><path class="fa-secondary" d="M64 224H544C568.3 224 590.6 233.1 607.5 248H608V248.4C627.6 266 640 291.6 640 320H64V224z"/></svg>