<svg xmlns="http://www.w3.org/2000/svg" viewBox="0 0 640 512"><!--! Font Awesome Pro 6.2.0 by @fontawesome - https://fontawesome.com License - https://fontawesome.com/license (Commercial License) Copyright 2022 Fonticons, Inc. --><defs><style>.fa-secondary{opacity:.4}</style></defs><path class="fa-primary" d="M32 32C49.67 32 64 46.33 64 64V320H640V448C640 465.7 625.7 480 608 480C590.3 480 576 465.7 576 448V416H64V448C64 465.7 49.67 480 32 480C14.33 480 0 465.7 0 448V64C0 46.33 14.33 32 32 32z"/><path class="fa-secondary" d="M96 208C96 163.8 131.8 128 176 128C220.2 128 256 163.8 256 208C256 252.2 220.2 288 176 288C131.8 288 96 252.2 96 208zM288 160C288 142.3 302.3 128 320 128H544C597 128 640 170.1 640 224V320H288V160z"/></svg>