<svg xmlns="http://www.w3.org/2000/svg" viewBox="0 0 512 512"><!--! Font Awesome Pro 6.2.0 by @fontawesome - https://fontawesome.com License - https://fontawesome.com/license (Commercial License) Copyright 2022 Fonticons, Inc. --><defs><style>.fa-secondary{opacity:.4}</style></defs><path class="fa-primary" d="M281.4 105.4C293.9 92.88 314.1 92.88 326.6 105.4L406.6 185.4C419.1 197.9 419.1 218.1 406.6 230.6L403.8 233.5C411.7 255.5 416 279.3 416 304C416 418.9 322.9 512 208 512C93.12 512 0 418.9 0 304C0 189.1 93.12 96 208 96C232.7 96 256.5 100.3 278.5 108.3L281.4 105.4zM96 296C96 238.6 142.6 192 200 192H208C216.8 192 224 184.8 224 176C224 167.2 216.8 160 208 160H200C124.9 160 64 220.9 64 296V304C64 312.8 71.16 320 80 320C88.84 320 96 312.8 96 304V296z"/><path class="fa-secondary" d="M512 79.67C512 84.15 508.1 88.38 504.8 89.83L459.1 106.7L442.6 152.5C441.1 156.9 436.7 160 432.1 160C427.5 160 423.2 156.9 421.7 152.5L404.9 106.7L359.2 89.83C355 88.38 352 84.15 352 79.67C351.1 75.12 354.1 70.78 359.2 69.22L405.2 52.39L421.7 6.548C423.6 2.623 427.8 0 432.1 0C436.5 0 440.7 2.623 442.6 6.548L459.1 52.39L504.8 69.22C509 70.78 512 75.12 512 79.67V79.67z"/></svg>