<svg xmlns="http://www.w3.org/2000/svg" viewBox="0 0 640 512"><!--! Font Awesome Pro 6.2.0 by @fontawesome - https://fontawesome.com License - https://fontawesome.com/license (Commercial License) Copyright 2022 Fonticons, Inc. --><defs><style>.fa-secondary{opacity:.4}</style></defs><path class="fa-primary" d="M5.112 9.196C13.29-1.236 28.37-3.065 38.81 5.112L630.8 469.1C641.2 477.3 643.1 492.4 634.9 502.8C626.7 513.2 611.6 515.1 601.2 506.9L9.196 42.89C-1.236 34.71-3.065 19.63 5.112 9.196V9.196z"/><path class="fa-secondary" d="M128 75.02V48C128 21.49 149.5 0 176 0H464C490.5 0 512 21.49 512 48V375.1L128 75.02zM128 487.7V196.9L509.8 497.7C506 506.1 497.5 512 487.7 512C482.7 512 477.8 510.5 473.7 507.6L320 400L166.3 507.6C162.2 510.5 157.3 512 152.3 512C138.9 512 128 501.1 128 487.7z"/></svg>