<svg xmlns="http://www.w3.org/2000/svg" viewBox="0 0 512 512"><!--! Font Awesome Pro 6.2.0 by @fontawesome - https://fontawesome.com License - https://fontawesome.com/license (Commercial License) Copyright 2022 Fonticons, Inc. --><defs><style>.fa-secondary{opacity:.4}</style></defs><path class="fa-primary" d="M478.4 224C496.6 224 511.1 239.3 510 257.5C504.6 349.3 450.4 427.2 373.6 467.2L372.4 476.1C369.9 496.1 352.9 512 332.7 512H179.3C159.1 512 142.1 496.1 139.6 476.1L138.4 467.2C61.63 427.2 7.368 349.3 1.972 257.5C.9018 239.3 15.36 224 33.59 224H478.4z"/><path class="fa-secondary" d="M0 109.3C0 101.6 5.488 94.97 13.06 93.55L484.4 5.172C498.7 2.484 512 13.48 512 28.06C512 39.54 503.6 49.31 492.3 51.08L18.49 125.1C8.774 126.6 0 119.1 0 109.3V109.3zM487.6 128.8C500.1 128.3 512 139 512 152.4C512 165.4 501.4 175.1 488.4 175.1H16.25C7.275 175.1 0 168.7 0 159.7C0 150.1 6.97 143.8 15.74 143.5L487.6 128.8z"/></svg>