<svg xmlns="http://www.w3.org/2000/svg" viewBox="0 0 512 512"><!--! Font Awesome Pro 6.2.0 by @fontawesome - https://fontawesome.com License - https://fontawesome.com/license (Commercial License) Copyright 2022 Fonticons, Inc. --><defs><style>.fa-secondary{opacity:.4}</style></defs><path class="fa-primary" d="M478.4 224C496.6 224 511.1 239.3 510 257.5C504.6 349.3 450.4 427.2 373.6 467.2L372.4 476.1C369.9 496.1 352.9 512 332.7 512H179.3C159.1 512 142.1 496.1 139.6 476.1L138.4 467.2C61.63 427.2 7.368 349.3 1.972 257.5C.9021 239.3 15.36 224 33.59 224H478.4z"/><path class="fa-secondary" d="M217.6 128C202.3 165.3 160.8 192 112 192C50.14 192 0 149 0 96C0 42.98 50.14 0 112 0C160.8 0 202.3 26.71 217.6 64H480C497.7 64 512 78.33 512 96C512 113.7 497.7 128 480 128H217.6z"/></svg>