<svg xmlns="http://www.w3.org/2000/svg" viewBox="0 0 576 512"><!--! Font Awesome Pro 6.2.0 by @fontawesome - https://fontawesome.com License - https://fontawesome.com/license (Commercial License) Copyright 2022 Fonticons, Inc. --><defs><style>.fa-secondary{opacity:.4}</style></defs><path class="fa-primary" d="M41.37 9.372C53.87-3.124 74.13-3.124 86.63 9.372L534.6 457.4C547.1 469.9 547.1 490.1 534.6 502.6C522.1 515.1 501.9 515.1 489.4 502.6L434.7 448H384C366.3 448 352 433.7 352 416V365.3L210.7 223.1H160C142.3 223.1 128 209.7 128 191.1V141.3L41.37 54.63C28.88 42.13 28.88 21.87 41.37 9.372L41.37 9.372z"/><path class="fa-secondary" d="M566.6 265.4C579.1 277.9 579.1 298.1 566.6 310.6C554.1 323.1 533.9 323.1 521.4 310.6L498.7 288H448C430.3 288 416 273.7 416 256V205.3L370.7 160H320C302.3 160 288 145.7 288 128V77.25L265.4 54.63C252.9 42.13 252.9 21.87 265.4 9.372C277.9-3.124 298.1-3.124 310.6 9.372L566.6 265.4zM310.6 457.4C323.1 469.9 323.1 490.1 310.6 502.6C298.1 515.1 277.9 515.1 265.4 502.6L210.7 448H128C110.3 448 96 433.7 96 416V333.3L41.37 278.6C28.88 266.1 28.88 245.9 41.37 233.4C53.87 220.9 74.13 220.9 86.63 233.4L310.6 457.4z"/></svg>