<svg xmlns="http://www.w3.org/2000/svg" viewBox="0 0 448 512"><!--! Font Awesome Pro 6.2.0 by @fontawesome - https://fontawesome.com License - https://fontawesome.com/license (Commercial License) Copyright 2022 Fonticons, Inc. --><defs><style>.fa-secondary{opacity:.4}</style></defs><path class="fa-secondary" d="M216.6 49.94L223.1 57.37L231.4 49.94C242.9 38.45 258.5 32 274.7 32C308.6 32 336 59.42 336 93.25V98.12C336 110.1 332.7 121.9 326.6 132.1L294.6 185.4L347.9 153.4C358.1 147.3 369.9 144 381.9 144H386.7C420.6 144 448 171.4 448 205.3C448 221.5 441.5 237.1 430.1 248.6L422.6 255.1L430.1 263.4C441.5 274.9 448 290.5 448 306.7C448 340.6 420.6 368 386.7 368H381.9C369.9 368 358.1 364.7 347.9 358.6L294.6 326.6L326.6 379.9C332.7 390.1 336 401.9 336 413.9V418.7C336 452.6 308.6 480 274.7 480C258.5 480 242.9 473.5 231.4 462.1L223.1 454.6L216.6 462.1C205.1 473.5 189.5 480 173.3 480C139.4 480 112 452.6 112 418.7V413.9C112 401.9 115.3 390.1 121.4 379.9L153.4 326.6L100.1 358.6C89.86 364.7 78.1 368 66.12 368H61.25C27.42 368 0 340.6 0 306.7C0 290.5 6.454 274.9 17.94 263.4L25.37 255.1L17.94 248.6C6.454 237.1 0 221.5 0 205.3C0 171.4 27.42 144 61.25 144H66.12C78.1 144 89.86 147.3 100.1 153.4L153.4 185.4L121.4 132.1C115.3 121.9 112 110.1 112 98.12V93.25C112 59.42 139.4 32 173.3 32C189.5 32 205.1 38.45 216.6 49.94z"/></svg>