<svg xmlns="http://www.w3.org/2000/svg" viewBox="0 0 448 512"><!--! Font Awesome Pro 6.2.0 by @fontawesome - https://fontawesome.com License - https://fontawesome.com/license (Commercial License) Copyright 2022 Fonticons, Inc. --><defs><style>.fa-secondary{opacity:.4}</style></defs><path class="fa-primary" d="M160 448H288C288 483.3 259.3 512 224 512C188.7 512 160 483.3 160 448z"/><path class="fa-secondary" d="M112 40C112 17.91 129.9 0 152 0H296C318.1 0 336 17.91 336 40V96C358 96 377.2 110.1 382.6 132.4L446.6 388.4C450.2 402.7 446.9 417.9 437.8 429.5C428.7 441.2 414.8 448 400 448H48C33.22 448 19.26 441.2 10.17 429.5C1.07 417.9-2.152 402.7 1.433 388.4L65.43 132.4C70.78 110.1 89.97 96 111.1 96L112 40zM160 96H288V48H160V96z"/></svg>