<svg xmlns="http://www.w3.org/2000/svg" viewBox="0 0 512 512"><!--! Font Awesome Pro 6.2.0 by @fontawesome - https://fontawesome.com License - https://fontawesome.com/license (Commercial License) Copyright 2022 Fonticons, Inc. --><defs><style>.fa-secondary{opacity:.4}</style></defs><path class="fa-primary" d="M288 128C288 145.7 273.7 160 256 160C238.3 160 224 145.7 224 128V66.65C234.4 64.91 245.1 64 256 64C266.9 64 277.6 64.91 288 66.65V128zM66.65 288C64.91 277.6 64 266.9 64 256C64 245.1 64.91 234.4 66.65 224H128C145.7 224 160 238.3 160 256C160 273.7 145.7 288 128 288H66.65zM224 445.3V384C224 366.3 238.3 352 256 352C273.7 352 288 366.3 288 384V445.3C277.6 447.1 266.9 448 256 448C245.1 448 234.4 447.1 224 445.3zM448 256C448 266.9 447.1 277.6 445.3 288H384C366.3 288 352 273.7 352 256C352 238.3 366.3 224 384 224H445.3C447.1 234.4 448 245.1 448 256z"/><path class="fa-secondary" d="M0 256C0 114.6 114.6 0 256 0C397.4 0 512 114.6 512 256C512 397.4 397.4 512 256 512C114.6 512 0 397.4 0 256zM256 448C362 448 448 362 448 256C448 149.1 362 64 256 64C149.1 64 64 149.1 64 256C64 362 149.1 448 256 448z"/></svg>