<svg xmlns="http://www.w3.org/2000/svg" viewBox="0 0 576 512"><!--! Font Awesome Pro 6.2.0 by @fontawesome - https://fontawesome.com License - https://fontawesome.com/license (Commercial License) Copyright 2022 Fonticons, Inc. --><defs><style>.fa-secondary{opacity:.4}</style></defs><path class="fa-primary" d="M352 96H384C392.8 96 400 88.84 400 80C400 74.35 397.1 69.39 392.7 66.54C397.9 64.88 403.5 64 409.3 64C434.1 64 457.9 73.86 475.4 91.4L530.7 146.7C539.2 155.2 544 166.7 544 178.7C544 203.7 523.7 223.1 498.7 223.1H442.7L416 303.1V480C416 497.7 401.7 512 384 512H352C334.3 512 320 497.7 320 480V368H283.7C254.9 368 228.4 358.2 207.4 341.6C205.3 358.5 197.6 374.3 185.5 386.4L174.9 396.1C170.3 401.6 168.7 408.5 170.9 414.6L190.2 469.4C197.6 490.2 182.1 512 160 512H126.1C112.5 512 100.4 503.4 95.92 490.6L80.37 446.6C68.93 414.2 72.1 378.8 90.39 350.3C97.02 339.4 97.03 324.9 88 315.9C85.04 312.9 82.33 309.8 79.88 306.4C78.58 319.3 67.18 328.9 54.16 327.9C40.94 326.9 31.06 315.4 32.07 302.2L34.39 272C38.56 217.8 83.74 175.1 138.1 175.1H224C224.6 175.1 225.2 176 225.7 176C226.6 176 227.4 175.1 228.3 175.1H334.4L344 143.1H305.1C296 143.1 288 135.1 288 126C288 117.8 293.6 110.6 301.6 108.6L352 96zM432 128C423.2 128 416 135.2 416 144C416 152.8 423.2 160 432 160C440.8 160 448 152.8 448 144C448 135.2 440.8 128 432 128z"/><path class="fa-secondary" d="M272 .0003C280.8 .0003 288 7.164 288 16V40C288 53.26 298.7 64 312 64H328C341.3 64 352 53.26 352 40V16C352 7.164 359.2 .0003 368 .0003C376.8 .0003 384 7.164 384 16V40C384 48.59 382.1 56.73 378.6 64H384C392.8 64 400 71.16 400 80C400 88.84 392.8 96 384 96H312C281.1 96 256 70.93 256 40V16C256 7.164 263.2 .0003 272 .0003zM488 .0003C496.8 .0003 504 7.164 504 16V40C504 61.66 491.7 80.44 473.7 89.76C460.3 76.1 443.5 68.58 425.4 65.41C427.4 64.5 429.7 64 432 64H448C461.3 64 472 53.25 472 40V16C472 7.164 479.2 0 488 0V.0003z"/></svg>