<svg xmlns="http://www.w3.org/2000/svg" viewBox="0 0 640 512"><!--! Font Awesome Pro 6.2.0 by @fontawesome - https://fontawesome.com License - https://fontawesome.com/license (Commercial License) Copyright 2022 Fonticons, Inc. --><defs><style>.fa-secondary{opacity:.4}</style></defs><path class="fa-primary" d="M448 208C448 199.2 455.2 192 464 192C472.8 192 480 199.2 480 208C480 216.8 472.8 224 464 224C455.2 224 448 216.8 448 208zM512 352C538.9 352 563.1 340.1 580.6 323.2C586.8 316.9 596.9 316.8 603.2 322.1C609.5 329.1 609.6 339.3 603.4 345.6C580.2 369.3 547.8 384 512 384C465.4 384 424.7 359.1 402.3 321.1C397.7 314.4 400.2 304.6 407.7 300C415.3 295.5 425.1 297.9 429.7 305.5C446.5 333.4 477.1 352 512 352H512z"/><path class="fa-secondary" d="M192 112C192 50.14 242.1 .0016 303.1 0C334.5 0 362.2 12.21 382.4 32H383.1C472.4 32 543.1 103.6 543.1 192V346.5C533.1 350.1 523.2 352 512 352C477.1 352 446.5 333.4 429.7 305.5C425.1 297.9 415.3 295.5 407.7 300C400.2 304.6 397.7 314.4 402.3 321.1C406.3 328.6 410.9 334.9 415.1 340.7V480C415.1 497.7 401.7 512 383.1 512H319.1C302.3 512 287.1 497.7 287.1 480V409.1C272.7 413.9 256.6 416 239.1 416C223.4 416 207.3 413.9 191.1 409.1V480C191.1 497.7 177.7 512 159.1 512H95.1C78.32 512 63.1 497.7 63.1 480V344.7C61.44 349.4 58.54 353.9 55.32 358.2L43.2 374.4C35.24 385 20.2 387.2 9.598 379.2C-1.006 371.2-3.155 356.2 4.798 345.6L16.92 329.4C22.59 321.9 26.49 313.1 28.35 303.9C30.77 291.7 31.1 279.4 31.1 267V248C31.1 175.8 67.43 111.9 121.9 72.64C138.6 59.57 157.5 49.22 178 42.23C166.5 62.9 160 86.69 160 112C160 191.5 224.5 256 304 256C312.8 256 320 248.8 320 240C320 231.2 312.8 224 304 224C242.1 224 192 173.9 192 112V112zM464 192C455.2 192 448 199.2 448 208C448 216.8 455.2 224 464 224C472.8 224 480 216.8 480 208C480 199.2 472.8 192 464 192zM512 384C523 384 533.8 382.6 543.1 379.1V398.6C543.1 408.2 551.8 416 561.4 416C568 416 574.1 412.3 577 406.4L579.4 401.7C587.3 385.9 606.5 379.5 622.3 387.4C638.1 395.3 644.5 414.5 636.6 430.3L634.3 434.1C620.5 462.6 592.3 480 561.4 480C516.5 480 479.1 443.5 479.1 398.6V379.1C490.2 382.6 500.9 384 512 384V384z"/></svg>