<svg xmlns="http://www.w3.org/2000/svg" viewBox="0 0 576 512"><!--! Font Awesome Pro 6.2.0 by @fontawesome - https://fontawesome.com License - https://fontawesome.com/license (Commercial License) Copyright 2022 Fonticons, Inc. --><defs><style>.fa-secondary{opacity:.4}</style></defs><path class="fa-primary" d="M0 312C0 298.7 10.75 288 24 288H136C149.3 288 160 298.7 160 312C160 325.3 149.3 336 136 336H24C10.75 336 0 325.3 0 312zM224 312C224 298.7 234.7 288 248 288H328C341.3 288 352 298.7 352 312C352 325.3 341.3 336 328 336H248C234.7 336 224 325.3 224 312zM416 312C416 298.7 426.7 288 440 288H552C565.3 288 576 298.7 576 312C576 325.3 565.3 336 552 336H440C426.7 336 416 325.3 416 312z"/><path class="fa-secondary" d="M320 0V128C320 145.7 334.3 160 352 160H480V256H96V64C96 28.65 124.7 0 160 0H320zM480 448C480 483.3 451.3 512 416 512H160C124.7 512 96 483.3 96 448V368H480V448zM352 0L480 128H352V0z"/></svg>