<svg xmlns="http://www.w3.org/2000/svg" viewBox="0 0 384 512"><!--! Font Awesome Pro 6.2.0 by @fontawesome - https://fontawesome.com License - https://fontawesome.com/license (Commercial License) Copyright 2022 Fonticons, Inc. --><defs><style>.fa-secondary{opacity:.4}</style></defs><path class="fa-primary" d="M291.3 433.1C290.7 441.5 283.7 448 275.3 448H108.7C100.3 448 93.33 441.5 92.73 433.1L83.05 297.5L95.1 304C116.1 314.1 139.9 314.1 159.1 304C180.1 293.9 203.9 293.9 224 304C244.1 314.1 267.9 314.1 288 304L300.1 297.5L291.3 433.1zM256 196C256 229.1 227.3 256 191.1 256C156.7 256 127.1 229.1 127.1 196C127.1 171.1 161.7 125.9 180.2 102.5C186.3 94.77 197.7 94.77 203.8 102.5C222.3 125.9 256 171.1 256 196V196z"/><path class="fa-secondary" d="M8.58 10.19C14.63 3.692 23.12 0 32 0H352C360.9 0 369.4 3.692 375.4 10.19C381.5 16.69 384.6 25.42 383.9 34.28L355.1 437.7C352.1 479.6 317.3 512 275.3 512H108.7C66.72 512 31.89 479.6 28.9 437.7L.0813 34.28C-.5517 25.42 2.527 16.69 8.58 10.19V10.19zM66.37 64L92.73 433.1C93.33 441.5 100.3 448 108.7 448H275.3C283.7 448 290.7 441.5 291.3 433.1L317.6 64H66.37z"/></svg>