<svg xmlns="http://www.w3.org/2000/svg" viewBox="0 0 576 512"><!--! Font Awesome Pro 6.2.0 by @fontawesome - https://fontawesome.com License - https://fontawesome.com/license (Commercial License) Copyright 2022 Fonticons, Inc. --><defs><style>.fa-secondary{opacity:.4}</style></defs><path class="fa-primary" d="M369.8 163.7C375.4 158.7 383.1 158.8 389.5 163.8C409.3 181.6 427.8 200.7 445 221.5C452.9 211.6 461.8 200.8 471.5 191.1C477.1 186.9 485.9 186.9 491.5 192C516.2 214.7 537.1 244.7 551.8 273.2C566.4 301.2 576 329.9 576 350.1C576 437.9 504.7 512 416 512C326.3 512 256 437.8 256 350.1C256 323.7 268.7 291.5 288.4 259.5C308.4 227.2 336.5 193.4 369.8 163.7V163.7zM416.1 448C435 448 451 442.1 466 432.1C496 412 504 370 486 336.1C484 332.1 482 328.1 479 324.1L443 366.1C443 366.1 384.1 292.1 380.1 287.1C351 324.1 336 346 336 370C336 418.1 372 448 416.1 448z"/><path class="fa-secondary" d="M408 32C430.1 32 448 49.91 448 72V96C448 120.1 444.2 143.3 437.1 165.1C428.7 156.4 419.9 148.1 410.1 139.1C393.3 124 366.2 123.1 348.5 139.9C313.1 171.5 282.9 207.6 261.2 242.7C246.2 267 233.5 293.8 227.6 319.1C226.4 319.1 225.2 320 224 320C207.1 320 190.6 318.1 174.7 314.6L151.8 368H224.8C226.4 384.6 229.1 400.7 235.5 416H160C160 451.3 131.3 480 96 480C60.65 480 32 451.3 32 416C32 380.7 60.65 352 96 352C99.44 352 102.8 352.3 106.1 352.8L129.2 298.1C52.86 263.3 0 185.8 0 96V72C0 49.91 17.91 32 40 32H408zM96 392C82.75 392 72 402.7 72 416C72 429.3 82.75 440 96 440C109.3 440 120 429.3 120 416C120 402.7 109.3 392 96 392z"/></svg>