<svg xmlns="http://www.w3.org/2000/svg" viewBox="0 0 448 512"><!--! Font Awesome Pro 6.2.0 by @fontawesome - https://fontawesome.com License - https://fontawesome.com/license (Commercial License) Copyright 2022 Fonticons, Inc. --><defs><style>.fa-secondary{opacity:.4}</style></defs><path class="fa-primary" d="M0 192C0 174.3 14.33 160 32 160H416C433.7 160 448 174.3 448 192C448 270.1 401.4 337.3 334.4 367.3L382.1 478.5C387.3 490.7 381.6 504.8 369.5 510.1C357.3 515.3 343.2 509.6 337.9 497.5L327 472H155.3C145.9 495.5 122.9 512 96 512C60.65 512 32 483.3 32 448C32 412.7 60.65 384 96 384C99.44 384 102.8 384.3 106.1 384.8L113.6 367.3C46.65 337.3 .0003 270.1 .0003 192H0zM155.3 424H306.5L288.2 381.3C277.7 383.1 266.1 384 256 384H191.1C181 384 170.3 383.1 159.8 381.3L147.5 410C150.7 414.3 153.3 418.1 155.3 424H155.3zM96 472C109.3 472 120 461.3 120 448C120 434.7 109.3 424 96 424C82.75 424 72 434.7 72 448C72 461.3 82.75 472 96 472z"/><path class="fa-secondary" d="M144 26.59C144 31.94 146.7 36.94 151.1 39.91L163.5 48.16C181.3 60.03 192 80.01 192 101.4V103.1C192 117.3 181.3 127.1 168 127.1C154.7 127.1 144 117.3 144 103.1V101.4C144 96.06 141.3 91.06 136.9 88.09L124.5 79.84C106.7 67.97 96 47.99 96 26.59V24C96 10.75 106.7 0 120 0C133.3 0 144 10.75 144 24V26.59zM256 26.59C256 31.94 258.7 36.94 263.1 39.91L275.5 48.16C293.3 60.03 304 80.01 304 101.4V103.1C304 117.3 293.3 127.1 280 127.1C266.7 127.1 256 117.3 256 103.1V101.4C256 96.06 253.3 91.06 248.9 88.09L236.5 79.84C218.7 67.97 208 47.99 208 26.59V24C208 10.75 218.7 0 232 0C245.3 0 256 10.75 256 24V26.59z"/></svg>