<svg xmlns="http://www.w3.org/2000/svg" viewBox="0 0 448 512"><!--! Font Awesome Pro 6.2.0 by @fontawesome - https://fontawesome.com License - https://fontawesome.com/license (Commercial License) Copyright 2022 Fonticons, Inc. --><defs><style>.fa-secondary{opacity:.4}</style></defs><path class="fa-primary" d="M408 32C430.1 32 448 49.91 448 72V96C448 219.7 347.7 320 224 320C100.3 320 0 219.7 0 96V72C0 49.91 17.91 32 40 32H408zM160 416C160 451.3 131.3 480 96 480C60.65 480 32 451.3 32 416C32 380.7 60.65 352 96 352C131.3 352 160 380.7 160 416zM96 392C82.75 392 72 402.7 72 416C72 429.3 82.75 440 96 440C109.3 440 120 429.3 120 416C120 402.7 109.3 392 96 392z"/><path class="fa-secondary" d="M106.1 352.8L129.2 299C143.6 305.7 158.8 310.1 174.7 314.6L151.8 368H296.2L273.3 314.6C289.2 310.1 304.4 305.7 318.8 299L382.1 446.5C387.3 458.7 381.6 472.8 369.5 478.1C357.3 483.3 343.2 477.6 337.9 465.5L316.7 416H160C160 416 160 416 160 416C160 384.1 136.7 357.6 106.1 352.8H106.1z"/></svg>