<svg xmlns="http://www.w3.org/2000/svg" viewBox="0 0 640 512"><!--! Font Awesome Pro 6.2.0 by @fontawesome - https://fontawesome.com License - https://fontawesome.com/license (Commercial License) Copyright 2022 Fonticons, Inc. --><defs><style>.fa-secondary{opacity:.4}</style></defs><path class="fa-primary" d="M360 40C360 62.09 342.1 80 320 80C297.9 80 280 62.09 280 40C280 17.91 297.9 0 320 0C342.1 0 360 17.91 360 40zM384.5 180.1L364.7 164.3L375.8 253C377.5 266.2 368.1 278.2 354.1 279.8C341.8 281.5 329.8 272.1 328.2 258.1L323.8 223.1H316.2L311.8 258.1C310.2 272.1 298.2 281.5 285 279.8C271.9 278.2 262.5 266.2 264.2 253L275.3 164.3L255.5 180.1C245.4 189.6 230.2 188.3 221.7 178.2C213.1 168 214.4 152.9 224.5 144.3L266 109.2C276.1 100.7 288.9 96 302.2 96H337.8C351.1 96 363.9 100.7 373.1 109.2L415.5 144.3C425.6 152.9 426.9 168 418.3 178.2C409.8 188.3 394.6 189.6 384.5 180.1H384.5z"/><path class="fa-secondary" d="M79.1 264.2C79.1 281.2 86.74 297.5 98.74 309.5L149.8 360.6C158.1 368.9 171.1 370.1 180.8 363.7C193.7 355 195.5 336.8 184.6 325.8L137.4 278.6C124.9 266.1 124.9 245.9 137.4 233.4C149.9 220.9 170.1 220.9 182.6 233.4L255.2 305.9C276.2 326.9 288 355.4 288 385.1V464C288 490.5 266.5 512 240 512H173.3C156.3 512 140 505.3 128 493.3L28.12 393.4C10.11 375.4 0 350.1 0 325.5V104C0 81.91 17.91 64 40 64C62.09 64 80 81.91 80 104L79.1 264.2zM560 104C560 81.91 577.9 64 600 64C622.1 64 640 81.91 640 104V325.5C640 350.1 629.9 375.4 611.9 393.4L512 493.3C499.1 505.3 483.7 512 466.7 512H400C373.5 512 352 490.5 352 464V385.1C352 355.4 363.8 326.9 384.8 305.9L457.4 233.4C469.9 220.9 490.1 220.9 502.6 233.4C515.1 245.9 515.1 266.1 502.6 278.6L455.4 325.8C444.5 336.8 446.3 355 459.2 363.7C468.9 370.1 481.9 368.9 490.2 360.6L541.3 309.5C553.3 297.5 560 281.2 560 264.2L560 104z"/></svg>