<svg xmlns="http://www.w3.org/2000/svg" viewBox="0 0 640 512"><!--! Font Awesome Pro 6.2.0 by @fontawesome - https://fontawesome.com License - https://fontawesome.com/license (Commercial License) Copyright 2022 Fonticons, Inc. --><defs><style>.fa-secondary{opacity:.4}</style></defs><path class="fa-primary" d="M319.1 0C333.3 0 344 10.75 344 24V34.51C350.4 35.69 356.6 37.17 362.2 38.66C374.1 42.08 382.6 55.22 379.2 68.03C375.8 80.84 362.6 88.46 349.8 85.05C338.9 82.15 328.7 80.15 319.6 80.01C312.3 79.89 304.9 81.66 300.3 84.42C298.1 85.69 297.1 86.81 296.7 87.46C296.4 87.92 296.1 88.64 296.1 90.27C296.1 90.61 296.1 90.81 296.1 90.91C296.3 91.12 297 92.08 299.5 93.53C305.3 97.04 313.9 99.75 326.8 103.7L327.7 103.9C338.8 107.3 353.6 111.7 365.6 119.3C379.2 127.9 391.7 142.1 391.1 164.2C392.3 186.7 380.6 203.1 365.3 212.6C358.6 216.8 351.4 219.6 344 221.4V232C344 245.3 333.3 256 320 256C306.7 256 296 245.3 296 232V220.6C286.5 218.4 277.8 215.4 270.4 212.8C268.3 212.1 266.3 211.4 264.4 210.8C251.8 206.6 245 192.1 249.2 180.4C253.4 167.8 267 161 279.6 165.2C282.2 166.1 284.6 166.9 286.9 167.7C300.6 172.3 310.3 175.6 320.8 175.1C328.8 176.2 335.8 174.4 339.1 171.8C341.8 170.7 342.7 169.6 343.2 168.9C343.5 168.3 344 167.1 343.1 164.8L343.1 164.5C344 163.5 344 162.4 340 159.9C334.3 156.3 325.7 153.5 312.9 149.6L311.1 149C300.3 145.8 286.1 141.5 274.7 134.6C261.2 126.5 248.2 112.6 248.1 90.51C247.9 67.65 260.9 51.91 275.8 43.11C282.2 39.35 289.1 36.67 295.1 34.89V24C295.1 10.75 306.7 .0003 319.1 .0003L319.1 0z"/><path class="fa-secondary" d="M79.1 264.2C79.1 281.2 86.74 297.5 98.74 309.5L149.8 360.6C158.1 368.9 171.1 370.1 180.8 363.7C193.7 355 195.5 336.8 184.6 325.8L137.4 278.6C124.9 266.1 124.9 245.9 137.4 233.4C149.9 220.9 170.1 220.9 182.6 233.4L255.2 305.9C276.2 326.9 288 355.4 288 385.1V464C288 490.5 266.5 512 240 512H173.3C156.3 512 140 505.3 128 493.3L28.12 393.4C10.11 375.4 0 350.1 0 325.5V104C0 81.91 17.91 64 40 64C62.09 64 80 81.91 80 104L79.1 264.2zM560 104C560 81.91 577.9 64 600 64C622.1 64 640 81.91 640 104V325.5C640 350.1 629.9 375.4 611.9 393.4L512 493.3C499.1 505.3 483.7 512 466.7 512H400C373.5 512 352 490.5 352 464V385.1C352 355.4 363.8 326.9 384.8 305.9L457.4 233.4C469.9 220.9 490.1 220.9 502.6 233.4C515.1 245.9 515.1 266.1 502.6 278.6L455.4 325.8C444.5 336.8 446.3 355 459.2 363.7C468.9 370.1 481.9 368.9 490.2 360.6L541.3 309.5C553.3 297.5 560 281.2 560 264.2L560 104z"/></svg>