<svg xmlns="http://www.w3.org/2000/svg" viewBox="0 0 640 512"><!--! Font Awesome Pro 6.2.0 by @fontawesome - https://fontawesome.com License - https://fontawesome.com/license (Commercial License) Copyright 2022 Fonticons, Inc. --><defs><style>.fa-secondary{opacity:.4}</style></defs><path class="fa-primary" d="M480 144C480 152.8 472.8 160 464 160C455.2 160 448 152.8 448 144C448 135.2 455.2 128 464 128C472.8 128 480 135.2 480 144zM544 144C544 152.8 536.8 160 528 160C519.2 160 512 152.8 512 144C512 135.2 519.2 128 528 128C536.8 128 544 135.2 544 144zM608 304V336C608 344.8 600.8 352 592 352H560C551.2 352 544 344.8 544 336V320H560C578 320 594.6 314 608 304zM480 320V336C480 344.8 472.8 352 464 352H432C423.2 352 416 344.8 416 336V318.4C421.2 319.4 426.5 320 432 320H480z"/><path class="fa-secondary" d="M407 47.03C416.4 37.66 431.6 37.66 440.1 47.03L458.2 64.21C460.1 64.07 462 64 463.1 64H495.1C507.2 64 517.9 66.31 527.6 70.48L543 55.03C552.4 45.66 567.6 45.66 576.1 55.03C586.3 64.4 586.3 79.6 576.1 88.97L564 101.9C571.6 114.1 575.1 128.6 575.1 144C575.1 154.2 583.4 162.8 592.7 166.1C620.6 179.5 639.1 207.5 639.1 240C639.1 284.2 604.2 320 559.1 320H431.1C413.1 320 397.4 314 383.1 304C383 303.3 382.1 302.5 381.1 301.7C363.3 287.1 351.1 264.9 351.1 240C351.1 231.2 344.8 224 335.1 224C327.2 224 319.1 231.2 319.1 240C319.1 284.7 346.2 323.2 383.1 341.2V352C383.1 369.7 398.3 384 415.1 384H447.1V448C447.1 465.7 433.7 480 415.1 480H351.1C334.3 480 319.1 465.7 319.1 448V372C300.2 379.7 278.6 384 255.1 384C233.4 384 211.8 379.7 191.1 372V448C191.1 465.7 177.7 480 159.1 480H95.1C78.33 480 63.1 465.7 63.1 448V329.1L45.93 369.7C40.55 381.9 26.36 387.3 14.25 381.9C2.138 376.5-3.317 362.4 2.067 350.3L23.1 300.9C29.27 289 31.1 276.2 31.1 263.2C31.1 155.7 117.2 68.02 223.8 64.13L223.1 64H288C329.7 64 371.4 76.07 405.2 89.73C406.9 87.9 408.7 86.15 410.5 84.48L407 80.97C397.7 71.6 397.7 56.4 407 47.03H407zM455.1 208C442.7 208 431.1 218.7 431.1 232C431.1 245.3 442.7 256 455.1 256C469.3 256 479.1 245.3 479.1 232C479.1 218.7 469.3 208 455.1 208zM567.1 256C581.3 256 591.1 245.3 591.1 232C591.1 218.7 581.3 208 567.1 208C554.7 208 543.1 218.7 543.1 232C543.1 245.3 554.7 256 567.1 256zM463.1 128C455.2 128 447.1 135.2 447.1 144C447.1 152.8 455.2 160 463.1 160C472.8 160 479.1 152.8 479.1 144C479.1 135.2 472.8 128 463.1 128zM527.1 160C536.8 160 543.1 152.8 543.1 144C543.1 135.2 536.8 128 527.1 128C519.2 128 511.1 135.2 511.1 144C511.1 152.8 519.2 160 527.1 160z"/></svg>