<svg xmlns="http://www.w3.org/2000/svg" viewBox="0 0 320 512"><!--! Font Awesome Pro 6.2.0 by @fontawesome - https://fontawesome.com License - https://fontawesome.com/license (Commercial License) Copyright 2022 Fonticons, Inc. --><defs><style>.fa-secondary{opacity:.4}</style></defs><path class="fa-primary" d="M224 384C241.7 384 256 398.3 256 416V448C256 465.7 241.7 480 224 480H192C192 497.7 177.7 512 160 512C142.3 512 128 497.7 128 480H96C78.33 480 64 465.7 64 448V416C64 398.3 78.33 384 96 384H224z"/><path class="fa-secondary" d="M39.76 95.04C22.62 99.33 5.242 88.91 .9555 71.76C-3.331 54.62 7.093 37.24 24.24 32.96L152.2 .9552C169.4-3.331 186.8 7.093 191 24.24C195.3 41.38 184.9 58.76 167.8 63.04L39.76 95.04zM319 88.24C323.3 105.4 312.9 122.8 295.8 127L39.76 191C22.62 195.3 5.242 184.9 .9552 167.8C-3.331 150.6 7.093 133.2 24.24 128.1L280.2 64.96C297.4 60.67 314.8 71.09 319 88.24V88.24zM319 184.2C323.3 201.4 312.9 218.8 295.8 223L39.76 287C22.62 291.3 5.242 280.9 .9552 263.8C-3.331 246.6 7.093 229.2 24.24 224.1L280.2 160.1C297.4 156.7 314.8 167.1 319 184.2V184.2zM144 293.1V384H96V305.1L144 293.1zM319 280.2C323.3 297.4 312.9 314.8 295.8 319L224 336.1V384H176V308.7C175.1 308.2 175.1 307.7 176 307.3V304L176.2 303.1C177.9 291.3 187.1 280.2 200.2 276.1L280.2 256.1C297.4 252.7 314.8 263.1 319 280.2V280.2z"/></svg>