<svg xmlns="http://www.w3.org/2000/svg" viewBox="0 0 512 512"><!--! Font Awesome Pro 6.2.0 by @fontawesome - https://fontawesome.com License - https://fontawesome.com/license (Commercial License) Copyright 2022 Fonticons, Inc. --><defs><style>.fa-secondary{opacity:.4}</style></defs><path class="fa-primary" d="M424.8 119.5C429.5 107.2 432 93.9 432 80C432 48.79 419.2 20.56 398.6 .2464C444.1 3.638 480 41.63 480 88C480 107.7 473.5 125.8 462.6 140.5C492.7 164.5 512 201.4 512 242.9C512 258.1 498.1 272 482.9 272H380.1C378.1 272 376.1 271.9 374.1 271.8L350.3 335.3L394 351.2C407.2 355.1 416 368.5 416 382.6C416 401 401 416 382.6 416H72C58.75 416 48 426.7 48 440C48 453.3 58.75 464 72 464H456C469.3 464 480 474.7 480 488C480 501.3 469.3 512 456 512H72C32.24 512 0 479.8 0 440C0 400.2 32.24 368 72 368H103.5C98.69 357.5 96 345.9 96 333.6C96 240.4 169.5 164.3 261.6 160.2C238.9 144.3 224 117.9 224 88C224 39.4 263.4 0 312 0C360.6 0 400 39.4 400 88C400 96.64 398.8 104.1 396.4 112.9C406.3 114 415.8 116.3 424.8 119.5V119.5zM420 176C408.1 176 400 184.1 400 196C400 207 408.1 216 420 216C431 216 440 207 440 196C440 184.1 431 176 420 176zM312 48C289.9 48 272 65.91 272 88C272 110.1 289.9 128 312 128H336C344.8 128 352 120.8 352 112V88C352 65.91 334.1 48 312 48z"/><path class="fa-secondary" d="M272 88C272 65.91 289.9 48 312 48C334.1 48 352 65.91 352 88V112C352 120.8 344.8 128 336 128H312C289.9 128 272 110.1 272 88z"/></svg>