<svg xmlns="http://www.w3.org/2000/svg" viewBox="0 0 640 512"><!--! Font Awesome Pro 6.2.0 by @fontawesome - https://fontawesome.com License - https://fontawesome.com/license (Commercial License) Copyright 2022 Fonticons, Inc. --><defs><style>.fa-secondary{opacity:.4}</style></defs><path class="fa-primary" d="M433.8 163.6C439.4 158.6 447.1 158.6 453.5 163.6C473.3 181.4 491.8 200.6 509 221.3C516.9 211.5 525.8 200.6 535.5 191.8C541.1 186.7 549.9 186.7 555.5 191.9C580.2 214.6 601.1 244.5 615.8 273C630.4 301.1 640 329.8 640 349.9C640 437.8 568.7 511.9 480 511.9C390.3 511.9 320 437.7 320 349.9C320 323.5 332.7 291.3 352.4 259.4C372.4 227 400.5 193.3 433.8 163.6V163.6zM480.1 447.9C499 447.9 515 442.9 530 432.9C560 411.9 568 369.9 550 336.9C548 332.9 546 328.9 543 324.9L507 366.9C507 366.9 448.1 292.9 444.1 287.9C415 324.9 400 345.9 400 369.9C400 418.9 436 447.9 480.1 447.9z"/><path class="fa-secondary" d="M384 32C419.3 32 448 60.65 448 96V128.2C435.4 127 422.5 130.9 412.5 139.9C402.5 148.7 393 157.9 384 167.4V128C384 110.3 369.7 96 352 96H96C78.33 96 64 110.3 64 128V192C64 209.7 78.33 224 96 224H337.5C333.1 230.2 328.1 236.5 325.2 242.7C314.3 260.3 304.7 279.2 297.9 298.1C294.9 296.8 291.5 296 288 296C274.7 296 264 306.7 264 320C264 333.3 274.7 344 288 344L288.2 344C288.1 346 288 348.1 288 350.1C288 399.4 306.6 445.3 337.6 480H64C28.65 480 0 451.3 0 416V96C0 60.65 28.65 32 64 32H384zM96 344C109.3 344 120 333.3 120 320C120 306.7 109.3 296 96 296C82.75 296 72 306.7 72 320C72 333.3 82.75 344 96 344zM192 296C178.7 296 168 306.7 168 320C168 333.3 178.7 344 192 344C205.3 344 216 333.3 216 320C216 306.7 205.3 296 192 296z"/></svg>