<svg xmlns="http://www.w3.org/2000/svg" viewBox="0 0 448 512"><!--! Font Awesome Pro 6.2.0 by @fontawesome - https://fontawesome.com License - https://fontawesome.com/license (Commercial License) Copyright 2022 Fonticons, Inc. --><defs><style>.fa-secondary{opacity:.4}</style></defs><path class="fa-primary" d="M97.72 286C103.1 283.8 109.5 279.7 112.7 273.9L152.7 201.1C167.1 176.1 194.4 160 224 160C253.6 160 280.9 176.1 295.3 201.1L335.3 273.9C338.5 279.7 344 283.8 350.3 286C388.6 300 416 336.8 416 380C416 435.2 371.2 480 316 480C294.8 480 275.2 473.4 259.1 462.2C241.7 450.2 206.3 450.2 188.9 462.2C172.8 473.4 153.2 480 132 480C76.77 480 32 435.2 32 380C32 336.8 59.38 300 97.72 286H97.72z"/><path class="fa-secondary" d="M96 80C96 53.49 117.5 32 144 32C170.5 32 192 53.49 192 80C192 106.5 170.5 128 144 128C117.5 128 96 106.5 96 80zM256 80C256 53.49 277.5 32 304 32C330.5 32 352 53.49 352 80C352 106.5 330.5 128 304 128C277.5 128 256 106.5 256 80zM448 192C448 218.5 426.5 240 400 240C373.5 240 352 218.5 352 192C352 165.5 373.5 144 400 144C426.5 144 448 165.5 448 192zM0 192C0 165.5 21.49 144 48 144C74.51 144 96 165.5 96 192C96 218.5 74.51 240 48 240C21.49 240 0 218.5 0 192z"/></svg>