<svg xmlns="http://www.w3.org/2000/svg" viewBox="0 0 640 512"><!--! Font Awesome Pro 6.2.0 by @fontawesome - https://fontawesome.com License - https://fontawesome.com/license (Commercial License) Copyright 2022 Fonticons, Inc. --><defs><style>.fa-secondary{opacity:.4}</style></defs><path class="fa-primary" d="M47.45 240C21.24 240 0 218.8 0 192.6C0 170.8 14.82 151.8 35.94 146.5L44.12 144.5C52.69 142.3 61.38 147.5 63.52 156.1C65.67 164.7 60.45 173.4 51.88 175.5L43.7 177.6C36.82 179.3 32 185.5 32 192.6C32 201.1 38.92 207.1 47.45 207.1H83.2C81.1 218.3 80 229 80 239.1L47.45 240zM456 236C456 224.1 464.1 216 476 216C487 216 496 224.1 496 236C496 247 487 256 476 256C464.1 256 456 247 456 236z"/><path class="fa-secondary" d="M513.5 32C521.5 32 528 38.48 528 46.47V78.03C528 97.78 518.1 115.8 504.4 127.7C510.8 132.6 517 137.8 522.1 143.3C540.5 127.5 551.4 104.8 551.1 80H592C600.8 80 608 87.16 608 96V112C608 144.8 583.4 171.8 551.7 175.5L558.4 184.6C569.1 199.1 584.1 212.5 602.2 221.1L608 224H616C629.3 224 640 234.7 640 248V344C640 357.3 629.3 368 616 368H572.5C550.3 389.2 522.8 404.2 492.8 411.3L479.8 456.8C475.8 470.5 463.3 480 449 480H416C398.3 480 384 465.7 384 448V416H272V448C272 465.7 257.7 480 240 480H206.1C192.7 480 180.2 470.5 176.2 456.8L154.1 382.4C110.3 357.1 80 310.5 80 256V240C80 151.6 151.6 80 240 80H362.4C376.8 80 391.1 81.33 405.1 83.91C413.2 64.44 430.5 49.47 452.1 44.83L510.5 32.32C511.5 32.11 512.5 32 513.5 32L513.5 32zM476 256C487 256 496 247 496 236C496 224.1 487 216 476 216C464.1 216 456 224.1 456 236C456 247 464.1 256 476 256z"/></svg>