<svg xmlns="http://www.w3.org/2000/svg" viewBox="0 0 384 512"><!--! Font Awesome Pro 6.2.0 by @fontawesome - https://fontawesome.com License - https://fontawesome.com/license (Commercial License) Copyright 2022 Fonticons, Inc. --><defs><style>.fa-secondary{opacity:.4}</style></defs><path class="fa-primary" d="M0 320C0 213.1 85.96 128 192 128C298 128 384 213.1 384 320C384 426 298 512 192 512C85.96 512 0 426 0 320zM192 192C121.3 192 64 249.3 64 320C64 390.7 121.3 448 192 448C262.7 448 320 390.7 320 320C320 249.3 262.7 192 192 192z"/><path class="fa-secondary" d="M122.5 13.27C126.6 5.136 134.9 0 144 0H240C249.1 0 257.4 5.136 261.5 13.27L285.5 61.27C289 68.35 288.8 76.73 284.1 83.66L254.6 138.4C234.9 131.7 213.9 128 192 128C170.1 128 149.1 131.7 129.4 138.4L99.02 83.66C95.17 76.73 94.99 68.35 98.53 61.27L122.5 13.27z"/></svg>