<svg xmlns="http://www.w3.org/2000/svg" viewBox="0 0 512 512"><!--! Font Awesome Pro 6.2.0 by @fontawesome - https://fontawesome.com License - https://fontawesome.com/license (Commercial License) Copyright 2022 Fonticons, Inc. --><defs><style>.fa-secondary{opacity:.4}</style></defs><path class="fa-secondary" d="M169.1 23.33C186.5 8.317 207.1 0 230.3 0H231.4C280.3 0 320 39.65 320 88.57C320 112.1 310.7 134.6 294.1 151.2L103.2 342.1C98.59 346.7 96 352.9 96 359.4C96 373 107 384 120.6 384C127.1 384 133.3 381.4 137.9 376.8L360.8 153.9C377.4 137.3 399.9 128 423.4 128C472.3 128 512 167.7 512 216.6C512 240.1 502.7 262.6 486.1 279.2L397.8 367.4C388.1 376.3 384 388.3 384 400.9C384 426.9 405.1 448 430.1 448C437.2 448 443.4 446.5 448.9 443.8L465.7 435.4C481.5 427.5 500.7 433.9 508.6 449.7C516.5 465.5 510.1 484.7 494.3 492.6L477.6 500.1C463.1 508.2 447.1 512 430.1 512C369.6 512 320 462.1 320 400.9C320 371.4 331.7 343.1 352.6 322.2L440.8 233.9C445.4 229.3 448 223.1 448 216.6C448 203 437 192 423.4 192C416.9 192 410.7 194.6 406.1 199.2L183.2 422.1C166.6 438.7 144.1 448 120.6 448C71.65 448 32 408.3 32 359.4C32 335.9 41.33 313.4 57.94 296.8L248.8 105.9C253.4 101.3 256 95.08 256 88.57C256 75 245 64 231.4 64H230.3C223.9 64 217.8 66.38 213 70.68L53.53 215.7C40.45 227.6 20.21 226.6 8.322 213.5C-3.566 200.4-2.602 180.2 10.47 168.3L169.1 23.33z"/></svg>