<svg xmlns="http://www.w3.org/2000/svg" viewBox="0 0 640 512"><!--! Font Awesome Pro 6.2.0 by @fontawesome - https://fontawesome.com License - https://fontawesome.com/license (Commercial License) Copyright 2022 Fonticons, Inc. --><defs><style>.fa-secondary{opacity:.4}</style></defs><path class="fa-primary" d="M603.1 74.69C611.3 85.71 608.3 100.6 597.3 107.1L549.3 139.1C538.3 147.3 523.4 144.3 516 133.3C508.7 122.3 511.7 107.4 522.7 100L570.7 68.03C581.7 60.68 596.6 63.66 603.1 74.69zM512 255.1C512 242.7 522.7 231.1 536 231.1H616C629.3 231.1 640 242.7 640 255.1C640 269.3 629.3 279.1 616 279.1H536C522.7 279.1 512 269.3 512 255.1zM516 378.7C523.4 367.7 538.3 364.7 549.3 372L597.3 404C608.3 411.4 611.3 426.3 603.1 437.3C596.6 448.3 581.7 451.3 570.7 443.1L522.7 411.1C511.7 404.6 508.7 389.7 516 378.7z"/><path class="fa-secondary" d="M384 32C419.3 32 448 60.65 448 96V416C448 451.3 419.3 480 384 480H64C28.65 480 0 451.3 0 416V96C0 60.65 28.65 32 64 32H384zM112 120C112 106.7 101.3 96 88 96C74.75 96 64 106.7 64 120V264C64 277.3 74.75 288 88 288C101.3 288 112 277.3 112 264V120zM208 120C208 106.7 197.3 96 184 96C170.7 96 160 106.7 160 120V264C160 277.3 170.7 288 184 288C197.3 288 208 277.3 208 264V120z"/></svg>