<svg xmlns="http://www.w3.org/2000/svg" viewBox="0 0 640 512"><!--! Font Awesome Pro 6.2.0 by @fontawesome - https://fontawesome.com License - https://fontawesome.com/license (Commercial License) Copyright 2022 Fonticons, Inc. --><defs><style>.fa-secondary{opacity:.4}</style></defs><path class="fa-primary" d="M448 160C462.8 160 476.5 167.1 483.8 180.9L634.2 445.8C638 452.5 640 460 640 467.7C640 492.2 620.2 512 595.7 512H300.3C275.8 512 256 492.2 256 467.7C256 460 257.1 452.5 261.8 445.8L412.2 180.9C419.5 167.1 433.2 160 448 160V160zM431.1 272V360C431.1 368.8 439.2 376 447.1 376C456.8 376 463.1 368.8 463.1 360V272C463.1 263.2 456.8 256 447.1 256C439.2 256 431.1 263.2 431.1 272zM448 408C434.7 408 424 418.7 424 432C424 445.3 434.7 456 448 456C461.3 456 472 445.3 472 432C472 418.7 461.3 408 448 408z"/><path class="fa-secondary" d="M0 96C0 60.65 28.65 32 64 32H384C419.3 32 448 60.65 448 96V128C421.6 128 397.3 142.2 384.3 165.1L233.9 430C227.4 441.5 224 454.5 224 467.7C224 471.9 224.3 475.1 224.1 480H64C28.65 480 0 451.3 0 416L0 96zM64 120V264C64 277.3 74.75 288 88 288C101.3 288 112 277.3 112 264V120C112 106.7 101.3 96 88 96C74.75 96 64 106.7 64 120zM160 120V264C160 277.3 170.7 288 184 288C197.3 288 208 277.3 208 264V120C208 106.7 197.3 96 184 96C170.7 96 160 106.7 160 120z"/></svg>