<svg xmlns="http://www.w3.org/2000/svg" viewBox="0 0 448 512"><!--! Font Awesome Pro 6.2.0 by @fontawesome - https://fontawesome.com License - https://fontawesome.com/license (Commercial License) Copyright 2022 Fonticons, Inc. --><defs><style>.fa-secondary{opacity:.4}</style></defs><path class="fa-primary" d="M88 96C101.3 96 112 106.7 112 120V264C112 277.3 101.3 288 88 288C74.75 288 64 277.3 64 264V120C64 106.7 74.75 96 88 96zM184 96C197.3 96 208 106.7 208 120V264C208 277.3 197.3 288 184 288C170.7 288 160 277.3 160 264V120C160 106.7 170.7 96 184 96z"/><path class="fa-secondary" d="M384 32C419.3 32 448 60.65 448 96V416C448 451.3 419.3 480 384 480H64C28.65 480 0 451.3 0 416V96C0 60.65 28.65 32 64 32H384zM112 120C112 106.7 101.3 96 88 96C74.75 96 64 106.7 64 120V264C64 277.3 74.75 288 88 288C101.3 288 112 277.3 112 264V120zM208 120C208 106.7 197.3 96 184 96C170.7 96 160 106.7 160 120V264C160 277.3 170.7 288 184 288C197.3 288 208 277.3 208 264V120z"/></svg>