<svg xmlns="http://www.w3.org/2000/svg" viewBox="0 0 576 512"><!--! Font Awesome Pro 6.2.0 by @fontawesome - https://fontawesome.com License - https://fontawesome.com/license (Commercial License) Copyright 2022 Fonticons, Inc. --><defs><style>.fa-secondary{opacity:.4}</style></defs><path class="fa-primary" d="M133.8 22.17C138.6 9.433 151.8 1.972 165.2 4.478L234.2 17.42C269.8 24.09 306.2 24.09 341.8 17.42L410.8 4.478C424.2 1.972 437.4 9.433 442.2 22.17L471.2 99.36C482.7 130 499.3 158.6 520.2 183.8L565.5 238.1C574.2 248.5 574.2 263.5 565.5 273.9L520.2 328.2C499.3 353.4 482.7 381.1 471.2 412.6L442.2 489.8C437.4 502.6 424.2 510 410.8 507.5L341.8 494.6C306.2 487.9 269.8 487.9 234.2 494.6L165.2 507.5C151.8 510 138.6 502.6 133.8 489.8L104.8 412.6C93.33 381.1 76.73 353.4 55.75 328.2L10.49 273.9C1.837 263.5 1.837 248.5 10.49 238.1L55.75 183.8C76.73 158.6 93.33 130 104.8 99.36L133.8 22.17zM177.1 63.85L157.3 119C143.6 155.6 123.8 189.6 98.77 219.6L68.45 255.1L98.77 292.4C123.8 322.4 143.6 356.4 157.3 392.1L177.1 448.1L223.9 439.5C266.3 431.6 309.7 431.6 352.1 439.5L398 448.1L418.7 392.1C432.4 356.4 452.2 322.4 477.2 292.4L507.6 255.1L477.2 219.6C452.2 189.6 432.4 155.6 418.7 119L398 63.85L352.1 72.46C309.7 80.41 266.3 80.41 223.9 72.46L177.1 63.85z"/><path class="fa-secondary" d="M165.3 97.67L177.1 63.86L214.4 70.68L235.1 107L235.1 107.2C270.4 113.3 305.6 113.3 340 107.2L340.9 107L361.6 70.68L398 63.86L410.7 97.67L388.5 136.6L389.2 138.6C400.6 171.1 417.7 201.4 439.6 227.1H484.2L507.6 256L484.2 283.1H439.6C417.7 310.6 400.7 340.9 389.2 373.4L388.5 375.4L410.7 414.3L398 448.1L361.6 441.3L340.9 404.1L340 404.8C305.6 398.7 270.4 398.7 235.1 404.8L235.1 404.1L214.4 441.3L177.1 448.1L165.3 414.3L187.5 375.4L186.8 373.4C175.3 340.9 158.3 310.6 136.4 283.1H91.78L68.45 256L91.78 227.1H136.4C158.3 201.4 175.3 171.1 186.8 138.6L187.5 136.6L165.3 97.67zM239.8 228L217.6 189.3C211.2 202.7 203.9 215.6 195.8 228H239.8zM311.2 159C295.7 160.1 280.3 160.1 264.8 159L287.1 199.6L311.2 159zM380.2 228C372.1 215.6 364.8 202.7 358.4 189.3L336.2 228H380.2zM358.4 322.7C364.8 309.3 372.1 296.4 380.2 284H336.2L358.4 322.7zM264.8 352.1C280.3 351.9 295.7 351.9 311.2 352.1L287.1 312.4L264.8 352.1zM195.8 284C203.9 296.4 211.2 309.3 217.6 322.7L239.8 284H195.8z"/></svg>