<svg xmlns="http://www.w3.org/2000/svg" viewBox="0 0 576 512"><!--! Font Awesome Pro 6.2.0 by @fontawesome - https://fontawesome.com License - https://fontawesome.com/license (Commercial License) Copyright 2022 Fonticons, Inc. --><defs><style>.fa-secondary{opacity:.4}</style></defs><path class="fa-primary" d="M352 75.2C352 69.01 357 64 363.2 64C378.4 64 391.9 71.61 400 83.24C408.1 71.61 421.6 64 436.8 64C442.1 64 448 69.01 448 75.2V96C501 96 544 138.1 544 192L535.8 204.4C520.9 226.6 495.9 240 469.2 240H448V298.8C433.5 291.9 417.2 288 400 288C386.9 288 374.4 290.2 362.7 294.4C354.3 297.3 349.1 306.5 352.9 314.8C355.9 323.1 365 327.5 373.3 324.5C381.7 321.6 390.6 320 400 320C418 320 434.6 325.1 448 335.1C467.4 350.6 480 373.8 480 400C480 418 474 434.6 464 448H480C497.7 448 512 462.3 512 480C512 497.7 497.7 512 480 512H336C274 511.4 224 460.1 224 398.9V395.1C224 367.5 234.1 341 254.5 321.5L261.5 314.5C319.4 256.6 352 177.1 352 96V75.2zM448 176C456.8 176 464 168.8 464 160C464 151.2 456.8 144 448 144C439.2 144 432 151.2 432 160C432 168.8 439.2 176 448 176z"/><path class="fa-secondary" d="M192 296.2C192 291.4 187.8 287.6 182.9 287.8C180.6 287.9 178.3 288 176 288C96.47 288 32 223.5 32 144C32 64.47 96.47 0 176 0C255.5 0 320 64.47 320 144V232.9C305.2 262.9 285.5 290.5 261.5 314.5L254.5 321.5C234.1 341 224 367.5 224 395.1V398.9C224 461.3 274.7 512 337.1 512H288C217.3 512 160 454.7 160 384C160 352.6 171.3 323.9 189.1 301.7C191.3 300.2 192 298.2 192 296.2V296.2z"/></svg>