<svg xmlns="http://www.w3.org/2000/svg" viewBox="0 0 576 512"><!--! Font Awesome Pro 6.2.0 by @fontawesome - https://fontawesome.com License - https://fontawesome.com/license (Commercial License) Copyright 2022 Fonticons, Inc. --><defs><style>.fa-secondary{opacity:.4}</style></defs><path class="fa-primary" d="M320 256C320 326.7 262.7 384 192 384C121.3 384 64 326.7 64 256C64 185.3 121.3 128 192 128C262.7 128 320 185.3 320 256z"/><path class="fa-secondary" d="M384 64C490 64 576 149.1 576 256C576 362 490 448 384 448H192C85.96 448 0 362 0 256C0 149.1 85.96 64 192 64H384zM64 256C64 326.7 121.3 384 192 384H384C454.7 384 512 326.7 512 256C512 185.3 454.7 128 384 128H192C121.3 128 64 185.3 64 256z"/></svg>