<svg xmlns="http://www.w3.org/2000/svg" viewBox="0 0 576 512"><!--! Font Awesome Pro 6.2.0 by @fontawesome - https://fontawesome.com License - https://fontawesome.com/license (Commercial License) Copyright 2022 Fonticons, Inc. --><defs><style>.fa-secondary{opacity:.4}</style></defs><path class="fa-primary" d="M512 256C512 326.7 454.7 384 384 384C313.3 384 256 326.7 256 256C256 185.3 313.3 128 384 128C454.7 128 512 185.3 512 256z"/><path class="fa-secondary" d="M384 64C490 64 576 149.1 576 256C576 362 490 448 384 448H192C85.96 448 0 362 0 256C0 149.1 85.96 64 192 64H384zM384 384C454.7 384 512 326.7 512 256C512 185.3 454.7 128 384 128C313.3 128 256 185.3 256 256C256 326.7 313.3 384 384 384z"/></svg>