<svg xmlns="http://www.w3.org/2000/svg" viewBox="0 0 640 512"><!--! Font Awesome Pro 6.2.0 by @fontawesome - https://fontawesome.com License - https://fontawesome.com/license (Commercial License) Copyright 2022 Fonticons, Inc. --><defs><style>.fa-secondary{opacity:.4}</style></defs><path class="fa-primary" d="M416 192C416 85.96 458.1 .0003 512 0C565 .0003 607.1 85.96 607.1 192C607.1 298 565 384 511.1 384H399.6C408.7 337 416 273.9 416 192zM511.1 128C494.3 128 479.1 156.7 479.1 192C479.1 227.3 494.3 256 511.1 256C529.7 256 543.1 227.3 543.1 192C543.1 156.7 529.7 128 511.1 128V128z"/><path class="fa-secondary" d="M20.53 463.6C63.55 385.7 64 277.3 64 192C64 85.96 106.1 0 160 0H512C458.1 0 416 85.96 416 192C416 350.8 388.7 438.1 373.3 475.9C363.3 499.9 340.2 512 317.9 512H48C36.47 512 25.84 505.8 20.16 495.8C14.47 485.7 14.59 473.5 20.53 463.6V463.6zM312.1 192.1C322.3 183.6 322.3 168.4 312.1 159C303.6 149.7 288.4 149.7 279 159L224 214.1L200.1 191C191.6 181.7 176.4 181.7 167 191C157.7 200.4 157.7 215.6 167 224.1L207 264.1C216.4 274.3 231.6 274.3 240.1 264.1L312.1 192.1zM20.53 463.6L20.5 463.6z"/></svg>