<svg xmlns="http://www.w3.org/2000/svg" viewBox="0 0 448 512"><!--! Font Awesome Pro 6.2.0 by @fontawesome - https://fontawesome.com License - https://fontawesome.com/license (Commercial License) Copyright 2022 Fonticons, Inc. --><defs><style>.fa-secondary{opacity:.4}</style></defs><path class="fa-primary" d="M97.66 107.4C107.5 46.48 160.3 0 224 0C283.6 0 333.8 40.79 347.1 96H312C289.2 96 269.2 84.09 257.9 66.16C240.1 93.66 210.6 112 176 112H120C112.1 112 104.5 110.3 97.66 107.4V107.4zM288 362C260.4 369.1 240 394.2 240 424V464C240 472.8 247.2 480 256 480H272C280.8 480 288 472.8 288 464C288 455.2 280.8 448 272 448V424C272 406.3 286.3 392 304 392C321.7 392 336 406.3 336 424V448C327.2 448 320 455.2 320 464C320 472.8 327.2 480 336 480H352C360.8 480 368 472.8 368 464V424C368 394.2 347.6 369.1 320 362V308.8C393.5 326.7 448 392.1 448 472V480C448 497.7 433.7 512 416 512H32C14.33 512 0 497.7 0 480V472C0 393 54.53 326.7 128 308.8V370.3C104.9 377.2 88 398.6 88 424C88 454.9 113.1 480 144 480C174.9 480 200 454.9 200 424C200 398.6 183.1 377.2 160 370.3V304.2C162.7 304.1 165.3 304 168 304H280C282.7 304 285.3 304.1 288 304.2V362zM168 424C168 437.3 157.3 448 144 448C130.7 448 120 437.3 120 424C120 410.7 130.7 400 144 400C157.3 400 168 410.7 168 424z"/><path class="fa-secondary" d="M257.9 66.16C269.2 84.1 289.2 96 312 96H347.1C350.6 106.2 352 116.1 352 128C352 198.7 294.7 256 224 256C153.3 256 96 198.7 96 128C96 120.1 96.57 114.1 97.65 107.4C104.5 110.4 112.1 112 120 112H176C210.6 112 240.1 93.66 257.9 66.16V66.16z"/></svg>