<svg xmlns="http://www.w3.org/2000/svg" viewBox="0 0 400 400" width="400" height="400" style="width:100%;height:100%;transform:translate3d(0,0,0);content-visibility:visible"><defs><clipPath id="a"><path d="M0 0h400v400H0z"/></clipPath></defs><title>Protagonist (ENFJ) personality</title><g clip-path="url(#a)"><path fill="#2B2B2B" d="m129.88 4.46-26.4-4.94L-3.04-18.181-103.08-.71l-26.8 8.47L40.93 19.18l88.95-14.72z" transform="translate(195.983 380.711)" opacity=".1" style="display:block"/><g style="display:block"><path fill="#B8C645" d="m138.58 106.72-33.74 23.23-2.19 27.61 23.08 41.02 158.78-14.17-4.89-61.64-16.83-10.2-124.21-5.85z"/><path fill="#E8EF78" d="m262.79 112.57-124.21-5.85-33.74 23.23-2.19 27.61 19.38-13.34 143.79-11.95 13.8-9.5-16.83-10.2z"/></g><g opacity=".99" style="display:block"><path fill="#2B2B2B" d="m266.749 153.733-4.924-91.368-19.829-6.638L196.51 27.09l-48.221 35.096-13.889 6.62-3.246 78.801 135.595 6.126z" opacity="1"/></g><g style="display:block"><path fill="#446024" d="m276.25 348.71-4.11-111.13-6.32-37.7-57.78-23.5-74.657 40.315L106.33 362.64l25.29 22.03 145.64.38 22.88-4.94-23.89-31.4z"/><path fill="#5A753C" d="m133.695 216.57-16.675-16.84-23.48 180.38 16.79-11.011 8.62-15.569 14.745-136.96z"/><path fill="#6F9D52" d="m131.62 384.669-38.08-4.56 25.41-26.58 12.67 31.14z"/></g><g style="display:block"><path fill="#3E8F6E" d="m253.985 328.426-32.415 16.625 4.819 23.93h16.75l10.971-9.51-.125-31.045z"/><path fill="#53AF8A" d="m254.111 359.47 20.818 20.641s1.821-.102-6.929.019-14.94.04-14.94.04l-27.159-.059.489-11.13 27.721-9.511z"/><path fill="#3E8F6E" d="M274.93 389.33h-49.029v-9.22h41.348l16.25-6.12-8.569 15.34z"/><path fill="#35785D" d="m254.11 331.8-29.841 25.47-2.699-12.22-3.78-17.318 36.174-11.932.146 16z"/><path fill="#3E8F6E" d="m178.72 346.63-5.11 20.352-16.76 2-15.03-6.341 2.72-23.621.34-2.95 33.84 10.56z"/><path fill="#53AF8A" d="m141.82 362.64-10.2 22.03h42.69l-.7-17.689-31.79-4.341z"/><path fill="#3E8F6E" d="M174.31 392.33h-42.69v-7.66l21.35-6.56 21.34 6.56v7.66z"/><path fill="#35785D" d="m144.63 339.57 31.42 17.7 2.67-10.64 8.345-28.09-40.601 2.368-1.834 18.662z"/></g><path fill="#5A753C" d="m-24.33-19.6 11.85-23.09 42.37 63.75-55.539 21.631-4.242-12.261 5.561-50.03z" transform="translate(278.3 174.71)" style="display:block"/><g style="display:block"><path fill="#5A753C" d="m148.44 134.39 38.6 20.22 35.03 27.01-18.839 72.729H152.62V237.33l-21-54.2 16.82-48.74z"/><path fill="#6F9D52" d="m208.04 176.13-4.85 61.2.04 17.02h50.74l.14-23.77 11.71-98.56-24.75-2.32-.88 10.29-10.52-.49-5.53 23.78-16.1 12.85z"/></g><g style="display:block"><path fill="#5A753C" d="m203.23 254.599-24.51 77.2 25.659 20.482 49.856-20.732-.266-74.929-22.95 5.349-27.789-7.37z"/><path fill="#6F9D52" d="m151.38 272.82-7 65.625 60 13.835-1.149-97.68-51.851 18.22z"/><path fill="#99C26C" d="M152.62 254.6h101.35v19.04l-102.59-.819 1.24-18.221z"/></g><path fill="#738D56" d="m-21.985 30.795 5.01-55.51 38.96-13.13-9.69 34.57 3.47 41.12-37.75-7.05z" transform="translate(139.005 168.685)" style="display:block"/><g style="display:block"><path fill="#35785D" d="m207.59 166.91 13.98-14.51 8.1-12.9 14.74 2.14-1.29 21.77-35.08 12.72-8.32-7.44 7.87-1.78z"/><path fill="#53AF8A" d="m207.59 166.91.45 9.22-56.74-10.72-2.86-30.27 12.55-3.55 14.22 14.68 32.38 20.64z"/></g><g style="display:block"><path fill="#DFBCA4" d="m244.41 141.89-65.69-3.09-18.6-13.29-8.82-100.87 102.69-4.42-9.58 121.67z"/><path fill="#C3977A" d="m234.52 141.43-67.209-8.84-8.071-98.12-12.08-19.22 10.56 122.83 2.401 15.28 47.468 13.8 24.702-12.15 2.229-13.58z"/><path fill="#8A6651" d="m210.31 159.359 24.21-17.93-76.8-3.35 52.59 21.28z"/><path fill="#4F5252" d="m174.49 0-16.77 12.779-21.37 5.331-2.041 51.14 18.47 14.48 8.1-61.85 47.941 21.579 44.33-14.51-2.651 35.63L261.96 62.6l4.309-37.961-21.859-9.389L231.76 0h-57.27z"/><path fill="#6E7073" d="m174.49 0-38.14 18.111 22.89 16.359 49.58 8.99L174.49 0z"/><path fill="#C3977A" d="m165.29 107.97 81.42 4.73-2.3 29.19-77.14-3.39-1.98-30.53z"/><path fill="#464646" d="m231.76 0-22.94 43.46 43.94-9.33 13.51-9.49L231.76 0z"/><path fill="#8A6651" d="m165.29 107.97-10.52-4.22 2.95 34.33 9.55.42-1.98-30.53z"/></g><g style="display:block"><path fill="#8A6651" d="m182.112 119.495 3.88 3.87h23.07"/><path stroke-miterlimit="10" stroke="#8A6651" stroke-width="4" d="m182.112 119.495 3.88 3.87h23.07" fill="none"/><path fill="#8A6651" d="m179.582 116.985 7.46-.86-8.32 8.08.86-7.22z"/></g><g style="display:block"><path fill="#8A6651" d="m197.4 100.45 9.63 6.6 9.64-6.6H197.4z"/><path fill="#C3977A" d="m167.27 75.17 20.15 6.19 9.98 19.09 5.68-30.84-28.7-2.6-7.11 8.16zM216.67 100.45l14.32-19.09 15.8-6.19-7.099-4.47-13.042-1.45-15.669.36v19.12l5.69 11.72z"/><path fill="#E8C9B6" d="m216.67 100.45-9.64 2.43-9.63-2.43 5.68-30.84h7.901l5.689 30.84z"/><path fill="#464646" d="m210.98 69.61 28.71 1.09 7.1 4.47-7.1-11.85-13.255 2.904-15.455 3.386zM203.08 69.61l-28.7 1.09-7.11 4.47 7.11-11.85 28.7 6.29z"/></g><g style="display:block"><path fill="#2B2B2B" d="M226.651 76.48a4.88 4.88 0 1 1-.002 9.762 4.88 4.88 0 0 1 .002-9.762zM182.88 76.48a4.88 4.88 0 1 1 0 9.76 4.88 4.88 0 0 1 0-9.76z"/></g><g style="display:block"><path fill="#C4C4C4" d="M231.36 159.359h11.01V385.23h-11.01V159.359z"/><path fill="#DDDDDC" d="M236.861 148.44c5.655 0 10.239 4.584 10.239 10.24 0 5.656-4.584 10.24-10.239 10.24-5.655 0-10.241-4.584-10.241-10.24 0-5.656 4.586-10.24 10.241-10.24z"/><path fill="#C4C4C4" d="m218.81 389.16 17.65 8.14 10.64-17.44-4.729-152.25-23.561.13v161.42z"/><path fill="#9DA0A1" d="M254.11 227.74h-17.25l-.4 169.56 17.65-8.14V227.74z"/><path fill="#DDDDDC" d="m272.14 237.33 10.521-12.13-10.521-10.52-9.97 9.97h-17.759l-7.551-7.56-7.55 7.56h-16.149l-9.97-9.97-12.122 10.52 12.122 12.13 5.858-6.75h20.261l7.55 7.55 7.551-7.55h21.878l5.851 6.75z"/></g><path fill="#53AF8A" d="m-48.36-18.925 35.6 37.85 59.11-9.85 2.01-17.83-7.74-7.75-88.98-2.42z" transform="translate(165.38 218.405)" style="display:block"/><path fill="#53AF8A" d="m29.89-16.235-50.641 5.87L-29.89.005l6.399 12.64 25.12 3.59 28.261-32.47z" transform="translate(278.3 212.005)" style="display:block"/><g style="display:block"><path fill="#DFBCA4" d="M211.73 227.48 206 201.901l25.11-7.561-19.38 33.14zM231.111 194.339l-4.49 16.571 2.11 13.741h26.079l2.739-23.011-26.438-7.301z"/><path fill="#C3977A" d="m231.11 194.339-2.38 30.311-17 2.83 3.069-19.211 16.311-13.93z"/></g></g></svg>