<svg xmlns="http://www.w3.org/2000/svg" viewBox="0 0 400 400" width="400" height="400" style="width:100%;height:100%;transform:translate3d(0,0,0);content-visibility:visible"><defs><clipPath id="a"><path d="M0 0h400v400H0z"/></clipPath></defs><title>Campaigner (ENFP) personality</title><g clip-path="url(#a)"><g style="display:block"><path fill="#DFBCA4" d="m286.53 186.02 8.39-22.43 13.21 4.63 11.83 10.8-23.58 20.97-10.388 1.169.538-15.139z"/><path fill="#C3977A" d="m300.25 178.62-8.12-22.35-7.06.14 1.46 29.61-4.725 16.195 11.235-8.935 7.21-14.66zM294.92 163.59l20.68-21.54 13.1 12.25-8.74 24.72-25.04-15.43z"/></g><g style="display:block"><path fill="#3E8F6E" d="m226.7 163.19 21.31 18.47-4.581 12.84-12.989 15.24-31.532 32.346 8.916-48.571L226.7 163.19z"/><path fill="#99C26C" d="m248.01 181.66 28.049 22.75-5.09 10.571-26.429 4.659-14.099-9.9 17.569-28.08z"/></g><path fill="#738D56" d="m-31.925 8.73 42.04-34.08 21.81 22.66-39.97 28.04-23.88-16.62z" transform="translate(276.465 210.91)" style="display:block"/><g style="display:block"><path d="m329.41 385.08-137.03-10.62-120.94 11.86L192.66 400l136.75-14.92z" opacity=".1"/><path fill="#4F5252" d="m157.17 376.089-26.05 10.21-4.54-10.08 3.67-16.79 8.05-3.02 11.99 3.79 6.88 15.89zM256.07 362.62l-10.29 18.67-20.29-10.53-1.7-11.62 18.32-8.51 13.96 11.99z"/><path d="m242.85 351.259-17.359 19.5-1.701-11.62 5.991-6.449 13.069-1.431zM130.25 359.43l10.53-3.02 9.51 3.791-22.22 9.2 2.18-9.971z" opacity=".1"/><path fill="#6E7073" d="m242.781 378.29-17.29-7.53 1.279 14.04 54.619.46-.298-15.11-25.021-7.53-13.289 15.67zM167.46 391.879l-.29-16.26-24.01-2.53-10.38 10.58-6.2-7.45-.7 15.66h41.58z"/></g><g style="display:block"><path fill="#53AF8A" d="m228.74 259.36 24.189 73.26-17.549 15.979-20.04-1.92-8.98-27.179-16.95-11.04-23.78 38.219-15.339 9.731-25.231-11.63.25-73.221 13.231-36.059 90.199 23.86z"/><path fill="#3E8F6E" d="m221.71 264.88 25.45 72.13-9.61 4.88-28.26-63.65 12.42-13.36zM203.94 294.899l23.29 50.649-11.891 1.131-25.929-38.219 1.94-30.511 12.59 16.95zM175.37 297.32l-18.86 51.319-10.04-1.04 15.85-68.59 13.05 18.311zM152.74 265.55l-13.96 83.43-8.73-3.731 3.19-62.449 19.5-17.25z"/><path fill="#35785D" d="m252.93 332.62-37.59 14.06 8.45 12.46 33.9-12.1-4.76-14.42zM165.63 346.68l-40.57-1.9-.05 14.36 31.96 1.46 8.66-13.92zM203.94 294.9l-14.53 13.56-14.04-11.14 15.98-26.37 12.59 23.95z"/></g><g style="display:block"><path fill="#4F5252" d="m74.59 236.7 39.62 26.8 10.8-21.62-50.42-5.18z"/><path fill="#C4C4C4" d="m87.72 130.09 85.55.76 25.475 1.731-39.355 16.079-32.67 1.3-39-19.87z"/><path fill="#6E7073" d="m127.45 143.36-39.73-13.27-3.46 28.16-.2 21.4-4.51 16.8-4.96 40.25 65 9.32-12.14-102.66z"/><path fill="#4F5252" d="m161.39 139.15-33.94 4.21-1.64 14.87-5.62 85.52 59.97-13.11 13.244-97.672-32.014 6.182z"/><path fill="#9DA0A1" d="m84.26 158.25 9.94 6.29 14.35 2.56-5.96 40.14-23.04-10.79 2.19-17.76 3.06-7.47-.54-12.97z"/><path fill="#C4C4C4" d="m108.55 167.1-26.81 11.59 2.52-20.44 24.29 8.85z"/></g><g style="display:block"><path fill="#738D56" d="m216.29 165.4 14.15 44.34-1.7 49.62-24.8 35.54-12.59-16.95-15.98 19.37-28.96-40.66-21.4-3.34 3.87-40.93 29.984-63.541 28.92-4.513L216.29 165.4z"/><path fill="#4F5252" d="m194.26 208.219-17.44 47.461 14.53 11.141 15.5-10.662-12.59-47.94z"/><path fill="#464646" d="m206.85 256.16-30.03-.48 14.53 22.27 15.5-21.79zM209.54 191.37l-15.28 16.85-14.48-18.99 15.93-2.8 13.83 4.94z"/></g><g style="display:block"><path fill="#5A753C" d="M137.59 204.22v-30.28l-11.78-15.71-29.13 66.7 20.46-1.05 11.74-6.479 8.71-13.181z"/><path fill="#3E8F6E" d="m159.39 148.66-33.58 9.57 11.78 45.99 21.8-55.56z"/></g><g style="display:block"><path fill="#C3977A" d="m146.41 256.66 6.33 8.89-19.5 17.25-7.93-11.241 4.74-12.929 16.36-1.97z"/><path fill="#99C26C" d="m96.68 224.929 23.01 50.601 26.72-18.871-17.53-39.259-32.2 7.529z"/></g><g style="display:block"><path fill="#99C26C" d="m195.71 186.43-14.93-26.31-21.39-11.46-4.02 57.58 40.34-19.81z"/><path fill="#99C26C" d="m226.7 163.19-24.91 5.28-6.08 17.96 34.73 23.31-3.74-46.55z"/><path fill="#3E8F6E" d="m171.98 0-59.56 53.75 93.94-11.741L171.98 0z"/><path fill="#5A753C" d="m222.34 141.88-15.979 12.85v23.96l20.338-15.5-4.359-21.31zM165.7 118.69l-6.31 29.97 18.73 19.48-1.3-24.32-11.12-25.13z"/><path fill="#35785D" d="m128.88 125.9 36.82-7.21 1.99-10.61-6.37-11.72-14.71 9.34-17.73 20.2z"/><path fill="#3E8F6E" d="m285.379 55.13-15.38 32.54-4.92 40.8 28.93-14.19-1.45-51.33-1.09-6.48-6.09-1.34z"/><path fill="#99C26C" d="m275.37 86.67 9.14 32.27-19.43 9.53 2.75-12.56 6.75-3.44-2.5-9.29 3.29-16.51z"/><path fill="#DFBCA4" d="m285.38 55.13-12.757 46.1-3.631 13.118-9.362 33.832-37.29-6.3-19.05 29.6-7.58 14.95-7.87-26.15-26.52-63.92 48.411-44.11L260.6 28.09l24.78 27.04z"/><path fill="#8A6651" d="m250.821 32.73 34.778 22.64-12.268-18.99-12.732-12.29-8.408 2.39-1.37 6.25z"/><path fill="#C3977A" d="m209.73 52.25-17.771 83.23 15.13 12.7 7.26 12.1-7.989 18.41-10.651 7.74-17.589-18.29-12.42-49.45 1.989-10.61-6.37-11.72 48.411-44.11z"/><path fill="#8A6651" d="M209.731 52.25 192.02 81.33l-17.55 11.22 18.33 7.2-27.099 18.94-4.382-22.33 17.651-19.23 30.761-24.88z"/><path fill="#99C26C" d="m191.49 68.87 1.31 30.88-39.07 3.52-4.62-21.97 7.409-5.307 6.861 16.577 21.19-1.05-1.41-16.98 8.33-5.67z"/><path fill="#8A6651" d="m222.34 141.88-43.82-9.23 35.83 27.63 7.99-18.4z"/><path fill="#3E8F6E" d="m209.73 52.25-56 19.34-37.92 25.26 13.069 29.05 80.851-73.65zM172.046.045 116.38 57.818l92.892-18.265L172.046.045zM112.419 53.75 87.719 77l28.09 19.85 2.33-25.26-5.72-17.84z"/><path fill="#71C8A6" d="m171.981.001 24.679 39.16 63.939-11.07V19.58L249.461.491l-77.48-.49z"/><path fill="#53AF8A" d="m260.599 28.09 31.96 34.86 17.431-21.301L249.46.49l11.139 27.6zM260.599 28.09l-144.79 68.76-3.39-43.1 148.18-25.66z"/></g><g style="display:block"><path fill="#C3977A" d="m241.62 97.26-6.42-28.97-7.53-14.54 19.37-.48.5 8.73-5.92 35.26zM255.79 63.51l4.81-7.34 16.46 8.24L251.56 87l4.23-23.49z"/><path fill="#8A6651" d="m249.44 98.75-5.091 4.7-2.729-6.19 7.82 1.49z"/><path fill="#E8C9B6" d="m255.79 63.51-6.35 35.24-7.82-1.49L247.54 62l8.25 1.51z"/><path fill="#3E8F6E" d="m260.6 56.17 11.131-1.93 5.329 10.17-16.46-8.24zM247.04 53.27l-8.23-5.33-11.14 5.81 19.37-.48z"/></g><g style="display:block"><path fill="#738D56" d="m262.9 117.67-24.33 14.98-22.74-23.28 47.07 8.3z"/><path fill="#FFF" d="m256.84 118.08-12.27.427-2.95.103-4.256-1.489-15.634-5.471 13.019 12.03 9.28 1.56 12.811-7.16z"/><path fill="#446024" d="m262.9 117.67-19.94-6.54-27.13-1.76 21.986 8.499 3.804 1.471 21.28-1.67z"/></g><g style="display:block"><path fill="#2B2B2B" d="M270.69 78a5 5 0 1 1-10.001-.001A5 5 0 0 1 270.69 78zM238.25 70.7a5 5 0 1 1-10 0 5 5 0 0 1 10 0z"/></g></g></svg>