<svg xmlns="http://www.w3.org/2000/svg" viewBox="0 0 400 400" width="400" height="400" style="width:100%;height:100%;transform:translate3d(0,0,0);content-visibility:visible"><defs><clipPath id="a"><path d="M0 0h400v400H0z"/></clipPath></defs><title>Commander (ENTJ) personality</title><g clip-path="url(#a)"><g style="display:block"><path fill="#2B2B2B" d="m71.67 382.44 95.3-10.58 115.39 13.6L153.44 400l-81.77-17.56z" opacity=".1"/><path fill="#C3977A" d="m145.16 335.5-6.91 25.7-9.07 8.93-4.46-5.69-2.66-37.29 3.09-23.17 20.01 31.52z"/><path fill="#8A6651" d="m127.24 320.75 20.01 6.69-2.09 8.06-23.1-8.35 5.18-6.4z"/><path fill="#C3977A" d="m188.35 288.28 1.22 39.59-1.44 26.93-8.78 12.52-5.97-9.79-6.12-22.03 21.09-47.22z"/><path fill="#8A6651" d="m174.1 316.07 15.47 11.8-22.31 7.63-2.23-7.91 9.07-11.52z"/><path fill="#734D5F" d="m177.77 386.11-4.25-.07-2.8-16.991 2.66-11.519 10.08 6.769-2.16 6.76-3.53 15.051zM124.72 364.44l-6.62 14.54 4.89 12.67 1.73-27.21z"/><path fill="#DFBCA4" d="m138.25 361.2 5.04 9.93-6.62 8.28-13.39 2.59 1.44-17.56 13.53-3.24z"/><path fill="#95627B" d="m123.28 382 20.01-10.87 2.45 4.4-4.25 6.47-18.5 4.54.29-4.54z"/><path fill="#95627B" d="m122.99 386.54 22.75-11.01 7.05 11.01-11.16 2.09-18.64-2.09z"/><path fill="#DFBCA4" d="m188.13 354.58 11.52 12.45-5.97 6.48-9.07 3.24-11.23-19.22 14.75-2.95z"/><path fill="#95627B" d="m184.61 376.75 15.04-9.72 3.53 3.46-5.4 6.04-10.8 3.32-2.37-3.1z"/><path fill="#95627B" d="m186.98 380.849 16.2-10.359 10.87 10.359-14.33 2.16-12.74-2.16z"/><path fill="#734D5F" d="M122.99 391.65h29.8v-5.11h-29.8v5.11zM181.3 371.06l-2.24 2.091.94 2.159 10.58 11.01h23.47v-5.47h-19.51l-13.24-9.79z"/></g><path fill="#532F42" d="m-55.065 40.67 52.69-11.95 57.44 13.389L40.815-7.48l-30.09-34.63-47.94 44.269-3.96 3.75-13.89 34.761z" transform="translate(154.375 272.23)" style="display:block"/><g style="display:block"><path fill="#8A6651" d="m309.58 192.15-9.22 6.71-6.96-3.86v-9.25l16.18 6.4z"/><path fill="#C3977A" d="m281.75 174.84 27.02-3 .81 20.31-28.56-4.37.73-12.94z"/><path fill="#9DA0A1" d="m284.26 193.52 84.931-57.67 3.879 5.66-85.41 57.35-3.4-5.34z"/><path fill="#4F5252" d="m281.59 194.65 2.67-1.13 3.4 5.34-1.7 2.18-4.37-6.39zM369.19 135.85l2.59-4.05 5.91 8.25-4.62 1.46-3.88-5.66z"/><path fill="#DFBCA4" d="m279.16 177.59 24.67 5.09-2.59 5.91-23.13.89 1.05-11.89z"/></g><g style="display:block"><path fill="#95627B" d="m283.15 170.31-22.82 2.59-8.13 9.5 2.59 10.94 25.549 5.33 2.811-28.36z"/><path fill="#734D5F" d="m226.07 171.82 34.26 1.08-5.54 20.44-29.58 7.7.86-29.22z"/><path fill="#734D5F" d="m181.66 178.94 10.15-2.51 4.46-5.62 29.8 1.01 16.34 15.33-17.2 13.89-38.66 9.65-4.89-31.75z"/></g><g style="display:block"><path fill="#464646" d="m19.77 126.47 30.81 41.75 8.64.29 7.84-25.99-4.53-10.22-42.76-5.83z"/><path fill="#4F5252" d="M183.46 96.45 85.2 178.73l-34.62-10.51L89.23 52.04l94.23 44.41z"/><path fill="#464646" d="m183.46 96.45-11.16 37.22-87.1 45.06 45.06-107.32 53.2 25.04zM195.621 22.96l25.478 33.98-20.938 52.26-20.66-88.25 16.12 2.01z"/><path fill="#464646" d="m196.56 18.28 24.54 38.66-41.6-35.99 17.06-2.67z"/><path fill="#C3977A" d="M137.53 173.04 92.54 67.88l25.7-18.29 26.7 31.82 28.73 67.02-9.79 45.63-26.35-21.02z"/><path fill="#DFBCA4" d="m191.37 31.17 15.34 113.87-62.56 11.16-27.06-106.25 74.28-18.78z"/><path fill="#8A6651" d="m173.31 150.8-9.43 43.48-26.56-37.36 35.99-6.12z"/><path fill="#464646" d="M110.68 62.12 128.03 93l-4.89 4.32 3.45 41.6 3.38 16.63-49.52-77.31 30.23-16.12z"/><path fill="#DFBCA4" d="m123.14 97.32-14.83 4.39 7.91 19.79 13.1-5.39-6.18-18.79z"/><path fill="#8A6651" d="m120.47 102.72-7.2 2.08 8.64 5.33-1.44-7.41z"/><path fill="#734D5F" d="m124.14 113.44 3.67 11.16-5.9 1.8-2.88-11.3 5.11-1.66z"/></g><g style="display:block"><path fill="#734D5F" d="m112.34 192.33-15.48 7.56-5.97 37.51 22.31 13.67 9.14-4.1 2.24-10.87 1.51-21.52-16.34-35.06 2.59 12.81z"/><path fill="#734D5F" d="m99.17 185.06-2.31 14.83 23.11 11.45 5.04-4.97-5.19-36.71-19 4.61-1.65 10.79zM90.89 237.4l22.31 13.671 9.14-4.102 2.24-10.87-33.69 1.301z"/></g><g style="display:block"><path fill="#95627B" d="m147.25 327.441-29.51-53.48 6.47-15.911 41.32-34.91 27.28 34.12-3.24 70.611-42.32-.43z"/><path fill="#734D5F" d="m122.06 327.15-4.32-53.19 6.47-15.911 41.32-34.91 8.78 28.721-27.06 75.58-25.19-.29z"/></g><g style="display:block"><path fill="#95627B" d="m112.05 179.879 7.77-10.219 3.82-1.44 19.65 11.23 21.02 10.08 7.05 12.739-6.19 33.321-14.47 17.14-32.67 23.96 6.55-40.59-12.53-56.221z"/><path fill="#B3879D" d="m192.45 237.61 8.28 32.529-26.42-18.279 8.64 15.41-17.78-31.681-.86-46.059 17.42-12.89-4.03-8.28 15.55 3.89 2.73 4.54-3.53 60.82z"/><path fill="#D1A0B8" d="m159.63 208.75 5.04-4.97 4.17 5.11-4.1 5.11-5.11-5.25zM159.99 227.17l4.97-4.75 4.32 5.04-4.11 4.82-5.18-5.11z"/><path fill="#B3879D" d="m150.7 252.73-51.39 60.171-1.51-41.531 26.78-35.27 26.12 16.63z"/><path fill="#D1A0B8" d="m192.45 237.611 21.31 44.63-4.32 32.099-26.49-47.07-8.64-15.409 18.14-14.25zM174.31 251.86l-23.61.87 14.47-17.141 9.14 16.271z"/></g><g style="display:block"><path fill="#FFF" d="m168.34 134.6-9.93-3.6 10.5-3.16 7.78 1.58 8.49-1.15 3.03.43-13.97 6.34-5.9-.44z"/><path fill="#734D5F" d="m188.21 128.7-14.04-4.61-15.76 6.91 15.602-1.204 14.198-1.096z"/><path fill="#B3879D" d="m173.38 138.35 14.83-9.65-13.9 3.74-15.9-1.44 14.97 7.35z"/><path fill="#E8C9B6" d="m173.81 80.19 7.2 30.66-11.01 1.66-4.54-31.24 8.35-1.08z"/><path fill="#8A6651" d="m174.89 117.55 6.12-6.7-11.01 1.66 4.89 5.04z"/><path fill="#C3977A" d="m144.51 84.07 20.95-2.8 4.54 31.24-25.49-28.44zM179.42 103.94l10.59-27.71-16.2 3.96 5.61 23.75z"/><path fill="#464646" d="M141.78 77.31 159.99 82l-24.04 2.87 5.83-7.56zM194.68 74.79l-20.87 5.4 16.63-12.6 4.24 7.2z"/></g><g style="display:block"><path fill="#B3879D" d="m123.64 168.22-22.82 5.97-1.65 10.8v.07l29.44-9.79-4.97-7.05z"/><path fill="#734D5F" d="m171.94 156.13 5.76 12.23 3.52 5.11.51 3.17-7.34 11.02-10.08 1.87 7.63-33.4z"/><path fill="#734D5F" d="m123.64 168.22 6.12-13.17 34.55 34.48-25.84-.07-14.83-21.24z"/><path fill="#D1A0B8" d="m177.7 168.36 18.57 2.45-.29 5.98-14.25-.15-1.37-2.88-2.66-5.4z"/></g><g style="display:block"><path fill="#2B2B2B" d="M186.9 81.14a4.61 4.61 0 1 0 0 9.22 4.61 4.61 0 0 0 0-9.22zM152.14 87.13a4.61 4.61 0 1 0 0 9.22 4.61 4.61 0 0 0 0-9.22z"/></g><g style="display:block"><path fill="#4F5252" d="M187.05 0 89.23 52.04 69.22 74.79 128.03 93l77.81-63.201L187.05 0z"/><path fill="#464646" d="M187.05 0 84.121 47.799 69.22 74.79 187.05 0z"/><path fill="#6E7073" d="m187.05 0-59.02 93 93.94-62.91L187.05 0z"/></g></g></svg>