<svg xmlns="http://www.w3.org/2000/svg" viewBox="0 0 400 400" width="400" height="400"><defs><clipPath id="a"><path d="M0 0h400v400H0z"/></clipPath></defs><title>Debater (ENTP) personality</title><g clip-path="url(#a)"><path d="M-142.67 3.12-23.7-10.8 142.67.53-22.64 10.8l-120.03-7.68z" transform="translate(208.13 389.2)" opacity=".1" style="display:block"/><g style="display:block"><path fill="#95627B" d="m286.65 218.849-15.761 2.841-.599-59.8 2.96-4.601 4.519-3.279 8.881 64.839z"/><path fill="#B3879D" d="m277.77 154.01-7.479 7.88-32.771-28.48.261-3.18 3.029-1.39 36.96 25.17z"/><path fill="#90759F" d="m318.299 389.31-34.56-5.949-40.509 5.949V257.27l2.969-10.399-2.969-18.741 75.069-19-3.439 53.321 3.439 47.87-4.35 44.38 4.35 34.609z"/><path fill="#584164" d="m318.299 209.13-75.069 17.88v30.26l75.069 53.05V209.13z"/><path fill="#785D87" d="m332.94 220.88-104.36 25.99v-18.35l104.36-25.99v18.35zM318.299 310.32l-75.069 78.989h75.069V310.32z"/><path fill="#B3879D" d="m232.43 115.17-4.729 7.71-5.781 6.82-5.42-9.22 5.63-7.81 10.3 2.5z"/><path fill="#95627B" d="m232.43 115.17-10.51 14.53 18.071 5.86 3.559-4.85-11.12-15.54z"/></g><g style="display:block"><path fill="#785D87" d="m152.24 324.8 14.46 19.55 20.15-5.05 14.69-11.91-16.05-61.43-27.9 42.57-5.35 16.27z"/><path fill="#584164" d="m166.7 344.35 17.73 25.23 21.94-5.219 3.55-5.561-8.38-31.41-34.84 16.96z"/><path fill="#90759F" d="m107.58 266.85 77.91-.89-27.9 42.57-24.13-11.2-25.88-30.48z"/><path fill="#A687B9" d="m157.59 308.53-7.34 30.77-20.28 8.379-20.28-7.379-8.41-40.96-1.64-16.64 7.94-15.851 50.01 41.681z"/><path fill="#785D87" d="m150.25 339.3-6.52 27.71-12.17 6.29-15.94-1.069-5.93-31.931 40.56-1z"/><path fill="#95627B" d="m143.73 367.01 8.9 20.78-18.43 2-19.07-2 .49-15.559 28.11-5.221zM209.92 358.799l25.4 23.931-29.48 2-20.93-2-.48-13.151 25.49-10.78z"/><path fill="#532F42" d="M115.13 387.79h37.5v6.54h-37.5v-6.54zM184.91 382.73h50.41v6.54h-50.41v-6.54z"/></g><g style="display:block"><path fill="#B3879D" d="m190.38 165.68 10.19 30.48-2.98 28.27-18.81 13.11-.146-6.479-.884-39.311 12.63-26.07z"/><path fill="#95627B" d="m193.721 219.1 3.869 5.33 21.549 2.561-4.168 22-33.181 1.689-2.179-24.51 14.11-7.07z"/><path fill="#734D5F" d="m192.85 222.24-1.23 11.47 15.25 14.42 12.27-21.14-11.371-1.69-14.919-3.06z"/></g><g style="display:block"><path fill="#C3977A" d="m204.54 212.519-5.6-6.028 20.49-26.56 5.08 4.759-8.32 14.269-3.37 10.341-8.28 3.219z"/><path fill="#C3977A" d="m204.54 207.51 16.81 17.28-12.09 12.04-9.15-8.13 4.43-21.19z"/><path fill="#DFBCA4" d="m200.57 196.16-5.5.19-2.22 25.89 7.26 6.46 4.43-16.181-3.97-16.359z"/><path fill="#E8C9B6" d="m204.54 212.519 11.65-13.56 11.85 19.551-8.9 8.481-14.6-14.472z"/></g><g style="display:block"><path fill="#DFBCA4" d="m158.21 41.49 10.76-11.64 12.25-2.3L199 125.18l-32.16 8.18-38.27 2.63-18.6-66.36-3.72-31.28 26.51-3.2 25.45 6.34z"/><path fill="#C3977A" d="M151.58 140.35 199 125.18l-69.902 12.121L114.27 66.6l-8.02-28.25-15.69 19.18 4.45 14.89 10.9 18.24-4.92 1.31-2.76 5.31-5.79-4.17-4.67-10.12-5.19 7.97-6.31 3.53 9.36 7.71 4.23 9.38 2.71 5.9 1.4 11.83 6.7 28.99 58.58-2.79-7.67-15.16z"/><path fill="#464646" d="m186.39 55.93 4.6-33.96-17.4 2.82 12.8 31.14z"/><path fill="#DFBCA4" d="m98.23 97.28 2.44 5.58-10.81 8.72-13.59-17.09 11.5-11.5 10.46 14.29z"/><path fill="#6E7073" d="m158.21 41.49 32.78-19.52L156.12 0l-2.71 22.75 4.8 18.74z"/><path fill="#8F8F8F" d="M158.21 41.49 156.12 0 65.46 34.17l19.56 5.98 21.23-1.8 51.96 3.14z"/><path fill="#6E7073" d="m65.46 34.17-3.49 53 15.82-13.35 12.77-16.29 15.69-19.18-40.79-4.18z"/><path fill="#464646" d="m90.56 57.53 15.35 33.13-7.68 6.62-10.46-14.29-11.5 11.5-14.3-7.32 28.59-29.64z"/><path fill="#8A6651" d="m82.54 95.19 4.19-4.18 5.23 8.71-9.42-4.53zM89.86 111.58l7.68-6.28-3.44 24.56-4.24-18.28zM116.49 137.55 199 125.18l-39.75 17.43v12.9l-17.492-7.347-25.268-10.613zM178.78 111.07l-21.14 1.41-16.45-5.01 2.7-6.54-9.04 5.78 2.35 11.33 3.17-6.1 17.27 5.01 21.14-5.88z"/><path fill="#C3977A" d="m164.83 55.09-3.14 7.67-.47 7.96 4.02 9.75 17.73-28.87-8.37-9.41-9.77 12.9z"/><path fill="#464646" d="m161.69 50.91 12.91-8.72 8.37 9.41-4.89 3.84-5.75-6.62-7.5 6.27-3.14-4.18z"/><path fill="#C3977A" d="m122.64 62.41 21.41 11.12 12.42 21.66-1.49-20.15-3.4-10.88-28.94-1.75z"/><path fill="#464646" d="m151.58 64.16-27.19-8.37-1.75 6.62 24.06 7.68 4.88-5.93z"/><path fill="#E8C9B6" d="m161.69 62.76 5.93 29.64-4.73 3.2-6.42-.41-4.89-31.03 10.11-1.4z"/><path fill="#8A6651" d="m167.62 92.4-4.88 8.02-6.27-5.23 11.15-2.79z"/></g><g style="display:block"><path fill="#C3987B" d="m160 156.375-59.188.75-2.562 5.75 61.75-6.5z"/><path fill="#FDFDFD" d="m96.065 160.87 1.349 19.471 50.446 24.519 11.657-49.162-58.879 2.69-4.573 2.482z"/><path fill="#95627B" d="m100.86 157.62 43.05 32.05-24.77 19.679-30.49 18.791-10.36-23.65-7.04-30.69 29.61-16.18zM159.25 155.51l31.13 10.17-9.49 31.57-17.5 3.74-19.48-11.32 15.34-34.16z"/><path fill="#734D5F" d="m88.65 228.139 8.47 29.731 10.46 8.979 44.84 4.591.21-44.449-8.72-37.322-55.26 38.47z"/><path fill="#532F42" d="m143.91 189.669 36.98 7.58 4.6 68.71-33.07 5.481-8.51-81.771z"/></g><g style="display:block"><path fill="#95627B" d="m81.91 232.31 25.67 34.54-15.88 19-26.38-22.779 16.59-30.761z"/><path fill="#DFBCA4" d="m101.28 299.34-9.58-13.49 15.88-19-6.3 32.49z"/><path fill="#B3879D" d="m71.25 173.8-22.96 74.681 17.03 14.589 23.33-34.93-17.4-54.34z"/></g><g style="display:block"><path fill="#2B2B2B" d="M177.82 65.86a4.23 4.23 0 1 1-4.23-4.23 4.24 4.24 0 0 1 4.23 4.23zM144.05 73.53a4.23 4.23 0 1 1-8.46 0 4.23 4.23 0 0 1 8.46 0z"/></g></g></svg>