<svg xmlns="http://www.w3.org/2000/svg" viewBox="0 0 400 400" width="400" height="400" style="width:100%;height:100%;transform:translate3d(0,0,0);content-visibility:visible"><defs><clipPath id="a"><path d="M0 0h400v400H0z"/></clipPath></defs><title>Consul (ESFJ) personality</title><g clip-path="url(#a)"><path fill="#2B2B2B" d="M142.84-1.375-3.79-9.226l-139.05 8.141L-9.99 9.225l152.83-10.6z" transform="translate(146.58 390.775)" opacity=".1" style="display:block"/><g style="display:block"><path fill="#27788B" d="m244.86 24.37-71.78 45.94-14.571-13.71-8.049-13.61 8.28-5.99 86.12-12.63z"/><path fill="#399FB9" d="m116.78 57.31-11.49 2.29-69.7 48.89 84.28-16.9.49-20.18-3.58-14.1z"/><path fill="#308FA6" d="m119.87 91.589 53.21-21.28-22.62-27.32-17.43 4.6-16.25 9.72 3.09 34.28z"/><path fill="#5EC0D9" d="m146.12 68.569-17.73-27.81 8.7 35.85 14.34 31.35 12.873 31.993 9.222-6.789-11.205-26.864-16.2-37.73z"/><path fill="#399FB9" d="m137.57 48.22-11.22 4.98 10.74 23.41 9.03-8.04-8.55-20.35z"/><path fill="#5EC0D9" d="m157.48 40.02-50.54 21.4-.73-20.86 4.74-28.98 5.27-4.21 5.46.24 23 16.83 12.8 15.58z"/><path fill="#399FB9" d="m121.68 7.609 123.18 16.76-87.38 15.65-35.8-32.41z"/><path fill="#308FA6" d="m110.95 11.58-75.36 96.91 71.35-47.07 4.01-49.84z"/><path fill="#399FB9" d="m118.75 0-10.57 3.83 2.771 7.75 10.729-3.97L118.75 0z"/></g><g style="display:block"><path fill="#1C7678" d="m73.66 327.65 4.8 33.01 28.07-4.281 28.72-9.599-31.09-12.04-19.95-4.637-10.55-2.453z"/><path fill="#369395" d="m78.46 360.66 20.46 6.21 11.82 1.55 24.51-21.64-56.79 13.88z"/><path fill="#155E5F" d="m110.74 368.419 27.54 19.12-32.31 1.76-29.33-1.76 1.82-26.88 32.28 7.76z"/><path fill="#1C7678" d="M76.64 387.54h61.64v6.53H76.64v-6.53z"/></g><path fill="#50A9AA" d="m15.97-39.805-27.51 27.84-13.29 28.58 37.66 23.19 12-29.36-1.25-23.52-7.61-26.73z" transform="translate(254.57 219.394)" style="display:block"/><path fill="#71CACC" d="M-17.534-23.525h43.97l1.849 9.16-3.47 16.69-53.099 27.03 10.75-52.88z" transform="translate(295.685 229.845)" style="display:block"/><g style="display:block"><path fill="#C3977A" d="m319.26 206.319 18.91-1.551 27 1.551-44.67 25.851-1.24-25.851z"/><path fill="#8B6651" d="m382.938 198.244-24.11-.677-21.043 6.876.04.147 27.137 1.986 17.976-8.332z"/></g><g style="display:block"><path fill="#1C7678" d="m21.75 286.74-10.19-19.271-7.83-1.33L1 341.019l6.42.07 14.33-54.349z"/><path fill="#369395" d="m65.47 262.67-32.79 8.86 7.9 22.15 17.06 28.88 8.86-23.34 1.7-16.47-2.73-20.08z"/><path fill="#1C7678" d="m32.68 271.53-5.91 20.38.15 18.68 30.72 11.968-24.96-51.028z"/><path fill="#155E5F" d="m26.92 310.589-19.5 30.5 4.14-73.62 21.12 4.06-5.76 39.06z"/></g><g style="display:block"><path fill="#1C7678" d="m58.23 207.95 7.24 54.72 2.73 20.08 12.33-38.54 4.21-24.22-11.3-7.76-15.21-4.28zM270.54 180.33l-42.39 72.29L169 231.28l-99.91-42.02 44.75-76.06 40.907 11.427 56.933 15.903 58.86 39.8z"/></g><g style="display:block"><path fill="#C4C4C4" d="m162.681 137.609 3.003 24.498 7.526 25.013 25.77 5.02 8.64 3.77 15.21 1.92 12.93 5.46 13.152-14.856 7.427 4.401-6.531 22.957-17.818 30.477-32.12 120.601-142.23-44.311 27.1-102.569-26.51-12.04 10.86-18.69 21.71 8.49 62.1 1.93.459-32.811-1.138-29.213 10.46-.047z"/><path fill="#8F8F8F" d="m84.741 219.99 54.57 42.819-18.16 30.651 43.789 49.92 45.41-16.17 16.33-61.071-114.759-54.279-27.18 8.13z"/></g><path fill="#71CACC" d="m31.905-56.015-37.59 5.24-29.1 106.79 36.04-7.46 32.12-12.85 1.41-43.87-2.88-47.85z" transform="translate(119.525 163.975)" style="display:block"/><g style="display:block"><path fill="#DFBCA4" d="m245.06 31.9 33.449 24.51 33.831-3.91-41.801 127.83-40.839-8.94-22.08 24.52-17.571-30.28-22.159-60.18 8.129.66 4.571-2.43-3.099-24.89 23.118-7.16 3.32 27.54 11.96-2.88-9.6-61 38.771-3.39z"/><path fill="#C3977A" d="m245.06 31.9-39.5 128.64 23.399 7.38-11.589 12.19-9.75 15.8-4.72-17.13-8.351-12.56-26.659-60.77 12.7-1.7 14.55-1.33 7.09-1.25 14.399-2.81-8.049-63.44 36.48-3.02z"/><path fill="#8A6651" d="m194.85 94.52-1.19-11.38-9.74.97 10.93 10.41zM180.59 103.68l21.64-2.51-20.381 11.96-1.259-9.45zM265.96 119.259l-8.64 3.84-4.36-7.91 13 4.07z"/><path fill="#C3977A" d="m245.5 78.49 9.09 7.32-1.63 29.38 9.36-20.67 1.8-16.1-18.62.07zM277.19 82.7l-8.83 11.82 1.069 13.44 13.96-16.1 9.821-1.18-16.02-7.98z"/><path fill="#8A6651" d="m204.96 160.24-10.41 5.98 4.06 14.7 9.01 14.99 11.45-12.56 9.89-15.43-24-7.68z"/><path fill="#464646" d="m278.66 77.68 16.32 7.39-1.77 5.61-16.02-7.98 1.47-5.02zM265.67 73.4l-19.35-.67-.82 5.76 18.62-.07 1.55-5.02z"/><path fill="#C3977A" d="m225.86 120.589 52.29 16.47-27.03 6.72-25.26-23.19z"/><path fill="#FFF" d="m238.42 127.97 28.21 8.79-15.07 4.43-13.14-13.22z"/><path fill="#464646" d="m265.96 8.12-42.61 4.13 9.82 14.48 11.89 5.17 33.16 28.28-2.44-25.4-9.82-26.66z"/><path fill="#6E7073" d="m223.35 12.25-35 4.43 12.331 14.77 9.97 5.54 34.409-5.09-21.71-19.65z"/><path fill="#464646" d="m188.35 16.68-10.86 62.11 21.71-3.03 3.03 25.41 16.1-1.92-7.68-62.26-22.3-20.31z"/><path fill="#8F8F8F" d="M278.22 60.18 265.96 8.12l46.38 44.38-34.12 7.68z"/><path fill="#E8C9B6" d="m264.12 78.42 13.07 4.28-11.23 36.56-13-4.07 11.16-36.77z"/><path fill="#50A9AA" d="m167.89 105.45 1.33 51.39 3.99 30.28 34.41 8.79-13.07-29.69-26.66-60.77z"/><path fill="#71CACC" d="m228.96 167.92-21.34 27.99 14.92 3.91 13.22 3.47 10.49-13.07 7.38-14.91-24.67-7.39z"/><path fill="#DDDDDC" d="m152.9 199.68 20.31-12.56-5.32-81.67-16.46 2.51 1.47 91.72zM235.76 203.29l11.891 16.18 22.889-39.14-16.91-5.02-17.87 27.98z"/></g><g style="display:block"><path fill="#308FA6" d="M391.09 136.31H296.7v16.83l63.15 2.22 31.24-2.22v-16.83z"/><path fill="#5EC0D9" d="m391.09 166.47-41.47 1.88-52.92-1.88v-13.33h94.39v13.33z"/><path fill="#399FB9" d="M391.09 166.47H296.7v13.33l48.88 1.21 45.51-1.21v-13.33z"/><path fill="#5EC0D9" d="m391.09 186.46-46.72.54-47.67-.54v-6.66h94.39v6.66z"/><path fill="#308FA6" d="M391.09 186.46H296.7v6.53l51.71 1.01 42.68-1.01v-6.53z"/><path fill="#5EC0D9" d="m391.09 199.66-44.91 1.35-49.48-1.35v-6.67h94.39v6.67z"/><path fill="#27788B" d="M398.09 199.66H289.7v6.66h108.39v-6.66z"/><path fill="#5EC0D9" d="M315.55 136.31h-18.91l9.49 9.36 9.42-9.36h18.851l9.429 9.36 9.491-9.36h18.849l9.49 9.36 9.43-9.36h-18.92l-9.42 9.36-9.429-9.36h-18.92l-9.491 9.36-9.36-9.36z"/><path fill="#E4C728" d="m385.84 104.06-4.24-6.93-4.18 6.93 4.18 7 4.24-7zM366.72 104.06l-4.109-6.93-4.241 6.93 4.241 7 4.109-7zM329.02 104.06l-4.239-6.93-4.181 6.93 4.181 7 4.239-7zM309.901 104.06l-4.111-6.93-4.241 6.93 4.241 7 4.111-7z"/><path fill="#308FA6" d="M384.29 108.57h-5.32v28.34h5.32v-28.34zM327.47 108.57h-5.319v28.34h5.319v-28.34zM365.17 108.57h-5.25v28.34h5.25v-28.34zM308.35 108.57h-5.25v28.34h5.25v-28.34z"/><path fill="#27788B" d="M354.87 125.47h-21.95l10.91 11.04 11.04-11.04z"/><path fill="#5EC0D9" d="m354.87 125.47-11.04-10.97-10.91 10.97h21.95z"/></g><g style="display:block"><path fill="#C3977A" d="m169.59 228.25 17.5 6.43-8.86 5.24-8.64-11.67z"/><path fill="#27788B" d="m204.81 224.269 18.619 7.82 29.831 49.851-84.04 47.409-6.5-11.59 73.04-41.429-30.95-52.061z"/><path fill="#27788B" d="m218.03 235.269 5.399-3.18-18.62-7.82 4.441 7.381 4.13 3.099 4.65.52z"/><path fill="#DDDDDC" d="m209.25 231.65 8.78 3.619 26.07 44.53-6.57-.669-1.77-2.8-15.51-21.419-11-23.261z"/><path fill="#C4C4C4" d="m235.76 276.33 8.34 3.47-73.77 41.43-7.61-3.47 40.62-26.29 32.42-15.14z"/><path fill="#399FB9" d="m204.81 224.269-79.6 46.821 27.031 52.651 83.519-47.41-30.95-52.062z"/><path fill="#27788B" d="m180.3 272.049-26.36 5.46-14.63-14.7 10.42-6.42 30.57 15.66z"/><path fill="#DFBCA4" d="m169.59 228.25-16.32 6.5-9.3 8.2 11.52 26.81 16.39-7.24 14.7-11.23-16.99-23.04z"/><path fill="#8A6651" d="m186.58 251.29-6.28 20.76-24.81-2.29 31.09-18.47z"/></g><path fill="#50A9AA" d="m-42.425-1.325 59.23 22.96 25.62-14.7-16.69-28.57-68.16 20.31z" transform="translate(127.165 221.315)" style="display:block"/><g style="display:block"><path fill="#2B2B2B" d="M282.13 92.38a4.191 4.191 0 0 0-4.28 4.28 4.29 4.29 0 1 0 8.57 0 4.19 4.19 0 0 0-4.29-4.28zM251.34 84a4.32 4.32 0 0 0-4.341 4.3v.01a4.32 4.32 0 0 0 8.64.004v-.004a4.3 4.3 0 0 0-4.29-4.31h-.009z"/></g></g></svg>