<svg xmlns="http://www.w3.org/2000/svg" viewBox="0 0 400 400" width="400" height="400" style="width:100%;height:100%;transform:translate3d(0,0,0);content-visibility:visible"><defs><clipPath id="a"><path d="M0 0h400v400H0z"/></clipPath></defs><title>Entertainer (ESFP) personality</title><g clip-path="url(#a)"><g opacity=".1" style="display:block"><path d="m89.598 392.995 118.086-13.505 96.721 11.256L205.361 400l-115.763-7.005z" opacity="1"/></g><path fill="#856300" d="m-16.792 23.218 26.84-10.812 16.646-35.624-53.388 13.48 9.902 32.956z" transform="translate(203.02 304.994)" style="display:block"/><path fill="#DFBCA4" d="m-22.529-28.162 45.058 47.353-4.316 8.97-25.822-9.919-14.249-12.17 1.593-20.762-2.264-13.472z" transform="translate(244.872 188.907)" style="display:block"/><path fill="#C3977A" d="m-27.677-2.672 50.363-12.17 4.072 3.726.919 10.755-31.616 15.202-23.738-17.513z" transform="translate(264.94 209.822)" style="display:block"/><g style="display:block"><path fill="#8A6651" d="m292.59 196.93 12.569-11.438 5.243 8.86-4.105 13.848-13.682 1.259-2.215-6.429 2.19-6.1z"/><path fill="#9E7700" d="m319.778 220.194-7.54 2.988-8.177-20.621-1.538-4.945-4.919-11.344-4.336-10.934 7.538-2.991 4.251 10.722 5.06 14.306 2.784 5.475 6.877 17.344z"/><path fill="#755700" d="m315.215 208.685-8.917-.484-13.029-32.865 7.538-2.989 14.408 36.338z"/><path fill="#C3977A" d="m304.529 181.733 8.828-1.572 7.776 19.029-11.32 7.059-5.11-10.249-.174-14.267z"/><path fill="#DFBCA4" d="m287.626 194.98 2.774 8.05 7.539-4.239 1.883-6.33 5.93 5.642 4.526-1.478-5.75-14.891-7.405 3.322-9.497 9.924z"/><path fill="#CCAC13" d="m308.689 172.449-11.315 2.337-9.776 6.025-11.125-9.072 15.582-8.33 18.52-5.192-1.886 14.232z"/><path fill="#9E7700" d="m310.575 158.217-34.103 13.522-2.333-5.883 16.513-8.698 17.591-4.825 2.332 5.884z"/><path fill="#E4C728" d="m308.244 152.333-34.104 13.522-2.334-5.884 16.046-8.514 18.058-5.008 2.334 5.884z"/><path fill="#9E7700" d="m305.91 146.448-34.104 13.522-2.334-5.884 16.512-8.698 17.594-4.824 2.332 5.884z"/><path fill="#CCAC13" d="m292.45 131.493-10.074 6.146-11.016 2.216-1.888 14.231 34.106-13.522-11.128-9.071z"/><path fill="#9E7700" d="m287.599 180.811 5.925-15.833 15.165 7.471-21.09 8.362zM271.361 139.855l15.163 7.47 5.925-15.832-21.088 8.362z"/></g><g style="display:block"><path fill="#755700" d="m187.658 392.996-34.243-.72-1.469-10.224h16.265l19.447 10.944z"/><path fill="#DFBCA4" d="m168.477 354.742-1.635 13.893 22.121 20.081-5.078 1.726-20.439-4.89-8.235-5.862-1.778-8.94 15.044-16.008z"/><path fill="#C3977A" d="m153.434 370.75 10.012 14.802 30.06 2.179-5.847 5.265-35.713-10.944 1.488-11.302z"/><path fill="#9E7700" d="m178.326 379.059-5.6 9.36 4.597 1.41 4.667-7.444-3.664-3.326z"/><path fill="#C3977A" d="m177.323 346.781-10.48 21.854-13.41 2.116 4.074-30.97 5.204-9.107 14.612 16.107z"/><path fill="#8A6651" d="m157.728 339.691 19.595 7.089 8.905-18.568-17.088-5.065-11.412 16.544z"/></g><path fill="#DFBCA4" d="m12.659-23.094-28.407 39.668 9.981 6.52 19.364-6.52 2.151-28.9-3.089-10.768z" transform="translate(152.73 193.421)" style="display:block"/><path fill="#C3977A" d="m29.345.069-52.921-15.722-4.267 3.499-1.502 10.689L5.393 15.652 29.345.069z" transform="translate(136.982 209.925)" style="display:block"/><g style="display:block"><path fill="#755700" d="m235.791 368.164-30.602-17.433 4.388-9.483 15.214 13.222 11 13.694z"/><path fill="#DFBCA4" d="m229.368 332.967 9.307 31.775-4.216-1.008-4.847-2.501-13.305-13.076-2.35-7.91 3.255-6.508 5.802-10.591 6.354 9.819z"/><path fill="#C3977A" d="m217.212 333.74-.904 14.419 26.931 17.466-7.448 2.539-26.213-26.915 7.634-7.509z"/><path fill="#9E7700" d="m234.323 349.888-9.836 6.668 2.96 3.04 8.288-4.89-1.412-4.818z"/><path fill="#C3977A" d="m235.864 282.826-6.496 50.141-12.156.772-4.144-16.34 10.943-36.695 11.853 2.122z"/><path fill="#8A6651" d="m210.162 305.945 2.906 11.456 22.796-34.573-18.016-6.875-7.686 29.992z"/></g><g style="display:block"><path fill="#DFBCA4" d="m165.219 169.788 57.124-9.042-17.848 28.868-39.276-19.826z"/><path fill="#9E7700" d="m165.219 169.787 1.107 40.208 27.417-13.292 10.518-11.298-39.042-15.618z"/><path fill="#9E7700" d="m204.261 185.405 18.082-24.659 14.92 46.404-23.997-7.135-9.005-14.61z"/><path fill="#755700" d="m166.327 209.995.822 25.852 37.219 35.878 32.895-64.575-33.002-21.745-37.934 24.59z"/></g><g style="display:block"><path fill="#E4C728" d="m169.803 248.988 66.062 33.841-51.124 45.981-11.999-2.015-29.367-62.459 26.428-15.348z"/><path fill="#CCAC13" d="m143.375 264.334 42.854 63.878-28.722 11.568-14.132-75.446z"/><path fill="#F4D65D" d="m235.865 282.828-92.49-18.493 23.774-28.488 68.716 46.981z"/></g><g style="display:block"><path fill="#8A6651" d="m108.345 195.951-11.93-12.104-5.716 8.561 3.344 14.051 13.594 2.002 2.562-6.3-1.854-6.21z"/><path fill="#9E7700" d="m79.932 217.701 7.366 3.395 9.285-20.147 1.806-4.854 5.527-11.059 4.924-10.684-7.364-3.395-4.827 10.474-5.83 14.01-3.077 5.317-7.81 16.943z"/><path fill="#755700" d="M85.114 206.459h8.929l14.797-32.106-7.364-3.396-16.362 35.502z"/><path fill="#C3977A" d="m97.25 180.127-8.731-2.049-8.799 18.577 10.921 7.663 5.659-9.956.95-14.235z"/><path fill="#DFBCA4" d="m113.406 194.273-3.207 7.888-7.298-4.645-1.536-6.42-6.228 5.311-4.439-1.724 6.552-14.556 7.214 3.72 8.942 10.426z"/><path fill="#CCAC13" d="m93.6 170.631 11.171 2.948 9.433 6.549 11.604-8.455-15.108-9.164-18.21-6.191 1.11 14.313z"/><path fill="#9E7700" d="m92.49 156.317 33.317 15.355 2.649-5.747-16.015-9.583-17.304-5.772-2.647 5.747z"/><path fill="#E4C728" d="m95.138 150.569 33.318 15.356 2.65-5.749-15.56-9.375-17.758-5.981-2.65 5.749z"/><path fill="#9E7700" d="m97.789 144.819 33.317 15.356 2.651-5.749-16.015-9.582-17.305-5.773-2.648 5.748z"/><path fill="#CCAC13" d="m112.042 130.618 9.724 6.685 10.879 2.811 1.112 14.313-33.32-15.356 11.605-8.453z"/><path fill="#9E7700" d="m114.205 180.127-5.057-16.132-15.547 6.636 20.604 9.496zM132.644 140.114l-15.548 6.635-5.054-16.13 20.602 9.495z"/></g><g style="display:block"><path fill="#2B2B2B" d="m142.964 141.466 36.476 1.826V112.17l-36.476 29.296z"/><path fill="#6E7073" d="m132.384 58.697-24.029 36.472 35.59-8.819-11.561-27.653z"/><path fill="#2B2B2B" d="m295.107 90.101-.948 17.395-24.334-1.1 5.381-27.98 19.901 11.685z"/><path fill="#4F5252" d="m287.298 52.764 18.286 30.584-20.215 5.77-8.111-5.537-3.254-23.644 13.294-7.173z"/><path fill="#464646" d="m305.584 83.348-28.326.233-14.374 8.532 6.941 14.283 35.759-23.048zM108.355 95.169l45.606 21.354 22.592 2.407.774-26.8-12.108-20.69-56.864 23.729z"/><path fill="#856300" d="m269.939 90 7.692 27.6-18.742 6.318 3.19-9.786 4.958-1.731-1.979-7.417-1.375-5.713L269.939 90z"/><path fill="#DFBCA4" d="m173.804 95.718 5.677 32.681 10.494 30.099 19.02 1.247 11.166-13.302 33.234 10.385 33.903-104.063-80.38 19.419-33.114 23.534z"/><path fill="#C3977A" d="m208.477 95.292-10.652 45.903 22.337 5.248-13.117 15.508-1.247 11.263-23.858-6.072-5.386-48.212 1.938-8.098-4.688-15.113L200.167 74l8.31 21.292zM260.666 77.116l-3.377 2.598-6.942 21.404 15.464-13.446 6.018-5.103-11.163-5.453zM250.214 77.376l-5.127-5.712-16.587-.436L238.596 90.1l1.297 15.838 10.321-28.562z"/><path fill="#8A6651" d="m192.896 110.351-16.343 8.578-2.75-23.211 15.468-15.755 14.324 12.638-10.699 17.75z"/><path fill="#E8C9B6" d="m250.214 77.377 7.075 2.337-9.346 28.821-8.05-2.596 10.321-28.562z"/><path fill="#8A6651" d="m239.893 105.938 2.598 6.232 5.452-3.634-8.05-2.598zM285.113 59.474l-77.415 39.714-13.8-.865 5.12-12.331 46.07-14.328 42.21-18.9-2.185 6.71z"/><path fill="#4F5252" d="m159.337 54.871-4.459-10.688-42.472-10.687 32.975 74.572 21.329-18.951 2.768-15.33-10.141-18.916z"/><path fill="#6E7073" d="m145.382 60.499-32.976-27.004 61.398-6.274-7.432 21.565-20.99 11.713z"/><path fill="#4F5252" d="m145.381 60.5 62.826-17.638 40.424-24.002L197.05.002 145.381 60.5z"/><path fill="#2B2B2B" d="m264.3 69.586 7.53 12.984-11.164-5.453 3.634-7.531z"/><path fill="#856300" d="m213.266 109.694 28.497 4.499 15.987 11.471-25.79 17.006-18.694-32.976z"/><path fill="#755700" d="m225.598 122.936 10.145-3.342 8.843 10.161-6.724 4.543-7.201-2.535-5.063-8.827z"/><path fill="#FFF" d="m225.598 122.936 18.988 6.819 6.725-4.543-30.775-11.103 5.062 8.827z"/><path fill="#856300" d="m199.678 90.441-6.782 19.91-27.436-8.685 1.543-4.634 6.8-1.315 14.16 4.247 2.52-7.648 9.195-1.875z"/><path fill="#8A6651" d="m220.162 146.443-29.602-9.607 15.239 36.378 14.363-26.771z"/><path fill="#2B2B2B" d="m169.479 73.787-24.097 34.282 54.296-17.627-30.199-16.655z"/><path fill="#464646" d="m108.354 95.168 68.2 23.762-33.59 22.536-34.61-46.298z"/></g><g style="display:block"><path fill="#2B2B2B" d="M267.301 92.113a4.418 4.418 0 1 1-8.835-.001 4.418 4.418 0 0 1 8.835.001zM241.073 83.348a4.417 4.417 0 1 1-8.837 0 4.417 4.417 0 0 1 8.837 0z"/></g><g style="display:block"><path fill="#464646" d="m300.391 45.699-91.915 49.594L145.381 60.5l73.342-9.789 81.668-5.012z"/><path fill="#8F8F8F" d="M300.391 45.7 271.569 9.61 145.381 60.5l155.01-14.8z"/></g></g></svg>