<svg xmlns="http://www.w3.org/2000/svg" viewBox="0 0 400 400" width="400" height="400" style="width:100%;height:100%;transform:translate3d(0,0,0);content-visibility:visible"><defs><clipPath id="a"><path d="M0 0h400v400H0z"/></clipPath></defs><title>Executive (ESTJ) personality</title><g clip-path="url(#a)"><path fill="#8F8F8F" d="m-14.215-35.88 28.43 41.31-6.261 12.097-9.499 18.353V22.92l3.89-17.271L-4.425-6.3l-9.79-29.58z" transform="translate(234.825 201.37)" style="display:block"/><path fill="#464646" d="M14.509-13.965 24.73 2.524 12.919 7.415l-25.7 6.55-10.72-6.91-1.229-9.071.269-8.488 38.97-3.461z" transform="translate(256.421 230.195)" style="display:block"/><g style="display:block"><path fill="#DFBCA4" d="m241.92 27.069-42.91 10.65-38.58 14.11 3.17 17.7 10.15 20.74-4.46-.22-3.17 5.25-4.97-9.28-4.03-4.03-6.4 3.09-6.91 7.78 2.01 4.75 5.69 6.62 5.11 7.49 20.44 45.41 35.99 6.91-.29-20.87 3.31-13.89 15.48-5.69 23.04-6.69-2.45-42.98-10.22-46.85z"/><path fill="#C3977A" d="m195.85 81.7 6.33-14.9 16.92-.43 10 25.12-7.48-34.26-17.49 1-10.44 8.14-4.32 7.55 6.48 7.78zM247.821 54.06l-11.301 8.21-.721 15.11-10.369-23.47 22.391.15z"/><path fill="#C3977A" d="m191.82 88.609 35.77-1.08-.43-5.04-35.34 6.12zM252.21 75.509l-14.54 9.79-1.3-5.33 15.84-4.46z"/><path fill="#C3977A" d="m171.88 48.37 15.4 13.39 4.54 26.85 3.09 40.38 18.14 35.05-16.63-1.51-19.36-5.4-6.142-13.646-14.298-31.764 11.23-6.63-1.73-9.79 7.63-5.03-13.32-38.44 11.45-3.46z"/><path fill="#8A6651" d="m156.62 111.72 11.23-6.63-3.38 23.97-7.85-17.34zM254.59 116.899l-70.12 13.75 18.221 31.38 4.319 2.73 6.04-.72 3.02-34.76 38.52-12.38z"/><path fill="#2B2B2B" d="m193.69 52.19 11.52 6.55 15.9-4.18-27.42-2.37zM227.161 48.009l8.349-9.36 7.049 1.52-15.398 7.84z"/><path fill="#E8C9B6" d="m221.11 54.56 7.989 36.93 9.721-1.44-9-36.78-8.71 1.29z"/><path fill="#8A6651" d="m229.1 91.49 5.189 5.18 4.532-6.62-9.721 1.44z"/><path fill="#27788B" d="m201.53 103.15 21.67-.14 10.65 4.46-13.671.65-8.279-.8-2.23-.35-2.661-1.66-5.479-2.16z"/><path fill="#399FB9" d="m206.72 105.24 5.4 5.9 21.73-3.67-21.949-.15-5.181-2.08z"/><path fill="#8A6651" d="m150.93 95.589 4.97-5.04 5.25 7.85-10.22-2.81z"/><path fill="#464646" d="m201.821 0 1.3 20.371 5.61 16.769 33.19-10.071L201.821 0z"/><path fill="#6E7073" d="M201.821 0 136.61 22.31l-4.751 11.38.29 9.569 13.821 5.691 14.46 2.88 11.45-3.46 36.851-11.231L201.821 0z"/><path fill="#464646" d="m132.15 43.259-2.74 6.91.72 5.33-5.11 30.52 22.6-3.6 20.66-7.85-7.85-22.74-28.28-8.57z"/><path fill="#2B2B2B" d="m125.02 86.02 43.26-11.45 5.47 15.7-7.63 5.03-9-13.31-13.31 10.87 7.7 11.37-26.49-18.21zM130.06 55.64l-21.45-1.94 10.79-14.18 17.21-17.21-4.46 20.95-2.09 12.38z"/><path fill="#6E7073" d="M136.61 22.31 109.83 8.35l-19 64.35 17.78-19 28-31.39z"/></g><g style="display:block"><path fill="#464646" d="m177.06 157.129 43.55 8.36-4.46 10.65-9.58 12.38-23.61-11.73-14.61-14.4 8.71-5.26z"/><path fill="#71CACC" d="m168.35 162.389-14.54 7.41 5.83 20.3 9.58 20.59 8.27 3.31 29.44 3.019 30.24-10-16.56-41.529-14.04 23.03-38.22-26.13z"/><path fill="#1C7678" d="m169.22 210.69 67.95-3.671-6.77 48.66-22.1 1.222-26.63-4.102-12.45-42.109z"/></g><g style="display:block"><path fill="#2B2B2B" d="m132.43 388.269 85.01-11.949 79.76 13.029L216.94 400l-84.51-11.731z" opacity=".1"/><path fill="#464646" d="m173.82 366.309-6.41 13.9 4.68 12.3 1.73-26.2z"/><path fill="#C3977A" d="m192.39 372.429-2.73-8.42-15.84 2.3-1.51 16.922-.22 4.25 17.86-4.25 4.03-6.262-1.59-4.54z"/><path fill="#6E7073" d="m172.09 387.48 21.89-10.511 6.83 10.511-10.72 2.079-18-2.079z"/><path fill="#464646" d="M172.09 392.509h28.72v-5.029h-28.72v5.029z"/><path fill="#1C7678" d="m178.57 305.559-5.39 61.98 17.77.43 3.03-66.22-15.41 3.81z"/><path fill="#464646" d="m235.97 386.69-4.1-.15-2.66-16.271 3.88-11.149 8.43 6.549-2.159 6.47-3.391 14.551z"/><path fill="#C3977A" d="m255.92 366.679-4.06-7.729-18.77.169 9.43 18.491 2.31 2.96 10.43-3.101 3.07-6.89-2.41-3.9z"/><path fill="#6E7073" d="m244.83 381.57 13.5-10.99 12.56 10.99-13.831 2.09-12.229-2.09z"/><path fill="#464646" d="m239.5 371.71-2.3 2.45-.29 5.47 11.37 7.2h22.61v-5.26H252.1l-12.6-9.86z"/><path fill="#71CACC" d="m181.67 252.8 22.6 26.99 13.75 8.78 11.73-10.941.65-21.949-48.73-2.88z"/><path fill="#369395" d="m181.671 252.799 36.35 35.771 3.961 41.029-31.032 38.37-26.13-85.8 16.851-29.37z"/><path fill="#50A9AA" d="m230.401 255.679 12.02 56.94-10.081-6.12-14.321-17.929 12.382-32.891z"/><path fill="#1C7678" d="m218.02 288.569 24.4 24.05 9.441 46.33-60.91 9.019 27.069-79.399z"/></g><g opacity=".2" style="display:block"><path fill="#2B2B2B" d="m166.21 286.7 3.01 9.89 63.05-54.23.65-5.11-57.73 27.059-8.98 22.391z" opacity="1"/></g><path fill="#C3977A" d="m-1.8 5.684 6.77-8.349L.58-5.684l-5.55 3.959.08 4.25 3.09 3.159z" transform="translate(293.67 212.415)" style="display:block"/><path fill="#8F8F8F" d="m9.36-27.535-34.05 55.07 18.5-3.17 13.1-5.969 17.78-5.181-15.33-40.75z" transform="translate(144.45 197.334)" style="display:block"/><path fill="#464646" d="m11.235-19.18 9.21 32.25-6.69 5.539-7.49.571-26.71-29.219 31.68-9.141z" transform="translate(140.205 234.91)" style="display:block"/><g style="display:block"><path fill="#5EC0D9" d="m132.43 269.861 9.07 16.84 165.13-89.33-9.14-16.841-165.06 89.331zm13 10.08a2.47 2.47 0 0 1-3.31-.941 2.409 2.409 0 0 1 .94-3.169 2.45 2.45 0 0 1 3.31.939 2.312 2.312 0 0 1-.91 3.171h-.03z"/><path fill="#73CFE4" d="M300.8 186.58 135.6 275.9l-3.17-6.04 165.06-89.33 3.31 6.05z"/><path fill="#308FA6" d="m141.21 272.809-1.87 1.011-3.31-5.981 2.02-1.149 3.16 6.119zM144.74 268.269l-.86.44-2.16-3.96.86-.44 2.16 3.96zM149.35 265.75l-.86.51-2.17-4.03.87-.43 2.16 3.95zM153.96 263.239l-.87.569-2.16-4.028.86-.5 2.17 3.959zM160.65 262.299l-1.87 1.08-3.31-6.05 2.01-1.08 3.17 6.05zM164.25 257.77l-.94.5-2.16-3.96.87-.579 2.23 4.039zM173.39 252.799l-.86.432-2.16-3.962.86-.429 2.16 3.959zM180.09 251.79l-1.88 1.01-3.31-6.05 2.02-1.01 3.17 6.05zM183.68 247.259l-.93.432-2.23-3.96 1-.431 2.16 3.959zM188.22 244.739l-.87.569-2.16-4.099.87-.429 2.16 3.959zM192.83 242.29l-.87.5-2.16-3.95.87-.58 2.16 4.03zM199.59 241.28l-1.94 1.08-3.24-6.051 1.87-1.069 3.31 6.04zM203.12 236.75l-.94.5-2.16-3.96.94-.57 2.16 4.03zM207.72 234.299l-.859.432-2.161-3.961.86-.5 2.16 4.029zM212.26 231.78l-.859.43-2.161-3.96.86-.43 2.16 3.96zM219.03 230.769l-1.87 1.011-3.32-6.05 1.879-1 3.311 6.039zM222.48 226.24l-.86.43-2.161-3.96.861-.43 2.16 3.96zM227.161 223.79l-.94.5-2.162-4.1.942-.43 2.16 4.03zM231.69 221.269l-.86.5-2.161-3.959.871-.569 2.15 4.028zM238.46 220.339l-1.87 1-3.31-6.04 1.94-1.08 3.24 6.12zM241.92 215.73l-.87.5-2.16-3.96.87-.5 2.16 3.96zM246.59 213.28l-.93.43-2.16-3.96.941-.5 2.149 4.03zM251.2 210.759l-1.01.432-2.16-3.96 1.01-.431 2.16 3.959zM258.18 209.61l-1.87 1.08-3.31-6.05 1.87-1 3.31 5.97zM261.64 205.07l-.87.51-2.15-4.031.861-.429 2.159 3.95zM266.321 202.559l-.94.57-2.162-4.029.942-.5 2.16 3.959zM270.93 200.18l-.939.43-2.161-4.03.861-.5 2.239 4.1zM277.62 199.1l-1.87 1.08-3.31-6.05 1.94-1.07 3.24 6.04zM281.071 194.64l-.861.43-2.161-3.96.871-.58 2.151 4.11zM285.75 192.12l-.93.43-2.16-3.96.93-.43 2.16 3.96zM290.361 189.6l-.861.5-2.161-4.03.862-.43 2.16 3.96zM297.06 188.589l-1.88 1.01-3.31-5.98 1.94-1 3.25 5.97z"/></g><path fill="#DFBCA4" d="m-17.34-9.11 10.36 24.33 8.93-2.519L17.34 2.049l-20.5-17.268-14.18 6.109z" transform="translate(163.81 263.2)" style="display:block"/><path fill="#8A6651" d="m12.16-10.725-24.32 13.17 9.38 8.28 14.94-21.45z" transform="translate(168.99 275.975)" style="display:block"/><path fill="#8A6651" d="M13.17-9.756 3.45 6.445l-12.81 3.31-3.81-7.129 9.069-11.871 17.271-.511z" transform="translate(278.7 227.855)" style="display:block"/><path fill="#DFBCA4" d="M5.899-14.645-9.071-4.286l-4.099 18.931L13.17 2.264 5.899-14.645z" transform="translate(278.701 215.835)" style="display:block"/><g style="display:block"><path fill="#2B2B2B" d="M247 63a3.71 3.71 0 1 1 0-.01V63zM213.07 71.549a3.67 3.67 0 1 1-3.67-3.67 3.691 3.691 0 0 1 3.67 3.67z"/></g><path fill="#308FA6" d="M34.385-21.99-39.546-4.86l4.541 26.85 35.34-6.12-4.9-22.61 8.71-2 5.401 22 30-8.42-5.161-26.83zM-33.134-.25l23.689-5.37 3.539 16.4-25.069 4.3-2.159-15.33zm46 7L8.484-9.33l21.46-5.48L32.724.38 12.866 6.75z" transform="translate(226.825 66.62)" style="display:block"/></g></svg>