<svg xmlns="http://www.w3.org/2000/svg" viewBox="0 0 400 400" width="400" height="400" style="width:100%;height:100%;transform:translate3d(0,0,0);content-visibility:visible"><defs><clipPath id="a"><path d="M0 0h400v400H0z"/></clipPath></defs><title>Entrepreneur (ESTP) personality</title><g clip-path="url(#a)"><path d="M123.003-1.056-1.229-11.923-123.002 3.169l121.134 8.755 124.871-12.98z" transform="translate(202.498 388.078)" opacity=".1" style="display:block"/><path fill="#4F5252" d="m-10.814 6.762 9.712-18.727 4.776-8.739 12.098 3.486-4.958 7.983-12.053 21.2-9.575-5.203z" transform="translate(87.059 262.381)" style="display:block"/><path fill="#856300" d="M-7.84-32.262 24.699 23.74-.377 32.262-24.7.689l16.86-32.951z" transform="translate(126.558 220.561)" style="display:block"/><path fill="#856300" d="M-11.705-38.879 17.721 5.143l-4.332 21.049L1.314 38.878l-15.365-13.119-3.67-37.206 6.016-27.432z" transform="translate(249.952 200.706)" style="display:block"/><path fill="#BE8F00" d="m-6.745-15.745 25.89-2.245 4.007 13.198-3.739 15.84-42.565 6.942 16.407-33.735z" transform="translate(274.419 221.593)" style="display:block"/><g style="display:block"><path fill="#856300" d="m234.702 284.067 5.297 41.072-13.154 21.266-23.846-3.98-23.253-38.12 54.956-20.238z"/><path fill="#755700" d="m202.999 342.426 37-17.287 3.985 30.912-12.201 11.62-14.274-1.459-14.51-23.786z"/><path fill="#B58A00" d="m244.684 359.057 9.588 5.95 16.405 14.283-29.849 2.218-22.184-2.218-1.135-13.077 20.738-12.185 6.437 5.029z"/><path fill="#E4C728" d="m237.244 358.637 10.036 9.034 6.99-2.664-10.286-8.956-3.985-2.024-2.755 4.61z"/><path fill="#BE8F00" d="m199.822 312.404-6.66 23.083-20.952 10.918-20.952-5.633-11.962-55.101 44.19 12.952 16.336 13.781z"/><path fill="#856300" d="m151.257 340.772 41.904-5.284-8.675 30.067-13.913 7.013-13.383-1.972-5.933-29.824z"/><path fill="#B58A00" d="m184.487 365.556 8.675 20.255-21.305 2.992-17.261-2.992 2.594-15.214 9.194-5.906 4.561-1.186h4.472l9.07 2.051z"/><path fill="#E4C728" d="M193.162 391.793h-38.566v-5.983h38.566v5.983zM166.385 368.78l1.353 9.613h11.085l-3.647-11.178-4.231-1.002-4.56 2.567zM270.724 385.173h-52.079v-5.983h52.079v5.983z"/><path fill="#9E7700" d="m234.702 284.067-34.881 28.337-60.526-26.734 41.972-5.818 20-12.352 12.267 9.218 21.168 7.349zM153.59 352.502l34.708-.157-3.812 13.211-27.296 5.041-3.6-18.095z"/><path fill="#CCAC13" d="M166.404 368.895v-9.838l9.342-.941-.56 9.158-8.782 1.621z"/><path fill="#9E7700" d="m210.624 354.924 31.312-14.764 2.048 15.891-26.475 10.161-6.885-11.288z"/><path fill="#CCAC13" d="m237.245 358.638-1.853-9.997 7.348-2.235 1.244 9.645-6.739 2.587z"/></g><g style="display:block"><path fill="#E4C728" d="m228.415 168.172-14.881-6.613-10.219 14.013-8.206 19.649-27.092-9.218-26.813-5.891-12.526 13.9 8.306 50.286 4.22 12.937-1.909 28.435 50.83 8.683 11.143-25.42 13.642 22.53 19.792-7.395 1.198-57.603-7.485-58.293z"/><path fill="#755700" d="m133.137 157.793 10.121-10.574 1.549 9.677 6.122 10.231-17.792-9.334zM202.777 135.419l20.059 10.545-9.301 15.595-18.425 33.662.992-34.234 6.675-25.568z"/><path fill="#BE8F00" d="m136.986 244.301 4.219-64.188-22.488 8.186 18.269 56.002zM238.246 161.827l-2.346 64.638-22.366-64.907 24.712.269zM186.567 215.531l-38.504 6.129.846 5.311 38.502-6.128-.844-5.312z"/></g><g style="display:block"><path fill="#DFBCA4" d="m133.969 51.768 58.203-6.127 17.909-8.719 19.558 90.249-26.862 8.248-3.674 11.658-3.763 7.646-24.61 13.449-20.266-12.787-30.778-35.126-12.344-19.243-3.455-19.76 30.082-29.488z"/><path fill="#C3977A" d="m140.627 51.067 27.547 94.444 34.602-10.091-3.178 12.099.291 11.936-4.78 35.766-31.047-17.887-18.782-17.173-17.862-27.847-.636-7.898-7.094-4.155 15.227-11.427-12.963-18.422-14.609 10.604-9.191-14.138 27.968-27.414 7.85-7.696 6.657-.701zM196.05 96.881l-16.871-24.036-21.408-6.939 24.505-7.541 6.293 7.627 8.92 16.071-1.439 14.818zM197.735 63.797l.986-7.788 14.528-4.472-11.393 35.812-4.121-23.552z"/><path fill="#8A6651" d="m134.915 108.832-15.228 11.43 7.729 12.048 7.499-23.478zM191.773 79.224l-27.877 23.324-11.48-11.065-4.908-.177-2.249-3.347 12.51-5.985 34.004-2.75zM201.046 77.472l19.176 6.246-.816-3.76-3.737-6.71-14.623 4.224z"/><path fill="#856300" d="m127.765 61.911 28.325 42.172-14.785 13.83-19.353-27.5-14.61 10.603-9.19-14.137 14.758-17.884 14.855-7.084z"/><path fill="#E8C9B6" d="m197.735 63.797-9.168 2.194 7.482 30.89 9.162-2.219-7.476-30.865z"/><path fill="#8A6651" d="m127.03 107.345-5.94-10.268-8.778 6.065 14.718 4.203z"/><path fill="#856300" d="m157.77 65.906 16.965-11.546 7.541 4.006-24.506 7.54zM198.721 56.008l7.264-7.596 7.263 3.125-14.527 4.471z"/><path fill="#C3977A" d="m219.741 99.601-51.604 12.488 19.558 9.898 22.386-5.184 9.66-17.202z"/><path fill="#FFF" d="m213.806 104.396-36.252 8.732 10.842 6.04 19.384-4.539 6.026-10.233z"/><path fill="#8A6651" d="m205.211 94.662-3.94 6.526-5.222-4.307 9.162-2.219z"/><path fill="#755700" d="m147.51 91.305-23.935 1.414-1.623-2.308 12.78-3.534 10.584 1.164 2.194 3.264z"/><path fill="#8A6651" d="m202.777 135.418-45.244 13.196 42.356 10.84 2.888-24.036z"/><path fill="#BE8F00" d="m192.172 9.823-84.829 21.208-15.481 25.92 53.418-20.029 46.892-27.099z"/><path fill="#9E7700" d="M140.628 51.067 98.153 86.878l-6.291-29.927 38.02-18.615 10.746 12.731z"/><path fill="#856300" d="m140.627 51.067-10.745-4.131v-8.6l62.291-28.513 1.981 18.315-1.981 17.502-51.546 5.427z"/><path fill="#BE8F00" d="M192.172 9.823V45.64l17.909-8.718L232.938.002l-40.766 9.821z"/><path fill="#464646" d="m154.471 74.152-45.95 11.076-1.179 15.788 14.609-10.603 35.819-3.771-.418-6.959-2.881-5.531zM197.734 63.797l-9.167 2.194-.479 3.904 2.418 4.104 9.142-2.3.991-3.339-2.905-4.563z"/><path fill="#4F5252" d="m226.339 56.952 5.892 24.741-31.185-4.22-3.311-13.676 28.604-6.845zm-34.566 22.271L161.069 99.13l-6.598-24.978 34.097-8.16 3.205 13.231z"/></g><g style="display:block"><path fill="#BE8F00" d="m171.857 168.863-38.72-11.069 8.067 22.318 53.905 15.108-23.252-26.357z"/><path fill="#CCAC13" d="m141.204 257.235 54.136-23.893h5.927l34.125 17.536-34.125 16.622-60.063-10.265z"/><path fill="#BE8F00" d="m195.11 195.221.23 38.121 5.928 35.591v-35.591l-6.158-38.121z"/></g><g style="display:block"><path fill="#BE8F00" d="m101.857 221.251 48.607 31.896-2.401 14.353-8.168 9.241-53.937-26.324 15.899-29.166z"/><path fill="#DFBCA4" d="m150.465 253.146 12.072 7.733-22.642 15.862 10.57-23.595z"/></g><g style="display:block"><path fill="#C3977A" d="m293.563 203.602 15.262-1.12 6.969 12.833-4.546 17.371-17.416-.045-.269-29.039z"/><path fill="#C3977A" d="m308.825 202.482 30.966-1.777V207l-26.379 6.217-4.587-10.735z"/><path fill="#DFBCA4" d="m293.562 203.603 11.857-19.848 6.601 2.004-5.056 26.448-13.277 4.877-.125-13.481zM324.56 210.59l.94 17.472-14.252 4.624-4.284-20.479 17.596-1.617z"/></g><g style="display:block"><path fill="#858585" d="m71.428 276.719 71.39 27.738 13.272 11.581-4.833 24.735-85.792-17.533-12.013-33.288 17.976-13.233z"/><path fill="#9DA0A1" d="m142.817 304.457-89.364-14.505 22.793-20.807 93.057 11.531-7.286 16.682-19.2 7.099z"/><path fill="#6E7073" d="m167.007 284.232-7.173 4.946-17.016 15.279 8.439 36.315 27.763-24.734-6.799-24.747-5.214-7.059z"/><path fill="#4F5252" d="m141.205 180.112 31.005 111.18-12.375-2.114-27.279-105.918 8.649-3.148z"/><path fill="#DDDDDC" d="m88.452 304.548-8.171.558-.558 4.084 4.271 2.97-5.013 1.858.186 2.786 6.869-.93 1.858-4.64-5.385-3.344 6.5-.557-.557-2.785zM98.477 307.705l-6.871-1.3-2.413 11.141 3.714 1.115-.373-5.201 5.387.745.556-6.5zm-3.713 4.271-2.23-.929.373-2.414 2.227 1.301-.37 2.042zM108.318 309.934l-7.428-.93-.928 10.399 7.798.557.558-10.026zm-3.343 7.241-2.786-.744.557-4.084 3.344.929-1.115 3.899zM119.504 322.466l-1.904-4.549 1.671-6.498-6.869-1.3-2.414 11.141 3.714 1.113-.372-5.198 3.667 5.57 2.507-.279zm-5.802-10.119 2.228 1.3-.372 2.043-2.228-.929.372-2.414zM121.593 312.44l10.026.557-.418 2.645-4.456-.278-.696 8.216-3.621-.697 2.089-7.38-3.62-.557.696-2.506z"/></g></g></svg>