<svg xmlns="http://www.w3.org/2000/svg" viewBox="0 0 400 400" width="400" height="400"><defs><clipPath id="a"><path d="M0 0h400v400H0z"/></clipPath></defs><title>Architect (INTJ) personality</title><g clip-path="url(#a)"><g style="display:block"><path d="m363.18 380.28-40.54-16.37-174.899-4.231-111.54 24.261L136.07 400l227.11-19.72z" opacity=".1"/><path fill="#4F5252" d="m281.231 348.79 2.18 22.47 15.429-.06.611-20.65-18.22-1.76zM175.49 348.79l2.19 22.47 15.42-.06 4.03-20.65-21.64-1.76z"/><path fill="#858585" d="m179.41 378.269 2.94-31.509-29.42 3.409 1.75 29.611 24.73-1.511zM321.79 379.78l.85-29.04-27.24-3.981.52 33.021h25.87z"/><path fill="#858585" d="m322.64 354.151.29-14.5-78.97-32.352-90.08 25.751.69 21.101h168.07z"/><path fill="#C4C4C4" d="m314.97 339.65-155.22-4.841 86.09-19.199 69.13 24.04z"/><path d="m247.72 331.92-92.25 28.07 5.51-10.759 43.801-15.471 42.939-1.84z" opacity=".1"/><path fill="#2B2B2B" d="M247.72 323.93v7.99l74.86 20.771.35-13.04-75.21-15.721z" opacity=".1"/><path fill="#CECECD" d="m160.98 349.231 86.74-17.311 4.37-10.14-5.76-10.431-82.61 9.302-2.74 28.58z"/><path fill="#9DA0A1" d="m245.84 315.61-82.12 5.041 5.12-39.602 23.97 6.011 49.47 12.459 4.05 8.751-.49 7.34z"/><path fill="#C4C4C4" d="m242.28 299.52 3.56 16.091 32.44 3.569 37.38-9.12 11.08-29.01-84.46 18.47z"/><path fill="#EBEBEB" d="m245.84 315.61 1.88 16.31 97.55 10.639-29.61-32.5-69.82 5.551z"/></g><g style="display:block"><path d="m315.66 310.06-13.16 9.771-19.55-7.17 32.71-2.601zM273.69 319.18l-14.96 7.61-12.4-6.96 27.36-.65zM235.35 309.59l-15.061 5.17-17.009-13.02 32.07 7.85z" opacity=".1"/></g><g style="display:block"><path fill="#90759F" d="m298.21 280.849-19.93 10.801 21.64 10.801-1.71-21.602zM1264.171 1482.249l-16.45 11.71 18.16 9.892-1.71-21.602zM1012.811 1183.639l-16.45 11.71 18.16 9.892-1.71-21.602zM761.451 885.029l-16.45 11.71 18.16 9.892-1.71-21.602zM510.091 586.419l-16.45 11.71 18.16 9.892-1.71-21.602zM258.731 287.809l-16.45 11.71 18.16 9.892-1.71-21.602zM220.55 275.78l-18.36 13.66 20.07 7.94-1.71-21.6z"/></g><g style="display:block"><path fill="#785D87" d="M298.21 280.85h4.29v34.86h-4.29v-34.86zM258.73 287.81h4.29v34.86h-4.29v-34.86zM220.55 275.78h4.29v34.86h-4.29v-34.86z"/></g><path fill="#734D5F" d="m5.141-33.495 18.238 53.892L-3.54 47.035-44.839-31.97l30.489-15.065 19.491 13.54z" transform="translate(195.23 218.995)" style="display:block"/><path fill="#95627B" d="m-10.02-26.69-9.25 56.79 38.541-15.33L7.82-24.86.339-30.1l-10.359 3.41z" transform="translate(211.04 236.18)" style="display:block"/><g style="display:block"><path fill="#543042" d="m148.875 335.125-12.238 6.289-17.512-5.039 2.625 25.375 10.372 3.46 10.628-3.835 6.125-26.25z"/><path fill="#734D5F" d="m192.81 287.06-56.74 22.311v32.219l14.01 6.891 19.76-16.561 22.97-44.86z"/><path fill="#532F42" d="m169.84 331.92-33.77 9.67-4.02 23.46h12.46l10.96-5.06 14.37-28.07z"/><path fill="#95627B" d="m136.07 341.59 4.58-26.72-18.9-16.929-38.11-16.891 10.91 55.2 21.8 13.92 19.72-8.58z"/><path fill="#532F42" d="m192.81 287.06-52.16 27.811-57.01-33.821 60.87-.031 48.3 6.041z"/><path fill="#734D5F" d="m94.55 336.25 41.52 5.34-4.02 23.46-15.7 4.08-15.54-1.2-6.26-31.68z"/><path fill="#785D87" d="m131.13 378.269 19.82 1.79 28.46-1.79-23.94-18.279-23.42 5.059-.92 13.22z"/><path fill="#584164" d="M131.13 378.27h48.28v6.802h-48.28v-6.802z"/><path fill="#90759F" d="m132.05 365.05 9.19 20.03-21.71 2.08-21.7-2.08 2.98-17.15 31.24-2.88z"/><path fill="#584164" d="M97.83 385.08h43.41v6.8H97.83v-6.8z"/></g><g style="display:block"><path fill="#B3889D" d="M130.5 154 89 175.5l20.5 59.5 42.5-56-21.5-25z"/><path fill="#734D5F" d="m84.65 258.35 1.34-9.267 8.98-62.123-23.01-13.41-19.16 51.47 31.85 33.33z"/><path fill="#532F42" d="m52.8 225.02 34.78-1.06 3.45 20.701-6.75 22.049-31.48-41.69z"/><path fill="#95627B" d="m143.68 195.7 19.44-28.04 22.57 7.19 6 91.18-55.63 6.34-51.78-5.66 6.33-78.28 11.92-9.45 5.76-15.96 35.39 32.68z"/><path fill="#734D5F" d="m166.1 236.65 6.12 29.5-61.96.39 5.43-21.88 12.21-34.29 15.78-14.67 13.68 14.67 8.74 26.28z"/><path fill="#B3879D" d="m143.68 195.7 22.42 40.95-1.2-65.09-21.22 24.14zM146.07 219.95l4.01 7.34-7.35 5.01-5.34-7.68 8.68-4.67zM145.74 242.65l-7.34 4.67 5.67 7.35 6.34-4.68-4.67-7.34z"/><path fill="#584164" d="m84.28 266.71 44.98-.29 15.14 3.8 15.35-3.989 31.94-.201 1.12 21.03-34.1-1.88-11.4-2.25-17.94.64-45.73-2.52.64-14.34z"/><path fill="#B3879D" d="m159.75 266.23-30.49.189.11 17.151 29.34 1.609 1-18.949h.04zm-7.67 12.819h-16.36l.34-6.68 16.36-.67-.34 7.35z"/><path d="m143.68 195.7 43.18-20.49-21.96-3.65-21.22 24.14z" opacity=".1"/><path fill="#584164" d="m165.27 185.451 35.67 1.89-3.38-11.46-32.66-4.32.37 13.89zM123.69 177.24l-42.38 14.34-9.35-18.03 16.378-4.806 23.362-6.854 11.99 15.35z"/><path fill="#B3879D" d="m111.7 161.89 3.99 82.77 27.99-48.96-3.448-3.645-27.441-29.011-1.091-1.154z"/></g><g style="display:block"><path fill="#584164" d="m97.2 113.43 10.99-2.95 17.8 13.49-11.31 10.65-29 2.85 11.52-24.04z"/><path fill="#DFBCA4" d="m235.35 72.57-5.489 26.13-24.95 79.98-40.011-7.12-21.219 24.14-24.351-39.95 10.53-43.32 7.071-2.97 4.06-20.49L139.5 58.1l34.65-17.51 32.791 18.96 6.829-17.68 21.58 30.7z"/><path fill="#C3977A" d="m140.76 58.6 19.96 38.08-4.63 76.55-12.41 22.47-31.98-33.81 2.98-27.27 2.67-5.87-.03-5.86-11.48-1.54.18-26.87 17.38-.07 6.46 15.51 5.57.54 4.56-21.24.77-30.62z"/><path fill="#8A6651" d="m110.72 100.16 8.77.25 2.13 17.32-10.9-17.57zM164.9 171.56l-28.18-5.04 6.96 29.18 21.22-24.14zM117.32 122.89l7.56 1.08-10.2 10.65 2.64-11.73z"/><path fill="#A687B9" d="m233.339 72.32 6.86-11.15 14.5-9.59L229.86 98.7l3.479-26.38z"/><path fill="#90759F" d="m140.76 58.6-20.28-11.89-33.05-10.15 6.22 48.9 28.16 4.09 23.19-.33-4.24-30.62z"/><path fill="#785D87" d="m233.34 72.32-19.46-23.93-11.66-10.97-11.94-18.05 64.42 32.21-21.36 20.74zM140.76 58.6l35.39-12.75-20.37-17.28-26.56-10.35-41.79 18.34 53.33 22.04z"/><path fill="#90759F" d="m151.541 0-22.32 18.221 46.93 27.63 33.291 19.219 4.437-16.68-23.599-29.019L151.541 0z"/><path fill="#785D87" d="m145 89.22-51.35-3.76 3.55 27.97 8.64 7.92 1.31-25.74 16.25 1.07 4.19 17.26 9.84-1.47L145 89.22z"/></g><g style="display:block"><path fill="#C3977A" d="m219.28 107.22-58.56-10.54 15.43 16.07 8.04 27.01 35.09-32.54z"/><path fill="#8A6651" d="m157.36 152.25 28.729 9.65 20.601-2.21-19.341-10.09-29.989 2.65z"/><path fill="#785D87" d="m157.36 152.25 26.829-12.49 11.9 2.25 10.601 17.68-49.33-7.44z"/><path fill="#E8C9B6" d="m192.81 102.46-8.62 37.3 11.9 2.25 6.1-37.86-9.38-1.69z"/><path fill="#785D87" d="m160.721 96.68 58.56 10.54 1.859-7.58-56.509-6.82-3.91 3.86z"/><path fill="#584164" d="m196.09 141.95-7.04 3.6-4.86-5.79 11.9 2.19z"/></g><g style="display:block"><path fill="#2B2B2B" d="M208.67 115.51a4.59 4.59 0 1 1 0 9.18 4.59 4.59 0 0 1 0-9.18zM176.34 109.3a4.59 4.59 0 1 1 0 9.18 4.59 4.59 0 0 1 0-9.18z"/></g><path fill="#C3987B" d="m-2.874-29.23 4.52 10.592 18.244-9.797-.045-7.422-6.862-4.082L-2.874-29.23z" transform="rotate(-86.341 221.763 -27.33)" style="display:block"/><g style="display:block"><path fill="#8A6651" d="m194.09 201.7 6.85 7.54 6.56.88 6.81-21.58-20.1 3.04-.12 10.12z"/><path fill="#C3977A" d="m230.911 187.029-12.13 24.042-17.84-1.831 13.369-20.701 4.471-4.91 12.13 3.4z"/><path fill="#E8C9B6" d="m191.69 176.33 16.38-7.78 22.84 18.48-16.6 1.51-13.94-3.04-8.68-9.17z"/><path fill="#DFBCA4" d="m214.31 188.54-13.37 7.39-14.48-9.36 5.23-10.24 22.62 12.21z"/></g></g></svg>