<svg xmlns="http://www.w3.org/2000/svg" viewBox="0 0 400 400" width="400" height="400"><defs><clipPath id="a"><path d="M0 0h400v400H0z"/></clipPath></defs><title>Logician (INTP) personality</title><g clip-path="url(#a)"><path fill="#8F8F8F" d="m-54.765 14.949 114.03 1.011 2.199-28.71-96.169-3.21-20.06 30.909z" transform="translate(203.845 335.441)" style="display:block"/><path fill="#C4C4C4" d="m-34.185-4.075 35.73-24.46 32.64 5.59-39.87 51.48-28.5-32.61z" transform="translate(260.685 147.485)" style="display:block"/><path fill="#9DA0A1" d="m14.605 27.165 3.43-45.14-12.61-9.19-23.46 48.74 32.64 5.59z" transform="translate(280.265 97.375)" style="display:block"/><g style="display:block"><path fill="#EBEBEB" d="m282.991 39.88-10.42-27.43-10.24 2.82 5.22 27.65-10.741 38.92 8.861 7.33 20.949-5.77 20.94-5.77 3.861-10.84-28.43-26.91z"/><path fill="#785D87" d="m307.691 67.69-15.382-14.55-26.359 7.69-5.481 19.86 5.96 4.94 38.66-10.66 2.602-7.28z"/><path fill="#A687B9" d="m267.312 79.667 1.718-3.701 3.7 1.717-1.717 3.701-3.701-1.717zM267.292 72.806l.742-1.596 1.596.742-.742 1.596-1.596-.742zM273.998 77.552l.742-1.596 1.596.742-.742 1.596-1.596-.742zM273.99 72.383l.741-1.596 1.597.742-.742 1.596-1.596-.742z"/><path fill="#DFBCA4" d="m280.769 42.26 6.591-15.25 14.76 22.37-1.571 7.12-8.259-3.26-11.521-10.98z"/><path fill="#C3977A" d="m270.69 39.7 10.81 16.6 10.79-3.06-4.93-26.23-16.67 12.69z"/></g><g style="display:block"><path fill="#2B2B2B" d="M113.88 392.31 226.5 400l102.42-11.65-100.26-9.64-114.78 13.6z" opacity=".1"/><path fill="#584164" d="m188.59 393.37 5.57-9.061-5.98-15.179-5.24 7.76 1.81 16.48h3.84z"/><path fill="#C3977A" d="m202.21 368.03 1.43-37.67h-28.42l12.96 38.77 9.73 8.74 4.3-9.84z"/><path fill="#8A6651" d="m202.41 362.73-17.63-3.761 2.13 6.361 15.5-2.6z"/><path fill="#785D87" d="m188.18 369.13 14.03-1.1 13.5 25.34h-27.12l-.41-24.24z"/></g><g style="display:block"><path fill="#EBEBEB" d="m237.64 261.93 58.14 58.95-44.61-85.32-10.009 7.04-3.521 19.33z"/><path fill="#C4C4C4" d="m241.16 258.21 54.62 62.67-32.67 30.52-16.89-46.59-5.06-46.6z"/><path fill="#8F8F8F" d="m220.74 192.42 20.42 65.79 10.01-22.65 3.37-52.38-33.8 9.24z"/><path fill="#DDDDDC" d="M205.434 150.152 226.5 196.95l28.04-13.77.46-7.16-28.5-32.61-21.066 6.742z"/><path fill="#584164" d="M210.754 153.708s-19.287 21.648-24.294 26.321l16.352 25.887 23.942-7.981c-2.733-10.523-16-44.227-16-44.227z"/><path fill="#90759F" d="m205.535 150.286 15.7 34.459-20.976-19.235 5.276-15.224z"/><path fill="#584164" d="m231.38 217.35-4.87-20.37-24.1 8.07 3.89 48.861.27.299 34.59 4-9.78-40.86z"/><path fill="#EBEBEB" d="m205.45 150.23 21.12 46.74 5.98-3.208 10.73-31.152-37.83-12.38z"/></g><g style="display:block"><path fill="#584164" d="m257.89 385.39 3.12-11.979-4.21-7.851-5.03-4.52-2.77 9.321 4.39 15.029h4.5z"/><path fill="#C3977A" d="m264.62 358.03-6.521-27.67H231.25l20.519 30.68 9.801 11.88 3.05-14.89z"/><path fill="#8A6651" d="m258.1 330.36-20.46-5.44-6.39 5.44 5.371 8.02 21.479-8.02z"/><path fill="#785D87" d="m251.77 361.04 12.851-3.01 28.099 27.36h-26.439l-14.511-24.35zM175.221 250.589l43.31-3.07 20.44 18.231 19.128 64.611-92.532-.298 9.654-79.474z"/><path fill="#90759F" d="m206.29 254.18 51.81 75.92-16.94-71.89-16.8-5.49-18.07 1.46z"/></g><g style="display:block"><path fill="#95627B" d="M101.53 193.71 69.7 171.53l29.72-8.92 11.17 4.07-9.06 27.03z"/><path fill="#532F42" d="m151.48 139.66-49.95 54.05-4.56-73.27 54.51 19.22z"/><path fill="#B3879D" d="M111.2 43.07 96.97 79.25 66.83 119.3l10.02-67.34 34.35-8.89z"/><path fill="#95627B" d="M111.2 43.07 66.83 119.3l42.33-13 2.04-63.23z"/><path fill="#734D5F" d="m66.83 119.3 30.14-15.47 22.74 8.05 21.02 12.47 10.75 15.31-84.65-20.36z"/><path fill="#532F42" d="m96.97 103.83 40.7 21.54-17.34-26.97-23.36 5.43z"/><path fill="#DFBCA4" d="m209.21 22.36 7.23 5.12 29.78 82.89-32.72 14.3-13.021 41.053-31.339-17.473-39.99-48.05-11.52-66.7 66.79-30.26 24.79 19.12z"/><path fill="#C3977A" d="m201.308 165.512 3.347-10.81-16.245-14.872-33.22-83.49-12.16-10.37-25.4 58.66 20.04 20.74 5.52 3.03 8.29 11.26 17.66 18.28 14.06 7.51 18.108.062z"/><path fill="#8A6651" d="m175.22 141.48 28.81 13.16.628.16 8.842-30.13-38.28 16.81z"/><path fill="#B3879D" d="m143.03 45.97 36.33-12.96 11.53-12.78L184.97 0l-71.09 31.66 12.61 18.91 16.54-4.6z"/><path fill="#8A6651" d="m137.67 125.37 5.92-8.23 7.89 22.52-13.81-14.29z"/><path fill="#DFBCA4" d="m137.67 125.37 9.56-13.31-22.06-24.83-7.54 17.4 20.04 20.74z"/><path fill="#8A6651" d="m127.57 96.44 8.65 10.58-14.24-2.71 5.59-7.87z"/><path fill="#FFF" d="m152.67 117.53-4.34 4.36-9.23-9.25 4.57-4.59 9 9.48z"/><path fill="#95627B" d="m184.97 0-5.61 33.01 29.85-10.65L184.97 0z"/><path fill="#734D5F" d="m125.17 87.23 18.5 20.82 7.77-11.47-19.63-24.7 11.22-25.91-29.15-14.31-16.91 72.17 14.22.55 6.44.25 7.54-17.4z"/></g><g style="display:block"><path fill="#DDDDDC" d="m169.14 157.94 24.22 30.89 11.668 16.642 1.262 48.708-30.969-3.483-30.741-68.257 24.56-24.5z"/><path fill="#EBEBEB" d="m169.14 157.94-5.54 30.16 29.76.73-8.48-14.47-15.74-16.42z"/><path fill="#584164" d="m231.38 217.35-4.87-20.37-24.1 8.07 3.89 48.861.27.299 34.59 4-9.78-40.86z"/><path fill="#EBEBEB" d="m176.89 183.77-3.13 14.66 25.26 12.23 8.99-4.49-15.648-18.769-15.472-3.631z"/><path fill="#DDDDDC" d="m169.14 157.94 24.22 30.89 5.66 21.83 7.27 43.52-3.88 108.551-57.83-12.341 37.34-102.87-37.34-65.08 24.56-24.5z"/><path fill="#C4C4C4" d="m206.29 254.18-61.71 96.21 30.64-99.8 16.61-3.07 14.46 6.66z"/><path fill="#8F8F8F" d="m208.01 206.2-24.81 4.461-18.28 17 10.3 22.929 31.07 3.59 1.72-47.98z"/><path fill="#EBEBEB" d="m169.14 157.94-5.54 30.16 29.76.73-8.48-14.47-15.74-16.42z"/><path fill="#90759F" d="m200.62 165.45-6.26 10.57-7.9 4.01-17.32-22.09 31.48 7.51z"/><path fill="#584164" d="m200.66 165.46-.04-.01-14.16 14.58 6.9 8.8 9.75-8.27-2.45-15.1z"/><path fill="#EBEBEB" d="m164.621 183.718-3.13 14.66 25.26 12.23 20.021-5.068-14.986-18.75-27.165-3.072z"/></g><g style="display:block"><path fill="#8A6651" d="m216.981 85.76-3.391 6.63-8.229-2.42 11.62-4.21z"/><path fill="#734D5F" d="m164.42 60.59 6.07-1.12 3.99-4.97h8.72l-11.67-2.76-7.11 8.85zM203.06 48.83l4.671-1.56 3.119-7.36h6.74l-9.03-2.6-5.5 11.52z"/><path fill="#584164" d="m187.71 108.66 12.02-3.22 10.6 3.22-6.3-6.84-4.03 1.2-2.15-2.01-10.14 7.65z"/><path fill="#90759F" d="m188.35 108.49 6.55 2.31 11.67-3.28-6.84-2.08-11.38 3.05z"/><path fill="#C3977A" d="m226.14 70.96-11.77 8.29-3.33-5.57 15.1-2.72zM173.81 89.97l29.63-4.81-.15-8.26-29.48 13.07zM166.9 70.93l24.93-.2-3.07-7.74-21.86 7.94zM220.36 51.54 213.5 62.5l-3.17-7.41 10.03-3.55z"/><path fill="#E8C9B6" d="m216.98 85.76-11.62 4.21-13.53-33.81 11.61-4.2 13.54 33.8z"/><path fill="#584164" d="m125.17 87.23-3.99 9.21-3.55-11.93 42.21-16.72 4.58 11.31-39.25 8.13z"/><path fill="#584164" d="m213.071 75.72 29.17-10.61-9.42-23.79-73.001 26.47 9.63 23.76L201.25 80l-7.44-18.78 11.631-4.28 7.63 18.78zm-40.58 9L166.9 70.93 188.76 63l5.47 13.81-21.739 7.91zM235.22 62l-19.12 6.9-5.6-13.8 19.25-7 5.47 13.9z"/></g><g style="display:block"><path fill="#2B2B2B" d="M185.97 69.86a3.27 3.27 0 1 1 0 6.54 3.27 3.27 0 0 1 0-6.54zM221.96 56.54a3.27 3.27 0 1 1 0 6.542 3.27 3.27 0 0 1 0-6.542z"/></g><g style="display:block"><path fill="#9DA0A1" d="m144.58 182.44 20.33 45.22 67.66-33.69-19.07-5.79-20.14.65-48.78-6.39z"/><path fill="#C4C4C4" d="m232.56 193.97-6.06-50.56-7.309-8.69h-8.86l-16.971 54.11 39.2 5.14z"/></g><g style="display:block"><path fill="#C3977A" d="m210.33 134.72 7.85-25.81 14.01 6.06 6.78 11.44-12.47 17-16.17-8.69zM218.18 108.91l18.65-5.62 9.39 7.08-11.47 4.23-16.57-5.69z"/><path fill="#DFBCA4" d="m218.18 108.91 28.04 1.46 1.79 12.8-9.04 3.24-20.79-17.5z"/></g></g></svg>