<svg xmlns="http://www.w3.org/2000/svg" viewBox="0 0 400 400" width="400" height="400" style="width:100%;height:100%;transform:translate3d(0,0,0);content-visibility:visible"><defs><clipPath id="a"><path d="M0 0h400v400H0z"/></clipPath></defs><title>Defender (ISFJ) personality</title><g clip-path="url(#a)"><path fill="#50A9AA" d="m-22.25-27.58 10.25 4.6 34.25 50.56-25.07-11.86-19.43-12.46v-30.84z" transform="translate(234.03 193.26)" style="display:block"/><path fill="#50A9AA" d="M9.33-32.165-21 32.165 4.34 17.944 21 9.765 9.33-32.165z" transform="translate(148.88 206.075)" style="display:block"/><g style="display:block"><path fill="#71CACC" d="m211.781 165.68-11.47 29.29-16.131 6.9 16.481-12.38-21.461-26.23-20.99 10.65 7.12 39.76-9.04 27.07-12.781 27.69h32.141l36.131-6.46 9.68-13.201 9.75-39.789-19.43-43.3z"/><path fill="#369395" d="m165.33 213.669-9.04 27.071 31.07-.15 33.82 5.43 9.33-27.381.7-9.659-65.88 4.689z"/><path fill="#FFF" d="m211.781 165.68-36.131-.86v41.79l24.66-11.64 27.33 6.049-15.859-35.339z"/><path fill="#2B2B2B" d="m153.32 247.17 2.97-6.43 40.18-.15 18.242 5.971 6.748 2.209-9.68 13.2-58.46-14.8z" opacity=".2"/></g><g style="display:block"><path d="m110.56 392.33 95.09-15.271 79.55 14.321-73.181 8.62-101.459-7.67z" opacity=".1"/><path fill="#C3977A" d="m205.61 341.25 15.25 25.14 8.35 1.62 3.89-3.68-1.89-20.4-25.6-2.68zM190.67 339.759l-2.63 28.271-10.56 3.479-2.36-4.75-9.47-29.569 25.02 2.569z"/><path fill="#27788B" d="M233.1 364.33 244.661 375l-11.122 12.35-13.53-1.88.851-19.08 12.24-2.06zM188.04 368.03l7.91 20.939-13.91 2.082-13.78-2.082 6.86-22.21 12.92 1.271z"/><path fill="#8A6651" d="m231.21 343.93-20.67 5.449-4.93-8.129 12.8-1.219 12.8 3.899zM165.65 337.19l24.35 9.84.67-7.271-11.97-2.569h-13.05z"/><path fill="#369395" d="m211.781 261.97-18.71 33.761-31.351 29.449-18.211-56.75 26.554-2.513 41.718-3.947z"/><path fill="#50A9AA" d="m211.78 261.97 8.069 13.55 8.841 42.869v21.641l-63.04-2.84-3.93-12.01 50.06-63.21z"/><path fill="#369395" d="m165.65 337.19 30.819-9.191 20.964-6.252 11.258-3.358 2.519 25.54-65.56-6.739z"/><path fill="#369395" d="m211.78 261.97 14.457 48.235 2.453 8.185-7.23-69.62-9.68 13.2z"/><path fill="#399FB9" d="m244.66 375-14.9 10.47h-9.75v3.18h39.56v-7.18L244.66 375zM187.3 380.88h-10.26l-8.78 8.09v3.29h27.69v-3.29l-8.65-8.09z"/></g><path fill="#DFBCA4" d="m3.155-15.225 29.34 18.39 1.8 5.66-1.8 6.4-66.79-5.88 37.45-24.57z" transform="translate(162.175 228.895)" style="display:block"/><g style="display:block"><path fill="#4F5252" d="m248.94 58.25 22.07 14.07-17.371 23.52-4.699-18.79v-18.8z"/><path fill="#71CACC" d="m203.66 0-73.98 32.96 10.53 18.6 8.72 6.69 29.43-5.69 32.77-17.61-1-15.29L203.66 0z"/><path fill="#8BDFDC" d="m211.13 34.95 15.88 14.03 21.93 9.27 6.01-36.87L203.66 0l7.47 34.95z"/><path fill="#369395" d="m129.68 32.96 4.51 44.09 10.21-8.77 4.53-10.03-19.25-25.29z"/><path fill="#27788B" d="m205.18 7.09-2.961 1.2 1.59 8.46-7.088 2.85 1.068 5.61 7.37-2.8 1.68 7.75 3.04-1.03.25-9.47-4.949-12.57z"/><path fill="#308FA6" d="m205.18 7.09 3.489 1.71 1.681 7.22 7.22 3.47-.101 5.04-5.91-2.64 1.631 8.3-3.31-1.06-4.7-22.04z"/><path fill="#DFBCA4" d="m248.94 58.25 10.97 87.81-43.391 6.97-16.209 41.94-34.761-48.83L141.2 122.7l16.679-9.17 4.29 4.83 15.951-39.59 14.32-8.61 17.689-7.87 38.811-4.04z"/><path fill="#C3977A" d="m178.121 78.77 10.75 79.38 27.648-5.12-8.688 8.27 2.3 8.27-9.821 25.4-42.729-52.4-3.07-6.8-4.47-2.44-13.4-16.44 16.68-14.12 7.68 17.33 5.68-16.33 11.44-25zM241.67 81.18l-16.01 22.08-7.73 10.29-23.08-24.85 46.82-7.52z"/><path fill="#E8C9B6" d="m213.87 85.58 4.06 27.97 9.08-1.25-4.23-28.18-8.91 1.46z"/><path fill="#8A6651" d="m227.01 112.3-3.95 6.06-5.13-4.81 9.08-1.25zM216.52 153.03l-6.391 16.54-29.529-11.34 35.92-5.2zM160.76 126.61l-3.17 15.97-7.54-9.24 10.71-6.73zM157.26 123.92l-5.88-10.18-7.87 4.62 13.75 5.56z"/><path fill="#4F5252" d="m207.83 70.16 5.14-17.6-1.84-17.61-62.2 23.3-29.54 37.39 29.86-6.94 28.87-9.93 12.9-3.74 16.81-4.87z"/><path fill="#2B2B2B" d="M178.12 78.77 162 122.1l-8.68-14.38-16.68 9.17-17.25-21.25 58.73-16.87z"/><path fill="#6E7073" d="m211.13 34.95 37.81 23.3-41.11 11.91 3.3-35.21z"/></g><path fill="#DFBCA4" d="M-10.35-14.63-14.72 1.5l2.54 13.13 25.34-5.891 1.56-11.51-25.07-11.859z" transform="translate(241.56 223.61)" style="display:block"/><g style="display:block"><path fill="#8A6651" d="m229.38 238.24-7.92 10.529-26.79-4.649 21.85-8.651 12.86 2.771z"/><path fill="#C3977A" d="m229.38 238.24-7.92 10.529-3.05-9.67 10.97-.859zM194.67 232.059l18.3-11.22 4.96 6.93.48 11.33-23.74 5.021v-12.061z"/><path fill="#E8C9B6" d="m212.97 220.84 13.87 4.271 2.54 13.129-10.97.86-.172-.578-5.268-17.682z"/></g><g style="display:block"><path fill="#4F5252" d="m213.87 85.58-.94-6.19-18.08 9.31 19.02-3.12zM222.78 84.12l18.89-2.94-19.58-3.04.69 5.98z"/></g><g style="display:block"><path fill="#1C7678" d="m214.8 130.13 9.271-5.77 10.139 2.68-9.059 5.4-10.351-2.31z"/><path fill="#50A9AA" d="m207 129.15 19.19 8.15 14.46-13.38-15.5 7.52-18.15-2.29z"/></g><g style="display:block"><path fill="#2B2B2B" d="M210.741 99.49a4.28 4.28 0 1 1-8.561-.001 4.28 4.28 0 0 1 8.561.001zM237.38 95.209a4.28 4.28 0 0 1-4.27 4.29 4.28 4.28 0 1 1-.021-8.56h.021a4.27 4.27 0 0 1 4.27 4.27z"/></g></g></svg>