<svg xmlns="http://www.w3.org/2000/svg" viewBox="0 0 400 400" width="400" height="400" style="width:100%;height:100%;transform:translate3d(0,0,0);content-visibility:visible"><defs><clipPath id="a"><path d="M0 0h400v400H0z"/></clipPath></defs><title>Adventurer (ISFP) personality</title><g clip-path="url(#a)"><g style="display:block"><path d="m314.861 391.33-110.89-8.015-105.552 6.351 100.359 10.085 116.083-8.421z" opacity=".1"/><path fill="#DFBCA4" d="m233.682 379.569 1.062 10.634h15.705l5.191-2.544 4.434-4.296-13.887-13.964-6.775-.231-5.73 10.401z"/><path fill="#C3977A" d="m234.744 390.203-.83-8.31 9.189 8.31 22.543-11.398 10.132 11.398h-41.034z"/><path fill="#DFBCA4" d="m176.541 369.167 6.958 8.818 2.358 13.991h-12.412l-5.772-5.016-6.132-7.392 4.74-8.21 10.26-2.191z"/><path fill="#C3977A" d="m162.151 378.926-12.515 13.05h36.222l-1.599-9.48-6.552 9.48-15.556-13.05z"/><path fill="#8A6651" d="m242.697 365.889-5.54.539-4.536 2.509 1.061 10.633 12.505-10.17-3.49-3.511zM181.73 367.487l-4.457-2.754-7.248.14-3.744 6.486 17.218 6.626-1.769-10.498z"/><path fill="#BE8F00" d="m246.777 283.944-23.28 9.405-22.821 12.885 14.311 38.375 22.093-4.66 21.475-8.259-11.778-47.746z"/><path fill="#E4C728" d="m214.987 344.609 5.066 14.438 19.729-12.065 18.773-15.291-43.568 12.918z"/><path fill="#CCAC13" d="m220.053 359.047 38.501-27.356 7.6 27.102-22.985 2.254-23.116-2z"/><path fill="#E4C728" d="m220.053 359.048 5.066 12.158 41.035-12.412-46.101.254z"/><path fill="#BE8F00" d="m200.676 306.234-3.167 37.108-22.87-2.53-27.031-6.082 3.927-48.76 28.949 9.95 20.192 10.314z"/><path fill="#E4C728" d="m147.609 334.731 25.403 14.708 23.231 9.608 1.266-15.704-49.9-8.612z"/><path fill="#CCAC13" d="m147.609 334.731-2.533 24.569 27.927 1.281 23.239-1.534-48.633-24.316z"/><path fill="#E4C728" d="m196.243 359.047-51.168.253 49.902 11.145 1.266-11.398z"/></g><g style="display:block"><path fill="#464646" d="m222.978 171.282 10.383 3.475 5.753 5.482 7.536-1.034 14.184 14.437-4.074 13.242-10.364 15.381-90.175 2.28-10.789-9.1-8.208-11.164 20.264-25.33 7.719-.997 3.896-3.973 11.616-4.97 17.93 12.896 24.329-10.625z"/><path fill="#856300" d="m246.776 283.943-46.101 22.29-49.139-20.264 4.685-61.425 7.647-8.694 7.678-4.351 60.032-3.293 7.094 3.756 7.724 10.302.38 61.679z"/><path fill="#BE8F00" d="m246.65 179.205-.253 43.061-14.819-14.059 1.778-33.451 13.294 4.449zM169.103 173.981l2.443 37.52-15.326 13.043 1.267-45.593 11.616-4.97z"/><path fill="#9E7700" d="M221.692 264.186h-40.52v-41.297h40.52v41.297zM246.534 244.685l-4.571-3.295-4.559 8.358 6.079-1.011 3.121 7.348-.07-11.4z"/><path fill="#CCAC13" d="m219.926 269.252-6.585 5.318 1.013 5.32 8.612 6.334 3.293-13.426-6.333-3.546zM181.173 259.879l10.638-3.544-1.013-8.612 5.066-2.027-3.04-8.359-2.786 1.013.254 4.053-6.586-.506-2.533 6.333-.946 5.192.946 6.457z"/><path fill="#9E7700" d="m201.942 272.039-6.586-1.773 1.52 7.092 4.813-.759.253-4.56z"/><path fill="#B58A00" d="m181.172 248.229-8.612 1.266 4.052 10.384h4.56v-11.65z"/></g><path fill="#DFBCA4" d="M17.098.063-2.661-16.781l-14.437 28.622 14.565 4.94 13.317-4.648L17.098.063z" transform="translate(263.494 210.423)" style="display:block"/><path fill="#DFBCA4" d="M15.517.126-8.8 20.137l-7.967-25.209 13.286-15.065L15.517.126z" transform="translate(140.704 224.418)" style="display:block"/><g style="display:block"><path fill="#E4C728" d="m121.012 202.255-49.14 7.345-15.705 42.049 22.291 35.208 44.834 15.705 44.455-9.907-4.181-42.019-31.662-6.08-10.892-42.301z"/><path fill="#C3977A" d="m109.614 223.785-5.391 5.273-7.78 4.86 10.892 17.223 12.158-10.131-6.425-9.67-3.454-7.555z"/><path fill="#8A6651" d="m115.657 244.207-4.015-12.063-15.199 1.774 13.172-10.133 9.878 17.225-3.836 3.197z"/><path fill="#DFBCA4" d="m111.642 232.144-15.2 1.773-4.304 16.267 4.74 2.608 14.764-20.648z"/><path fill="#464646" d="m87.747 224.828-9.512-3.492-3.492 9.511 9.512 3.493 3.492-9.512z"/><path fill="#802C00" d="m81.668 241.546-9.512-3.492-3.492 9.511 9.511 3.493 3.493-9.512z"/><path fill="#A84000" d="m87.747 260.291-9.512-3.493-3.492 9.511 9.512 3.493 3.492-9.511z"/><path fill="#CC4E00" d="m103.198 272.956-9.512-3.493-3.492 9.512 9.512 3.492 3.492-9.511z"/><path fill="#EC8500" d="m120.422 279.288-9.512-3.493-3.492 9.511 9.512 3.493 3.492-9.511z"/><path fill="#FF9B01" d="m139.927 279.794-9.512-3.493-3.492 9.511 9.51 3.493 3.494-9.511z"/><path fill="#F4D65D" d="m157.151 269.916-9.512-3.492-3.492 9.51 9.512 3.492 3.492-9.51z"/><path fill="#8A6651" d="m111.641 232.144-4.307 18.998-4.385-6.935 8.692-12.063z"/><path fill="#CCAC13" d="m102.949 244.207-6.071 8.586 10.456-1.651-4.385-6.935z"/></g><path fill="#C3977A" d="m-23.481 11.484 35.256-30.433 11.706-.666-1.982 13.783L1.704 19.615l-25.185-8.131z" transform="translate(284.443 215.72)" style="display:block"/><g style="display:block"><path fill="#8A6651" d="m296.219 196.772 9.724 13.115 8.918-3.119-7.095-18.361-11.547 8.365z"/><path fill="#464646" d="m265.063 152.951 46.271 50.006 5.114-4.018 2.867-5.402-54.252-40.586z"/><path fill="#BE8F00" d="m329.52 215.859 1.4 7.51 12.665 1.773-2.786-6.586-5.645-1.379-3.372-2.567-2.262 1.249z"/><path fill="#856300" d="m331.427 202.597 3.727 14.58-13.606-3.182 4.467-6.643 5.412-4.755z"/><path fill="#8F8F8F" d="m305.359 196.499 16.189 17.496 9.879-11.398-12.112-9.061-13.956 2.963z"/><path fill="#DFBCA4" d="m301.785 204.281 3.573-7.781 11.204 1.325 2.752-4.288-15.546-11.63-7.55 14.865 5.567 7.509z"/><path fill="#C3977A" d="m322.804 183.192 11.094 15.955-2.471 3.45-27.659-20.69 8.225.555 10.811.73z"/></g><g style="display:block"><path fill="#CCAC13" d="m135.158 91.897 54.462-13.203 56.718-16.646-.779-8.172-4.629-11.945-53.947 24.453-51.825 25.513z"/><path fill="#E4C728" d="M240.931 41.93 183.36 56.197 125.207 74.81l2.481 7.471 7.47 9.617L240.931 41.93z"/><path fill="#755700" d="m176.999 44.13-5.256 17.458 23.03-6.543-17.774-10.915zM240.932 41.93l9.21 3.078 10.04 7.306-11.706 18.498-2.581-5.27.445-3.495-5.408-20.117z"/><path fill="#CCAC13" d="m240.932 41.93-1.184-9.403 2.265-12.228 11.763 17.507 6.406 14.507-19.25-10.383z"/><path fill="#BE8F00" d="m242.012 20.299 30.932 19.252-12.762 12.762-18.17-32.014z"/><path fill="#856300" d="m240.932 41.93 1.081-21.631.649-11.896-4.206 4.419-18.193 19.118.546 15.707 20.123-5.717z"/><path fill="#BE8F00" d="m205.821 11.223-1.662 9.077 8.993 7.797 8.528 4.316 13.926-15.935-25.39-16.727-4.395 11.472z"/><path fill="#CCAC13" d="M221.68 32.412 204.159 20.3l-5.471 13.657-3.914 21.087 26.035-7.398.871-15.234z"/><path fill="#CCAC13" d="m174.741 18.568 19.394 2.113 10.024-.381 6.056-20.549-35.474 18.817z"/><path fill="#BE8F00" d="m204.16 20.299-29.418-1.73 6.232 14.056 13.8 22.42 9.386-34.746z"/><path fill="#755700" d="m119.998 99.094 22.329 4.941-3.493-7.842-3.676-4.296-7.411 1.788-7.749 5.409z"/><path fill="#CCAC13" d="m194.774 55.044-16.83-9.261-10.504-4.493-6.326-4.767 2.653-10.28 4.238-8.199 2.627-7.046 4.11 7.57 20.032 36.476z"/><path fill="#BE8F00" d="m161.115 36.523-9.69-3.077-9.67-7.63-2.049-10.057 28.3 2.286-6.891 18.478z"/><path fill="#856300" d="m161.115 36.523-19.36-10.708-9.734 12.979 6.527 12.681 10.954 16.432 8.996-19.605 2.617-11.779zM116.362 77.441l-4.396 25.467 23.192-11.011-9.95-17.088-4.228-.229-4.618 2.861z"/><path fill="#BE8F00" d="m132.021 38.793-8.776 10.017-3.121 7.505 10.457 4.599 18.921 6.993-17.481-29.114z"/><path fill="#CCAC13" d="m132.022 38.793-30.934 10.384 19.037 7.138 11.897-17.522z"/><path fill="#CCAC13" d="m120.124 56.314-17.089 25.092 22.172-6.597 24.294-6.902-29.377-11.593z"/><path fill="#BE8F00" d="m161.115 36.523-11.613 31.384 13.16 16.606 9.082-22.926 6.2-15.803-16.829-9.261z"/><path fill="#DFBCA4" d="m246.339 62.048 19.035 78.085-34.609 12.33-4.579 8.213-3.208 10.606-14.885 10.327-12.37 12.817-21.552-39.776-14.676-21.586-11.732-19.827-2.48-9.761-10.125-11.578 111.181-29.85z"/><path fill="#8A6651" d="m169.326 121.449-5.894-9.916-9.576 4.958 8.31 3.917 7.16 1.041z"/><path fill="#C3977A" d="m179.189 80.075 30.135 79.853 12.356-.058 1.299 11.412-27.256 23.144-18.856-31.939-2.125-6.787-3.48-2.706-11.767-19.931 18.193-10.807-5.974-11.324 9.949-5.84-12.755-22.256 10.281-2.761zM197.252 91.75l10.584-.069 12.114 16.44-2.319-19.377-6.715-9.829-13.664 12.835zM224.809 74.876l4.813 25.65 5.036-17.929 8.747-5.348-18.596-2.373z"/><path fill="#856300" d="m210.916 78.914-16.562 6.212 2.898 6.624 13.664-12.836zM224.809 74.875l17.054-4.692 1.542 7.066-18.596-2.374z"/><path fill="#755700" d="m216.746 126.349 13.413-9.091 14.379.969-11.502 8.609-16.29-.487z"/><path fill="#B58A00" d="m248.502 115.691-15.938 10.202-21.267.613 22.713 5.625 14.492-16.44z"/><path fill="#856300" d="m168.909 82.835 12.755 22.257-9.95 5.841-5.192-8.437-18.759 10.741-12.605-21.339 33.751-9.063z"/><path fill="#8A6651" d="m230.765 152.462-29.201 10.168 21.414 8.652 7.787-18.82zM177.581 128.358l-4.454 17.49-9.244-10.191 13.698-7.299zM191.215 141.141l-14.35 21.346-5.55-9.524 6.628-7.114 13.272-4.708z"/><path fill="#E8C9B6" d="m224.809 74.875-13.894 4.039 9.035 29.207 13.627-4.111-8.768-29.135z"/><path fill="#8A6651" d="m233.578 104.01-4.759 8.868-8.869-4.758 13.628-4.11z"/></g><g style="display:block"><path fill="#755700" d="m179.394 121.243 11.821 19.899-19.9 11.821-11.82-19.899 19.899-11.821zm-12.784 13.633 6.517 10.973 10.973-6.519-6.518-10.972-10.972 6.518z"/><path fill="#B58A00" d="m167.001 117.535-4.835 2.873 9.058 15.249 4.836-2.873-9.059-15.249z"/></g><g style="display:block"><path fill="#2B2B2B" d="M212.898 99.824a4.26 4.26 0 1 1-8.519.001 4.26 4.26 0 0 1 8.519-.001zM241.664 90.301a4.26 4.26 0 0 1-8.52 0 4.26 4.26 0 0 1 8.52 0z"/></g></g></svg>