<svg xmlns="http://www.w3.org/2000/svg" viewBox="0 0 400 400" width="400" height="400" style="width:100%;height:100%;transform:translate3d(0,0,0);content-visibility:visible"><defs><clipPath id="a"><path d="M0 0h400v400H0z"/></clipPath></defs><title>Logistician (ISTJ) personality</title><g clip-path="url(#a)"><g style="display:block"><path fill="#2B2B2B" d="m93.398 388.049 103.888-7.631 98.488 7.919L201.678 400l-108.28-11.951z" opacity=".1"/><path fill="#27788B" d="m184.182 387.688 22.102.288-.072-4.895-40.1-4.175 13.319 10.15 4.751-1.368z"/><path fill="#27788B" d="m155.744 380.921-7.919 5.831-.072 4.824 36.574.937-.144-4.825-28.439-6.767z"/><path fill="#4F5252" d="m193.902 273.362 7.704-2.952 25.702 1.799-20.807 52.412-22.175 18.791-15.838-2.881 1.008-41.18 24.406-25.989z"/><path fill="#6E7073" d="m206.501 324.621-16.056 39.021-8.999 3.529-12.959 3.959 11.519-40.317 26.495-6.192z"/><path fill="#308FA6" d="m190.446 363.642 15.767 19.438h-35.278l-.144-7.559 3.888-9.862 15.767-2.017z"/><path fill="#6E7073" d="m184.903 301.511-4.895 29.302-21.312 17.927-15.91-19.007-7.847-35.42 25.199-15.408 24.765 22.606z"/><path fill="#464646" d="m218.956 261.267 8.352 10.942-36.214 21.454-16.56-21.093 44.422-11.303z"/><path fill="#4F5252" d="m180.008 330.813-5.328 34.846-9.36 9.43-13.679-5.543-8.855-39.813 37.222 1.08z"/><path fill="#399FB9" d="m174.68 365.659 9.502 22.028-36.356-.935 3.815-17.205 23.039-3.888z"/><path fill="#464646" d="m184.902 301.511-47.156 6.101-2.938-13.812 9.879 1.52 40.215 6.191z"/></g><g style="display:block"><path fill="#DFBCA4" d="m216.363 7.056-30.957 6.336-17.927 7.774-15.335-5.182h-22.102l5.543 11.375 9.503 4.752-5.615 13.966 1.512 14.111 5.255 17.279 9.791 13.822-4.319.504-3.455 3.455-2.592-7.774-6.624-12.168-11.591 2.521-7.416 4.679 11.375 19.367 8.208 9.935.288 7.199 5.471 9.143 3.456 4.176-.503 4.464 14.182 8.783 22.175 8.855 6.12-6.263 2.88-7.56v-13.967l41.54-8.854-6.983-48.381 1.871-9.36-3.454-16.485-3.889-4.681-6.408-31.821z"/><path fill="#C3977A" d="m148.762 18.574 9.719 32.901 6.479 30.453 11.592 48.021 17.134-3.311-1.584 6.695 1.584 7.271-9 13.823-36.357-17.638-8.927-18.574-5.759-16.343 14.616-6.625-3.655-7.882-.991-7.222 6.011 2.218-8.638-22.175.073-13.246 4.03-14.831-8.207-6.336-6.84-9.79 11.952.648 6.768 1.943z"/><path fill="#8A6651" d="m133.643 101.872 14.614-6.625-8.856 22.968-5.4-9.433-.358-6.91zM193.686 126.637l-24.334 4.68 15.334 23.11 6.696-6.478 2.304-7.345v-13.967z"/><path fill="#C3977A" d="m170.432 73.434 1.296-13.607 13.174-3.168 6.408 14.039-26.35 11.232 27.43-2.809 5.255 4.68-7.487-38.444-22.75 12.095-2.519 8.422 5.543 7.56zM213.196 64.074l.288-11.807 11.951-3.887 3.383 1.799-.575 15.407-21.455 7.991.793 4.394 20.662-8.569 3.672-13.103-4.392-15.334-21.814 6.191 1.8 17.423 5.687-.505z"/><path fill="#8A6651" d="m197.646 83.801 6.263 4.608 4.463-6.48-10.726 1.872z"/><path fill="#E8C9B6" d="m191.886 52.844 10.439-2.305 6.047 31.39-10.727 1.872-5.759-30.957z"/><path fill="#27788B" d="m191.886 52.844-2.375-3.672.646-3.815 10.656-2.159 3.096 3.382-1.584 3.959-10.439 2.305z"/><path fill="#308FA6" d="m190.158 45.356-31.677 6.12 1.224 11.519 2.808 7.056 2.446 11.879 31.102-6.551-4.175-22.534-1.728-7.489zm-22.75 12.095 16.991-3.311 3.095 15.838-17.063 3.456-3.023-15.983zM200.813 43.196l31.029-6.047 5.761 30.31-30.815 6.118-4.463-23.038-1.512-7.343zm9.504 6.047 2.879 14.832 14.761-2.664-2.953-15.12-14.687 2.952z"/><path fill="#8A6651" d="m187.423 103.311 30.957-6.119.503 2.448-30.957 6.192-.503-2.521zM140.835 92.563l-6.328-12.074-6.48 2.952 12.808 9.122z"/><path fill="#DDDDDC" d="m157.616 0 3.96 12.815 5.903 8.351 48.885-14.109L157.616 0z"/><path fill="#C4C4C4" d="m130.043 15.983-12.743 6.12-3.097 25.198 14.543-4.175 16.343-11.015-15.046-16.128z"/><path fill="#DDDDDC" d="m114.204 47.3-5.759 42.98 19.006-12.455 14.976-13.966 2.662-31.749-30.885 15.19z"/><path fill="#9DA0A1" d="m143.434 65.731 8.907 18.071-7.737 3.564-5.922-12.779-16.271 8.639 10.872 18.071 6.118 16.918-30.38-28.437 8.496-6.768 25.917-17.279z"/><path fill="#C4C4C4" d="m157.616 0-27.573 15.983 37.436 5.183L157.616 0z"/><path fill="#27788B" d="m158.481 51.476-40.965 31.533 4.535 11.087.36-10.871 38.949-18.502-2.879-13.247z"/><path fill="#8A6651" d="m146.529 71.705 14.832-6.982.36 1.585.792 3.742-14.502 4.969-1.482-3.314z"/><path fill="#737373" d="m139.042 75.306 7.488-3.6 1.482 3.312-7.818 2.88-1.152-2.592z"/><path fill="#DDDDDC" d="m148.329 136.79-3.384 14.038 31.03 17.135 12.743 4.103 9.431-10.583 5.184-13.463-9.648-7.416-8.999 13.824-36.357-17.638z"/><path fill="#4F5252" d="m184.686 154.427-7.631 11.952 11.663 5.688 7.343-11.879-11.375-5.761z"/></g><g style="display:block"><path fill="#C4C4C4" d="m203.334 148.02 13.966 4.319-11.016 21.887-13.03 17.64-32.758-14.904-27.646-16.99 12.095-9.143 43.774 21.238 14.615-24.047z"/><path fill="#1C7678" d="m132.85 159.971 47.589 25.126 5.83 1.728 6.985 5.04-31.967 37.22-28.293-47.803-.144-21.311z"/><path fill="#1C7678" d="m193.254 191.864 2.591-7.127 5.76-6.624 15.694-25.774 15.047 34.269-9.863 25.701-14.471 17.75-8.639 10.113-9.719-24.046 3.6-24.262z"/><path fill="#737373" d="m188.719 172.066-8.281 13.032 12.817 6.768 8.351-13.752-12.887-6.048z"/><path fill="#369395" d="m222.484 212.31-23.111 27.862-1.223 8.064-3.888 25.126 33.262-1.153-5.04-59.899z"/></g><g style="display:block"><path fill="#8F8F8F" d="m130.763 180.922 62.491 10.943 13.246 2.304-7.11 46.009-5.128 33.184-4.464 28.87-76.026-11.591 16.991-109.719z"/><path fill="#6E7073" d="m194.262 273.362-77.25-3.096 2.088-13.895 49.891 4.679 10.728 5.112 6.912 1.727 7.631 5.473z"/></g><path fill="#71CACC" d="m14.903-46.723.792 68.683-31.39 24.764 5.759-79.049 24.839-14.398z" transform="translate(117.948 206.695)" style="display:block"/><path fill="#369395" d="M-5.525-18.754 28.42-6.659l3.384 1.798 5.111.793-3.095 22.822-5.256-2.087-5.111.359-60.368-9.468 31.39-26.312z" transform="translate(139.168 245.86)" style="display:block"/><path fill="#369395" d="m-14.831-29.986 29.662 44.709L4.032 24.37l-13.679 5.616-5.184-59.972z" transform="translate(232.13 182.325)" style="display:block"/><path fill="#71CACC" d="M-30.022 5.759-5.543-9.504l20.013-13.03 3.744-.144 3.025-4.248 8.783 7.559-1.944 10.439-.288 6.913-37.221 28.941-20.591-21.167z" transform="translate(252.505 206.551)" style="display:block"/><g style="display:block"><path fill="#2B2B2B" d="M182.886 61.412c0 1.799-1.512 3.167-3.168 3.167-1.799 0-3.24-1.368-3.24-3.167 0-1.801 1.441-3.169 3.24-3.169 1.656 0 3.168 1.368 3.168 3.169zM222.375 54.139c0 1.8-1.368 3.168-3.169 3.168-1.656 0-3.167-1.368-3.167-3.168 0-1.729 1.511-3.096 3.167-3.096 1.801 0 3.169 1.367 3.169 3.096z"/></g><g style="display:block"><path fill="#DDDDDC" d="m273.744 179.626 8.565 8.927 4.896 10.51-6.91 5.473-13.32-20.518 6.769-4.392z"/><path fill="#8F8F8F" d="m293.685 141.972 6.335-14.831 2.881 15.912-5.4 1.296-3.816-2.377z"/><path fill="#8A6651" d="m279.719 188.121 7.487 10.942 6.119-3.886-1.944-20.16-11.662 13.104z"/><path fill="#4F5252" d="m293.685 141.972 9.216 1.08-7.632 67.026-9.286-1.08 1.142-9.943 5.767-8.377-2.706-18.261 3.499-30.445z"/><path fill="#C3977A" d="m289.309 171.071 16.672 4.955-9.172 24.211-9.604-1.174 1.979-20.793.125-7.199z"/><path fill="#DFBCA4" d="m273.744 179.625 16.92-11.375 4.928 17.078-7.176.999-2.1-5.363-4.848 9.715-7.724-11.054z"/></g><g style="display:block"><path fill="#DDDDDC" d="m167.588 239.2 8.496 2.591-.216 10.584-2.88 12.239-10.368-1.728 4.968-23.686z"/><path fill="#C3977A" d="m176.083 241.792 11.789-5.221 11.395 4.302-.742 4.882h-8.87l-13.572-3.963z"/><path fill="#DFBCA4" d="m176.083 241.792 22.442 3.963 1.666 9.165 2.566 5.987-3.885 5.471-4.61 6.984-21.275-8.748 3.096-22.822z"/><path fill="#C3977A" d="m198.526 245.754-4.265 27.607 6.661-4.924 7.091-16.889-9.487-5.794z"/></g></g></svg>