<svg xmlns="http://www.w3.org/2000/svg" viewBox="0 0 400 400" width="400" height="400" style="width:100%;height:100%;transform:translate3d(0,0,0);content-visibility:visible"><defs><clipPath id="a"><path d="M0 0h400v400H0z"/></clipPath></defs><title>Virtuoso (ISTP) personality</title><g clip-path="url(#a)"><g style="display:block"><path fill="#4F5252" d="m104.68 120.653 10.519-5.102 13.873 28.606-10.245 5.174-14.147-28.678z"/><path fill="#858585" d="m134.68 111.518-45.23 21.936 1.878 24.856 52.789-24.614-9.437-22.178z"/><path fill="#6E7073" d="m91.329 158.31 13.352 1.954 48.462-21.451-5.917-6.59-5.43.155-50.467 25.932z"/><path fill="#4F5252" d="m149.846 186.989-20.774-42.832-10.246 5.173 20.5 42.761 10.52-5.102z"/><path fill="#6E7073" d="m134.68 111.517 5.371-.189h7.679l5.412 27.484-11.347-6.433-7.115-20.862z"/></g><g style="display:block"><path d="m90.92 390.888 90.197-14.329 136.781 8.447-117.79 14.996-109.188-9.114z" opacity=".1"/><path fill="#856300" d="m250.85 276.293-10.526 27.096-10.311 12.614-1.926 18.887-6.779 17.452-12.406 5.979-15.352 4.178 6.383-52.746 50.917-33.46z"/><path fill="#9E7700" d="m196.431 350.501 29.549-10.19-4.672 12.031-13.444 10.157H193.55v-5.074l2.881-6.924z"/><path fill="#755700" d="m221.308 352.341 23.032 26.33-27.477 3.168-30.435-3.168v-13.567l34.88-12.763z"/><path fill="#BB8F2C" d="M186.383 385.006h57.958v-6.335h-57.958v6.335z"/><path fill="#9E7700" d="m232.795 310.715-13.093-1.545-6.921 26.895 15.306-1.175 4.59-11.818.118-12.357z"/><path fill="#B58A00" d="m219.702 309.169 12.905 13.875 7.717-19.656-20.622 5.781z"/><path fill="#9E7700" d="m205.113 314.354-11.563 48.145-8.237 2.937-30.285 5.688-6.013-74.535 56.098 17.765z"/><path fill="#BE8F00" d="m250.85 276.293-45.737 38.062-56.097-17.765 31.28-8.062 70.554-12.235z"/><path fill="#856300" d="m193.549 362.499 6.559 22.502H154.4l.628-13.877 38.521-8.625z"/><path fill="#CCAC13" d="M154.4 391.336h45.708v-6.335H154.4v6.335z"/><path fill="#BE8F00" d="m196.431 350.501-42.59 5.902 1.188 14.72 38.521-8.625 2.881-11.997z"/></g><g style="display:block"><path fill="#E4C728" d="m161.373 156.09 47.641 11.162 28.588 79.067 6.907 14.281-78.127 4.339-18.364 5.007-1.001-14.69 14.356-99.166z"/><path fill="#BE8F00" d="m141.34 168.777 20.034-12.687 13.17 57.618-11.5.812-14.341-26.575-7.363-19.168zM147.016 255.256l56.067-38.452 30.058 12.081 12.153 32.536-78.555 5.482-18.722 3.043-1.001-14.69z"/></g><path fill="#2B2B2B" d="M3.937 2.2 22.28 13.423 48.17 15.4l-3.722-9.965L11.21-15.401-18.856-2.172-48.17 14.425 3.937 2.2z" transform="translate(195.186 240.831)" opacity=".2" style="display:block"/><g style="display:block"><path fill="#856300" d="m245.295 261.42-23.374 1.093-6.537 6.239-7.521-5.582-30.463 1.424.059 12.385 1.945 13.335 30.968-6.079 5.012-5.233 8.807 2.522 26.659-5.232-5.555-14.872z"/><path fill="#CCAC13" d="m207.864 263.171 2.506 21.065 13.82-2.711-2.268-19.011-14.058.657z"/></g><g style="display:block"><path fill="#DFBCA4" d="m244.437 61.536 3.051 37.489-2.643 35.889-29.319 8.753-14.014 15.086-22.041.592-18.098-3.254-11.792-27.614-9.529-17.15-9.58-20.109-4.166-32.034 30.419 10.94 42.739-3.941 9.87-14.376 11.941 10.761 23.162-1.032z"/><path fill="#C3977A" d="m166.378 70.388 4.733 37.384-8.068 5.898-8.643-3.985-3.711-15.029 7.679-.668-1.643-22.614 9.653-.986zM204.752 103.918 191.17 83.57l-24.792-13.182 36.204-7 2.17 40.53zM223.722 96.398l5.981-19.73 11.87-14.837-25.118-1.447 7.267 36.014z"/><path fill="#C3977A" d="m247.488 99.025-107.437 12.302 21.322 44.763 14.825 3.445 12.817 2.139 19.998 5.578 3.912-14.538 4.208-7.976 33.722-4.341-3.367-41.372z"/><path fill="#C3977A" d="m171.112 107.772 5.37 41.715 10.416 3.309 3.791 10.957-3.272 12.038-26.045-19.7-15.155-31.816-.724-6.164-5.442-6.783 14.349-1.643 16.712-1.913z"/><path fill="#2B2B2B" d="m171.112 107.771 5.37 41.715 10.416 3.309 3.791 10.957-3.272 12.038-26.044-19.7-15.155-31.816-.724-6.164-5.442-6.783 14.349-1.643 16.711-1.913z" opacity=".15"/><path fill="#8A6651" d="m217.133 144.738-45.954 5.403 16.237 25.649 21.597-8.538 8.12-22.514zM154.401 109.684l-8.184 14.59-6.166-12.947 14.35-1.643zM181.411 118.774l42.78 5.598-.438 3.34-42.78-5.598.438-3.34zM204.752 103.919l10.836 5.789 8.65-8.02-9.804.072-9.682 2.159z"/><path fill="#464646" d="m166.379 70.388 35.132 6.059-.976-9.55-13.607.178-20.549 3.313zM221.679 74.902l-1.119-10.906 9.199-2.376 11.813.211-19.893 13.071zM156.725 71.373l1.644 22.613-7.68.668-2.874-10.854-17.344 7.415-14.646-30.747 23.227.892 17.673 10.013z"/><path fill="#8A6651" d="m136.665 94.321 6.679-2.671 4.387 12.786-11.066-10.115z"/><path fill="#9E7700" d="m125.609 34.324-18.286-17.002-22.776 20.69 19.317-.144 21.745-3.544z"/><path fill="#BE8F00" d="M84.548 38.012 51.026 69.128 100.5 47.112l25.109-12.788-41.061 3.688z"/><path fill="#755700" d="m51.026 69.128 64.8-8.66 9.784-26.144-74.584 34.804z"/><path fill="#9E7700" d="m153.357 30.796-14.789.474-12.959 3.054-9.784 26.144 24.202-17.104 13.33-12.568z"/><path fill="#856300" d="m196.663 0-33.484 13.865-37.57 20.459 15.416-1.96 12.332-1.569 38.72-1.541 46.548-6.765L196.663 0z"/><path fill="#BE8F00" d="m136.997 4.811-11.388 29.513L196.663 0l-59.666 4.811z"/><path fill="#E4C728" d="M153.357 30.796 258.734 20.53l3.851 39.136-42.023 4.33-11.227-12.189-8.799 15.091-43.811 4.476-3.582-23.249.214-17.329z"/><path fill="#464646" d="m165.386 39.135 38.654-3.849-11.388 21.492-25.503 2.406-1.763-20.049zM250.402 30.742l-38.672 3.663 15.312 18.899 25.488-2.548-2.128-20.014z"/><path fill="#CCAC13" d="m156.725 71.374-40.9-10.906 37.531-29.672 3.369 40.578z"/><path fill="#E8C9B6" d="m209.334 51.806 11.226 12.189 3.679 37.692-19.487 2.231-4.08-37.036 8.662-15.076z"/></g><path fill="#2B2B2B" d="M4.779 0a4.779 4.779 0 1 1-9.557 0 4.779 4.779 0 0 1 9.557 0z" transform="translate(229.703 82.04)" style="display:block"/><path fill="#2B2B2B" d="M-7.859-2.639 8.244-.868l-.386 3.507L-8.244.869l.385-3.508z" transform="translate(186.638 84.847)" style="display:block"/><path fill="#CCAC13" d="m-7.846 22.454-17.362-35.726L3.505-27.964 25.208 17.78 13.604 27.964l-21.45-5.51z" transform="translate(137.835 196.741)" style="display:block"/><g style="display:block"><path fill="#E4C728" d="m175.397 241.232-28.381 14.023-17.029-36.059 33.056-4.675 11.353 12.332 1.001 14.379z"/><path fill="#DFBCA4" d="m199.771 208.178-36.729 6.344 12.354 26.711 31-15.802 1.467-8.627-8.092-8.626z"/></g><g style="display:block"><path fill="#CCAC13" d="m177.4 264.594-11.018.344 2.741 44.178 5.273 48.308 11.528-5.468-8.524-87.362zM135.552 292.261l10.128 12.371 20.702-39.694-29.248 8.233-15.56 4.533 13.978 14.557z"/><path fill="#4F5252" d="m131.135 240.163 6.531 3.212-3.766 12.856-7.594 5.19V250.67l4.829-10.507zM99.881 245.01l7.808.324 11.138 16.086-10.974 1.093-7.972-17.503z"/><path fill="#858585" d="m133.901 256.231 24.467 39.092-1.876 6.784-19.826-22.939-9.291-20.858 6.526-2.079z"/><path fill="#6E7073" d="m109.888 260.248 6.553-4.303 6.554-4.304-10.008-15.24 18.147 3.761-3.759 18.149 29.116 43.794-6.553 4.305-6.554 4.304-29.117-43.797-18.149-3.76 3.761-18.147 10.009 15.238z"/><path fill="#E4C728" d="m174.395 357.424-47.079-2.337-6.009-77.462 24.373 25.042 20.702-37.729 8.013 92.486z"/></g><g style="display:block"><path fill="#CCAC13" d="m240.386 192.181 8.515 4.12-4.867 11.885-10.892 20.699-.347-24.752 1.302-9.473 6.289-2.479z"/><path fill="#C3977A" d="m233.142 228.884 20.225-41.815 16.44-2.097 3.087 14.854-9.022 35.394-30.73-6.336z"/></g><g style="display:block"><path fill="#4F5252" d="m199.77 208.177 17.696 46.076 22.168-7.987-17.713-46.813-22.151 8.724z"/><path fill="#C3977A" d="m206.397 225.43 26.745 3.454-6.043-20.13-5.179-9.3-9.299.548-12.851 8.175 6.627 17.253z"/><path fill="#8A6651" d="m233.142 228.885 7.674-15.866-.43-20.837-9.319 1.071-9.146 6.201 11.221 29.431z"/><path fill="#6E7073" d="m187.417 175.789 86.143-34.057 7.051 15.543 5.636 16.845-86.476 34.057-12.354-32.388z"/><path fill="#4F5252" d="m273.559 141.733 14.024 7.346 3.349 5.96 1.325 5.725-6.01 13.357-12.688-32.388z"/><path fill="#464646" d="m287.584 149.079 12.303-4.922.207 6.924-2.378 7.487-5.458 2.197-4.674-11.686z"/><path fill="#6E7073" d="m299.887 144.157 10.158-4.063.493 6.206-2.66 8.177-10.162 4.091 2.171-14.411z"/><path fill="#464646" d="m310.045 140.093 10.017-4.006-.517 6.804-1.647 7.554-10.02 4.032 2.167-14.384z"/><path fill="#6E7073" d="m320.062 136.087 9.661-3.863-.142 6.512-2.018 7.818-9.665 3.89 2.164-14.357z"/><path fill="#464646" d="m329.723 132.224 9.607-3.844-.281 6.428-1.874 7.877-9.473 3.826 2.021-14.287z"/><path fill="#6E7073" d="m339.33 128.38 9.021-3.675-2.338 14.358-8.838 3.622 2.155-14.305z"/><path fill="#4F5252" d="m221.515 176.696-20.879 7.954-1.187-3.114 20.878-7.954 1.188 3.114zM223.653 182.307l-20.88 7.954-1.186-3.114 20.878-7.954 1.188 3.114zM225.791 187.919l-20.88 7.954-1.186-3.114 20.878-7.954 1.188 3.114z"/></g><g style="display:block"><path fill="#C3977A" d="m272.894 199.827 13.354-10.351v-15.355l-11.353 11.185-2.001 14.521z"/><path fill="#8A6651" d="m253.366 187.069 15.797-7.396 17.084-5.552-13.354 25.706-19.527-12.758z"/><path fill="#DFBCA4" d="m253.366 187.069 4.826-20.569 20.991-10.41 7.064 18.031-32.881 12.948z"/></g></g></svg>