<svg xmlns="http://www.w3.org/2000/svg" viewBox="0 0 640 512"><!--! Font Awesome Pro 6.2.0 by @fontawesome - https://fontawesome.com License - https://fontawesome.com/license (Commercial License) Copyright 2022 Fonticons, Inc. --><path d="M640 32c0-17.7-14.3-32-32-32s-32 14.3-32 32s14.3 32 32 32s32-14.3 32-32zM348.6 81.7c-7.9-15.8-27.1-22.2-42.9-14.3L320 96c-14.3-28.6-14.3-28.6-14.3-28.6l0 0-.1 0-.1 .1-.3 .2-.9 .5c-.7 .4-1.7 .9-2.8 1.6c-2.3 1.3-5.4 3.2-9.1 5.7c-7.3 4.9-17 12.2-26.9 22C245.9 116.9 224 148.5 224 192v96c0 .1 0 .2 0 .2V368c0 44.2 35.8 80 80 80s80-35.8 80-80V272c0-44.2-35.8-80-80-80c-5.5 0-10.8 .6-16 1.6V192c0-20.5 10.1-36.9 22.6-49.4c6.2-6.2 12.4-10.9 17.1-14c2.3-1.5 4.2-2.7 5.4-3.3c.6-.3 1-.6 1.2-.7l.1-.1 0 0c15.7-8 22-27.1 14.1-42.9zM32 64C14.3 64 0 78.3 0 96s14.3 32 32 32H96L38.4 204.8c-7.3 9.7-8.4 22.7-3 33.5S51.9 256 64 256H80c26.5 0 48 21.5 48 48v40c0 22.1-17.9 40-40 40c-10.6 0-17.3-4-21.7-7.9c-2.3-2.1-4-4.1-5-5.6c-.5-.7-.8-1.2-.9-1.4l0 0c-8.1-15.4-27-21.6-42.6-13.7C1.9 363.3-4.5 382.5 3.4 398.3L32 384C3.4 398.3 3.4 398.3 3.4 398.3l0 0 0 .1 .1 .1 .2 .3 .4 .7c.3 .6 .7 1.2 1.1 2c.9 1.6 2.2 3.6 3.8 5.9c3.2 4.6 8.1 10.5 14.7 16.4C37.3 436 58.6 448 88 448c57.4 0 104-46.6 104-104V304c0-47-29-87.3-70.1-103.9l63.7-84.9c7.3-9.7 8.4-22.7 3-33.5S172.1 64 160 64H32zm448 80c0-8.8 7.2-16 16-16s16 7.2 16 16V368c0 8.8-7.2 16-16 16s-16-7.2-16-16V144zm16-80c-44.2 0-80 35.8-80 80V368c0 44.2 35.8 80 80 80s80-35.8 80-80V144c0-44.2-35.8-80-80-80zM288 272c0-8.8 7.2-16 16-16s16 7.2 16 16v96c0 8.8-7.2 16-16 16s-16-7.2-16-16V272z"/></svg>