<svg xmlns="http://www.w3.org/2000/svg" viewBox="0 0 576 512"><!--! Font Awesome Pro 6.2.0 by @fontawesome - https://fontawesome.com License - https://fontawesome.com/license (Commercial License) Copyright 2022 Fonticons, Inc. --><path d="M47 147.5C37.5 132.6 32 115 32 96C32 43 75 0 128 0c25.2 0 48.1 9.7 65.3 25.6L47 147.5zM422.2 467.4C384.8 495.4 338.3 512 288 512s-96.8-16.6-134.1-44.6l-35.2 35.2c-12.5 12.5-32.8 12.5-45.3 0s-12.5-32.8 0-45.3l35.2-35.2C80.6 384.8 64 338.3 64 288C64 164.3 164.3 64 288 64s224 100.3 224 224c0 50.3-16.6 96.8-44.6 134.2l35.2 35.2c12.5 12.5 12.5 32.8 0 45.3s-32.8 12.5-45.3 0l-35.2-35.2zM384 25.6C401.1 9.7 424.1 0 449.3 0c53 0 96 43 96 96c0 19-5.5 36.6-15 51.5L384 25.6zM320 384c0-17.7-14.3-32-32-32s-32 14.3-32 32s14.3 32 32 32s32-14.3 32-32zm-8-200c0-13.3-10.7-24-24-24s-24 10.7-24 24V296c0 13.3 10.7 24 24 24s24-10.7 24-24V184z"/></svg>