<svg xmlns="http://www.w3.org/2000/svg" viewBox="0 0 576 512"><!--! Font Awesome Pro 6.2.0 by @fontawesome - https://fontawesome.com License - https://fontawesome.com/license (Commercial License) Copyright 2022 Fonticons, Inc. --><path d="M193.3 25.6C176.1 9.7 153.2 0 128 0C75 0 32 43 32 96c0 19 5.5 36.6 15 51.5L193.3 25.6zM288 512c50.3 0 96.8-16.6 134.2-44.6l35.2 35.2c12.5 12.5 32.8 12.5 45.3 0s12.5-32.8 0-45.3l-35.2-35.2c28-37.4 44.6-83.8 44.6-134.2C512 164.3 411.7 64 288 64S64 164.3 64 288c0 50.3 16.6 96.8 44.6 134.2L73.4 457.4c-12.5 12.5-12.5 32.8 0 45.3s32.8 12.5 45.3 0l35.2-35.2c37.4 28 83.8 44.6 134.1 44.6zM530.3 147.5c9.5-14.9 15-32.6 15-51.5c0-53-43-96-96-96C424.1 0 401.1 9.7 384 25.6L530.3 147.5zM232 192H344c9.2 0 17.5 5.2 21.6 13.5s3 18-2.6 25.3L281.1 336H344c13.3 0 24 10.7 24 24s-10.7 24-24 24H232c-9.2 0-17.5-5.2-21.6-13.5s-3-18 2.6-25.3L294.9 240H232c-13.3 0-24-10.7-24-24s10.7-24 24-24z"/></svg>