<svg xmlns="http://www.w3.org/2000/svg" viewBox="0 0 640 512"><!--! Font Awesome Pro 6.2.0 by @fontawesome - https://fontawesome.com License - https://fontawesome.com/license (Commercial License) Copyright 2022 Fonticons, Inc. --><path d="M32 24c0 13.3 10.7 24 24 24H456c13.3 0 24-10.7 24-24s-10.7-24-24-24H56C42.7 0 32 10.7 32 24zM48 160c-13.8 0-26.9 5.9-36 16.2S-1.3 200.3 .4 214l32 256c3 24 23.4 42 47.6 42H394.8c-18.9-13.3-35.1-30.3-47.5-49.9c-26.9 11.4-58 17.9-91.3 17.9C154.4 480 72 419.1 72 344s82.4-136 184-136c45.4 0 86.9 12.1 119 32.2c31.5-29.9 74.2-48.2 121-48.2c4.5 0 9 .2 13.4 .5c-2-5.9-5.2-11.5-9.4-16.3c-9.1-10.3-22.2-16.2-36-16.2H48zM256 376c17.7 0 32-10.7 32-24s-14.3-24-32-24s-32 10.7-32 24s14.3 24 32 24zM40 80c-13.3 0-24 10.7-24 24s10.7 24 24 24H472c13.3 0 24-10.7 24-24s-10.7-24-24-24H40zM640 368c0-79.5-64.5-144-144-144s-144 64.5-144 144s64.5 144 144 144s144-64.5 144-144zm-66.3 80.7C553.5 468.1 526.2 480 496 480s-57.5-11.9-77.7-31.3c6.2-19 24-32.7 45.1-32.7h65.2c21 0 38.9 13.7 45.1 32.7zM544 336c0 26.5-21.5 48-48 48s-48-21.5-48-48s21.5-48 48-48s48 21.5 48 48z"/></svg>