<svg xmlns="http://www.w3.org/2000/svg" viewBox="0 0 576 512"><!--! Font Awesome Pro 6.2.0 by @fontawesome - https://fontawesome.com License - https://fontawesome.com/license (Commercial License) Copyright 2022 Fonticons, Inc. --><path d="M96 48c0-8.8 7.2-16 16-16h32c8.8 0 16 7.2 16 16V64h48c8.8 0 16 7.2 16 16v48H352V80c0-8.8 7.2-16 16-16h48V48c0-8.8 7.2-16 16-16h32c8.8 0 16 7.2 16 16V80c0 8.8-7.2 16-16 16H416v32 32h48c8.8 0 16 7.2 16 16v48h32V144c0-8.8 7.2-16 16-16h32c8.8 0 16 7.2 16 16V272c0 8.8-7.2 16-16 16H512v80c0 8.8-7.2 16-16 16H448v80c0 8.8-7.2 16-16 16H384 336c-8.8 0-16-7.2-16-16V432c0-8.8 7.2-16 16-16h48V384H192v32h48c8.8 0 16 7.2 16 16v32c0 8.8-7.2 16-16 16H192 144c-8.8 0-16-7.2-16-16V384H80c-8.8 0-16-7.2-16-16V288H16c-8.8 0-16-7.2-16-16V144c0-8.8 7.2-16 16-16H48c8.8 0 16 7.2 16 16v80H96V176c0-8.8 7.2-16 16-16h48V128 96H112c-8.8 0-16-7.2-16-16V48zm64 192v64c0 8.8 7.2 16 16 16h32c8.8 0 16-7.2 16-16V240c0-8.8-7.2-16-16-16H176c-8.8 0-16 7.2-16 16zm192 0v64c0 8.8 7.2 16 16 16h32c8.8 0 16-7.2 16-16V240c0-8.8-7.2-16-16-16H368c-8.8 0-16 7.2-16 16z"/></svg>