<svg xmlns="http://www.w3.org/2000/svg" viewBox="0 0 512 512"><!--! Font Awesome Pro 6.2.0 by @fontawesome - https://fontawesome.com License - https://fontawesome.com/license (Commercial License) Copyright 2022 Fonticons, Inc. --><path d="M279.6 373.6l88-96c11.9-13 11.1-33.3-2-45.2s-33.3-11.1-45.2 2L288 269.7V32c0-17.7-14.3-32-32-32s-32 14.3-32 32V269.7l-32.4-35.4c-11.9-13-32.2-13.9-45.2-2s-13.9 32.2-2 45.2l88 96C238.5 380.2 247 384 256 384s17.5-3.8 23.6-10.4zM80 64C35.8 64 0 99.8 0 144V432c0 44.2 35.8 80 80 80H432c44.2 0 80-35.8 80-80V144c0-44.2-35.8-80-80-80H400c-17.7 0-32 14.3-32 32s14.3 32 32 32h32c8.8 0 16 7.2 16 16V432c0 8.8-7.2 16-16 16H80c-8.8 0-16-7.2-16-16V144c0-8.8 7.2-16 16-16h32c17.7 0 32-14.3 32-32s-14.3-32-32-32H80z"/></svg>