<svg xmlns="http://www.w3.org/2000/svg" viewBox="0 0 640 512"><!--! Font Awesome Pro 6.2.0 by @fontawesome - https://fontawesome.com License - https://fontawesome.com/license (Commercial License) Copyright 2022 Fonticons, Inc. --><path d="M150.6 73.4c-12.5-12.5-32.8-12.5-45.3 0l-96 96c-12.5 12.5-12.5 32.8 0 45.3s32.8 12.5 45.3 0L96 173.3V320c0 53 43 96 96 96H304c17.7 0 32-14.3 32-32s-14.3-32-32-32H192c-17.7 0-32-14.3-32-32V173.3l41.4 41.4c12.5 12.5 32.8 12.5 45.3 0s12.5-32.8 0-45.3l-96-96zM336 96c-17.7 0-32 14.3-32 32s14.3 32 32 32H448c17.7 0 32 14.3 32 32V338.7l-41.4-41.4c-12.5-12.5-32.8-12.5-45.3 0s-12.5 32.8 0 45.3l96 96c12.5 12.5 32.8 12.5 45.3 0l96-96c12.5-12.5 12.5-32.8 0-45.3s-32.8-12.5-45.3 0L544 338.7V192c0-53-43-96-96-96H336z"/></svg>