<svg xmlns="http://www.w3.org/2000/svg" viewBox="0 0 448 512"><!--! Font Awesome Pro 6.2.0 by @fontawesome - https://fontawesome.com License - https://fontawesome.com/license (Commercial License) Copyright 2022 Fonticons, Inc. --><path d="M288 32c-17.7 0-32 14.3-32 32s14.3 32 32 32h50.7L9.4 425.4c-12.5 12.5-12.5 32.8 0 45.3s32.8 12.5 45.3 0L384 141.3V192c0 17.7 14.3 32 32 32s32-14.3 32-32V64c0-17.7-14.3-32-32-32H288zM54.6 41.4c-12.5-12.5-32.8-12.5-45.3 0S-3.1 74.1 9.4 86.6L156.1 233.4l45.3-45.3L54.6 41.4zM338.7 416H288c-17.7 0-32 14.3-32 32s14.3 32 32 32H416c17.7 0 32-14.3 32-32V320c0-17.7-14.3-32-32-32s-32 14.3-32 32v50.7l-92.1-92.1-45.3 45.3L338.7 416z"/></svg>