<svg xmlns="http://www.w3.org/2000/svg" viewBox="0 0 448 512"><!--! Font Awesome Pro 6.2.0 by @fontawesome - https://fontawesome.com License - https://fontawesome.com/license (Commercial License) Copyright 2022 Fonticons, Inc. --><path d="M288 32c-17.7 0-32 14.3-32 32s14.3 32 32 32h50.7L224 210.7 109.3 96H160c17.7 0 32-14.3 32-32s-14.3-32-32-32H32C14.3 32 0 46.3 0 64V192c0 17.7 14.3 32 32 32s32-14.3 32-32V141.3L178.7 256 64 370.7V320c0-17.7-14.3-32-32-32s-32 14.3-32 32V448c0 17.7 14.3 32 32 32H160c17.7 0 32-14.3 32-32s-14.3-32-32-32H109.3L224 301.3 338.7 416H288c-17.7 0-32 14.3-32 32s14.3 32 32 32H416c17.7 0 32-14.3 32-32V320c0-17.7-14.3-32-32-32s-32 14.3-32 32v50.7L269.3 256 384 141.3V192c0 17.7 14.3 32 32 32s32-14.3 32-32V64c0-17.7-14.3-32-32-32H288z"/></svg>