<svg xmlns="http://www.w3.org/2000/svg" viewBox="0 0 640 512"><!--! Font Awesome Pro 6.2.0 by @fontawesome - https://fontawesome.com License - https://fontawesome.com/license (Commercial License) Copyright 2022 Fonticons, Inc. --><path d="M0 96C0 78.3 14.3 64 32 64s32 14.3 32 32V416c0 17.7-14.3 32-32 32s-32-14.3-32-32V96zm265.4 9.4c12.5-12.5 32.8-12.5 45.3 0s12.5 32.8 0 45.3L237.3 224H608c17.7 0 32 14.3 32 32s-14.3 32-32 32H237.3l73.4 73.4c12.5 12.5 12.5 32.8 0 45.3s-32.8 12.5-45.3 0l-128-128c-12.5-12.5-12.5-32.8 0-45.3l128-128z"/></svg>