<svg xmlns="http://www.w3.org/2000/svg" viewBox="0 0 512 512"><!--! Font Awesome Pro 6.2.0 by @fontawesome - https://fontawesome.com License - https://fontawesome.com/license (Commercial License) Copyright 2022 Fonticons, Inc. --><path d="M128 32c9 0 17.5 3.8 23.6 10.4l88 96c11.9 13 11.1 33.3-2 45.2s-33.3 11.1-45.2-2L160 146.3V448c0 17.7-14.3 32-32 32s-32-14.3-32-32V146.3L63.6 181.6c-11.9 13-32.2 13.9-45.2 2s-13.9-32.2-2-45.2l88-96C110.5 35.8 119 32 128 32zM288 64c0-17.7 14.3-32 32-32h96c17.7 0 32 14.3 32 32v96c0 17.7-14.3 32-32 32H320c-17.7 0-32-14.3-32-32V64zm32 192H480c17.7 0 32 14.3 32 32V448c0 17.7-14.3 32-32 32H320c-17.7 0-32-14.3-32-32V288c0-17.7 14.3-32 32-32z"/></svg>