<svg xmlns="http://www.w3.org/2000/svg" viewBox="0 0 640 512"><!--! Font Awesome Pro 6.2.0 by @fontawesome - https://fontawesome.com License - https://fontawesome.com/license (Commercial License) Copyright 2022 Fonticons, Inc. --><path d="M640 96c0-17.7-14.3-32-32-32s-32 14.3-32 32V416c0 17.7 14.3 32 32 32s32-14.3 32-32V96zm-265.4 9.4c-12.5-12.5-32.8-12.5-45.3 0s-12.5 32.8 0 45.3L402.7 224H32c-17.7 0-32 14.3-32 32s14.3 32 32 32H402.7l-73.4 73.4c-12.5 12.5-12.5 32.8 0 45.3s32.8 12.5 45.3 0l128-128c12.5-12.5 12.5-32.8 0-45.3l-128-128z"/></svg>