<svg xmlns="http://www.w3.org/2000/svg" viewBox="0 0 512 512"><!--! Font Awesome Pro 6.2.0 by @fontawesome - https://fontawesome.com License - https://fontawesome.com/license (Commercial License) Copyright 2022 Fonticons, Inc. --><path d="M9.4 9.4C21.9-3.1 42.1-3.1 54.6 9.4L160 114.7V64c0-17.7 14.3-32 32-32s32 14.3 32 32V192c0 17.7-14.3 32-32 32H64c-17.7 0-32-14.3-32-32s14.3-32 32-32h50.7L9.4 54.6C-3.1 42.1-3.1 21.9 9.4 9.4zm448 0c12.5-12.5 32.8-12.5 45.3 0s12.5 32.8 0 45.3L397.3 160H448c17.7 0 32 14.3 32 32s-14.3 32-32 32H320c-17.7 0-32-14.3-32-32V64c0-17.7 14.3-32 32-32s32 14.3 32 32v50.7L457.4 9.4zM32 320c0-17.7 14.3-32 32-32H192c17.7 0 32 14.3 32 32V448c0 17.7-14.3 32-32 32s-32-14.3-32-32V397.3L54.6 502.6c-12.5 12.5-32.8 12.5-45.3 0s-12.5-32.8 0-45.3L114.7 352H64c-17.7 0-32-14.3-32-32zm256 0c0-17.7 14.3-32 32-32H448c17.7 0 32 14.3 32 32s-14.3 32-32 32H397.3L502.6 457.4c12.5 12.5 12.5 32.8 0 45.3s-32.8 12.5-45.3 0L352 397.3V448c0 17.7-14.3 32-32 32s-32-14.3-32-32V320z"/></svg>