<svg xmlns="http://www.w3.org/2000/svg" viewBox="0 0 448 512"><!--! Font Awesome Pro 6.2.0 by @fontawesome - https://fontawesome.com License - https://fontawesome.com/license (Commercial License) Copyright 2022 Fonticons, Inc. --><path d="M32 32C14.3 32 0 46.3 0 64S14.3 96 32 96s32-14.3 32-32s-14.3-32-32-32zm96 0c-17.7 0-32 14.3-32 32s14.3 32 32 32s32-14.3 32-32s-14.3-32-32-32zm64 32c0 17.7 14.3 32 32 32s32-14.3 32-32s-14.3-32-32-32s-32 14.3-32 32zM320 32c-17.7 0-32 14.3-32 32s14.3 32 32 32s32-14.3 32-32s-14.3-32-32-32zm64 32c0 17.7 14.3 32 32 32s32-14.3 32-32s-14.3-32-32-32s-32 14.3-32 32zm-9.4 233.4l-128-128c-12.5-12.5-32.8-12.5-45.3 0l-128 128c-12.5 12.5-12.5 32.8 0 45.3s32.8 12.5 45.3 0L192 269.3V336 448c0 17.7 14.3 32 32 32s32-14.3 32-32V336 269.3l73.4 73.4c12.5 12.5 32.8 12.5 45.3 0s12.5-32.8 0-45.3z"/></svg>