<svg xmlns="http://www.w3.org/2000/svg" viewBox="0 0 512 512"><!--! Font Awesome Pro 6.2.0 by @fontawesome - https://fontawesome.com License - https://fontawesome.com/license (Commercial License) Copyright 2022 Fonticons, Inc. --><path d="M151.6 469.6C145.5 476.2 137 480 128 480s-17.5-3.8-23.6-10.4l-88-96c-11.9-13-11.1-33.3 2-45.2s33.3-11.1 45.2 2L96 365.7V64c0-17.7 14.3-32 32-32s32 14.3 32 32V365.7l32.4-35.4c11.9-13 32.2-13.9 45.2-2s13.9 32.2 2 45.2l-88 96zM411.1 47l80 128c6.2 9.9 6.5 22.3 .9 32.5s-16.4 16.5-28 16.5H304c-11.6 0-22.3-6.3-28-16.5s-5.3-22.6 .9-32.5l80-128c5.8-9.4 16.1-15 27.1-15s21.3 5.7 27.1 15zM288 320c0-17.7 14.3-32 32-32H448c17.7 0 32 14.3 32 32V448c0 17.7-14.3 32-32 32H320c-17.7 0-32-14.3-32-32V320z"/></svg>