<svg xmlns="http://www.w3.org/2000/svg" viewBox="0 0 384 512"><!--! Font Awesome Pro 6.2.0 by @fontawesome - https://fontawesome.com License - https://fontawesome.com/license (Commercial License) Copyright 2022 Fonticons, Inc. --><path d="M174.8 4.8c10.6-6.4 23.8-6.4 34.4 0l16.4 10c5.4 3.3 11.6 5 18 4.8l19.2-.5c12.4-.3 23.8 6.3 29.8 17.2l9.2 16.8c3 5.6 7.6 10.1 13.1 13.1l16.8 9.2c10.8 5.9 17.5 17.4 17.2 29.8l-.5 19.2c-.1 6.3 1.5 12.6 4.8 18l10 16.4c6.4 10.6 6.4 23.8 0 34.4l-10 16.4c-3.3 5.4-5 11.6-4.8 18l.5 19.2c.3 12.4-6.3 23.8-17.2 29.8l-16.8 9.2c-5.6 3-10.1 7.6-13.1 13.1l-9.2 16.8c-5.9 10.8-17.4 17.5-29.8 17.2l-19.2-.5c-6.3-.1-12.6 1.5-18 4.8l-16.4 10c-10.6 6.4-23.8 6.4-34.4 0l-16.4-10c-5.4-3.3-11.6-5-18-4.8l-19.2 .5c-12.4 .3-23.8-6.3-29.8-17.2l-9.2-16.8c-3-5.6-7.6-10.1-13.1-13.1l-16.8-9.2c-10.8-5.9-17.5-17.4-17.2-29.8l.5-19.2c.1-6.3-1.5-12.6-4.8-18l-10-16.4c-6.4-10.6-6.4-23.8 0-34.4l10-16.4c3.3-5.4 5-11.6 4.8-18l-.5-19.2c-.3-12.4 6.3-23.8 17.2-29.8l16.8-9.2c5.6-3 10.1-7.6 13.1-13.1l9.2-16.8c5.9-10.8 17.4-17.5 29.8-17.2l19.2 .5c6.3 .1 12.6-1.5 18-4.8l16.4-10zM272 176c0-44.2-35.8-80-80-80s-80 35.8-80 80s35.8 80 80 80s80-35.8 80-80zM64.4 492.4L95 359.7c8.4 3.6 17.6 5.4 27 5.2l19.2-.5c.2 0 .4 0 .6 .2l16.4 10c20.8 12.7 46.9 12.7 67.7 0l16.4-10c.2-.1 .4-.2 .6-.2l19.2 .5c9.4 .2 18.6-1.6 27-5.2l30.6 132.8c1.4 5.9-.7 12-5.3 15.9s-11 4.8-16.6 2.4L192 465.4 86.3 510.7c-5.5 2.4-11.9 1.4-16.6-2.4s-6.7-10-5.3-15.9z"/></svg>