<svg xmlns="http://www.w3.org/2000/svg" viewBox="0 0 640 512"><!--! Font Awesome Pro 6.2.0 by @fontawesome - https://fontawesome.com License - https://fontawesome.com/license (Commercial License) Copyright 2022 Fonticons, Inc. --><path d="M381 64c-36 0-76.4 15.8-108.8 48.2S224 184.9 224 221c0 28.2 9.6 53.2 27.7 71.3c40.4 40.4 120.7 38.9 180.1-20.5C464.2 239.4 480 199.1 480 163c0-28.2-9.6-53.2-27.7-71.3S409.1 64 381 64zm-154 2.9C270.5 23.4 326.8 0 381 0c42.8 0 84.9 14.8 116.6 46.5S544 120.2 544 163c0 54.2-23.4 110.5-66.9 154c-54.4 54.4-131.9 78.7-198.2 61.7c-29.4-7.5-62.9-5.5-84.3 16L180.3 409c6.4 12.1 4.5 27.4-5.6 37.6l-56 56c-12.5 12.5-32.8 12.5-45.3 0l-32-32c-12.5-12.5-12.5-32.8 0-45.3l56-56c10.2-10.2 25.5-12.1 37.6-5.6l14.5-14.5c21.4-21.4 23.5-54.7 16-84C161.8 250.9 160 236 160 221c0-54.2 23.4-110.5 66.9-154zM496 400c0-26.5 21.5-48 48-48s48 21.5 48 48v32H496V400zm-15.3 91.4l13-43.4h33.4l-15.8 52.6c-2.5 8.5-11.5 13.3-19.9 10.7s-13.3-11.5-10.7-19.9zM528 496V448h32v48c0 8.8-7.2 16-16 16s-16-7.2-16-16zm48.7 4.6L560.9 448h33.4l13 43.4c2.5 8.5-2.3 17.4-10.7 19.9s-17.4-2.3-19.9-10.7z"/></svg>