<svg xmlns="http://www.w3.org/2000/svg" viewBox="0 0 576 512"><!--! Font Awesome Pro 6.2.0 by @fontawesome - https://fontawesome.com License - https://fontawesome.com/license (Commercial License) Copyright 2022 Fonticons, Inc. --><path d="M176 96v64h96V96c0-26.5-21.5-48-48-48s-48 21.5-48 48zm-48 64V96c0-53 43-96 96-96s96 43 96 96v64h64c35.3 0 64 28.7 64 64H240c-44.2 0-80 35.8-80 80V464c0 5.5 .6 10.8 1.6 16H64c-35.3 0-64-28.7-64-64V224c0-35.3 28.7-64 64-64h64zm128 96H512c35.3 0 64 28.7 64 64V448c0 35.3-28.7 64-64 64H256c-35.3 0-64-28.7-64-64V320c0-35.3 28.7-64 64-64zm64 80c0-8.8-7.2-16-16-16s-16 7.2-16 16v16c0 53 43 96 96 96s96-43 96-96V336c0-8.8-7.2-16-16-16s-16 7.2-16 16v16c0 35.3-28.7 64-64 64s-64-28.7-64-64V336z"/></svg>