<svg xmlns="http://www.w3.org/2000/svg" viewBox="0 0 576 512"><!--! Font Awesome Pro 6.2.0 by @fontawesome - https://fontawesome.com License - https://fontawesome.com/license (Commercial License) Copyright 2022 Fonticons, Inc. --><path d="M243.1 2.7c11.8 6.1 16.3 20.6 10.2 32.4L171.7 192H404.3L322.7 35.1c-6.1-11.8-1.5-26.3 10.2-32.4s26.2-1.5 32.4 10.2L458.4 192H544c17.7 0 32 14.3 32 32s-14.3 32-32 32L492.1 463.5C485 492 459.4 512 430 512H146c-29.4 0-55-20-62.1-48.5L32 256c-17.7 0-32-14.3-32-32s14.3-32 32-32h85.6L210.7 12.9c6.1-11.8 20.6-16.3 32.4-10.2zM144 296c13.3 0 24-10.7 24-24s-10.7-24-24-24s-24 10.7-24 24s10.7 24 24 24zm312-24c0-13.3-10.7-24-24-24s-24 10.7-24 24s10.7 24 24 24s24-10.7 24-24z"/></svg>