<svg xmlns="http://www.w3.org/2000/svg" viewBox="0 0 576 512"><!--! Font Awesome Pro 6.2.0 by @fontawesome - https://fontawesome.com License - https://fontawesome.com/license (Commercial License) Copyright 2022 Fonticons, Inc. --><path d="M365.7 160c6.6-22.2-1.1-46.6-20.1-60.8c-1.5-1.2-3.1-2.2-4.7-3.2H464c44.2 0 80 35.8 80 80v16c17.7 0 32 14.3 32 32v64c0 17.7-14.3 32-32 32v16c0 44.2-35.8 80-80 80H244.9c2.3-1.4 4.6-3 6.7-4.8L323.5 352H464c8.8 0 16-7.2 16-16V176c0-8.8-7.2-16-16-16H365.7zM80 416c-44.2 0-80-35.8-80-80V176c0-44.2 35.8-80 80-80H283.1c-2.3 1.4-4.6 3-6.7 4.8L204.5 160H80c-8.8 0-16 7.2-16 16V336c0 8.8 7.2 16 16 16h82.3c-6.6 22.2 1.1 46.6 20.1 60.8c1.5 1.2 3.1 2.2 4.7 3.2H80zM321.6 131.2c5.9 4.4 8 12.3 5.1 19.1L288.3 240H352c6.8 0 12.8 4.2 15.1 10.6s.3 13.5-4.9 17.8l-136 112c-5.7 4.7-13.9 4.9-19.8 .4s-8-12.3-5.1-19.1L239.7 272H176c-6.8 0-12.8-4.2-15.1-10.6s-.3-13.5 4.9-17.8l136-112c5.7-4.7 13.9-4.9 19.8-.4z"/></svg>