<svg xmlns="http://www.w3.org/2000/svg" viewBox="0 0 576 512"><!--! Font Awesome Pro 6.2.0 by @fontawesome - https://fontawesome.com License - https://fontawesome.com/license (Commercial License) Copyright 2022 Fonticons, Inc. --><path d="M208 96v64H80c-8.8 0-16 7.2-16 16V336c0 8.8 7.2 16 16 16H198.7c-4.3 9.8-6.7 20.6-6.7 32s2.4 22.2 6.7 32H80c-44.2 0-80-35.8-80-80V176c0-44.2 35.8-80 80-80H208zM464 416H345.3c4.3-9.8 6.7-20.6 6.7-32s-2.4-22.2-6.7-32H464c8.8 0 16-7.2 16-16V176c0-8.8-7.2-16-16-16H336V96H464c44.2 0 80 35.8 80 80v16c17.7 0 32 14.3 32 32v64c0 17.7-14.3 32-32 32v16c0 44.2-35.8 80-80 80zM272 96c13.3 0 24 10.7 24 24V296c0 13.3-10.7 24-24 24s-24-10.7-24-24V120c0-13.3 10.7-24 24-24zm32 288c0 17.7-14.3 32-32 32s-32-14.3-32-32s14.3-32 32-32s32 14.3 32 32z"/></svg>