<svg xmlns="http://www.w3.org/2000/svg" viewBox="0 0 576 512"><!--! Font Awesome Pro 6.2.0 by @fontawesome - https://fontawesome.com License - https://fontawesome.com/license (Commercial License) Copyright 2022 Fonticons, Inc. --><path d="M64 32C64 14.3 49.7 0 32 0S0 14.3 0 32V480c0 17.7 14.3 32 32 32s32-14.3 32-32V448H256 512v32c0 17.7 14.3 32 32 32s32-14.3 32-32V448 416 288 256 192 160 112C576 50.1 525.9 0 464 0H256c-17.7 0-32 14.3-32 32v96H64V32zM512 256H256c-17.7 0-32 14.3-32 32v96H64V192H256 512v64zM192 304c0-26.5-21.5-48-48-48s-48 21.5-48 48s21.5 48 48 48s48-21.5 48-48zM144 96c26.5 0 48-21.5 48-48s-21.5-48-48-48S96 21.5 96 48s21.5 48 48 48z"/></svg>