<svg xmlns="http://www.w3.org/2000/svg" viewBox="0 0 512 512"><!--! Font Awesome Pro 6.2.0 by @fontawesome - https://fontawesome.com License - https://fontawesome.com/license (Commercial License) Copyright 2022 Fonticons, Inc. --><path d="M208 288c-44.2 0-80-35.8-80-80s35.8-80 80-80s80 35.8 80 80s-35.8 80-80 80zm0 128c114.9 0 208-93.1 208-208S322.9 0 208 0S0 93.1 0 208S93.1 416 208 416zm48-208c0-26.5-21.5-48-48-48s-48 21.5-48 48s21.5 48 48 48s48-21.5 48-48zM208 448c-54 0-103.9-17.9-144-48v64c0 26.5 21.5 48 48 48H320h32 40c43.4 0 80.1-28.8 92-68.3c16.6-7.6 28-24.3 28-43.7c0-26.5-21.5-48-48-48s-48 21.5-48 48c0 15.5 7.3 29.2 18.7 38c-8 15.4-24.1 26-42.7 26H352V400c-40.1 30.1-90 48-144 48z"/></svg>