<svg xmlns="http://www.w3.org/2000/svg" viewBox="0 0 384 512"><!--! Font Awesome Pro 6.2.0 by @fontawesome - https://fontawesome.com License - https://fontawesome.com/license (Commercial License) Copyright 2022 Fonticons, Inc. --><path d="M336 32c0-10.3-4.9-19.9-13.3-26s-19.1-7.7-28.8-4.4l-48 16c-16.8 5.6-25.8 23.7-20.2 40.5s23.7 25.8 40.5 20.2l5.9-2V160H256c-17.7 0-32 14.3-32 32s14.3 32 32 32h48 48c17.7 0 32-14.3 32-32s-14.3-32-32-32H336V32zM112 320c0-10.3-4.9-19.9-13.3-26s-19.1-7.7-28.8-4.4l-48 16C5.1 311.2-3.9 329.4 1.6 346.1s23.7 25.8 40.5 20.2l5.9-2V448H32c-17.7 0-32 14.3-32 32s14.3 32 32 32H80h48c17.7 0 32-14.3 32-32s-14.3-32-32-32H112V320zM0 64v96c0 35.3 28.7 64 64 64h64c35.3 0 64-28.7 64-64V64c0-35.3-28.7-64-64-64H64C28.7 0 0 28.7 0 64zm128 0v96H64V64h64zM256 288c-35.3 0-64 28.7-64 64v96c0 35.3 28.7 64 64 64h64c35.3 0 64-28.7 64-64V352c0-35.3-28.7-64-64-64H256zm0 64h64v96H256V352z"/></svg>