<svg xmlns="http://www.w3.org/2000/svg" viewBox="0 0 640 512"><!--! Font Awesome Pro 6.2.0 by @fontawesome - https://fontawesome.com License - https://fontawesome.com/license (Commercial License) Copyright 2022 Fonticons, Inc. --><path d="M322.7 6c8.3 6 13.3 15.7 13.3 26V160h16c17.7 0 32 14.3 32 32s-14.3 32-32 32H304 256c-17.7 0-32-14.3-32-32s14.3-32 32-32h16V76.4l-5.9 2c-16.8 5.6-34.9-3.5-40.5-20.2s3.5-34.9 20.2-40.5l48-16C303.6-1.6 314.4 0 322.7 6zM98.7 294c8.3 6 13.3 15.7 13.3 26V448h16c17.7 0 32 14.3 32 32s-14.3 32-32 32H80 32c-17.7 0-32-14.3-32-32s14.3-32 32-32H48V364.4l-5.9 2c-16.8 5.6-34.9-3.5-40.5-20.2s3.5-34.9 20.2-40.5l48-16c9.8-3.3 20.5-1.6 28.8 4.4zM64 0h64c35.3 0 64 28.7 64 64v96c0 35.3-28.7 64-64 64H64c-35.3 0-64-28.7-64-64V64C0 28.7 28.7 0 64 0zm0 64v96h64V64H64zM192 352c0-35.3 28.7-64 64-64h64c6.2 0 12.2 .9 17.9 2.5c-11.2 22.9-17.6 48.6-17.9 75.7V352H256v96h64v0h19.2c7.8 15.3 17.8 29.3 29.5 41.5C357 503.3 339.5 512 320 512H256c-35.3 0-64-28.7-64-64V352zm128.7 32H320V369.8c0 4.8 .3 9.5 .7 14.2zM640 368c0 79.5-64.5 144-144 144s-144-64.5-144-144s64.5-144 144-144s144 64.5 144 144zm-76.7-43.3c-6.2-6.2-16.4-6.2-22.6 0L480 385.4l-28.7-28.7c-6.2-6.2-16.4-6.2-22.6 0s-6.2 16.4 0 22.6l40 40c6.2 6.2 16.4 6.2 22.6 0l72-72c6.2-6.2 6.2-16.4 0-22.6z"/></svg>