<svg xmlns="http://www.w3.org/2000/svg" viewBox="0 0 640 512"><!--! Font Awesome Pro 6.2.0 by @fontawesome - https://fontawesome.com License - https://fontawesome.com/license (Commercial License) Copyright 2022 Fonticons, Inc. --><path d="M0 128V352c0 70.7 57.3 128 128 128H337.6c-16.5-18.6-29.6-40.3-38.1-64H128c-35.3 0-64-28.7-64-64s28.7-64 64-64H301.8c6.3-15.5 14.4-30.8 23.3-45.3c21.7-35.2 51.9-71.2 87.3-102.8c10-8.9 23-12.8 35.5-11.7V128c0-53-43-96-96-96H96C43 32 0 75 0 128zM288 350.1c0-9.8 1.3-19.9 3.6-30.1H128c-17.7 0-32 14.3-32 32s14.3 32 32 32H291c-2-11.1-3-22.4-3-33.9zM453.5 163.8c-2.8-2.5-6.3-3.7-9.8-3.8c-3.6 0-7.2 1.2-10 3.7c-33.2 29.7-61.4 63.4-81.4 95.8c-19.7 31.9-32.4 66.2-32.4 92.6C320 439.9 390.3 512 480 512c88.7 0 160-72 160-159.8c0-20.2-9.6-50.9-24.2-79c-14.8-28.5-35.7-58.5-60.4-81.1c-5.6-5.1-14.4-5.2-20 0c-9.6 8.8-18.6 19.6-26.5 29.5c-17.3-20.7-35.8-39.9-55.5-57.7zM530 433c-15 10-31 15-49 15c-45 0-81-29-81-78c0-24 15-45 45-82c4 5 62 79 62 79l36-42c3 4 5 8 7 12c18 33 10 75-20 96z"/></svg>