<svg xmlns="http://www.w3.org/2000/svg" viewBox="0 0 512 512"><!--! Font Awesome Pro 6.2.0 by @fontawesome - https://fontawesome.com License - https://fontawesome.com/license (Commercial License) Copyright 2022 Fonticons, Inc. --><path d="M32 0C14.3 0 0 14.3 0 32C0 43.4 6 53.4 15 59.1L1.1 100.8c-.7 2.1-1.1 4.3-1.1 6.5C0 118.8 9.2 128 20.6 128H128V64h32v64H491.4c11.4 0 20.6-9.2 20.6-20.6c0-2.2-.4-4.4-1.1-6.5L497 59.1c9-5.7 15-15.7 15-27.1c0-17.7-14.3-32-32-32H32zM24 160L1.1 228.8c-.7 2.1-1.1 4.3-1.1 6.5C0 246.8 9.2 256 20.6 256H98.7c4.8-13.6 15.6-24.4 29.3-29.3V160H24zM144 320c-20.9 0-38.7-13.4-45.3-32H24L1.1 356.8c-.7 2.1-1.1 4.3-1.1 6.5C0 374.8 9.2 384 20.6 384H491.4c11.4 0 20.6-9.2 20.6-20.6c0-2.2-.4-4.4-1.1-6.5L488 288H189.3c-6.6 18.6-24.4 32-45.3 32zm16-93.3c13.6 4.8 24.4 15.6 29.3 29.3H491.4c11.4 0 20.6-9.2 20.6-20.6c0-2.2-.4-4.4-1.1-6.5L488 160H160v66.7zM20.6 512H491.4c11.4 0 20.6-9.2 20.6-20.6c0-2.2-.4-4.4-1.1-6.5L488 416H24L1.1 484.8c-.7 2.1-1.1 4.3-1.1 6.5C0 502.8 9.2 512 20.6 512z"/></svg>