<svg xmlns="http://www.w3.org/2000/svg" viewBox="0 0 512 512"><!--! Font Awesome Pro 6.2.0 by @fontawesome - https://fontawesome.com License - https://fontawesome.com/license (Commercial License) Copyright 2022 Fonticons, Inc. --><path d="M0 32C0 14.3 14.3 0 32 0H480c17.7 0 32 14.3 32 32s-14.3 32-32 32H160v64 64 66.7c13.6 4.8 24.4 15.6 29.3 29.3c.1 .3 .2 .7 .4 1c1.5 4.7 2.4 9.7 2.4 15c0 26.5-21.5 48-48 48s-48-21.5-48-48c0-5.6 1-11 2.7-16c4.8-13.6 15.6-24.4 29.3-29.3V192 128 64H32C14.3 64 0 49.7 0 32zm47.4 96H96v64H17.8C8 192 0 184 0 174.2c0-4 1.4-7.9 3.9-11.1L22.4 140c6.1-7.6 15.3-12 25-12zm0 160H65.6c-1 5.2-1.6 10.5-1.6 16c0 18 6 34.6 16 48H17.8C8 352 0 344 0 334.2c0-4 1.4-7.9 3.9-11.1L22.4 300c6.1-7.6 15.3-12 25-12zm446.9 64H208c10-13.4 16-30 16-48c0-5.5-.6-10.8-1.6-16H464.6c9.7 0 18.9 4.4 25 12l18.5 23.1c2.5 3.2 3.9 7.1 3.9 11.1c0 9.8-8 17.8-17.8 17.8zm0-160H192V128H464.6c9.7 0 18.9 4.4 25 12l18.5 23.1c2.5 3.2 3.9 7.1 3.9 11.1c0 9.8-8 17.8-17.8 17.8zM17.8 512C8 512 0 504 0 494.2c0-4 1.4-7.9 3.9-11.1L22.4 460c6.1-7.6 15.3-12 25-12H464.6c9.7 0 18.9 4.4 25 12l18.5 23.1c2.5 3.2 3.9 7.1 3.9 11.1c0 9.8-8 17.8-17.8 17.8H17.8z"/></svg>