<svg xmlns="http://www.w3.org/2000/svg" viewBox="0 0 640 512"><!--! Font Awesome Pro 6.2.0 by @fontawesome - https://fontawesome.com License - https://fontawesome.com/license (Commercial License) Copyright 2022 Fonticons, Inc. --><path d="M128 32v80H384V32H128zM96 112V32C60.7 32 32 60.7 32 96v16H96zM32 144v96H240V144H32zm0 224H96V272H32v96zm0 32v16c0 35.3 28.7 64 64 64H240V400H32zm240 0v80h65.6c-20.2-22.6-35.1-50-43.1-80H272zM480 144h-.6l.6 .6V144zm-208 0v96h54.9c20.6-32.8 48.5-66.2 81-96H272zM128 272v96H288.8c-.5-5.9-.8-11.9-.8-17.9c0-25.4 8.5-52.4 21-78.1H128zM480 112V96c0-35.3-28.7-64-64-64v80h64zm-26.5 51.8c-2.8-2.5-6.3-3.7-9.8-3.8c-3.6 0-7.2 1.2-10 3.7c-33.2 29.7-61.4 63.4-81.4 95.8c-19.7 31.9-32.4 66.2-32.4 92.6C320 439.9 390.3 512 480 512c88.7 0 160-72 160-159.8c0-20.2-9.6-50.9-24.2-79c-14.8-28.5-35.7-58.5-60.4-81.1c-5.6-5.1-14.4-5.2-20 0c-9.6 8.8-18.6 19.6-26.5 29.5c-17.3-20.7-35.8-39.9-55.5-57.7zM530 433c-15 10-31 15-49 15c-45 0-81-29-81-78c0-24 15-45 45-82c4 5 62 79 62 79l36-42c3 4 5 8 7 12c18 33 10 75-20 96z"/></svg>