<svg xmlns="http://www.w3.org/2000/svg" viewBox="0 0 448 512"><!--! Font Awesome Pro 6.2.0 by @fontawesome - https://fontawesome.com License - https://fontawesome.com/license (Commercial License) Copyright 2022 Fonticons, Inc. --><path d="M32 64C14.3 64 0 78.3 0 96s14.3 32 32 32H416c17.7 0 32-14.3 32-32s-14.3-32-32-32H32zM160 224c-17.7 0-32 14.3-32 32s14.3 32 32 32H416c17.7 0 32-14.3 32-32s-14.3-32-32-32H160zM128 416c0 17.7 14.3 32 32 32H416c17.7 0 32-14.3 32-32s-14.3-32-32-32H160c-17.7 0-32 14.3-32 32zM32 224c-17.7 0-32 14.3-32 32V416c0 17.7 14.3 32 32 32s32-14.3 32-32V256c0-17.7-14.3-32-32-32z"/></svg>