<svg xmlns="http://www.w3.org/2000/svg" viewBox="0 0 512 512"><!--! Font Awesome Pro 6.2.0 by @fontawesome - https://fontawesome.com License - https://fontawesome.com/license (Commercial License) Copyright 2022 Fonticons, Inc. --><path d="M512 176C512 78.8 433.2 0 336 0C255.4 0 187.4 54.2 166.6 128.2c3.1-.1 6.3-.2 9.4-.2c114.9 0 208 93.1 208 208c0 3.2-.1 6.3-.2 9.4C457.8 324.6 512 256.6 512 176zM176 512c97.2 0 176-78.8 176-176s-78.8-176-176-176S0 238.8 0 336s78.8 176 176 176zm0-304c8.8 0 16 7.2 16 16v32h32c8.8 0 16 7.2 16 16s-7.2 16-16 16H192v32c0 8.8-7.2 16-16 16s-16-7.2-16-16V288H128c-8.8 0-16-7.2-16-16s7.2-16 16-16h32V224c0-8.8 7.2-16 16-16zM384 64V96h32c8.8 0 16 7.2 16 16s-7.2 16-16 16H384v32c0 8.8-7.2 16-16 16s-16-7.2-16-16V128H320c-8.8 0-16-7.2-16-16s7.2-16 16-16h32V64c0-8.8 7.2-16 16-16s16 7.2 16 16z"/></svg>