<svg xmlns="http://www.w3.org/2000/svg" viewBox="0 0 448 512"><!--! Font Awesome Pro 6.2.0 by @fontawesome - https://fontawesome.com License - https://fontawesome.com/license (Commercial License) Copyright 2022 Fonticons, Inc. --><path d="M0 96C0 43 43 0 96 0H384h32c17.7 0 32 14.3 32 32V352c0 17.7-14.3 32-32 32v64c17.7 0 32 14.3 32 32s-14.3 32-32 32H384 96c-53 0-96-43-96-96V96zM64 416c0 17.7 14.3 32 32 32H352V384H96c-17.7 0-32 14.3-32 32zm64-258.7c0 16.2 6.5 31.8 17.9 43.3l82.7 82.7c6.2 6.2 16.4 6.2 22.6 0l82.7-82.7c11.5-11.5 17.9-27.1 17.9-43.3c0-33.8-27.4-61.3-61.3-61.3c-16.2 0-31.8 6.5-43.3 17.9l-7.4 7.4-7.4-7.4C221.1 102.5 205.5 96 189.3 96c-33.8 0-61.3 27.4-61.3 61.3z"/></svg>