<svg xmlns="http://www.w3.org/2000/svg" viewBox="0 0 448 512"><!--! Font Awesome Pro 6.2.0 by @fontawesome - https://fontawesome.com License - https://fontawesome.com/license (Commercial License) Copyright 2022 Fonticons, Inc. --><path d="M0 96C0 43 43 0 96 0H384h32c17.7 0 32 14.3 32 32V352c0 17.7-14.3 32-32 32v64c17.7 0 32 14.3 32 32s-14.3 32-32 32H384 96c-53 0-96-43-96-96V96zM64 416c0 17.7 14.3 32 32 32H352V384H96c-17.7 0-32 14.3-32 32zM254.3 72.8c-2.7-5.4-8.2-8.8-14.3-8.8s-11.6 3.4-14.3 8.8l-64 128-32 64c-4 7.9-.7 17.5 7.2 21.5s17.5 .7 21.5-7.2L185.9 224H294.1l27.6 55.2c4 7.9 13.6 11.1 21.5 7.2s11.1-13.6 7.2-21.5l-32-64-64-128zM240 115.8L278.1 192H201.9L240 115.8z"/></svg>