<svg xmlns="http://www.w3.org/2000/svg" viewBox="0 0 512 512"><!--! Font Awesome Pro 6.2.0 by @fontawesome - https://fontawesome.com License - https://fontawesome.com/license (Commercial License) Copyright 2022 Fonticons, Inc. --><path d="M0 32C0 14.3 14.3 0 32 0H96c17.7 0 32 14.3 32 32V96H0V32zm0 96H128V384H0V128zM0 416H128v64c0 17.7-14.3 32-32 32H32c-17.7 0-32-14.3-32-32V416zM160 32c0-17.7 14.3-32 32-32h64c17.7 0 32 14.3 32 32V96H160V32zm0 96H288V384H160V128zm0 288H288v64c0 17.7-14.3 32-32 32H192c-17.7 0-32-14.3-32-32V416zm203.6-19.9L320 232.6V142.8l100.4-26.9 66 247.4L363.6 396.1zM412.2 85L320 109.6V11l36.9-9.9c16.9-4.6 34.4 5.5 38.9 22.6L412.2 85zM371.8 427l122.8-32.9 16.3 61.1c4.5 17-5.5 34.5-22.5 39.1l-61.4 16.5c-16.9 4.6-34.4-5.5-38.9-22.6L371.8 427z"/></svg>