<svg xmlns="http://www.w3.org/2000/svg" viewBox="0 0 576 512"><!--! Font Awesome Pro 6.2.0 by @fontawesome - https://fontawesome.com License - https://fontawesome.com/license (Commercial License) Copyright 2022 Fonticons, Inc. --><path d="M160 96L96 96C43 96 0 139 0 192V416c0 53 43 96 96 96H320h32c17.7 0 32-14.3 32-32s-14.3-32-32-32H320 288 96c-17.7 0-32-14.3-32-32s14.3-32 32-32h81.1c-10.9-18.8-17.1-40.7-17.1-64V96zM320 416h32H512h32c17.7 0 32-14.3 32-32s-14.3-32-32-32V288c17.7 0 32-14.3 32-32V32c0-17.7-14.3-32-32-32H512 288c-53 0-96 43-96 96V320c0 24.6 9.2 47 24.4 64c17.6 19.6 43.1 32 71.6 32h32zm-64-96c0-17.7 14.3-32 32-32h96 96v64H384 288c-17.7 0-32-14.3-32-32z"/></svg>