<svg xmlns="http://www.w3.org/2000/svg" viewBox="0 0 512 512"><!--! Font Awesome Pro 6.2.0 by @fontawesome - https://fontawesome.com License - https://fontawesome.com/license (Commercial License) Copyright 2022 Fonticons, Inc. --><path d="M64 0C28.7 0 0 28.7 0 64V480c0 17.7 14.3 32 32 32s32-14.3 32-32V64l64 0V0H64zM512 64c0-35.3-28.7-64-64-64H352 256 160V400c0 26.5 21.5 48 48 48s48-21.5 48-48c0 26.5 21.5 48 48 48s48-21.5 48-48c0 26.5 21.5 48 48 48s48-21.5 48-48v80c0 17.7 14.3 32 32 32s32-14.3 32-32V64z"/></svg>