<svg xmlns="http://www.w3.org/2000/svg" viewBox="0 0 512 512"><!--! Font Awesome Pro 6.2.0 by @fontawesome - https://fontawesome.com License - https://fontawesome.com/license (Commercial License) Copyright 2022 Fonticons, Inc. --><path d="M13.1 93.6L64 84V56c0-13.3 10.7-24 24-24s24 10.7 24 24V75v35.5 30V176v48h32V176 139.5v-34V69 40c0-13.3 10.7-24 24-24s24 10.7 24 24V60 98v40 38 48h32H478.4c18.2 0 32.7 15.3 31.6 33.5c-5.4 91.7-59.7 169.7-136.4 209.7l-1.2 9.7c-2.5 20-19.5 35-39.7 35H179.3c-20.2 0-37.2-15-39.7-35l-1.2-9.7C61.6 427.2 7.4 349.3 2 257.5C.9 239.3 15.4 224 33.6 224H64V176H16.2C7.3 176 0 168.7 0 159.7c0-8.8 7-16 15.7-16.2L64 142V118l-45.5 7.1C8.8 126.6 0 119.1 0 109.3C0 101.6 5.5 95 13.1 93.6zM488.4 176H224V137l263.6-8.2C501 128.3 512 139 512 152.4c0 13-10.6 23.6-23.6 23.6zm3.9-124.9L224 93V54L484.4 5.2C498.7 2.5 512 13.5 512 28.1c0 11.5-8.4 21.2-19.7 23z"/></svg>