<svg xmlns="http://www.w3.org/2000/svg" viewBox="0 0 640 512"><!--! Font Awesome Pro 6.2.0 by @fontawesome - https://fontawesome.com License - https://fontawesome.com/license (Commercial License) Copyright 2022 Fonticons, Inc. --><path d="M448 64c0-35.3 28.7-64 64-64s64 28.7 64 64v1.1c0 7.4-1 14.8-3 22l-17.7 64.8c-.7 2.7-1.3 5.4-1.8 8.1H470.5c-.5-2.7-1.1-5.4-1.8-8.1L450.9 87.1c-2-7.2-2.9-14.6-2.9-22V64zm22.8 128h82.3c1 6.3 2.6 12.4 4.8 18.4L598 319.3c6.6 17.9 10 36.8 10 55.8c0 20.5-3.9 40.9-11.5 59.9l-22.7 56.9C568.9 504 557.1 512 544 512H480c-13.1 0-24.9-8-29.7-20.1l-17.8-44.5c29.8-40 47.5-89.6 47.5-143.4c0-30.7-5.8-60.1-16.3-87.1l2.4-6.5c2.2-6 3.8-12.1 4.8-18.4zM448 304c0 114.9-93.1 208-208 208S32 418.9 32 304S125.1 96 240 96s208 93.1 208 208zM256 172c0-15.5-12.5-28-28-28s-28 12.5-28 28s12.5 28 28 28s28-12.5 28-28zM228 288c15.5 0 28-12.5 28-28s-12.5-28-28-28s-28 12.5-28 28s12.5 28 28 28zm-44-68c0-15.5-12.5-28-28-28s-28 12.5-28 28s12.5 28 28 28s28-12.5 28-28z"/></svg>