<svg xmlns="http://www.w3.org/2000/svg" viewBox="0 0 512 512"><!--! Font Awesome Pro 6.2.0 by @fontawesome - https://fontawesome.com License - https://fontawesome.com/license (Commercial License) Copyright 2022 Fonticons, Inc. --><path d="M112 192C50.1 192 0 149 0 96S50.1 0 112 0c48.8 0 90.3 26.7 105.6 64H480c17.7 0 32 14.3 32 32s-14.3 32-32 32H217.6c-15.4 37.3-56.9 64-105.6 64zM2 257.5C.9 239.3 15.4 224 33.6 224H478.4c18.2 0 32.7 15.3 31.6 33.5c-5.4 91.7-59.7 169.7-136.4 209.7l-1.2 9.7c-2.5 20-19.5 35-39.7 35H179.3c-20.2 0-37.2-15-39.7-35l-1.2-9.7C61.6 427.2 7.4 349.3 2 257.5z"/></svg>