<svg xmlns="http://www.w3.org/2000/svg" viewBox="0 0 448 512"><!--! Font Awesome Pro 6.2.0 by @fontawesome - https://fontawesome.com License - https://fontawesome.com/license (Commercial License) Copyright 2022 Fonticons, Inc. --><path d="M225.2 9.9c2.5-6 8.3-9.9 14.8-9.9h36.6C335.9 0 384 48.1 384 107.4c0 19.9-6.9 38.1-18.3 52.6H384c35.3 0 64 28.7 64 64s-28.7 64-64 64H64c-35.3 0-64-28.7-64-64s28.7-64 64-64h8.6c-5.4-9.4-8.6-20.3-8.6-32c0-35.3 28.7-64 64-64h94.1C232 64 240 56 240 46.1c0-4.8-1.9-9.3-5.3-12.7l-6.1-6.1c-4.6-4.6-5.9-11.5-3.5-17.4zM32 320H416c8.8 0 16 7.2 16 16v8c0 57.4-46.6 104-104 104H297.9l20.4 40.8c1.1 2.3 1.7 4.7 1.7 7.2c0 2.9-.8 5.8-2.4 8.4c-2.9 4.7-8.1 7.6-13.6 7.6H144c-5.5 0-10.7-2.9-13.6-7.6c-1.6-2.6-2.4-5.5-2.4-8.4c0-2.4 .6-4.9 1.7-7.2L150.1 448H120C62.6 448 16 401.4 16 344v-8c0-8.8 7.2-16 16-16z"/></svg>