<svg xmlns="http://www.w3.org/2000/svg" viewBox="0 0 448 512"><!--! Font Awesome Pro 6.2.0 by @fontawesome - https://fontawesome.com License - https://fontawesome.com/license (Commercial License) Copyright 2022 Fonticons, Inc. --><path d="M93.7 32H208V160H0L50.7 58.5C58.9 42.3 75.5 32 93.7 32zM240 32H354.3c18.2 0 34.8 10.3 42.9 26.5L448 160H240V32zM0 192H448V416c0 35.3-28.7 64-64 64H64c-35.3 0-64-28.7-64-64V192zM321 297c9.4-9.4 9.4-24.6 0-33.9s-24.6-9.4-33.9 0l-95 95-39-39c-9.4-9.4-24.6-9.4-33.9 0s-9.4 24.6 0 33.9l56 56c9.4 9.4 24.6 9.4 33.9 0L321 297z"/></svg>