<svg xmlns="http://www.w3.org/2000/svg" viewBox="0 0 576 512"><!--! Font Awesome Pro 6.2.0 by @fontawesome - https://fontawesome.com License - https://fontawesome.com/license (Commercial License) Copyright 2022 Fonticons, Inc. --><path d="M93.7 32H208V160H0L50.7 58.5C58.9 42.3 75.5 32 93.7 32zM240 32H354.3c18.2 0 34.8 10.3 42.9 26.5L448 160H416 240V32zM0 416V192H416v.7c-89.7 8.1-160 83.5-160 175.3c0 42.5 15.1 81.6 40.2 112H64c-35.3 0-64-28.7-64-64zm576-48c0 79.5-64.5 144-144 144s-144-64.5-144-144s64.5-144 144-144s144 64.5 144 144zm-76.7-43.3c-6.2-6.2-16.4-6.2-22.6 0L416 385.4l-28.7-28.7c-6.2-6.2-16.4-6.2-22.6 0s-6.2 16.4 0 22.6l40 40c6.2 6.2 16.4 6.2 22.6 0l72-72c6.2-6.2 6.2-16.4 0-22.6z"/></svg>