<svg xmlns="http://www.w3.org/2000/svg" viewBox="0 0 448 512"><!--! Font Awesome Pro 6.2.0 by @fontawesome - https://fontawesome.com License - https://fontawesome.com/license (Commercial License) Copyright 2022 Fonticons, Inc. --><path d="M93.7 32H208V160H0L50.7 58.5C58.9 42.3 75.5 32 93.7 32zM240 32H354.3c18.2 0 34.8 10.3 42.9 26.5L448 160H240V32zM0 192H448V416c0 35.3-28.7 64-64 64H64c-35.3 0-64-28.7-64-64V192zM212.7 420.7c6.2 6.2 16.4 6.2 22.6 0l77.3-77.3c20.5-20.5 20.5-53.8 0-74.3s-53.8-20.5-74.3 0L224 283.4l-14.3-14.3c-20.5-20.5-53.8-20.5-74.3 0s-20.5 53.8 0 74.3l77.3 77.3z"/></svg>