<svg xmlns="http://www.w3.org/2000/svg" viewBox="0 0 448 512"><!--! Font Awesome Pro 6.2.0 by @fontawesome - https://fontawesome.com License - https://fontawesome.com/license (Commercial License) Copyright 2022 Fonticons, Inc. --><path d="M416 32c17.7 0 32 14.3 32 32V448c0 17.7-14.3 32-32 32H320c-17.7 0-32-14.3-32-32s14.3-32 32-32h64V96H320c-17.7 0-32-14.3-32-32s14.3-32 32-32h96zM32 32h96c17.7 0 32 14.3 32 32s-14.3 32-32 32H64V416h64c17.7 0 32 14.3 32 32s-14.3 32-32 32H32c-17.7 0-32-14.3-32-32V64C0 46.3 14.3 32 32 32z"/></svg>