<svg xmlns="http://www.w3.org/2000/svg" viewBox="0 0 512 512"><!--! Font Awesome Pro 6.2.0 by @fontawesome - https://fontawesome.com License - https://fontawesome.com/license (Commercial License) Copyright 2022 Fonticons, Inc. --><path d="M224 80V32c0-17.7 14.3-32 32-32s32 14.3 32 32V80c0 17.7-14.3 32-32 32s-32-14.3-32-32zM352 256c0 53-43 96-96 96s-96-43-96-96s43-96 96-96s96 43 96 96zM0 256c0-17.7 14.3-32 32-32H80c17.7 0 32 14.3 32 32s-14.3 32-32 32H32c-17.7 0-32-14.3-32-32zm432-32h48c17.7 0 32 14.3 32 32s-14.3 32-32 32H432c-17.7 0-32-14.3-32-32s14.3-32 32-32zM256 512c-17.7 0-32-14.3-32-32V432c0-17.7 14.3-32 32-32s32 14.3 32 32v48c0 17.7-14.3 32-32 32zM73.4 438.6c-12.5-12.5-12.5-32.8 0-45.3l32-32c12.5-12.5 32.8-12.5 45.3 0s12.5 32.8 0 45.3l-32 32c-12.5 12.5-32.8 12.5-45.3 0zm288-333.3l32-32c12.5-12.5 32.8-12.5 45.3 0s12.5 32.8 0 45.3l-32 32c-12.5 12.5-32.8 12.5-45.3 0s-12.5-32.8 0-45.3zm77.3 333.3c-12.5 12.5-32.8 12.5-45.3 0l-32-32c-12.5-12.5-12.5-32.8 0-45.3s32.8-12.5 45.3 0l32 32c12.5 12.5 12.5 32.8 0 45.3zm-333.3-288l-32-32c-12.5-12.5-12.5-32.8 0-45.3s32.8-12.5 45.3 0l32 32c12.5 12.5 12.5 32.8 0 45.3s-32.8 12.5-45.3 0z"/></svg>