<svg xmlns="http://www.w3.org/2000/svg" viewBox="0 0 640 512"><!--! Font Awesome Pro 6.2.0 by @fontawesome - https://fontawesome.com License - https://fontawesome.com/license (Commercial License) Copyright 2022 Fonticons, Inc. --><path d="M183.2 1.7c-5-2.5-10.8-2.2-15.6 .7S160 10.5 160 16V206.7l0 0v63.2c9.2 1.4 19.8 2.2 32 2.2s22.8-.8 32-2.2V31.8c-.1-6-3.5-11.4-8.8-14.1l-32-16zM128 14.7l-.2-1.3c-.8-5-4-9.3-8.5-11.6s-9.9-2.3-14.4-.1l-32 16c-6.3 3.1-9.8 10-8.6 16.9l32 192c.5 1.2 .9 2.3 1.2 3.4c2 6.3 6.7 15.9 18.7 24.3c3.2 2.2 7.1 4.5 11.8 6.6V14.7zM40.3 85.6L19.9 80.5c-5.3-1.3-10.8 .1-14.8 3.8S-.7 93.4 .2 98.8l16.5 93.4c1.6-.1 3.1-.2 4.7-.2H48c3.6 0 7 .4 10.2 1L40.3 85.6zM383.8 98.8c.9-5.3-.9-10.8-4.8-14.5s-9.5-5.1-14.8-3.8L346.2 85l-19 107.8c2-.3 4-.6 6.1-.7c11-6.5 23.3-12.3 37.1-17.2l13.4-76.1zM276.3 337.2c-11.8-10.4-19.5-25.3-20.2-42.1c-16.6 5.4-37.6 8.8-64.1 8.8c-91.7 0-117.7-41-125.1-64.3C64.3 231.2 56.8 224 48 224H21.4C9.6 224 0 233.6 0 245.4c0 1.7 .2 3.4 .6 5.1l57.5 237C61.5 501.9 74.4 512 89.2 512h179c-7.7-11.4-12.1-25.2-12.1-40v-8c0-14.7 6.6-27.8 17-36.6c-10.5-11.4-17-26.6-17-43.4c0-18.5 7.8-35.1 20.3-46.8zm-8.5-82.9c.8-.6 1.6-1.1 2.4-1.7c4.1-6.6 9.4-14 16.1-21.6c.1-.3 .2-.6 .3-.9c.7-2.3 1.7-4.7 2.8-7L319.8 50.8c.9-5.3-.9-10.8-4.8-14.5s-9.5-5.1-14.8-3.8l-32 8C262 42 257.3 47 256.2 53.2l-.2 1.4V261c4.8-2.1 8.7-4.4 11.8-6.6zM640 292.5c0-3-.5-5.9-1.7-8.6C630.2 265.5 590 192 464 192s-166.2 73.5-174.3 91.9c-1.2 2.7-1.7 5.7-1.7 8.6c0 15.2 12.3 27.5 27.5 27.5H612.5c15.2 0 27.5-12.3 27.5-27.5zM384 272c-8.8 0-16-7.2-16-16s7.2-16 16-16s16 7.2 16 16s-7.2 16-16 16zm96-32c0 8.8-7.2 16-16 16s-16-7.2-16-16s7.2-16 16-16s16 7.2 16 16zm64 32c-8.8 0-16-7.2-16-16s7.2-16 16-16s16 7.2 16 16s-7.2 16-16 16zM320 352c-17.7 0-32 14.3-32 32s14.3 32 32 32H608c17.7 0 32-14.3 32-32s-14.3-32-32-32H320zm-16 96c-8.8 0-16 7.2-16 16v8c0 22.1 17.9 40 40 40H600c22.1 0 40-17.9 40-40v-8c0-8.8-7.2-16-16-16H304z"/></svg>