<svg xmlns="http://www.w3.org/2000/svg" viewBox="0 0 640 512"><!--! Font Awesome Pro 6.2.0 by @fontawesome - https://fontawesome.com License - https://fontawesome.com/license (Commercial License) Copyright 2022 Fonticons, Inc. --><path d="M32 0C23.1 0 14.6 3.7 8.6 10.2S-.6 25.4 .1 34.3L28.9 437.7c3 41.9 37.8 74.3 79.8 74.3H243.3c7.9 0 15.5-1.1 22.7-3.3C259.7 498 256 485.4 256 472v-8c0-14.7 6.6-27.8 17-36.6c-10.5-11.4-17-26.6-17-43.4c0-18.5 7.8-35.1 20.3-46.8c-12.4-10.9-20.3-26.9-20.3-44.8c0-6.3 1-13.8 4.4-21.5c5.5-12.5 20.5-40.4 52.7-65.3c8.2-6.4 17.5-12.4 27.8-17.9l11-153.5c.6-8.9-2.4-17.6-8.5-24.1S328.9 0 320 0H32zM73.2 160L66.4 64H285.6l-6.9 96H73.2zM640 292.5c0-3-.5-5.9-1.7-8.6C630.2 265.5 590 192 464 192s-166.2 73.5-174.3 91.9c-1.2 2.7-1.7 5.7-1.7 8.6c0 15.2 12.3 27.5 27.5 27.5H612.5c15.2 0 27.5-12.3 27.5-27.5zM384 272c-8.8 0-16-7.2-16-16s7.2-16 16-16s16 7.2 16 16s-7.2 16-16 16zm96-32c0 8.8-7.2 16-16 16s-16-7.2-16-16s7.2-16 16-16s16 7.2 16 16zm64 32c-8.8 0-16-7.2-16-16s7.2-16 16-16s16 7.2 16 16s-7.2 16-16 16zM320 352c-17.7 0-32 14.3-32 32s14.3 32 32 32H608c17.7 0 32-14.3 32-32s-14.3-32-32-32H320zm-16 96c-8.8 0-16 7.2-16 16v8c0 22.1 17.9 40 40 40H600c22.1 0 40-17.9 40-40v-8c0-8.8-7.2-16-16-16H304z"/></svg>