<svg xmlns="http://www.w3.org/2000/svg" viewBox="0 0 640 512"><!--! Font Awesome Pro 6.2.0 by @fontawesome - https://fontawesome.com License - https://fontawesome.com/license (Commercial License) Copyright 2022 Fonticons, Inc. --><path d="M233.3 0H264c13.3 0 24 10.7 24 24s-10.7 24-24 24H233.3c-3.7 0-6.9 2.6-7.8 6.2L208.2 128H320c17.7 0 32 14.3 32 32s-14.3 32-32 32H32c-17.7 0-32-14.3-32-32s14.3-32 32-32H158.9l20-84.8C184.8 17.9 207.4 0 233.3 0zM60.3 468L40 224H292.6c-18.4 19.1-28 37.5-32.2 47c-3.4 7.7-4.4 15.3-4.4 21.5c0 17.8 7.9 33.9 20.3 44.8C263.8 348.9 256 365.5 256 384c0 16.7 6.4 32 17 43.4c-10.4 8.8-17 21.9-17 36.6v8c0 12.7 3.3 24.7 9.1 35c-6.4 3.2-13.6 5-21.3 5H108.2c-25 0-45.8-19.1-47.8-44zM640 292.5c0 15.2-12.3 27.5-27.5 27.5H315.5c-15.2 0-27.5-12.3-27.5-27.5c0-3 .5-5.9 1.7-8.6C297.8 265.5 338 192 464 192s166.2 73.5 174.3 91.9c1.2 2.7 1.7 5.7 1.7 8.6zM384 272c8.8 0 16-7.2 16-16s-7.2-16-16-16s-16 7.2-16 16s7.2 16 16 16zm96-32c0-8.8-7.2-16-16-16s-16 7.2-16 16s7.2 16 16 16s16-7.2 16-16zm64 32c8.8 0 16-7.2 16-16s-7.2-16-16-16s-16 7.2-16 16s7.2 16 16 16zM320 352H608c17.7 0 32 14.3 32 32s-14.3 32-32 32H320c-17.7 0-32-14.3-32-32s14.3-32 32-32zm-16 96H624c8.8 0 16 7.2 16 16v8c0 22.1-17.9 40-40 40H328c-22.1 0-40-17.9-40-40v-8c0-8.8 7.2-16 16-16z"/></svg>