<svg xmlns="http://www.w3.org/2000/svg" viewBox="0 0 512 512"><!--! Font Awesome Pro 6.2.0 by @fontawesome - https://fontawesome.com License - https://fontawesome.com/license (Commercial License) Copyright 2022 Fonticons, Inc. --><path d="M160 96c0-53 43-96 96-96s96 43 96 96V352h48c8.8 0 16-7.2 16-16V272c0-26.5 21.5-48 48-48s48 21.5 48 48v64c0 61.9-50.1 112-112 112H352v32c0 17.7-14.3 32-32 32H192c-17.7 0-32-14.3-32-32V320H112C50.1 320 0 269.9 0 208V144c0-26.5 21.5-48 48-48s48 21.5 48 48v64c0 8.8 7.2 16 16 16h48V96zm80 64c0-8.8-7.2-16-16-16s-16 7.2-16 16s7.2 16 16 16s16-7.2 16-16zm48 240c8.8 0 16-7.2 16-16s-7.2-16-16-16s-16 7.2-16 16s7.2 16 16 16z"/></svg>