<svg xmlns="http://www.w3.org/2000/svg" viewBox="0 0 512 512"><!--! Font Awesome Pro 6.2.0 by @fontawesome - https://fontawesome.com License - https://fontawesome.com/license (Commercial License) Copyright 2022 Fonticons, Inc. --><path d="M0 48C0 21.5 21.5 0 48 0H176c26.5 0 48 21.5 48 48V176c0 26.5-21.5 48-48 48H48c-26.5 0-48-21.5-48-48V48zm288 0c0-26.5 21.5-48 48-48H464c26.5 0 48 21.5 48 48V176c0 26.5-21.5 48-48 48H336c-26.5 0-48-21.5-48-48V48zm48 240H464c26.5 0 48 21.5 48 48V464c0 26.5-21.5 48-48 48H336c-26.5 0-48-21.5-48-48V336c0-26.5 21.5-48 48-48zM0 336c0-26.5 21.5-48 48-48H176c26.5 0 48 21.5 48 48V464c0 26.5-21.5 48-48 48H48c-26.5 0-48-21.5-48-48V336zM416 64c0-8.8-7.2-16-16-16s-16 7.2-16 16V96H352c-8.8 0-16 7.2-16 16s7.2 16 16 16h32v32c0 8.8 7.2 16 16 16s16-7.2 16-16V128h32c8.8 0 16-7.2 16-16s-7.2-16-16-16H416V64zM64 96c-8.8 0-16 7.2-16 16s7.2 16 16 16h96c8.8 0 16-7.2 16-16s-7.2-16-16-16H64zM83.3 348.7c-6.2-6.2-16.4-6.2-22.6 0s-6.2 16.4 0 22.6L89.4 400 60.7 428.7c-6.2 6.2-6.2 16.4 0 22.6s16.4 6.2 22.6 0L112 422.6l28.7 28.7c6.2 6.2 16.4 6.2 22.6 0s6.2-16.4 0-22.6L134.6 400l28.7-28.7c6.2-6.2 6.2-16.4 0-22.6s-16.4-6.2-22.6 0L112 377.4 83.3 348.7zM352 352c-8.8 0-16 7.2-16 16s7.2 16 16 16h96c8.8 0 16-7.2 16-16s-7.2-16-16-16H352zm0 64c-8.8 0-16 7.2-16 16s7.2 16 16 16h96c8.8 0 16-7.2 16-16s-7.2-16-16-16H352z"/></svg>