<svg xmlns="http://www.w3.org/2000/svg" viewBox="0 0 448 512"><!--! Font Awesome Pro 6.2.0 by @fontawesome - https://fontawesome.com License - https://fontawesome.com/license (Commercial License) Copyright 2022 Fonticons, Inc. --><path d="M128 0c17.7 0 32 14.3 32 32V64H288V32c0-17.7 14.3-32 32-32s32 14.3 32 32V64h48c26.5 0 48 21.5 48 48v48H0V112C0 85.5 21.5 64 48 64H96V32c0-17.7 14.3-32 32-32zM0 192H448V464c0 26.5-21.5 48-48 48H48c-26.5 0-48-21.5-48-48V192zM212.7 444.7c6.2 6.2 16.4 6.2 22.6 0L328 352c22.1-22.1 22.1-57.9 0-80s-57.9-22.1-80 0l-24 24-24-24c-22.1-22.1-57.9-22.1-80 0s-22.1 57.9 0 80l92.7 92.7z"/></svg>