<svg xmlns="http://www.w3.org/2000/svg" viewBox="0 0 512 512"><!--! Font Awesome Pro 6.2.0 by @fontawesome - https://fontawesome.com License - https://fontawesome.com/license (Commercial License) Copyright 2022 Fonticons, Inc. --><path d="M56 0h80c13.3 0 24 10.7 24 24s-10.7 24-24 24H56c-4.4 0-8 3.6-8 8v80c0 13.3-10.7 24-24 24s-24-10.7-24-24V56C0 25.1 25.1 0 56 0zM376 0h80c30.9 0 56 25.1 56 56v80c0 13.3-10.7 24-24 24s-24-10.7-24-24V56c0-4.4-3.6-8-8-8H376c-13.3 0-24-10.7-24-24s10.7-24 24-24zM48 376v80c0 4.4 3.6 8 8 8h80c13.3 0 24 10.7 24 24s-10.7 24-24 24H56c-30.9 0-56-25.1-56-56V376c0-13.3 10.7-24 24-24s24 10.7 24 24zm464 0v80c0 30.9-25.1 56-56 56H376c-13.3 0-24-10.7-24-24s10.7-24 24-24h80c4.4 0 8-3.6 8-8V376c0-13.3 10.7-24 24-24s24 10.7 24 24zM180 128l6.2-16.4c3.5-9.4 12.5-15.6 22.5-15.6h94.7c10 0 19 6.2 22.5 15.6L332 128h36c26.5 0 48 21.5 48 48V336c0 26.5-21.5 48-48 48H144c-26.5 0-48-21.5-48-48V176c0-26.5 21.5-48 48-48h36zM320 256c0-35.3-28.7-64-64-64s-64 28.7-64 64s28.7 64 64 64s64-28.7 64-64z"/></svg>