<svg xmlns="http://www.w3.org/2000/svg" viewBox="0 0 448 512"><!--! Font Awesome Pro 6.2.0 by @fontawesome - https://fontawesome.com License - https://fontawesome.com/license (Commercial License) Copyright 2022 Fonticons, Inc. --><path d="M0 64C0 28.7 28.7 0 64 0H384c35.3 0 64 28.7 64 64V352c0 35.3-28.7 64-64 64H310l59 36.9c12.1 7.6 17.7 22.2 13.8 36S366.3 512 352 512H96c-14.3 0-26.8-9.5-30.8-23.2s1.7-28.4 13.8-36L138 416H64c-35.3 0-64-28.7-64-64V64zM320 208c0 53-43 96-96 96s-96-43-96-96s43-96 96-96s96 43 96 96zm32 0c0-70.7-57.3-128-128-128S96 137.3 96 208s57.3 128 128 128s128-57.3 128-128z"/></svg>