<svg xmlns="http://www.w3.org/2000/svg" viewBox="0 0 576 512"><!--! Font Awesome Pro 6.2.0 by @fontawesome - https://fontawesome.com License - https://fontawesome.com/license (Commercial License) Copyright 2022 Fonticons, Inc. --><path d="M264.2 3.4c-2.5-2.3-5.6-3.4-8.8-3.4c-3.2 0-6.4 1.1-9 3.4c-29.9 27-55.3 57.7-73.2 87.1c-17.7 29-29.2 60.2-29.2 84.2C144 254.5 207.3 320 288 320c79.9 0 144-65.5 144-145.3c0-18.3-8.7-46.3-21.7-71.8C397 77 378.2 49.7 355.9 29.1c-5-4.7-12.9-4.7-18 0c-8.7 8-16.7 17.8-23.8 26.8C298.6 37 282 19.6 264.2 3.4zM333 248.2c-13.5 9.1-27.9 13.6-44.1 13.6c-40.5 0-72.9-26.4-72.9-70.9c0-21.8 13.5-40.9 40.5-74.5c3.6 4.5 55.8 71.8 55.8 71.8L344.7 150c2.7 3.6 4.5 7.3 6.3 10.9c16.2 30 9 68.2-18 87.3zM74.8 289.9c-16.6-5.9-35 2.7-40.9 19.4s2.7 35 19.4 40.9L192.9 400 53.2 449.9c-16.6 5.9-25.3 24.3-19.4 40.9s24.3 25.3 40.9 19.4L288 434l213.2 76.2c16.6 5.9 35-2.7 40.9-19.4s-2.7-35-19.4-40.9L383.1 400l139.6-49.9c16.6-5.9 25.3-24.3 19.4-40.9s-24.3-25.3-40.9-19.4L288 366 74.8 289.9z"/></svg>