<svg xmlns="http://www.w3.org/2000/svg" viewBox="0 0 384 512"><!--! Font Awesome Pro 6.2.0 by @fontawesome - https://fontawesome.com License - https://fontawesome.com/license (Commercial License) Copyright 2022 Fonticons, Inc. --><path d="M270.3 304.5c12.1-2.5 23.4-5.5 33.7-9V426c-2.8 1.6-6.6 3.6-11.8 5.7C269.8 440.9 234.4 448 192 448s-77.8-7.1-100.2-16.3c-5.2-2.1-9-4.1-11.8-5.7V295.5c10.3 3.5 21.6 6.5 33.7 9c7.6 36.3 39.8 63.5 78.3 63.5s70.7-27.2 78.3-63.5zm-56.5 7c-5.7 5.3-13.4 8.5-21.8 8.5s-16.1-3.2-21.8-8.5c-6.3-5.8-10.2-14.2-10.2-23.5c0-17.7 14.3-32 32-32s32 14.3 32 32c0 9.3-3.9 17.6-10.2 23.5zM16 72V240 440c0 39.8 78.8 72 176 72s176-32.2 176-72V240 72c0-39.8-78.8-72-176-72S16 32.2 16 72zm288 0c0 13.3-50.1 24-112 24S80 85.3 80 72s50.1-24 112-24s112 10.7 112 24z"/></svg>