<svg xmlns="http://www.w3.org/2000/svg" viewBox="0 0 640 512"><!--! Font Awesome Pro 6.2.0 by @fontawesome - https://fontawesome.com License - https://fontawesome.com/license (Commercial License) Copyright 2022 Fonticons, Inc. --><path d="M335.8 6.3c-14.8-8.4-32.9-8.4-47.6 0L16.1 161.8C.8 170.6-4.5 190.1 4.2 205.4s28.3 20.7 43.7 11.9L312 66.4 576.1 217.4c15.3 8.8 34.9 3.4 43.7-11.9s3.4-34.9-11.9-43.7L335.8 6.3zM241.8 224H382.2c6.8 0 12.8 4.3 15.1 10.6L416.3 288H207.7l19.1-53.4c2.3-6.4 8.3-10.6 15.1-10.6zm-75.3-10.9l-28.3 79.3C118.1 300.9 104 320.8 104 344v40 64 32c0 17.7 14.3 32 32 32h16c17.7 0 32-14.3 32-32V448H440v32c0 17.7 14.3 32 32 32h16c17.7 0 32-14.3 32-32V448 384 344c0-23.2-14.1-43.1-34.2-51.6l-28.3-79.3C446.1 181.3 416 160 382.2 160H241.8c-33.8 0-64 21.3-75.3 53.1zM184 392c-13.3 0-24-10.7-24-24s10.7-24 24-24s24 10.7 24 24s-10.7 24-24 24zm280-24c0 13.3-10.7 24-24 24s-24-10.7-24-24s10.7-24 24-24s24 10.7 24 24z"/></svg>