<svg xmlns="http://www.w3.org/2000/svg" viewBox="0 0 448 512"><!--! Font Awesome Pro 6.2.0 by @fontawesome - https://fontawesome.com License - https://fontawesome.com/license (Commercial License) Copyright 2022 Fonticons, Inc. --><path d="M64 128c26.5 0 48-16 48-48S64 0 64 0s-48 48-48 80c0 26.5 21.5 48 48 48zm160 0c26.5 0 48-16 48-48s-48-80-48-80s-48 48-48 80c0 26.5 21.5 48 48 48zM432 80c0-32-48-80-48-80s-48 48-48 80c0 26.5 21.5 48 48 48s48-16 48-48zM145.8 224H286.2c6.8 0 12.8 4.3 15.1 10.6L320.3 288H111.7l19.1-53.4c2.3-6.4 8.3-10.6 15.1-10.6zM70.5 213.1L42.2 292.4C22.1 300.9 8 320.8 8 344v40 64 32c0 17.7 14.3 32 32 32H56c17.7 0 32-14.3 32-32V448H344v32c0 17.7 14.3 32 32 32h16c17.7 0 32-14.3 32-32V448 384 344c0-23.2-14.1-43.1-34.2-51.6l-28.3-79.3C350.1 181.3 320 160 286.2 160H145.8c-33.8 0-64 21.3-75.3 53.1zM88 392c-13.3 0-24-10.7-24-24s10.7-24 24-24s24 10.7 24 24s-10.7 24-24 24zm280-24c0 13.3-10.7 24-24 24s-24-10.7-24-24s10.7-24 24-24s24 10.7 24 24z"/></svg>