<svg xmlns="http://www.w3.org/2000/svg" viewBox="0 0 576 512"><!--! Font Awesome Pro 6.2.0 by @fontawesome - https://fontawesome.com License - https://fontawesome.com/license (Commercial License) Copyright 2022 Fonticons, Inc. --><path d="M516.9 104H504l-.5 0c-.7 0-1.4-.1-2.1-.1C489.3 102.5 480 92.4 480 80s9.3-22.5 21.3-23.9c.7-.1 1.4-.1 2.1-.1l.5 0h12.9 17.6c10.8 0 18.4-10.6 12.5-19.6c-3.6-5.5-7.8-10.5-12.5-14.9c-4.2-3.9-8.8-7.4-13.8-10.3C518.8 10 516.9 9 514.9 8C504.4 2.9 492.5 0 480 0c-29.1 0-54.5 15.5-68.5 38.7c-3.3 5.4-8.9 9.3-15.3 9.3H179.8c-6.4 0-12-3.8-15.3-9.3C150.5 15.5 125.1 0 96 0C83.5 0 71.6 2.9 61.1 8c-2 1-3.9 2-5.8 3.1c-5 2.9-9.6 6.4-13.8 10.3c-4.7 4.4-9 9.4-12.5 14.9C23 45.4 30.7 56 41.5 56H59.1 72l.5 0c.7 0 1.4 .1 2.1 .1C86.7 57.5 96 67.6 96 80s-9.3 22.5-21.3 23.9c-.7 .1-1.4 .1-2.1 .1l-.5 0H59.1 41.5c-10.8 0-18.4 10.6-12.5 19.6c3.6 5.5 7.8 10.5 12.5 14.9c4.2 3.9 8.8 7.4 13.8 10.3c1.9 1.1 3.8 2.2 5.8 3.1c10.6 5.1 22.4 8 34.9 8c29.1 0 54.5-15.5 68.5-38.7c3.3-5.4 8.9-9.3 15.3-9.3H396.2c6.4 0 12 3.8 15.3 9.3c14 23.2 39.5 38.7 68.5 38.7c12.5 0 24.4-2.9 34.9-8c2-1 3.9-2 5.8-3.1c5-2.9 9.6-6.4 13.8-10.3c4.7-4.4 9-9.4 12.5-14.9c5.9-9-1.7-19.6-12.5-19.6H516.9zM217.8 224H358.2c6.8 0 12.8 4.3 15.1 10.6L392.3 288H183.7l19.1-53.4c2.3-6.4 8.3-10.6 15.1-10.6zm-75.3-10.9l-28.3 79.3C94.1 300.9 80 320.8 80 344v40 64 32c0 17.7 14.3 32 32 32h16c17.7 0 32-14.3 32-32V448H416v32c0 17.7 14.3 32 32 32h16c17.7 0 32-14.3 32-32V448 384 344c0-23.2-14.1-43.1-34.2-51.6l-28.3-79.3C422.1 181.3 392 160 358.2 160H217.8c-33.8 0-64 21.3-75.3 53.1zM160 392c-13.3 0-24-10.7-24-24s10.7-24 24-24s24 10.7 24 24s-10.7 24-24 24zm280-24c0 13.3-10.7 24-24 24s-24-10.7-24-24s10.7-24 24-24s24 10.7 24 24z"/></svg>