<svg xmlns="http://www.w3.org/2000/svg" viewBox="0 0 512 512"><!--! Font Awesome Pro 6.2.0 by @fontawesome - https://fontawesome.com License - https://fontawesome.com/license (Commercial License) Copyright 2022 Fonticons, Inc. --><path d="M74.8 96.3L39.6 196.8C16.4 206.4 0 229.3 0 256V400v48c0 17.7 14.3 32 32 32H64c17.7 0 32-14.3 32-32V400H416v48c0 17.7 14.3 32 32 32h32c17.7 0 32-14.3 32-32V400 256c0-26.7-16.4-49.6-39.6-59.2L437.2 96.3C423.7 57.8 387.4 32 346.6 32H165.4c-40.8 0-77.1 25.8-90.6 64.3zM96 320c-17.7 0-32-14.3-32-32s14.3-32 32-32s32 14.3 32 32s-14.3 32-32 32zm352-32c0 17.7-14.3 32-32 32s-32-14.3-32-32s14.3-32 32-32s32 14.3 32 32zM318.3 119.2L281.9 192H336c6.9 0 13 4.4 15.2 10.9s-.1 13.7-5.6 17.9l-128 96c-5.9 4.5-14.2 4.2-19.9-.5s-7.4-12.8-4.1-19.4L230.1 224H176c-6.9 0-13-4.4-15.2-10.9s.1-13.7 5.6-17.9l128-96c5.9-4.5 14.2-4.2 19.9 .5s7.4 12.8 4.1 19.4z"/></svg>