<svg xmlns="http://www.w3.org/2000/svg" viewBox="0 0 576 512"><!--! Font Awesome Pro 6.2.0 by @fontawesome - https://fontawesome.com License - https://fontawesome.com/license (Commercial License) Copyright 2022 Fonticons, Inc. --><path d="M167.2 117.4c4.5-12.8 16.6-21.4 30.2-21.4H378.6c13.6 0 25.7 8.6 30.2 21.4L434.9 192H141.1l26.1-74.6zM32 224h8.6c-5.4 9.4-8.6 20.3-8.6 32V400v48c0 17.7 14.3 32 32 32H96c17.7 0 32-14.3 32-32V400H448v48c0 17.7 14.3 32 32 32h32c17.7 0 32-14.3 32-32V400 256c0-11.7-3.1-22.6-8.6-32H544c17.7 0 32-14.3 32-32s-14.3-32-32-32H491.5L469.2 96.3C455.7 57.8 419.4 32 378.6 32H197.4c-40.8 0-77.1 25.8-90.6 64.3L84.5 160H32c-17.7 0-32 14.3-32 32s14.3 32 32 32zm128 64c0 17.7-14.3 32-32 32s-32-14.3-32-32s14.3-32 32-32s32 14.3 32 32zm288 32c-17.7 0-32-14.3-32-32s14.3-32 32-32s32 14.3 32 32s-14.3 32-32 32z"/></svg>