<svg xmlns="http://www.w3.org/2000/svg" viewBox="0 0 640 512"><!--! Font Awesome Pro 6.2.0 by @fontawesome - https://fontawesome.com License - https://fontawesome.com/license (Commercial License) Copyright 2022 Fonticons, Inc. --><path d="M135.2 117.4L109.1 192H402.9l-26.1-74.6C372.3 104.6 360.2 96 346.6 96H165.4c-13.6 0-25.7 8.6-30.2 21.4zM39.6 196.8L74.8 96.3C88.3 57.8 124.6 32 165.4 32H346.6c40.8 0 77.1 25.8 90.6 64.3l34.1 97.4C385.8 205.7 320 279.2 320 368c0 10.9 1 21.6 2.9 32H96v48c0 17.7-14.3 32-32 32H32c-17.7 0-32-14.3-32-32V400 256c0-26.7 16.4-49.6 39.6-59.2zM128 288c0-17.7-14.3-32-32-32s-32 14.3-32 32s14.3 32 32 32s32-14.3 32-32zM496 512c-79.5 0-144-64.5-144-144s64.5-144 144-144s144 64.5 144 144s-64.5 144-144 144zm47.9-225c-4.3-3.7-10.6-4-15.1-.6l-96 72c-4.1 3.1-5.8 8.5-4.2 13.4s6.2 8.2 11.4 8.2h35.6l-30.1 54.2c-2.8 5-1.7 11.1 2.6 14.9s10.6 4 15.1 .6l96-72c4.1-3.1 5.8-8.5 4.2-13.4s-6.2-8.2-11.4-8.2H516.4l30.1-54.2c2.8-5 1.7-11.1-2.6-14.9z"/></svg>