<svg xmlns="http://www.w3.org/2000/svg" viewBox="0 0 640 512"><!--! Font Awesome Pro 6.2.0 by @fontawesome - https://fontawesome.com License - https://fontawesome.com/license (Commercial License) Copyright 2022 Fonticons, Inc. --><path d="M48 0C21.5 0 0 21.5 0 48V432c0 26.5 21.5 48 48 48H192V448 352c0-32.8 16.5-61.8 41.6-79.1l5.6-16.9H208c-8.8 0-16-7.2-16-16V208c0-8.8 7.2-16 16-16h32c8.2 0 14.9 6.1 15.9 14l.5-1.4c10.5-31.6 34.2-56 63.7-68.2V48c0-26.5-21.5-48-48-48H48zM80 192h32c8.8 0 16 7.2 16 16v32c0 8.8-7.2 16-16 16H80c-8.8 0-16-7.2-16-16V208c0-8.8 7.2-16 16-16zm0-96h32c8.8 0 16 7.2 16 16v32c0 8.8-7.2 16-16 16H80c-8.8 0-16-7.2-16-16V112c0-8.8 7.2-16 16-16zm112 16c0-8.8 7.2-16 16-16h32c8.8 0 16 7.2 16 16v32c0 8.8-7.2 16-16 16H208c-8.8 0-16-7.2-16-16V112zM80 288h32c8.8 0 16 7.2 16 16v32c0 8.8-7.2 16-16 16H80c-8.8 0-16-7.2-16-16V304c0-8.8 7.2-16 16-16zm282.6-64H501.4c6.9 0 13 4.4 15.2 10.9L534.3 288H329.7l17.7-53.1c2.2-6.5 8.3-10.9 15.2-10.9zm-75.9-9.3l-26.6 79.7C238.8 304.7 224 326.6 224 352v96h0v32c0 17.7 14.3 32 32 32h16c17.7 0 32-14.3 32-32V448H560v32c0 17.7 14.3 32 32 32h16c17.7 0 32-14.3 32-32l0-32V352c0-25.4-14.8-47.3-36.1-57.6l-26.6-79.7C566.4 182 535.8 160 501.4 160H362.6c-34.4 0-65 22-75.9 54.7zM304 392c-13.3 0-24-10.7-24-24s10.7-24 24-24s24 10.7 24 24s-10.7 24-24 24zm280-24c0 13.3-10.7 24-24 24s-24-10.7-24-24s10.7-24 24-24s24 10.7 24 24z"/></svg>