<svg xmlns="http://www.w3.org/2000/svg" viewBox="0 0 640 512"><!--! Font Awesome Pro 6.2.0 by @fontawesome - https://fontawesome.com License - https://fontawesome.com/license (Commercial License) Copyright 2022 Fonticons, Inc. --><path d="M32 416H48v32c0 17.7 14.3 32 32 32H96c17.7 0 32-14.3 32-32V416h64V352c0-32.8 16.5-61.8 41.6-79.1L249.9 224H208V96h88c13.3 0 24 10.7 24 24v16.4c13.2-5.4 27.7-8.4 42.6-8.4H384V74.5c0-16.2-9.2-31-23.7-38.3C312.8 12.4 260.3 0 207.1 0H176.9C123.7 0 71.2 12.4 23.7 36.2C9.2 43.4 0 58.2 0 74.5V384c0 17.7 14.3 32 32 32zM88 96h88V224H88c-13.3 0-24-10.7-24-24V120c0-13.3 10.7-24 24-24zm8 248c-13.3 0-24-10.7-24-24s10.7-24 24-24s24 10.7 24 24s-10.7 24-24 24zM362.6 224H501.4c6.9 0 13 4.4 15.2 10.9L534.3 288H329.7l17.7-53.1c2.2-6.5 8.3-10.9 15.2-10.9zm-75.9-9.3l-26.6 79.7C238.8 304.7 224 326.6 224 352v96h0v32c0 17.7 14.3 32 32 32h16c17.7 0 32-14.3 32-32V448H560v32c0 17.7 14.3 32 32 32h16c17.7 0 32-14.3 32-32l0-32V352c0-25.4-14.8-47.3-36.1-57.6l-26.6-79.7C566.4 182 535.8 160 501.4 160H362.6c-34.4 0-65 22-75.9 54.7zM304 392c-13.3 0-24-10.7-24-24s10.7-24 24-24s24 10.7 24 24s-10.7 24-24 24zm280-24c0 13.3-10.7 24-24 24s-24-10.7-24-24s10.7-24 24-24s24 10.7 24 24z"/></svg>