<svg xmlns="http://www.w3.org/2000/svg" viewBox="0 0 640 512"><!--! Font Awesome Pro 6.2.0 by @fontawesome - https://fontawesome.com License - https://fontawesome.com/license (Commercial License) Copyright 2022 Fonticons, Inc. --><path d="M80 32C35.8 32 0 67.8 0 112V336c0 44.2 35.8 80 80 80H96c0 53 43 96 96 96s96-43 96-96H576l32 0c17.7 0 32-14.3 32-32s-14.3-32-32-32H576V192c0-88.4-71.6-160-160-160H80zM64 160c0-17.7 14.3-32 32-32H224c17.7 0 32 14.3 32 32v64c0 17.7-14.3 32-32 32H96c-17.7 0-32-14.3-32-32V160zm288-32h64c17.7 0 32 14.3 32 32v64c0 17.7-14.3 32-32 32H352c-17.7 0-32-14.3-32-32V160c0-17.7 14.3-32 32-32zM240 416c0 26.5-21.5 48-48 48s-48-21.5-48-48s21.5-48 48-48s48 21.5 48 48z"/></svg>