<svg xmlns="http://www.w3.org/2000/svg" viewBox="0 0 640 512"><!--! Font Awesome Pro 6.2.0 by @fontawesome - https://fontawesome.com License - https://fontawesome.com/license (Commercial License) Copyright 2022 Fonticons, Inc. --><path d="M123.4 74.9c2.2-6.5 8.3-10.9 15.2-10.9H277.4c6.9 0 13 4.4 15.2 10.9L310.3 128H105.7l17.7-53.1zM36.1 134.4C14.8 144.7 0 166.6 0 192v96H0v32c0 17.7 14.3 32 32 32H48c17.7 0 32-14.3 32-32V288H216.5c5.1-5.7 10.8-10.7 17.1-15.1l22.8-68.3c15.2-45.7 58-76.6 106.3-76.6h15.1L353.3 54.7C342.4 22 311.8 0 277.4 0H138.6c-34.4 0-65 22-75.9 54.7L36.1 134.4zM104 208c0 13.3-10.7 24-24 24s-24-10.7-24-24s10.7-24 24-24s24 10.7 24 24zm258.6 16H501.4c6.9 0 13 4.4 15.2 10.9L534.3 288H329.7l17.7-53.1c2.2-6.5 8.3-10.9 15.2-10.9zm-75.9-9.3l-26.6 79.7C238.8 304.7 224 326.6 224 352v96h0v32c0 17.7 14.3 32 32 32h16c17.7 0 32-14.3 32-32V448H560v32c0 17.7 14.3 32 32 32h16c17.7 0 32-14.3 32-32l0-32V352c0-25.4-14.8-47.3-36.1-57.6l-26.6-79.7C566.4 182 535.8 160 501.4 160H362.6c-34.4 0-65 22-75.9 54.7zM304 392c-13.3 0-24-10.7-24-24s10.7-24 24-24s24 10.7 24 24s-10.7 24-24 24zm280-24c0 13.3-10.7 24-24 24s-24-10.7-24-24s10.7-24 24-24s24 10.7 24 24z"/></svg>