<svg xmlns="http://www.w3.org/2000/svg" viewBox="0 0 640 512"><!--! Font Awesome Pro 6.2.0 by @fontawesome - https://fontawesome.com License - https://fontawesome.com/license (Commercial License) Copyright 2022 Fonticons, Inc. --><path d="M24 0C10.7 0 0 10.7 0 24S10.7 48 24 48H76.1l60.3 316.5c2.2 11.3 12.1 19.5 23.6 19.5H320.7c-.5-5.3-.7-10.6-.7-16c0-10.9 1-21.6 2.9-32h-143l-9.1-48H339.2c29.1-57 88.4-96 156.8-96c14.3 0 28.3 1.7 41.6 4.9l35-124.3C578.3 52.3 563 32 541.8 32H122l-2.4-12.5C117.4 8.2 107.5 0 96 0H24zM176 512c26.5 0 48-21.5 48-48s-21.5-48-48-48s-48 21.5-48 48s21.5 48 48 48zm320 0c79.5 0 144-64.5 144-144s-64.5-144-144-144s-144 64.5-144 144s64.5 144 144 144zm0-48c-13.3 0-24-10.7-24-24s10.7-24 24-24s24 10.7 24 24s-10.7 24-24 24zm0-192c8.8 0 16 7.2 16 16v80c0 8.8-7.2 16-16 16s-16-7.2-16-16V288c0-8.8 7.2-16 16-16z"/></svg>