<svg xmlns="http://www.w3.org/2000/svg" viewBox="0 0 576 512"><!--! Font Awesome Pro 6.2.0 by @fontawesome - https://fontawesome.com License - https://fontawesome.com/license (Commercial License) Copyright 2022 Fonticons, Inc. --><path d="M64 32C28.7 32 0 60.7 0 96v32H576V96c0-35.3-28.7-64-64-64H64zM576 160H0V416c0 35.3 28.7 64 64 64H512c35.3 0 64-28.7 64-64V160zM192 320c0-17.7-14.3-32-32-32s-32 14.3-32 32s14.3 32 32 32s32-14.3 32-32zm64 0c0 53-43 96-96 96s-96-43-96-96s43-96 96-96s96 43 96 96zm64-64c0-17.7 14.3-32 32-32H480c17.7 0 32 14.3 32 32V384c0 17.7-14.3 32-32 32H352c-17.7 0-32-14.3-32-32V256z"/></svg>