<svg xmlns="http://www.w3.org/2000/svg" viewBox="0 0 256 512"><!--! Font Awesome Pro 6.2.0 by @fontawesome - https://fontawesome.com License - https://fontawesome.com/license (Commercial License) Copyright 2022 Fonticons, Inc. --><path d="M56 0C39.9 0 26.3 12 24.3 27.9L1.2 208C-7.1 273.4 35.3 332.4 96 348V448H48c-17.7 0-32 14.3-32 32s14.3 32 32 32h80 80c17.7 0 32-14.3 32-32s-14.3-32-32-32H160V348c60.7-15.6 103.1-74.6 94.8-140l-23-180.1C229.7 12 216.1 0 200 0H56zM76 128l8.2-64h87.7l8.2 64H76z"/></svg>