<svg xmlns="http://www.w3.org/2000/svg" viewBox="0 0 512 512"><!--! Font Awesome Pro 6.2.0 by @fontawesome - https://fontawesome.com License - https://fontawesome.com/license (Commercial License) Copyright 2022 Fonticons, Inc. --><path d="M64 64c0-17.7-14.3-32-32-32S0 46.3 0 64V400c0 44.2 35.8 80 80 80H480c17.7 0 32-14.3 32-32s-14.3-32-32-32H80c-8.8 0-16-7.2-16-16V64zM320 48c0-8.8-7.2-16-16-16s-16 7.2-16 16V96c-17.7 0-32 14.3-32 32v96c0 17.7 14.3 32 32 32v48c0 8.8 7.2 16 16 16s16-7.2 16-16V256c17.7 0 32-14.3 32-32V128c0-17.7-14.3-32-32-32V48zm64 176v64c0 17.7 14.3 32 32 32v48c0 8.8 7.2 16 16 16s16-7.2 16-16V320c17.7 0 32-14.3 32-32V224c0-17.7-14.3-32-32-32V144c0-8.8-7.2-16-16-16s-16 7.2-16 16v48c-17.7 0-32 14.3-32 32zM160 128c-17.7 0-32 14.3-32 32V288c0 17.7 14.3 32 32 32v48c0 8.8 7.2 16 16 16s16-7.2 16-16V320c17.7 0 32-14.3 32-32V160c0-17.7-14.3-32-32-32V80c0-8.8-7.2-16-16-16s-16 7.2-16 16v48z"/></svg>