<svg xmlns="http://www.w3.org/2000/svg" viewBox="0 0 512 512"><!--! Font Awesome Pro 6.2.0 by @fontawesome - https://fontawesome.com License - https://fontawesome.com/license (Commercial License) Copyright 2022 Fonticons, Inc. --><path d="M32 96c17.7 0 32-14.3 32-32s-14.3-32-32-32S0 46.3 0 64S14.3 96 32 96zM288 64c0-17.7-14.3-32-32-32s-32 14.3-32 32V273L43.5 423.4c-13.6 11.3-15.4 31.5-4.1 45.1s31.5 15.4 45.1 4.1L256 329.7 427.5 472.6c13.6 11.3 33.8 9.5 45.1-4.1s9.5-33.8-4.1-45.1L288 273V64zm96 32c17.7 0 32-14.3 32-32s-14.3-32-32-32s-32 14.3-32 32s14.3 32 32 32zm32 160c0-17.7-14.3-32-32-32s-32 14.3-32 32s14.3 32 32 32s32-14.3 32-32zm64-64c17.7 0 32-14.3 32-32s-14.3-32-32-32s-32 14.3-32 32s14.3 32 32 32zM160 160c0-17.7-14.3-32-32-32s-32 14.3-32 32s14.3 32 32 32s32-14.3 32-32zM64 256c0-17.7-14.3-32-32-32s-32 14.3-32 32s14.3 32 32 32s32-14.3 32-32zM256 480c17.7 0 32-14.3 32-32s-14.3-32-32-32s-32 14.3-32 32s14.3 32 32 32z"/></svg>