<svg xmlns="http://www.w3.org/2000/svg" viewBox="0 0 512 512"><!--! Font Awesome Pro 6.2.0 by @fontawesome - https://fontawesome.com License - https://fontawesome.com/license (Commercial License) Copyright 2022 Fonticons, Inc. --><path d="M64 64c0-17.7-14.3-32-32-32S0 46.3 0 64V400c0 44.2 35.8 80 80 80H480c17.7 0 32-14.3 32-32s-14.3-32-32-32H80c-8.8 0-16-7.2-16-16V64zm217.4 57.4L208 194.7l-57.4-57.4c-12.5-12.5-32.8-12.5-45.3 0s-12.5 32.8 0 45.3l80 80c12.5 12.5 32.8 12.5 45.3 0L304 189.3l57.4 57.4L329 279c-15.1 15.1-4.4 41 17 41H456c13.3 0 24-10.7 24-24V185.9c0-21.4-25.9-32.1-41-17l-32.4 32.4-80-80c-12.5-12.5-32.8-12.5-45.3 0z"/></svg>