<svg xmlns="http://www.w3.org/2000/svg" viewBox="0 0 512 512"><!--! Font Awesome Pro 6.2.0 by @fontawesome - https://fontawesome.com License - https://fontawesome.com/license (Commercial License) Copyright 2022 Fonticons, Inc. --><path d="M500 89c13.8-11 16-31.2 5-45s-31.2-16-45-5L319.4 151.5 211.2 70.4c-11.7-8.8-27.8-8.5-39.2 .6L12 199c-13.8 11-16 31.2-5 45s31.2 16 45 5L192.6 136.5l108.2 81.1c11.7 8.8 27.8 8.5 39.2-.6L500 89zM160 256V448c0 17.7 14.3 32 32 32s32-14.3 32-32V256c0-17.7-14.3-32-32-32s-32 14.3-32 32zM32 352v96c0 17.7 14.3 32 32 32s32-14.3 32-32V352c0-17.7-14.3-32-32-32s-32 14.3-32 32zm288-64c-17.7 0-32 14.3-32 32V448c0 17.7 14.3 32 32 32s32-14.3 32-32V320c0-17.7-14.3-32-32-32zm96-32V448c0 17.7 14.3 32 32 32s32-14.3 32-32V256c0-17.7-14.3-32-32-32s-32 14.3-32 32z"/></svg>