<svg xmlns="http://www.w3.org/2000/svg" viewBox="0 0 512 512"><!--! Font Awesome Pro 6.2.0 by @fontawesome - https://fontawesome.com License - https://fontawesome.com/license (Commercial License) Copyright 2022 Fonticons, Inc. --><path d="M451 93c37.7 37.7 61 89.7 61 147.2V256H448v0H96v0H0c0-5.4 .7-10.7 2.1-15.8c0 0 0 0 0 0c3.8-13.7 12.4-25.8 24.5-33.9L96 160l23.2-15.4c7.8-5.2 18.4-2.3 25.5 3.8C153.1 155.6 164 160 176 160c26.5 0 48-21.5 48-48c0-5.2-.8-10.2-2.3-14.9c-2.9-9-1.6-19.9 6.3-25.1l47-31.3c8.6-5.7 18.6-8.7 28.9-8.7C361.3 32 413.3 55.3 451 93zM432 288h48 16 16v16 16 96c0 35.3-28.7 64-64 64H64c-35.3 0-64-28.7-64-64V320 304 288H16 32 304c8.8 0 15.7 7.4 18.6 15.7C329.1 322.5 347 336 368 336s38.9-13.5 45.4-32.3c2.9-8.4 9.8-15.7 18.6-15.7zM224 384c0-26.5-21.5-48-48-48s-48 21.5-48 48s21.5 48 48 48s48-21.5 48-48z"/></svg>