<svg xmlns="http://www.w3.org/2000/svg" viewBox="0 0 256 512"><!--! Font Awesome Pro 6.2.0 by @fontawesome - https://fontawesome.com License - https://fontawesome.com/license (Commercial License) Copyright 2022 Fonticons, Inc. --><path d="M208 176c0 26.2-12.6 49.4-32 64h8c13.3 0 24 10.7 24 24s-10.7 24-24 24h-7.5c2.7 45.1 15.5 96 15.5 96H64s12.7-50.9 15.5-96H72c-13.3 0-24-10.7-24-24s10.7-24 24-24h8c-19.4-14.6-32-37.8-32-64c0-44.2 35.8-80 80-80s80 35.8 80 80zM16.4 455.8l8.8-4.4c4.1-2.1 6.8-6.3 6.8-10.9C32 426.9 42.9 416 56.4 416H199.6c13.5 0 24.4 10.9 24.4 24.4c0 4.6 2.6 8.9 6.8 10.9l8.8 4.4c10.1 5 16.4 15.3 16.4 26.5c0 16.4-13.3 29.7-29.7 29.7H29.7C13.3 512 0 498.7 0 482.3c0-11.2 6.3-21.5 16.4-26.5z"/></svg>