<svg xmlns="http://www.w3.org/2000/svg" viewBox="0 0 256 512"><!--! Font Awesome Pro 6.2.0 by @fontawesome - https://fontawesome.com License - https://fontawesome.com/license (Commercial License) Copyright 2022 Fonticons, Inc. --><path d="M128 48c-13.3 0-24-10.7-24-24s10.7-24 24-24s24 10.7 24 24s-10.7 24-24 24zM48 216c0-11.4 7.9-20.9 18.6-23.4L17 100.8c-.6-1.2-1-2.5-1-3.8v-.7c0-2.7 1.3-5.2 3.6-6.7l12-8c3.2-2.1 7.4-1.7 10.1 1c6 6 14.5 10.3 22.3 7.1c8.2-3.4 12.6-10.1 14.2-17.8c.9-4.3 4.4-7.9 8.8-7.9H99c4.4 0 8 3.7 9.5 7.8c2.1 6 7.2 13.2 19.5 13.2s17.4-7.2 19.5-13.2c1.5-4.2 5.1-7.8 9.5-7.8h12c4.4 0 7.9 3.6 8.8 7.9c1.7 7.6 6 14.4 14.2 17.8c7.8 3.2 16.3-1.1 22.3-7.1c2.7-2.7 6.9-3.1 10.1-1l12 8c2.2 1.5 3.6 4 3.6 6.7V97c0 1.3-.3 2.6-1 3.8l-49.6 91.8c10.6 2.5 18.6 12 18.6 23.4c0 13.3-10.7 24-24 24h-8c0 51.2 9.8 109.1 16.9 144H63.1C70.2 349.1 80 291.2 80 240H72c-13.3 0-24-10.7-24-24zM25.2 451.4c4.1-2.1 6.8-6.3 6.8-10.9C32 426.9 42.9 416 56.4 416H199.6c13.5 0 24.4 10.9 24.4 24.4c0 4.6 2.6 8.9 6.8 10.9l8.8 4.4c10.1 5 16.4 15.3 16.4 26.5c0 16.4-13.3 29.7-29.7 29.7H29.7C13.3 512 0 498.7 0 482.3c0-11.2 6.3-21.5 16.4-26.5l8.8-4.4z"/></svg>