<svg xmlns="http://www.w3.org/2000/svg" viewBox="0 0 640 512"><!--! Font Awesome Pro 6.2.0 by @fontawesome - https://fontawesome.com License - https://fontawesome.com/license (Commercial License) Copyright 2022 Fonticons, Inc. --><path d="M384 56c0-13.3 10.7-24 24-24H520c13.3 0 24 10.7 24 24s-10.7 24-24 24H488v48h88c35.3 0 64 28.7 64 64V416c0 35.3-28.7 64-64 64H64c-35.3 0-64-28.7-64-64V192c0-35.3 28.7-64 64-64H96V112c0-8.8 7.2-16 16-16H240c8.8 0 16 7.2 16 16v16H440V80H408c-13.3 0-24-10.7-24-24zM288 304c0-61.9-50.1-112-112-112s-112 50.1-112 112s50.1 112 112 112s112-50.1 112-112zm-52.7-59.3c6.2 6.2 6.2 16.4 0 22.6l-48 48c-6.2 6.2-16.4 6.2-22.6 0s-6.2-16.4 0-22.6l48-48c6.2-6.2 16.4-6.2 22.6 0zM464 416c61.9 0 112-50.1 112-112s-50.1-112-112-112s-112 50.1-112 112s50.1 112 112 112zm16-176v64c0 8.8-7.2 16-16 16s-16-7.2-16-16V240c0-8.8 7.2-16 16-16s16 7.2 16 16z"/></svg>