<svg xmlns="http://www.w3.org/2000/svg" viewBox="0 0 320 512"><!--! Font Awesome Pro 6.2.0 by @fontawesome - https://fontawesome.com License - https://fontawesome.com/license (Commercial License) Copyright 2022 Fonticons, Inc. --><path d="M144 222.9V192l-6.4 2.1c-10.9 3.6-19 12.8-21.3 24.1l-1.3 6.4c-1.9 9.7-8.2 17.9-17.1 22.3l-3.7 1.8c-9 4.5-19.6 4.5-28.6 0l-16-8C38.8 235.4 32 224.3 32 212.2v-87c0-8.5 3.4-16.6 9.4-22.6L48 96 35.3 83.3c-2.1-2.1-3.3-5-3.3-8C32 69.1 37.1 64 43.3 64H128c79.5 0 144 64.5 144 144V336.9c0 9.9-2.3 19.7-6.8 28.6L256 384H64l-9.4-18.9C50.2 356.5 48 347 48 337.3c0-20.8 10.4-40.2 27.7-51.8l54-36c8.9-5.9 14.2-15.9 14.2-26.6zM96 144c0-8.8-7.2-16-16-16s-16 7.2-16 16s7.2 16 16 16s16-7.2 16-16zM16.4 455.8l8.8-4.4c4.1-2.1 6.8-6.3 6.8-10.9C32 426.9 42.9 416 56.4 416H263.6c13.5 0 24.4 10.9 24.4 24.4c0 4.6 2.6 8.9 6.8 10.9l8.8 4.4c10.1 5 16.4 15.3 16.4 26.5c0 16.4-13.3 29.7-29.7 29.7H29.7C13.3 512 0 498.7 0 482.3c0-11.2 6.3-21.5 16.4-26.5z"/></svg>