<svg xmlns="http://www.w3.org/2000/svg" viewBox="0 0 256 512"><!--! Font Awesome Pro 6.2.0 by @fontawesome - https://fontawesome.com License - https://fontawesome.com/license (Commercial License) Copyright 2022 Fonticons, Inc. --><path d="M120 32c-13.3 0-24 10.7-24 24c0 7.9 3.8 15 9.8 19.3C84.8 94 48 134.8 48 192c0 26.3 13.6 40.5 26.3 48H72c-13.3 0-24 10.7-24 24s10.7 24 24 24h7.5C76.7 333.1 64 384 64 384H192s-12.7-50.9-15.5-96H184c13.3 0 24-10.7 24-24s-10.7-24-24-24h-2.3c12.7-7.5 26.3-21.7 26.3-48c0-25.9-7.5-48.4-17.7-67l-48.6 48.6c-3.1 3.1-8.2 3.1-11.3 0s-3.1-8.2 0-11.3L181.7 111c-10.6-15.6-22.5-27.7-31.5-35.6C156.2 71 160 63.9 160 56c0-13.3-10.7-24-24-24H120zM25.2 451.4l-8.8 4.4C6.3 460.8 0 471.1 0 482.3C0 498.7 13.3 512 29.7 512H226.3c16.4 0 29.7-13.3 29.7-29.7c0-11.2-6.3-21.5-16.4-26.5l-8.8-4.4c-4.1-2.1-6.8-6.3-6.8-10.9c0-13.5-10.9-24.4-24.4-24.4H56.4C42.9 416 32 426.9 32 440.4c0 4.6-2.6 8.9-6.8 10.9z"/></svg>