<svg xmlns="http://www.w3.org/2000/svg" viewBox="0 0 512 512"><!--! Font Awesome Pro 6.2.0 by @fontawesome - https://fontawesome.com License - https://fontawesome.com/license (Commercial License) Copyright 2022 Fonticons, Inc. --><path d="M256 512c141.4 0 256-114.6 256-256S397.4 0 256 0S0 114.6 0 256S114.6 512 256 512zM128 192c0-17.7 14.3-32 32-32H352c17.7 0 32 14.3 32 32v9.3L264.7 255.6c-2.7 1.2-5.7 1.9-8.7 1.9s-5.9-.6-8.7-1.9L128 201.3V192zm149.9 92.7L384 236.5V320c0 17.7-14.3 32-32 32H160c-17.7 0-32-14.3-32-32V236.5l106.1 48.3c6.9 3.1 14.3 4.8 21.9 4.8s15-1.6 21.9-4.8z"/></svg>