<svg xmlns="http://www.w3.org/2000/svg" viewBox="0 0 512 512"><!--! Font Awesome Pro 6.2.0 by @fontawesome - https://fontawesome.com License - https://fontawesome.com/license (Commercial License) Copyright 2022 Fonticons, Inc. --><path d="M256 0C397.4 0 512 114.6 512 256s-114.6 256-256 256S0 397.4 0 256S114.6 0 256 0zm64 368c13.3 0 24-10.7 24-24s-10.7-24-24-24H225.9L361 185c9.4-9.4 9.4-24.6 0-33.9s-24.6-9.4-33.9 0l-135 135V184c0-13.3-10.7-24-24-24s-24 10.7-24 24V344c0 13.3 10.7 24 24 24H320z"/></svg>