<svg xmlns="http://www.w3.org/2000/svg" viewBox="0 0 512 512"><!--! Font Awesome Pro 6.2.0 by @fontawesome - https://fontawesome.com License - https://fontawesome.com/license (Commercial License) Copyright 2022 Fonticons, Inc. --><path d="M256 512c141.4 0 256-114.6 256-256S397.4 0 256 0S0 114.6 0 256S114.6 512 256 512zM131.9 281c-29.4-29.8-29.4-78.2 0-108s77-29.8 106.4 0L256 191l17.7-18c29.4-29.8 77-29.8 106.4 0s29.4 78.2 0 108L278.5 384.2c-6.2 6.3-14.3 9.4-22.5 9.4s-16.3-3.1-22.5-9.4L131.9 281z"/></svg>