<svg xmlns="http://www.w3.org/2000/svg" viewBox="0 0 512 512"><!--! Font Awesome Pro 6.2.0 by @fontawesome - https://fontawesome.com License - https://fontawesome.com/license (Commercial License) Copyright 2022 Fonticons, Inc. --><path d="M512 256c0 141.4-114.6 256-256 256S0 397.4 0 256S114.6 0 256 0S512 114.6 512 256zM256 336c-26.5 0-48-21.5-48-48s21.5-48 48-48s48 21.5 48 48s-21.5 48-48 48zm-96-48c0 53 43 96 96 96s96-43 96-96c0-44-29.6-81.1-70-92.4l29.6-25.4c10.1-8.6 11.2-23.8 2.6-33.8s-23.8-11.2-33.8-2.6l-81.6 70C174.2 224.8 160 255.6 160 288z"/></svg>