<svg xmlns="http://www.w3.org/2000/svg" viewBox="0 0 512 512"><!--! Font Awesome Pro 6.2.0 by @fontawesome - https://fontawesome.com License - https://fontawesome.com/license (Commercial License) Copyright 2022 Fonticons, Inc. --><path d="M256 512c141.4 0 256-114.6 256-256S397.4 0 256 0S0 114.6 0 256S114.6 512 256 512zM184 128H288c44.2 0 80 35.8 80 80c0 36.6-24.6 67.5-58.2 77l45.4 60.6c8 10.6 5.8 25.6-4.8 33.6s-25.6 5.8-33.6-4.8L252 288H208v72c0 13.3-10.7 24-24 24s-24-10.7-24-24V264 152c0-13.3 10.7-24 24-24zm80 112h24c17.7 0 32-14.3 32-32s-14.3-32-32-32H208v64h56z"/></svg>