<svg xmlns="http://www.w3.org/2000/svg" viewBox="0 0 512 512"><!--! Font Awesome Pro 6.2.0 by @fontawesome - https://fontawesome.com License - https://fontawesome.com/license (Commercial License) Copyright 2022 Fonticons, Inc. --><path d="M256 512c141.4 0 256-114.6 256-256S397.4 0 256 0S0 114.6 0 256S114.6 512 256 512zM171.5 137.9L256 255l84.5-117.1c6.1-8.4 16.9-12 26.8-8.8s16.6 12.4 16.6 22.8V360c0 13.3-10.7 24-24 24s-24-10.7-24-24V226.2l-60.5 83.8c-4.5 6.2-11.8 9.9-19.5 9.9s-14.9-3.7-19.5-9.9L176 226.2V360c0 13.3-10.7 24-24 24s-24-10.7-24-24V152c0-10.4 6.7-19.6 16.6-22.8s20.7 .3 26.8 8.8z"/></svg>