<svg xmlns="http://www.w3.org/2000/svg" viewBox="0 0 512 512"><!--! Font Awesome Pro 6.2.0 by @fontawesome - https://fontawesome.com License - https://fontawesome.com/license (Commercial License) Copyright 2022 Fonticons, Inc. --><path d="M256 512c141.4 0 256-114.6 256-256S397.4 0 256 0S0 114.6 0 256S114.6 512 256 512zM184 128H312c9.9 0 18.8 6.1 22.4 15.3s1.1 19.7-6.2 26.4l-50.8 46.5c41.9 4.8 74.6 40.4 74.6 83.6c0 46.5-37.7 84.2-84.2 84.2H240c-30.1 0-58.1-15.6-73.9-41.2l-2.6-4.2c-7-11.3-3.5-26.1 7.8-33s26.1-3.5 33 7.8l2.6 4.2c7.1 11.5 19.6 18.4 33 18.4h27.8c20 0 36.2-16.2 36.2-36.2c0-20.1-16.3-36.3-36.4-36.2l-51.5 .3c-9.9 .1-18.9-6-22.5-15.2s-1.2-19.8 6.1-26.5L250.3 176H184c-13.3 0-24-10.7-24-24s10.7-24 24-24z"/></svg>