<svg xmlns="http://www.w3.org/2000/svg" viewBox="0 0 512 512"><!--! Font Awesome Pro 6.2.0 by @fontawesome - https://fontawesome.com License - https://fontawesome.com/license (Commercial License) Copyright 2022 Fonticons, Inc. --><path d="M256 512c141.4 0 256-114.6 256-256S397.4 0 256 0S0 114.6 0 256S114.6 512 256 512zM208 128H312c13.3 0 24 10.7 24 24s-10.7 24-24 24H228l-7.8 43 61.4 6.9c40.1 4.5 70.4 38.4 70.4 78.8c0 43.8-35.5 79.3-79.3 79.3h-36c-27.5 0-53.3-13.7-68.6-36.6l-4.1-6.1c-7.4-11-4.5-25.9 6.5-33.3s25.9-4.5 33.3 6.5l4.1 6.1c6.4 9.6 17.2 15.3 28.8 15.3h36c17.3 0 31.3-14 31.3-31.3c0-15.9-12-29.3-27.8-31.1l-86.9-9.8c-6.6-.7-12.6-4.2-16.6-9.5s-5.5-12.1-4.4-18.6l16-88c2.1-11.4 12-19.7 23.6-19.7z"/></svg>