<svg xmlns="http://www.w3.org/2000/svg" viewBox="0 0 512 512"><!--! Font Awesome Pro 6.2.0 by @fontawesome - https://fontawesome.com License - https://fontawesome.com/license (Commercial License) Copyright 2022 Fonticons, Inc. --><path d="M256 512c141.4 0 256-114.6 256-256S397.4 0 256 0S0 114.6 0 256S114.6 512 256 512zm0-384c9.1 0 17.4 5.1 21.5 13.3l104 208c5.9 11.9 1.1 26.3-10.7 32.2s-26.3 1.1-32.2-10.7L321.2 336H190.8l-17.4 34.7c-5.9 11.9-20.3 16.7-32.2 10.7s-16.7-20.3-10.7-32.2l104-208c4.1-8.1 12.4-13.3 21.5-13.3zm0 77.7L214.8 288h82.3L256 205.7z"/></svg>