<svg xmlns="http://www.w3.org/2000/svg" viewBox="0 0 512 512"><!--! Font Awesome Pro 6.2.0 by @fontawesome - https://fontawesome.com License - https://fontawesome.com/license (Commercial License) Copyright 2022 Fonticons, Inc. --><path d="M256 512c141.4 0 256-114.6 256-256S397.4 0 256 0S0 114.6 0 256S114.6 512 256 512zM176 256c0 44.2 35.8 80 80 80c35.8 0 66.1-23.5 76.3-56H280c-13.3 0-24-10.7-24-24s10.7-24 24-24h80c13.3 0 24 10.7 24 24c0 70.7-57.3 128-128 128s-128-57.3-128-128s57.3-128 128-128c32.8 0 62.7 12.3 85.3 32.6c9.9 8.8 10.7 24 1.9 33.9s-24 10.7-33.9 1.9C295.2 183.7 276.5 176 256 176c-44.2 0-80 35.8-80 80z"/></svg>