<svg xmlns="http://www.w3.org/2000/svg" viewBox="0 0 512 512"><!--! Font Awesome Pro 6.2.0 by @fontawesome - https://fontawesome.com License - https://fontawesome.com/license (Commercial License) Copyright 2022 Fonticons, Inc. --><path d="M256 512c141.4 0 256-114.6 256-256S397.4 0 256 0S0 114.6 0 256S114.6 512 256 512zM160 128h41.4l11.3-11.3c3-3 7.1-4.7 11.3-4.7h64c4.2 0 8.3 1.7 11.3 4.7L310.6 128H352c8.8 0 16 7.2 16 16s-7.2 16-16 16H160c-8.8 0-16-7.2-16-16s7.2-16 16-16zm0 64H352L338.4 354.7c-1.4 16.6-15.2 29.3-31.9 29.3H205.4c-16.6 0-30.5-12.8-31.9-29.3L160 192z"/></svg>