<svg xmlns="http://www.w3.org/2000/svg" viewBox="0 0 512 512"><!--! Font Awesome Pro 6.2.0 by @fontawesome - https://fontawesome.com License - https://fontawesome.com/license (Commercial License) Copyright 2022 Fonticons, Inc. --><path d="M256 512c141.4 0 256-114.6 256-256S397.4 0 256 0S0 114.6 0 256S114.6 512 256 512zM160 152c0-13.3 10.7-24 24-24h92c42 0 76 34 76 76c0 16.2-5.1 31.3-13.8 43.7C356.3 261.6 368 283.4 368 308c0 42-34 76-76 76H184c-13.3 0-24-10.7-24-24V256 152zm144 52c0-15.5-12.5-28-28-28H208v56h68c15.5 0 28-12.5 28-28zM208 336h84c15.5 0 28-12.5 28-28s-12.5-28-28-28H276 208v56z"/></svg>