<svg xmlns="http://www.w3.org/2000/svg" viewBox="0 0 512 512"><!--! Font Awesome Pro 6.2.0 by @fontawesome - https://fontawesome.com License - https://fontawesome.com/license (Commercial License) Copyright 2022 Fonticons, Inc. --><path d="M256 512c141.4 0 256-114.6 256-256S397.4 0 256 0S0 114.6 0 256S114.6 512 256 512zM208 96c8.8 0 16 7.2 16 16v16h64V112c0-8.8 7.2-16 16-16s16 7.2 16 16v16h32c17.7 0 32 14.3 32 32v32H128V160c0-17.7 14.3-32 32-32h32V112c0-8.8 7.2-16 16-16zM128 352V224H384V352c0 17.7-14.3 32-32 32H160c-17.7 0-32-14.3-32-32z"/></svg>