<svg xmlns="http://www.w3.org/2000/svg" viewBox="0 0 512 512"><!--! Font Awesome Pro 6.2.0 by @fontawesome - https://fontawesome.com License - https://fontawesome.com/license (Commercial License) Copyright 2022 Fonticons, Inc. --><path d="M512 256C512 114.6 397.4 0 256 0S0 114.6 0 256S114.6 512 256 512s256-114.6 256-256zM267.3 411.3c-6.2 6.2-16.4 6.2-22.6 0l-96-96c-4.6-4.6-5.9-11.5-3.5-17.4s8.3-9.9 14.8-9.9H352c6.5 0 12.3 3.9 14.8 9.9s1.1 12.9-3.5 17.4l-96 96zm0-310.6l96 96c4.6 4.6 5.9 11.5 3.5 17.4s-8.3 9.9-14.8 9.9H160c-6.5 0-12.3-3.9-14.8-9.9s-1.1-12.9 3.5-17.4l96-96c6.2-6.2 16.4-6.2 22.6 0zM313.4 192L256 134.6 198.6 192H313.4z"/></svg>