<svg xmlns="http://www.w3.org/2000/svg" viewBox="0 0 512 512"><!--! Font Awesome Pro 6.2.0 by @fontawesome - https://fontawesome.com License - https://fontawesome.com/license (Commercial License) Copyright 2022 Fonticons, Inc. --><path d="M256 0C397.4 0 512 114.6 512 256s-114.6 256-256 256S0 397.4 0 256S114.6 0 256 0zM160 198.6V336c0 8.8 7.2 16 16 16H313.4c12.5 0 22.6-10.1 22.6-22.6c0-6-2.4-11.8-6.6-16L296 280l66.3-66.3c3.6-3.6 5.7-8.5 5.7-13.7s-2-10-5.7-13.7l-36.7-36.7C322 146 317.1 144 312 144s-10 2-13.7 5.7L232 216l-33.4-33.4c-4.2-4.2-10-6.6-16-6.6c-12.5 0-22.6 10.1-22.6 22.6z"/></svg>