<svg xmlns="http://www.w3.org/2000/svg" viewBox="0 0 512 512"><!--! Font Awesome Pro 6.2.0 by @fontawesome - https://fontawesome.com License - https://fontawesome.com/license (Commercial License) Copyright 2022 Fonticons, Inc. --><path d="M256 0C114.6 0 0 114.6 0 256S114.6 512 256 512s256-114.6 256-256S397.4 0 256 0zM192 368c-13.3 0-24-10.7-24-24s10.7-24 24-24h94.1L151 185c-9.4-9.4-9.4-24.6 0-33.9s24.6-9.4 33.9 0l135 135V184c0-13.3 10.7-24 24-24s24 10.7 24 24V344c0 13.3-10.7 24-24 24H192z"/></svg>