<svg xmlns="http://www.w3.org/2000/svg" viewBox="0 0 512 512"><!--! Font Awesome Pro 6.2.0 by @fontawesome - https://fontawesome.com License - https://fontawesome.com/license (Commercial License) Copyright 2022 Fonticons, Inc. --><path d="M256 512c141.4 0 256-114.6 256-256S397.4 0 256 0S0 114.6 0 256S114.6 512 256 512zM192 168V288c0 35.3 28.7 64 64 64s64-28.7 64-64V168c0-13.3 10.7-24 24-24s24 10.7 24 24V288c0 61.9-50.1 112-112 112s-112-50.1-112-112V168c0-13.3 10.7-24 24-24s24 10.7 24 24z"/></svg>