<svg xmlns="http://www.w3.org/2000/svg" viewBox="0 0 512 512"><!--! Font Awesome Pro 6.2.0 by @fontawesome - https://fontawesome.com License - https://fontawesome.com/license (Commercial License) Copyright 2022 Fonticons, Inc. --><path d="M512 256c0 141.4-114.6 256-256 256S0 397.4 0 256S114.6 0 256 0S512 114.6 512 256zM267.3 100.7c-6.2-6.2-16.4-6.2-22.6 0l-96 96c-4.6 4.6-5.9 11.5-3.5 17.4s8.3 9.9 14.8 9.9H352c6.5 0 12.3-3.9 14.8-9.9s1.1-12.9-3.5-17.4l-96-96zm0 310.6l96-96c4.6-4.6 5.9-11.5 3.5-17.4s-8.3-9.9-14.8-9.9H160c-6.5 0-12.3 3.9-14.8 9.9s-1.1 12.9 3.5 17.4l96 96c6.2 6.2 16.4 6.2 22.6 0zM313.4 320L256 377.4 198.6 320H313.4z"/></svg>