<svg xmlns="http://www.w3.org/2000/svg" viewBox="0 0 512 512"><!--! Font Awesome Pro 6.2.0 by @fontawesome - https://fontawesome.com License - https://fontawesome.com/license (Commercial License) Copyright 2022 Fonticons, Inc. --><path d="M256 512c141.4 0 256-114.6 256-256S397.4 0 256 0S0 114.6 0 256S114.6 512 256 512zM203.7 138.3L304 283.2V152c0-13.3 10.7-24 24-24s24 10.7 24 24V360c0 10.5-6.8 19.8-16.8 22.9s-20.9-.6-26.9-9.2L208 228.8V360c0 13.3-10.7 24-24 24s-24-10.7-24-24V152c0-10.5 6.8-19.8 16.8-22.9s20.9 .6 26.9 9.2z"/></svg>