<svg xmlns="http://www.w3.org/2000/svg" viewBox="0 0 512 512"><!--! Font Awesome Pro 6.2.0 by @fontawesome - https://fontawesome.com License - https://fontawesome.com/license (Commercial License) Copyright 2022 Fonticons, Inc. --><path d="M512 256c0 141.4-114.6 256-256 256S0 397.4 0 256S114.6 0 256 0S512 114.6 512 256zM268 131.2c-7.4-4.3-16.5-4.3-24-.1l-56 32c-11.5 6.6-15.5 21.2-8.9 32.7s21.2 15.5 32.7 8.9L232 193.4V336H192c-13.3 0-24 10.7-24 24s10.7 24 24 24h64 64c13.3 0 24-10.7 24-24s-10.7-24-24-24H280V152c0-8.6-4.6-16.5-12-20.8z"/></svg>