<svg xmlns="http://www.w3.org/2000/svg" viewBox="0 0 512 512"><!--! Font Awesome Pro 6.2.0 by @fontawesome - https://fontawesome.com License - https://fontawesome.com/license (Commercial License) Copyright 2022 Fonticons, Inc. --><path d="M256 512c141.4 0 256-114.6 256-256S397.4 0 256 0S0 114.6 0 256S114.6 512 256 512zm57.6-380.8c5.9 4.4 8 12.3 5.1 19.1L280.3 240H344c6.8 0 12.8 4.2 15.1 10.6s.3 13.5-4.9 17.8l-136 112c-5.7 4.7-13.9 4.9-19.8 .4s-8-12.3-5.1-19.1L231.7 272H168c-6.8 0-12.8-4.2-15.1-10.6s-.3-13.5 4.9-17.8l136-112c5.7-4.7 13.9-4.9 19.8-.4z"/></svg>