<svg xmlns="http://www.w3.org/2000/svg" viewBox="0 0 512 512"><!--! Font Awesome Pro 6.2.0 by @fontawesome - https://fontawesome.com License - https://fontawesome.com/license (Commercial License) Copyright 2022 Fonticons, Inc. --><path d="M256 512c141.4 0 256-114.6 256-256S397.4 0 256 0S0 114.6 0 256S114.6 512 256 512zM170.1 152.3L256 251.4l85.9-99.1c8.7-10 23.8-11.1 33.9-2.4s11.1 23.8 2.4 33.9L280 297v79c0 13.3-10.7 24-24 24s-24-10.7-24-24V297L133.9 183.7c-8.7-10-7.6-25.2 2.4-33.9s25.2-7.6 33.9 2.4z"/></svg>