<svg xmlns="http://www.w3.org/2000/svg" viewBox="0 0 512 512"><!--! Font Awesome Pro 6.2.0 by @fontawesome - https://fontawesome.com License - https://fontawesome.com/license (Commercial License) Copyright 2022 Fonticons, Inc. --><path d="M256 512c141.4 0 256-114.6 256-256S397.4 0 256 0S0 114.6 0 256S114.6 512 256 512zm89.1-343.2l-73 74.3 75.3 102.7c7.8 10.7 5.5 25.7-5.2 33.5s-25.7 5.5-33.5-5.2L238 277.8l-30 30.5V360c0 13.3-10.7 24-24 24s-24-10.7-24-24V298.5 152c0-13.3 10.7-24 24-24s24 10.7 24 24v87.8L310.9 135.2c9.3-9.5 24.5-9.6 33.9-.3s9.6 24.5 .3 33.9z"/></svg>