<svg xmlns="http://www.w3.org/2000/svg" viewBox="0 0 512 512"><!--! Font Awesome Pro 6.2.0 by @fontawesome - https://fontawesome.com License - https://fontawesome.com/license (Commercial License) Copyright 2022 Fonticons, Inc. --><path d="M453.8 32.3L327 159l-1 1H233.9L361 33l1-1H448c2 0 3.9 .1 5.8 .3zM393.9 160L498 56c8.8 11 14 24.9 14 40v64H393.9zM201.9 32h92.1L167 159l-1 1H73.9L201 33l1-1zm-67.9 0L7 159l-1 1H0V96C0 60.7 28.7 32 64 32h70.1zM0 192H512V416c0 35.3-28.7 64-64 64H64c-35.3 0-64-28.7-64-64V192zm216.5 65.9c-5.2 2.8-8.5 8.2-8.5 14.1V400c0 5.9 3.2 11.3 8.5 14.1s11.5 2.5 16.4-.8l96-64c4.4-3 7.1-8 7.1-13.3s-2.7-10.3-7.1-13.3l-96-64c-4.9-3.3-11.2-3.6-16.4-.8z"/></svg>