<svg xmlns="http://www.w3.org/2000/svg" viewBox="0 0 640 512"><!--! Font Awesome Pro 6.2.0 by @fontawesome - https://fontawesome.com License - https://fontawesome.com/license (Commercial License) Copyright 2022 Fonticons, Inc. --><path d="M224 112c0-8.8 7.2-16 16-16h32 96 96 32c8.8 0 16 7.2 16 16s-7.2 16-16 16H480v32h76.6c9.5 0 18.7-2.8 26.6-8.1l31.9-21.3c4.9-3.3 11.2-3.6 16.4-.8s8.5 8.2 8.5 14.1V336c0 5.9-3.2 11.3-8.5 14.1s-11.5 2.5-16.4-.8l-31.9-21.3c-7.9-5.3-17.1-8.1-26.6-8.1H108.3c-10.2 0-20.3-1.9-29.7-5.7L10.1 286.9C4 284.4 0 278.5 0 272V208c0-6.5 4-12.4 10.1-14.9l68.6-27.4c9.4-3.8 19.5-5.7 29.7-5.7H256V128H240c-8.8 0-16-7.2-16-16zm224 16H384v32h64V128zm-96 0H288v32h64V128zM272 264c13.3 0 24-10.7 24-24s-10.7-24-24-24s-24 10.7-24 24s10.7 24 24 24zm120-24c0-13.3-10.7-24-24-24s-24 10.7-24 24s10.7 24 24 24s24-10.7 24-24zm72 24c13.3 0 24-10.7 24-24s-10.7-24-24-24s-24 10.7-24 24s10.7 24 24 24z"/></svg>