<svg xmlns="http://www.w3.org/2000/svg" viewBox="0 0 576 512"><!--! Font Awesome Pro 6.2.0 by @fontawesome - https://fontawesome.com License - https://fontawesome.com/license (Commercial License) Copyright 2022 Fonticons, Inc. --><path d="M41.4 9.4C53.9-3.1 74.1-3.1 86.6 9.4l96 96 64 64 160 160 64 64 64 64c12.5 12.5 12.5 32.8 0 45.3s-32.8 12.5-45.3 0L434.7 448H384c-17.7 0-32-14.3-32-32V365.3L210.7 224H160c-17.7 0-32-14.3-32-32V141.3L41.4 54.6c-12.5-12.5-12.5-32.8 0-45.3zm0 224c12.5-12.5 32.8-12.5 45.3 0l64 64 96 96 64 64c12.5 12.5 12.5 32.8 0 45.3s-32.8 12.5-45.3 0L210.7 448H128c-17.7 0-32-14.3-32-32V333.3L41.4 278.6c-12.5-12.5-12.5-32.8 0-45.3zM310.6 9.4l32 32 64 64 64 64 64 64 32 32c12.5 12.5 12.5 32.8 0 45.3s-32.8 12.5-45.3 0L498.7 288H448c-17.7 0-32-14.3-32-32V205.3L370.7 160H320c-17.7 0-32-14.3-32-32V77.3L265.4 54.6c-12.5-12.5-12.5-32.8 0-45.3s32.8-12.5 45.3 0z"/></svg>