<svg xmlns="http://www.w3.org/2000/svg" viewBox="0 0 384 512"><!--! Font Awesome Pro 6.2.0 by @fontawesome - https://fontawesome.com License - https://fontawesome.com/license (Commercial License) Copyright 2022 Fonticons, Inc. --><path d="M192 0c-41.8 0-77.4 26.7-90.5 64H64C28.7 64 0 92.7 0 128V448c0 35.3 28.7 64 64 64H320c35.3 0 64-28.7 64-64V128c0-35.3-28.7-64-64-64H282.5C269.4 26.7 233.8 0 192 0zm0 128c-17.7 0-32-14.3-32-32s14.3-32 32-32s32 14.3 32 32s-14.3 32-32 32zm-88 68h72c33.1 0 60 26.9 60 60c0 25.5-15.9 47.2-38.3 55.9l43 40.3 33.8-31c8.1-7.5 20.8-6.9 28.3 1.2s6.9 20.8-1.2 28.3L270 379.7l31.7 29.7c8.1 7.6 8.5 20.2 .9 28.3s-20.2 8.5-28.3 .9l-33.9-31.8-34.9 32c-8.1 7.5-20.8 6.9-28.3-1.2s-6.9-20.8 1.2-28.3l32.6-29.9-64.8-60.8c-.9-.8-1.6-1.7-2.3-2.6H124v44c0 11-9 20-20 20s-20-9-20-20V296 216c0-11 9-20 20-20zm72 80c11 0 20-9 20-20s-9-20-20-20H124v40h52z"/></svg>