<svg xmlns="http://www.w3.org/2000/svg" viewBox="0 0 448 512"><!--! Font Awesome Pro 6.2.0 by @fontawesome - https://fontawesome.com License - https://fontawesome.com/license (Commercial License) Copyright 2022 Fonticons, Inc. --><path d="M448 224c0 123.7-100.3 224-224 224S0 347.7 0 224S100.3 0 224 0S448 100.3 448 224zM224 96c-13.3 0-24 10.7-24 24V224c0 6.4 2.5 12.5 7 17l48 48c9.4 9.4 24.6 9.4 33.9 0s9.4-24.6 0-33.9l-41-41V120c0-13.3-10.7-24-24-24zm0 384c96.4 0 180.3-53.3 224-132V464c0 26.5-21.5 48-48 48H48c-26.5 0-48-21.5-48-48V348c43.7 78.7 127.6 132 224 132z"/></svg>