<svg xmlns="http://www.w3.org/2000/svg" viewBox="0 0 512 512"><!--! Font Awesome Pro 6.2.0 by @fontawesome - https://fontawesome.com License - https://fontawesome.com/license (Commercial License) Copyright 2022 Fonticons, Inc. --><path d="M96 320c-53 0-96-43-96-96c0-42.5 27.6-78.6 65.9-91.2C64.7 126.1 64 119.1 64 112C64 50.1 114.1 0 176 0c43.1 0 80.5 24.3 99.2 60c14.7-17.1 36.5-28 60.8-28c44.2 0 80 35.8 80 80c0 5.5-.6 10.8-1.6 16c.5 0 1.1 0 1.6 0c53 0 96 43 96 96s-43 96-96 96H96zM64 352c13.3 0 24 10.7 24 24v16h16c13.3 0 24 10.7 24 24s-10.7 24-24 24H88v16c0 13.3-10.7 24-24 24s-24-10.7-24-24V440H24c-13.3 0-24-10.7-24-24s10.7-24 24-24H40V376c0-13.3 10.7-24 24-24zm192 32c13.3 0 24 10.7 24 24v16h16c13.3 0 24 10.7 24 24s-10.7 24-24 24H280v16c0 13.3-10.7 24-24 24s-24-10.7-24-24V472H216c-13.3 0-24-10.7-24-24s10.7-24 24-24h16V408c0-13.3 10.7-24 24-24zm216-8v16h16c13.3 0 24 10.7 24 24s-10.7 24-24 24H472v16c0 13.3-10.7 24-24 24s-24-10.7-24-24V440H408c-13.3 0-24-10.7-24-24s10.7-24 24-24h16V376c0-13.3 10.7-24 24-24s24 10.7 24 24z"/></svg>