<svg xmlns="http://www.w3.org/2000/svg" viewBox="0 0 640 512"><!--! Font Awesome Pro 6.2.0 by @fontawesome - https://fontawesome.com License - https://fontawesome.com/license (Commercial License) Copyright 2022 Fonticons, Inc. --><path d="M513.2 0c3.7 0 7.3 .2 10.9 .5c7 .6 12.8 5.7 14.3 12.6s-1.7 13.9-7.8 17.4c-26.9 15.1-44.9 43.6-44.9 76.1c0 48.1 39.4 87.4 88.4 87.4c5.2 0 10.3-.4 15.2-1.3c6.9-1.2 13.8 2.3 17 8.6s1.9 13.9-3.2 18.7c-23.3 22.4-55 36.1-89.9 36.1c-4.1 0-8.2-.2-12.3-.6c-11.1-23.1-29.9-41.8-53.1-52.7c-1.9-41.7-26.7-77.5-62.1-95.1C395.5 46.5 449 0 513.2 0zm-33.3 304c0 44.2-35.8 80-80 80H352c0-4.8-.8-9.6-2.4-14.4c-6-17.5-22.1-29.2-40.3-29.2H293l26-53.2c9-18.3 4.2-40.6-11.3-53.4s-37.8-12.9-53.5-.1L112 349.9c-8.9 7.3-14.3 17.6-15.7 28.6C58.9 365.5 32 329.9 32 287.9c0-47.6 34.6-87 80-94.6l0-1.3c0-53 43-96 96-96c34.9 0 65.4 18.6 82.2 46.4c13-9.1 28.8-14.4 45.8-14.4c44.2 0 80 35.8 80 80c0 5.9-.6 11.7-1.9 17.2c37.4 6.7 65.8 39.4 65.8 78.7zM291.8 278.9L249.3 368H304c6.7 0 12.7 4.2 15 10.5s.4 13.4-4.7 17.7l-133.4 112c-5.8 4.8-14.1 5-20.1 .4s-7.9-12.7-4.7-19.5L198.6 400H143.9c-6.7 0-12.7-4.2-15-10.5s-.4-13.4 4.7-17.7L267 259.7c5.8-4.8 14.1-5 20.1-.4s7.9 12.7 4.7 19.5z"/></svg>