<svg xmlns="http://www.w3.org/2000/svg" viewBox="0 0 576 512"><!--! Font Awesome Pro 6.2.0 by @fontawesome - https://fontawesome.com License - https://fontawesome.com/license (Commercial License) Copyright 2022 Fonticons, Inc. --><path d="M128 320c-53 0-96-43-96-96c0-42.5 27.6-78.6 65.9-91.2C96.7 126.1 96 119.1 96 112C96 50.1 146.1 0 208 0c43.1 0 80.5 24.3 99.2 60c14.7-17.1 36.5-28 60.8-28c44.2 0 80 35.8 80 80c0 5.5-.6 10.8-1.6 16c.5 0 1.1 0 1.6 0c53 0 96 43 96 96s-43 96-96 96H128zm-14.5 33.9c12.2 5.2 17.8 19.3 12.6 31.5l-48 112c-5.2 12.2-19.3 17.8-31.5 12.6s-17.8-19.3-12.6-31.5l48-112c5.2-12.2 19.3-17.8 31.5-12.6zm272 0c12.2 5.2 17.8 19.3 12.6 31.5l-48 112c-5.2 12.2-19.3 17.8-31.5 12.6s-17.8-19.3-12.6-31.5l48-112c5.2-12.2 19.3-17.8 31.5-12.6zM248 376v16h16c13.3 0 24 10.7 24 24s-10.7 24-24 24H248v16c0 13.3-10.7 24-24 24s-24-10.7-24-24V440H184c-13.3 0-24-10.7-24-24s10.7-24 24-24h16V376c0-13.3 10.7-24 24-24s24 10.7 24 24zm256 0v16h16c13.3 0 24 10.7 24 24s-10.7 24-24 24H504v16c0 13.3-10.7 24-24 24s-24-10.7-24-24V440H440c-13.3 0-24-10.7-24-24s10.7-24 24-24h16V376c0-13.3 10.7-24 24-24s24 10.7 24 24z"/></svg>