<svg xmlns="http://www.w3.org/2000/svg" viewBox="0 0 640 512"><!--! Font Awesome Pro 6.2.0 by @fontawesome - https://fontawesome.com License - https://fontawesome.com/license (Commercial License) Copyright 2022 Fonticons, Inc. --><path d="M352 160c0 15.2 2.1 30 6.1 43.9c36.8 17.2 64.1 51.4 71.8 92.5c9.2 3.5 18 8.1 26.1 13.6c17.3 6.5 36.1 10 55.6 10c43.2 0 82.5-17.3 111.2-45.3c5-4.9 6.3-12.5 3.1-18.7s-10.1-9.7-17-8.5c-6.5 1.1-13.2 1.7-20 1.7c-64.3 0-116.5-52.3-116.5-116.9c0-43.7 23.9-81.8 59.3-101.9c6.1-3.5 9.2-10.5 7.7-17.3S532 1.2 525.1 .6c-4.5-.4-9-.6-13.5-.6C423.4 0 352 71.7 352 160zM74.9 288c18-37.9 56.5-64 101.2-64c12.9 0 25.3 2.2 36.8 6.2C236.1 206.6 268.3 192 304 192c5.4 0 10.7 .3 15.9 1l0-.9c0-35.3-28.6-64-64-64c-7.4 0-14.6 1.3-21.2 3.6c-11.5-30.1-40.6-51.6-74.8-51.6c-38.9 0-71.3 27.8-78.5 64.6c-3.1-.4-6.3-.6-9.5-.6c-39.8 0-72 32.2-72 72s32.2 72 72 72c1 0 1.9 0 2.9-.1zM32 431.9c0 44.2 35.8 80 80 80H383.9c53 0 96-43 96-96c0-47.6-34.6-87-80-94.6l0-1.3c0-53-43-96-96-96c-34.9 0-65.4 18.6-82.2 46.4C208.8 261.3 193 256 176 256c-44.2 0-80 35.8-80 80c0 5.9 .6 11.7 1.9 17.2C60.4 359.9 32 392.6 32 431.9z"/></svg>