<svg xmlns="http://www.w3.org/2000/svg" viewBox="0 0 640 512"><!--! Font Awesome Pro 6.2.0 by @fontawesome - https://fontawesome.com License - https://fontawesome.com/license (Commercial License) Copyright 2022 Fonticons, Inc. --><path d="M122.4 1.2C127.6-.9 133.4-.2 137.9 3l70.3 50.3L278.5 3c4.5-3.2 10.3-3.9 15.4-1.8s8.8 6.7 9.7 12.2l14.1 85.3 30 5c-25.9 10.7-46.1 32.5-54.7 59.5c-22.9-43.2-75.4-62.7-121.5-43.6c-49 20.3-72.2 76.4-52 125.4c18.3 44.3 66 67.5 111.1 56.6c-36.3 18.2-62.8 53.3-69.1 94.9l-23.6 16.9c-4.5 3.2-10.3 3.9-15.4 1.8s-8.8-6.7-9.7-12.2L98.7 317.7 13.4 303.6c-5.5-.9-10.1-4.6-12.2-9.7S-.2 282.9 3 278.5l50.3-70.3L3 137.9c-3.2-4.5-3.9-10.3-1.8-15.4s6.7-8.8 12.2-9.7L98.7 98.7l14.1-85.3c.9-5.5 4.6-10.1 9.7-12.2zM149 232.7c-13.5-32.7 2-70.1 34.6-83.6s70.1 2 83.6 34.6s-2 70.1-34.6 83.6s-70.1-2-83.6-34.6zM594.6 283c-18.9-35.1-56-59-98.7-59c-12.9 0-25.3 2.2-36.8 6.2C435.9 206.6 403.7 192 368 192c-16.7 0-32.6 3.2-47.3 9c-.4-2.9-.6-5.9-.6-8.9c0-35.3 28.6-64 64-64c7.4 0 14.6 1.3 21.2 3.6c11.5-30.1 40.6-51.6 74.8-51.6c38.9 0 71.3 27.8 78.5 64.6c3.1-.4 6.3-.6 9.5-.6c39.8 0 72 32.2 72 72c0 30.4-18.8 56.3-45.4 66.9zm45.3 148.9c0 44.2-35.8 80-80 80H288c-53 0-96-43-96-96c0-47.6 34.6-87 80-94.6l0-1.3c0-53 43-96 96-96c34.9 0 65.4 18.6 82.2 46.4c13-9.1 28.8-14.4 45.8-14.4c44.2 0 80 35.8 80 80c0 5.9-.6 11.7-1.9 17.2c37.4 6.7 65.8 39.4 65.8 78.7z"/></svg>