<svg xmlns="http://www.w3.org/2000/svg" viewBox="0 0 640 512"><!--! Font Awesome Pro 6.2.0 by @fontawesome - https://fontawesome.com License - https://fontawesome.com/license (Commercial License) Copyright 2022 Fonticons, Inc. --><path d="M122.4 1.2C127.6-.9 133.4-.2 137.9 3l70.3 50.3L278.5 3c4.5-3.2 10.3-3.9 15.4-1.8s8.8 6.7 9.7 12.2l14.1 85.3 14.5 2.4c-22.9 6.6-43.1 19.5-58.8 36.7c-26.7-24.7-66.2-33.1-102-18.2c-49 20.3-72.2 76.4-52 125.4c8.8 21.3 24.5 37.8 43.4 47.9c-1.9 8.7-2.9 17.8-2.9 27.1c0 23.7 6.4 45.9 17.7 64.9l-39.8 28.5c-4.5 3.2-10.3 3.9-15.4 1.8s-8.8-6.7-9.7-12.2L98.7 317.7 13.4 303.6c-5.5-.9-10.1-4.6-12.2-9.7S-.2 282.9 3 278.5l50.3-70.3L3 137.9c-3.2-4.5-3.9-10.3-1.8-15.4s6.7-8.8 12.2-9.7L98.7 98.7l14.1-85.3c.9-5.5 4.6-10.1 9.7-12.2zM183.7 149c25.3-10.5 53.4-3.6 71.1 15.2c-5.9 11.2-10.2 23.3-12.6 36.2c-29.7 11.4-54.1 33.6-68.4 61.7c-10.7-6.8-19.5-16.9-24.7-29.5c-13.5-32.7 2-70.1 34.6-83.6zM639.9 335.9c0 44.2-35.8 80-80 80H514.4c12.3-11.7 16.8-29.9 11.2-46.4c-6-17.5-22.1-29.2-40.3-29.2H469l26-53.2c9-18.3 4.2-40.6-11.3-53.4s-37.8-12.9-53.5-.1L288 349.9c-14.1 11.6-19.6 31-13.6 48.5c2.3 6.8 6.2 12.7 11.1 17.4c-51.9-1.3-93.5-43.8-93.5-95.9c0-47.6 34.6-87 80-94.6l0-1.3c0-53 43-96 96-96c34.9 0 65.4 18.6 82.2 46.4c13-9.1 28.8-14.4 45.8-14.4c44.2 0 80 35.8 80 80c0 5.9-.6 11.7-1.9 17.2c37.4 6.7 65.8 39.4 65.8 78.7zM469.3 277.2L425.5 368h56.8c6.7 0 12.8 4.2 15 10.6s.4 13.4-4.8 17.7L355.4 510.1c-5.8 4.8-14.1 4.9-20.1 .3s-7.8-12.8-4.6-19.6L374.5 400H317.7c-6.7 0-12.8-4.2-15.1-10.6s-.4-13.4 4.8-17.7L444.6 257.9c5.8-4.8 14.1-4.9 20.1-.3s7.8 12.8 4.6 19.6z"/></svg>