<svg xmlns="http://www.w3.org/2000/svg" viewBox="0 0 512 512"><!--! Font Awesome Pro 6.2.0 by @fontawesome - https://fontawesome.com License - https://fontawesome.com/license (Commercial License) Copyright 2022 Fonticons, Inc. --><path d="M387.1 22.6C371.8 7.3 350.5 1.1 329.2 .1c-21.6-1-45.8 3-70.5 11C209.1 27 153.8 59.7 106.8 106.8S27 209.1 11.1 258.7c-7.9 24.7-12 48.9-11 70.5c1 21.3 7.2 42.6 22.5 57.9l49.5 49.5c48.3 48.3 113.9 75.5 182.3 75.5c142.3 0 257.7-115.4 257.7-257.7c0-68.4-27.2-133.9-75.5-182.3L387.1 22.6zm9.6 182.1c6.2-6.2 16.4-6.2 22.6 0l32 32c6.2 6.2 6.2 16.4 0 22.6s-16.4 6.2-22.6 0l-32-32c-6.2-6.2-6.2-16.4 0-22.6zm-56 136c6.2-6.2 16.4-6.2 22.6 0l32 32c6.2 6.2 6.2 16.4 0 22.6s-16.4 6.2-22.6 0l-32-32c-6.2-6.2-6.2-16.4 0-22.6zm-136 56c6.2-6.2 16.4-6.2 22.6 0l32 32c6.2 6.2 6.2 16.4 0 22.6s-16.4 6.2-22.6 0l-32-32c-6.2-6.2-6.2-16.4 0-22.6zM167 167c-13 13-43 45.6-64.8 79.3c-11 17-19.1 33.1-22.5 46.6c-3.4 13.5-1.1 20.6 2.9 24.6s11 6.2 24.6 2.9c13.4-3.4 29.6-11.5 46.6-22.5C187.4 276.1 220 246.1 233 233c12-12 42.2-44.5 64.3-78.4c11.1-17.1 19.5-33.4 23-47c3.5-13.7 1.3-20.9-2.9-25s-11.3-6.4-25-2.9c-13.6 3.5-30 11.8-47 23C211.5 124.8 179 154.9 167 167zm173.1-107c15.7 15.7 16 37 11.2 55.6c-4.8 18.7-15.3 38.5-27.2 56.6c-23.8 36.5-55.7 70.8-68.5 83.5c-13.9 13.9-48.3 45.6-84.6 69.1c-18.1 11.7-37.7 22-56.2 26.6c-18.4 4.6-39.4 4.3-54.9-11.3s-15.9-36.6-11.3-54.9c4.6-18.5 15-38.1 26.6-56.2c23.5-36.4 55.2-70.8 69.1-84.6c12.8-12.8 47-44.7 83.5-68.5C246 64 265.8 53.4 284.5 48.7c18.6-4.7 39.8-4.5 55.6 11.2z"/></svg>