<svg xmlns="http://www.w3.org/2000/svg" viewBox="0 0 512 512"><!--! Font Awesome Pro 6.2.0 by @fontawesome - https://fontawesome.com License - https://fontawesome.com/license (Commercial License) Copyright 2022 Fonticons, Inc. --><path d="M329.4 9.4c12.5-12.5 32.8-12.5 45.3 0L400 34.7 425.4 9.4c12.5-12.5 32.8-12.5 45.3 0s12.5 32.8 0 45.3L445.3 80l25.4 25.4c12.5 12.5 12.5 32.8 0 45.3s-32.8 12.5-45.3 0L400 125.3l-25.4 25.4c-12.5 12.5-32.8 12.5-45.3 0s-12.5-32.8 0-45.3L354.7 80 329.4 54.6c-12.5-12.5-12.5-32.8 0-45.3zM136 80c0-13.3-10.7-24-24-24S88 66.7 88 80s10.7 24 24 24s24-10.7 24-24zm56 0c0 32.8-19.7 61-48 73.3V358.7c28.3 12.3 48 40.5 48 73.3c0 44.2-35.8 80-80 80s-80-35.8-80-80c0-32.8 19.7-61 48-73.3V153.3C51.7 141 32 112.8 32 80C32 35.8 67.8 0 112 0s80 35.8 80 80zM112 456c13.3 0 24-10.7 24-24s-10.7-24-24-24s-24 10.7-24 24s10.7 24 24 24zm288 0c13.3 0 24-10.7 24-24s-10.7-24-24-24s-24 10.7-24 24s10.7 24 24 24zm0 56c-44.2 0-80-35.8-80-80c0-32.8 19.7-61 48-73.3V224c0-17.7 14.3-32 32-32s32 14.3 32 32V358.7c28.3 12.3 48 40.5 48 73.3c0 44.2-35.8 80-80 80z"/></svg>