<svg xmlns="http://www.w3.org/2000/svg" viewBox="0 0 384 512"><!--! Font Awesome Pro 6.2.0 by @fontawesome - https://fontawesome.com License - https://fontawesome.com/license (Commercial License) Copyright 2022 Fonticons, Inc. --><path d="M103.7 11.2C109.8 4.1 118.7 0 128 0H256c9.3 0 18.2 4.1 24.3 11.2l96 112c7 8.2 9.4 19.3 6.5 29.6l-96 336C282.8 502.5 270.3 512 256 512H128c-14.3 0-26.8-9.5-30.8-23.2l-96-336c-3-10.3-.5-21.5 6.5-29.6l96-112zM216 120c0-13.3-10.7-24-24-24s-24 10.7-24 24v40H120c-13.3 0-24 10.7-24 24s10.7 24 24 24h48V328c0 13.3 10.7 24 24 24s24-10.7 24-24V208h48c13.3 0 24-10.7 24-24s-10.7-24-24-24H216V120z"/></svg>