<svg xmlns="http://www.w3.org/2000/svg" viewBox="0 0 640 512"><!--! Font Awesome Pro 6.2.0 by @fontawesome - https://fontawesome.com License - https://fontawesome.com/license (Commercial License) Copyright 2022 Fonticons, Inc. --><path d="M288 432V416H128c-17.7 0-32 14.3-32 32s14.3 32 32 32H304c-10-13.4-16-30-16-48zM64 32C28.7 32 0 60.7 0 96V320c0 35.3 28.7 64 64 64H288V320H64V96H288V80c0-18 6-34.6 16-48H64zm304 0c-26.5 0-48 21.5-48 48V432c0 26.5 21.5 48 48 48H592c26.5 0 48-21.5 48-48V80c0-26.5-21.5-48-48-48H368zM544 320c0-35.3-28.7-64-64-64s-64 28.7-64 64s28.7 64 64 64s64-28.7 64-64zm32 0c0 53-43 96-96 96s-96-43-96-96s43-96 96-96s96 43 96 96zM512 128c0 17.7-14.3 32-32 32s-32-14.3-32-32s14.3-32 32-32s32 14.3 32 32z"/></svg>