<svg xmlns="http://www.w3.org/2000/svg" viewBox="0 0 640 512"><!--! Font Awesome Pro 6.2.0 by @fontawesome - https://fontawesome.com License - https://fontawesome.com/license (Commercial License) Copyright 2022 Fonticons, Inc. --><path d="M176 0h80V112c0 5.9 3.2 11.3 8.5 14.1s11.5 2.5 16.4-.8L320 99.2l39.1 26.1c4.9 3.3 11.2 3.6 16.4 .8s8.5-8.2 8.5-14.1V0h80c26.5 0 48 21.5 48 48V208c0 26.5-21.5 48-48 48H176c-26.5 0-48-21.5-48-48V48c0-26.5 21.5-48 48-48zM0 416c0-53 43-96 96-96H544c53 0 96 43 96 96s-43 96-96 96H96c-53 0-96-43-96-96zm160 0c0-17.7-14.3-32-32-32s-32 14.3-32 32s14.3 32 32 32s32-14.3 32-32zm160 32c17.7 0 32-14.3 32-32s-14.3-32-32-32s-32 14.3-32 32s14.3 32 32 32zm224-32c0-17.7-14.3-32-32-32s-32 14.3-32 32s14.3 32 32 32s32-14.3 32-32z"/></svg>