<svg xmlns="http://www.w3.org/2000/svg" viewBox="0 0 576 512"><!--! Font Awesome Pro 6.2.0 by @fontawesome - https://fontawesome.com License - https://fontawesome.com/license (Commercial License) Copyright 2022 Fonticons, Inc. --><path d="M112 96h16V40c0-22.1 17.9-40 40-40H280c22.1 0 40 17.9 40 40V96h16c21.4 0 40.3 14.2 46.2 34.8l18.3 64C318.3 209.7 256 281.6 256 368c0 16.6 2.3 32.7 6.6 48H48c-15.1 0-29.3-7.1-38.3-19.1s-12-27.6-7.8-42.1l64-224C71.7 110.2 90.6 96 112 96zM285.5 465.6C277.9 492.4 253.2 512 224 512c-35.3 0-64-28.7-64-64H275.2c3.1 6.1 6.6 12 10.3 17.6zM272 96V48H176V96h96zM432 512c-79.5 0-144-64.5-144-144s64.5-144 144-144s144 64.5 144 144s-64.5 144-144 144zm16-208c0-8.8-7.2-16-16-16s-16 7.2-16 16v48H368c-8.8 0-16 7.2-16 16s7.2 16 16 16h48v48c0 8.8 7.2 16 16 16s16-7.2 16-16V384h48c8.8 0 16-7.2 16-16s-7.2-16-16-16H448V304z"/></svg>