<svg xmlns="http://www.w3.org/2000/svg" viewBox="0 0 512 512"><!--! Font Awesome Pro 6.2.0 by @fontawesome - https://fontawesome.com License - https://fontawesome.com/license (Commercial License) Copyright 2022 Fonticons, Inc. --><path d="M160 54.9C160 24.6 184.6 0 214.9 0c5 0 9.1 4.1 9.1 9.1C224 39.4 199.4 64 169.1 64c-5 0-9.1-4.1-9.1-9.1zM32 171.4C32 127.8 52.4 80 96 80c15.6 0 34.1 5.9 47.2 11c10.7 4.2 22.8 4.2 33.5 0c13.1-5.1 31.6-11 47.2-11c43.6 0 64 47.8 64 91.4c0 7-.4 13.9-1.2 20.6H33.2c-.8-6.7-1.2-13.5-1.2-20.6zM319 192c.7-6.7 1-13.6 1-20.6c0-26.1-6-55.1-20.3-78.6c-2.7-4.4-5.7-8.7-9-12.7c15 .6 32.2 6.1 44.6 11c10.7 4.2 22.8 4.2 33.5 0c13.1-5.1 31.6-11 47.2-11c43.6 0 64 47.8 64 91.4c0 7-.4 13.9-1.2 20.6H319zM406.9 0c5 0 9.1 4.1 9.1 9.1C416 39.4 391.4 64 361.1 64c-5 0-9.1-4.1-9.1-9.1C352 24.6 376.6 0 406.9 0zM0 272c0-26.5 21.5-48 48-48H464c26.5 0 48 21.5 48 48v80H0V272zM0 384H512v80c0 26.5-21.5 48-48 48H48c-26.5 0-48-21.5-48-48V384zm80-96c0-8.8-7.2-16-16-16s-16 7.2-16 16s7.2 16 16 16s16-7.2 16-16zM64 464c8.8 0 16-7.2 16-16s-7.2-16-16-16s-16 7.2-16 16s7.2 16 16 16zM464 288c0-8.8-7.2-16-16-16s-16 7.2-16 16s7.2 16 16 16s16-7.2 16-16zM448 464c8.8 0 16-7.2 16-16s-7.2-16-16-16s-16 7.2-16 16s7.2 16 16 16z"/></svg>