<svg xmlns="http://www.w3.org/2000/svg" viewBox="0 0 512 512"><!--! Font Awesome Pro 6.2.0 by @fontawesome - https://fontawesome.com License - https://fontawesome.com/license (Commercial License) Copyright 2022 Fonticons, Inc. --><path d="M445.3 224H384c-17.7 0-32 14.3-32 32s14.3 32 32 32h61.3C431.9 368.4 368.4 431.9 288 445.3V384c0-17.7-14.3-32-32-32s-32 14.3-32 32v61.3C143.6 431.9 80.1 368.4 66.7 288H128c17.7 0 32-14.3 32-32s-14.3-32-32-32H66.7C80.1 143.6 143.6 80.1 224 66.7V128c0 17.7 14.3 32 32 32s32-14.3 32-32V66.7C368.4 80.1 431.9 143.6 445.3 224zM0 256C0 397.4 114.6 512 256 512s256-114.6 256-256S397.4 0 256 0S0 114.6 0 256z"/></svg>