<svg xmlns="http://www.w3.org/2000/svg" viewBox="0 0 448 512"><!--! Font Awesome Pro 6.2.0 by @fontawesome - https://fontawesome.com License - https://fontawesome.com/license (Commercial License) Copyright 2022 Fonticons, Inc. --><path d="M55.2 17.7C60.6 6.8 71.7 0 83.8 0H364.2c12.1 0 23.2 6.8 28.6 17.7L416 64c17.7 0 32 14.3 32 32s-14.3 32-32 32H32C14.3 128 0 113.7 0 96S14.3 64 32 64L55.2 17.7zM74.7 453.8L48 160H400L373.3 453.8c-3 33-30.6 58.2-63.7 58.2H138.4c-33.1 0-60.7-25.2-63.7-58.2zM323.8 290.9c1.7-18.7-13.1-34.9-31.9-34.9H156c-18.8 0-33.6 16.2-31.9 34.9l8.7 96c1.5 16.5 15.3 29.1 31.9 29.1H283.2c16.6 0 30.4-12.6 31.9-29.1l8.7-96z"/></svg>