<svg xmlns="http://www.w3.org/2000/svg" viewBox="0 0 640 512"><!--! Font Awesome Pro 6.2.0 by @fontawesome - https://fontawesome.com License - https://fontawesome.com/license (Commercial License) Copyright 2022 Fonticons, Inc. --><path d="M288 16c0-8.8-7.2-16-16-16s-16 7.2-16 16V40c0 30.9 25.1 56 56 56h8 8 24l-50.4 12.6c-8 2-13.6 9.2-13.6 17.4c0 9.9 8 18 18 18h38l-9.6 32H228.3c-.8 0-1.7 0-2.5 0c-.6 0-1.2 0-1.7 0H160 145.9h-7.9c-54.3 0-99.5 41.8-103.7 96l-2.3 30.1c-1 13.2 8.9 24.8 22.1 25.8c13 1 24.4-8.6 25.7-21.5c2.4 3.3 5.2 6.5 8.1 9.5c9 9 9 23.5 2.4 34.4c-17.4 28.6-21.5 63.9-10 96.3l15.5 44c4.5 12.8 16.6 21.4 30.2 21.4H160c22.1 0 37.5-21.8 30.2-42.6l-19.3-54.7c-2.2-6.2-.6-13 4-17.7l10.6-10.6c12.1-12.1 19.8-27.9 21.9-44.8c21 16.5 47.5 26.4 76.3 26.4H320V480c0 17.7 14.3 32 32 32h32c17.7 0 32-14.3 32-32V368 304l26.7-80H448h50.7c25 0 45.3-20.3 45.3-45.3c0-1.2 0-2.4-.1-3.6c2.6 .5 5.4 .8 8.1 .8c22.1 0 40-17.9 40-40s-17.9-40-40-40c-19.6 0-35.9 14.1-39.3 32.7L475.4 91.4c-.6-.6-1.1-1.1-1.7-1.6C491.7 80.4 504 61.7 504 40V16c0-8.8-7.2-16-16-16s-16 7.2-16 16V40c0 13.3-10.7 24-24 24H409.3 378.6c3.5-7.3 5.4-15.4 5.4-24V16c0-8.8-7.2-16-16-16s-16 7.2-16 16V40c0 13.3-10.7 24-24 24h-8-8c-13.3 0-24-10.7-24-24V16zM448 144c0 8.8-7.2 16-16 16s-16-7.2-16-16s7.2-16 16-16s16 7.2 16 16z"/></svg>