<svg xmlns="http://www.w3.org/2000/svg" viewBox="0 0 576 512"><!--! Font Awesome Pro 6.2.0 by @fontawesome - https://fontawesome.com License - https://fontawesome.com/license (Commercial License) Copyright 2022 Fonticons, Inc. --><path d="M272 0c8.8 0 16 7.2 16 16V40c0 13.3 10.7 24 24 24h8 8c13.3 0 24-10.7 24-24V16c0-8.8 7.2-16 16-16s16 7.2 16 16V40c0 8.6-1.9 16.7-5.4 24h30.6H448c13.3 0 24-10.7 24-24V16c0-8.8 7.2-16 16-16s16 7.2 16 16V40c0 21.7-12.3 40.4-30.3 49.8c.6 .5 1.1 1.1 1.7 1.6l55.3 55.3c8.5 8.5 13.3 20 13.3 32c0 25-20.3 45.3-45.3 45.3H448h-5.3L416 304v64V480c0 17.7-14.3 32-32 32H352c-17.7 0-32-14.3-32-32V368H283.7c-28.8 0-55.3-9.8-76.3-26.4c-2.1 16.9-9.8 32.6-21.9 44.8L174.9 397c-4.6 4.6-6.2 11.5-4 17.7l19.3 54.7c7.3 20.8-8.1 42.6-30.2 42.6H126.1c-13.6 0-25.7-8.6-30.2-21.4l-15.5-44c-11.4-32.4-7.4-67.8 10-96.3C97 339.4 97 324.9 88 315.9c-3-3-5.7-6.1-8.1-9.5c-1.3 12.9-12.7 22.5-25.7 21.5c-13.2-1-23.1-12.6-22.1-25.8L34.4 272c4.2-54.2 49.3-96 103.7-96h7.9H160h64c.6 0 1.2 0 1.7 0c.8 0 1.7 0 2.5 0H334.4l9.6-32H306c-9.9 0-18-8-18-18c0-8.2 5.6-15.4 13.6-17.4L352 96H328h-8-8c-30.9 0-56-25.1-56-56V16c0-8.8 7.2-16 16-16zM432 160c8.8 0 16-7.2 16-16s-7.2-16-16-16s-16 7.2-16 16s7.2 16 16 16z"/></svg>