<svg xmlns="http://www.w3.org/2000/svg" viewBox="0 0 512 512"><!--! Font Awesome Pro 6.2.0 by @fontawesome - https://fontawesome.com License - https://fontawesome.com/license (Commercial License) Copyright 2022 Fonticons, Inc. --><path d="M0 96C0 60.7 28.7 32 64 32H448c35.3 0 64 28.7 64 64v64c0 35.3-28.7 64-64 64H160v96c0 17.7 14.3 32 32 32h32c0-35.3 28.7-64 64-64H448c35.3 0 64 28.7 64 64v64c0 35.3-28.7 64-64 64H288c-35.3 0-64-28.7-64-64H192c-53 0-96-43-96-96V224H64c-35.3 0-64-28.7-64-64V96zM448 352H288v64H448V352z"/></svg>