<svg xmlns="http://www.w3.org/2000/svg" viewBox="0 0 512 512"><!--! Font Awesome Pro 6.2.0 by @fontawesome - https://fontawesome.com License - https://fontawesome.com/license (Commercial License) Copyright 2022 Fonticons, Inc. --><path d="M448 352L64 352v64l384 0V352zm0-64c35.3 0 64 28.7 64 64v64c0 35.3-28.7 64-64 64H64c-35.3 0-64-28.7-64-64V352c0-35.3 28.7-64 64-64H232V224l-46.1 0c-21.4 0-32.1-25.9-17-41L239 113c9.4-9.4 24.6-9.4 33.9 0L343 183c15.1 15.1 4.4 41-17 41L280 224v64H448zM365.7 160.4L295.6 90.3c-21.9-21.9-57.3-21.9-79.2 0l-70.1 70.1c-18.4 18.4-20.4 43.7-11 63.6L64 224c-35.3 0-64-28.7-64-64V96C0 60.7 28.7 32 64 32l384 0c35.3 0 64 28.7 64 64v64c0 35.3-28.7 64-64 64H376.7c9.4-19.9 7.4-45.2-11-63.6z"/></svg>