<svg xmlns="http://www.w3.org/2000/svg" viewBox="0 0 512 512"><!--! Font Awesome Pro 6.2.0 by @fontawesome - https://fontawesome.com License - https://fontawesome.com/license (Commercial License) Copyright 2022 Fonticons, Inc. --><path d="M227.7 11.7c15.6-15.6 40.9-15.6 56.6 0l216 216c15.6 15.6 15.6 40.9 0 56.6l-216 216c-15.6 15.6-40.9 15.6-56.6 0l-216-216c-15.6-15.6-15.6-40.9 0-56.6l216-216zM256 128c-13.3 0-24 10.7-24 24V264c0 13.3 10.7 24 24 24s24-10.7 24-24V152c0-13.3-10.7-24-24-24zm32 224c0-17.7-14.3-32-32-32s-32 14.3-32 32s14.3 32 32 32s32-14.3 32-32z"/></svg>