<svg xmlns="http://www.w3.org/2000/svg" viewBox="0 0 512 512"><!--! Font Awesome Pro 6.2.0 by @fontawesome - https://fontawesome.com License - https://fontawesome.com/license (Commercial License) Copyright 2022 Fonticons, Inc. --><path d="M32 96c0-35.3 28.7-64 64-64H416c35.3 0 64 28.7 64 64V416c17.7 0 32 14.3 32 32s-14.3 32-32 32H416 96 32c-17.7 0-32-14.3-32-32s14.3-32 32-32V96zM288 256c0 17.7-14.3 32-32 32s-32-14.3-32-32s14.3-32 32-32s32 14.3 32 32zm128 0c0-88.4-71.6-160-160-160S96 167.6 96 256s71.6 160 160 160s160-71.6 160-160z"/></svg>