<svg xmlns="http://www.w3.org/2000/svg" viewBox="0 0 576 512"><!--! Font Awesome Pro 6.2.0 by @fontawesome - https://fontawesome.com License - https://fontawesome.com/license (Commercial License) Copyright 2022 Fonticons, Inc. --><path d="M0 64C0 28.7 28.7 0 64 0H512c35.3 0 64 28.7 64 64V352c0 35.3-28.7 64-64 64H336l10.7 32H416c17.7 0 32 14.3 32 32s-14.3 32-32 32H160c-17.7 0-32-14.3-32-32s14.3-32 32-32h69.3L240 416H64c-35.3 0-64-28.7-64-64V64zm64 0V352H512V64H64zm192 64c0-8.8 7.2-16 16-16h32c8.8 0 16 7.2 16 16v48h48c8.8 0 16 7.2 16 16v32c0 8.8-7.2 16-16 16H320v48c0 8.8-7.2 16-16 16H272c-8.8 0-16-7.2-16-16V240H208c-8.8 0-16-7.2-16-16V192c0-8.8 7.2-16 16-16h48V128z"/></svg>