<svg xmlns="http://www.w3.org/2000/svg" viewBox="0 0 640 512"><!--! Font Awesome Pro 6.2.0 by @fontawesome - https://fontawesome.com License - https://fontawesome.com/license (Commercial License) Copyright 2022 Fonticons, Inc. --><path d="M38.8 5.1C28.4-3.1 13.3-1.2 5.1 9.2S-1.2 34.7 9.2 42.9l592 464c10.4 8.2 25.5 6.3 33.7-4.1s6.3-25.5-4.1-33.7l-70.5-55.2c27.4-7.2 47.6-32.2 47.6-61.9V64c0-35.3-28.7-64-64-64H96C79.6 0 64.6 6.2 53.2 16.4L38.8 5.1zM113.9 64H544V352H481.4L113.9 64zM32 352c0 35.3 28.7 64 64 64H272l-10.7 32H192c-17.7 0-32 14.3-32 32s14.3 32 32 32H448c17.7 0 32-14.3 32-32c0-2.1-.2-4.1-.6-6.1L446.6 448H378.7L368 416h38l-81.2-64H96V171.8L32 121.4V352z"/></svg>