<svg xmlns="http://www.w3.org/2000/svg" viewBox="0 0 512 512"><!--! Font Awesome Pro 6.2.0 by @fontawesome - https://fontawesome.com License - https://fontawesome.com/license (Commercial License) Copyright 2022 Fonticons, Inc. --><path d="M0 56C0 42.7 10.7 32 24 32H488c13.3 0 24 10.7 24 24s-10.7 24-24 24H24C10.7 80 0 69.3 0 56zM96 208c0-26.5 21.5-48 48-48H368c26.5 0 48 21.5 48 48v96c0 26.5-21.5 48-48 48H144c-26.5 0-48-21.5-48-48V208zM24 432H488c13.3 0 24 10.7 24 24s-10.7 24-24 24H24c-13.3 0-24-10.7-24-24s10.7-24 24-24z"/></svg>