<svg xmlns="http://www.w3.org/2000/svg" viewBox="0 0 448 512"><!--! Font Awesome Pro 6.2.0 by @fontawesome - https://fontawesome.com License - https://fontawesome.com/license (Commercial License) Copyright 2022 Fonticons, Inc. --><path d="M0 24C0 10.7 10.7 0 24 0S48 10.7 48 24V488c0 13.3-10.7 24-24 24s-24-10.7-24-24V24zM128 144c0-26.5 21.5-48 48-48h96c26.5 0 48 21.5 48 48V368c0 26.5-21.5 48-48 48H176c-26.5 0-48-21.5-48-48V144zM424 0c13.3 0 24 10.7 24 24V488c0 13.3-10.7 24-24 24s-24-10.7-24-24V24c0-13.3 10.7-24 24-24z"/></svg>