<svg xmlns="http://www.w3.org/2000/svg" viewBox="0 0 576 512"><!--! Font Awesome Pro 6.2.0 by @fontawesome - https://fontawesome.com License - https://fontawesome.com/license (Commercial License) Copyright 2022 Fonticons, Inc. --><path d="M122.7 4.1l160 144c6.6 5.9 7.1 16 1.2 22.6s-16 7.1-22.6 1.2l-160-144c-6.6-5.9-7.1-16-1.2-22.6s16-7.1 22.6-1.2zM144 192H256V383.3c-5.3 .5-10.6 .7-16 .7c-28.8 0-56-6.9-80-19.2V480c0 17.7-14.3 32-32 32H96c-17.7 0-32-14.3-32-32V249.8c-28.8-10.9-51.4-35.3-59.2-66.5L1 167.8c-4.3-17.1 6.1-34.5 23.3-38.8s34.5 6.1 38.8 23.3l3.9 15.5C70.5 182 83.3 192 98 192h30 16zM320 364.8c-10.1 5.2-20.8 9.4-32 12.6V208.1L416 262l0 218c0 17.7-14.3 32-32 32H352c-17.7 0-32-14.3-32-32V364.8zM426.7 192l-6.2 37.2L305.8 180.9l26.8-161C334.6 8.4 344.5 0 356.1 0c7.5 0 14.5 3.5 19 9.5L392 32h52.1c12.7 0 24.9 5.1 33.9 14.1L496 64h56c13.3 0 24 10.7 24 24v24c0 44.2-35.8 80-80 80H464 448 426.7zM448 96c8.8 0 16-7.2 16-16s-7.2-16-16-16s-16 7.2-16 16s7.2 16 16 16z"/></svg>