<svg xmlns="http://www.w3.org/2000/svg" viewBox="0 0 640 512"><!--! Font Awesome Pro 6.2.0 by @fontawesome - https://fontawesome.com License - https://fontawesome.com/license (Commercial License) Copyright 2022 Fonticons, Inc. --><path d="M64 0C46.3 0 32 14.3 32 32s14.3 32 32 32h72.9L229 340.2c-22.5 17.6-37 45-37 75.8c0 53 43 96 96 96c52.4 0 95.1-42 96-94.3l202.1-67.4c16.8-5.6 25.8-23.7 20.2-40.5s-23.7-25.8-40.5-20.2L363.8 357c-17.2-22.1-43.9-36.5-74-37L197.7 43.8C188.9 17.6 164.5 0 136.9 0H64z"/></svg>