<svg xmlns="http://www.w3.org/2000/svg" viewBox="0 0 384 512"><!--! Font Awesome Pro 6.2.0 by @fontawesome - https://fontawesome.com License - https://fontawesome.com/license (Commercial License) Copyright 2022 Fonticons, Inc. --><path d="M32 32C14.3 32 0 46.3 0 64S14.3 96 32 96H352c17.7 0 32-14.3 32-32s-14.3-32-32-32H32zM174.6 472.5c4.5 4.8 10.8 7.5 17.4 7.5s12.9-2.7 17.4-7.5l136-144c6.6-7 8.4-17.2 4.6-26s-12.5-14.5-22-14.5l-72 0V160c0-17.7-14.3-32-32-32l-64 0c-17.7 0-32 14.3-32 32l0 128-72 0c-9.6 0-18.2 5.7-22 14.5s-2 19 4.6 26l136 144z"/></svg>