<svg xmlns="http://www.w3.org/2000/svg" viewBox="0 0 448 512"><!--! Font Awesome Pro 6.2.0 by @fontawesome - https://fontawesome.com License - https://fontawesome.com/license (Commercial License) Copyright 2022 Fonticons, Inc. --><path d="M160 480C71.6 480 0 404.8 0 312C0 232.4 108 83.2 138.7 42.5C143.7 35.8 151.6 32 160 32s16.3 3.8 21.3 10.5C212 83.2 320 232.4 320 312c0 92.8-71.6 168-160 168zM400 112c0-17.7-14.3-32-32-32s-32 14.3-32 32s14.3 32 32 32s32-14.3 32-32zm48 0c0 44.2-35.8 80-80 80s-80-35.8-80-80s35.8-80 80-80s80 35.8 80 80z"/></svg>