<svg xmlns="http://www.w3.org/2000/svg" viewBox="0 0 448 512"><!--! Font Awesome Pro 6.2.0 by @fontawesome - https://fontawesome.com License - https://fontawesome.com/license (Commercial License) Copyright 2022 Fonticons, Inc. --><path d="M64 0C28.7 0 0 28.7 0 64V448c0 35.3 28.7 64 64 64H384c35.3 0 64-28.7 64-64V64c0-35.3-28.7-64-64-64H64zM224 448c-79.5 0-144-64.5-144-144s64.5-144 144-144s144 64.5 144 144s-64.5 144-144 144zM112 88c0 13.3-10.7 24-24 24s-24-10.7-24-24s10.7-24 24-24s24 10.7 24 24zm72 24c-13.3 0-24-10.7-24-24s10.7-24 24-24s24 10.7 24 24s-10.7 24-24 24zM156.7 212.7c-6.2 6.2-6.2 16.4 0 22.6L177.4 256c4.2 4.2 6.6 10 6.6 16s-2.4 11.8-6.6 16l-9.4 9.4c-10.2 10.2-16 24.1-16 38.6s5.8 28.4 16 38.6l20.7 20.7c6.2 6.2 16.4 6.2 22.6 0s6.2-16.4 0-22.6L190.6 352c-4.2-4.2-6.6-10-6.6-16s2.4-11.8 6.6-16l9.4-9.4c10.2-10.2 16-24.1 16-38.6s-5.8-28.4-16-38.6l-20.7-20.7c-6.2-6.2-16.4-6.2-22.6 0zm102.6 0c-6.2-6.2-16.4-6.2-22.6 0s-6.2 16.4 0 22.6L257.4 256c4.2 4.2 6.6 10 6.6 16s-2.4 11.8-6.6 16l-9.4 9.4c-10.2 10.2-16 24.1-16 38.6s5.8 28.4 16 38.6l20.7 20.7c6.2 6.2 16.4 6.2 22.6 0s6.2-16.4 0-22.6L270.6 352c-4.2-4.2-6.6-10-6.6-16s2.4-11.8 6.6-16l9.4-9.4c10.2-10.2 16-24.1 16-38.6s-5.8-28.4-16-38.6l-20.7-20.7z"/></svg>