<svg xmlns="http://www.w3.org/2000/svg" viewBox="0 0 512 512"><!--! Font Awesome Pro 6.2.0 by @fontawesome - https://fontawesome.com License - https://fontawesome.com/license (Commercial License) Copyright 2022 Fonticons, Inc. --><path d="M416 232c13.3 0 24 10.7 24 24s-10.7 24-24 24s-24-10.7-24-24s10.7-24 24-24zm0-48c-39.8 0-72 32.2-72 72s32.2 72 72 72s72-32.2 72-72s-32.2-72-72-72zM256 232c13.3 0 24 10.7 24 24s-10.7 24-24 24s-24-10.7-24-24s10.7-24 24-24zm0-48c-39.8 0-72 32.2-72 72s32.2 72 72 72s72-32.2 72-72s-32.2-72-72-72zM72 256c0-13.3 10.7-24 24-24s24 10.7 24 24s-10.7 24-24 24s-24-10.7-24-24zm-48 0c0 39.8 32.2 72 72 72s72-32.2 72-72s-32.2-72-72-72s-72 32.2-72 72z"/></svg>