<svg xmlns="http://www.w3.org/2000/svg" viewBox="0 0 192 512"><!--! Font Awesome Pro 6.2.0 by @fontawesome - https://fontawesome.com License - https://fontawesome.com/license (Commercial License) Copyright 2022 Fonticons, Inc. --><path d="M120 416c0 13.3-10.7 24-24 24s-24-10.7-24-24s10.7-24 24-24s24 10.7 24 24zm48 0c0-39.8-32.2-72-72-72s-72 32.2-72 72s32.2 72 72 72s72-32.2 72-72zM120 256c0 13.3-10.7 24-24 24s-24-10.7-24-24s10.7-24 24-24s24 10.7 24 24zm48 0c0-39.8-32.2-72-72-72s-72 32.2-72 72s32.2 72 72 72s72-32.2 72-72zM96 72c13.3 0 24 10.7 24 24s-10.7 24-24 24s-24-10.7-24-24s10.7-24 24-24zm0-48C56.2 24 24 56.2 24 96s32.2 72 72 72s72-32.2 72-72s-32.2-72-72-72z"/></svg>