<svg xmlns="http://www.w3.org/2000/svg" viewBox="0 0 640 512"><!--! Font Awesome Pro 6.2.0 by @fontawesome - https://fontawesome.com License - https://fontawesome.com/license (Commercial License) Copyright 2022 Fonticons, Inc. --><path d="M424 88c0 13.3-10.7 24-24 24l-72 0v32h81.5c14.5 0 28.6 4.9 40 14L488 188.8c15.2 12.1 24 30.5 24 50V384c0 35.3-28.7 64-64 64H254.8c-19.4 0-37.8-8.8-50-24l-32-40H128c-17.7 0-32-14.3-32-32V280H48v72c0 13.3-10.7 24-24 24s-24-10.7-24-24V160c0-13.3 10.7-24 24-24s24 10.7 24 24v72H96V176c0-17.7 14.3-32 32-32l32 0 48 0 72 0V112l-72 0c-13.3 0-24-10.7-24-24s10.7-24 24-24H400c13.3 0 24 10.7 24 24zM324 208c0-11-9-20-20-20s-20 9-20 20v88c0 11 9 20 20 20s20-9 20-20V208zM304 392c13.3 0 24-10.7 24-24s-10.7-24-24-24s-24 10.7-24 24s10.7 24 24 24zM576 192h32c17.7 0 32 14.3 32 32V416c0 17.7-14.3 32-32 32H576c-17.7 0-32-14.3-32-32V224c0-17.7 14.3-32 32-32z"/></svg>