<svg xmlns="http://www.w3.org/2000/svg" viewBox="0 0 576 512"><!--! Font Awesome Pro 6.2.0 by @fontawesome - https://fontawesome.com License - https://fontawesome.com/license (Commercial License) Copyright 2022 Fonticons, Inc. --><path d="M496 160c-44.2 0-80-35.8-80-80s35.8-80 80-80s80 35.8 80 80s-35.8 80-80 80zM48 64H385.1c-.7 5.2-1.1 10.6-1.1 16c0 45.6 27.2 84.8 66.3 102.3L275.2 313.6c-11.4 8.5-27 8.5-38.4 0L19.2 150.4C7.1 141.3 0 127.1 0 112C0 85.5 21.5 64 48 64zM294.4 339.2L490.8 191.9c1.7 .1 3.4 .1 5.2 .1c5.4 0 10.8-.4 16-1.1V384c0 35.3-28.7 64-64 64H64c-35.3 0-64-28.7-64-64V176L217.6 339.2c22.8 17.1 54 17.1 76.8 0z"/></svg>