<svg xmlns="http://www.w3.org/2000/svg" viewBox="0 0 576 512"><!--! Font Awesome Pro 6.2.0 by @fontawesome - https://fontawesome.com License - https://fontawesome.com/license (Commercial License) Copyright 2022 Fonticons, Inc. --><path d="M272 48c0 26.5-21.5 48-48 48s-48-21.5-48-48s21.5-48 48-48s48 21.5 48 48zM373.9 175.8C385.5 165.6 400.5 160 416 160h96c35.3 0 64 28.7 64 64s-28.7 64-64 64H440L202.1 496.2C190.5 506.4 175.5 512 160 512H64c-35.3 0-64-28.7-64-64s28.7-64 64-64h72L373.9 175.8zM288 192v16.4l-128 112V192c0-35.3 28.7-64 64-64s64 28.7 64 64z"/></svg>