<svg xmlns="http://www.w3.org/2000/svg" viewBox="0 0 512 512"><!--! Font Awesome Pro 6.2.0 by @fontawesome - https://fontawesome.com License - https://fontawesome.com/license (Commercial License) Copyright 2022 Fonticons, Inc. --><path d="M256 0C114.6 0 0 114.6 0 256S114.6 512 256 512s256-114.6 256-256S397.4 0 256 0zm91.9 186.5C330 165.8 299.4 144 256 144s-74 21.8-91.9 42.5c-5.8 6.7-15.9 7.4-22.6 1.6s-7.4-15.9-1.6-22.6c22.2-25.7 61-53.5 116.1-53.5s93.8 27.9 116.1 53.5c5.8 6.7 5.1 16.8-1.6 22.6s-16.8 5.1-22.6-1.6zM303.6 304c0-17.7 14.3-32 32-32s32 14.3 32 32s-14.3 32-32 32s-32-14.3-32-32zm-128-32c17.7 0 32 14.3 32 32s-14.3 32-32 32s-32-14.3-32-32s14.3-32 32-32z"/></svg>