<svg xmlns="http://www.w3.org/2000/svg" viewBox="0 0 512 512"><!--! Font Awesome Pro 6.2.0 by @fontawesome - https://fontawesome.com License - https://fontawesome.com/license (Commercial License) Copyright 2022 Fonticons, Inc. --><path d="M256 512c141.4 0 256-114.6 256-256S397.4 0 256 0S0 114.6 0 256S114.6 512 256 512zm91.9-117.5C330 373.8 299.4 352 256 352s-74 21.8-91.9 42.5c-5.8 6.7-15.9 7.4-22.6 1.6s-7.4-15.9-1.6-22.6c22.2-25.7 61-53.5 116.1-53.5s93.8 27.9 116.1 53.5c5.8 6.7 5.1 16.8-1.6 22.6s-16.8 5.1-22.6-1.6zM208.4 208c0 17.7-14.3 32-32 32s-32-14.3-32-32s14.3-32 32-32s32 14.3 32 32zm128 32c-17.7 0-32-14.3-32-32s14.3-32 32-32s32 14.3 32 32s-14.3 32-32 32z"/></svg>