<svg xmlns="http://www.w3.org/2000/svg" viewBox="0 0 512 512"><!--! Font Awesome Pro 6.2.0 by @fontawesome - https://fontawesome.com License - https://fontawesome.com/license (Commercial License) Copyright 2022 Fonticons, Inc. --><path d="M256 512c141.4 0 256-114.6 256-256S397.4 0 256 0S0 114.6 0 256S114.6 512 256 512zm79.6-272c-17.7 0-32-14.3-32-32s14.3-32 32-32s32 14.3 32 32s-14.3 32-32 32zm-192-32c0-17.7 14.3-32 32-32s32 14.3 32 32s-14.3 32-32 32s-32-14.3-32-32zm51.7-84.7l-7.4 7.4c-23.6 23.6-53.9 39.2-86.8 44.7l-2.5 .4c-8.7 1.5-17-4.4-18.4-13.2s4.4-17 13.2-18.4l2.5-.4c26.3-4.4 50.6-16.9 69.5-35.7l7.4-7.4c6.2-6.2 16.4-6.2 22.6 0s6.2 16.4 0 22.6zm121.4-22.6c6.2-6.2 16.4-6.2 22.6 0l7.4 7.4c18.9 18.9 43.2 31.4 69.5 35.7l2.5 .4c8.7 1.5 14.6 9.7 13.2 18.4s-9.7 14.6-18.4 13.2l-2.5-.4c-32.9-5.5-63.3-21.1-86.8-44.7l-7.4-7.4c-6.2-6.2-6.2-16.4 0-22.6zM168 282.7c19.5 11.3 33.8 30.5 38.4 53.3h99.2c4.6-22.8 18.9-42 38.4-53.3c7.7-4.4 17.4-1.8 21.9 5.8s1.8 17.4-5.8 21.9c-14.4 8.3-24 23.8-24 41.6s9.6 33.3 24 41.6c7.6 4.4 10.3 14.2 5.8 21.9s-14.2 10.3-21.9 5.8c-19.5-11.3-33.8-30.5-38.4-53.3H206.4c-4.6 22.8-18.9 42-38.4 53.3c-7.6 4.4-17.4 1.8-21.9-5.8s-1.8-17.4 5.8-21.9c14.4-8.3 24-23.8 24-41.6s-9.6-33.3-24-41.6c-7.6-4.4-10.3-14.2-5.8-21.9s14.2-10.3 21.9-5.8z"/></svg>