<svg xmlns="http://www.w3.org/2000/svg" viewBox="0 0 512 512"><!--! Font Awesome Pro 6.2.0 by @fontawesome - https://fontawesome.com License - https://fontawesome.com/license (Commercial License) Copyright 2022 Fonticons, Inc. --><path d="M384.1 477.7C506.5 407 548.5 250.4 477.8 128S250.5-36.4 128.1 34.3S-36.3 261.6 34.4 384c36.2 62.7 94.9 104.3 160.1 120.5c-11.5-15.8-18.4-35.4-18.4-56.5V408.2c-10.4-6.2-20.1-13.7-28.9-22.2c-10.2-9.9-6.6-26.3 5.7-33.4L391.2 214.9c12.3-7.1 28.3-2 31.8 11.8c15.2 59.4-5.9 124.1-55 165V448c0 15.4-3.6 30-10.1 42.9c8.8-3.8 17.5-8.2 26.1-13.2zM128 288c-35.3 0-64-28.7-64-64s28.7-64 64-64s64 28.7 64 64s-28.7 64-64 64zM384 152c0 39.8-32.2 72-72 72s-72-32.2-72-72s32.2-72 72-72s72 32.2 72 72zM336.1 448V402.6c0-14.7-11.9-26.6-26.6-26.6h-2c-11.3 0-21.1 7.9-23.6 18.9c-2.8 12.6-20.8 12.6-23.6 0C257.8 383.9 248 376 236.7 376h-2c-14.7 0-26.6 11.9-26.6 26.6V448c0 35.3 28.7 64 64 64s64-28.7 64-64zM152 224c0-13.3-10.7-24-24-24s-24 10.7-24 24s10.7 24 24 24s24-10.7 24-24zm144-56c17.7 0 32-14.3 32-32s-14.3-32-32-32s-32 14.3-32 32s14.3 32 32 32z"/></svg>