<svg xmlns="http://www.w3.org/2000/svg" viewBox="0 0 640 512"><!--! Font Awesome Pro 6.2.0 by @fontawesome - https://fontawesome.com License - https://fontawesome.com/license (Commercial License) Copyright 2022 Fonticons, Inc. --><path d="M544 0c-13.3 0-24 10.7-24 24V72H472c-13.3 0-24 10.7-24 24s10.7 24 24 24h48v48c0 13.3 10.7 24 24 24s24-10.7 24-24V120h48c13.3 0 24-10.7 24-24s-10.7-24-24-24H568V24c0-13.3-10.7-24-24-24zM224 512c123.7 0 224-100.3 224-224S347.7 64 224 64S0 164.3 0 288S100.3 512 224 512zM144.4 272c-17.7 0-32-14.3-32-32s14.3-32 32-32s32 14.3 32 32s-14.3 32-32 32zm192-32c0 17.7-14.3 32-32 32s-32-14.3-32-32s14.3-32 32-32s32 14.3 32 32zM140 346.1c20.5 23.3 50.6 37.9 84 37.9s63.5-14.6 84-37.9c5.8-6.6 16-7.3 22.6-1.4s7.3 16 1.4 22.6C305.6 397.1 267 416 224 416s-81.6-18.9-108-48.7c-5.8-6.6-5.2-16.7 1.4-22.6s16.7-5.2 22.6 1.4z"/></svg>