<svg xmlns="http://www.w3.org/2000/svg" viewBox="0 0 512 512"><!--! Font Awesome Pro 6.2.0 by @fontawesome - https://fontawesome.com License - https://fontawesome.com/license (Commercial License) Copyright 2022 Fonticons, Inc. --><path d="M378.5 281.7L509.8 222C493.1 96.7 385.9 0 256 0S18.9 96.7 2.2 222l131.3 59.7c8-15.3 24.1-25.7 42.5-25.7H336c18.4 0 34.5 10.4 42.5 25.7zm5.5 32.6V384h93.8c21.8-37.6 34.2-81.3 34.2-127.9L384 314.3zM381.3 416c-6.6 18.6-24.4 32-45.3 32H176c-20.9 0-38.7-13.4-45.3-32H56.1c46.9 58.5 119 96 199.9 96s152.9-37.5 199.9-96H381.3zM128 384V314.3L0 256.1C0 302.7 12.5 346.4 34.2 384H128zm-4.7-180.7c-6.2 6.2-16.4 6.2-22.6 0s-6.2-16.4 0-22.6C114.4 167 152.6 144 208 144c8.8 0 16 7.2 16 16s-7.2 16-16 16c-47 0-77.1 19.7-84.7 27.3zM304 176c-8.8 0-16-7.2-16-16s7.2-16 16-16c55.4 0 93.6 23 107.3 36.7c6.2 6.2 6.2 16.4 0 22.6s-16.4 6.2-22.6 0C381.1 195.7 351 176 304 176zM176 304c-8.8 0-16 7.2-16 16s7.2 16 16 16H336c8.8 0 16-7.2 16-16s-7.2-16-16-16H176zm0 64c-8.8 0-16 7.2-16 16s7.2 16 16 16H336c8.8 0 16-7.2 16-16s-7.2-16-16-16H176z"/></svg>