<svg xmlns="http://www.w3.org/2000/svg" viewBox="0 0 512 512"><!--! Font Awesome Pro 6.2.0 by @fontawesome - https://fontawesome.com License - https://fontawesome.com/license (Commercial License) Copyright 2022 Fonticons, Inc. --><path d="M512 256c0 141.4-114.6 256-256 256S0 397.4 0 256S114.6 0 256 0S512 114.6 512 256zM161.3 398.1c-5.4 12.3 8.7 21.6 21.1 16.4c22.4-9.5 47.4-14.8 73.7-14.8s51.3 5.3 73.7 14.8c12.4 5.2 26.5-4.1 21.1-16.4c-16-36.6-52.4-62.1-94.8-62.1s-78.8 25.6-94.8 62.1zM176.4 304c17.7 0 32-14.3 32-32s-14.3-32-32-32s-32 14.3-32 32s14.3 32 32 32zm192-32c0-17.7-14.3-32-32-32s-32 14.3-32 32s14.3 32 32 32s32-14.3 32-32zM320 128c-8.8 0-16 7.2-16 16s7.2 16 16 16c33 0 60.1 18.7 68.7 27.3c6.2 6.2 16.4 6.2 22.6 0s6.2-16.4 0-22.6C398.6 152 363.8 128 320 128zM123.3 187.3C131.9 178.7 159 160 192 160c8.8 0 16-7.2 16-16s-7.2-16-16-16c-43.8 0-78.6 24-91.3 36.7c-6.2 6.2-6.2 16.4 0 22.6s16.4 6.2 22.6 0z"/></svg>