<svg xmlns="http://www.w3.org/2000/svg" viewBox="0 0 512 512"><!--! Font Awesome Pro 6.2.0 by @fontawesome - https://fontawesome.com License - https://fontawesome.com/license (Commercial License) Copyright 2022 Fonticons, Inc. --><path d="M56 0h80c13.3 0 24 10.7 24 24s-10.7 24-24 24H56c-4.4 0-8 3.6-8 8v80c0 13.3-10.7 24-24 24s-24-10.7-24-24V56C0 25.1 25.1 0 56 0zM376 0h80c30.9 0 56 25.1 56 56v80c0 13.3-10.7 24-24 24s-24-10.7-24-24V56c0-4.4-3.6-8-8-8H376c-13.3 0-24-10.7-24-24s10.7-24 24-24zM48 376v80c0 4.4 3.6 8 8 8h80c13.3 0 24 10.7 24 24s-10.7 24-24 24H56c-30.9 0-56-25.1-56-56V376c0-13.3 10.7-24 24-24s24 10.7 24 24zm464 0v80c0 30.9-25.1 56-56 56H376c-13.3 0-24-10.7-24-24s10.7-24 24-24h80c4.4 0 8-3.6 8-8V376c0-13.3 10.7-24 24-24s24 10.7 24 24zM416 256c0 88.4-71.6 160-160 160s-160-71.6-160-160s71.6-160 160-160s160 71.6 160 160zM224 216c0-13.3-10.7-24-24-24s-24 10.7-24 24s10.7 24 24 24s24-10.7 24-24zm88 24c13.3 0 24-10.7 24-24s-10.7-24-24-24s-24 10.7-24 24s10.7 24 24 24zM169.9 292.5c-6.4 6.1-6.6 16.2-.5 22.6C191.2 337.8 222 352 256 352s64.8-14.2 86.6-36.9c6.1-6.4 5.9-16.5-.5-22.6s-16.5-5.9-22.6 .5C303.5 309.6 281 320 256 320s-47.5-10.4-63.5-27.1c-6.1-6.4-16.2-6.6-22.6-.5z"/></svg>