<svg xmlns="http://www.w3.org/2000/svg" viewBox="0 0 384 512"><!--! Font Awesome Pro 6.2.0 by @fontawesome - https://fontawesome.com License - https://fontawesome.com/license (Commercial License) Copyright 2022 Fonticons, Inc. --><path d="M64 0C28.7 0 0 28.7 0 64V448c0 35.3 28.7 64 64 64H320c35.3 0 64-28.7 64-64V160H256c-17.7 0-32-14.3-32-32V0H64zM256 0V128H384L256 0zm49 281L177 409c-9.4 9.4-24.6 9.4-33.9 0L79 345c-9.4-9.4-9.4-24.6 0-33.9s24.6-9.4 33.9 0l47 47L271 247c9.4-9.4 24.6-9.4 33.9 0s9.4 24.6 0 33.9z"/></svg>