<svg xmlns="http://www.w3.org/2000/svg" viewBox="0 0 576 512"><!--! Font Awesome Pro 6.2.0 by @fontawesome - https://fontawesome.com License - https://fontawesome.com/license (Commercial License) Copyright 2022 Fonticons, Inc. --><path d="M160 64c0-35.3 28.7-64 64-64H384V128c0 17.7 14.3 32 32 32H544V448c0 35.3-28.7 64-64 64H253.3c1.8-5.1 2.7-10.5 2.7-16V416c1.3-.5 2.5-1 3.8-1.5c6.8-3 14.3-7.8 20.6-15.5c6.4-7.9 10.1-17.2 11.4-27.1c.5-3.6 .8-5.7 1.1-7.1c1.1-.9 2.8-2.3 5.6-4.5c19.9-15.4 27.1-42.2 17.5-65.5c-1.4-3.3-2.1-5.4-2.6-6.7c.5-1.4 1.2-3.4 2.6-6.7c9.5-23.3 2.4-50.1-17.5-65.5c-2.8-2.2-4.5-3.6-5.6-4.5c-.3-1.4-.6-3.6-1.1-7.1c-3.4-24.9-23-44.6-47.9-47.9c-3.6-.5-5.7-.8-7.1-1.1c-.9-1.1-2.3-2.8-4.5-5.6c-15.4-19.9-42.2-27.1-65.5-17.5c-2.6 1.1-5.1 2.3-6.6 3l-.1 .1V64zm384 64H416V0L544 128zM141.2 161.6L157 168c1.9 .8 4.1 .8 6.1 0l15.8-6.5c10-4.1 21.5-1 28.1 7.5l10.5 13.5c1.3 1.7 3.2 2.7 5.2 3l16.9 2.3c10.7 1.5 19.1 9.9 20.5 20.5l2.3 16.9c.3 2.1 1.4 4 3 5.2l13.5 10.5c8.5 6.6 11.6 18.1 7.5 28.1L280 285c-.8 1.9-.8 4.1 0 6.1l6.5 15.8c4.1 10 1 21.5-7.5 28.1l-13.5 10.5c-1.7 1.3-2.7 3.2-3 5.2l-2.3 16.9c-1.5 10.7-9.9 19.1-20.5 20.6L224 390.2V496c0 5.9-3.2 11.3-8.5 14.1s-11.5 2.5-16.4-.8L160 483.2l-39.1 26.1c-4.9 3.3-11.2 3.6-16.4 .8s-8.5-8.2-8.5-14.1V390.2l-15.5-2.1c-10.7-1.5-19.1-9.9-20.5-20.6l-2.3-16.9c-.3-2.1-1.4-4-3-5.2L41.1 334.9c-8.5-6.6-11.6-18.1-7.5-28.1L40 291c.8-1.9 .8-4.1 0-6.1l-6.5-15.8c-4.1-10-1-21.5 7.5-28.1l13.5-10.5c1.7-1.3 2.7-3.2 3-5.2l2.3-16.9c1.5-10.7 9.9-19.1 20.5-20.5l16.9-2.3c2.1-.3 4-1.4 5.2-3l10.5-13.5c6.6-8.5 18.1-11.6 28.1-7.5zM224 288c0-35.3-28.7-64-64-64s-64 28.7-64 64s28.7 64 64 64s64-28.7 64-64z"/></svg>