<svg xmlns="http://www.w3.org/2000/svg" viewBox="0 0 384 512"><!--! Font Awesome Pro 6.2.0 by @fontawesome - https://fontawesome.com License - https://fontawesome.com/license (Commercial License) Copyright 2022 Fonticons, Inc. --><path d="M64 0C28.7 0 0 28.7 0 64V448c0 35.3 28.7 64 64 64H320c35.3 0 64-28.7 64-64V160H256c-17.7 0-32-14.3-32-32V0H64zM256 0V128H384L256 0zM112 256h32c26.5 0 48 21.5 48 48v64c0 26.5-21.5 48-48 48H112c-26.5 0-48-21.5-48-48V304c0-26.5 21.5-48 48-48zM96 304v64c0 8.8 7.2 16 16 16h32c8.8 0 16-7.2 16-16V304c0-8.8-7.2-16-16-16H112c-8.8 0-16 7.2-16 16zm144-48h32c8.8 0 16 7.2 16 16V384h16c8.8 0 16 7.2 16 16s-7.2 16-16 16H272 240c-8.8 0-16-7.2-16-16s7.2-16 16-16h16V288H240c-8.8 0-16-7.2-16-16s7.2-16 16-16z"/></svg>