<svg xmlns="http://www.w3.org/2000/svg" viewBox="0 0 576 512"><!--! Font Awesome Pro 6.2.0 by @fontawesome - https://fontawesome.com License - https://fontawesome.com/license (Commercial License) Copyright 2022 Fonticons, Inc. --><path d="M0 64C0 28.7 28.7 0 64 0H224V128c0 17.7 14.3 32 32 32H384v33.6c-19.8 20.2-32 47.9-32 78.4v24.6c-19.1 11.1-32 31.7-32 55.4V480c0 11.4 3 22.2 8.3 31.5c-2.7 .3-5.5 .5-8.3 .5H64c-35.3 0-64-28.7-64-64V64zm384 64H256V0L384 128zm80 112c-17.7 0-32 14.3-32 32v48h64V272c0-17.7-14.3-32-32-32zm-80 32c0-44.2 35.8-80 80-80s80 35.8 80 80v48c17.7 0 32 14.3 32 32V480c0 17.7-14.3 32-32 32H384c-17.7 0-32-14.3-32-32V352c0-17.7 14.3-32 32-32V272z"/></svg>