<svg xmlns="http://www.w3.org/2000/svg" viewBox="0 0 448 512"><!--! Font Awesome Pro 6.2.0 by @fontawesome - https://fontawesome.com License - https://fontawesome.com/license (Commercial License) Copyright 2022 Fonticons, Inc. --><path d="M160 0H320V96c0 17.7 14.3 32 32 32h96V352c0 35.3-28.7 64-64 64H160c-35.3 0-64-28.7-64-64V64c0-35.3 28.7-64 64-64zM416 64l32 32H402.7 384 352V64 45.3 0l32 32 32 32zM24 96c13.3 0 24 10.7 24 24V376c0 48.6 39.4 88 88 88H328c13.3 0 24 10.7 24 24s-10.7 24-24 24H136C60.9 512 0 451.1 0 376V120c0-13.3 10.7-24 24-24zm216 80v48H192c-8.8 0-16 7.2-16 16v32c0 8.8 7.2 16 16 16h48v48c0 8.8 7.2 16 16 16h32c8.8 0 16-7.2 16-16V288h48c8.8 0 16-7.2 16-16V240c0-8.8-7.2-16-16-16H304V176c0-8.8-7.2-16-16-16H256c-8.8 0-16 7.2-16 16z"/></svg>