<svg xmlns="http://www.w3.org/2000/svg" viewBox="0 0 384 512"><!--! Font Awesome Pro 6.2.0 by @fontawesome - https://fontawesome.com License - https://fontawesome.com/license (Commercial License) Copyright 2022 Fonticons, Inc. --><path d="M64 0C28.7 0 0 28.7 0 64V448c0 35.3 28.7 64 64 64H320c35.3 0 64-28.7 64-64V160H256c-17.7 0-32-14.3-32-32V0H64zM256 0V128H384L256 0zM216 248V424c0 13.3-10.7 24-24 24s-24-10.7-24-24V248c0-13.3 10.7-24 24-24s24 10.7 24 24zm88 64V424c0 13.3-10.7 24-24 24s-24-10.7-24-24V312c0-13.3 10.7-24 24-24s24 10.7 24 24zM128 376v48c0 13.3-10.7 24-24 24s-24-10.7-24-24V376c0-13.3 10.7-24 24-24s24 10.7 24 24z"/></svg>