<svg xmlns="http://www.w3.org/2000/svg" viewBox="0 0 576 512"><!--! Font Awesome Pro 6.2.0 by @fontawesome - https://fontawesome.com License - https://fontawesome.com/license (Commercial License) Copyright 2022 Fonticons, Inc. --><path d="M96 64c0-35.3 28.7-64 64-64H320V128c0 17.7 14.3 32 32 32H480v96H96V64zm0 304H480v80c0 35.3-28.7 64-64 64H160c-35.3 0-64-28.7-64-64V368zM480 128H352V0L480 128zM24 288H136c13.3 0 24 10.7 24 24s-10.7 24-24 24H24c-13.3 0-24-10.7-24-24s10.7-24 24-24zm224 0h80c13.3 0 24 10.7 24 24s-10.7 24-24 24H248c-13.3 0-24-10.7-24-24s10.7-24 24-24zm192 0H552c13.3 0 24 10.7 24 24s-10.7 24-24 24H440c-13.3 0-24-10.7-24-24s10.7-24 24-24z"/></svg>