<svg xmlns="http://www.w3.org/2000/svg" viewBox="0 0 640 512"><!--! Font Awesome Pro 6.2.0 by @fontawesome - https://fontawesome.com License - https://fontawesome.com/license (Commercial License) Copyright 2022 Fonticons, Inc. --><path d="M128 64c0-35.3 28.7-64 64-64H352V128c0 17.7 14.3 32 32 32H512V374.7l108.9 84.6 19 14.7-29.4 37.9-19-14.7L19 52.7 0 38 29.4 .1l19 14.7L128 76.6V64zm0 132.9L497.8 488.2C486.1 502.7 468.1 512 448 512H192c-35.3 0-64-28.7-64-64V196.9zM512 128H384V0L512 128z"/></svg>