<svg xmlns="http://www.w3.org/2000/svg" viewBox="0 0 576 512"><!--! Font Awesome Pro 6.2.0 by @fontawesome - https://fontawesome.com License - https://fontawesome.com/license (Commercial License) Copyright 2022 Fonticons, Inc. --><path d="M160 32c-35.3 0-64 28.7-64 64V320c0 35.3 28.7 64 64 64H512c35.3 0 64-28.7 64-64V96c0-35.3-28.7-64-64-64H160zm8 48h16c8.8 0 16 7.2 16 16v16c0 8.8-7.2 16-16 16H168c-8.8 0-16-7.2-16-16V96c0-8.8 7.2-16 16-16zM472 96c0-8.8 7.2-16 16-16h16c8.8 0 16 7.2 16 16v16c0 8.8-7.2 16-16 16H488c-8.8 0-16-7.2-16-16V96zM168 184h16c8.8 0 16 7.2 16 16v16c0 8.8-7.2 16-16 16H168c-8.8 0-16-7.2-16-16V200c0-8.8 7.2-16 16-16zm304 16c0-8.8 7.2-16 16-16h16c8.8 0 16 7.2 16 16v16c0 8.8-7.2 16-16 16H488c-8.8 0-16-7.2-16-16V200zM168 288h16c8.8 0 16 7.2 16 16v16c0 8.8-7.2 16-16 16H168c-8.8 0-16-7.2-16-16V304c0-8.8 7.2-16 16-16zm304 16c0-8.8 7.2-16 16-16h16c8.8 0 16 7.2 16 16v16c0 8.8-7.2 16-16 16H488c-8.8 0-16-7.2-16-16V304zM288 80h96c17.7 0 32 14.3 32 32v48c0 17.7-14.3 32-32 32H288c-17.7 0-32-14.3-32-32V112c0-17.7 14.3-32 32-32zM256 256c0-17.7 14.3-32 32-32h96c17.7 0 32 14.3 32 32v48c0 17.7-14.3 32-32 32H288c-17.7 0-32-14.3-32-32V256zM48 120c0-13.3-10.7-24-24-24S0 106.7 0 120V344c0 75.1 60.9 136 136 136H456c13.3 0 24-10.7 24-24s-10.7-24-24-24H136c-48.6 0-88-39.4-88-88V120z"/></svg>