<svg xmlns="http://www.w3.org/2000/svg" viewBox="0 0 512 512"><!--! Font Awesome Pro 6.2.0 by @fontawesome - https://fontawesome.com License - https://fontawesome.com/license (Commercial License) Copyright 2022 Fonticons, Inc. --><path d="M384 32H128V80c0 8.8-7.2 16-16 16H80c-8.8 0-16-7.2-16-16V32C28.7 32 0 60.7 0 96V416c0 35.3 28.7 64 64 64V432c0-8.8 7.2-16 16-16h32c8.8 0 16 7.2 16 16v48H384V432c0-8.8 7.2-16 16-16h32c8.8 0 16 7.2 16 16v48c35.3 0 64-28.7 64-64V96c0-35.3-28.7-64-64-64V80c0 8.8-7.2 16-16 16H400c-8.8 0-16-7.2-16-16V32zM64 176c0-8.8 7.2-16 16-16h32c8.8 0 16 7.2 16 16v32c0 8.8-7.2 16-16 16H80c-8.8 0-16-7.2-16-16V176zm336-16h32c8.8 0 16 7.2 16 16v32c0 8.8-7.2 16-16 16H400c-8.8 0-16-7.2-16-16V176c0-8.8 7.2-16 16-16zM64 304c0-8.8 7.2-16 16-16h32c8.8 0 16 7.2 16 16v32c0 8.8-7.2 16-16 16H80c-8.8 0-16-7.2-16-16V304zm336-16h32c8.8 0 16 7.2 16 16v32c0 8.8-7.2 16-16 16H400c-8.8 0-16-7.2-16-16V304c0-8.8 7.2-16 16-16z"/></svg>