<svg xmlns="http://www.w3.org/2000/svg" viewBox="0 0 640 512"><!--! Font Awesome Pro 6.2.0 by @fontawesome - https://fontawesome.com License - https://fontawesome.com/license (Commercial License) Copyright 2022 Fonticons, Inc. --><path d="M0 32V64C0 81.7 14.3 96 32 96H608c17.7 0 32-14.3 32-32V32c0-17.7-14.3-32-32-32H32C14.3 0 0 14.3 0 32zm608 96H32V480c0 17.7 14.3 32 32 32h96V352c0-88.4 71.6-160 160-160s160 71.6 160 160V512h96c17.7 0 32-14.3 32-32V128zM300.6 258.7c-2-1.8-4.6-2.7-7.1-2.7c-2.6 0-5.2 .9-7.3 2.7c-24.2 21.6-44.7 46.1-59.2 69.7c-14.3 23.2-23.6 48.2-23.6 67.4c0 63.8 51.1 116.3 116.4 116.3c64.5 0 116.4-52.4 116.4-116.3c0-14.7-7-37-17.6-57.4c-10.7-20.7-25.9-42.5-43.9-59c-4.1-3.7-10.4-3.8-14.5 0c-7 6.4-13.5 14.3-19.2 21.5c-12.6-15.1-26-29-40.4-42zm55.6 195.8c-10.9 7.3-22.5 10.9-35.6 10.9c-32.7 0-58.9-21.1-58.9-56.7c0-17.5 10.9-32.7 32.7-59.6c2.9 3.6 45.1 57.5 45.1 57.5L365.7 376c2.2 2.9 3.6 5.8 5.1 8.7c13.1 24 7.3 54.5-14.5 69.8z"/></svg>