<svg xmlns="http://www.w3.org/2000/svg" viewBox="0 0 448 512"><!--! Font Awesome Pro 6.2.0 by @fontawesome - https://fontawesome.com License - https://fontawesome.com/license (Commercial License) Copyright 2022 Fonticons, Inc. --><path d="M295.9 48c-3 0-6 .4-8.8 1.2L209.8 71.3C137.7 91.9 88 157.8 88 232.8V288h8c17.7 0 32 14.3 32 32V480c0 17.7-14.3 32-32 32H32c-17.7 0-32-14.3-32-32V320c0-17.7 14.3-32 32-32h8V232.8c0-96.4 63.9-181.2 156.7-207.7L273.8 3.1C281 1 288.4 0 295.9 0C340.1 0 376 35.9 376 80.1V136c0 13.3-10.7 24-24 24s-24-10.7-24-24V80.1C328 62.4 313.6 48 295.9 48zM352 208l-9.9-12.6c5.8-4.5 13.9-4.5 19.7 0L352 208zm59.9 217.9c-8.3 10.5-16.6 19-22.8 24.9l24.2 36.3c3.3 4.9 3.6 11.2 .8 16.4s-8.2 8.5-14.1 8.5H304c-5.9 0-11.3-3.2-14.1-8.5s-2.5-11.5 .8-16.4l24.2-36.3c-6.3-5.9-14.5-14.3-22.8-24.9c-16.7-21.2-35.1-52.5-36.1-89.5c-1-38.3 22.5-74.2 43.1-98.7c10.7-12.7 21.3-23.2 29.3-30.5c4-3.7 7.4-6.6 9.8-8.6c1.2-1 2.1-1.8 2.8-2.3l.8-.6 .2-.2 .1-.1 0 0 0 0s0 0 9.9 12.6c9.9-12.6 9.9-12.6 9.9-12.6l0 0 0 0 .1 .1 .2 .2 .8 .6c.7 .5 1.6 1.3 2.8 2.3c2.4 2 5.7 4.9 9.8 8.6c8 7.3 18.7 17.8 29.3 30.5c20.7 24.5 44.1 60.5 43.1 98.7c-1 37-19.3 68.3-36.1 89.5zM376 312c0-13.3-10.7-24-24-24s-24 10.7-24 24s10.7 24 24 24s24-10.7 24-24z"/></svg>