<svg xmlns="http://www.w3.org/2000/svg" viewBox="0 0 512 512"><!--! Font Awesome Pro 6.2.0 by @fontawesome - https://fontawesome.com License - https://fontawesome.com/license (Commercial License) Copyright 2022 Fonticons, Inc. --><path d="M32 0C49.7 0 64 14.3 64 32V480c0 17.7-14.3 32-32 32s-32-14.3-32-32V32C0 14.3 14.3 0 32 0zM96 32h32H480c12.6 0 24 7.4 29.2 18.9s3.1 25-5.3 34.4L394.8 208 503.9 330.7c8.4 9.4 10.4 22.9 5.3 34.4S492.6 384 480 384h-.8-.8-.8-.8H476h-.8-.8-.8-.8H472h-.8-.8-.8-.8-.8-.8-.8-.8-.8-.8-.8-.8-.8-.8-.8-.8-.8H458h-.8-.8-.8-.8-.8-.8-.8-.8-.8-.8-.8-.8-.8-.8-.8-.8-.7-.7-.7-.7-.7-.7-.7-.7-.7-.7-.7-.7-.7-.7-.7H434h-.7-.7-.7H431h-.7-.7-.7-.7-.7-.7H426h-.7-.7-.7-.7-.7-.7H421h-.7-.7-.7-.7-.7-.7H416h-.7-.7-.7-.7-.7-.7H411h-.7-.7-.7-.7-.7-.7-.7-.7-.7-.7-.7-.7H402h-.7-.7-.7-.7-.7-.7-.7-.7-.7-.7-.7-.7-.7-.7-.7-.7-.7-.7H389h-.7-.7H387h-.7-.7H385h-.7-.7H383h-.7-.7H381h-.7-.7H379h-.7-.7H377h-.7-.7H375h-.7-.7H373h-.7-.7H371h-.7-.7-.7-.7-.7-.7-.7-.7-.7-.7-.7-.6-.7-.6-.7-.6-.6-.6-.6H358h-.6-.6H356h-.6-.6-.6-.6-.6-.6-.6-.6-.6-.6-.6-.6-.6H347h-.6-.6-.6-.6-.6-.6-.6-.6-.6-.6H340h-.6-.6-.6-.6-.6-.6-.6-.6-.6-.6H333h-.6-.6-.6-.6-.6-.6-.6-.6-.6-.6H326h-.6-.6-.6-.6-.6-.6-.6H321h-.6-.6-.6-.6-.6-.6-.6-.6-.6-.6-.6-.6-.6-.6-.6-.6-.6-.6H309h-.6-.6-.6-.6-.6-.6-.6H304h-.6-.6-.6-.6-.6-.6-.6H299h-.6-.6-.6-.6-.6-.6-.6-.6-.6-.6-.6-.6-.6-.6-.6-.6-.6-.6H287h-.6-.6-.6-.6-.6-.6-.6H282h-.6-.6-.6-.6-.6-.6-.6-.6-.6-.6H275h-.6-.6-.6-.6-.6-.6-.6-.6-.6-.6H268h-.6-.6-.6-.6-.6-.6-.6-.6-.6-.6H261h-.6-.6-.6-.6-.6-.6-.6-.6-.6-.6-.6-.6-.6H252h-.6-.6H250h-.6-.6-.6-.6-.7-.7-.7-.7-.7-.7-.7-.7-.7-.7-.7-.7-.7-.7-.7H237h-.7-.7H235h-.7-.7H233h-.7-.7H231h-.7-.7H229h-.7-.7H227h-.7-.7H225h-.7-.7H223h-.7-.7H221h-.7-.7H219h-.7-.7-.7-.7-.7-.7-.7-.7-.7-.7-.7-.7-.7-.7-.7-.7-.7-.7H206h-.7-.7-.7-.7-.7-.7-.7-.7-.7-.7-.7-.7H197h-.7-.7-.7-.7-.7-.7H192h-.7-.7-.7-.7-.7-.7H187h-.7-.7-.7-.7-.7-.7H182h-.7-.7-.7-.7-.7-.7H177h-.7-.7-.7H174h-.7-.7-.7-.7-.7-.7-.7-.7-.7-.7-.7-.7-.7-.7-.7-.7-.8-.8-.8-.8-.8-.8-.8-.8-.8-.8-.8-.8-.8-.8-.8H150h-.8-.8-.8-.8-.8-.8-.8-.8-.8-.8-.8-.8-.8-.8-.8-.8-.8H136h-.8-.8-.8-.8H132h-.8-.8-.8-.8H128 96V352 64 32z"/></svg>