<svg xmlns="http://www.w3.org/2000/svg" viewBox="0 0 448 512"><!--! Font Awesome Pro 6.2.0 by @fontawesome - https://fontawesome.com License - https://fontawesome.com/license (Commercial License) Copyright 2022 Fonticons, Inc. --><path d="M192 64h64v93.7c0 30.4 16.9 56.1 40.3 69.7c43 25 71.6 71.4 71.7 124.4c-58.6-1.7-85.4-12.6-109.9-22.6c-22-9-42.2-17.2-82.1-17.2c-42.3 0-73.4 9.2-94.5 18.8c6.5-44.1 33-81.7 70.2-103.4c23.4-13.6 40.3-39.3 40.3-69.7V64zm128 93.7V64c17.7 0 32-14.3 32-32s-14.3-32-32-32H304 144 128C110.3 0 96 14.3 96 32s14.3 32 32 32v93.7c0 6-3.3 11.4-8.5 14.4C57.6 208.2 16 275.2 16 352c0 56 22.1 106.9 58.2 144.3C84.5 507 99.3 512 114.2 512H333.8c15 0 29.7-5 40.1-15.7C409.9 458.9 432 408 432 352c0-76.8-41.6-143.8-103.5-179.9c-5.2-3-8.5-8.4-8.5-14.4z"/></svg>