<svg xmlns="http://www.w3.org/2000/svg" viewBox="0 0 512 512"><!--! Font Awesome Pro 6.2.0 by @fontawesome - https://fontawesome.com License - https://fontawesome.com/license (Commercial License) Copyright 2022 Fonticons, Inc. --><path d="M256 512c141.4 0 256-114.6 256-256S397.4 0 256 0S0 114.6 0 256S114.6 512 256 512zM358.7 164.4L352 160l-4.4-6.7c3.2-2.1 7.4-1.7 10.1 1s3.1 6.9 1 10.1zM160 352l-6.7-4.4 0 0 0 0 0 0 .1-.1 .3-.4c.3-.4 .6-.9 1.2-1.7c1-1.5 2.5-3.6 4.5-6.3c3.9-5.5 9.8-13.3 17.3-22.9c15.2-19.2 37.4-45.4 65.6-73.7s54.5-50.5 73.7-65.6c9.6-7.6 17.4-13.4 22.9-17.3c2.7-2 4.9-3.5 6.3-4.5c.7-.5 1.3-.9 1.7-1.2l.4-.3 .1-.1 0 0 0 0 0 0L352 160l6.7 4.4 0 0 0 0 0 0-.1 .1-.3 .4c-.3 .4-.6 .9-1.2 1.7c-1 1.5-2.5 3.6-4.5 6.3c-3.9 5.5-9.8 13.3-17.3 22.9c-15.2 19.2-37.4 45.4-65.6 73.7s-54.5 50.5-73.7 65.6c-9.6 7.6-17.4 13.4-22.9 17.3c-2.7 2-4.9 3.5-6.3 4.5c-.7 .5-1.3 .9-1.7 1.2l-.4 .3-.1 .1 0 0 0 0 0 0L160 352zm0 0l4.4 6.7c-3.2 2.1-7.4 1.7-10.1-1s-3.1-6.9-1-10.1L160 352zm240-80l-4.1-6.9c3.1-1.9 7.2-1.4 9.8 1.2s3.1 6.6 1.2 9.8L400 272zM272 400l-6.9-4.1 0 0 0 0 0 0 .1-.1 .2-.4 .9-1.4c.7-1.2 1.8-2.9 3.2-5.1c2.8-4.3 6.9-10.4 12-17.6c10.1-14.2 24.4-32.6 40.9-49s34.8-30.7 49-40.9c7.1-5.1 13.2-9.2 17.6-12c2.2-1.4 3.9-2.5 5.1-3.2l1.4-.9 .4-.2 .1-.1 0 0 0 0 0 0L400 272l6.9 4.1 0 0 0 0 0 0-.1 .1-.2 .4-.9 1.4c-.7 1.2-1.8 2.9-3.2 5.1c-2.8 4.3-6.9 10.4-12 17.6c-10.1 14.2-24.4 32.6-40.9 49s-34.8 30.7-49 40.9c-7.1 5.1-13.2 9.2-17.6 12c-2.2 1.4-3.9 2.5-5.1 3.2l-1.4 .9-.4 .2-.1 .1 0 0 0 0 0 0L272 400zm0 0l4.1 6.9c-3.1 1.9-7.2 1.4-9.8-1.2s-3.1-6.6-1.2-9.8L272 400zM246.9 116.1L240 112l-4.1-6.9c3.1-1.9 7.2-1.4 9.8 1.2s3.1 6.6 1.2 9.8zM112 240l-6.9-4.1 0 0 0 0 0 0 .1-.1 .2-.4 .9-1.4c.7-1.2 1.8-2.9 3.2-5.1c2.8-4.3 6.9-10.4 12-17.6c10.1-14.2 24.4-32.6 40.9-49s34.8-30.7 49-40.9c7.1-5.1 13.2-9.2 17.6-12c2.2-1.4 3.9-2.5 5.1-3.2l1.4-.9 .4-.2 .1-.1 0 0 0 0 0 0L240 112l6.9 4.1 0 0 0 0 0 0-.1 .1-.2 .4-.9 1.4c-.7 1.2-1.8 2.9-3.2 5.1c-2.8 4.3-6.9 10.4-12 17.6c-10.1 14.2-24.4 32.6-40.9 49s-34.8 30.7-49 40.9c-7.1 5.1-13.2 9.2-17.6 12c-2.2 1.4-3.9 2.5-5.1 3.2l-1.4 .9-.4 .2-.1 .1 0 0 0 0 0 0L112 240zm0 0l4.1 6.9c-3.1 1.9-7.2 1.4-9.8-1.2s-3.1-6.6-1.2-9.8L112 240z"/></svg>