<svg xmlns="http://www.w3.org/2000/svg" viewBox="0 0 512 512"><!--! Font Awesome Pro 6.2.0 by @fontawesome - https://fontawesome.com License - https://fontawesome.com/license (Commercial License) Copyright 2022 Fonticons, Inc. --><path d="M96 56c0-30.9 25.1-56 56-56H370.7c14.9 0 29.1 5.9 39.6 16.4l85.3 85.3c10.5 10.5 16.4 24.7 16.4 39.6V360c0 30.9-25.1 56-56 56H152c-30.9 0-56-25.1-56-56V56zm96 8c-17.7 0-32 14.3-32 32v32c0 17.7 14.3 32 32 32H352c17.7 0 32-14.3 32-32V96c0-17.7-14.3-32-32-32H192zM368 288c0-35.3-28.7-64-64-64s-64 28.7-64 64s28.7 64 64 64s64-28.7 64-64zM48 120V376c0 48.6 39.4 88 88 88H392c13.3 0 24 10.7 24 24s-10.7 24-24 24H136C60.9 512 0 451.1 0 376V120c0-13.3 10.7-24 24-24s24 10.7 24 24z"/></svg>