<svg xmlns="http://www.w3.org/2000/svg" viewBox="0 0 512 512"><!--! Font Awesome Pro 6.2.0 by @fontawesome - https://fontawesome.com License - https://fontawesome.com/license (Commercial License) Copyright 2022 Fonticons, Inc. --><path d="M288 281.3c9.8 4.3 20.6 6.7 32 6.7c44.2 0 80-35.8 80-80c0-26.2-12.6-49.4-32-64c19.4-14.6 32-37.8 32-64c0-44.2-35.8-80-80-80c-26.2 0-49.4 12.6-64 32C241.4 12.6 218.2 0 192 0c-44.2 0-80 35.8-80 80c0 26.2 12.6 49.4 32 64c-19.4 14.6-32 37.8-32 64c0 44.2 35.8 80 80 80c11.4 0 22.2-2.4 32-6.7V394.8C192.1 349.5 139.5 320 80 320H29.5C13.2 320 0 333.2 0 349.5C0 439.3 72.7 512 162.5 512H224h32 32 61.5C439.3 512 512 439.3 512 349.5c0-16.3-13.2-29.5-29.5-29.5H432c-59.5 0-112.1 29.5-144 74.8V281.3zM304 144c0 26.5-21.5 48-48 48s-48-21.5-48-48s21.5-48 48-48s48 21.5 48 48z"/></svg>