<svg xmlns="http://www.w3.org/2000/svg" viewBox="0 0 512 512"><!--! Font Awesome Pro 6.2.0 by @fontawesome - https://fontawesome.com License - https://fontawesome.com/license (Commercial License) Copyright 2022 Fonticons, Inc. --><path d="M512 416c0 35.3-28.7 64-64 64H64c-35.3 0-64-28.7-64-64V96C0 60.7 28.7 32 64 32H181.5c17 0 33.3 6.7 45.3 18.7l26.5 26.5c12 12 28.3 18.7 45.3 18.7H448c35.3 0 64 28.7 64 64V416zM368.6 259.9c6.3-3.6 9.5-11.1 6.8-18c-2.1-5.5-4.6-10.8-7.4-15.9l-2.3-4c-3.1-5.1-6.5-9.9-10.2-14.5c-4.6-5.7-12.7-6.7-19-3L318.4 215c-8.9-7.6-19.1-13.6-30.4-17.6v-21c0-7.3-4.9-13.8-12.1-14.9c-6.5-1-13.1-1.5-19.9-1.5s-13.4 .5-19.9 1.5c-7.2 1.1-12.1 7.6-12.1 14.9v21c-11.2 4-21.5 10-30.4 17.6l-18.2-10.5c-6.3-3.6-14.4-2.6-19 3c-3.7 4.6-7.1 9.5-10.2 14.6l-2.3 3.9c-2.8 5.1-5.3 10.4-7.4 15.9c-2.6 6.8 .5 14.3 6.8 18l18.2 10.5c-1.1 5.7-1.6 11.6-1.6 17.6s.5 11.9 1.6 17.5l-18.2 10.5c-6.3 3.6-9.5 11.1-6.8 17.9c2.1 5.5 4.6 10.7 7.4 15.8l2.4 4.1c3.1 5.1 6.4 9.9 10.1 14.5c4.6 5.7 12.7 6.7 19 3L193.6 361c8.9 7.6 19.2 13.6 30.4 17.6v21c0 7.3 4.9 13.8 12.1 14.9c6.5 1 13.1 1.5 19.9 1.5s13.4-.5 19.9-1.5c7.2-1.1 12.1-7.6 12.1-14.9v-21c11.2-4 21.5-10 30.4-17.6l18.2 10.5c6.3 3.6 14.4 2.6 19-3c3.7-4.6 7.1-9.4 10.1-14.5l2.4-4.2c2.8-5.1 5.3-10.3 7.4-15.8c2.6-6.8-.5-14.3-6.8-17.9l-18.2-10.5c1-5.7 1.6-11.6 1.6-17.5s-.6-11.9-1.6-17.6l18.2-10.5zM296 288c0 22.1-17.9 40-40 40s-40-17.9-40-40s17.9-40 40-40s40 17.9 40 40z"/></svg>