<svg xmlns="http://www.w3.org/2000/svg" viewBox="0 0 512 512"><!--! Font Awesome Pro 6.2.0 by @fontawesome - https://fontawesome.com License - https://fontawesome.com/license (Commercial License) Copyright 2022 Fonticons, Inc. --><path d="M512 416c0 35.3-28.7 64-64 64H64c-35.3 0-64-28.7-64-64V96C0 60.7 28.7 32 64 32H181.5c17 0 33.3 6.7 45.3 18.7l26.5 26.5c12 12 28.3 18.7 45.3 18.7H448c35.3 0 64 28.7 64 64V416zM144 253.3c0 16.2 6.5 31.8 17.9 43.3l82.7 82.7c6.2 6.2 16.4 6.2 22.6 0l82.7-82.7c11.5-11.5 17.9-27.1 17.9-43.3c0-33.8-27.4-61.3-61.3-61.3c-16.2 0-31.8 6.5-43.3 17.9l-7.4 7.4-7.4-7.4c-11.5-11.5-27.1-17.9-43.3-17.9c-33.8 0-61.3 27.4-61.3 61.3z"/></svg>