<svg xmlns="http://www.w3.org/2000/svg" viewBox="0 0 512 512"><!--! Font Awesome Pro 6.2.0 by @fontawesome - https://fontawesome.com License - https://fontawesome.com/license (Commercial License) Copyright 2022 Fonticons, Inc. --><path d="M448 480H64c-35.3 0-64-28.7-64-64V96C0 60.7 28.7 32 64 32H181.5c17 0 33.3 6.7 45.3 18.7l26.5 26.5c12 12 28.3 18.7 45.3 18.7H448c35.3 0 64 28.7 64 64V416c0 35.3-28.7 64-64 64zM288 176V336c0 6.1 3.4 11.6 8.8 14.3s11.9 2.1 16.8-1.5L368 308l54.4 40.8c4.8 3.6 11.3 4.2 16.8 1.5s8.8-8.2 8.8-14.3V176c0-8.8-7.2-16-16-16H304c-8.8 0-16 7.2-16 16z"/></svg>