<svg xmlns="http://www.w3.org/2000/svg" viewBox="0 0 512 512"><!--! Font Awesome Pro 6.2.0 by @fontawesome - https://fontawesome.com License - https://fontawesome.com/license (Commercial License) Copyright 2022 Fonticons, Inc. --><path d="M448 480H64c-35.3 0-64-28.7-64-64V96C0 60.7 28.7 32 64 32H181.5c17 0 33.3 6.7 45.3 18.7l26.5 26.5c12 12 28.3 18.7 45.3 18.7H448c35.3 0 64 28.7 64 64V416c0 35.3-28.7 64-64 64zM104 240c-13.3 0-24 10.7-24 24v48c0 13.3 10.7 24 24 24h48c13.3 0 24-10.7 24-24V264c0-13.3-10.7-24-24-24H104zm128 0c-13.3 0-24 10.7-24 24v48c0 13.3 10.7 24 24 24h48c13.3 0 24-10.7 24-24V264c0-13.3-10.7-24-24-24H232zm104 24v48c0 13.3 10.7 24 24 24h48c13.3 0 24-10.7 24-24V264c0-13.3-10.7-24-24-24H360c-13.3 0-24 10.7-24 24z"/></svg>