<svg xmlns="http://www.w3.org/2000/svg" viewBox="0 0 384 512"><!--! Font Awesome Pro 6.2.0 by @fontawesome - https://fontawesome.com License - https://fontawesome.com/license (Commercial License) Copyright 2022 Fonticons, Inc. --><path d="M0 64C0 28.7 28.7 0 64 0H320c35.3 0 64 28.7 64 64V416c0 53-43 96-96 96H96c-53 0-96-43-96-96V64zM96 80V192c0 17.7 14.3 32 32 32H256c17.7 0 32-14.3 32-32V80c0-8.8-7.2-16-16-16H112c-8.8 0-16 7.2-16 16zM232 384c13.3 0 24-10.7 24-24s-10.7-24-24-24s-24 10.7-24 24s10.7 24 24 24zm88-72c0-13.3-10.7-24-24-24s-24 10.7-24 24s10.7 24 24 24s24-10.7 24-24zM96 304v16H80c-8.8 0-16 7.2-16 16s7.2 16 16 16H96v16c0 8.8 7.2 16 16 16s16-7.2 16-16V352h16c8.8 0 16-7.2 16-16s-7.2-16-16-16H128V304c0-8.8-7.2-16-16-16s-16 7.2-16 16z"/></svg>