<svg xmlns="http://www.w3.org/2000/svg" viewBox="0 0 640 512"><!--! Font Awesome Pro 6.2.0 by @fontawesome - https://fontawesome.com License - https://fontawesome.com/license (Commercial License) Copyright 2022 Fonticons, Inc. --><path d="M38.8 5.1C28.4-3.1 13.3-1.2 5.1 9.2S-1.2 34.7 9.2 42.9l592 464c10.4 8.2 25.5 6.3 33.7-4.1s6.3-25.5-4.1-33.7l-72.2-56.6C569.5 397.9 576 379.7 576 360V224 192 168 154.5c0-17-6.7-33.3-18.7-45.3L480 32c-8.8-8.8-23.2-8.8-32 0s-8.8 23.2 0 32l32 32v64c0 29.8 20.4 54.9 48 62V360c0 8.5-2.7 16.4-7.2 22.9L384 275.7V64c0-35.3-28.7-64-64-64H160c-30.9 0-56.7 21.9-62.7 51L38.8 5.1zM96 171.6V448c-17.7 0-32 14.3-32 32s14.3 32 32 32H384c17.7 0 32-14.3 32-32s-14.3-32-32-32V398.5L96 171.6z"/></svg>