<svg xmlns="http://www.w3.org/2000/svg" viewBox="0 0 640 512"><!--! Font Awesome Pro 6.2.0 by @fontawesome - https://fontawesome.com License - https://fontawesome.com/license (Commercial License) Copyright 2022 Fonticons, Inc. --><path d="M496 192c2.7 0 5.3 .1 8 .2C475.6 81.7 375.4 0 256 0C114.6 0 0 114.6 0 256S114.6 512 256 512c39.5 0 77-9 110.4-25C337.6 455.7 320 413.9 320 368c0-97.2 78.8-176 176-176zM320 352c0 35.3-28.7 64-64 64s-64-28.7-64-64c0-26.9 16.5-49.9 40-59.3V88c0-13.3 10.7-24 24-24s24 10.7 24 24V292.7c23.5 9.5 40 32.5 40 59.3zM144 176c-17.7 0-32-14.3-32-32s14.3-32 32-32s32 14.3 32 32s-14.3 32-32 32zm-16 80c0 17.7-14.3 32-32 32s-32-14.3-32-32s14.3-32 32-32s32 14.3 32 32zM400 144c0 17.7-14.3 32-32 32s-32-14.3-32-32s14.3-32 32-32s32 14.3 32 32zm96 368c79.5 0 144-64.5 144-144s-64.5-144-144-144s-144 64.5-144 144s64.5 144 144 144zm16-208v48h48c8.8 0 16 7.2 16 16s-7.2 16-16 16H512v48c0 8.8-7.2 16-16 16s-16-7.2-16-16V384H432c-8.8 0-16-7.2-16-16s7.2-16 16-16h48V304c0-8.8 7.2-16 16-16s16 7.2 16 16z"/></svg>