<svg xmlns="http://www.w3.org/2000/svg" viewBox="0 0 576 512"><!--! Font Awesome Pro 6.2.0 by @fontawesome - https://fontawesome.com License - https://fontawesome.com/license (Commercial License) Copyright 2022 Fonticons, Inc. --><path d="M0 96C0 60.7 28.7 32 64 32H512c35.3 0 64 28.7 64 64V416c0 35.3-28.7 64-64 64H64c-35.3 0-64-28.7-64-64V96zm304 64c-8.8 0-16 7.2-16 16V336c0 8.8 7.2 16 16 16s16-7.2 16-16V176c0-8.8-7.2-16-16-16zm48 16v80 80c0 8.8 7.2 16 16 16s16-7.2 16-16V272h64c8.8 0 16-7.2 16-16s-7.2-16-16-16H384V192h80c8.8 0 16-7.2 16-16s-7.2-16-16-16H368c-8.8 0-16 7.2-16 16zM128 256c0-35.3 28.7-64 64-64c14.4 0 27.7 4.8 38.4 12.8c7.1 5.3 17.1 3.9 22.4-3.2s3.9-17.1-3.2-22.4c-16-12.1-36-19.2-57.6-19.2c-53 0-96 43-96 96s43 96 96 96c21.6 0 41.6-7.1 57.6-19.2c4-3 6.4-7.8 6.4-12.8V264c0-8.8-7.2-16-16-16H184c-8.8 0-16 7.2-16 16s7.2 16 16 16h40v31.4c-9.4 5.4-20.3 8.6-32 8.6c-35.3 0-64-28.7-64-64z"/></svg>