<svg xmlns="http://www.w3.org/2000/svg" viewBox="0 0 512 512"><!--! Font Awesome Pro 6.2.0 by @fontawesome - https://fontawesome.com License - https://fontawesome.com/license (Commercial License) Copyright 2022 Fonticons, Inc. --><path d="M346.7 6C337.6 17 320 42.3 320 72c0 40 15.3 55.3 40 80s40 40 80 40c29.7 0 55-17.6 66-26.7c4-3.3 6-8.2 6-13.3s-2-10-6-13.2c-11.4-9.1-38.3-26.8-74-26.8c-32 0-40 8-40 8s8-8 8-40c0-35.7-17.7-62.6-26.8-74C370 2 365.1 0 360 0s-10 2-13.3 6zM304 152c0-30.9-25.1-56-56-56s-56 25.1-56 56s25.1 56 56 56s56-25.1 56-56zM112 232c30.9 0 56-25.1 56-56s-25.1-56-56-56s-56 25.1-56 56s25.1 56 56 56zm32 80c0-30.9-25.1-56-56-56s-56 25.1-56 56s25.1 56 56 56s56-25.1 56-56zM112 456c0-30.9-25.1-56-56-56s-56 25.1-56 56s25.1 56 56 56s56-25.1 56-56zm144-32c0-30.9-25.1-56-56-56s-56 25.1-56 56s25.1 56 56 56s56-25.1 56-56zm80 32c30.9 0 56-25.1 56-56s-25.1-56-56-56s-56 25.1-56 56s25.1 56 56 56zM280 288c0-30.9-25.1-56-56-56s-56 25.1-56 56s25.1 56 56 56s56-25.1 56-56zm80 32c30.9 0 56-25.1 56-56s-25.1-56-56-56s-56 25.1-56 56s25.1 56 56 56z"/></svg>