<svg xmlns="http://www.w3.org/2000/svg" viewBox="0 0 576 512"><!--! Font Awesome Pro 6.2.0 by @fontawesome - https://fontawesome.com License - https://fontawesome.com/license (Commercial License) Copyright 2022 Fonticons, Inc. --><path d="M0 96C0 60.7 28.7 32 64 32h64 96 96 64c35.3 0 64 28.7 64 64v66.2c-15.1 4.3-28.2 14.6-35.8 28.8L336.9 332.2C325.8 353.1 320 376.4 320 400c0 29.6 8.9 57.1 24.2 80H320 224 128 64c-35.3 0-64-28.7-64-64V256 96zm96 0H64V224H96V96zM64 416H96V288H64V416zm128 0V288H160V416h32zm96 0V288H256V416h32zM384 96H352V224h32V96zM256 96V224h32V96H256zm-96 0V224h32V96H160zM440.5 206.1c4.6-8.7 13.7-14.1 23.5-14.1s18.9 5.4 23.5 14.1l75.3 141.2c8.7 16.2 13.2 34.3 13.2 52.7c0 61.9-50.1 112-112 112s-112-50.1-112-112c0-18.4 4.5-36.5 13.2-52.7l75.3-141.2z"/></svg>