<svg xmlns="http://www.w3.org/2000/svg" viewBox="0 0 512 512"><!--! Font Awesome Pro 6.2.0 by @fontawesome - https://fontawesome.com License - https://fontawesome.com/license (Commercial License) Copyright 2022 Fonticons, Inc. --><path d="M80 32h96c26.5 0 48 21.5 48 48v96c0 26.5-21.5 48-48 48H80c-26.5 0-48-21.5-48-48V80c0-26.5 21.5-48 48-48zm0 256h96c26.5 0 48 21.5 48 48v96c0 26.5-21.5 48-48 48H80c-26.5 0-48-21.5-48-48V336c0-26.5 21.5-48 48-48zM288 80c0-26.5 21.5-48 48-48h96c26.5 0 48 21.5 48 48v96c0 26.5-21.5 48-48 48H336c-26.5 0-48-21.5-48-48V80zm96 192c13.3 0 24 10.7 24 24v64h64c13.3 0 24 10.7 24 24s-10.7 24-24 24H408v64c0 13.3-10.7 24-24 24s-24-10.7-24-24V408H296c-13.3 0-24-10.7-24-24s10.7-24 24-24h64V296c0-13.3 10.7-24 24-24z"/></svg>