<svg xmlns="http://www.w3.org/2000/svg" viewBox="0 0 448 512"><!--! Font Awesome Pro 6.2.0 by @fontawesome - https://fontawesome.com License - https://fontawesome.com/license (Commercial License) Copyright 2022 Fonticons, Inc. --><path d="M0 48v57.6c0 8.8 7.2 16 16 16H73.6c8.8 0 16-7.2 16-16V48c0-8.8-7.2-16-16-16H16C7.2 32 0 39.2 0 48zM0 167.5v57.6c0 8.8 7.2 16 16 16H73.6c8.8 0 16-7.2 16-16V167.5c0-8.8-7.2-16-16-16H16c-8.8 0-16 7.2-16 16zM16 270.9c-8.8 0-16 7.2-16 16v57.6c0 8.8 7.2 16 16 16H73.6c8.8 0 16-7.2 16-16V286.9c0-8.8-7.2-16-16-16H16zM0 406.4V464c0 8.8 7.2 16 16 16H73.6c8.8 0 16-7.2 16-16V406.4c0-8.8-7.2-16-16-16H16c-8.8 0-16 7.2-16 16zM119.5 48v57.6c0 8.8 7.2 16 16 16h57.6c8.8 0 16-7.2 16-16V48c0-8.8-7.2-16-16-16H135.5c-8.8 0-16 7.2-16 16zm0 119.5v57.6c0 8.8 7.2 16 16 16h57.6c8.8 0 16-7.2 16-16V167.5c0-8.8-7.2-16-16-16H135.5c-8.8 0-16 7.2-16 16zm16 103.5c-8.8 0-16 7.2-16 16v57.6c0 8.8 7.2 16 16 16h57.6c8.8 0 16-7.2 16-16V286.9c0-8.8-7.2-16-16-16H135.5zm-16 135.5V464c0 8.8 7.2 16 16 16h57.6c8.8 0 16-7.2 16-16V406.4c0-8.8-7.2-16-16-16H135.5c-8.8 0-16 7.2-16 16zM254.9 32c-8.8 0-16 7.2-16 16v57.6c0 8.8 7.2 16 16 16h57.6c8.8 0 16-7.2 16-16V48c0-8.8-7.2-16-16-16H254.9zm0 119.5c-8.8 0-16 7.2-16 16v57.6c0 8.8 7.2 16 16 16h57.6c8.8 0 16-7.2 16-16V167.5c0-8.8-7.2-16-16-16H254.9zm-16 135.5v57.6c0 8.8 7.2 16 16 16h57.6c8.8 0 16-7.2 16-16V286.9c0-8.8-7.2-16-16-16H254.9c-8.8 0-16 7.2-16 16zm16 103.5c-8.8 0-16 7.2-16 16V464c0 8.8 7.2 16 16 16h57.6c8.8 0 16-7.2 16-16V406.4c0-8.8-7.2-16-16-16H254.9zM358.4 48v57.6c0 8.8 7.2 16 16 16H432c8.8 0 16-7.2 16-16V48c0-8.8-7.2-16-16-16H374.4c-8.8 0-16 7.2-16 16zm0 119.5v57.6c0 8.8 7.2 16 16 16H432c8.8 0 16-7.2 16-16V167.5c0-8.8-7.2-16-16-16H374.4c-8.8 0-16 7.2-16 16zm16 103.5c-8.8 0-16 7.2-16 16v57.6c0 8.8 7.2 16 16 16H432c8.8 0 16-7.2 16-16V286.9c0-8.8-7.2-16-16-16H374.4zm-16 135.5V464c0 8.8 7.2 16 16 16H432c8.8 0 16-7.2 16-16V406.4c0-8.8-7.2-16-16-16H374.4c-8.8 0-16 7.2-16 16z"/></svg>