<svg xmlns="http://www.w3.org/2000/svg" viewBox="0 0 512 512"><!--! Font Awesome Pro 6.2.0 by @fontawesome - https://fontawesome.com License - https://fontawesome.com/license (Commercial License) Copyright 2022 Fonticons, Inc. --><path d="M0 24C0 10.7 10.7 0 24 0H488c13.3 0 24 10.7 24 24s-10.7 24-24 24H24C10.7 48 0 37.3 0 24zM64 96h64c17.7 0 32 14.3 32 32v64c0 17.7-14.3 32-32 32H64c-17.7 0-32-14.3-32-32V128c0-17.7 14.3-32 32-32zm0 288h64c17.7 0 32 14.3 32 32v64c0 17.7-14.3 32-32 32H64c-17.7 0-32-14.3-32-32V416c0-17.7 14.3-32 32-32zM192 128c0-17.7 14.3-32 32-32h64c17.7 0 32 14.3 32 32v64c0 17.7-14.3 32-32 32H224c-17.7 0-32-14.3-32-32V128zm32 256h64c17.7 0 32 14.3 32 32v64c0 17.7-14.3 32-32 32H224c-17.7 0-32-14.3-32-32V416c0-17.7 14.3-32 32-32zM352 128c0-17.7 14.3-32 32-32h64c17.7 0 32 14.3 32 32v64c0 17.7-14.3 32-32 32H384c-17.7 0-32-14.3-32-32V128zm32 256h64c17.7 0 32 14.3 32 32v64c0 17.7-14.3 32-32 32H384c-17.7 0-32-14.3-32-32V416c0-17.7 14.3-32 32-32zM24 288H488c13.3 0 24 10.7 24 24s-10.7 24-24 24H24c-13.3 0-24-10.7-24-24s10.7-24 24-24z"/></svg>