<svg xmlns="http://www.w3.org/2000/svg" viewBox="0 0 448 512"><!--! Font Awesome Pro 6.2.0 by @fontawesome - https://fontawesome.com License - https://fontawesome.com/license (Commercial License) Copyright 2022 Fonticons, Inc. --><path d="M192 80c0-26.5-21.5-48-48-48H48C21.5 32 0 53.5 0 80v96c0 26.5 21.5 48 48 48h96c26.5 0 48-21.5 48-48V80zm0 256c0-26.5-21.5-48-48-48H48c-26.5 0-48 21.5-48 48v96c0 26.5 21.5 48 48 48h96c26.5 0 48-21.5 48-48V336zM256 80v96c0 26.5 21.5 48 48 48h96c26.5 0 48-21.5 48-48V80c0-26.5-21.5-48-48-48H304c-26.5 0-48 21.5-48 48zM448 336c0-26.5-21.5-48-48-48H304c-26.5 0-48 21.5-48 48v96c0 26.5 21.5 48 48 48h96c26.5 0 48-21.5 48-48V336z"/></svg>