<svg xmlns="http://www.w3.org/2000/svg" viewBox="0 0 576 512"><!--! Font Awesome Pro 6.2.0 by @fontawesome - https://fontawesome.com License - https://fontawesome.com/license (Commercial License) Copyright 2022 Fonticons, Inc. --><path d="M0 72C0 49.9 17.9 32 40 32H408c22.1 0 40 17.9 40 40V96c0 24.1-3.8 47.3-10.9 69.1c-8.5-8.6-17.2-17-26.2-25.1c-17.7-16-44.7-16-62.5-.1c-35.4 31.6-65.6 67.7-87.3 102.8c-15 24.3-27.7 51-33.6 77.3c-1.2 0-2.4 0-3.6 0c-16.9 0-33.4-1.9-49.3-5.4L151.8 368h73c1.5 16.6 5.2 32.7 10.7 48H160c0 35.3-28.7 64-64 64s-64-28.7-64-64s28.7-64 64-64c3.4 0 6.8 .3 10.1 .8L129.2 299C52.9 263.3 0 185.8 0 96V72zM96 440c13.3 0 24-10.7 24-24s-10.7-24-24-24s-24 10.7-24 24s10.7 24 24 24zM389.5 163.8c19.7 17.8 38.2 37 55.5 57.7c7.9-9.9 16.8-20.7 26.5-29.5c5.6-5.1 14.4-5.1 20 0c24.7 22.7 45.6 52.7 60.4 81.1c14.5 28 24.2 56.7 24.2 76.9C576 437.9 504.7 512 416 512c-89.7 0-160-74.2-160-161.9c0-26.4 12.7-58.6 32.4-90.6c20-32.4 48.1-66.1 81.4-95.8c5.6-5 14.2-5 19.8 0zM466 433c30-21 38-63 20-96c-2-4-4-8-7-12l-36 42s-58-74-62-79c-30 37-45 58-45 82c0 49 36 78 81 78c18 0 34-5 49-15z"/></svg>