<svg xmlns="http://www.w3.org/2000/svg" viewBox="0 0 576 512"><!--! Font Awesome Pro 6.2.0 by @fontawesome - https://fontawesome.com License - https://fontawesome.com/license (Commercial License) Copyright 2022 Fonticons, Inc. --><path d="M128 56c0-13.3-10.7-24-24-24S80 42.7 80 56v9.3C34.6 72.9 0 112.4 0 160c0 47.3 34.3 86.7 79.4 94.6L33 440.2c-2.4 9.6-.2 19.7 5.8 27.5S54.1 480 64 480H168c14.7 0 27.5-10 31-24.2L219 376h53v16c0 13.3 10.7 24 24 24s24-10.7 24-24V352 312c0-13.3-10.7-24-24-24s-24 10.7-24 24v16H231l18-72H496c26.5 0 48-21.5 48-48V192c17.7 0 32-14.3 32-32s-14.3-32-32-32V112c0-26.5-21.5-48-48-48H128V56zM96 128H448c17.7 0 32 14.3 32 32s-14.3 32-32 32H96c-17.7 0-32-14.3-32-32s14.3-32 32-32z"/></svg>