<svg xmlns="http://www.w3.org/2000/svg" viewBox="0 0 640 512"><!--! Font Awesome Pro 6.2.0 by @fontawesome - https://fontawesome.com License - https://fontawesome.com/license (Commercial License) Copyright 2022 Fonticons, Inc. --><path d="M38.8 5.1C28.4-3.1 13.3-1.2 5.1 9.2S-1.2 34.7 9.2 42.9l592 464c10.4 8.2 25.5 6.3 33.7-4.1s6.3-25.5-4.1-33.7L412.3 297.8 432.9 240H464c8.5 0 16.6-3.4 22.6-9.4L509.3 208H576c17.7 0 32-14.3 32-32V96c0-17.7-14.3-32-32-32H560V56c0-13.3-10.7-24-24-24s-24 10.7-24 24v8H113.9L38.8 5.1zM195.6 128H496c8.8 0 16 7.2 16 16s-7.2 16-16 16H236.4l-40.8-32zM338.5 240h43.4l-9.5 26.6L338.5 240zM264 304h-3l.5-2L32 121.2V208c0 17.7 14.3 32 32 32H74c20.8 0 36.1 19.6 31 39.8L65 440.2c-2.4 9.6-.2 19.7 5.8 27.5S86.1 480 96 480h96c14.7 0 27.5-10 31-24.2L249 352h75.9L264 304z"/></svg>