<svg xmlns="http://www.w3.org/2000/svg" viewBox="0 0 576 512"><!--! Font Awesome Pro 6.2.0 by @fontawesome - https://fontawesome.com License - https://fontawesome.com/license (Commercial License) Copyright 2022 Fonticons, Inc. --><path d="M64 96c0-17.7-14.3-32-32-32S0 78.3 0 96V256 416c0 17.7 14.3 32 32 32s32-14.3 32-32V288H256V416c0 17.7 14.3 32 32 32s32-14.3 32-32V256 96c0-17.7-14.3-32-32-32s-32 14.3-32 32V224H64V96zm448 0c0-11.1-5.7-21.4-15.2-27.2s-21.2-6.4-31.1-1.4l-64 32c-15.8 7.9-22.2 27.1-14.3 42.9s27.1 22.2 42.9 14.3l17.7-8.8V384H416c-17.7 0-32 14.3-32 32s14.3 32 32 32h64 64c17.7 0 32-14.3 32-32s-14.3-32-32-32H512V96z"/></svg>