<svg xmlns="http://www.w3.org/2000/svg" viewBox="0 0 640 512"><!--! Font Awesome Pro 6.2.0 by @fontawesome - https://fontawesome.com License - https://fontawesome.com/license (Commercial License) Copyright 2022 Fonticons, Inc. --><path d="M64 96c0-17.7-14.3-32-32-32S0 78.3 0 96V256 416c0 17.7 14.3 32 32 32s32-14.3 32-32V288H256V416c0 17.7 14.3 32 32 32s32-14.3 32-32V256 96c0-17.7-14.3-32-32-32s-32 14.3-32 32V224H64V96zm385.9 47.4c11.6-9.9 26.4-15.4 41.7-15.4H496c35.3 0 64 28.7 64 64v5.8c0 17.9-7.5 35.1-20.8 47.2L378.4 392.4c-9.7 8.9-13 22.9-8.2 35.2S386.8 448 400 448H608c17.7 0 32-14.3 32-32s-14.3-32-32-32H482.3l100.2-91.9c26.4-24.2 41.5-58.5 41.5-94.4V192c0-70.7-57.3-128-128-128h-4.5c-30.6 0-60.1 10.9-83.3 30.8l-29 24.9c-13.4 11.5-15 31.7-3.5 45.1s31.7 15 45.1 3.5l29-24.9z"/></svg>