<svg xmlns="http://www.w3.org/2000/svg" viewBox="0 0 640 512"><!--! Font Awesome Pro 6.2.0 by @fontawesome - https://fontawesome.com License - https://fontawesome.com/license (Commercial License) Copyright 2022 Fonticons, Inc. --><path d="M64 96c0-17.7-14.3-32-32-32S0 78.3 0 96V256 416c0 17.7 14.3 32 32 32s32-14.3 32-32V288H256V416c0 17.7 14.3 32 32 32s32-14.3 32-32V256 96c0-17.7-14.3-32-32-32s-32 14.3-32 32V224H64V96zM400 64c-17.7 0-32 14.3-32 32s14.3 32 32 32H514.7l-89.4 89.4c-9.2 9.2-11.9 22.9-6.9 34.9s16.6 19.8 29.6 19.8h72c30.9 0 56 25.1 56 56s-25.1 56-56 56H455.4c-11.7 0-21.7-8.5-23.7-20.1l-.2-1.2c-2.9-17.4-19.4-29.2-36.8-26.3s-29.2 19.4-26.3 36.8l.2 1.2c7.1 42.4 43.8 73.5 86.8 73.5H520c66.3 0 120-53.7 120-120c0-64.6-51-117.2-114.9-119.9l89.5-89.5c9.2-9.2 11.9-22.9 6.9-34.9s-16.6-19.8-29.6-19.8H400z"/></svg>