<svg xmlns="http://www.w3.org/2000/svg" viewBox="0 0 640 512"><!--! Font Awesome Pro 6.2.0 by @fontawesome - https://fontawesome.com License - https://fontawesome.com/license (Commercial License) Copyright 2022 Fonticons, Inc. --><path d="M64 96c0-17.7-14.3-32-32-32S0 78.3 0 96V256 416c0 17.7 14.3 32 32 32s32-14.3 32-32V288H256V416c0 17.7 14.3 32 32 32s32-14.3 32-32V256 96c0-17.7-14.3-32-32-32s-32 14.3-32 32V224H64V96zM432 64c-15.1 0-28.2 10.6-31.3 25.4l-32 152c-2 9.4 .4 19.3 6.5 26.8s15.2 11.8 24.8 11.8H524c28.7 0 52 23.3 52 52s-23.3 52-52 52H456.4c-10.3 0-19.5-6.6-22.8-16.4l-3.2-9.7c-5.6-16.8-23.7-25.8-40.5-20.2s-25.8 23.7-20.2 40.5l3.2 9.7c12 35.9 45.6 60.2 83.5 60.2H524c64.1 0 116-51.9 116-116s-51.9-116-116-116H439.4L458 128H576c17.7 0 32-14.3 32-32s-14.3-32-32-32H432z"/></svg>