<svg xmlns="http://www.w3.org/2000/svg" viewBox="0 0 640 512"><!--! Font Awesome Pro 6.2.0 by @fontawesome - https://fontawesome.com License - https://fontawesome.com/license (Commercial License) Copyright 2022 Fonticons, Inc. --><path d="M537 116l-35.3 44.1C578.6 163.1 640 226.4 640 304c0 79.5-64.5 144-144 144s-144-64.5-144-144c0-38.3 13-75.5 37-105.5L487 76c11-13.8 31.2-16 45-5s16 31.2 5 45zM416 304c0 44.2 35.8 80 80 80s80-35.8 80-80s-35.8-80-80-80s-80 35.8-80 80zM32 64c17.7 0 32 14.3 32 32V224H256V96c0-17.7 14.3-32 32-32s32 14.3 32 32V256 416c0 17.7-14.3 32-32 32s-32-14.3-32-32V288H64V416c0 17.7-14.3 32-32 32s-32-14.3-32-32V256 96C0 78.3 14.3 64 32 64z"/></svg>