<svg xmlns="http://www.w3.org/2000/svg" viewBox="0 0 576 512"><!--! Font Awesome Pro 6.2.0 by @fontawesome - https://fontawesome.com License - https://fontawesome.com/license (Commercial License) Copyright 2022 Fonticons, Inc. --><path d="M224 121.7c0 3.5 2.8 6.3 6.3 6.3c1.1 0 2.2-.3 3.1-.8l46.6-26.6c4.9-2.8 11-2.8 15.9 0l46.6 26.6c1 .5 2 .8 3.1 .8c3.5 0 6.3-2.8 6.3-6.3V0h80c26.5 0 48 21.5 48 48V208c0 26.5-21.5 48-48 48H144c-26.5 0-48-21.5-48-48V48c0-26.5 21.5-48 48-48h80V121.7zM568.2 336.3c13.1 17.8 9.3 42.8-8.5 55.9L433.1 485.5c-23.4 17.2-51.6 26.5-80.7 26.5H192 32c-17.7 0-32-14.3-32-32V416c0-17.7 14.3-32 32-32H68.8l44.9-36c22.7-18.2 50.9-28 80-28H272h16 64c17.7 0 32 14.3 32 32s-14.3 32-32 32H288 272c-8.8 0-16 7.2-16 16s7.2 16 16 16H392.6l119.7-88.2c17.8-13.1 42.8-9.3 55.9 8.5zM193.6 384l0 0-.9 0c.3 0 .6 0 .9 0z"/></svg>