<svg xmlns="http://www.w3.org/2000/svg" viewBox="0 0 576 512"><!--! Font Awesome Pro 6.2.0 by @fontawesome - https://fontawesome.com License - https://fontawesome.com/license (Commercial License) Copyright 2022 Fonticons, Inc. --><path d="M96 14.5C96 6.5 102.5 0 110.5 0H160c88.4 0 160 71.6 160 160v96c0 17.7-14.3 32-32 32s-32-14.3-32-32V160H241.5C161.1 160 96 94.9 96 14.5zm384 0C480 89 424.1 150.3 352 159c-.2-44.9-15.9-86.2-42-118.8C338.2 15.2 375.3 0 416 0h49.5c8 0 14.5 6.5 14.5 14.5zm88.2 321.7c13.1 17.8 9.3 42.8-8.5 55.9L433.1 485.5c-23.4 17.2-51.6 26.5-80.7 26.5H192 32c-17.7 0-32-14.3-32-32V416c0-17.7 14.3-32 32-32H68.8l44.9-36c22.7-18.2 50.9-28 80-28H272h16 64c17.7 0 32 14.3 32 32s-14.3 32-32 32H288 272c-8.8 0-16 7.2-16 16s7.2 16 16 16H392.6l119.7-88.2c17.8-13.1 42.8-9.3 55.9 8.5zM193.6 384l0 0-.9 0c.3 0 .6 0 .9 0z"/></svg>