<svg xmlns="http://www.w3.org/2000/svg" viewBox="0 0 640 512"><!--! Font Awesome Pro 6.2.0 by @fontawesome - https://fontawesome.com License - https://fontawesome.com/license (Commercial License) Copyright 2022 Fonticons, Inc. --><path d="M180 76.6C180 34.3 214.3 0 256.6 0c20.3 0 39.8 8.1 54.1 22.4l9.3 9.3 9.3-9.3C343.6 8.1 363.1 0 383.4 0C425.7 0 460 34.3 460 76.6c0 20.3-8.1 39.8-22.4 54.1L334.1 234.1c-7.8 7.8-20.5 7.8-28.3 0L202.4 130.7C188.1 116.4 180 96.9 180 76.6zM40 64c22.1 0 40 17.9 40 40v40 80 40.2c0 17 6.7 33.3 18.7 45.3l51.1 51.1c8.3 8.3 21.3 9.6 31 3.1c12.9-8.6 14.7-26.9 3.7-37.8l-15.2-15.2-32-32c-12.5-12.5-12.5-32.8 0-45.3s32.8-12.5 45.3 0l32 32 15.2 15.2 0 0 25.3 25.3c21 21 32.8 49.5 32.8 79.2V464c0 26.5-21.5 48-48 48H173.3c-17 0-33.3-6.7-45.3-18.7L28.1 393.4C10.1 375.4 0 351 0 325.5V224 160 104C0 81.9 17.9 64 40 64zm560 0c22.1 0 40 17.9 40 40v56 64V325.5c0 25.5-10.1 49.9-28.1 67.9L512 493.3c-12 12-28.3 18.7-45.3 18.7H400c-26.5 0-48-21.5-48-48V385.1c0-29.7 11.8-58.2 32.8-79.2l25.3-25.3 0 0 15.2-15.2 32-32c12.5-12.5 32.8-12.5 45.3 0s12.5 32.8 0 45.3l-32 32-15.2 15.2c-11 11-9.2 29.2 3.7 37.8c9.7 6.5 22.7 5.2 31-3.1l51.1-51.1c12-12 18.7-28.3 18.7-45.3V224 144 104c0-22.1 17.9-40 40-40z"/></svg>