<svg xmlns="http://www.w3.org/2000/svg" viewBox="0 0 512 512"><!--! Font Awesome Pro 6.2.0 by @fontawesome - https://fontawesome.com License - https://fontawesome.com/license (Commercial License) Copyright 2022 Fonticons, Inc. --><path d="M512 184c0-22.1-17.9-40-40-40l-200 0h-7l-73 0c-8.8 0-16-7.2-16-16s7.2-16 16-16l55.7 0c-1.4-2-3-3.9-4.5-5.8L227.2 87C215 72.4 197 64 178 64L140 64c-38 0-74 16.9-98.3 46.1l-4.5 5.4C13.1 144.3 0 180.5 0 217.9L0 336c0 70.7 57.3 128 128 128h64 32c26.5 0 48-21.5 48-48c0-12.4-4.7-23.6-12.3-32.1C284.5 382 304 361.3 304 336c0-12.4-4.7-23.6-12.3-32.1C316.5 302 336 281.3 336 256c0-12.3-4.6-23.5-12.2-32H472c22.1 0 40-17.9 40-40z"/></svg>