<svg xmlns="http://www.w3.org/2000/svg" viewBox="0 0 448 512"><!--! Font Awesome Pro 6.2.0 by @fontawesome - https://fontawesome.com License - https://fontawesome.com/license (Commercial License) Copyright 2022 Fonticons, Inc. --><path d="M128 128H43.8c-6.5 0-11.8-5.3-11.8-11.8c0-3.9 1.9-7.5 5.1-9.7L75.6 80 37.1 53.5c-3.2-2.2-5.1-5.8-5.1-9.7C32 37.3 37.3 32 43.8 32h85C132.5 13.7 148.6 0 168 0c22.1 0 40 17.9 40 40v88H176 128zm0 112V160h80v28.2c8.5-7.6 19.7-12.2 32-12.2c25.3 0 46 19.5 47.9 44.3c8.5-7.7 19.8-12.3 32.1-12.3c25.3 0 46 19.5 47.9 44.3c8.5-7.7 19.8-12.3 32.1-12.3c26.5 0 48 21.5 48 48v32 64c0 70.7-57.3 128-128 128H201.9c-37.4 0-73.7-13.1-102.4-37.1l-5.4-4.5C64.9 446.1 48 410 48 372V334c0-19 8.4-37 23-49.2l19.2-16c1.9-1.6 3.8-3.1 5.8-4.5V320c0 8.8 7.2 16 16 16s16-7.2 16-16V247v-7z"/></svg>