<svg xmlns="http://www.w3.org/2000/svg" viewBox="0 0 448 512"><!--! Font Awesome Pro 6.2.0 by @fontawesome - https://fontawesome.com License - https://fontawesome.com/license (Commercial License) Copyright 2022 Fonticons, Inc. --><path d="M152 512c-22.1 0-40-17.9-40-40V272v-7V192c0-8.8-7.2-16-16-16s-16 7.2-16 16v55.7c-2-1.4-3.9-3-5.8-4.5L55 227.2C40.4 215 32 197 32 178V140c0-38 16.9-74 46.1-98.3l5.4-4.5C112.3 13.1 148.5 0 185.9 0H304c70.7 0 128 57.3 128 128v64 32c0 26.5-21.5 48-48 48c-12.4 0-23.6-4.7-32.1-12.3C350 284.5 329.3 304 304 304c-12.4 0-23.6-4.7-32.1-12.3C270 316.5 249.3 336 224 336c-12.3 0-23.5-4.6-32-12.2V472c0 22.1-17.9 40-40 40z"/></svg>