<svg xmlns="http://www.w3.org/2000/svg" viewBox="0 0 576 512"><!--! Font Awesome Pro 6.2.0 by @fontawesome - https://fontawesome.com License - https://fontawesome.com/license (Commercial License) Copyright 2022 Fonticons, Inc. --><path d="M181.3 32.4c17.4 2.9 29.2 19.4 26.3 36.8L197.8 128h95.1l11.5-69.3c2.9-17.4 19.4-29.2 36.8-26.3s29.2 19.4 26.3 36.8L357.8 128H416c17.7 0 32 14.3 32 32c0 .4 0 .8 0 1.1c-24.1 3.5-45.8 14.6-62.4 30.9H347.1L325.8 320h2.8c-5.4 9.4-8.6 20.3-8.6 32v32h-4.9l-11.5 69.3c-2.9 17.4-19.4 29.2-36.8 26.3s-29.2-19.4-26.3-36.8l9.8-58.7H155.1l-11.5 69.3c-2.9 17.4-19.4 29.2-36.8 26.3s-29.2-19.4-26.3-36.8L90.2 384H32c-17.7 0-32-14.3-32-32s14.3-32 32-32h68.9l21.3-128H64c-17.7 0-32-14.3-32-32s14.3-32 32-32h68.9l11.5-69.3c2.9-17.4 19.4-29.2 36.8-26.3zM187.1 192L165.8 320h95.1l21.3-128H187.1zM464 240c-17.7 0-32 14.3-32 32v48h64V272c0-17.7-14.3-32-32-32zm-80 32c0-44.2 35.8-80 80-80s80 35.8 80 80v48c17.7 0 32 14.3 32 32V480c0 17.7-14.3 32-32 32H384c-17.7 0-32-14.3-32-32V352c0-17.7 14.3-32 32-32V272z"/></svg>