<svg xmlns="http://www.w3.org/2000/svg" viewBox="0 0 512 512"><!--! Font Awesome Pro 6.2.0 by @fontawesome - https://fontawesome.com License - https://fontawesome.com/license (Commercial License) Copyright 2022 Fonticons, Inc. --><path d="M17.1 292c-12.9-22.3-12.9-49.7 0-72L105.4 67.1c12.9-22.3 36.6-36 62.4-36H344.3c25.7 0 49.5 13.7 62.4 36L494.9 220c12.9 22.3 12.9 49.7 0 72L406.6 444.9c-12.9 22.3-36.6 36-62.4 36H167.7c-25.7 0-49.5-13.7-62.4-36L17.1 292zM256 192c17.7 0 32-14.3 32-32s-14.3-32-32-32s-32 14.3-32 32s14.3 32 32 32zm-88 40c-13.3 0-24 10.7-24 24s10.7 24 24 24H344c13.3 0 24-10.7 24-24s-10.7-24-24-24H168zM288 352c0-17.7-14.3-32-32-32s-32 14.3-32 32s14.3 32 32 32s32-14.3 32-32z"/></svg>