<svg xmlns="http://www.w3.org/2000/svg" viewBox="0 0 512 512"><!--! Font Awesome Pro 6.2.0 by @fontawesome - https://fontawesome.com License - https://fontawesome.com/license (Commercial License) Copyright 2022 Fonticons, Inc. --><path d="M292.9 495.5c-22.3 12.9-49.7 12.9-72 0L68 407.2c-22.3-12.9-36-36.6-36-62.4V168.3c0-25.7 13.7-49.5 36-62.4L220.9 17.7c22.3-12.9 49.7-12.9 72 0l152.9 88.3c22.3 12.9 36 36.6 36 62.4V344.9c0 25.7-13.7 49.5-36 62.4L292.9 495.5zm11.1-372c0-5.7-3.1-11-8.1-13.9L248.1 82.3c-2-1.2-4.3-2-6.8-2.2c-.5 0-1-.1-1.4-.1l-.1 0c-3.3 0-6.3 1-8.8 2.6c-1.5 1-2.9 2.2-4 3.7c-1.2 1.5-2.1 3.3-2.6 5.2c-.4 1.6-.6 3.1-.6 4.7V256.6v144c0 8.8 7.2 16 16 16s16-7.2 16-16v-128h32c8.8 0 16-7.2 16-16s-7.2-16-16-16h-32v-117l24.2 13.8c10.7 6.1 23.9-1.6 23.9-13.9zm16 27.4c0 5.7 3.1 11 8.1 13.9l23.8 13.6V352.6c0 8.8 7.2 16 16 16s16-7.2 16-16V196.6l16.2 9.3c7.7 4.4 17.4 1.7 21.8-6s1.7-17.4-6-21.8l-72-41.1c-10.7-6.1-23.9 1.6-23.9 13.9zM175.8 128.6c-8.8 0-16 7.2-16 16V270L127 171.5c-2.5-7.4-10-12-17.7-10.7s-13.4 7.9-13.4 15.8v160c0 8.8 7.2 16 16 16s16-7.2 16-16V275.2l32.8 98.5c2.5 7.4 10 12 17.7 10.7s13.4-7.9 13.4-15.8v-224c0-8.8-7.2-16-16-16z"/></svg>