<svg xmlns="http://www.w3.org/2000/svg" viewBox="0 0 640 512"><!--! Font Awesome Pro 6.2.0 by @fontawesome - https://fontawesome.com License - https://fontawesome.com/license (Commercial License) Copyright 2022 Fonticons, Inc. --><path d="M261 229l215-158.4 29.3 29.3L347 315 261 229zM160 320l0 0-25.4 25.4c-12.5 12.5-12.5 32.8 0 45.3l50.7 50.7c12.5 12.5 32.8 12.5 45.3 0L256 416h71.7c15.3 0 29.6-7.2 38.6-19.5L567.6 123.4c5.5-7.4 8.4-16.4 8.4-25.6c0-11.4-4.5-22.4-12.6-30.5L508.6 12.6C500.5 4.5 489.6 0 478.2 0C469 0 460 2.9 452.6 8.4L179.5 209.6c-12.3 9-19.5 23.4-19.5 38.6V320zm-57.9 83.3l-63 63c-4.5 4.5-7 10.6-7 17V488c0 13.3 10.7 24 24 24h68.7c6.4 0 12.5-2.5 17-7l31-31-70.6-70.6zM256 464c-13.3 0-24 10.7-24 24s10.7 24 24 24H584c13.3 0 24-10.7 24-24s-10.7-24-24-24H256z"/></svg>