<svg xmlns="http://www.w3.org/2000/svg" viewBox="0 0 640 512"><!--! Font Awesome Pro 6.2.0 by @fontawesome - https://fontawesome.com License - https://fontawesome.com/license (Commercial License) Copyright 2022 Fonticons, Inc. --><path d="M220.6 17.7l82.3 164.6-35.8 71.6L163.4 46.3c-7.9-15.8-1.5-35 14.3-42.9s35-1.5 42.9 14.3zM372.8 322.1L387.8 352H544V480v32H480v0H435.8c-24.2 0-46.4-13.7-57.2-35.4l-41.5-83 35.8-71.6zM576 352h32c17.7 0 32 14.3 32 32v96c0 17.7-14.3 32-32 32H576V352zM462.3 3.4c15.8 7.9 22.2 27.1 14.3 42.9L261.5 476.6c-10.8 21.7-33 35.4-57.2 35.4H160 128 96V480 352H252.2L419.4 17.7c7.9-15.8 27.1-22.2 42.9-14.3zM0 384c0-17.7 14.3-32 32-32H64V512H32c-17.7 0-32-14.3-32-32V384z"/></svg>