<svg xmlns="http://www.w3.org/2000/svg" viewBox="0 0 576 512"><!--! Font Awesome Pro 6.2.0 by @fontawesome - https://fontawesome.com License - https://fontawesome.com/license (Commercial License) Copyright 2022 Fonticons, Inc. --><path d="M288 64C182 64 96 150 96 256s86 192 192 192c40.8 0 78.6-12.7 109.7-34.4c14.5-10.1 34.4-6.6 44.6 7.9s6.6 34.4-7.9 44.6C392.8 495 342.3 512 288 512C146.6 512 32 397.4 32 256S146.6 0 288 0S544 114.6 544 256v96h8c13.3 0 24 10.7 24 24s-10.7 24-24 24h-2.3l-11.5 80.2c7.8 1.1 13.7 7.8 13.7 15.8c0 8.8-7.2 16-16 16H488c-8.8 0-16-7.2-16-16c0-8.1 6-14.7 13.7-15.8L474.3 400H472c-13.3 0-24-10.7-24-24s10.7-24 24-24h8V256c0-106-86-192-192-192zM192 256c0 53 43 96 96 96s96-43 96-96s-43-96-96-96s-96 43-96 96zM288 96c88.4 0 160 71.6 160 160s-71.6 160-160 160s-160-71.6-160-160s71.6-160 160-160zm64 160c0 35.3-28.7 64-64 64s-64-28.7-64-64s28.7-64 64-64s64 28.7 64 64z"/></svg>