<svg xmlns="http://www.w3.org/2000/svg" viewBox="0 0 576 512"><!--! Font Awesome Pro 6.2.0 by @fontawesome - https://fontawesome.com License - https://fontawesome.com/license (Commercial License) Copyright 2022 Fonticons, Inc. --><path d="M258.7 32.1C292.8 33.5 320 61.6 320 96V480c0 11.7-3.1 22.6-8.6 32H528c26.5 0 48-21.5 48-48V384H464c-8.8 0-16-7.2-16-16s7.2-16 16-16H576V288H464c-8.8 0-16-7.2-16-16s7.2-16 16-16H576V48c0-26.5-21.5-48-48-48H304c-20.9 0-38.7 13.4-45.3 32.1zM408 80c0-8.8 7.2-16 16-16h16c8.8 0 16 7.2 16 16v24h24c8.8 0 16 7.2 16 16v16c0 8.8-7.2 16-16 16H456v24c0 8.8-7.2 16-16 16H424c-8.8 0-16-7.2-16-16V152H384c-8.8 0-16-7.2-16-16V120c0-8.8 7.2-16 16-16h24V80zM0 112V320H144c8.8 0 16 7.2 16 16s-7.2 16-16 16H0v64H144c8.8 0 16 7.2 16 16s-7.2 16-16 16H0v16c0 26.5 21.5 48 48 48H240c26.5 0 48-21.5 48-48V112c0-26.5-21.5-48-48-48H48C21.5 64 0 85.5 0 112zm120 32c0-8.8 7.2-16 16-16h16c8.8 0 16 7.2 16 16v24h24c8.8 0 16 7.2 16 16v16c0 8.8-7.2 16-16 16H168v24c0 8.8-7.2 16-16 16H136c-8.8 0-16-7.2-16-16V216H96c-8.8 0-16-7.2-16-16V184c0-8.8 7.2-16 16-16h24V144z"/></svg>