<svg xmlns="http://www.w3.org/2000/svg" viewBox="0 0 576 512"><!--! Font Awesome Pro 6.2.0 by @fontawesome - https://fontawesome.com License - https://fontawesome.com/license (Commercial License) Copyright 2022 Fonticons, Inc. --><path d="M543.8 287.6c17 0 32-14 32-32.1c1-9-3-17-11-24L309.5 7c-6-5-14-7-21-7s-15 1-22 8L10 231.5c-7 7-10 15-10 24c0 18 14 32.1 32 32.1h32V448c0 35.3 28.7 64 64 64H448.5c35.5 0 64.2-28.8 64-64.3l-.7-160.2h32zM248 192h80c13.3 0 24 10.7 24 24v80c0 13.3-10.7 24-24 24H248c-13.3 0-24-10.7-24-24V216c0-13.3 10.7-24 24-24z"/></svg>