<svg xmlns="http://www.w3.org/2000/svg" viewBox="0 0 448 512"><!--! Font Awesome Pro 6.2.0 by @fontawesome - https://fontawesome.com License - https://fontawesome.com/license (Commercial License) Copyright 2022 Fonticons, Inc. --><path d="M0 96C0 60.7 28.7 32 64 32H384c35.3 0 64 28.7 64 64V416c0 35.3-28.7 64-64 64H64c-35.3 0-64-28.7-64-64V96zm64 32V320c0 17.7 14.3 32 32 32h16c0-35.3 28.7-64 64-64h96c35.3 0 64 28.7 64 64h16c17.7 0 32-14.3 32-32V128c0-17.7-14.3-32-32-32H96c-17.7 0-32 14.3-32 32zm224 64c0 35.3-28.7 64-64 64s-64-28.7-64-64s28.7-64 64-64s64 28.7 64 64z"/></svg>