<svg xmlns="http://www.w3.org/2000/svg" viewBox="0 0 512 512"><!--! Font Awesome Pro 6.2.0 by @fontawesome - https://fontawesome.com License - https://fontawesome.com/license (Commercial License) Copyright 2022 Fonticons, Inc. --><path d="M64 32C28.7 32 0 60.7 0 96V416c0 35.3 28.7 64 64 64H448c35.3 0 64-28.7 64-64V96c0-35.3-28.7-64-64-64H64zM320 192c0 35.3-28.7 64-64 64s-64-28.7-64-64s28.7-64 64-64s64 28.7 64 64zM144 356.6c0-37.9 30.7-68.6 68.6-68.6h86.9c37.9 0 68.6 30.7 68.6 68.6c0 15.1-12.3 27.4-27.4 27.4H171.4c-15.1 0-27.4-12.3-27.4-27.4z"/></svg>