<svg xmlns="http://www.w3.org/2000/svg" viewBox="0 0 512 512"><!--! Font Awesome Pro 6.2.0 by @fontawesome - https://fontawesome.com License - https://fontawesome.com/license (Commercial License) Copyright 2022 Fonticons, Inc. --><path d="M117.7 64L79.3 160h45c12.1 0 23.2 6.8 28.6 17.7l14.3 28.6c5.4 10.8 16.5 17.7 28.6 17.7H316.2c12.1 0 23.2-6.8 28.6-17.7l14.3-28.6c5.4-10.8 16.5-17.7 28.6-17.7h45L394.3 64H117.7zM60.3 35.2C68.8 13.9 89.4 0 112.2 0H399.8c22.9 0 43.5 13.9 52 35.2L508 175.8c2.6 6.6 4 13.7 4 20.8V264c0 30.9-25.1 56-56 56H56c-30.9 0-56-25.1-56-56V196.6c0-7.1 1.4-14.2 4-20.8L60.3 35.2zM48 352h76.2c12.1 0 23.2 6.8 28.6 17.7l14.3 28.6c5.4 10.8 16.5 17.7 28.6 17.7H316.2c12.1 0 23.2-6.8 28.6-17.7l14.3-28.6c5.4-10.8 16.5-17.7 28.6-17.7H464c26.5 0 48 21.5 48 48v64c0 26.5-21.5 48-48 48H48c-26.5 0-48-21.5-48-48V400c0-26.5 21.5-48 48-48z"/></svg>