<svg xmlns="http://www.w3.org/2000/svg" viewBox="0 0 512 512"><!--! Font Awesome Pro 6.2.0 by @fontawesome - https://fontawesome.com License - https://fontawesome.com/license (Commercial License) Copyright 2022 Fonticons, Inc. --><path d="M288 32V210.7l41.4-41.4c12.5-12.5 32.8-12.5 45.3 0s12.5 32.8 0 45.3l-96 96c-12.5 12.5-32.8 12.5-45.3 0l-96-96c-12.5-12.5-12.5-32.8 0-45.3s32.8-12.5 45.3 0L224 210.7V32c0-17.7 14.3-32 32-32s32 14.3 32 32zM48 320h76.2c12.1 0 23.2 6.8 28.6 17.7l14.3 28.6c5.4 10.8 16.5 17.7 28.6 17.7H316.2c12.1 0 23.2-6.8 28.6-17.7l14.3-28.6c5.4-10.8 16.5-17.7 28.6-17.7H464c26.5 0 48 21.5 48 48v96c0 26.5-21.5 48-48 48H48c-26.5 0-48-21.5-48-48V368c0-26.5 21.5-48 48-48z"/></svg>