<svg xmlns="http://www.w3.org/2000/svg" viewBox="0 0 512 512"><!--! Font Awesome Pro 6.2.0 by @fontawesome - https://fontawesome.com License - https://fontawesome.com/license (Commercial License) Copyright 2022 Fonticons, Inc. --><path d="M0 64C0 46.3 14.3 32 32 32H96c17.7 0 32 14.3 32 32V215.4L284.6 131c16-8.6 35.4 3 35.4 21.1v63.2L476.6 131c16-8.6 35.4 3 35.4 21.1V304 432c0 26.5-21.5 48-48 48H48c-26.5 0-48-21.5-48-48V352 304 64zM232 312c-8.8 0-16 7.2-16 16v48c0 8.8 7.2 16 16 16h48c8.8 0 16-7.2 16-16V328c0-8.8-7.2-16-16-16H232zM88 328v48c0 8.8 7.2 16 16 16h48c8.8 0 16-7.2 16-16V328c0-8.8-7.2-16-16-16H104c-8.8 0-16 7.2-16 16zm272-16c-8.8 0-16 7.2-16 16v48c0 8.8 7.2 16 16 16h48c8.8 0 16-7.2 16-16V328c0-8.8-7.2-16-16-16H360z"/></svg>