<svg xmlns="http://www.w3.org/2000/svg" viewBox="0 0 576 512"><!--! Font Awesome Pro 6.2.0 by @fontawesome - https://fontawesome.com License - https://fontawesome.com/license (Commercial License) Copyright 2022 Fonticons, Inc. --><path d="M429.8 32.7c-12.7-3.2-25.6 4.4-29 17l-14 51.8L533.2 248 575.2 94.3c1.7-6.2 .8-12.9-2.4-18.4s-8.6-9.6-14.9-11.2l-128-32zM534.1 305.5c1.5-5.5-.1-11.5-4.1-15.5L383.8 143.8c-8.7-8.7-23.6-4.7-26.8 7.2l-16.5 61.2c-1.9 7-8.2 11.8-15.4 11.8H232c-22.1 0-40 17.9-40 40V440c0 22.1 17.9 40 40 40H456c18 0 33.8-12.1 38.6-29.5l39.5-145zM64 256c0-17.7-14.3-32-32-32s-32 14.3-32 32s14.3 32 32 32s32-14.3 32-32zm0 96c0-17.7-14.3-32-32-32s-32 14.3-32 32s14.3 32 32 32s32-14.3 32-32zm64-16c17.7 0 32-14.3 32-32s-14.3-32-32-32s-32 14.3-32 32s14.3 32 32 32zM64 448c0-17.7-14.3-32-32-32s-32 14.3-32 32s14.3 32 32 32s32-14.3 32-32zm64-16c17.7 0 32-14.3 32-32s-14.3-32-32-32s-32 14.3-32 32s14.3 32 32 32z"/></svg>