<svg xmlns="http://www.w3.org/2000/svg" viewBox="0 0 640 512"><!--! Font Awesome Pro 6.2.0 by @fontawesome - https://fontawesome.com License - https://fontawesome.com/license (Commercial License) Copyright 2022 Fonticons, Inc. --><path d="M576 128c0-35.3-28.7-64-64-64s-64 28.7-64 64s28.7 64 64 64s64-28.7 64-64zm64 0c0 70.7-57.3 128-128 128c-59.6 0-109.8-40.8-124-96H320v32c0 17.7-14.3 32-32 32s-32-14.3-32-32V160H224l0 32c0 17.7-14.3 32-32 32s-32-14.3-32-32l0-64c0-17.7 14.3-32 32-32l196 0C402.2 40.8 452.4 0 512 0c70.7 0 128 57.3 128 128zM64 384c0 35.3 28.7 64 64 64s64-28.7 64-64s-28.7-64-64-64s-64 28.7-64 64zM0 384c0-70.7 57.3-128 128-128c59.6 0 109.8 40.8 124 96l68 0V320c0-17.7 14.3-32 32-32s32 14.3 32 32v32h32l0-32c0-17.7 14.3-32 32-32s32 14.3 32 32l0 64c0 17.7-14.3 32-32 32l-196 0c-14.2 55.2-64.3 96-124 96C57.3 512 0 454.7 0 384z"/></svg>