<svg xmlns="http://www.w3.org/2000/svg" viewBox="0 0 640 512"><!--! Font Awesome Pro 6.2.0 by @fontawesome - https://fontawesome.com License - https://fontawesome.com/license (Commercial License) Copyright 2022 Fonticons, Inc. --><path d="M134.6 153.4c-12.5-12.5-32.8-12.5-45.3 0s-12.5 32.8 0 45.3l64 64c12.5 12.5 32.8 12.5 45.3 0s12.5-32.8 0-45.3l-64-64zM288 192c0 17.7 14.3 32 32 32s32-14.3 32-32V96c0-17.7-14.3-32-32-32s-32 14.3-32 32v96zm153.4 25.4c-12.5 12.5-12.5 32.8 0 45.3s32.8 12.5 45.3 0l64-64c12.5-12.5 12.5-32.8 0-45.3s-32.8-12.5-45.3 0l-64 64zM0 384c0 17.7 14.3 32 32 32H96c17.7 0 32-14.3 32-32s-14.3-32-32-32H32c-17.7 0-32 14.3-32 32zm224-32c-17.7 0-32 14.3-32 32s14.3 32 32 32H416c17.7 0 32-14.3 32-32s-14.3-32-32-32H224zm320 0c-17.7 0-32 14.3-32 32s14.3 32 32 32h64c17.7 0 32-14.3 32-32s-14.3-32-32-32H544z"/></svg>