<svg xmlns="http://www.w3.org/2000/svg" viewBox="0 0 640 512"><!--! Font Awesome Pro 6.2.0 by @fontawesome - https://fontawesome.com License - https://fontawesome.com/license (Commercial License) Copyright 2022 Fonticons, Inc. --><path d="M223 199c-9.4 9.4-9.4 24.6 0 33.9l80 80c9.4 9.4 24.6 9.4 33.9 0l80-80c9.4-9.4 9.4-24.6 0-33.9s-24.6-9.4-33.9 0l-39 39V56c0-13.2-10.7-24-24-24s-24 10.8-24 24V238.1l-39-39c-4.7-4.7-10.8-7-17-7s-12.3 2.3-17 7zM512 352h64V80c0-26.4-21.6-48-48-48H384V96H512V352zm112 32H16c-8.8 0-16 7.3-16 16v16c0 35.3 28.8 64 64 64H576c35.3 0 64-28.7 64-64V400c0-8.7-7.3-16-16-16zM128 96H256V32H112C85.6 32 64 53.6 64 80V352h64V96zm0-64C92.7 32 64 60.7 64 96V352h64V96H256V32H128zM512 96V352h64V96c0-35.3-28.7-64-64-64H384V96H512zM19.2 384C8.6 384 0 392.6 0 403.2C0 445.6 34.4 480 76.8 480H563.2c42.4 0 76.8-34.4 76.8-76.8c0-10.6-8.6-19.2-19.2-19.2H19.2zM344 56c0-13.3-10.7-24-24-24s-24 10.7-24 24V238.1l-39-39c-9.4-9.4-24.6-9.4-33.9 0s-9.4 24.6 0 33.9l80 80c9.4 9.4 24.6 9.4 33.9 0l80-80c9.4-9.4 9.4-24.6 0-33.9s-24.6-9.4-33.9 0l-39 39V56z"/></svg>