<svg xmlns="http://www.w3.org/2000/svg" viewBox="0 0 640 512"><!--! Font Awesome Pro 6.2.0 by @fontawesome - https://fontawesome.com License - https://fontawesome.com/license (Commercial License) Copyright 2022 Fonticons, Inc. --><path d="M0 96C0 78.3 14.3 64 32 64s32 14.3 32 32V416c0 17.7-14.3 32-32 32s-32-14.3-32-32V96zM608 208c17.7 0 32 14.3 32 32v32c0 17.7-14.3 32-32 32H320v88c0 9.6-5.7 18.2-14.5 22s-19 2-26-4.6l-144-136c-4.8-4.5-7.5-10.8-7.5-17.4s2.7-12.9 7.5-17.4l144-136c7-6.6 17.2-8.4 26-4.6s14.5 12.5 14.5 22v88H608z"/></svg>