<svg xmlns="http://www.w3.org/2000/svg" viewBox="0 0 448 512"><!--! Font Awesome Pro 6.2.0 by @fontawesome - https://fontawesome.com License - https://fontawesome.com/license (Commercial License) Copyright 2022 Fonticons, Inc. --><path d="M384 416c0 17.7 14.3 32 32 32s32-14.3 32-32V96c0-17.7-14.3-32-32-32s-32 14.3-32 32V416zM7.5 238.6C2.7 243.1 0 249.4 0 256s2.7 12.9 7.5 17.4l144 136c7 6.6 17.2 8.4 26 4.6s14.5-12.5 14.5-22V320H320c17.7 0 32-14.3 32-32V224c0-17.7-14.3-32-32-32l-128 0V120c0-9.6-5.7-18.2-14.5-22s-19-2-26 4.6l-144 136z"/></svg>