<svg xmlns="http://www.w3.org/2000/svg" viewBox="0 0 640 512"><!--! Font Awesome Pro 6.2.0 by @fontawesome - https://fontawesome.com License - https://fontawesome.com/license (Commercial License) Copyright 2022 Fonticons, Inc. --><path d="M351 24.2c4.3 17.1-6.1 34.5-23.3 38.8l-128 32c-17.1 4.3-34.5-6.1-38.8-23.3s6.1-34.5 23.3-38.8l128-32c17.1-4.3 34.5 6.1 38.8 23.3zM455.8 127l-256 64c-17.1 4.3-34.5-6.1-38.8-23.3s6.1-34.5 23.3-38.8l256-64c17.1-4.3 34.5 6.1 38.8 23.3s-6.1 34.5-23.3 38.8zM479 184.2c4.3 17.1-6.1 34.5-23.3 38.8L259.9 272l-3.9 1L199.8 287c-17.1 4.3-34.5-6.1-38.8-23.3s6.1-34.5 23.3-38.8l256-64c17.1-4.3 34.5 6.1 38.8 23.3zM256 384V306l48-12v90h80c17.7 0 32 14.3 32 32v32c0 17.7-14.3 32-32 32H352c0 17.7-14.3 32-32 32s-32-14.3-32-32H256c-17.7 0-32-14.3-32-32V416c0-17.7 14.3-32 32-32zm199.8-65l-64 16L384 337v47H336V308.7c0-.5 0-.9 0-1.4V304l.2 0c1.6-12.7 10.8-23.7 24-27l16-4 64-16c17.1-4.3 34.5 6.1 38.8 23.3s-6.1 34.5-23.3 38.8zM53.3 4l48 32c11 7.4 14 22.3 6.7 33.3s-22.3 14-33.3 6.7l-48-32c-11-7.4-14-22.3-6.7-33.3S42.3-3.3 53.3 4zM613.3 44l-48 32c-11 7.4-25.9 4.4-33.3-6.7s-4.4-25.9 6.7-33.3l48-32c11-7.4 25.9-4.4 33.3 6.7s4.4 25.9-6.7 33.3zM24 160H88c13.3 0 24 10.7 24 24s-10.7 24-24 24H24c-13.3 0-24-10.7-24-24s10.7-24 24-24zm528 0h64c13.3 0 24 10.7 24 24s-10.7 24-24 24H552c-13.3 0-24-10.7-24-24s10.7-24 24-24zM101.3 332l-48 32c-11 7.4-25.9 4.4-33.3-6.7s-4.4-25.9 6.7-33.3l48-32c11-7.4 25.9-4.4 33.3 6.7s4.4 25.9-6.7 33.3zm464-39.9l48 32c11 7.4 14 22.3 6.7 33.3s-22.3 14-33.3 6.7l-48-32c-11-7.4-14-22.3-6.7-33.3s22.3-14 33.3-6.7z"/></svg>