<svg xmlns="http://www.w3.org/2000/svg" viewBox="0 0 640 512"><!--! Font Awesome Pro 6.2.0 by @fontawesome - https://fontawesome.com License - https://fontawesome.com/license (Commercial License) Copyright 2022 Fonticons, Inc. --><path d="M38.8 5.1C28.4-3.1 13.3-1.2 5.1 9.2S-1.2 34.7 9.2 42.9l592 464c10.4 8.2 25.5 6.3 33.7-4.1s6.3-25.5-4.1-33.7l-85.5-67c55.8-25 94.7-81 94.7-146.1c0-88.4-71.6-160-160-160H384c-17.7 0-32 14.3-32 32s14.3 32 32 32h96c53 0 96 43 96 96c0 52.6-42.2 95.3-94.6 96l-81.6-64H416c17.7 0 32-14.3 32-32s-14.3-32-32-32H318.1l-81.7-64H256c17.7 0 32-14.3 32-32s-14.3-32-32-32H160c-1.7 0-3.4 0-5.1 .1L38.8 5.1zM0 256c0 88.4 71.6 160 160 160h96c17.7 0 32-14.3 32-32s-14.3-32-32-32H160c-53 0-96-43-96-96c0-32.1 15.8-60.6 40.1-78L52.6 137.4C20.3 166.7 0 209 0 256z"/></svg>