<svg xmlns="http://www.w3.org/2000/svg" viewBox="0 0 576 512"><!--! Font Awesome Pro 6.2.0 by @fontawesome - https://fontawesome.com License - https://fontawesome.com/license (Commercial License) Copyright 2022 Fonticons, Inc. --><path d="M563.7 6.8C571.5 12.8 576 22.1 576 32V96c0 14.7-10 27.5-24.2 31L448 153V432c0 44.2-50.1 80-112 80s-112-35.8-112-80s50.1-80 112-80c17.2 0 33.5 2.8 48 7.7V128 64c0-14.7 10-27.5 24.2-31l128-32c9.6-2.4 19.7-.2 27.5 5.8zM64 64H288c17.7 0 32 14.3 32 32s-14.3 32-32 32H64c-17.7 0-32-14.3-32-32s14.3-32 32-32zm0 128H288c17.7 0 32 14.3 32 32s-14.3 32-32 32H64c-17.7 0-32-14.3-32-32s14.3-32 32-32zm0 128h96c17.7 0 32 14.3 32 32s-14.3 32-32 32H64c-17.7 0-32-14.3-32-32s14.3-32 32-32z"/></svg>