<svg xmlns="http://www.w3.org/2000/svg" viewBox="0 0 512 512"><!--! Font Awesome Pro 6.2.0 by @fontawesome - https://fontawesome.com License - https://fontawesome.com/license (Commercial License) Copyright 2022 Fonticons, Inc. --><path d="M64 32C28.7 32 0 60.7 0 96V416c0 35.3 28.7 64 64 64H448c35.3 0 64-28.7 64-64V96c0-35.3-28.7-64-64-64H64zM448 192V416H64V192H448zM436.7 96c7.1 0 10.7 8.6 5.7 13.7l-36.7 36.7c-3.1 3.1-8.2 3.1-11.3 0l-36.7-36.7c-5-5-1.5-13.7 5.7-13.7h73.4zM128 232c-13.3 0-24 10.7-24 24s10.7 24 24 24H384c13.3 0 24-10.7 24-24s-10.7-24-24-24H128zm0 96c-13.3 0-24 10.7-24 24s10.7 24 24 24H384c13.3 0 24-10.7 24-24s-10.7-24-24-24H128z"/></svg>