<svg xmlns="http://www.w3.org/2000/svg" viewBox="0 0 448 512"><!--! Font Awesome Pro 6.2.0 by @fontawesome - https://fontawesome.com License - https://fontawesome.com/license (Commercial License) Copyright 2022 Fonticons, Inc. --><path d="M144 144v48H304V144c0-44.2-35.8-80-80-80s-80 35.8-80 80zM80 192V144C80 64.5 144.5 0 224 0s144 64.5 144 144v48h16c35.3 0 64 28.7 64 64V448c0 35.3-28.7 64-64 64H64c-35.3 0-64-28.7-64-64V256c0-35.3 28.7-64 64-64H80zm96 48c-8.8 0-16 7.2-16 16v32H128c-8.8 0-16 7.2-16 16s7.2 16 16 16h32v64H128c-8.8 0-16 7.2-16 16s7.2 16 16 16h32v32c0 8.8 7.2 16 16 16s16-7.2 16-16V416h64v32c0 8.8 7.2 16 16 16s16-7.2 16-16V416h32c8.8 0 16-7.2 16-16s-7.2-16-16-16H288V320h32c8.8 0 16-7.2 16-16s-7.2-16-16-16H288V256c0-8.8-7.2-16-16-16s-16 7.2-16 16v32H192V256c0-8.8-7.2-16-16-16zm16 144V320h64v64H192z"/></svg>