<svg xmlns="http://www.w3.org/2000/svg" viewBox="0 0 448 512"><!--! Font Awesome Pro 6.2.0 by @fontawesome - https://fontawesome.com License - https://fontawesome.com/license (Commercial License) Copyright 2022 Fonticons, Inc. --><path d="M224 0C100.3 0 0 100.3 0 224v96C0 426 86 512 192 512h64c106 0 192-86 192-192V224C448 100.3 347.7 0 224 0zM128 384c0 17.7 14.3 32 32 32H288c17.7 0 32-14.3 32-32s-14.3-32-32-32H252 196 160c-17.7 0-32 14.3-32 32zm-32 0c0-33.2 25.3-60.6 57.7-63.7c-1.1-3.9-1.7-8-1.7-12.3c0-7 1.7-13.8 4.8-20H144c-44.2 0-80-35.8-80-80c0-26.5 21.5-48 48-48h32c44.2 0 80 35.8 80 80c0-44.2 35.8-80 80-80h32c26.5 0 48 21.5 48 48c0 44.2-35.8 80-80 80H291.2c3.1 6.2 4.8 13 4.8 20c0 4.3-.6 8.4-1.7 12.3c32.4 3.1 57.7 30.5 57.7 63.7c0 35.3-28.7 64-64 64H160c-35.3 0-64-28.7-64-64zM262.3 252.7l.3 .2c2.6 1.9 5.9 3.1 9.4 3.1h32c26.5 0 48-21.5 48-48c0-8.8-7.2-16-16-16H304c-26.5 0-48 21.5-48 48c0 5.2 2.5 9.8 6.3 12.7zM224 272c-6.9 0-13.5 2.2-18.9 6.2l-.6 .4c-2.3 1.8-4.3 3.8-6.1 6.2L196 288l-9.6 12.8c-1.6 2.1-2.4 4.6-2.4 7.2c0 .2 0 .3 0 .5c0 .1 0 .3 0 .4c0 6.1 5 11.1 11.1 11.1h.9 16 24 16 .9c6.1 0 11.1-5 11.1-11.1c0-.1 0-.3 0-.4c0-.2 0-.3 0-.5c0-2.6-.8-5.1-2.4-7.2L252 288l-2.4-3.2c-1.8-2.4-3.8-4.4-6.1-6.2l-.6-.4c-5.4-4-12-6.2-18.9-6.2zm-38.3-19.3c3.8-2.9 6.3-7.5 6.3-12.7c0-26.5-21.5-48-48-48H112c-8.8 0-16 7.2-16 16c0 26.5 21.5 48 48 48h32c3.5 0 6.8-1.1 9.4-3.1l.3-.2z"/></svg>