<svg xmlns="http://www.w3.org/2000/svg" viewBox="0 0 512 512"><!--! Font Awesome Pro 6.2.0 by @fontawesome - https://fontawesome.com License - https://fontawesome.com/license (Commercial License) Copyright 2022 Fonticons, Inc. --><path d="M448 256c0-106-86-192-192-192S64 150 64 256s86 192 192 192s192-86 192-192zm64 0c0 141.4-114.6 256-256 256S0 397.4 0 256S114.6 0 256 0S512 114.6 512 256zM281.4 115.4c5.8-7.5 14.5-14.7 23.5-11.8c64.4 20.7 111 81.1 111 152.4s-46.6 131.7-111 152.4c-9 2.9-17.8-4.3-23.5-11.8c-5.8-7.6-15.1-12.6-25.4-12.6s-19.6 4.9-25.4 12.6c-5.8 7.5-14.5 14.7-23.6 11.8C142.6 387.7 96 327.3 96 256s46.6-131.7 111-152.4c9-2.9 17.8 4.3 23.6 11.8c5.8 7.6 15.1 12.6 25.4 12.6s19.6-4.9 25.4-12.6zM192 176c-8.8 0-16 7.2-16 16s7.2 16 16 16s16-7.2 16-16s-7.2-16-16-16zm0 64c-8.8 0-16 7.2-16 16s7.2 16 16 16s16-7.2 16-16s-7.2-16-16-16zm0 64c-8.8 0-16 7.2-16 16s7.2 16 16 16s16-7.2 16-16s-7.2-16-16-16zm80-112c0-8.8-7.2-16-16-16s-16 7.2-16 16s7.2 16 16 16s16-7.2 16-16zm-32 64c0 8.8 7.2 16 16 16s16-7.2 16-16s-7.2-16-16-16s-16 7.2-16 16zm32 64c0-8.8-7.2-16-16-16s-16 7.2-16 16s7.2 16 16 16s16-7.2 16-16zm48-144c-8.8 0-16 7.2-16 16s7.2 16 16 16s16-7.2 16-16s-7.2-16-16-16zm0 64c-8.8 0-16 7.2-16 16s7.2 16 16 16s16-7.2 16-16s-7.2-16-16-16zm0 64c-8.8 0-16 7.2-16 16s7.2 16 16 16s16-7.2 16-16s-7.2-16-16-16z"/></svg>