<svg xmlns="http://www.w3.org/2000/svg" viewBox="0 0 640 512"><!--! Font Awesome Pro 6.2.0 by @fontawesome - https://fontawesome.com License - https://fontawesome.com/license (Commercial License) Copyright 2022 Fonticons, Inc. --><path d="M0 64C0 28.7 28.7 0 64 0H352c35.3 0 64 28.7 64 64V256c0 35.3-28.7 64-64 64H202.7l-81.1 60.8c-4.8 3.6-11.3 4.2-16.8 1.5s-8.8-8.2-8.8-14.3V320H64c-35.3 0-64-28.7-64-64V64zM256 352h96c53 0 96-43 96-96V128H576c35.3 0 64 28.7 64 64V384c0 35.3-28.7 64-64 64H544v48c0 6.1-3.4 11.6-8.8 14.3s-11.9 2.1-16.8-1.5L437.3 448H320c-35.3 0-64-28.7-64-64V352zM136.2 92.4l-.4 1c-3.7 10.4 1.8 21.8 12.2 25.5s21.8-1.8 25.5-12.2l.4-1c.9-2.7 3.5-4.4 6.3-4.4h48.5c7 0 12.6 5.7 12.6 12.6c0 4.5-2.4 8.7-6.3 10.9L198 146.1c-6.2 3.6-10 10.2-10 17.3v11.2c0 11 9 20 20 20c10.9 0 19.8-8.8 20-19.6l26.9-15.4c16.3-9.4 26.4-26.8 26.4-45.6c0-29.1-23.6-52.6-52.6-52.6H180.2c-19.8 0-37.4 12.4-44 31.1zM234.7 248c0-14.7-11.9-26.7-26.7-26.7s-26.7 11.9-26.7 26.7s11.9 26.7 26.7 26.7s26.7-11.9 26.7-26.7z"/></svg>