<svg xmlns="http://www.w3.org/2000/svg" viewBox="0 0 512 512"><!--! Font Awesome Pro 6.2.0 by @fontawesome - https://fontawesome.com License - https://fontawesome.com/license (Commercial License) Copyright 2022 Fonticons, Inc. --><path d="M0 64C0 28.7 28.7 0 64 0H448c35.3 0 64 28.7 64 64V352c0 35.3-28.7 64-64 64H309.3L185.6 508.8c-4.8 3.6-11.3 4.2-16.8 1.5s-8.8-8.2-8.8-14.3V416H64c-35.3 0-64-28.7-64-64V64zm340.8 59c-14.7-14.7-38.6-14.7-53.3 0L272.6 138l53.3 53.3 14.9-14.9c14.7-14.7 14.7-38.6 0-53.3zM178.1 232.5c-4.1 4.1-7 9.2-8.4 14.9L160.5 284c-1.4 5.5 .2 11.2 4.2 15.2s9.7 5.6 15.2 4.2l36.6-9.2c5.6-1.4 10.8-4.3 14.9-8.4l71.9-71.9L250 160.6l-71.9 71.9z"/></svg>