<svg xmlns="http://www.w3.org/2000/svg" viewBox="0 0 512 512"><!--! Font Awesome Pro 6.2.0 by @fontawesome - https://fontawesome.com License - https://fontawesome.com/license (Commercial License) Copyright 2022 Fonticons, Inc. --><path d="M0 64C0 28.7 28.7 0 64 0H448c35.3 0 64 28.7 64 64V352c0 35.3-28.7 64-64 64H309.3L185.6 508.8c-4.8 3.6-11.3 4.2-16.8 1.5s-8.8-8.2-8.8-14.3V416H64c-35.3 0-64-28.7-64-64V64zm202.9 80.8C196.4 147 192 153.1 192 160v96c0 8.8 7.2 16 16 16s16-7.2 16-16V208l19.2 25.6c3 4 7.8 6.4 12.8 6.4s9.8-2.4 12.8-6.4L288 208v48c0 8.8 7.2 16 16 16s16-7.2 16-16V160c0-6.9-4.4-13-10.9-15.2s-13.7 .1-17.9 5.6L256 197.3l-35.2-46.9c-4.1-5.5-11.3-7.8-17.9-5.6zm173.1 38c0-1.1 .2-1.6 .4-1.9c.3-.4 .9-1.2 2.4-2c3.1-1.8 8-3 12.9-2.9c6.1 .1 12.9 1.4 20.1 3.4c8.5 2.3 17.3-2.8 19.6-11.3s-2.8-17.3-11.3-19.6c-8.2-2.2-17.9-4.3-27.9-4.4c-9.3-.1-20.4 1.9-29.7 7.4c-9.9 5.9-18.6 16.4-18.5 31.6c.1 14.7 8.8 24 17.7 29.4c7.6 4.6 17.1 7.4 24.3 9.6l1.2 .4c8.5 2.6 14.2 4.5 18 6.9c2.7 1.7 2.7 2.4 2.7 3.1l0 .2c0 1.6-.3 2.3-.6 2.7c-.3 .5-.9 1.2-2.1 2c-2.8 1.7-7.5 2.9-12.8 2.8c-7-.2-13.5-2.4-22.6-5.5l0 0 0 0c-1.5-.5-3.2-1.1-4.9-1.6c-8.4-2.8-17.4 1.7-20.2 10.1s1.7 17.4 10.1 20.2c1.2 .4 2.6 .9 4 1.4l0 0 0 0c8.8 3 20.4 7 32.6 7.4c9.8 .3 21.2-1.6 30.7-7.6c10.2-6.4 18-17.3 17.8-32.3c-.2-14.7-8.5-24.2-17.6-29.9c-8-5-17.9-8-25.2-10.2l-.6-.2c-8.6-2.6-14.4-4.4-18.2-6.8c-1.6-1-2.1-1.6-2.2-1.7c0-.1 0-.2 0-.4zm-272 0c0-1.1 .2-1.6 .4-1.9c.3-.4 .9-1.2 2.4-2c3.1-1.8 8-3 12.9-2.9c6.6 .1 16.7 1.6 23.3 3.4c8.5 2.3 17.3-2.8 19.6-11.3s-2.8-17.3-11.3-19.6c-8.8-2.4-21.6-4.3-31.1-4.4c-9.3-.1-20.4 1.9-29.7 7.4C80.6 157.3 72 167.8 72 183c.1 14.7 8.8 24 17.7 29.4c7.6 4.6 17.1 7.4 24.3 9.6l0 0 1.2 .4c8.5 2.6 14.2 4.5 18 6.9c2.7 1.7 2.7 2.4 2.7 3.1l0 .2c0 1.6-.3 2.3-.6 2.7c-.3 .5-.9 1.2-2.1 2c-2.8 1.7-7.5 2.9-12.8 2.8c-7.2-.2-14.2-2.6-23.7-5.8l0 0 0 0c-1.3-.4-2.7-.9-4.1-1.4c-8.4-2.8-17.4 1.7-20.2 10.1s1.7 17.4 10.1 20.2c1.1 .4 2.4 .8 3.6 1.2l0 0 0 0c9 3.1 20.9 7.2 33.2 7.6c9.8 .3 21.2-1.6 30.7-7.6c10.2-6.4 18-17.3 17.8-32.3c-.2-14.7-8.5-24.2-17.6-29.9c-8-5-17.9-8-25.2-10.2l-.6-.2c-8.6-2.6-14.4-4.4-18.3-6.8c-1.6-1-2.1-1.6-2.2-1.7c0-.1 0-.2 0-.4z"/></svg>