<svg xmlns="http://www.w3.org/2000/svg" viewBox="0 0 512 512"><!--! Font Awesome Pro 6.2.0 by @fontawesome - https://fontawesome.com License - https://fontawesome.com/license (Commercial License) Copyright 2022 Fonticons, Inc. --><path d="M0 64C0 28.7 28.7 0 64 0H448c35.3 0 64 28.7 64 64V352c0 35.3-28.7 64-64 64H309.3L185.6 508.8c-4.8 3.6-11.3 4.2-16.8 1.5s-8.8-8.2-8.8-14.3V416H64c-35.3 0-64-28.7-64-64V64zM239.8 172.8c.1-1.6 .2-3.2 .2-4.8c0-30.9-25.1-56-56-56s-56 25.1-56 56s25.1 56 56 56c2.7 0 5.4-.2 8-.6V232c0 13.3-10.7 24-24 24s-24 10.7-24 24s10.7 24 24 24c39.8 0 72-32.2 72-72V176c0-1.1-.1-2.1-.2-3.2zm144 0c.1-1.6 .2-3.2 .2-4.8c0-30.9-25.1-56-56-56s-56 25.1-56 56s25.1 56 56 56c2.7 0 5.4-.2 8-.6V232c0 13.3-10.7 24-24 24s-24 10.7-24 24s10.7 24 24 24c39.8 0 72-32.2 72-72V176c0-1.1-.1-2.1-.2-3.2z"/></svg>