<svg xmlns="http://www.w3.org/2000/svg" viewBox="0 0 384 512"><!--! Font Awesome Pro 6.2.0 by @fontawesome - https://fontawesome.com License - https://fontawesome.com/license (Commercial License) Copyright 2022 Fonticons, Inc. --><path d="M128 64V80c0 8.8 7.2 16 16 16h96c8.8 0 16-7.2 16-16V64h32c8.8 0 16 7.2 16 16V432c0 8.8-7.2 16-16 16H96c-8.8 0-16-7.2-16-16V80c0-8.8 7.2-16 16-16h32zM96 0C51.8 0 16 35.8 16 80V432c0 44.2 35.8 80 80 80H288c44.2 0 80-35.8 80-80V80c0-44.2-35.8-80-80-80H96zm32 400c0 8.8 7.2 16 16 16h96c8.8 0 16-7.2 16-16s-7.2-16-16-16H144c-8.8 0-16 7.2-16 16z"/></svg>