<svg xmlns="http://www.w3.org/2000/svg" viewBox="0 0 512 512"><!--! Font Awesome Pro 6.2.0 by @fontawesome - https://fontawesome.com License - https://fontawesome.com/license (Commercial License) Copyright 2022 Fonticons, Inc. --><path d="M64 64H288V315.7c18.3-21.2 39.9-39.5 64-54V64c0-35.3-28.7-64-64-64H64C28.7 0 0 28.7 0 64V448c0 35.3 28.7 64 64 64H224V488c0-13.6 1-27 3-40H64V64zm80 320c-8.8 0-16 7.2-16 16s7.2 16 16 16h64c8.8 0 16-7.2 16-16s-7.2-16-16-16H144zM488 256c-128.1 0-232 103.9-232 232c0 13.3 10.7 24 24 24s24-10.7 24-24c0-101.6 82.4-184 184-184c13.3 0 24-10.7 24-24s-10.7-24-24-24zm-8 256c17.7 0 32-14.3 32-32s-14.3-32-32-32s-32 14.3-32 32s14.3 32 32 32zm32-136c0-13.3-10.7-24-24-24c-75.1 0-136 60.9-136 136c0 13.3 10.7 24 24 24s24-10.7 24-24c0-48.6 39.4-88 88-88c13.3 0 24-10.7 24-24z"/></svg>