<svg xmlns="http://www.w3.org/2000/svg" viewBox="0 0 640 512"><!--! Font Awesome Pro 6.2.0 by @fontawesome - https://fontawesome.com License - https://fontawesome.com/license (Commercial License) Copyright 2022 Fonticons, Inc. --><path d="M64 96v64c0 17.7-14.3 32-32 32s-32-14.3-32-32V96C0 43 43 0 96 0H544c53 0 96 43 96 96v64c0 17.7-14.3 32-32 32s-32-14.3-32-32V96c0-17.7-14.3-32-32-32H96C78.3 64 64 78.3 64 96zm64 0l384 0 0 352c0 35.3-28.7 64-64 64H192c-35.3 0-64-28.7-64-64l0-352zM256 448c0-35.3-28.7-64-64-64v64h64zm192-64c-35.3 0-64 28.7-64 64h64l0-64zM320 352c53 0 96-35.8 96-80s-43-80-96-80s-96 35.8-96 80s43 80 96 80z"/></svg>