<svg xmlns="http://www.w3.org/2000/svg" viewBox="0 0 512 512"><!--! Font Awesome Pro 6.2.0 by @fontawesome - https://fontawesome.com License - https://fontawesome.com/license (Commercial License) Copyright 2022 Fonticons, Inc. --><path d="M192 32c7.5 0 14.4 2.6 19.8 6.9L175 75.7c-9.6 9.6-15 22.7-15 36.3c0 5.5 .9 10.9 2.6 16H32V64c0-17.7 14.3-32 32-32H192zm5.7 93.7C194 122 192 117.1 192 112s2-10 5.7-13.7l60.7-60.7C262 34 266.9 32 272 32s10 2 13.7 5.7l60.7 60.7c3.6 3.6 5.7 8.5 5.7 13.7s-2 10-5.7 13.7L344 128H200l-2.3-2.3zM0 192c0-17.7 14.3-32 32-32H96v64c0 17.7 14.3 32 32 32s32-14.3 32-32V160H352h48c61.9 0 112 50.1 112 112s-50.1 112-112 112H384c0 53-43 96-96 96H96c-53 0-96-43-96-96V192zm384 32v96h16c26.5 0 48-21.5 48-48s-21.5-48-48-48H384z"/></svg>