<svg xmlns="http://www.w3.org/2000/svg" viewBox="0 0 640 512"><!--! Font Awesome Pro 6.2.0 by @fontawesome - https://fontawesome.com License - https://fontawesome.com/license (Commercial License) Copyright 2022 Fonticons, Inc. --><path d="M38.8 5.1C28.4-3.1 13.3-1.2 5.1 9.2S-1.2 34.7 9.2 42.9l592 464c10.4 8.2 25.5 6.3 33.7-4.1s6.3-25.5-4.1-33.7L384 275.7V153L487.8 127C502 123.5 512 110.7 512 96V32c0-9.9-4.5-19.2-12.3-25.2S481.8-1.4 472.2 1l-128 32C330 36.5 320 49.3 320 64v64 97.5L38.8 5.1zM320 359.7c-14.5-4.9-30.8-7.7-48-7.7c-61.9 0-112 35.8-112 80s50.1 80 112 80s112-35.8 112-80V398.5l-64-50.4v11.6z"/></svg>