<svg xmlns="http://www.w3.org/2000/svg" viewBox="0 0 640 512"><!--! Font Awesome Pro 6.2.0 by @fontawesome - https://fontawesome.com License - https://fontawesome.com/license (Commercial License) Copyright 2022 Fonticons, Inc. --><path d="M0 96C0 60.7 28.7 32 64 32H384c35.3 0 64 28.7 64 64v64c-22.8 0-44.4 4.8-64 13.3V144c0-26.5-21.5-48-48-48H256c-26.5 0-48 21.5-48 48v66.7c-18.6 6.6-32 24.4-32 45.3c0 26.5 21.5 48 48 48s48-21.5 48-48c0-20.9-13.4-38.7-32-45.3V144c0-8.8 7.2-16 16-16h80c8.8 0 16 7.2 16 16v48c-38.9 29.2-64 75.7-64 128c0 22.8 4.8 44.4 13.3 64H112c-8.8 0-16-7.2-16-16V144c0-8.8 7.2-16 16-16h32c8.8 0 16-7.2 16-16s-7.2-16-16-16H112c-26.5 0-48 21.5-48 48V368c0 26.5 21.5 48 48 48H320c21.6 28.8 52.7 50 88.6 59.1c-7.6 3.2-15.9 4.9-24.6 4.9H64c-35.3 0-64-28.7-64-64V96zM448 400.2c44.2 0 80-35.8 80-80s-35.8-80-80-80s-80 35.8-80 80s35.8 80 80 80zm0 48c-70.7 0-128-57.3-128-128s57.3-128 128-128s128 57.3 128 128c0 26.7-8.2 51.4-22.1 71.9L633 471.2c9.4 9.4 9.4 24.6 0 33.9s-24.6 9.4-33.9 0L519.9 426c-20.5 14-45.3 22.1-71.9 22.1z"/></svg>