<svg xmlns="http://www.w3.org/2000/svg" viewBox="0 0 512 512"><!--! Font Awesome Pro 6.2.0 by @fontawesome - https://fontawesome.com License - https://fontawesome.com/license (Commercial License) Copyright 2022 Fonticons, Inc. --><path d="M0 96C0 60.7 28.7 32 64 32H384c35.3 0 64 28.7 64 64V227c-22.4 3.4-43.8 9.6-64 18.3V144c0-26.5-21.5-48-48-48H256c-26.5 0-48 21.5-48 48v66.7c-18.6 6.6-32 24.4-32 45.3c0 26.5 21.5 48 48 48s48-21.5 48-48c0-20.9-13.4-38.7-32-45.3V144c0-8.8 7.2-16 16-16h80c8.8 0 16 7.2 16 16V261.7c-47.2 28.4-84.8 71.2-106.7 122.3H112c-8.8 0-16-7.2-16-16V144c0-8.8 7.2-16 16-16h32c8.8 0 16-7.2 16-16s-7.2-16-16-16H112c-26.5 0-48 21.5-48 48V368c0 26.5 21.5 48 48 48H233.9c-5.8 20.4-9.2 41.9-9.8 64H64c-35.3 0-64-28.7-64-64V96zM488 256c13.3 0 24 10.7 24 24s-10.7 24-24 24c-101.6 0-184 82.4-184 184c0 13.3-10.7 24-24 24s-24-10.7-24-24c0-128.1 103.9-232 232-232zm-8 256c-17.7 0-32-14.3-32-32s14.3-32 32-32s32 14.3 32 32s-14.3 32-32 32zm32-136c0 13.3-10.7 24-24 24c-48.6 0-88 39.4-88 88c0 13.3-10.7 24-24 24s-24-10.7-24-24c0-75.1 60.9-136 136-136c13.3 0 24 10.7 24 24z"/></svg>