<svg xmlns="http://www.w3.org/2000/svg" viewBox="0 0 640 512"><!--! Font Awesome Pro 6.2.0 by @fontawesome - https://fontawesome.com License - https://fontawesome.com/license (Commercial License) Copyright 2022 Fonticons, Inc. --><path d="M38.8 5.1C28.4-3.1 13.3-1.2 5.1 9.2S-1.2 34.7 9.2 42.9l592 464c10.4 8.2 25.5 6.3 33.7-4.1s6.3-25.5-4.1-33.7l-86.8-68V96c0-35.3-28.7-64-64-64H160c-21.6 0-40.7 10.7-52.3 27.1L38.8 5.1zM173.5 110.7c8.7-9 21-14.7 34.5-14.7h32c8.8 0 16 7.2 16 16s-7.2 16-16 16H208c-3.3 0-6.4 1-8.9 2.7l-25.6-20.1zM302.1 211.5c.6-.3 1.3-.5 1.9-.7V144c0-26.5 21.5-48 48-48h80c26.5 0 48 21.5 48 48V350.9l-32-25.1V144c0-8.8-7.2-16-16-16H352c-8.8 0-16 7.2-16 16v66.7c18.6 6.6 32 24.4 32 45.3c0 2.3-.2 4.6-.5 6.8l-65.5-51.3zM208 384H365.5L192 247.3V368c0 8.8 7.2 16 16 16zm-48-16V222.1L96 171.6V416c0 35.3 28.7 64 64 64H480c2.3 0 4.6-.1 6.9-.4L406.2 416H208c-26.5 0-48-21.5-48-48z"/></svg>