<svg xmlns="http://www.w3.org/2000/svg" viewBox="0 0 448 512"><!--! Font Awesome Pro 6.2.0 by @fontawesome - https://fontawesome.com License - https://fontawesome.com/license (Commercial License) Copyright 2022 Fonticons, Inc. --><path d="M64 32C28.7 32 0 60.7 0 96V416c0 35.3 28.7 64 64 64H288V352c0-17.7 14.3-32 32-32H448V96c0-35.3-28.7-64-64-64H64zM320 480l32-32 64-64 32-32H402.7 352 320v32 50.7V480zM192 144c0-8.8 7.2-16 16-16h32c8.8 0 16 7.2 16 16v48h48c8.8 0 16 7.2 16 16v32c0 8.8-7.2 16-16 16H256v48c0 8.8-7.2 16-16 16H208c-8.8 0-16-7.2-16-16V256H144c-8.8 0-16-7.2-16-16V208c0-8.8 7.2-16 16-16h48V144z"/></svg>