<svg xmlns="http://www.w3.org/2000/svg" viewBox="0 0 512 512"><!--! Font Awesome Pro 6.2.0 by @fontawesome - https://fontawesome.com License - https://fontawesome.com/license (Commercial License) Copyright 2022 Fonticons, Inc. --><path d="M160 32c-35.3 0-64 28.7-64 64V352c0 35.3 28.7 64 64 64H339.2c4.3 0 8.6-.4 12.8-1.3V320c0-17.7 14.3-32 32-32h94.7c.9-4.2 1.3-8.5 1.3-12.8V96c0-35.3-28.7-64-64-64H160zM384 352v45.7V416l96-96H461.7 416 384v32zM296 464H136c-48.6 0-88-39.4-88-88l0-224c0-13.3-10.7-24-24-24s-24 10.7-24 24V376c0 75.1 60.9 136 136 136H296c13.3 0 24-10.7 24-24s-10.7-24-24-24z"/></svg>