<svg xmlns="http://www.w3.org/2000/svg" viewBox="0 0 448 512"><!--! Font Awesome Pro 6.2.0 by @fontawesome - https://fontawesome.com License - https://fontawesome.com/license (Commercial License) Copyright 2022 Fonticons, Inc. --><path d="M224 0c-13.3 0-24 10.7-24 24V64H48C21.5 64 0 85.5 0 112v64c0 26.5 21.5 48 48 48H200v64H112c-26.5 0-48 21.5-48 48v64c0 26.5 21.5 48 48 48h88v40c0 13.3 10.7 24 24 24s24-10.7 24-24V448h88c26.5 0 48-21.5 48-48V336c0-26.5-21.5-48-48-48H248V224H400c26.5 0 48-21.5 48-48V112c0-26.5-21.5-48-48-48H248V24c0-13.3-10.7-24-24-24z"/></svg>