<svg xmlns="http://www.w3.org/2000/svg" viewBox="0 0 640 512"><!--! Font Awesome Pro 6.2.0 by @fontawesome - https://fontawesome.com License - https://fontawesome.com/license (Commercial License) Copyright 2022 Fonticons, Inc. --><path d="M352 96c0 17.7-14.3 32-32 32H288v32h80.9c9.9 0 19.7 2.3 28.6 6.8L448 192l167-35.8c18.1-3.9 30.7 17.6 18.4 31.5L451.1 394.3c-12.1 13.8-29.6 21.7-48 21.7H144c-26.5 0-48-21.5-48-48V346.7l-67.5-30C11.2 309 0 291.8 0 272.8V208c0-26.5 21.5-48 48-48H96h48 80V128H192c-17.7 0-32-14.3-32-32s14.3-32 32-32H320c17.7 0 32 14.3 32 32zM48 208v64.8l48 21.3V208H48zM592 448c-26.5 0-48-21.5-48-48c0-21 20.6-62.6 34.9-88.8c5.8-10.6 20.5-10.6 26.3 0C619.4 337.4 640 379 640 400c0 32-21.5 48-48 48z"/></svg>