<svg xmlns="http://www.w3.org/2000/svg" viewBox="0 0 448 512"><!--! Font Awesome Pro 6.2.0 by @fontawesome - https://fontawesome.com License - https://fontawesome.com/license (Commercial License) Copyright 2022 Fonticons, Inc. --><path d="M213.5 10.9l3.4 6.8c2.9 5.9 11.4 5.9 14.3 0l3.4-6.8C237.9 4.2 244.7 0 252.2 0c10.9 0 19.6 9 21.3 19.8C281 67.8 316 96.2 352.7 126C399 163.7 448 203.5 448 288c0 80.4-58 135.2-131.9 160.3l10.7 32.1c4.2 12.6-2.6 26.2-15.2 30.4s-26.2-2.6-30.4-15.2L269.4 460c-7.1 1.2-14.2 2.1-21.4 2.7V488c0 13.3-10.7 24-24 24s-24-10.7-24-24V462.7c-7.2-.7-14.3-1.6-21.4-2.7l-11.9 35.6c-4.2 12.6-17.8 19.4-30.4 15.2s-19.4-17.8-15.2-30.4l10.7-32.1C58 423.2 0 368.4 0 288c0-84.5 49-124.3 95.3-162C132 96.2 167 67.8 174.5 19.8C176.2 9 184.9 0 195.8 0c7.5 0 14.3 4.2 17.7 10.9zM126.3 199.2l0 0c3.9-7.9 .7-17.5-7.2-21.5s-17.5-.7-21.5 7.2L112 192c-14.3-7.2-14.3-7.2-14.3-7.1l0 0 0 0 0 .1-.1 .3-.5 .9c-.4 .8-.9 1.9-1.6 3.4c-1.3 2.9-3.2 7.1-5.4 12.3c-4.3 10.4-9.8 25-14.5 41.8c-9.2 32.7-16.5 76.9-2.6 114c3.1 8.3 12.3 12.5 20.6 9.4s12.5-12.3 9.4-20.6c-10.1-27-5.4-62.7 3.4-94c4.3-15.3 9.3-28.6 13.3-38.2c2-4.8 3.7-8.6 4.9-11.2c.6-1.3 1.1-2.3 1.4-2.9l.3-.7 .1-.2 0 0 0 0zm112.5-65.2c3.3-8.2-.7-17.5-8.9-20.8s-17.5 .7-20.8 8.9L224 128c-14.9-5.9-14.9-5.9-14.9-5.9l0 0 0 0 0 .1-.2 .4-.6 1.5c-.5 1.3-1.2 3.1-2.1 5.4c-1.7 4.7-4.2 11.5-7 19.9c-5.6 16.8-12.8 40.3-18.9 67c-12.1 52.3-21.1 120.1-3.6 172.7c2.8 8.4 11.9 12.9 20.2 10.1s12.9-11.9 10.1-20.2c-14.5-43.5-7.5-103.7 4.4-155.3c5.9-25.4 12.7-47.9 18.1-64c2.7-8.1 5-14.5 6.6-18.9c.8-2.2 1.5-3.9 1.9-5l.5-1.3 .1-.3 0-.1 0 0 0 0zM297.5 146c-7.7 4.3-10.5 14.1-6.1 21.8l0 0 0 0 .1 .2 .5 .8c.4 .8 1 1.9 1.8 3.5c1.6 3.1 3.8 7.6 6.5 13.2c5.3 11.4 12.2 27.3 18.4 45.6c12.6 37.3 21.2 81.4 11.2 116.5c-2.4 8.5 2.5 17.3 11 19.8s17.4-2.5 19.8-11c12.7-44.9 1.4-96.8-11.7-135.5c-6.7-19.7-14-36.8-19.8-48.9c-2.9-6.1-5.3-11-7.1-14.3c-.9-1.7-1.6-3-2.1-3.9l-.6-1.1-.2-.3 0-.1 0 0 0 0s0 0-14 7.8l14-7.8c-4.3-7.7-14.1-10.5-21.8-6.1z"/></svg>