<svg xmlns="http://www.w3.org/2000/svg" viewBox="0 0 448 512"><!--! Font Awesome Pro 6.2.0 by @fontawesome - https://fontawesome.com License - https://fontawesome.com/license (Commercial License) Copyright 2022 Fonticons, Inc. --><path d="M32 0C14.3 0 0 14.3 0 32S14.3 64 32 64H416c17.7 0 32-14.3 32-32s-14.3-32-32-32H32zM224 128c-97.2 0-176 78.8-176 176v32c0 97.2 78.8 176 176 176s176-78.8 176-176V304c0-97.2-78.8-176-176-176zM112 304c0-61.9 50.1-112 112-112s112 50.1 112 112v32c0 61.9-50.1 112-112 112s-112-50.1-112-112V304z"/></svg>