<svg xmlns="http://www.w3.org/2000/svg" viewBox="0 0 640 512"><!--! Font Awesome Pro 6.2.0 by @fontawesome - https://fontawesome.com License - https://fontawesome.com/license (Commercial License) Copyright 2022 Fonticons, Inc. --><path d="M64 32C64 14.3 78.3 0 96 0H288c17.7 0 32 14.3 32 32V224c0 17.7-14.3 32-32 32H96c-17.7 0-32-14.3-32-32V32zM384 96c0-17.7 14.3-32 32-32H544c17.7 0 32 14.3 32 32V224c0 17.7-14.3 32-32 32H416c-17.7 0-32-14.3-32-32V96zM0 352c0-17.7 14.3-32 32-32H96 320 544h64c17.7 0 32 14.3 32 32s-14.3 32-32 32H576v64h32c17.7 0 32 14.3 32 32s-14.3 32-32 32H544 320 96 32c-17.7 0-32-14.3-32-32s14.3-32 32-32H64V384H32c-17.7 0-32-14.3-32-32zm128 96H288V384H128v64zm224 0H512V384H352v64z"/></svg>