<svg xmlns="http://www.w3.org/2000/svg" viewBox="0 0 576 512"><!--! Font Awesome Pro 6.2.0 by @fontawesome - https://fontawesome.com License - https://fontawesome.com/license (Commercial License) Copyright 2022 Fonticons, Inc. --><path d="M528 256c0 132.5-107.5 240-240 240c-51.8 0-99.7-16.4-138.9-44.3l-33.6 21c-7.5 4.7-16.2 7.2-25.1 7.2c-16.4 0-31.6-8.5-40.2-22.5L8.5 389.8c-5.6-9-8.5-19.5-8.5-30.1c0-19.8 10.2-38.1 26.9-48.6l24.4-15.3c-2.2-13-3.3-26.3-3.3-39.8C48 123.5 155.5 16 288 16c51.8 0 99.7 16.4 138.9 44.3l33.6-21c7.5-4.7 16.2-7.2 25.1-7.2c16.4 0 31.6 8.5 40.2 22.5l41.6 67.7c5.6 9 8.5 19.5 8.5 30.1c0 19.8-10.2 38.1-26.9 48.6l-24.4 15.3c2.2 13 3.3 26.3 3.3 39.8zm-4.4-95.8c2.7-1.7 4.4-4.7 4.4-8c0-1.7-.5-3.4-1.4-4.9l-41.3-67L464.5 93.4c19.9 21.6 35.9 46.8 46.8 74.5l12.3-7.7zM64.7 344.1l-12.3 7.7c-2.7 1.7-4.4 4.7-4.4 8c0 1.7 .5 3.4 1.4 4.9l41.3 67 20.9-13.1c-19.9-21.6-35.9-46.8-46.8-74.5zM320 96c-29.9 0-55 20.5-62 48.2c-2.2 8.6 5.2 15.8 14 15.8h96c8.8 0 16.2-7.3 14-15.8C375 116.5 349.9 96 320 96zM206.1 145.9c-7.8-7.8-20.5-7.8-28.3 0l-32 32c-7.8 7.8-7.8 20.5 0 28.3s20.5 7.8 28.3 0l32-32c7.8-7.8 7.8-20.5 0-28.3zM296 240c0-13.3-10.7-24-24-24s-24 10.7-24 24s10.7 24 24 24s24-10.7 24-24zm72 152c13.3 0 24-10.7 24-24s-10.7-24-24-24s-24 10.7-24 24s10.7 24 24 24zm68.3-187.4c-4.5-7.6-14.9-7.5-21.1-1.3l-67.9 67.9c-6.2 6.2-6.3 16.6 1.3 21.1c24.6 14.6 56.8 11.3 77.9-9.8s24.4-53.4 9.8-77.9zm-233 72.1c-6.2-6.2-16.4-6.2-22.6 0l-8 8-8 8c-6.2 6.2-6.2 16.4 0 22.6c2.1 2.1 4.6 3.5 7.3 4.2c1.7 .4 3.4 .8 5.1 1.1c5.4 1.1 11 2.1 14.7 5.9l11.4 11.4c3 3 4.7 7.1 4.7 11.3V368c0 26.5 21.5 48 48 48s48-21.5 48-48s-21.5-48-48-48H237.3c-4.2 0-8.3-1.7-11.3-4.7l-11.4-11.4c-3.8-3.8-4.8-9.3-5.9-14.7c-.3-1.7-.7-3.5-1.1-5.1c-.7-2.7-2.1-5.2-4.2-7.3z"/></svg>