<svg xmlns="http://www.w3.org/2000/svg" viewBox="0 0 512 512"><!--! Font Awesome Pro 6.2.0 by @fontawesome - https://fontawesome.com License - https://fontawesome.com/license (Commercial License) Copyright 2022 Fonticons, Inc. --><path d="M64 0C28.7 0 0 28.7 0 64V288H16c44.2 0 80 35.8 80 80v16c0 17.7 14.3 32 32 32s32-14.3 32-32V352c-17.7 0-32-14.3-32-32V288c0-17.7 14.3-32 32-32h32c17.7 0 32 14.3 32 32v32c0 17.7-14.3 32-32 32v32c0 35.3-28.7 64-64 64s-64-28.7-64-64V368c0-26.5-21.5-48-48-48H0V448c0 35.3 28.7 64 64 64H448c35.3 0 64-28.7 64-64V64c0-35.3-28.7-64-64-64H64zm48 64h96c8.8 0 16 7.2 16 16s-7.2 16-16 16H112c-8.8 0-16-7.2-16-16s7.2-16 16-16zm192 0h96c8.8 0 16 7.2 16 16s-7.2 16-16 16H304c-8.8 0-16-7.2-16-16s7.2-16 16-16zM112 128h96c8.8 0 16 7.2 16 16s-7.2 16-16 16H112c-8.8 0-16-7.2-16-16s7.2-16 16-16zm192 0h96c8.8 0 16 7.2 16 16s-7.2 16-16 16H304c-8.8 0-16-7.2-16-16s7.2-16 16-16zm16 128h64c17.7 0 32 14.3 32 32V416c0 17.7-14.3 32-32 32H320c-17.7 0-32-14.3-32-32V288c0-17.7 14.3-32 32-32z"/></svg>