<svg xmlns="http://www.w3.org/2000/svg" viewBox="0 0 640 512"><!--! Font Awesome Pro 6.2.0 by @fontawesome - https://fontawesome.com License - https://fontawesome.com/license (Commercial License) Copyright 2022 Fonticons, Inc. --><path d="M0 96C0 60.7 28.7 32 64 32H384c35.3 0 64 28.7 64 64v32.2c-12.6-1.2-25.5 2.7-35.5 11.7c-9.9 8.9-19.4 18.1-28.5 27.5V128c0-17.7-14.3-32-32-32H96c-17.7 0-32 14.3-32 32v64c0 17.7 14.3 32 32 32H337.5c-4.4 6.2-8.5 12.5-12.3 18.7c-10.9 17.6-20.5 36.4-27.2 55.4c-3-1.4-6.4-2.1-9.9-2.1c-13.3 0-24 10.7-24 24s10.7 24 24 24l.2 0c-.1 2-.2 4.1-.2 6.1c0 49.3 18.6 95.2 49.6 129.9H64c-35.3 0-64-28.7-64-64V96zM120 320c0-13.3-10.7-24-24-24s-24 10.7-24 24s10.7 24 24 24s24-10.7 24-24zm72 24c13.3 0 24-10.7 24-24s-10.7-24-24-24s-24 10.7-24 24s10.7 24 24 24zM453.5 163.6c19.7 17.8 38.2 37 55.5 57.7c7.9-9.9 16.8-20.7 26.5-29.5c5.6-5.1 14.4-5.1 20 0c24.7 22.7 45.6 52.7 60.4 81.1c14.5 28 24.2 58.8 24.2 79c0 87.8-71.3 159.8-160 159.8c-89.7 0-160-72.1-160-159.8c0-26.4 12.7-60.7 32.4-92.6c20-32.4 48.1-66.1 81.4-95.8c2.8-2.5 6.4-3.8 10-3.7c3.5 0 7 1.3 9.8 3.8zM530 432.9c30-21 38-63 20-96c-2-4-4-8-7-12l-36 42s-58-74-62-79c-30 37-45 58-45 82c0 49 36 78 81 78c18 0 34-5 49-15z"/></svg>