<svg xmlns="http://www.w3.org/2000/svg" viewBox="0 0 384 512"><!--! Font Awesome Pro 6.2.0 by @fontawesome - https://fontawesome.com License - https://fontawesome.com/license (Commercial License) Copyright 2022 Fonticons, Inc. --><path d="M320 64c17.7 0 32-14.3 32-32s-14.3-32-32-32H160 144C82.1 0 32 50.1 32 112s50.1 112 112 112h16l0 64c0 17.7 14.3 32 32 32s32-14.3 32-32l0-224h32l0 224c0 17.7 14.3 32 32 32s32-14.3 32-32V64zM128 384V337.6c0-9.7-7.9-17.6-17.6-17.6c-4.2 0-8.2 1.5-11.3 4.2l-93 78.7C2.2 406.1 0 410.9 0 416s2.2 9.9 6.1 13.2l93 78.7c3.2 2.7 7.2 4.2 11.3 4.2c9.7 0 17.6-7.9 17.6-17.6V448H352c17.7 0 32-14.3 32-32s-14.3-32-32-32H128z"/></svg>