<svg xmlns="http://www.w3.org/2000/svg" viewBox="0 0 512 512"><!--! Font Awesome Pro 6.2.0 by @fontawesome - https://fontawesome.com License - https://fontawesome.com/license (Commercial License) Copyright 2022 Fonticons, Inc. --><path d="M224 0C100.3 0 0 100.3 0 224c0 35.3 8.2 68.9 22.8 98.7C32.3 341.9 51.7 352 70.7 352c14.5 0 28.3-5.7 38.5-16L336 109.2c10.2-10.2 16-24.1 16-38.5c0-19-10.1-38.4-29.3-47.8C292.9 8.2 259.3 0 224 0zM352 512c17.7 0 32-14.3 32-32s-14.3-32-32-32s-32 14.3-32 32s14.3 32 32 32zM448 64c0 17.7 14.3 32 32 32s32-14.3 32-32s-14.3-32-32-32s-32 14.3-32 32zM64 512c17.7 0 32-14.3 32-32s-14.3-32-32-32s-32 14.3-32 32s14.3 32 32 32zM490.6 255.9c13.2-1.5 22.7-13.3 21.2-26.5s-13.3-22.7-26.5-21.2c-28.9 3.2-51.2-6.3-66.8-17c-7.8-5.4-13.8-10.9-17.8-15.1c-2-2.1-3.4-3.8-4.3-4.8c-.4-.5-.7-.9-.9-1.1l-.1-.1 0 0c-7.7-10.7-22.6-13.1-33.4-5.5c-10.8 7.7-13.3 22.7-5.6 33.5L376 184c-19.5 13.9-19.5 14-19.5 14l0 0 0 0 .1 .1 .2 .3 .6 .8c.5 .6 1.1 1.4 1.9 2.4c1.6 1.9 3.8 4.6 6.7 7.6c5.8 6.1 14.3 14 25.5 21.6c22.4 15.3 56.1 29.8 99.2 25zM169.9 395.4l0 0 .1 .1c.2 .2 .6 .5 1.1 .9c1.1 .9 2.8 2.3 4.8 4.3c4.2 4 9.7 10 15.1 17.8c10.7 15.6 20.2 37.9 17 66.8c-1.5 13.2 8 25 21.2 26.5s25-8 26.5-21.2c4.8-43.1-9.7-76.8-25-99.2c-7.6-11.2-15.6-19.7-21.6-25.5c-3.1-2.9-5.7-5.2-7.6-6.7c-1-.8-1.8-1.4-2.4-1.9l-.8-.6-.3-.2-.1-.1 0 0 0 0c0 0 0 0-14 19.5l13.9-19.5c-10.8-7.7-25.8-5.2-33.5 5.6c-7.7 10.7-5.2 25.7 5.5 33.4zM469.7 503.5c8.6 10.1 23.7 11.4 33.8 2.8s11.4-23.7 2.8-33.8l-8.5-10c-4.9-5.8-7.5-13.2-7.3-20.7c1.1-42.5-31.7-78.3-74.2-80.8l-30-1.8c-16.6-1-29.4-15-29-31.6c.5-19.4-6.1-38.2-18.6-53l-8.5-10c-8.6-10.1-23.7-11.4-33.8-2.8s-11.4 23.7-2.8 33.8l8.5 10c4.9 5.8 7.5 13.2 7.3 20.7c-1.1 42.5 31.7 78.3 74.2 80.8l30 1.8c16.6 1 29.4 15 29 31.6c-.5 19.4 6.1 38.2 18.6 53l8.5 10z"/></svg>