<svg xmlns="http://www.w3.org/2000/svg" viewBox="0 0 512 512"><!--! Font Awesome Pro 6.2.0 by @fontawesome - https://fontawesome.com License - https://fontawesome.com/license (Commercial License) Copyright 2022 Fonticons, Inc. --><path d="M0 480C0 208 208 0 480 0c17.7 0 32 14.3 32 32c0 272-208 480-480 480c-17.7 0-32-14.3-32-32zM256 312c30.9 0 56-25.1 56-56s-25.1-56-56-56s-56 25.1-56 56s25.1 56 56 56zm-72 72c0-30.9-25.1-56-56-56s-56 25.1-56 56s25.1 56 56 56s56-25.1 56-56zM384 184c30.9 0 56-25.1 56-56s-25.1-56-56-56s-56 25.1-56 56s25.1 56 56 56z"/></svg>