<svg xmlns="http://www.w3.org/2000/svg" viewBox="0 0 576 512"><!--! Font Awesome Pro 6.2.0 by @fontawesome - https://fontawesome.com License - https://fontawesome.com/license (Commercial License) Copyright 2022 Fonticons, Inc. --><path d="M453.3 19.3l39.4 39.4c25 25 25 65.5 0 90.5l-48.4 48.4L314.3 67.7l48.4-48.4c25-25 65.5-25 90.5 0zM52.8 329.3L291.7 90.3 421.7 220.3 182.7 459.2c-6.6 6.6-14.8 11.5-23.8 14.1L30.8 511c-8.4 2.5-17.5 .2-23.7-6.1S-1.5 489.7 1 481.2L38.7 353.1c2.6-9 7.5-17.2 14.1-23.8zM248 464H552c13.3 0 24 10.7 24 24s-10.7 24-24 24H248c-13.3 0-24-10.7-24-24s10.7-24 24-24z"/></svg>