<svg xmlns="http://www.w3.org/2000/svg" viewBox="0 0 512 512"><!--! Font Awesome Pro 6.2.0 by @fontawesome - https://fontawesome.com License - https://fontawesome.com/license (Commercial License) Copyright 2022 Fonticons, Inc. --><path d="M128 128c35.3 0 64-28.7 64-64s-28.7-64-64-64S64 28.7 64 64s28.7 64 64 64zm-15.7 32c-28.6 0-53.7 18.9-61.5 46.4L11.7 343.2C5.8 363.7 21.2 384 42.4 384H64v80c0 26.5 21.5 48 48 48h32c26.5 0 48-21.5 48-48V384h21.6c21.3 0 36.6-20.3 30.8-40.8L205.3 206.4c-7.9-27.5-33-46.4-61.5-46.4H112.3zM384 128c35.3 0 64-28.7 64-64s-28.7-64-64-64s-64 28.7-64 64s28.7 64 64 64zm-15.7 32c-28.6 0-53.7 18.9-61.5 46.4L267.7 343.2c-5.8 20.4 9.5 40.8 30.8 40.8H320v80c0 26.5 21.5 48 48 48h32c26.5 0 48-21.5 48-48V384h21.6c21.3 0 36.6-20.3 30.8-40.8L461.3 206.4c-7.8-27.5-33-46.4-61.5-46.4H368.3z"/></svg>