<svg xmlns="http://www.w3.org/2000/svg" viewBox="0 0 640 512"><!--! Font Awesome Pro 6.2.0 by @fontawesome - https://fontawesome.com License - https://fontawesome.com/license (Commercial License) Copyright 2022 Fonticons, Inc. --><path d="M208 48c0-26.5-21.5-48-48-48s-48 21.5-48 48s21.5 48 48 48s48-21.5 48-48zM70.2 384H88v96c0 17.7 14.3 32 32 32s32-14.3 32-32V384h16v96c0 17.7 14.3 32 32 32s32-14.3 32-32V384h17.8c10.9 0 18.6-10.7 15.2-21.1L226.7 248.1l33.9 56.3c9.1 15.1 28.8 20 43.9 10.9c9.8-5.9 15.3-16.2 15.5-26.9c.2 10.7 5.7 21 15.5 26.9c15.1 9.1 34.8 4.2 43.9-10.9l33.9-56.3L375 362.9c-3.5 10.4 4.3 21.1 15.2 21.1H408v96c0 17.7 14.3 32 32 32s32-14.3 32-32V384h16v96c0 17.7 14.3 32 32 32s32-14.3 32-32V384h17.8c10.9 0 18.6-10.7 15.2-21.1L546.7 248.1l33.9 56.3c9.1 15.1 28.8 20 43.9 10.9s20-28.8 10.9-43.9l-53.6-89.2c-20.2-33.7-56.7-54.3-96-54.3H474.2c-39.3 0-75.7 20.6-96 54.3l-53.6 89.2c-3 5-4.5 10.5-4.6 15.9c-.1-5.4-1.6-10.9-4.6-15.9l-53.6-89.2c-20.3-33.7-56.7-54.3-96-54.3H154.2c-39.3 0-75.7 20.6-96 54.3L4.6 271.5c-9.1 15.1-4.2 34.8 10.9 43.9s34.8 4.2 43.9-10.9l33.9-56.3L55 362.9C51.6 373.3 59.3 384 70.2 384zM528 48c0-26.5-21.5-48-48-48s-48 21.5-48 48s21.5 48 48 48s48-21.5 48-48z"/></svg>