<svg xmlns="http://www.w3.org/2000/svg" viewBox="0 0 512 512"><!--! Font Awesome Pro 6.2.0 by @fontawesome - https://fontawesome.com License - https://fontawesome.com/license (Commercial License) Copyright 2022 Fonticons, Inc. --><path d="M128 128c35.3 0 64-28.7 64-64s-28.7-64-64-64S64 28.7 64 64s28.7 64 64 64zm-22.4 32c-41.6 0-76.3 31.9-79.7 73.4l-4.1 49.3c-2.5 29.8 15.7 56.1 42.2 65.6V464c0 26.5 21.5 48 48 48h32c26.5 0 48-21.5 48-48V348.3c26.5-9.5 44.7-35.8 42.2-65.6l-4.1-49.3C226.7 191.9 192 160 150.4 160H105.6zM384 128c35.3 0 64-28.7 64-64s-28.7-64-64-64s-64 28.7-64 64s28.7 64 64 64zm-22.4 32c-41.6 0-76.3 31.9-79.7 73.4l-4.1 49.3c-2.5 29.8 15.7 56.1 42.2 65.6V464c0 26.5 21.5 48 48 48h32c26.5 0 48-21.5 48-48V348.3c26.5-9.5 44.7-35.8 42.2-65.6l-4.1-49.3C482.7 191.9 448 160 406.4 160H361.6z"/></svg>