<svg xmlns="http://www.w3.org/2000/svg" viewBox="0 0 512 512"><!--! Font Awesome Pro 6.2.0 by @fontawesome - https://fontawesome.com License - https://fontawesome.com/license (Commercial License) Copyright 2022 Fonticons, Inc. --><path d="M228.3 3.4C217-3.4 202.2 .3 195.4 11.7c-6.7 11.2-3.2 25.7 7.8 32.6l.2 .2c.4 .3 1.3 1 2.5 2.1c2.4 2.2 6 6.1 9.8 12.2c5.3 8.6 11.4 22 14.4 42.1c-5-1.7-10.2-2.9-15.5-3.7l-1.1-.2c-8.1-1.2-16.4-1.3-24.9-.3c-4 .5-7.9 1.2-11.9 2.2c-51.4 12.9-74.7 65-61.9 116.4l37.1 148.3c2.1 8.6-3.1 17.3-11.6 19.4s-17.3-3.1-19.4-11.6L83.8 223c-11.8-47 .4-94.4 31.3-125.2c-13.6-2.8-28-2.6-42.4 1C21.3 111.7-10 163.8 2.9 215.3l56 224c12.9 51.4 65 82.7 116.4 69.8c7-1.7 13.6-4.2 19.8-7.3c5.6-2.8 12.3-2.8 17.9 0c3 1.5 6 2.8 9.2 4c10.7 4 22.2 6.2 34 6.2c11.6 0 22.9-2.1 33.5-6.1c3.2-1.2 6.4-2.6 9.4-4.1c5.6-2.8 12.3-2.8 17.9 0c6.2 3.1 12.8 5.6 19.8 7.3c51.4 12.9 103.6-18.4 116.4-69.8l56-224c12.9-51.4-18.4-103.6-69.8-116.4c-23.2-5.8-46.5-2.6-66.3 7.3c-5.6 2.8-12.3 2.8-17.9 0c-6.2-3.1-12.8-5.6-19.8-7.3c-19.5-4.9-39.1-3.4-56.7 3.1c-3.3-30.5-12.4-52.9-22.3-68.7c-6.2-9.9-12.6-17-17.7-21.8c-2.6-2.4-4.8-4.2-6.6-5.5c-.9-.7-1.6-1.2-2.3-1.6c-.3-.2-.6-.4-.8-.5l-.3-.2-.1-.1-.1 0 0 0c0 0 0 0-12.4 20.6L228.3 3.4z"/></svg>