<svg xmlns="http://www.w3.org/2000/svg" viewBox="0 0 384 512"><!--! Font Awesome Pro 6.2.0 by @fontawesome - https://fontawesome.com License - https://fontawesome.com/license (Commercial License) Copyright 2022 Fonticons, Inc. --><path d="M144 128c26.5 0 48-21.5 48-48s-21.5-48-48-48s-48 21.5-48 48s21.5 48 48 48zm48 160V256h64c17.7 0 32-14.3 32-32s-14.3-32-32-32H189.3c-6.6-18.6-24.4-32-45.3-32c-26.5 0-48 21.5-48 48v80c0 35.3 28.7 64 64 64h85.6c8.1 0 14.9 6 15.9 14l10.7 86c2 16 15.6 28 31.8 28h48c17.7 0 32-14.3 32-32s-14.3-32-32-32H332.2L325 358.1c-5-40-39-70.1-79.4-70.1H192zM64 160c0-17.7-14.3-32-32-32s-32 14.3-32 32V320c0 70.7 57.3 128 128 128h64c17.7 0 32-14.3 32-32s-14.3-32-32-32H128c-35.3 0-64-28.7-64-64V160z"/></svg>