<svg xmlns="http://www.w3.org/2000/svg" viewBox="0 0 640 512"><!--! Font Awesome Pro 6.2.0 by @fontawesome - https://fontawesome.com License - https://fontawesome.com/license (Commercial License) Copyright 2022 Fonticons, Inc. --><path d="M448 48c0-26.5-21.5-48-48-48s-48 21.5-48 48s21.5 48 48 48s48-21.5 48-48zM427.2 160l-61.8-48.8c-17.3-13.6-41.7-13.8-59.1-.3l-83.1 64.2c-30.7 23.8-28.5 70.8 4.3 91.6L288 305.1V416c0 17.7 14.3 32 32 32s32-14.3 32-32V288c0-10.7-5.3-20.7-14.2-26.6L295 232.9l60.3-48.5L396 217c5.7 4.5 12.7 7 20 7h64c17.7 0 32-14.3 32-32s-14.3-32-32-32H427.2zm-238.8 6.7L290.8 89.9c7.2-5.4 8.5-15.7 2.9-22.8L278.8 48.4c-21.6-27-60.7-32-88.4-11.2L125.2 86.1c-7.2 5.4-8.5 15.7-2.9 22.8l44 55c5.4 6.7 15.2 8 22.1 2.8zM120 256c-12.1 0-22.1 8.9-23.8 20.6c-7.6 2.2-14.9 5.3-21.7 9c-9.4-7.1-22.8-6.3-31.3 2.3L31.8 299.1c-8.6 8.6-9.3 21.9-2.3 31.3c-3.7 6.9-6.8 14.1-9 21.8C8.9 353.9 0 363.9 0 376v16c0 12.1 8.9 22.1 20.6 23.8c2.2 7.6 5.3 14.9 9 21.8c-7 9.4-6.3 22.8 2.3 31.3l11.3 11.3c8.6 8.6 21.9 9.3 31.3 2.2c6.8 3.7 14.1 6.8 21.7 9C97.9 503.1 107.9 512 120 512h16c12.1 0 22.1-8.9 23.8-20.6c7.6-2.2 14.9-5.3 21.7-9c9.4 7 22.8 6.3 31.3-2.2l11.3-11.3c8.6-8.6 9.3-21.9 2.3-31.3c3.7-6.8 6.8-14.1 9-21.7c11.6-1.7 20.6-11.7 20.6-23.8V376c0-12.1-8.9-22.1-20.6-23.8c-2.2-7.6-5.3-14.9-9-21.7c7-9.4 6.3-22.8-2.3-31.3l-11.3-11.3c-8.6-8.6-21.9-9.3-31.3-2.3c-6.8-3.7-14.1-6.8-21.7-9C158.1 264.9 148.1 256 136 256H120zm8 192c-35.3 0-64-28.7-64-64s28.7-64 64-64s64 28.7 64 64s-28.7 64-64 64zM480.2 276.6c-7.6 2.2-14.9 5.3-21.7 9c-9.4-7.1-22.8-6.3-31.3 2.3l-11.3 11.3c-8.6 8.6-9.3 21.9-2.2 31.3c-3.7 6.9-6.8 14.1-9 21.8C392.9 353.9 384 363.9 384 376v16c0 12.1 8.9 22.1 20.6 23.8c2.2 7.6 5.3 14.9 9 21.8c-7 9.4-6.3 22.8 2.2 31.3l11.3 11.3c8.5 8.6 21.9 9.3 31.3 2.2c6.8 3.7 14.1 6.8 21.7 9c1.7 11.6 11.7 20.6 23.8 20.6h16c12.1 0 22.1-8.9 23.8-20.6c7.6-2.2 14.9-5.3 21.8-9c9.4 7 22.8 6.3 31.3-2.2l11.3-11.3c8.6-8.6 9.3-21.9 2.2-31.3c3.7-6.8 6.8-14.1 9-21.7c11.6-1.7 20.6-11.7 20.6-23.8V376c0-12.1-8.9-22.1-20.6-23.8c-2.2-7.6-5.3-14.9-9-21.7c7-9.4 6.3-22.8-2.2-31.3l-11.3-11.3c-8.6-8.6-21.9-9.3-31.3-2.3c-6.9-3.7-14.1-6.8-21.8-9C542.1 264.9 532.1 256 520 256H504c-12.1 0-22.1 8.9-23.8 20.6zM576 384c0 35.3-28.7 64-64 64s-64-28.7-64-64s28.7-64 64-64s64 28.7 64 64z"/></svg>