<svg xmlns="http://www.w3.org/2000/svg" viewBox="0 0 384 512"><!--! Font Awesome Pro 6.2.0 by @fontawesome - https://fontawesome.com License - https://fontawesome.com/license (Commercial License) Copyright 2022 Fonticons, Inc. --><path d="M80 96c26.5 0 48-21.5 48-48s-21.5-48-48-48S32 21.5 32 48s21.5 48 48 48zM96 306.7V241.7l16.6 24.9c8.9 13.4 23.9 21.4 39.9 21.4H224 352c17.7 0 32-14.3 32-32V128c0-17.7-14.3-32-32-32H224c-17.7 0-32 14.3-32 32v96H161.1l-42.6-64c-13.3-20-35.8-32-59.9-32C26.2 128 0 154.2 0 186.6v88.1c0 17 6.7 33.3 18.7 45.3l79.4 79.4 14.3 85.9c2.9 17.4 19.4 29.2 36.8 26.3s29.2-19.4 26.3-36.8l-15.2-90.9c-1.6-9.9-6.3-19-13.4-26.1l-51-51zM0 346.5L0 480c0 17.7 14.3 32 32 32s32-14.3 32-32v0V410.5l-64-64z"/></svg>