<svg xmlns="http://www.w3.org/2000/svg" viewBox="0 0 576 512"><!--! Font Awesome Pro 6.2.0 by @fontawesome - https://fontawesome.com License - https://fontawesome.com/license (Commercial License) Copyright 2022 Fonticons, Inc. --><path d="M288 198.3l-32 8.5V0h32V198.3zM192 80c0 26.5-21.5 48-48 48s-48-21.5-48-48s21.5-48 48-48s48 21.5 48 48zM132.4 218c-14.2-30.8 8.3-66 42.2-66c18.2 0 34.8 10.7 42.3 27.3l28.8 63.4 55.9-14.9c25.4-6.8 50.3 12.4 50.3 38.6V388.5L475.1 343c12.6-4.6 20.9-16.6 20.9-30v-1c0-13.3 10.7-24 24-24s24 10.7 24 24v1c0 33.5-20.9 63.4-52.3 75L160.3 510.5c-12.4 4.6-26.2-1.8-30.8-14.2s1.8-26.2 14.2-30.8L288 412.2V297.7l-66.7 17.8c-22.6 6-46.2-5.1-56-26.3L132.4 218zM77.7 189.6l65 135.8c8.3 17.4 28 26.4 46.6 21.3l36.5-9.9c12.8-3.5 26 4.1 29.5 16.8s-4.1 26-16.8 29.5l-36.5 9.9c-41 11.2-84.2-8.6-102.5-46.9l-65-135.8c-5.7-12-.7-26.3 11.3-32s26.3-.7 32 11.3z"/></svg>