<svg xmlns="http://www.w3.org/2000/svg" viewBox="0 0 512 512"><!--! Font Awesome Pro 6.2.0 by @fontawesome - https://fontawesome.com License - https://fontawesome.com/license (Commercial License) Copyright 2022 Fonticons, Inc. --><path d="M128 48c0 26.5-21.5 48-48 48S32 74.5 32 48S53.5 0 80 0s48 21.5 48 48zM96 241.7v65.1l51 51c7.1 7.1 11.8 16.2 13.4 26.1l15.2 90.9c2.9 17.4-8.9 33.9-26.3 36.8s-33.9-8.9-36.8-26.3L98.1 399.4 18.7 320C6.7 308 0 291.7 0 274.7V186.6C0 154.2 26.2 128 58.6 128c24.1 0 46.5 12 59.9 32l42.6 64h46.1l-6.5-26.2c-3.2-12.9 4.6-25.9 17.5-29.1s25.9 4.6 29.1 17.5l49.6 198.4c17.6 2.4 32.9 12 42.8 25.7l134.4-33.6c12.9-3.2 25.9 4.6 29.1 17.5s-4.6 25.9-17.5 29.1L351.4 456.9C347.1 488 320.3 512 288 512c-35.3 0-64-28.7-64-64c0-21.3 10.4-40.1 26.3-51.7L223.3 288H152.6c-16 0-31-8-39.9-21.4L96 241.7zM0 480L0 346.5l64 64V480v0c0 17.7-14.3 32-32 32s-32-14.3-32-32zm288-16c8.8 0 16-7.2 16-16s-7.2-16-16-16s-16 7.2-16 16s7.2 16 16 16zm69.4-87.8c-17.1 4.3-34.5-6.1-38.8-23.3l-22.9-91.5c-4.3-17.1 6.1-34.5 23.3-38.8l91.5-22.9c17.1-4.3 34.5 6.1 38.8 23.3l22.9 91.5c4.3 17.1-6.1 34.5-23.3 38.8l-91.5 22.9z"/></svg>