<svg xmlns="http://www.w3.org/2000/svg" viewBox="0 0 256 512"><!--! Font Awesome Pro 6.2.0 by @fontawesome - https://fontawesome.com License - https://fontawesome.com/license (Commercial License) Copyright 2022 Fonticons, Inc. --><path d="M192 64c0 35.3-28.7 64-64 64s-64-28.7-64-64S92.7 0 128 0s64 28.7 64 64zM25.9 233.4C29.3 191.9 64 160 105.6 160h44.8c41.6 0 76.3 31.9 79.7 73.4l4.1 49.3c2.5 29.8-15.7 56.1-42.2 65.6V464c0 26.5-21.5 48-48 48H112c-26.5 0-48-21.5-48-48V348.3c-26.5-9.5-44.7-35.8-42.2-65.6l4.1-49.3z"/></svg>