<svg xmlns="http://www.w3.org/2000/svg" viewBox="0 0 512 512"><!--! Font Awesome Pro 6.2.0 by @fontawesome - https://fontawesome.com License - https://fontawesome.com/license (Commercial License) Copyright 2022 Fonticons, Inc. --><path d="M80 96c26.5 0 48-21.5 48-48s-21.5-48-48-48S32 21.5 32 48s21.5 48 48 48zM96 306.7V241.7l16.6 24.9c8.9 13.4 23.9 21.4 39.9 21.4h70.7l27.1 108.3c-16 11.6-26.3 30.5-26.3 51.7c0 35.3 28.7 64 64 64c32.3 0 59.1-24 63.4-55.1l134.4-33.6c12.9-3.2 20.7-16.2 17.5-29.1s-16.2-20.7-29.1-17.5L339.7 410.3c-10-13.7-25.3-23.3-42.8-25.7L247.3 186.2c-3.2-12.9-16.2-20.7-29.1-17.5s-20.7 16.2-17.5 29.1l6.5 26.2H161.1l-42.6-64c-13.3-20-35.8-32-59.9-32C26.2 128 0 154.2 0 186.6v88.1c0 17 6.7 33.3 18.7 45.3l79.4 79.4 14.3 85.9c2.9 17.4 19.4 29.2 36.8 26.3s29.2-19.4 26.3-36.8l-15.2-90.9c-1.6-9.9-6.3-19-13.4-26.1l-51-51zM0 346.5L0 480c0 17.7 14.3 32 32 32s32-14.3 32-32v0V410.5l-64-64zM304 448c0 8.8-7.2 16-16 16s-16-7.2-16-16s7.2-16 16-16s16 7.2 16 16z"/></svg>