<svg xmlns="http://www.w3.org/2000/svg" viewBox="0 0 640 512"><!--! Font Awesome Pro 6.2.0 by @fontawesome - https://fontawesome.com License - https://fontawesome.com/license (Commercial License) Copyright 2022 Fonticons, Inc. --><path d="M232 0c9.7 0 18.5 5.8 22.2 14.8s1.7 19.3-5.2 26.2l-39 39 58.7 58.7C282.3 152.4 300.8 160 320 160s37.7-7.6 51.3-21.3L503 7c9.4-9.4 24.6-9.4 33.9 0s9.4 24.6 0 33.9L405.3 172.7C382.6 195.3 352 208 320 208s-62.6-12.7-85.3-35.3L176 113.9l-39 39c-6.9 6.9-17.2 8.9-26.2 5.2s-14.8-12.5-14.8-22.2V24c0-13.3 10.7-24 24-24H232zM590.9 492c-10.7 17.3-33.5 24.5-53.4 17l-92.4-35.2c-17.5-6.7-28.1-23.1-26.3-40.6l5.8-53.3c-67.6-21.7-141.5-21.7-209.1 0l5.8 53.3c1.9 17.4-8.8 33.9-26.3 40.6L102.5 509c-19.9 7.6-42.7 .3-53.4-17L5.6 421.6c-9.6-15.5-6.7-35 6.9-47.6c169.8-157.2 445.1-157.2 615 0c13.6 12.6 16.5 32.1 6.9 47.6L590.9 492z"/></svg>