<svg xmlns="http://www.w3.org/2000/svg" viewBox="0 0 640 512"><!--! Font Awesome Pro 6.2.0 by @fontawesome - https://fontawesome.com License - https://fontawesome.com/license (Commercial License) Copyright 2022 Fonticons, Inc. --><path d="M537.5 381c19.9 7.6 42.7 .3 53.4-17l43.5-70.5c9.6-15.5 6.7-35-6.9-47.6c-169.8-157.2-445.1-157.2-615 0c-13.6 12.6-16.5 32.1-6.9 47.6L49.1 364c10.7 17.3 33.5 24.5 53.4 17l92.4-35.2c17.5-6.7 28.1-23.1 26.3-40.5l-5.8-53.3c67.6-21.7 141.5-21.7 209.1 0l-5.8 53.3c-1.9 17.4 8.8 33.9 26.3 40.5L537.5 381z"/></svg>