<svg xmlns="http://www.w3.org/2000/svg" viewBox="0 0 576 512"><!--! Font Awesome Pro 6.2.0 by @fontawesome - https://fontawesome.com License - https://fontawesome.com/license (Commercial License) Copyright 2022 Fonticons, Inc. --><path d="M250.4 28c37.5-37.4 98.4-37.4 136 0L499.9 141.3c29.2 29.2 35.7 72.4 19.4 107.8c-24.9-15.8-54.4-25-86.1-25c-72 0-133 47.3-153.3 112.5L155.7 212.8c-6.3-6.2-16.4-6.2-22.6 0s-6.2 16.4 0 22.6L273 374.9c-.2 3-.3 6.1-.3 9.1c0 27.8 7.1 53.8 19.6 76.6c-9.3 .5-18.7-1-27.6-4.7l-56.7-23.2c-23.9-9.8-51.4-4.3-69.6 13.9L84.4 500.3c-15.6 15.6-41 15.6-56.7 0s-15.6-40.9 0-56.5l53.5-53.4c18.4-18.3 23.8-45.8 13.9-69.8L71.1 262.8c-10-23.9-4.5-51.4 13.9-69.7L250.4 28zM560 384c0 70.7-57.3 128-128 128s-128-57.3-128-128s57.3-128 128-128s128 57.3 128 128zM336 368c0 8.8 7.2 16 16 16s16-7.2 16-16s-7.2-16-16-16s-16 7.2-16 16zm80 80c-8.8 0-16 7.2-16 16s7.2 16 16 16s16-7.2 16-16s-7.2-16-16-16zm0-64c0 8.8 7.2 16 16 16s16-7.2 16-16s-7.2-16-16-16s-16 7.2-16 16zm96 0c-8.8 0-16 7.2-16 16s7.2 16 16 16s16-7.2 16-16s-7.2-16-16-16zm-80-80c0 8.8 7.2 16 16 16s16-7.2 16-16s-7.2-16-16-16s-16 7.2-16 16z"/></svg>