<svg xmlns="http://www.w3.org/2000/svg" viewBox="0 0 576 512"><!--! Font Awesome Pro 6.2.0 by @fontawesome - https://fontawesome.com License - https://fontawesome.com/license (Commercial License) Copyright 2022 Fonticons, Inc. --><path d="M544 240c-7.6 0-14.3-4.9-17-12C490 132.1 397 64 288 64S86 132.1 49 228c-2.7 7.1-9.4 12-17 12c-17.7 0-32 14.3-32 32c0 17.2 13.6 31.3 30.7 32c17.7-.5 35-7 48.7-14.2c7-3.6 12.7-7.3 16.7-10c2-1.4 3.5-2.5 4.5-3.2c.5-.4 .9-.7 1.1-.8l.2-.2 0 0 20.7 .4 0 0 .2 .1c.2 .2 .5 .4 .9 .8c.9 .7 2.2 1.8 4.1 3.1c3.7 2.6 9.1 6.2 16.1 9.8c14 7.2 33.4 14.2 56.1 14.2s42.2-7 56.1-14.2c7-3.6 12.4-7.2 16.1-9.8c1.8-1.3 3.2-2.4 4.1-3.1c.4-.4 .7-.6 .9-.8l.1-.1c6.1-5.4 15.2-5.4 21.2 0l0 0 .1 .1c.2 .2 .5 .4 .9 .8c.9 .7 2.2 1.8 4.1 3.1c3.7 2.6 9.1 6.2 16.1 9.8c14 7.2 33.4 14.2 56.1 14.2s42.2-7 56.1-14.2c7-3.6 12.4-7.2 16.1-9.8c1.8-1.3 3.2-2.4 4.1-3.1c.4-.4 .7-.6 .9-.8l.1-.1c5.9-5.2 14.6-5.4 20.7-.4l0 0 0 0 0 0 0 0 0 0 0 0 .2 .2c.2 .2 .6 .5 1.1 .8c1 .7 2.5 1.9 4.5 3.2c4 2.7 9.7 6.4 16.7 10c13.7 7.2 31.1 13.7 48.7 14.2c17.1-.7 30.7-14.7 30.7-32c0-17.7-14.3-32-32-32zM122.6 276c-5.9-5.2-14.6-5.4-20.7-.4l0 0 20.7 .4s0 0 0 0zM81.4 404.2c8.7 26.1 33.2 43.8 60.7 43.8H433.9c27.5 0 52-17.6 60.7-43.8l24-71.9c-14.2-3.5-26.8-9-36.8-14.2c-7-3.7-12.9-7.3-17.5-10.3c-4.5 3.1-10.3 6.7-17.4 10.4C429.8 327 405.2 336 376 336s-53.8-9-70.8-17.8c-6.9-3.6-12.7-7.2-17.2-10.2c-4.5 3-10.2 6.6-17.2 10.2C253.8 327 229.2 336 200 336s-53.8-9-70.8-17.8c-7.1-3.6-12.9-7.3-17.4-10.4c-4.6 3-10.5 6.7-17.5 10.3c-10 5.2-22.7 10.7-36.8 14.2l24 71.9zM206.3 151.2l-16 32c-4 7.9-13.6 11.1-21.5 7.2s-11.1-13.6-7.2-21.5l16-32c4-7.9 13.6-11.1 21.5-7.2s11.1 13.6 7.2 21.5zm192-14.3l16 32c4 7.9 .7 17.5-7.2 21.5s-17.5 .7-21.5-7.2l-16-32c-4-7.9-.7-17.5 7.2-21.5s17.5-.7 21.5 7.2zM304 144v32c0 8.8-7.2 16-16 16s-16-7.2-16-16V144c0-8.8 7.2-16 16-16s16 7.2 16 16z"/></svg>