<svg xmlns="http://www.w3.org/2000/svg" viewBox="0 0 448 512"><!--! Font Awesome Pro 6.2.0 by @fontawesome - https://fontawesome.com License - https://fontawesome.com/license (Commercial License) Copyright 2022 Fonticons, Inc. --><path d="M352 224c53 0 96-43 96-96s-43-96-96-96s-96 43-96 96s43 96 96 96zm22.1 254.4c14.9 4.8 30.7-1.8 37.9-15c7.4-13.5 4.2-30.8-8.4-40.6l-246-208.3c-40.6-34.1-101.2-28.8-135.2 11.8S-6.3 327.5 34.3 361.6c9.2 7.7 19.9 13.8 32 17.7l307.8 99.1zM128 288c0 17.7-14.3 32-32 32s-32-14.3-32-32s14.3-32 32-32s32 14.3 32 32z"/></svg>