<svg xmlns="http://www.w3.org/2000/svg" viewBox="0 0 512 512"><!--! Font Awesome Pro 6.2.0 by @fontawesome - https://fontawesome.com License - https://fontawesome.com/license (Commercial License) Copyright 2022 Fonticons, Inc. --><path d="M18.7 18.7c25-25 65.5-25 90.5 0L126 35.4C164.1 12.9 208.5 0 256 0s91.9 12.9 130 35.4l16.7-16.7c25-25 65.5-25 90.5 0s25 65.5 0 90.5L476.6 126c22.5 38.1 35.4 82.6 35.4 130s-12.9 91.9-35.4 130l16.7 16.7c25 25 25 65.5 0 90.5s-65.5 25-90.5 0L386 476.6C347.9 499.1 303.5 512 256 512s-91.9-12.9-130-35.4l-16.7 16.7c-25 25-65.5 25-90.5 0s-25-65.5 0-90.5L35.4 386C12.9 347.9 0 303.5 0 256s12.9-91.9 35.4-130L18.7 109.3c-25-25-25-65.5 0-90.5zM64 80c8.8 0 16-7.2 16-16s-7.2-16-16-16s-16 7.2-16 16s7.2 16 16 16zM256 416c88.4 0 160-71.6 160-160s-71.6-160-160-160S96 167.6 96 256s71.6 160 160 160zM80 448c0-8.8-7.2-16-16-16s-16 7.2-16 16s7.2 16 16 16s16-7.2 16-16zM448 80c8.8 0 16-7.2 16-16s-7.2-16-16-16s-16 7.2-16 16s7.2 16 16 16zm16 368c0-8.8-7.2-16-16-16s-16 7.2-16 16s7.2 16 16 16s16-7.2 16-16z"/></svg>