<svg xmlns="http://www.w3.org/2000/svg" viewBox="0 0 640 512"><!--! Font Awesome Pro 6.2.0 by @fontawesome - https://fontawesome.com License - https://fontawesome.com/license (Commercial License) Copyright 2022 Fonticons, Inc. --><path d="M32 96c17.7 0 32 14.3 32 32V384c0 17.7-14.3 32-32 32s-32-14.3-32-32V128c0-17.7 14.3-32 32-32zm448 0c17.7 0 32 14.3 32 32v64.7c-5.3-.5-10.6-.7-16-.7c-16.6 0-32.7 2.3-48 6.6V128c0-17.7 14.3-32 32-32zM320 368c0 5.4 .2 10.7 .7 16H96V128H416v83.2c-57 29.1-96 88.4-96 156.8zm320 0c0 79.5-64.5 144-144 144s-144-64.5-144-144s64.5-144 144-144s144 64.5 144 144zm-76.7-43.3c-6.2-6.2-16.4-6.2-22.6 0L480 385.4l-28.7-28.7c-6.2-6.2-16.4-6.2-22.6 0s-6.2 16.4 0 22.6l40 40c6.2 6.2 16.4 6.2 22.6 0l72-72c6.2-6.2 6.2-16.4 0-22.6z"/></svg>