<svg xmlns="http://www.w3.org/2000/svg" viewBox="0 0 576 512"><!--! Font Awesome Pro 6.2.0 by @fontawesome - https://fontawesome.com License - https://fontawesome.com/license (Commercial License) Copyright 2022 Fonticons, Inc. --><path d="M512 128c-35.3 0-64-28.7-64-64s28.7-64 64-64s64 28.7 64 64s-28.7 64-64 64zM448 288c0 123.7-100.3 224-224 224S0 411.7 0 288S100.3 64 224 64s224 100.3 224 224zM236.2 112.4c-4-.3-8.1-.4-12.2-.4c-76.2 0-141.1 48.4-165.6 116.2C53.3 242.3 64.7 256 79.7 256h28.4c12.7 0 24.9 5.1 33.9 14.1L185 313c4.5 4.5 7 10.6 7 17V352c0 9.2 3.9 17.6 10.2 23.4l1.9 1.8c9.3 8.6 19.9 18.4 19.9 30.8v23c0 13.8 11.2 25 25 25c9.2 0 17.7-5.1 22-13.2l41.3-76.6c5-9.3 7.6-19.8 7.6-30.3V320c0-17.7-14.3-32-32-32H222.1c-9 0-17.7-3.6-24.1-10c-12.5-12.5-13.4-32.4-2.1-45.9l52.7-63.2c4.8-5.8 7.4-13 7.4-20.5V134.9c0-11.6-8.3-21.7-19.8-22.5z"/></svg>