<svg xmlns="http://www.w3.org/2000/svg" viewBox="0 0 576 512"><!--! Font Awesome Pro 6.2.0 by @fontawesome - https://fontawesome.com License - https://fontawesome.com/license (Commercial License) Copyright 2022 Fonticons, Inc. --><path d="M240 384l-8.3-66.4-110-11L113.8 370c-1 8-7.8 14-15.9 14H62.1c-8.1 0-14.9-6-15.9-14L36 287.8c-1.3 .2-2.6 .2-4 .2c-17.7 0-32-14.3-32-32s14.3-32 32-32c1.3 0 2.7 .1 4 .2L46.2 142c1-8 7.8-14 15.9-14H97.9c8.1 0 14.9 6 15.9 14l7.9 63.4 110-11L240 128H224c-17.7 0-32-14.3-32-32s14.3-32 32-32h24l6.2-50c1-8 7.8-14 15.9-14h35.8c8.1 0 14.9 6 15.9 14L328 64h40V48c0-8.8 7.2-16 16-16s16 7.2 16 16V80c8.8 0 16 7.2 16 16s-7.2 16-16 16v32c0 8.8-7.2 16-16 16s-16-7.2-16-16V128H336l8 64H482.3c34.2 0 93.7 29 93.7 64c0 36-59.5 64-93.7 64H344l-8 64h32V368c0-8.8 7.2-16 16-16s16 7.2 16 16v32c8.8 0 16 7.2 16 16s-7.2 16-16 16v32c0 8.8-7.2 16-16 16s-16-7.2-16-16V448H328l-6.2 50c-1 8-7.8 14-15.9 14H270.1c-8.1 0-14.9-6-15.9-14L248 448H224c-17.7 0-32-14.3-32-32s14.3-32 32-32h16z"/></svg>