<svg xmlns="http://www.w3.org/2000/svg" viewBox="0 0 512 512"><!--! Font Awesome Pro 6.2.0 by @fontawesome - https://fontawesome.com License - https://fontawesome.com/license (Commercial License) Copyright 2022 Fonticons, Inc. --><path d="M319.7 319.7C456.6 182.8 539.1 43.3 503.9 8.1C481.7-14 418.3 10.4 340.2 65.7C314.4 54.3 286 48 256 48C141.1 48 48 141.1 48 256c0 30 6.3 58.4 17.7 84.2C10.4 418.3-14 481.7 8.1 503.9c35.2 35.2 174.7-47.3 311.6-184.2zM256 464c114.9 0 208-93.1 208-208c0-16.1-1.8-31.8-5.3-46.9c-31.8 42.6-71.4 88.2-116.4 133.2s-90.6 84.6-133.2 116.4c15.1 3.5 30.7 5.3 46.9 5.3z"/></svg>