<svg xmlns="http://www.w3.org/2000/svg" viewBox="0 0 640 512"><!--! Font Awesome Pro 6.2.0 by @fontawesome - https://fontawesome.com License - https://fontawesome.com/license (Commercial License) Copyright 2022 Fonticons, Inc. --><path d="M38.8 5.1C28.4-3.1 13.3-1.2 5.1 9.2S-1.2 34.7 9.2 42.9l592 464c10.4 8.2 25.5 6.3 33.7-4.1s6.3-25.5-4.1-33.7L522.2 384H544c17.7 0 32-14.3 32-32V256c0-35.3-28.7-64-64-64H277.2L192 125.2V64H418.7L448 93.3V160h64V93.3c0-17-6.7-33.3-18.7-45.3L464 18.7C452 6.7 435.7 0 418.7 0H192c-35.3 0-64 28.7-64 64V75L38.8 5.1zM64 256v96c0 17.7 14.3 32 32 32h32v64c0 35.3 28.7 64 64 64H448c20.1 0 38.1-9.3 49.8-23.8l-51-40.2H192V384 368 352H324.9L122.2 192.3C89.6 195.2 64 222.6 64 256zm432 40c-13.3 0-24-10.7-24-24s10.7-24 24-24s24 10.7 24 24s-10.7 24-24 24z"/></svg>