<svg xmlns="http://www.w3.org/2000/svg" viewBox="0 0 640 512"><!--! Font Awesome Pro 6.2.0 by @fontawesome - https://fontawesome.com License - https://fontawesome.com/license (Commercial License) Copyright 2022 Fonticons, Inc. --><path d="M128 0H354.7c17 0 33.3 6.7 45.3 18.7L429.3 48c12 12 18.7 28.3 18.7 45.3V160H384V93.3L354.7 64H128v96H64V64C64 28.7 92.7 0 128 0zM64 192H352c-38.9 29.2-64 75.7-64 128c0 11 1.1 21.7 3.2 32H128v16 16 64H352c24.6 18.5 54.8 30.1 87.6 31.8C428.5 499 407.8 512 384 512H128c-35.3 0-64-28.7-64-64V384H32c-17.7 0-32-14.3-32-32V256c0-35.3 28.7-64 64-64zM448 400.2c44.2 0 80-35.8 80-80s-35.8-80-80-80s-80 35.8-80 80s35.8 80 80 80zm0 48c-70.7 0-128-57.3-128-128s57.3-128 128-128s128 57.3 128 128c0 26.7-8.2 51.4-22.1 71.9L633 471.2c9.4 9.4 9.4 24.6 0 33.9s-24.6 9.4-33.9 0L519.9 426c-20.5 14-45.3 22.1-71.9 22.1z"/></svg>