<svg xmlns="http://www.w3.org/2000/svg" viewBox="0 0 512 512"><!--! Font Awesome Pro 6.2.0 by @fontawesome - https://fontawesome.com License - https://fontawesome.com/license (Commercial License) Copyright 2022 Fonticons, Inc. --><path d="M320 0H464c26.5 0 48 21.5 48 48V192c0 8.8-7.2 16-16 16H444c-6.6 0-12 5.4-12 12v4c0 17.7-14.3 32-32 32s-32-14.3-32-32v-4c0-6.6-5.4-12-12-12l-36 0c-8.8 0-16-7.2-16-16V160c0-8.8 7.2-16 16-16h16c17.7 0 32-14.3 32-32s-14.3-32-32-32H320c-8.8 0-16-7.2-16-16V16c0-8.8 7.2-16 16-16zM0 256V112C0 85.5 21.5 64 48 64H192c8.8 0 16 7.2 16 16v36c0 6.6 5.4 12 12 12h4c17.7 0 32 14.3 32 32s-14.3 32-32 32h-4c-6.6 0-12 5.4-12 12v52c0 8.8-7.2 16-16 16H160c-8.8 0-16-7.2-16-16V240c0-17.7-14.3-32-32-32s-32 14.3-32 32v16c0 8.8-7.2 16-16 16H16c-8.8 0-16-7.2-16-16zM0 464V320c0-8.8 7.2-16 16-16H192c8.8 0 16 7.2 16 16v32c0 8.8-7.2 16-16 16H176c-17.7 0-32 14.3-32 32s14.3 32 32 32h16c8.8 0 16 7.2 16 16v48c0 8.8-7.2 16-16 16H48c-26.5 0-48-21.5-48-48zM240 320c0-8.8 7.2-16 16-16h32c8.8 0 16 7.2 16 16v16c0 17.7 14.3 32 32 32s32-14.3 32-32V320c0-8.8 7.2-16 16-16h48c8.8 0 16 7.2 16 16V464c0 26.5-21.5 48-48 48H256c-8.8 0-16-7.2-16-16V320z"/></svg>