<svg xmlns="http://www.w3.org/2000/svg" viewBox="0 0 512 512"><!--! Font Awesome Pro 6.2.0 by @fontawesome - https://fontawesome.com License - https://fontawesome.com/license (Commercial License) Copyright 2022 Fonticons, Inc. --><path d="M494.8 47c12.7-3.7 20-17.1 16.3-29.8S494-2.8 481.2 1L51.7 126.9c-9.4 2.7-17.9 7.3-25.1 13.2C10.5 151.7 0 170.6 0 192v4V304 448c0 35.3 28.7 64 64 64H448c35.3 0 64-28.7 64-64V192c0-35.3-28.7-64-64-64H218.5L494.8 47zM448 384c0 35.3-28.7 64-64 64s-64-28.7-64-64s28.7-64 64-64s64 28.7 64 64zM80 336H208c8.8 0 16 7.2 16 16s-7.2 16-16 16H80c-8.8 0-16-7.2-16-16s7.2-16 16-16zm16 64h96c8.8 0 16 7.2 16 16s-7.2 16-16 16H96c-8.8 0-16-7.2-16-16s7.2-16 16-16zM64 224c0-17.7 14.3-32 32-32H416c17.7 0 32 14.3 32 32s-14.3 32-32 32H96c-17.7 0-32-14.3-32-32z"/></svg>