<svg xmlns="http://www.w3.org/2000/svg" viewBox="0 0 448 512"><!--! Font Awesome Pro 6.2.0 by @fontawesome - https://fontawesome.com License - https://fontawesome.com/license (Commercial License) Copyright 2022 Fonticons, Inc. --><path d="M105.9 106.6c-6.5 10.5-9.9 22.6-9.9 34.9V144c0 35.3 28.7 64 64 64s64-28.7 64-64v-2.5c0-12.3-3.4-24.4-9.9-34.9L172.2 38.8C169.6 34.6 165 32 160 32s-9.6 2.6-12.2 6.8l-41.9 67.8zm-96 192C3.4 309.1 0 321.2 0 333.5V336c0 35.3 28.7 64 64 64s64-28.7 64-64v-2.5c0-12.3-3.4-24.4-9.9-34.9L76.2 230.8C73.6 226.6 69 224 64 224s-9.6 2.6-12.2 6.8L9.9 298.6zM307.8 134.8L210 294.2c-11.8 19.2-18 41.3-18 63.8c0 67.4 54.6 122 122 122h12c67.4 0 122-54.6 122-122c0-22.5-6.2-44.6-18-63.8L332.2 134.8c-2.6-4.2-7.2-6.8-12.2-6.8s-9.6 2.6-12.2 6.8z"/></svg>