<svg xmlns="http://www.w3.org/2000/svg" viewBox="0 0 448 512"><!--! Font Awesome Pro 6.2.0 by @fontawesome - https://fontawesome.com License - https://fontawesome.com/license (Commercial License) Copyright 2022 Fonticons, Inc. --><path d="M0 32C0 14.3 14.3 0 32 0H416c17.7 0 32 14.3 32 32s-14.3 32-32 32H384v48H64V64H32C14.3 64 0 49.7 0 32zM0 480c0-17.7 14.3-32 32-32H64V400H384v48h32c17.7 0 32 14.3 32 32s-14.3 32-32 32H32c-17.7 0-32-14.3-32-32zM64 176V144H384v32H64zm0 64V208H432c8.8 0 16 7.2 16 16s-7.2 16-16 16H64zm0 64V272H384v32H64zm0 64V336H384v32H64z"/></svg>