<svg xmlns="http://www.w3.org/2000/svg" viewBox="0 0 448 512"><!--! Font Awesome Pro 6.2.0 by @fontawesome - https://fontawesome.com License - https://fontawesome.com/license (Commercial License) Copyright 2022 Fonticons, Inc. --><path d="M0 416c0 17.7 14.3 32 32 32s32-14.3 32-32L64 96c0-17.7-14.3-32-32-32S0 78.3 0 96V416zM440.5 273.4c4.8-4.5 7.5-10.8 7.5-17.4s-2.7-12.9-7.5-17.4l-144-136c-7-6.6-17.2-8.4-26-4.6s-14.5 12.5-14.5 22v72H128c-17.7 0-32 14.3-32 32v64c0 17.7 14.3 32 32 32H256v72c0 9.6 5.7 18.2 14.5 22s19 2 26-4.6l144-136z"/></svg>