<svg xmlns="http://www.w3.org/2000/svg" viewBox="0 0 512 512"><!--! Font Awesome Pro 6.2.0 by @fontawesome - https://fontawesome.com License - https://fontawesome.com/license (Commercial License) Copyright 2022 Fonticons, Inc. --><path d="M256 0c70.7 0 128 57.3 128 128v32H128V128C128 57.3 185.3 0 256 0zm0 96c0-17.7-14.3-32-32-32s-32 14.3-32 32s14.3 32 32 32s32-14.3 32-32zm48 32c8.8 0 16-7.2 16-16s-7.2-16-16-16s-16 7.2-16 16s7.2 16 16 16zM48 240c0-26.5 21.5-48 48-48H416c26.5 0 48 21.5 48 48V398.3c0 8.7 2.4 17.2 6.8 24.7l38.9 64.8c3 4.9 3 11.1 .2 16.1s-8.2 8.1-13.9 8.1H400c-8.8 0-16-7.2-16-16V384l-45.3 45.3c-12 12-28.3 18.7-45.3 18.7h-75c-17 0-33.3-6.7-45.3-18.7L128 384V496c0 8.8-7.2 16-16 16H16c-5.8 0-11.1-3.1-13.9-8.1s-2.8-11.2 .2-16.1L41.2 423c4.5-7.5 6.8-16 6.8-24.7V240zm160 16c-8.8 0-16 7.2-16 16s7.2 16 16 16h96c8.8 0 16-7.2 16-16s-7.2-16-16-16H208zm0 64c-8.8 0-16 7.2-16 16s7.2 16 16 16h96c8.8 0 16-7.2 16-16s-7.2-16-16-16H208z"/></svg>