<svg xmlns="http://www.w3.org/2000/svg" viewBox="0 0 512 512"><!--! Font Awesome Pro 6.2.0 by @fontawesome - https://fontawesome.com License - https://fontawesome.com/license (Commercial License) Copyright 2022 Fonticons, Inc. --><path d="M117.8 128H207C286.9-3.7 409.5-8.5 483.9 5.3c11.6 2.2 20.7 11.2 22.8 22.8c13.8 74.4 9 197-122.7 276.9v89.3c0 25.4-13.4 49-35.3 61.9l-88.5 52.5c-7.4 4.4-16.6 4.5-24.1 .2s-12.1-12.2-12.1-20.9l0-114.7c0-22.6-9-44.3-25-60.3s-37.7-25-60.3-25H24c-8.6 0-16.6-4.6-20.9-12.1s-4.2-16.7 .2-24.1l52.5-88.5c13-21.9 36.5-35.3 61.9-35.3zM424 128c0-22.1-17.9-40-40-40s-40 17.9-40 40s17.9 40 40 40s40-17.9 40-40zM166.5 470C117 519.5 .5 511.5 .5 511.5s-8-116.5 41.5-166c34.4-34.4 90.1-34.4 124.5 0s34.4 90.1 0 124.5zm-46.7-36.4c11.4-11.4 11.4-30 0-41.4s-30-11.4-41.4 0c-16.5 16.5-13.8 55.2-13.8 55.2s38.7 2.7 55.2-13.8z"/></svg>