<svg xmlns="http://www.w3.org/2000/svg" viewBox="0 0 512 512"><!--! Font Awesome Pro 6.2.0 by @fontawesome - https://fontawesome.com License - https://fontawesome.com/license (Commercial License) Copyright 2022 Fonticons, Inc. --><path d="M432 117.4V80c0-17.7 14.3-32 32-32s32 14.3 32 32V192c0 17.7-14.3 32-32 32H437.8c-.5 0-1 0-1.5 0H352c-17.7 0-32-14.3-32-32s14.3-32 32-32h32c-29.2-38.9-75.7-64-128-64c-69.6 0-128.9 44.5-150.9 106.7c-5.9 16.7-24.2 25.4-40.8 19.5s-25.4-24.2-19.5-40.8C75.5 94.4 158.4 32 256 32c71.4 0 135 33.4 176 85.4zM280 152V264c0 13.3-10.7 24-24 24s-24-10.7-24-24V152c0-13.3 10.7-24 24-24s24 10.7 24 24zM256 384c-17.7 0-32-14.3-32-32s14.3-32 32-32s32 14.3 32 32s-14.3 32-32 32zM48 464c-17.7 0-32-14.3-32-32V320c0-17.7 14.3-32 32-32H160c17.7 0 32 14.3 32 32s-14.3 32-32 32H128c29.2 38.9 75.7 64 128 64c69.6 0 128.9-44.5 150.9-106.7c5.9-16.7 24.2-25.4 40.8-19.5s25.4 24.2 19.5 40.8C436.5 417.6 353.6 480 256 480c-71.4 0-135-33.4-176-85.4V432c0 17.7-14.3 32-32 32z"/></svg>