<svg xmlns="http://www.w3.org/2000/svg" viewBox="0 0 640 512"><!--! Font Awesome Pro 6.2.0 by @fontawesome - https://fontawesome.com License - https://fontawesome.com/license (Commercial License) Copyright 2022 Fonticons, Inc. --><path d="M224 16c0-8.8 7.2-16 16-16H368c8.8 0 16 7.2 16 16V32H512c53 0 96 43 96 96c0 17.7-14.3 32-32 32H384V416H254.4c1 5.2 1.6 10.5 1.6 16c0 44.2-35.8 80-80 80s-80-35.8-80-80c0-5.5 .6-10.8 1.6-16H96L18.7 338.7C6.7 326.7 0 310.5 0 293.5V96C0 60.7 28.7 32 64 32H224V16zM112 128c-8.8 0-16 7.2-16 16v64c0 8.8 7.2 16 16 16H240c8.8 0 16-7.2 16-16V144c0-8.8-7.2-16-16-16H112zm96 304c0-17.7-14.3-32-32-32s-32 14.3-32 32s14.3 32 32 32s32-14.3 32-32zm288 32c17.7 0 32-14.3 32-32c0-6.6-2-12.8-5.5-17.9C516.8 405.6 507 400 496 400c-11.8 0-22.2 6.4-27.7 16c-2.7 4.7-4.3 10.2-4.3 16c0 17.7 14.3 32 32 32zm-80-48V400 320 288 216 192h24 76.6c12.9 0 25.5 4.5 35.5 12.7l67.4 55.2c13 10.6 20.5 26.5 20.5 43.3V320v64c0 17.7-14.3 32-32 32H574.4c1 5.2 1.6 10.5 1.6 16c0 44.2-35.8 80-80 80s-80-35.8-80-80V416zM578.1 288l-56.5-46.2c-1.4-1.2-3.2-1.8-5.1-1.8H464v48H578.1z"/></svg>