<svg xmlns="http://www.w3.org/2000/svg" viewBox="0 0 640 512"><!--! Font Awesome Pro 6.2.0 by @fontawesome - https://fontawesome.com License - https://fontawesome.com/license (Commercial License) Copyright 2022 Fonticons, Inc. --><path d="M102.6 0c-2.5 0-5 .9-7 2.6c-23.3 20.8-43 44.4-57 67.1C24.9 92 16 116 16 134.5c0 14.6 2.8 28.6 7.9 41.5H79.5c-4.8-8-7.5-17.8-7.5-29c0-16.8 10.5-31.5 31.5-57.4c2.8 3.5 43.4 55.3 43.4 55.3l25.2-29.4c2.1 2.8 3.5 5.6 4.9 8.4c9.1 16.7 8.7 36.7-.2 52.1H232c5.1-12.9 8-26.9 8-41.5c0-14.1-6.7-35.7-16.9-55.3c-10.3-19.9-25-40.9-42.3-56.8c-3.9-3.6-10.1-3.6-14 0c-6.7 6.1-13 13.7-18.5 20.7c-12.1-14.5-25-28-38.8-40.4C107.5 .9 105.1 0 102.6 0zm68.8 338.1L218.9 256H232c13.3 0 24-10.7 24-24s-10.7-24-24-24H24c-13.3 0-24 10.7-24 24s10.7 24 24 24H16.9L4.4 309.4C1.5 321.8 0 334.4 0 347.1v3.1C0 439.6 72.4 512 161.8 512c49.4 0 96.1-22.6 126.8-61.4L534.4 140.1c6.1-7.7 15.3-12.1 25.1-12.1h64.2c9 0 16.3-7.3 16.3-16.3c0-4.9-2.2-9.5-5.9-12.6L609.8 78.8c-11.5-9.6-26-14.8-41-14.8H538.5c-17 0-33.3 6.7-45.3 18.7L449 127l-8-8c-9.4-9.4-24.6-9.4-33.9 0s-9.4 24.6 0 33.9l8 8L401 175l-8-8c-9.4-9.4-24.6-9.4-33.9 0s-9.4 24.6 0 33.9l8 8L353 223l-8-8c-9.4-9.4-24.6-9.4-33.9 0s-9.4 24.6 0 33.9l8 8L206.6 369.4c-4.2 4.2-10 6.6-16 6.6c-12.5 0-22.6-10.1-22.6-22.6v-2.6c0-4.4 1.2-8.8 3.4-12.6zM96 280c0-13.3 10.7-24 24-24s24 10.7 24 24s-10.7 24-24 24s-24-10.7-24-24zM88 392c-13.3 0-24-10.7-24-24s10.7-24 24-24s24 10.7 24 24s-10.7 24-24 24z"/></svg>