<svg xmlns="http://www.w3.org/2000/svg" viewBox="0 0 576 512"><!--! Font Awesome Pro 6.2.0 by @fontawesome - https://fontawesome.com License - https://fontawesome.com/license (Commercial License) Copyright 2022 Fonticons, Inc. --><path d="M441.4 0c-20.8 0-40.6 9.2-54 25.1L187.8 261.7c-4 4.8-4.9 11.4-2.3 17.1s8.3 9.3 14.5 9.3H332.6c14.1 0 27.6-6.2 36.7-17L494.4 122.7C505.8 109.2 512 92.2 512 74.6v-4C512 31.6 480.4 0 441.4 0zM164.7 324.7l-160 160c-4.6 4.6-5.9 11.5-3.5 17.4s8.3 9.9 14.8 9.9c18.1 0 84.1-8.4 145.9-33.1C222.5 454.6 288 410.9 288 336V320H272 176h-6.6l-4.7 4.7zM304 480H240c-8.8 0-16 7.2-16 16s7.2 16 16 16h64c8.8 0 16-7.2 16-16s-7.2-16-16-16zm128 0H368c-8.8 0-16 7.2-16 16s7.2 16 16 16h64c8.8 0 16-7.2 16-16s-7.2-16-16-16zm128 0H496c-8.8 0-16 7.2-16 16s7.2 16 16 16h64c8.8 0 16-7.2 16-16s-7.2-16-16-16z"/></svg>