<svg xmlns="http://www.w3.org/2000/svg" viewBox="0 0 576 512"><!--! Font Awesome Pro 6.2.0 by @fontawesome - https://fontawesome.com License - https://fontawesome.com/license (Commercial License) Copyright 2022 Fonticons, Inc. --><path d="M48 32c26.5 0 48 21.5 48 48v80H48 32c-17.7 0-32-14.3-32-32V80C0 53.5 21.5 32 48 32zm80 48c0-18-6-34.6-16-48H384c51.4 0 93.4 40.5 95.9 91.3c-.4 3.5-2 6.9-4.6 9.4l-21.7 21.7c-3.1 3.1-3.1 8.2 0 11.3l21.7 21.7c3 3 4.7 7.1 4.7 11.3V200v16 1.4c0 4.2-1.7 8.3-4.7 11.3l-21.7 21.7c-3.1 3.1-3.1 8.2 0 11.3l21.7 21.7c3 3 4.7 7.1 4.7 11.3V296v24H314.7c-32.4 0-58.7 26.3-58.7 58.7V384c0 35.3-28.7 64-64 64s-64-28.7-64-64V264v-1.4c0-4.2 1.7-8.3 4.7-11.3l21.7-21.7c3.1-3.1 3.1-8.2 0-11.3l-21.7-21.7c-3-3-4.7-7.1-4.7-11.3V184 80zM576 368c0 61.9-50.1 112-112 112H368 192c53 0 96-43 96-96v-5.3c0-14.7 11.9-26.7 26.7-26.7H344h1.4c4.2 0 8.3 1.7 11.3 4.7l21.7 21.7c3.1 3.1 8.2 3.1 11.3 0l21.7-21.7c3-3 7.1-4.7 11.3-4.7H424 560c8.8 0 16 7.2 16 16z"/></svg>