<svg xmlns="http://www.w3.org/2000/svg" viewBox="0 0 512 512"><!--! Font Awesome Pro 6.2.0 by @fontawesome - https://fontawesome.com License - https://fontawesome.com/license (Commercial License) Copyright 2022 Fonticons, Inc. --><path d="M222.1 17.9c18.7-18.7 49.1-18.7 67.9 0L336 64h64c26.5 0 48 21.5 48 48v64l45.6 45.6c18.7 18.7 18.7 49.1 0 67.9L448 335.1V400c0 26.5-21.5 48-48 48H335.1l-45.1 45.1c-18.7 18.7-49.1 18.7-67.9 0L176.9 448H112c-26.5 0-48-21.5-48-48V335.1L18.4 289.5c-18.7-18.7-18.7-49.1 0-67.9L64 176V112c0-26.5 21.5-48 48-48h64l46.1-46.1zM256 128c-13.3 0-24 10.7-24 24V264c0 13.3 10.7 24 24 24s24-10.7 24-24V152c0-13.3-10.7-24-24-24zm32 224c0-17.7-14.3-32-32-32s-32 14.3-32 32s14.3 32 32 32s32-14.3 32-32z"/></svg>