<svg xmlns="http://www.w3.org/2000/svg" viewBox="0 0 192 512"><!--! Font Awesome Pro 6.2.0 by @fontawesome - https://fontawesome.com License - https://fontawesome.com/license (Commercial License) Copyright 2022 Fonticons, Inc. --><path d="M96 192c-35.3 0-64-28.7-64-64s28.7-64 64-64s64 28.7 64 64s-28.7 64-64 64zm64 157v1.4c0 11.5-3.2 22.8-9.2 32.6L82.5 494.8C76 505.5 64.4 512 51.9 512C32.1 512 16 495.9 16 476.1V468c0-2.6 .2-5.3 .7-7.9l22.2-122C44.2 309.1 69.4 288 99 288c33.7 0 61 27.3 61 61z"/></svg>