<svg xmlns="http://www.w3.org/2000/svg" viewBox="0 0 640 512"><!--! Font Awesome Pro 6.2.0 by @fontawesome - https://fontawesome.com License - https://fontawesome.com/license (Commercial License) Copyright 2022 Fonticons, Inc. --><path d="M192 64V192H64V64H192zM64 0C28.7 0 0 28.7 0 64V192c0 35.3 28.7 64 64 64H192c35.3 0 64-28.7 64-64V64c0-35.3-28.7-64-64-64H64zM576 320V448H448V320H576zM448 256c-35.3 0-64 28.7-64 64V448c0 35.3 28.7 64 64 64H576c35.3 0 64-28.7 64-64V320c0-35.3-28.7-64-64-64H448zM160 288v64c0 35.3 28.7 64 64 64H352V320c0-53 43-96 96-96h32V160c0-35.3-28.7-64-64-64H288v96c0 53-43 96-96 96H160z"/></svg>