<svg xmlns="http://www.w3.org/2000/svg" viewBox="0 0 640 512"><!--! Font Awesome Pro 6.2.0 by @fontawesome - https://fontawesome.com License - https://fontawesome.com/license (Commercial License) Copyright 2022 Fonticons, Inc. --><path d="M0 96C0 60.7 28.7 32 64 32H384c35.3 0 64 28.7 64 64V416c0 35.3-28.7 64-64 64H64c-35.3 0-64-28.7-64-64V96zm88 0c-13.3 0-24 10.7-24 24V264c0 13.3 10.7 24 24 24s24-10.7 24-24V120c0-13.3-10.7-24-24-24zm96 0c-13.3 0-24 10.7-24 24V264c0 13.3 10.7 24 24 24s24-10.7 24-24V120c0-13.3-10.7-24-24-24zm413.3 12l-48 32c-11 7.4-25.9 4.4-33.3-6.7s-4.4-25.9 6.7-33.3l48-32c11-7.4 25.9-4.4 33.3 6.7s4.4 25.9-6.7 33.3zM536 232h80c13.3 0 24 10.7 24 24s-10.7 24-24 24H536c-13.3 0-24-10.7-24-24s10.7-24 24-24zm13.3 140l48 32c11 7.4 14 22.3 6.7 33.3s-22.3 14-33.3 6.7l-48-32c-11-7.4-14-22.3-6.7-33.3s22.3-14 33.3-6.7z"/></svg>