<svg xmlns="http://www.w3.org/2000/svg" viewBox="0 0 640 512"><!--! Font Awesome Pro 6.2.0 by @fontawesome - https://fontawesome.com License - https://fontawesome.com/license (Commercial License) Copyright 2022 Fonticons, Inc. --><path d="M64 32C28.7 32 0 60.7 0 96V416c0 35.3 28.7 64 64 64H225c-.6-4-1-8.1-1-12.3c0-13.2 3.4-26.2 9.9-37.7l150.4-265c13-22.9 37.3-37.1 63.7-37.1V96c0-35.3-28.7-64-64-64H64zm48 88V264c0 13.3-10.7 24-24 24s-24-10.7-24-24V120c0-13.3 10.7-24 24-24s24 10.7 24 24zm96 0V264c0 13.3-10.7 24-24 24s-24-10.7-24-24V120c0-13.3 10.7-24 24-24s24 10.7 24 24zm53.8 325.8c-3.8 6.7-5.8 14.2-5.8 21.9c0 24.5 19.8 44.3 44.3 44.3H595.7c24.5 0 44.3-19.8 44.3-44.3c0-7.7-2-15.2-5.8-21.9l-150.4-265C476.5 168 462.8 160 448 160s-28.5 8-35.8 20.9l-150.4 265zM464 272v88c0 8.8-7.2 16-16 16s-16-7.2-16-16V272c0-8.8 7.2-16 16-16s16 7.2 16 16zM448 456c-13.3 0-24-10.7-24-24s10.7-24 24-24s24 10.7 24 24s-10.7 24-24 24z"/></svg>