<svg xmlns="http://www.w3.org/2000/svg" viewBox="0 0 640 512"><!--! Font Awesome Pro 6.2.0 by @fontawesome - https://fontawesome.com License - https://fontawesome.com/license (Commercial License) Copyright 2022 Fonticons, Inc. --><path d="M64 32C28.7 32 0 60.7 0 96V416c0 35.3 28.7 64 64 64H337.6c-31-34.7-49.6-80.6-49.6-129.9c0-35.2 16.3-73.6 37.2-107.4c21.7-35.2 51.9-71.2 87.3-102.8c10-8.9 23-12.8 35.5-11.7V96c0-35.3-28.7-64-64-64H64zm48 88V264c0 13.3-10.7 24-24 24s-24-10.7-24-24V120c0-13.3 10.7-24 24-24s24 10.7 24 24zm96 0V264c0 13.3-10.7 24-24 24s-24-10.7-24-24V120c0-13.3 10.7-24 24-24s24 10.7 24 24zm245.5 43.6c-2.8-2.5-6.3-3.7-9.8-3.8c-3.6 0-7.2 1.2-10 3.7c-33.2 29.7-61.4 63.4-81.4 95.8C332.7 291.3 320 325.6 320 352c0 87.8 70.3 159.8 160 159.8c88.7 0 160-72 160-159.8c0-20.2-9.6-50.9-24.2-79c-14.8-28.5-35.7-58.5-60.4-81.1c-5.6-5.1-14.4-5.2-20 0c-9.6 8.8-18.6 19.6-26.5 29.5c-17.3-20.7-35.8-39.9-55.5-57.7zM530 432.9c-15 10-31 15-49 15c-45 0-81-29-81-78c0-24 15-45 45-82c4 5 62 79 62 79l36-42c3 4 5 8 7 12c18 33 10 75-20 96z"/></svg>