<svg xmlns="http://www.w3.org/2000/svg" viewBox="0 0 576 512"><!--! Font Awesome Pro 6.2.0 by @fontawesome - https://fontawesome.com License - https://fontawesome.com/license (Commercial License) Copyright 2022 Fonticons, Inc. --><path d="M458.8 160.4L352 64.3V64c0-12.6 7.4-24.1 19-29.2s25-3 34.4 5.4l160 144c6.7 6.1 10.6 14.7 10.6 23.8s-3.8 17.7-10.6 23.8l-160 144c-9.4 8.5-22.9 10.6-34.4 5.4s-19-16.6-19-29.2v-.3l106.8-96.1C472.3 243.4 480 226.1 480 208s-7.7-35.4-21.2-47.6zM224 64c0-12.6 7.4-24.1 19-29.2s25-3 34.4 5.4l160 144c6.7 6.1 10.6 14.7 10.6 23.8s-3.8 17.7-10.6 23.8l-160 144c-9.4 8.5-22.9 10.6-34.4 5.4s-19-16.6-19-29.2V288H192c-53 0-96 43-96 96c0 30.4 12.8 47.9 22.2 56.7c5.5 5.1 9.8 12 9.8 19.5c0 10.9-8.8 19.7-19.7 19.7c-2.8 0-5.6-.6-8.1-1.9C81.5 467.9 0 417.3 0 304c0-97.2 78.8-176 176-176h48V64z"/></svg>