<svg xmlns="http://www.w3.org/2000/svg" viewBox="0 0 512 512"><!--! Font Awesome Pro 6.2.0 by @fontawesome - https://fontawesome.com License - https://fontawesome.com/license (Commercial License) Copyright 2022 Fonticons, Inc. --><path d="M269.4 2.9C265.2 1 260.7 0 256 0s-9.2 1-13.4 2.9L54.3 82.8c-22 9.3-38.4 31-38.3 57.2c.5 99.2 41.3 280.7 213.6 363.2c16.7 8 36.1 8 52.8 0C454.7 420.7 495.5 239.2 496 140c.1-26.2-16.3-47.9-38.3-57.2L269.4 2.9zM256 66.8l32 13.6V128c0 17.7 14.3 32 32 32H431.3c-1.2 19.6-4.2 41.4-9.4 64H320c-17.7 0-32 14.3-32 32V426.8c-10 6.5-20.7 12.5-32 18c-11.3-5.5-22-11.5-32-18V256c0-17.7-14.3-32-32-32H90.1c-5.2-22.6-8.1-44.4-9.4-64H192c17.7 0 32-14.3 32-32V80.3l32-13.6z"/></svg>