<svg xmlns="http://www.w3.org/2000/svg" viewBox="0 0 512 512"><!--! Font Awesome Pro 6.2.0 by @fontawesome - https://fontawesome.com License - https://fontawesome.com/license (Commercial License) Copyright 2022 Fonticons, Inc. --><path d="M438.6 73.4c-12.5-12.5-32.8-12.5-45.3 0c-8.5 8.5-11.3 20.7-8.1 31.7c3.2 10.9 5.6 24.2 4.5 38c-1.1 14-5.9 30.3-19.1 43.4L346.2 211 301 165.8l24.4-24.4c.2-.3 .5-1.3 .6-3.2c.3-3.8-.3-9.1-2.1-15.2c-9.5-32.5-1.5-69.2 24.3-94.9c37.5-37.5 98.3-37.5 135.8 0c31.4 31.4 36.5 79.2 15.3 115.9c-8.8 15.3-28.4 20.5-43.7 11.7s-20.5-28.4-11.7-43.7c7.1-12.2 5.3-28.2-5.1-38.6zM61.8 405L107 450.2 54.6 502.6c-12.5 12.5-32.8 12.5-45.3 0s-12.5-32.8 0-45.3L61.8 405zM325.3 141.5s0 0 .1-.1c0 .1-.1 .1-.1 .1zM233 143L369 279c9.4 9.4 9.4 24.6 0 33.9l-48 48c-9.4 9.4-24.6 9.4-33.9 0L151 225c-9.4-9.4-9.4-24.6 0-33.9l48-48c9.4-9.4 24.6-9.4 33.9 0zM87 255c9.4-9.4 24.6-9.4 33.9 0L257 391c9.4 9.4 9.4 24.6 0 33.9l-48 48c-9.4 9.4-24.6 9.4-33.9 0L39 337c-9.4-9.4-9.4-24.6 0-33.9l48-48z"/></svg>