<svg xmlns="http://www.w3.org/2000/svg" viewBox="0 0 512 512"><!--! Font Awesome Pro 6.2.0 by @fontawesome - https://fontawesome.com License - https://fontawesome.com/license (Commercial License) Copyright 2022 Fonticons, Inc. --><path d="M406.6 9.4c-12.5-12.5-32.8-12.5-45.3 0L317.3 53.5C298.5 72.2 288 97.6 288 124.1c0 15.9 3.7 30.9 10.3 44.3L200 266.7l-49.4-49.4c-6-6-14.1-9.4-22.6-9.4s-16.6 3.4-22.6 9.4L44 278.8c-15.1 15.1-28.7 34.6-34.6 58.8C4.8 356.5 0 383.9 0 416c0 14 2.4 30.3 4.5 41.9c1.1 6 2.1 11.3 3 15.1c.4 1.9 .7 3.4 1 4.5l.3 1.3 .1 .4 0 .1 0 0 0 0 0 0s0 0 31.1-7.3L8.9 479.3c2.5 10.8 10.5 19.5 21 23L40 472c-10.1 30.4-10.1 30.4-10.1 30.4l0 0 0 0 .1 0 .1 0 .4 .1c.3 .1 .7 .2 1.2 .4c1 .3 2.4 .7 4.1 1.2c3.4 .9 8.1 2.1 13.9 3.3C61.3 509.7 77.4 512 96 512c32.1 0 59.5-4.8 78.4-9.3c24.2-5.9 43.7-19.5 58.8-34.6l61.4-61.4c12.5-12.5 12.5-32.8 0-45.3L245.3 312l98.3-98.3c13.4 6.6 28.4 10.3 44.3 10.3c26.5 0 51.9-10.5 70.6-29.3l44.1-44.1c12.5-12.5 12.5-32.8 0-45.3l-96-96zM362.5 98.7L384 77.3 434.7 128l-21.5 21.5c-6.7 6.7-15.9 10.5-25.4 10.5c-19.8 0-35.9-16.1-35.9-35.9c0-9.5 3.8-18.6 10.5-25.4z"/></svg>