<svg xmlns="http://www.w3.org/2000/svg" viewBox="0 0 640 512"><!--! Font Awesome Pro 6.2.0 by @fontawesome - https://fontawesome.com License - https://fontawesome.com/license (Commercial License) Copyright 2022 Fonticons, Inc. --><path d="M38.8 5.1C28.4-3.1 13.3-1.2 5.1 9.2S-1.2 34.7 9.2 42.9l592 464c10.4 8.2 25.5 6.3 33.7-4.1s6.3-25.5-4.1-33.7L608 451.2V48c0-26.5-21.5-48-48-48s-48 21.5-48 48V376l-64-50.2V176c0-26.5-21.5-48-48-48s-48 21.5-48 48v74.6L38.8 5.1zM288 322.9l-74.7-58.8C200.5 272.7 192 287.4 192 304V464c0 26.5 21.5 48 48 48s48-21.5 48-48V322.9zM448 464V449l-96-75.6V464c0 26.5 21.5 48 48 48s48-21.5 48-48zM80 384c-26.5 0-48 21.5-48 48v32c0 26.5 21.5 48 48 48s48-21.5 48-48V432c0-26.5-21.5-48-48-48z"/></svg>