<svg xmlns="http://www.w3.org/2000/svg" viewBox="0 0 640 512"><!--! Font Awesome Pro 6.2.0 by @fontawesome - https://fontawesome.com License - https://fontawesome.com/license (Commercial License) Copyright 2022 Fonticons, Inc. --><path d="M38.8 5.1C28.4-3.1 13.3-1.2 5.1 9.2S-1.2 34.7 9.2 42.9l592 464c10.4 8.2 25.5 6.3 33.7-4.1s6.3-25.5-4.1-33.7L608 451.2V32c0-17.7-14.3-32-32-32s-32 14.3-32 32V401.1l-64-50.2V128c0-17.7-14.3-32-32-32s-32 14.3-32 32V300.8l-64-50.2V224c0-17.7-14.3-32-32-32c-10.7 0-20.1 5.2-25.9 13.2L38.8 5.1zM480 480v-5.8l-64-50.4V480c0 17.7 14.3 32 32 32s32-14.3 32-32zM352 373.3l-64-50.4V480c0 17.7 14.3 32 32 32s32-14.3 32-32V373.3zM192 288c-17.7 0-32 14.3-32 32V480c0 17.7 14.3 32 32 32s32-14.3 32-32V320c0-17.7-14.3-32-32-32zM96 416c0-17.7-14.3-32-32-32s-32 14.3-32 32v64c0 17.7 14.3 32 32 32s32-14.3 32-32V416z"/></svg>