<svg xmlns="http://www.w3.org/2000/svg" viewBox="0 0 640 512"><!--! Font Awesome Pro 6.2.0 by @fontawesome - https://fontawesome.com License - https://fontawesome.com/license (Commercial License) Copyright 2022 Fonticons, Inc. --><path d="M38.8 5.1C28.4-3.1 13.3-1.2 5.1 9.2S-1.2 34.7 9.2 42.9l592 464c10.4 8.2 25.5 6.3 33.7-4.1s6.3-25.5-4.1-33.7l-70.1-54.9C590.6 368.8 608 314.4 608 256c0-68.1-23.7-130.7-63.2-180c-11.1-13.8-31.2-16-45-5s-16 31.2-5 45c30.7 38.4 49.1 87 49.1 140c0 43.6-12.4 84.1-33.9 118.5l-38.1-29.8c15.2-26 23.9-56.4 23.9-88.7c0-45.1-17-86.2-44.8-117.3c-11.8-13.2-32-14.3-45.2-2.5s-14.3 32-2.5 45.2c17.8 19.8 28.5 46 28.5 74.7c0 17.4-4 33.9-11.1 48.6l-46.3-36.3c.9-4 1.4-8.1 1.4-12.3c0-30.9-25.1-56-56-56c-9 0-17.5 2.1-25 5.9L244.1 166c2-10.7-1.4-22.1-10.1-29.9c-9.8-8.8-23.5-10.4-34.7-5.2l-47.2-37c-.6-8.6-4.6-17-11.9-22.9c-7.5-6-16.8-8.1-25.6-6.5L38.8 5.1zm69.8 176.5L56.2 140.3C40.6 175.7 32 214.9 32 256c0 68.1 23.7 130.7 63.2 180c11.1 13.8 31.2 16 45 5s16-31.2 5-45C114.4 357.6 96 309 96 256c0-26.1 4.5-51.1 12.6-74.4zm99.4 78.3l-58.9-46.4c-3.4 13.6-5.2 27.8-5.2 42.5c0 45.1 17 86.2 44.8 117.3c11.8 13.2 32 14.3 45.2 2.5s14.3-32 2.5-45.2c-16.9-18.9-27.5-43.6-28.4-70.7z"/></svg>