<svg xmlns="http://www.w3.org/2000/svg" viewBox="0 0 640 512"><!--! Font Awesome Pro 6.2.0 by @fontawesome - https://fontawesome.com License - https://fontawesome.com/license (Commercial License) Copyright 2022 Fonticons, Inc. --><path d="M96 128c0-17.7 14.3-32 32-32s32 14.3 32 32v7.8c0 27.7-2.4 55.3-7.1 82.5L68.4 243.7C27.8 255.8 0 293.2 0 335.6v71.9c0 40 32.5 72.5 72.5 72.5c26 0 50-13.9 62.9-36.5l13.9-24.3c26.8-47 46.5-97.7 58.4-150.5l94.4-28.3-12.5 37.5c-3.3 9.8-1.6 20.5 4.4 28.8s15.7 13.3 26 13.3h72.6c5.6-9.7 13.7-17.8 23.4-23.4V272c0-5.4 .4-10.8 1.1-16H364.4l18-53.9c3.8-11.3 .9-23.8-7.4-32.4s-20.7-11.8-32.2-8.4L220.4 198.1c2.4-20.7 3.6-41.4 3.6-62.3V128c0-53-43-96-96-96s-96 43-96 96v32c0 17.7 14.3 32 32 32s32-14.3 32-32V128zM209.9 368c-6.7 16.3-14.2 32.3-22.3 48H384V368H209.9zM86.8 305l49-14.7c-10.4 33.8-24.5 66.4-42.1 97.2L79.9 411.7c-1.5 2.6-4.3 4.3-7.4 4.3c-4.7 0-8.5-3.8-8.5-8.5V335.6c0-14.1 9.3-26.6 22.8-30.7zM528 240c17.7 0 32 14.3 32 32v48H496V272c0-17.7 14.3-32 32-32zm-80 32v48c-17.7 0-32 14.3-32 32V480c0 17.7 14.3 32 32 32H608c17.7 0 32-14.3 32-32V352c0-17.7-14.3-32-32-32V272c0-44.2-35.8-80-80-80s-80 35.8-80 80z"/></svg>