<svg xmlns="http://www.w3.org/2000/svg" viewBox="0 0 448 512"><!--! Font Awesome Pro 6.2.0 by @fontawesome - https://fontawesome.com License - https://fontawesome.com/license (Commercial License) Copyright 2022 Fonticons, Inc. --><path d="M160 0C124.7 0 96 28.7 96 64V352c0 35.3 28.7 64 64 64H384c35.3 0 64-28.7 64-64V141.3c0-17-6.7-33.3-18.7-45.3L352 18.7C340 6.7 323.7 0 306.7 0H160zm48 144v48H160V176c0-17.7 14.3-32 32-32h16zm-48 80h64 96 64v48H320 224 160V224zm224-32H336V144h16c17.7 0 32 14.3 32 32v16zm-80-48v48H240V144h64zm80 160v16c0 17.7-14.3 32-32 32H336V304h48zm-80 48H240V304h64v48zm-96 0H192c-17.7 0-32-14.3-32-32V304h48v48zM48 120c0-13.3-10.7-24-24-24S0 106.7 0 120V376c0 75.1 60.9 136 136 136H360c13.3 0 24-10.7 24-24s-10.7-24-24-24H136c-48.6 0-88-39.4-88-88V120z"/></svg>