<svg xmlns="http://www.w3.org/2000/svg" viewBox="0 0 512 512"><!--! Font Awesome Pro 6.2.0 by @fontawesome - https://fontawesome.com License - https://fontawesome.com/license (Commercial License) Copyright 2022 Fonticons, Inc. --><path d="M288 32c0-17.7-14.3-32-32-32s-32 14.3-32 32V64H96C78.3 64 64 78.3 64 96s14.3 32 32 32H224v32H32c-17.7 0-32 14.3-32 32s14.3 32 32 32H224v32H96c-17.7 0-32 14.3-32 32s14.3 32 32 32H224v32H108.5C83.9 352 64 371.9 64 396.5c0 8.1 2.2 16 6.3 22.9l46.2 77c5.8 9.6 16.2 15.5 27.4 15.5H368c11.2 0 21.7-5.9 27.4-15.5l46.2-77c4.2-6.9 6.3-14.8 6.3-22.9c0-24.6-19.9-44.5-44.5-44.5H288V320H416c17.7 0 32-14.3 32-32s-14.3-32-32-32H288V224H480c17.7 0 32-14.3 32-32s-14.3-32-32-32H288V128H416c17.7 0 32-14.3 32-32s-14.3-32-32-32H288V32zM224 440c0 13.3-10.7 24-24 24s-24-10.7-24-24s10.7-24 24-24s24 10.7 24 24zm112 0c0 13.3-10.7 24-24 24s-24-10.7-24-24s10.7-24 24-24s24 10.7 24 24z"/></svg>