<svg xmlns="http://www.w3.org/2000/svg" viewBox="0 0 512 512"><!--! Font Awesome Pro 6.2.0 by @fontawesome - https://fontawesome.com License - https://fontawesome.com/license (Commercial License) Copyright 2022 Fonticons, Inc. --><path d="M96 0c17.7 0 32 14.3 32 32V86.7c28.3 12.3 48 40.5 48 73.3s-19.7 61-48 73.3V480c0 17.7-14.3 32-32 32s-32-14.3-32-32V233.3C35.7 221 16 192.8 16 160s19.7-61 48-73.3V32C64 14.3 78.3 0 96 0zm0 192c17.7 0 32-14.3 32-32s-14.3-32-32-32s-32 14.3-32 32s14.3 32 32 32zM256 384c17.7 0 32-14.3 32-32s-14.3-32-32-32s-32 14.3-32 32s14.3 32 32 32zm80-32c0 32.8-19.7 61-48 73.3V480c0 17.7-14.3 32-32 32s-32-14.3-32-32V425.3c-28.3-12.3-48-40.5-48-73.3s19.7-61 48-73.3V32c0-17.7 14.3-32 32-32s32 14.3 32 32V278.7c28.3 12.3 48 40.5 48 73.3zM448 192c0-17.7-14.3-32-32-32s-32 14.3-32 32s14.3 32 32 32s32-14.3 32-32zm0 73.3V480c0 17.7-14.3 32-32 32s-32-14.3-32-32V265.3c-28.3-12.3-48-40.5-48-73.3s19.7-61 48-73.3V32c0-17.7 14.3-32 32-32s32 14.3 32 32v86.7c28.3 12.3 48 40.5 48 73.3s-19.7 61-48 73.3z"/></svg>