<svg xmlns="http://www.w3.org/2000/svg" viewBox="0 0 512 512"><!--! Font Awesome Pro 6.2.0 by @fontawesome - https://fontawesome.com License - https://fontawesome.com/license (Commercial License) Copyright 2022 Fonticons, Inc. --><path d="M96 320c17.7 0 32 14.3 32 32s-14.3 32-32 32s-32-14.3-32-32s14.3-32 32-32zm90.5 0c-13.2-37.3-48.7-64-90.5-64c-53 0-96 43-96 96s43 96 96 96c41.8 0 77.4-26.7 90.5-64L480 384c17.7 0 32-14.3 32-32s-14.3-32-32-32l-293.5 0zM384 160c0-17.7 14.3-32 32-32s32 14.3 32 32s-14.3 32-32 32s-32-14.3-32-32zm-58.5-32L32 128c-17.7 0-32 14.3-32 32s14.3 32 32 32l293.5 0c13.2 37.3 48.7 64 90.5 64c53 0 96-43 96-96s-43-96-96-96c-41.8 0-77.4 26.7-90.5 64z"/></svg>