<svg xmlns="http://www.w3.org/2000/svg" viewBox="0 0 448 512"><!--! Font Awesome Pro 6.2.0 by @fontawesome - https://fontawesome.com License - https://fontawesome.com/license (Commercial License) Copyright 2022 Fonticons, Inc. --><path d="M64 64C64 28.7 92.7 0 128 0H320c35.3 0 64 28.7 64 64v96H224 64V64zM330.2 192H416c17.7 0 32 14.3 32 32s-14.3 32-32 32H390.3c16.3 28.2 25.7 61 25.7 96c0 59.8-27.4 113.3-70.3 148.5c-9.7 8-22.3 11.5-34.9 11.5H137.2c-12.6 0-25.1-3.5-34.9-11.5C59.4 465.3 32 411.8 32 352c0-35 9.3-67.8 25.7-96H32c-17.7 0-32-14.3-32-32s14.3-32 32-32h85.8H330.2zM152 336c13.3 0 24-10.7 24-24s-10.7-24-24-24s-24 10.7-24 24s10.7 24 24 24zm168-24c0-13.3-10.7-24-24-24s-24 10.7-24 24s10.7 24 24 24s24-10.7 24-24zM219.3 445.2c.9 1.7 2.7 2.8 4.7 2.8s3.8-1.1 4.7-2.8l23.8-46.3c2.3-4.5 3.5-9.6 3.5-14.7c0-17.7-14.3-32.2-32-32.2s-32 14.5-32 32.2c0 5.1 1.2 10.2 3.5 14.7l23.8 46.3z"/></svg>