<svg xmlns="http://www.w3.org/2000/svg" viewBox="0 0 640 512"><!--! Font Awesome Pro 6.2.0 by @fontawesome - https://fontawesome.com License - https://fontawesome.com/license (Commercial License) Copyright 2022 Fonticons, Inc. --><path d="M64 0H280.4C265.2 17 256 39.4 256 64V257.6c-20.3-20.7-48.7-33.6-80-33.6c-61.9 0-112 50.1-112 112s50.1 112 112 112c31.3 0 59.7-12.9 80-33.6V448c0 24.6 9.2 47 24.4 64H64c-35.3 0-64-28.7-64-64V64C0 28.7 28.7 0 64 0zM320 503.4c-19.1-11.1-32-31.7-32-55.4V336 64c0-23.7 12.9-44.4 32-55.4C329.4 3.1 340.3 0 352 0H576c35.3 0 64 28.7 64 64V448c0 35.3-28.7 64-64 64H352c-11.7 0-22.6-3.1-32-8.6zM352 336c0 61.9 50.1 112 112 112s112-50.1 112-112s-50.1-112-112-112s-112 50.1-112 112zM176 400c-35.3 0-64-28.7-64-64s28.7-64 64-64s64 28.7 64 64s-28.7 64-64 64zm0-240c26.5 0 48-21.5 48-48s-21.5-48-48-48s-48 21.5-48 48s21.5 48 48 48zM528 336c0 35.3-28.7 64-64 64s-64-28.7-64-64s28.7-64 64-64s64 28.7 64 64zM512 112c0-26.5-21.5-48-48-48s-48 21.5-48 48s21.5 48 48 48s48-21.5 48-48z"/></svg>