<svg xmlns="http://www.w3.org/2000/svg" viewBox="0 0 576 512"><!--! Font Awesome Pro 6.2.0 by @fontawesome - https://fontawesome.com License - https://fontawesome.com/license (Commercial License) Copyright 2022 Fonticons, Inc. --><path d="M176.6 1.6c12.4 4.8 18.5 18.6 13.8 31l-32.5 84.6c-1.1 3-.4 6.3 1.8 8.5L208 174.1V160c0-31.8 18.6-59.3 45.5-72.2c9.1-4.4 18.5 3.3 18.5 13.4V112c0 8.8 7.2 16 16 16s16-7.2 16-16V101.2c0-10.1 9.4-17.7 18.5-13.4C349.4 100.7 368 128.2 368 160v14.1l48.3-48.3c2.2-2.2 2.9-5.6 1.8-8.5L385.6 32.6c-4.8-12.4 1.4-26.3 13.8-31s26.3 1.4 31 13.8L462.9 100c7.9 20.7 3 44.1-12.7 59.7l-57.4 57.4 80.4-26.8c2.4-.8 4.3-2.7 5.1-5.1l18.9-56.8c4.2-12.6 17.8-19.4 30.4-15.2s19.4 17.8 15.2 30.4l-18.9 56.8c-5.6 16.7-18.7 29.8-35.4 35.4L427.9 256l60.5 20.2c16.7 5.6 29.8 18.7 35.4 35.4l18.9 56.8c4.2 12.6-2.6 26.2-15.2 30.4s-26.2-2.6-30.4-15.2l-18.9-56.8c-.8-2.4-2.7-4.3-5.1-5.1l-80.4-26.8 57.4 57.4c15.6 15.6 20.6 39 12.7 59.7l-32.5 84.6c-4.8 12.4-18.6 18.5-31 13.8s-18.5-18.6-13.8-31l32.5-84.6c1.1-3 .4-6.3-1.8-8.5L384 353.9c-1 52.1-43.6 94.1-96 94.1s-95-41.9-96-94.1l-32.3 32.3c-2.2 2.2-2.9 5.6-1.8 8.5l32.5 84.6c4.8 12.4-1.4 26.3-13.8 31s-26.3-1.4-31-13.8L113.1 412c-7.9-20.7-3-44.1 12.7-59.7l57.4-57.4-80.4 26.8c-2.4 .8-4.3 2.7-5.1 5.1L78.8 383.6C74.6 396.2 61 403 48.4 398.8S29 381 33.2 368.4l18.9-56.8c5.6-16.7 18.7-29.8 35.4-35.4L148.1 256 87.6 235.8c-16.7-5.6-29.8-18.7-35.4-35.4L33.2 143.6C29 131 35.8 117.4 48.4 113.2s26.2 2.6 30.4 15.2l18.9 56.8c.8 2.4 2.7 4.3 5.1 5.1l80.4 26.8-57.4-57.4c-15.6-15.6-20.6-39-12.7-59.7l32.5-84.6c4.8-12.4 18.6-18.5 31-13.8zm73.8 305.6L272 336l-21.6 28.8c-1.6 2.1-2.4 4.6-2.4 7.2c0 6.6 5.4 12 12 12h56c6.6 0 12-5.4 12-12c0-2.6-.8-5.1-2.4-7.2L304 336l21.6-28.8c1.6-2.1 2.4-4.6 2.4-7.2c0-6.6-5.4-12-12-12H260c-6.6 0-12 5.4-12 12c0 2.6 .8 5.1 2.4 7.2z"/></svg>