<svg xmlns="http://www.w3.org/2000/svg" viewBox="0 0 512 512"><!--! Font Awesome Pro 6.2.0 by @fontawesome - https://fontawesome.com License - https://fontawesome.com/license (Commercial License) Copyright 2022 Fonticons, Inc. --><path d="M24 48C10.7 48 0 37.3 0 24S10.7 0 24 0S48 10.7 48 24s-10.7 24-24 24zm24 80c0 13.3-10.7 24-24 24s-24-10.7-24-24s10.7-24 24-24s24 10.7 24 24zm0 104c0 13.3-10.7 24-24 24s-24-10.7-24-24s10.7-24 24-24s24 10.7 24 24zM112 72c0 13.3-10.7 24-24 24S64 85.3 64 72s10.7-24 24-24s24 10.7 24 24zM88 208c-13.3 0-24-10.7-24-24s10.7-24 24-24s24 10.7 24 24s-10.7 24-24 24zm88-80c0 13.3-10.7 24-24 24s-24-10.7-24-24s10.7-24 24-24s24 10.7 24 24zM488 256c-13.3 0-24-10.7-24-24s10.7-24 24-24s24 10.7 24 24s-10.7 24-24 24zM464 128c0-13.3 10.7-24 24-24s24 10.7 24 24s-10.7 24-24 24s-24-10.7-24-24zm24-80c-13.3 0-24-10.7-24-24s10.7-24 24-24s24 10.7 24 24s-10.7 24-24 24zM400 72c0-13.3 10.7-24 24-24s24 10.7 24 24s-10.7 24-24 24s-24-10.7-24-24zm24 136c-13.3 0-24-10.7-24-24s10.7-24 24-24s24 10.7 24 24s-10.7 24-24 24zm-88-80c0-13.3 10.7-24 24-24s24 10.7 24 24s-10.7 24-24 24s-24-10.7-24-24zM256 64c17.7 0 32 14.3 32 32V256H388.2c15.3 0 27.8 12.4 27.8 27.8c0 7.8-3.3 15.2-9 20.5L320 384v96c0 17.7-14.3 32-32 32H224c-17.7 0-32-14.3-32-32V384l-87-79.7c-5.7-5.3-9-12.7-9-20.5c0-15.3 12.4-27.8 27.8-27.8H224V96c0-17.7 14.3-32 32-32z"/></svg>