<svg xmlns="http://www.w3.org/2000/svg" viewBox="0 0 448 512"><!--! Font Awesome Pro 6.2.0 by @fontawesome - https://fontawesome.com License - https://fontawesome.com/license (Commercial License) Copyright 2022 Fonticons, Inc. --><path d="M64 32C28.7 32 0 60.7 0 96V416c0 35.3 28.7 64 64 64H384c35.3 0 64-28.7 64-64V96c0-35.3-28.7-64-64-64H64zM99.9 281c-29.4-29.8-29.4-78.2 0-108s77-29.8 106.4 0L224 191l17.7-18c29.4-29.8 77-29.8 106.4 0s29.4 78.2 0 108L246.5 384.2c-6.2 6.3-14.3 9.4-22.5 9.4s-16.3-3.1-22.5-9.4L99.9 281z"/></svg>