<svg xmlns="http://www.w3.org/2000/svg" viewBox="0 0 448 512"><!--! Font Awesome Pro 6.2.0 by @fontawesome - https://fontawesome.com License - https://fontawesome.com/license (Commercial License) Copyright 2022 Fonticons, Inc. --><path d="M64 32C28.7 32 0 60.7 0 96V416c0 35.3 28.7 64 64 64H384c35.3 0 64-28.7 64-64V96c0-35.3-28.7-64-64-64H64zm217.6 99.2c5.9 4.4 8 12.3 5.1 19.1L248.3 240H312c6.8 0 12.8 4.2 15.1 10.6s.3 13.5-4.9 17.8l-136 112c-5.7 4.7-13.9 4.9-19.8 .4s-8-12.3-5.1-19.1L199.7 272H136c-6.8 0-12.8-4.2-15.1-10.6s-.3-13.5 4.9-17.8l136-112c5.7-4.7 13.9-4.9 19.8-.4z"/></svg>