<svg xmlns="http://www.w3.org/2000/svg" viewBox="0 0 448 512"><!--! Font Awesome Pro 6.2.0 by @fontawesome - https://fontawesome.com License - https://fontawesome.com/license (Commercial License) Copyright 2022 Fonticons, Inc. --><path d="M64 32C28.7 32 0 60.7 0 96V416c0 35.3 28.7 64 64 64H384c35.3 0 64-28.7 64-64V96c0-35.3-28.7-64-64-64H64zm88 96H296c8.9 0 17.1 5 21.3 12.9s3.6 17.5-1.5 24.8L197.8 336H296c13.3 0 24 10.7 24 24s-10.7 24-24 24H152c-8.9 0-17.1-5-21.3-12.9s-3.6-17.5 1.5-24.8L250.2 176H152c-13.3 0-24-10.7-24-24s10.7-24 24-24z"/></svg>