<svg xmlns="http://www.w3.org/2000/svg" viewBox="0 0 448 512"><!--! Font Awesome Pro 6.2.0 by @fontawesome - https://fontawesome.com License - https://fontawesome.com/license (Commercial License) Copyright 2022 Fonticons, Inc. --><path d="M96 32h32V96H96c-17.7 0-32 14.3-32 32v32H0V128C0 75 43 32 96 32zM0 192H64V320H0V192zm384 0h64V320H384V192zm64-32H384V128c0-17.7-14.3-32-32-32H320V32h32c53 0 96 43 96 96v32zm0 192v32c0 53-43 96-96 96H320V416h32c17.7 0 32-14.3 32-32V352h64zM64 352v32c0 17.7 14.3 32 32 32h32v64H96c-53 0-96-43-96-96V352H64zm96 128V416H288v64H160zm0-384V32H288V96H160z"/></svg>