<svg xmlns="http://www.w3.org/2000/svg" viewBox="0 0 448 512"><!--! Font Awesome Pro 6.2.0 by @fontawesome - https://fontawesome.com License - https://fontawesome.com/license (Commercial License) Copyright 2022 Fonticons, Inc. --><path d="M64 32C28.7 32 0 60.7 0 96V416c0 35.3 28.7 64 64 64H384c35.3 0 64-28.7 64-64V96c0-35.3-28.7-64-64-64H64zm75.5 105.9L224 255l84.5-117.1c6.1-8.4 16.9-12 26.8-8.8s16.6 12.4 16.6 22.8V360c0 13.3-10.7 24-24 24s-24-10.7-24-24V226.2l-60.5 83.8c-4.5 6.2-11.8 9.9-19.5 9.9s-14.9-3.7-19.5-9.9L144 226.2V360c0 13.3-10.7 24-24 24s-24-10.7-24-24V152c0-10.4 6.7-19.6 16.6-22.8s20.7 .3 26.8 8.8z"/></svg>