<svg xmlns="http://www.w3.org/2000/svg" viewBox="0 0 448 512"><!--! Font Awesome Pro 6.2.0 by @fontawesome - https://fontawesome.com License - https://fontawesome.com/license (Commercial License) Copyright 2022 Fonticons, Inc. --><path d="M0 96C0 60.7 28.7 32 64 32H384c35.3 0 64 28.7 64 64V416c0 35.3-28.7 64-64 64H64c-35.3 0-64-28.7-64-64V96zM208 240V216 192c0-17.7-14.3-32-32-32H128c-17.7 0-32 14.3-32 32v48c0 17.7 14.3 32 32 32h32v7.3c0 11.7-8.5 21.7-20.1 23.7l-7.9 1.3c-13.1 2.2-21.9 14.5-19.7 27.6s14.5 21.9 27.6 19.7l7.9-1.3c34.7-5.8 60.2-35.8 60.2-71V240zm144 39.3V240 216 192c0-17.7-14.3-32-32-32H272c-17.7 0-32 14.3-32 32v48c0 17.7 14.3 32 32 32h32v7.3c0 11.7-8.5 21.7-20.1 23.7l-7.9 1.3c-13.1 2.2-21.9 14.5-19.7 27.6s14.5 21.9 27.6 19.7l7.9-1.3c34.7-5.8 60.2-35.8 60.2-71z"/></svg>