<svg xmlns="http://www.w3.org/2000/svg" viewBox="0 0 448 512"><!--! Font Awesome Pro 6.2.0 by @fontawesome - https://fontawesome.com License - https://fontawesome.com/license (Commercial License) Copyright 2022 Fonticons, Inc. --><path d="M64 32C28.7 32 0 60.7 0 96V416c0 35.3 28.7 64 64 64H384c35.3 0 64-28.7 64-64V96c0-35.3-28.7-64-64-64H64zm64 86.3C128 106 138 96 150.3 96H176l32 64-32 32 80 64-32-64 48-32L240 96h57.7C310 96 320 106 320 118.3V208c0 47.6-34.6 87.1-80 94.7V384h48c8.8 0 16 7.2 16 16s-7.2 16-16 16H160c-8.8 0-16-7.2-16-16s7.2-16 16-16h48V302.7c-45.4-7.6-80-47.1-80-94.7V118.3z"/></svg>