<svg xmlns="http://www.w3.org/2000/svg" viewBox="0 0 448 512"><!--! Font Awesome Pro 6.2.0 by @fontawesome - https://fontawesome.com License - https://fontawesome.com/license (Commercial License) Copyright 2022 Fonticons, Inc. --><path d="M64 32C28.7 32 0 60.7 0 96V416c0 35.3 28.7 64 64 64H384c35.3 0 64-28.7 64-64V96c0-35.3-28.7-64-64-64H64zm160 96c9.1 0 17.4 5.1 21.5 13.3l104 208c5.9 11.9 1.1 26.3-10.7 32.2s-26.3 1.1-32.2-10.7L289.2 336H158.8l-17.4 34.7c-5.9 11.9-20.3 16.7-32.2 10.7s-16.7-20.3-10.7-32.2l104-208c4.1-8.1 12.4-13.3 21.5-13.3zm0 77.7L182.8 288h82.3L224 205.7z"/></svg>