<svg xmlns="http://www.w3.org/2000/svg" viewBox="0 0 448 512"><!--! Font Awesome Pro 6.2.0 by @fontawesome - https://fontawesome.com License - https://fontawesome.com/license (Commercial License) Copyright 2022 Fonticons, Inc. --><path d="M64 32C28.7 32 0 60.7 0 96V416c0 35.3 28.7 64 64 64H384c35.3 0 64-28.7 64-64V96c0-35.3-28.7-64-64-64H64zm80 224c0 44.2 35.8 80 80 80s80-35.8 80-80s-35.8-80-80-80s-80 35.8-80 80zm80-128c70.7 0 128 57.3 128 128s-57.3 128-128 128s-128-57.3-128-128s57.3-128 128-128z"/></svg>