<svg xmlns="http://www.w3.org/2000/svg" viewBox="0 0 448 512"><!--! Font Awesome Pro 6.2.0 by @fontawesome - https://fontawesome.com License - https://fontawesome.com/license (Commercial License) Copyright 2022 Fonticons, Inc. --><path d="M64 480c-35.3 0-64-28.7-64-64V96C0 60.7 28.7 32 64 32H384c35.3 0 64 28.7 64 64V416c0 35.3-28.7 64-64 64H64zM288 368c13.3 0 24-10.7 24-24s-10.7-24-24-24H193.9L329 185c9.4-9.4 9.4-24.6 0-33.9s-24.6-9.4-33.9 0l-135 135V184c0-13.3-10.7-24-24-24s-24 10.7-24 24V344c0 13.3 10.7 24 24 24H288z"/></svg>