<svg xmlns="http://www.w3.org/2000/svg" viewBox="0 0 448 512"><!--! Font Awesome Pro 6.2.0 by @fontawesome - https://fontawesome.com License - https://fontawesome.com/license (Commercial License) Copyright 2022 Fonticons, Inc. --><path d="M64 32C28.7 32 0 60.7 0 96V416c0 35.3 28.7 64 64 64H384c35.3 0 64-28.7 64-64V96c0-35.3-28.7-64-64-64H64zm88 96H256c44.2 0 80 35.8 80 80c0 36.6-24.6 67.5-58.2 77l45.4 60.6c8 10.6 5.8 25.6-4.8 33.6s-25.6 5.8-33.6-4.8L220 288H176v72c0 13.3-10.7 24-24 24s-24-10.7-24-24V264 152c0-13.3 10.7-24 24-24zm80 112h24c17.7 0 32-14.3 32-32s-14.3-32-32-32H176v64h56z"/></svg>