<svg xmlns="http://www.w3.org/2000/svg" viewBox="0 0 576 512"><!--! Font Awesome Pro 6.2.0 by @fontawesome - https://fontawesome.com License - https://fontawesome.com/license (Commercial License) Copyright 2022 Fonticons, Inc. --><path d="M64 32C28.7 32 0 60.7 0 96V416c0 35.3 28.7 64 64 64H320V384c-9.1 0-17.7-5.2-21.8-13.9l-12-26.1H161.8l-12 26.1c-5.6 12-19.8 17.3-31.8 11.7s-17.3-19.8-11.7-31.8l96-208c3.9-8.5 12.4-13.9 21.8-13.9s17.9 5.4 21.8 13.9l82.4 178.6c5.6-10 13.9-18.3 23.8-24V272c0-56.4 41.7-103.1 96-110.9V96c0-35.3-28.7-64-64-64H64zM224 209.3L184 296h80l-40-86.7zM464 240c17.7 0 32 14.3 32 32v48H432V272c0-17.7 14.3-32 32-32zm-80 32v48c-17.7 0-32 14.3-32 32V480c0 17.7 14.3 32 32 32H544c17.7 0 32-14.3 32-32V352c0-17.7-14.3-32-32-32V272c0-44.2-35.8-80-80-80s-80 35.8-80 80z"/></svg>