<svg xmlns="http://www.w3.org/2000/svg" viewBox="0 0 448 512"><!--! Font Awesome Pro 6.2.0 by @fontawesome - https://fontawesome.com License - https://fontawesome.com/license (Commercial License) Copyright 2022 Fonticons, Inc. --><path d="M64 32C28.7 32 0 60.7 0 96V416c0 35.3 28.7 64 64 64H384c35.3 0 64-28.7 64-64V96c0-35.3-28.7-64-64-64H64zm64 224c0 53 43 96 96 96s96-43 96-96s-43-96-96-96s-96 43-96 96zM224 96c88.4 0 160 71.6 160 160s-71.6 160-160 160s-160-71.6-160-160s71.6-160 160-160z"/></svg>