<svg xmlns="http://www.w3.org/2000/svg" viewBox="0 0 448 512"><!--! Font Awesome Pro 6.2.0 by @fontawesome - https://fontawesome.com License - https://fontawesome.com/license (Commercial License) Copyright 2022 Fonticons, Inc. --><path d="M64 32C28.7 32 0 60.7 0 96V416c0 35.3 28.7 64 64 64H384c35.3 0 64-28.7 64-64V96c0-35.3-28.7-64-64-64H64zm80 224c0 44.2 35.8 80 80 80c13.4 0 25.9-3.3 37-9.1l-30-30c-9.4-9.4-9.4-24.6 0-33.9s24.6-9.4 33.9 0l30 30c5.8-11.1 9.1-23.7 9.1-37c0-44.2-35.8-80-80-80s-80 35.8-80 80zm208 0c0 26.7-8.2 51.4-22.1 71.9L345 343c9.4 9.4 9.4 24.6 0 33.9s-24.6 9.4-33.9 0l-15.1-15.1c-20.5 14-45.3 22.1-71.9 22.1c-70.7 0-128-57.3-128-128s57.3-128 128-128s128 57.3 128 128z"/></svg>