<svg xmlns="http://www.w3.org/2000/svg" viewBox="0 0 448 512"><!--! Font Awesome Pro 6.2.0 by @fontawesome - https://fontawesome.com License - https://fontawesome.com/license (Commercial License) Copyright 2022 Fonticons, Inc. --><path d="M0 96C0 60.7 28.7 32 64 32H384c35.3 0 64 28.7 64 64V416c0 35.3-28.7 64-64 64H64c-35.3 0-64-28.7-64-64V96zm224 80c26.5 0 48 21.5 48 48s-21.5 48-48 48s-48-21.5-48-48s21.5-48 48-48zM198 316.4l-29.6 25.4c-10.1 8.6-11.2 23.8-2.6 33.8s23.8 11.2 33.8 2.6l81.6-70C305.8 287.2 320 256.4 320 224c0-53-43-96-96-96s-96 43-96 96c0 44 29.6 81.1 70 92.4z"/></svg>