<svg xmlns="http://www.w3.org/2000/svg" viewBox="0 0 576 512"><!--! Font Awesome Pro 6.2.0 by @fontawesome - https://fontawesome.com License - https://fontawesome.com/license (Commercial License) Copyright 2022 Fonticons, Inc. --><path d="M56 230.4L41.3 218.9c-8.1-6.3-11.3-17-8-26.7S45.7 176 56 176H74.7h2.5 .1H214.5L258.6 37.2l.1-.3 1.3-4 0 0 5.2-16.2C268.3 6.8 277.6 0 288 0s19.7 6.8 22.9 16.7L316 32.9l1.3 4 .1 .3L361.6 176H498.7h.1 2.5H520c10.3 0 19.4 6.5 22.7 16.2s.1 20.4-8 26.7L520 230.4l-2 1.5-.1 .1-114 88.7 44.4 139.5 .1 .4 1.4 4.5 5 15.7c3.2 10-.5 21-9.1 27s-20.2 5.7-28.5-.7l-13-10.1-3.7-2.9-.3-.3L288 406.4 175.8 493.7l-.3 .3-3.7 2.9-13 10.1c-8.3 6.5-19.8 6.8-28.5 .7s-12.3-16.9-9.1-27l5-15.7 1.4-4.5 .1-.4 44.4-139.5L58.1 232l-.1-.1-2-1.5zM288 335.5l0 0 34.4 26.7 47.9 37.2-19.7-61.8-11.8-37.2 30.8-24L426.7 232H361.6h-41l-12.4-39L288 129.5l0 0V335.5z"/></svg>