<svg xmlns="http://www.w3.org/2000/svg" viewBox="0 0 576 512"><!--! Font Awesome Pro 6.2.0 by @fontawesome - https://fontawesome.com License - https://fontawesome.com/license (Commercial License) Copyright 2022 Fonticons, Inc. --><path d="M254.4 50.4L214.5 176H90.3 88 74.7 56c-10.3 0-19.4 6.5-22.7 16.2s-.1 20.4 8 26.7L56 230.4l10.5 8.2 1.8 1.4 103.7 80.7L132 446.7l-1.1 3.5L126.1 465l-5 15.7c-3.2 10 .5 21 9.1 27s20.2 5.7 28.5-.7l13-10.1 12.3-9.5 2.9-2.3L288 406.4V325.3 155.9 0c-10.5 0-19.7 6.8-22.9 16.7L260 32.9l0 0-4.6 14.3-1 3.2z"/></svg>