<svg xmlns="http://www.w3.org/2000/svg" viewBox="0 0 640 512"><!--! Font Awesome Pro 6.2.0 by @fontawesome - https://fontawesome.com License - https://fontawesome.com/license (Commercial License) Copyright 2022 Fonticons, Inc. --><path d="M448 320c-35.3 0-64-28.7-64-64s28.7-64 64-64s64 28.7 64 64s-28.7 64-64 64zm0 128c106 0 192-86 192-192s-86-192-192-192s-192 86-192 192s86 192 192 192zm32-192c0-17.7-14.3-32-32-32s-32 14.3-32 32s14.3 32 32 32s32-14.3 32-32zM188.9 205.4L137 160h71c17.7 0 32-14.3 32-32s-14.3-32-32-32H32C14.3 96 0 110.3 0 128s14.3 32 32 32H64.1l65.5 57.3-2.2 .4C109.1 221.4 96 237.4 96 256s13.1 34.6 31.4 38.3l2.2 .4L64.1 352H32c-17.7 0-32 14.3-32 32s14.3 32 32 32H208c17.7 0 32-14.3 32-32s-14.3-32-32-32H137l51.9-45.4 43 8.6c-5.2-18.9-7.9-38.7-7.9-59.2s2.7-40.3 7.9-59.2l-43 8.6z"/></svg>