<svg xmlns="http://www.w3.org/2000/svg" viewBox="0 0 640 512"><!--! Font Awesome Pro 6.2.0 by @fontawesome - https://fontawesome.com License - https://fontawesome.com/license (Commercial License) Copyright 2022 Fonticons, Inc. --><path d="M47 71c9.4-9.4 24.6-9.4 33.9 0l121 121H616c13.3 0 24 10.7 24 24v48c0 13.3-10.7 24-24 24H186.5c-23.3 0-45.7-9.3-62.2-25.8L7 145c-9.4-9.4-9.4-24.6 0-33.9L47 71zM272 448c0-8.8-7.2-16-16-16s-16 7.2-16 16s7.2 16 16 16s16-7.2 16-16zm48 0c0 35.3-28.7 64-64 64s-64-28.7-64-64s28.7-64 64-64c12.4 0 24 3.5 33.9 9.7l37.3-27.1-64-46.5h81.6L368 336.9 391.2 320h81.6l-64 46.5 37.3 27.1c9.8-6.1 21.4-9.7 33.9-9.7c35.3 0 64 28.7 64 64s-28.7 64-64 64s-64-28.7-64-64c0-5.3 .7-10.5 1.9-15.5L368 396.2l-49.9 36.3c1.2 5 1.9 10.2 1.9 15.5zm160 16c8.8 0 16-7.2 16-16s-7.2-16-16-16s-16 7.2-16 16s7.2 16 16 16z"/></svg>