<svg xmlns="http://www.w3.org/2000/svg" viewBox="0 0 448 512"><!--! Font Awesome Pro 6.2.0 by @fontawesome - https://fontawesome.com License - https://fontawesome.com/license (Commercial License) Copyright 2022 Fonticons, Inc. --><path d="M32 176L8.8 164.4C3.4 161.7 0 156.2 0 150.1V73.9c0-6.1 3.4-11.6 8.8-14.3L34.3 46.8C41.8 19.8 66.6 0 96 0H352c29.4 0 54.2 19.8 61.7 46.8l25.5 12.7c5.4 2.7 8.8 8.3 8.8 14.3v76.2c0 6.1-3.4 11.6-8.8 14.3L416 176v16l23.2 11.6c5.4 2.7 8.8 8.3 8.8 14.3v76.2c0 6.1-3.4 11.6-8.8 14.3L416 320v16l23.2 11.6c5.4 2.7 8.8 8.2 8.8 14.3v76.2c0 6.1-3.4 11.6-8.8 14.3l-25.5 12.7c-7.5 27-32.3 46.8-61.7 46.8H96c-29.4 0-54.2-19.8-61.7-46.8L8.8 452.4C3.4 449.7 0 444.2 0 438.1V361.9c0-6.1 3.4-11.6 8.8-14.3L32 336V320L8.8 308.4C3.4 305.7 0 300.2 0 294.1V217.9c0-6.1 3.4-11.6 8.8-14.3L32 192V176zM112 64c-8.8 0-16 7.2-16 16V432c0 8.8 7.2 16 16 16H336c8.8 0 16-7.2 16-16V80c0-8.8-7.2-16-16-16H112z"/></svg>