<svg xmlns="http://www.w3.org/2000/svg" viewBox="0 0 512 512"><!--! Font Awesome Pro 6.2.0 by @fontawesome - https://fontawesome.com License - https://fontawesome.com/license (Commercial License) Copyright 2022 Fonticons, Inc. --><path d="M0 96C0 60.7 28.7 32 64 32h64V160H0V96zm448 64H160V32H448c35.3 0 64 28.7 64 64V416c0 35.3-28.7 64-64 64H64c-35.3 0-64-28.7-64-64V192H128V416H448V160zm-33.2 86.1c-2.5 6-8.3 9.9-14.8 9.9H384v48c0 26.5-21.5 48-48 48H288v16c0 6.5-3.9 12.3-9.9 14.8s-12.9 1.1-17.4-3.5l-32-32c-6.2-6.2-6.2-16.4 0-22.6l32-32c4.6-4.6 11.5-5.9 17.4-3.5s9.9 8.3 9.9 14.8v16h48c8.8 0 16-7.2 16-16V256H336c-6.5 0-12.3-3.9-14.8-9.9s-1.1-12.9 3.5-17.4l32-32c6.2-6.2 16.4-6.2 22.6 0l32 32c4.6 4.6 5.9 11.5 3.5 17.4z"/></svg>