<svg xmlns="http://www.w3.org/2000/svg" viewBox="0 0 320 512"><!--! Font Awesome Pro 6.2.0 by @fontawesome - https://fontawesome.com License - https://fontawesome.com/license (Commercial License) Copyright 2022 Fonticons, Inc. --><path d="M288 64l22.6-22.6c7.3 7.3 10.6 17.7 8.9 27.9L296.4 208l-.4 0H236.2L248 72.7c.4-4.4-2.9-8.3-7.3-8.7s-8.3 2.9-8.7 7.3L220.1 208H168V64c0-4.4-3.6-8-8-8s-8 3.6-8 8V208H99.9L88 71.3c-.4-4.4-4.3-7.7-8.7-7.3s-7.7 4.3-7.3 8.7L83.8 208H24l-.4 0L.4 69.3C-1.3 59.1 2.1 48.7 9.4 41.4L32 64C9.4 41.4 9.4 41.4 9.4 41.3l0 0 .1-.1 .2-.1 .3-.3c.2-.2 .5-.5 .8-.8c.6-.6 1.4-1.3 2.4-2c1.9-1.5 4.4-3.4 7.5-5.5c6.3-4.2 15.3-9.3 27.4-14.1C72.3 8.6 108.4 0 160 0s87.7 8.6 111.9 18.3c12.1 4.8 21 9.9 27.4 14.1c3.2 2.1 5.7 4 7.5 5.5c.9 .8 1.7 1.5 2.4 2c.3 .3 .6 .6 .9 .8l.3 .3 .2 .1 .1 .1 0 0c0 0 0 0-22.6 22.7zM152 448c0 4.4 3.6 8 8 8s8-3.6 8-8V346.7l1.6 2.1c13.2 17.6 36.2 23.6 55.8 15.9l6.6 76c.4 4.4 4.3 7.7 8.7 7.3s7.7-4.3 7.3-8.7l-7.3-84.1c14.2-13.2 18.9-33.4 12.6-51.2H296l.4 0 23.1 138.7c1.7 10.2-1.6 20.6-8.9 27.9L288 448c22.6 22.6 22.6 22.6 22.6 22.7l0 0-.1 .1-.2 .2-.3 .3c-.2 .2-.5 .5-.9 .8c-.6 .6-1.4 1.3-2.4 2c-1.9 1.5-4.4 3.4-7.5 5.5c-6.3 4.2-15.3 9.3-27.4 14.1C247.7 503.4 211.6 512 160 512s-87.7-8.6-111.9-18.3c-12.1-4.8-21-9.9-27.4-14.1c-3.2-2.1-5.7-4-7.5-5.5c-.9-.8-1.7-1.5-2.4-2c-.3-.3-.6-.6-.8-.8l-.3-.3-.2-.2-.1-.1 0 0c0 0 0 0 22.6-22.7L9.4 470.6c-7.3-7.3-10.6-17.7-8.9-27.9L23.6 304l.4 0H66.7c-6.3 17.7-1.6 38 12.6 51.2L72 439.3c-.4 4.4 2.9 8.3 7.3 8.7s8.3-2.9 8.7-7.3l6.6-76c19.6 7.6 42.6 1.7 55.8-15.9l1.6-2.1V448zM24 240H160 296c8.8 0 16 7.2 16 16s-7.2 16-16 16H192l28.8 38.4c5.3 7.1 3.9 17.1-3.2 22.4s-17.1 3.9-22.4-3.2L160 282.7l-35.2 46.9c-5.3 7.1-15.3 8.5-22.4 3.2s-8.5-15.3-3.2-22.4L128 272H24c-8.8 0-16-7.2-16-16s7.2-16 16-16z"/></svg>