<svg xmlns="http://www.w3.org/2000/svg" viewBox="0 0 640 512"><!--! Font Awesome Pro 6.2.0 by @fontawesome - https://fontawesome.com License - https://fontawesome.com/license (Commercial License) Copyright 2022 Fonticons, Inc. --><path d="M48 416H32c-17.7 0-32-14.3-32-32V74.5c0-16.2 9.2-31 23.7-38.3C71.2 12.4 123.7 0 176.9 0h30.3c53.2 0 105.6 12.4 153.2 36.2C374.8 43.4 384 58.2 384 74.5V96c-21.9 0-40.4 14.7-46.2 34.8c-6.1 1.4-12.1 3.3-17.8 5.6V120c0-13.3-10.7-24-24-24H208V224h41.9l-16.3 48.9C208.5 290.2 192 319.2 192 352v64H128v32c0 17.7-14.3 32-32 32H80c-17.7 0-32-14.3-32-32V416zM64 120v80c0 13.3 10.7 24 24 24h88V96H88c-13.3 0-24 10.7-24 24zm56 200c0-13.3-10.7-24-24-24s-24 10.7-24 24s10.7 24 24 24s24-10.7 24-24zM368 152c0-13.3 10.7-24 24-24h80c13.3 0 24 10.7 24 24v8h5.4c34.4 0 65 22 75.9 54.7l26.6 79.7C625.2 304.7 640 326.6 640 352l0 96v32c0 17.7-14.3 32-32 32H592c-17.7 0-32-14.3-32-32V448H304v32c0 17.7-14.3 32-32 32H256c-17.7 0-32-14.3-32-32V448h0V352c0-25.4 14.8-47.3 36.1-57.6l26.6-79.7C297.6 182 328.2 160 362.6 160H368v-8zm-20.6 82.9L329.7 288H534.3l-17.7-53.1c-2.2-6.5-8.3-10.9-15.2-10.9H362.6c-6.9 0-13 4.4-15.2 10.9zM328 368c0-13.3-10.7-24-24-24s-24 10.7-24 24s10.7 24 24 24s24-10.7 24-24zm232 24c13.3 0 24-10.7 24-24s-10.7-24-24-24s-24 10.7-24 24s10.7 24 24 24z"/></svg>