<svg xmlns="http://www.w3.org/2000/svg" viewBox="0 0 640 512"><!--! Font Awesome Pro 6.2.0 by @fontawesome - https://fontawesome.com License - https://fontawesome.com/license (Commercial License) Copyright 2022 Fonticons, Inc. --><path d="M237.6 7.5C234.7 2.9 229.5 0 224 0s-10.7 2.9-13.6 7.5L164.7 80.9 80.5 61.3c-5.4-1.3-11 .4-14.9 4.3s-5.5 9.6-4.3 14.9l19.6 84.2L7.5 210.4C2.9 213.3 0 218.5 0 224s2.9 10.7 7.5 13.6l73.4 45.7L61.3 367.5c-1.3 5.4 .4 11 4.3 14.9s9.6 5.5 14.9 4.3l84.2-19.6 45.7 73.4c2.9 4.7 8.1 7.5 13.6 7.5s10.7-2.9 13.6-7.5l45.7-73.4 36.9 8.6c-.1-2.5-.2-5.1-.2-7.7c0-37.7 11.8-72.6 32-101.2V64.9l-68.7 16L237.6 7.5zM224 288c35.3 0 64-28.7 64-64s-28.7-64-64-64s-64 28.7-64 64s28.7 64 64 64zm0 32c-53 0-96-43-96-96s43-96 96-96s96 43 96 96s-43 96-96 96zM448 112c0-26.5 21.5-48 48-48s48 21.5 48 48V276.5c0 17.3 7.1 31.9 15.3 42.5C569.8 332.6 576 349.5 576 368c0 44.2-35.8 80-80 80s-80-35.8-80-80c0-18.5 6.2-35.4 16.7-48.9c8.2-10.6 15.3-25.2 15.3-42.5V112zM496 0C434.1 0 384 50.2 384 112V276.5c0 .1-.1 .3-.2 .6c-.2 .6-.8 1.6-1.7 2.8c-18.9 24.4-30.1 55-30.1 88.1c0 79.5 64.5 144 144 144s144-64.5 144-144c0-33.2-11.3-63.8-30.1-88.1c-.9-1.2-1.5-2.2-1.7-2.8c-.1-.3-.2-.5-.2-.6V112C608 50.2 557.9 0 496 0zm0 416c26.5 0 48-21.5 48-48c0-20.9-13.4-38.7-32-45.3V112c0-8.8-7.2-16-16-16s-16 7.2-16 16V322.7c-18.6 6.6-32 24.4-32 45.3c0 26.5 21.5 48 48 48z"/></svg>