<svg xmlns="http://www.w3.org/2000/svg" viewBox="0 0 640 512"><!--! Font Awesome Pro 6.2.0 by @fontawesome - https://fontawesome.com License - https://fontawesome.com/license (Commercial License) Copyright 2022 Fonticons, Inc. --><path d="M32 32C14.3 32 0 46.3 0 64v64c0 17.7 14.3 32 32 32s32-14.3 32-32V96h96l0 320H128c-17.7 0-32 14.3-32 32s14.3 32 32 32H256c17.7 0 32-14.3 32-32s-14.3-32-32-32H224l0-320h96v32c0 17.7 14.3 32 32 32s32-14.3 32-32V64c0-17.7-14.3-32-32-32H192 32zM352 224c-17.7 0-32 14.3-32 32v32c0 17.7 14.3 32 32 32s32-14.3 32-32h64l0 128H432c-17.7 0-32 14.3-32 32s14.3 32 32 32h96c17.7 0 32-14.3 32-32s-14.3-32-32-32H512l0-128h64c0 17.7 14.3 32 32 32s32-14.3 32-32V256c0-17.7-14.3-32-32-32H352z"/></svg>