<svg xmlns="http://www.w3.org/2000/svg" viewBox="0 0 640 512"><!--! Font Awesome Pro 6.2.0 by @fontawesome - https://fontawesome.com License - https://fontawesome.com/license (Commercial License) Copyright 2022 Fonticons, Inc. --><path d="M96 96V320c0 35.3 28.7 64 64 64H576c35.3 0 64-28.7 64-64V256c-26.5 0-48-21.5-48-48s21.5-48 48-48V96c0-35.3-28.7-64-64-64H160c-35.3 0-64 28.7-64 64zm432 32c-8.8 0-16-7.2-16-16s7.2-16 16-16s16 7.2 16 16s-7.2 16-16 16zm0 64c-8.8 0-16-7.2-16-16s7.2-16 16-16s16 7.2 16 16s-7.2 16-16 16zm16 48c0 8.8-7.2 16-16 16s-16-7.2-16-16s7.2-16 16-16s16 7.2 16 16zm-16 80c-8.8 0-16-7.2-16-16s7.2-16 16-16s16 7.2 16 16s-7.2 16-16 16zM265.3 106.5c-1.7-5.2 2.1-10.5 7.6-10.5H304c8.5 0 16.4 4.5 20.7 11.9L364.4 176h40.3c16.1 0 31.5 6.4 42.8 17.7c7.9 7.9 7.9 20.7 0 28.5c-11.4 11.4-26.8 17.7-42.8 17.7H364.4l-39.7 68.1c-4.3 7.4-12.2 11.9-20.7 11.9H272.9c-5.5 0-9.3-5.3-7.6-10.5L288.4 240H245.8l-19.2 25.6c-3 4-7.8 6.4-12.8 6.4H200c-5.2 0-9-4.9-7.8-9.9l12.5-50.2c.6-2.5 .6-5.2 0-7.8l-12.5-50.2c-1.3-5 2.6-9.9 7.8-9.9h13.8c5 0 9.8 2.4 12.8 6.4L245.8 176h42.7l-23.2-69.5zM48 120c0-13.3-10.7-24-24-24S0 106.7 0 120V360c0 66.3 53.7 120 120 120H520c13.3 0 24-10.7 24-24s-10.7-24-24-24H120c-39.8 0-72-32.2-72-72V120z"/></svg>