<svg xmlns="http://www.w3.org/2000/svg" viewBox="0 0 640 512"><!--! Font Awesome Pro 6.2.0 by @fontawesome - https://fontawesome.com License - https://fontawesome.com/license (Commercial License) Copyright 2022 Fonticons, Inc. --><path d="M128 120c-13.3 0-24-10.7-24-24s10.7-24 24-24s24 10.7 24 24s-10.7 24-24 24zm32 49.3c28.3-12.3 48-40.5 48-73.3c0-44.2-35.8-80-80-80S48 51.8 48 96c0 32.8 19.7 61 48 73.3V224H32c-17.7 0-32 14.3-32 32s14.3 32 32 32H192v54.7c-28.3 12.3-48 40.5-48 73.3c0 44.2 35.8 80 80 80s80-35.8 80-80c0-32.8-19.7-61-48-73.3V288H530.7l-41.4 41.4c-12.5 12.5-12.5 32.8 0 45.3s32.8 12.5 45.3 0l96-96c12.5-12.5 12.5-32.8 0-45.3l-96-96c-12.5-12.5-32.8-12.5-45.3 0s-12.5 32.8 0 45.3L530.7 224H384V169.3c28.3-12.3 48-40.5 48-73.3c0-44.2-35.8-80-80-80s-80 35.8-80 80c0 32.8 19.7 61 48 73.3V224H160V169.3zM376 96c0 13.3-10.7 24-24 24s-24-10.7-24-24s10.7-24 24-24s24 10.7 24 24zM224 440c-13.3 0-24-10.7-24-24s10.7-24 24-24s24 10.7 24 24s-10.7 24-24 24z"/></svg>