<svg xmlns="http://www.w3.org/2000/svg" viewBox="0 0 512 512"><!--! Font Awesome Pro 6.2.0 by @fontawesome - https://fontawesome.com License - https://fontawesome.com/license (Commercial License) Copyright 2022 Fonticons, Inc. --><path d="M320 24c0-13.3-10.7-24-24-24H216c-13.3 0-24 10.7-24 24V40c0 .4 0 .8 0 1.3c-14.9 4.4-29.2 10.4-42.6 17.7c-.3-.3-.6-.6-.9-.9L137.2 46.7c-9.4-9.4-24.6-9.4-33.9 0L46.7 103.3c-9.4 9.4-9.4 24.6 0 33.9L58 148.5c.3 .3 .6 .6 .9 .9c-7.3 13.4-13.2 27.7-17.7 42.6c-.4 0-.8 0-1.3 0H24c-13.3 0-24 10.7-24 24v80c0 13.3 10.7 24 24 24H40c.4 0 .8 0 1.3 0c4.4 14.9 10.4 29.2 17.7 42.6c-.3 .3-.6 .6-.9 .9L46.7 374.8c-9.4 9.4-9.4 24.6 0 33.9l56.6 56.6c9.4 9.4 24.6 9.4 33.9 0L148.5 454c.3-.3 .6-.6 .9-.9c13.4 7.3 27.7 13.2 42.6 17.7c0 .4 0 .8 0 1.3v16c0 13.3 10.7 24 24 24h80c13.3 0 24-10.7 24-24V472c0-.4 0-.8 0-1.3c14.9-4.4 29.2-10.4 42.6-17.7c.3 .3 .6 .6 .9 .9l11.3 11.3c9.4 9.4 24.6 9.4 33.9 0l56.6-56.6c9.4-9.4 9.4-24.6 0-33.9L454 363.5c-.3-.3-.6-.6-.9-.9c7.3-13.4 13.2-27.7 17.7-42.6c.4 0 .8 0 1.3 0h16c13.3 0 24-10.7 24-24V216c0-13.3-10.7-24-24-24H472c-.4 0-.8 0-1.3 0c-4.4-14.9-10.4-29.2-17.7-42.6c.3-.3 .6-.6 .9-.9l11.3-11.3c9.4-9.4 9.4-24.6 0-33.9L408.7 46.7c-9.4-9.4-24.6-9.4-33.9 0L363.5 58c-.3 .3-.6 .6-.9 .9c-13.4-7.3-27.7-13.2-42.6-17.7c0-.4 0-.8 0-1.3V24zM256 384c-70.7 0-128-57.3-128-128s57.3-128 128-128s128 57.3 128 128s-57.3 128-128 128zm0-176c13.3 0 24-10.7 24-24s-10.7-24-24-24s-24 10.7-24 24s10.7 24 24 24zm-61.1 2.9c-12.6-4.1-26.1 2.8-30.2 15.4s2.8 26.1 15.4 30.2s26.1-2.8 30.2-15.4s-2.8-26.1-15.4-30.2zm106.7 30.2c4.1 12.6 17.6 19.5 30.2 15.4s19.5-17.6 15.4-30.2s-17.6-19.5-30.2-15.4s-19.5 17.6-15.4 30.2zm-22.7 87.2c7.8 10.7 22.8 13.1 33.5 5.3s13.1-22.8 5.3-33.5s-22.8-13.1-33.5-5.3s-13.1 22.8-5.3 33.5zm-51.1-33.5c-10.7-7.8-25.7-5.4-33.5 5.3s-5.4 25.7 5.3 33.5s25.7 5.4 33.5-5.3s5.4-25.7-5.3-33.5z"/></svg>