<svg xmlns="http://www.w3.org/2000/svg" viewBox="0 0 576 512"><!--! Font Awesome Pro 6.2.0 by @fontawesome - https://fontawesome.com License - https://fontawesome.com/license (Commercial License) Copyright 2022 Fonticons, Inc. --><path d="M192 128c70.7 0 128 57.3 128 128s-57.3 128-128 128s-128-57.3-128-128s57.3-128 128-128zm0 320H384c106 0 192-86 192-192s-86-192-192-192H192C86 64 0 150 0 256S86 448 192 448zm143.1-64c30.4-34 48.9-78.8 48.9-128s-18.5-94-48.9-128H384c70.7 0 128 57.3 128 128s-57.3 128-128 128H335.1z"/></svg>