<svg xmlns="http://www.w3.org/2000/svg" viewBox="0 0 512 512"><!--! Font Awesome Pro 6.2.0 by @fontawesome - https://fontawesome.com License - https://fontawesome.com/license (Commercial License) Copyright 2022 Fonticons, Inc. --><path d="M96 0H348.2C336.6 12.2 327 26.9 319.5 41.9C299.5 82 288 135.1 288 192s11.5 110 31.5 150.1c7.5 15 17.1 29.7 28.7 41.9H96C43 384 0 298 0 192S43 0 96 0zM320 192c0-83.6 26.7-154.7 64-181.1C394 3.8 404.8 0 416 0c53 0 96 86 96 192c0 35-4.7 67.8-12.8 96c-16.6 57.4-47.6 96-83.2 96c-11.2 0-22-3.8-32-10.9c-37.3-26.4-64-97.5-64-181.1zm64 0c0 35.3 14.3 64 32 64s32-28.7 32-64s-14.3-64-32-64s-32 28.7-32 64zM160 416H416c44.8 0 76.9-35.2 96-72.9V464c0 26.5-21.5 48-48 48H208c-26.5 0-48-21.5-48-48V416zM64 208c0-8.8-7.2-16-16-16s-16 7.2-16 16s7.2 16 16 16s16-7.2 16-16zm64 0c0-8.8-7.2-16-16-16s-16 7.2-16 16s7.2 16 16 16s16-7.2 16-16zm48 16c8.8 0 16-7.2 16-16s-7.2-16-16-16s-16 7.2-16 16s7.2 16 16 16zm80-16c0-8.8-7.2-16-16-16s-16 7.2-16 16s7.2 16 16 16s16-7.2 16-16z"/></svg>