<svg xmlns="http://www.w3.org/2000/svg" viewBox="0 0 512 512"><!--! Font Awesome Pro 6.2.0 by @fontawesome - https://fontawesome.com License - https://fontawesome.com/license (Commercial License) Copyright 2022 Fonticons, Inc. --><path d="M256 96c-26.5 0-48-21.5-48-48s21.5-48 48-48s48 21.5 48 48s-21.5 48-48 48zM128 512c-17.7 0-32-14.3-32-32s14.3-32 32-32H384c17.7 0 32 14.3 32 32s-14.3 32-32 32H296 216 128zM383.7 288c-9.3-.1-18.5-4.2-24.7-12l-31-38.7V288H184V237.3L153 276c-6.3 7.8-15.4 11.9-24.7 12H128v0c-7 0-14.1-2.3-20-7c-13.8-11.1-16-31.2-5-45l57.7-72c18.2-22.7 45.8-36 74.9-36h40.7c29.1 0 56.7 13.2 74.9 36L409 236c11 13.8 8.8 33.9-5 45c-5.9 4.7-13 7-20 7v0h-.3zm-327 38.6L64 352l25.4 7.3c3.9 1.1 6.6 4.7 6.6 8.7s-2.7 7.6-6.6 8.7L64 384l-7.3 25.4c-1.1 3.9-4.7 6.6-8.7 6.6s-7.6-2.7-8.7-6.6L32 384 6.6 376.7C2.7 375.6 0 372.1 0 368s2.7-7.6 6.6-8.7L32 352l7.3-25.4c1.1-3.9 4.7-6.6 8.7-6.6s7.6 2.7 8.7 6.6zM480 160l25.4 7.3c3.9 1.1 6.6 4.7 6.6 8.7s-2.7 7.6-6.6 8.7L480 192l-7.3 25.4c-1.1 3.9-4.7 6.6-8.7 6.6s-7.6-2.7-8.7-6.6L448 192l-25.4-7.3c-3.9-1.1-6.6-4.7-6.6-8.7s2.7-7.6 6.6-8.7L448 160l7.3-25.4c1.1-3.9 4.7-6.6 8.7-6.6s7.6 2.7 8.7 6.6L480 160zM176 320H336c8.8 0 16 7.2 16 16s-7.2 16-16 16H176c-8.8 0-16-7.2-16-16s7.2-16 16-16zm0 64H336c8.8 0 16 7.2 16 16s-7.2 16-16 16H176c-8.8 0-16-7.2-16-16s7.2-16 16-16z"/></svg>