<svg xmlns="http://www.w3.org/2000/svg" viewBox="0 0 512 512"><!--! Font Awesome Pro 6.2.0 by @fontawesome - https://fontawesome.com License - https://fontawesome.com/license (Commercial License) Copyright 2022 Fonticons, Inc. --><path d="M480 32l25.4 7.3c3.9 1.1 6.6 4.7 6.6 8.7s-2.7 7.6-6.6 8.7L480 64l-7.3 25.4c-1.1 3.9-4.7 6.6-8.7 6.6s-7.6-2.7-8.7-6.6L448 64l-25.4-7.3c-3.9-1.1-6.6-4.7-6.6-8.7s2.7-7.6 6.6-8.7L448 32l7.3-25.4C456.4 2.7 459.9 0 464 0s7.6 2.7 8.7 6.6L480 32zM56.7 134.6L64 160l25.4 7.3c3.9 1.1 6.6 4.7 6.6 8.7s-2.7 7.6-6.6 8.7L64 192l-7.3 25.4c-1.1 3.9-4.7 6.6-8.7 6.6s-7.6-2.7-8.7-6.6L32 192 6.6 184.7C2.7 183.6 0 180.1 0 176s2.7-7.6 6.6-8.7L32 160l7.3-25.4c1.1-3.9 4.7-6.6 8.7-6.6s7.6 2.7 8.7 6.6zM384 512H296 216 128c-17.7 0-32-14.3-32-32s14.3-32 32-32H384c17.7 0 32 14.3 32 32s-14.3 32-32 32zM224 0h64c8.8 0 16 7.2 16 16s-7.2 16-16 16H224c-8.8 0-16-7.2-16-16s7.2-16 16-16zM176 128H336c8.8 0 16 7.2 16 16s-7.2 16-16 16H176c-8.8 0-16-7.2-16-16s7.2-16 16-16zM112 256H400c8.8 0 16 7.2 16 16s-7.2 16-16 16H112c-8.8 0-16-7.2-16-16s7.2-16 16-16zm64 128H336c8.8 0 16 7.2 16 16s-7.2 16-16 16H176c-8.8 0-16-7.2-16-16s7.2-16 16-16z"/></svg>