<svg xmlns="http://www.w3.org/2000/svg" viewBox="0 0 512 512"><!--! Font Awesome Pro 6.2.0 by @fontawesome - https://fontawesome.com License - https://fontawesome.com/license (Commercial License) Copyright 2022 Fonticons, Inc. --><path d="M56.7 6.6L64 32l25.4 7.3C93.3 40.4 96 43.9 96 48s-2.7 7.6-6.6 8.7L64 64 56.7 89.4C55.6 93.3 52.1 96 48 96s-7.6-2.7-8.7-6.6L32 64 6.6 56.7C2.7 55.6 0 52.1 0 48s2.7-7.6 6.6-8.7L32 32 39.3 6.6C40.4 2.7 43.9 0 48 0s7.6 2.7 8.7 6.6zM384 512H296 216 128c-17.7 0-32-14.3-32-32s14.3-32 32-32H384c17.7 0 32 14.3 32 32s-14.3 32-32 32zm96-128l25.4 7.3c3.9 1.1 6.6 4.7 6.6 8.7s-2.7 7.6-6.6 8.7L480 416l-7.3 25.4c-1.1 3.9-4.7 6.6-8.7 6.6s-7.6-2.7-8.7-6.6L448 416l-25.4-7.3c-3.9-1.1-6.6-4.7-6.6-8.7s2.7-7.6 6.6-8.7L448 384l7.3-25.4c1.1-3.9 4.7-6.6 8.7-6.6s7.6 2.7 8.7 6.6L480 384zM224 0h64c8.8 0 16 7.2 16 16s-7.2 16-16 16H224c-8.8 0-16-7.2-16-16s7.2-16 16-16zM112 256H400c8.8 0 16 7.2 16 16s-7.2 16-16 16H112c-8.8 0-16-7.2-16-16s7.2-16 16-16z"/></svg>