<svg xmlns="http://www.w3.org/2000/svg" viewBox="0 0 512 512"><!--! Font Awesome Pro 6.2.0 by @fontawesome - https://fontawesome.com License - https://fontawesome.com/license (Commercial License) Copyright 2022 Fonticons, Inc. --><path d="M256 96c26.5 0 48-21.5 48-48s-21.5-48-48-48s-48 21.5-48 48s21.5 48 48 48zM128 512h88 80 88c17.7 0 32-14.3 32-32s-14.3-32-32-32H128c-17.7 0-32 14.3-32 32s14.3 32 32 32zM96 256.5c0-.3 0-.7 0-1v1zM56.7 102.6C55.6 98.7 52.1 96 48 96s-7.6 2.7-8.7 6.6L32 128 6.6 135.3C2.7 136.4 0 139.9 0 144s2.7 7.6 6.6 8.7L32 160l7.3 25.4c1.1 3.9 4.7 6.6 8.7 6.6s7.6-2.7 8.7-6.6L64 160l25.4-7.3c3.9-1.1 6.6-4.7 6.6-8.7s-2.7-7.6-6.6-8.7L64 128l-7.3-25.4zM480 32L472.7 6.6C471.6 2.7 468.1 0 464 0s-7.6 2.7-8.7 6.6L448 32l-25.4 7.3c-3.9 1.1-6.6 4.7-6.6 8.7s2.7 7.6 6.6 8.7L448 64l7.3 25.4c1.1 3.9 4.7 6.6 8.7 6.6s7.6-2.7 8.7-6.6L480 64l25.4-7.3c3.9-1.1 6.6-4.7 6.6-8.7s-2.7-7.6-6.6-8.7L480 32zM176 128c-8.8 0-16 7.2-16 16s7.2 16 16 16H336c8.8 0 16-7.2 16-16s-7.2-16-16-16H176zm-32 64c-8.8 0-16 7.2-16 16s7.2 16 16 16H368c8.8 0 16-7.2 16-16s-7.2-16-16-16H144zm-32 64c-8.8 0-16 7.2-16 16s7.2 16 16 16H400c8.8 0 16-7.2 16-16s-7.2-16-16-16H112zm64 64c-8.8 0-16 7.2-16 16s7.2 16 16 16H336c8.8 0 16-7.2 16-16s-7.2-16-16-16H176zm0 64c-8.8 0-16 7.2-16 16s7.2 16 16 16H336c8.8 0 16-7.2 16-16s-7.2-16-16-16H176z"/></svg>