<svg xmlns="http://www.w3.org/2000/svg" viewBox="0 0 448 512"><!--! Font Awesome Pro 6.2.0 by @fontawesome - https://fontawesome.com License - https://fontawesome.com/license (Commercial License) Copyright 2022 Fonticons, Inc. --><path d="M163.8 0H284.2c12.1 0 23.2 6.8 28.6 17.7L320 32h96c17.7 0 32 14.3 32 32s-14.3 32-32 32H32C14.3 96 0 81.7 0 64S14.3 32 32 32h96l7.2-14.3C140.6 6.8 151.7 0 163.8 0zM32 128H416V448c0 35.3-28.7 64-64 64H96c-35.3 0-64-28.7-64-64V128zM200 408c0 13.3 10.7 24 24 24s24-10.7 24-24V344h64c13.3 0 24-10.7 24-24s-10.7-24-24-24H248V232c0-13.3-10.7-24-24-24s-24 10.7-24 24v64H136c-13.3 0-24 10.7-24 24s10.7 24 24 24h64v64z"/></svg>