<svg xmlns="http://www.w3.org/2000/svg" viewBox="0 0 448 512"><!--! Font Awesome Pro 6.2.0 by @fontawesome - https://fontawesome.com License - https://fontawesome.com/license (Commercial License) Copyright 2022 Fonticons, Inc. --><path d="M163.8 0H284.2c12.1 0 23.2 6.8 28.6 17.7L320 32h96c17.7 0 32 14.3 32 32s-14.3 32-32 32H32C14.3 96 0 81.7 0 64S14.3 32 32 32h96l7.2-14.3C140.6 6.8 151.7 0 163.8 0zM32 128H416L394.8 467c-1.6 25.3-22.6 45-47.9 45H101.1c-25.3 0-46.3-19.7-47.9-45L32 128zM339.8 251.8c10.9-10.9 10.9-28.7 0-39.6s-28.7-10.9-39.6 0L192 320.4l-44.2-44.2c-10.9-10.9-28.7-10.9-39.6 0s-10.9 28.7 0 39.6l64 64c10.9 10.9 28.7 10.9 39.6 0l128-128z"/></svg>