<svg xmlns="http://www.w3.org/2000/svg" viewBox="0 0 640 512"><!--! Font Awesome Pro 6.2.0 by @fontawesome - https://fontawesome.com License - https://fontawesome.com/license (Commercial License) Copyright 2022 Fonticons, Inc. --><path d="M38.8 5.1C28.4-3.1 13.3-1.2 5.1 9.2S-1.2 34.7 9.2 42.9l592 464c10.4 8.2 25.5 6.3 33.7-4.1s6.3-25.5-4.1-33.7L512 376V128H195.6L154.8 96H512c17.7 0 32-14.3 32-32s-14.3-32-32-32H416l-7.2-14.3C403.4 6.8 392.3 0 380.2 0H259.8c-12.1 0-23.2 6.8-28.6 17.7L224 32H128c-13.4 0-24.8 8.2-29.6 19.8L38.8 5.1zM304 213v-5c0-8.8 7.2-16 16-16s16 7.2 16 16v30L304 213zm96 75.2V208c0-8.8 7.2-16 16-16s16 7.2 16 16V313.3l-32-25.1zM128 448c0 35.3 28.7 64 64 64H448c20.1 0 38.1-9.3 49.8-23.8L431.5 436c-1.8 6.9-8 12-15.5 12c-8.8 0-16-7.2-16-16V411.2l-64-50.4V432c0 8.8-7.2 16-16 16s-16-7.2-16-16V335.5l-64-50.4V432c0 8.8-7.2 16-16 16s-16-7.2-16-16V259.9l-80-63V448z"/></svg>