<svg xmlns="http://www.w3.org/2000/svg" viewBox="0 0 640 512"><!--! Font Awesome Pro 6.2.0 by @fontawesome - https://fontawesome.com License - https://fontawesome.com/license (Commercial License) Copyright 2022 Fonticons, Inc. --><path d="M147.8 0H268.2c12.1 0 23.2 6.8 28.6 17.7L304 32h80c17.7 0 32 14.3 32 32s-14.3 32-32 32H32C14.3 96 0 81.7 0 64S14.3 32 32 32h80l7.2-14.3C124.6 6.8 135.7 0 147.8 0zM32 128H384L362.8 467c-1.6 25.3-22.6 45-47.9 45H101.1c-25.3 0-46.3-19.7-47.9-45L32 128zm448 0H608c17.7 0 32 14.3 32 32s-14.3 32-32 32H480c-17.7 0-32-14.3-32-32s14.3-32 32-32zm0 128h96c17.7 0 32 14.3 32 32s-14.3 32-32 32H480c-17.7 0-32-14.3-32-32s14.3-32 32-32zM448 416c0-17.7 14.3-32 32-32h32c17.7 0 32 14.3 32 32s-14.3 32-32 32H480c-17.7 0-32-14.3-32-32z"/></svg>