<svg xmlns="http://www.w3.org/2000/svg" viewBox="0 0 512 512"><!--! Font Awesome Pro 6.2.0 by @fontawesome - https://fontawesome.com License - https://fontawesome.com/license (Commercial License) Copyright 2022 Fonticons, Inc. --><path d="M290.5 51.8C283.3 39.5 270.2 32 256 32s-27.3 7.5-34.5 19.8l-216 368c-7.3 12.4-7.3 27.7-.2 40.1S25.7 480 40 480H472c14.3 0 27.6-7.7 34.7-20.1s7-27.8-.2-40.1l-216-368zM152.9 304.7l15.6 9.8 64 40c4.7 2.9 7.5 8.1 7.5 13.6v32c0 8.8-7.2 16-16 16s-16-7.2-16-16V376.9l-40.9-25.5-24.5 55.2c-3.6 8.1-13 11.7-21.1 8.1s-11.7-13-8.1-21.1l32-72 7.5-16.8zm112-45.7l19.7 49.2L338 339l16.3-27.2c2.9-4.8 8.1-7.8 13.7-7.8s10.8 2.9 13.7 7.8l48 80c3 4.9 3 11.1 .2 16.1s-8.2 8.1-13.9 8.1H320c-5.8 0-11.1-3.1-13.9-8.1s-2.8-11.2 .2-16.1l15.2-25.4L168 277.9c-3.8-2.2-6.6-5.9-7.6-10.2s-.2-8.8 2.3-12.5l4.2-6.4c10.3-15.5 27.7-24.8 46.3-24.8c22.7 0 43.2 13.8 51.6 34.9zM272 184c0 13.3-10.7 24-24 24s-24-10.7-24-24s10.7-24 24-24s24 10.7 24 24z"/></svg>