<svg xmlns="http://www.w3.org/2000/svg" viewBox="0 0 640 512"><!--! Font Awesome Pro 6.2.0 by @fontawesome - https://fontawesome.com License - https://fontawesome.com/license (Commercial License) Copyright 2022 Fonticons, Inc. --><path d="M48 32H352c26.5 0 48 21.5 48 48V240c0 26.5-21.5 48-48 48H48c-26.5 0-48-21.5-48-48V80C0 53.5 21.5 32 48 32zM80 80c-8.8 0-16 7.2-16 16V224c0 8.8 7.2 16 16 16s16-7.2 16-16V96c0-8.8-7.2-16-16-16zM224 96V224c0 8.8 7.2 16 16 16s16-7.2 16-16V96c0-8.8-7.2-16-16-16s-16 7.2-16 16zM160 80c-8.8 0-16 7.2-16 16V224c0 8.8 7.2 16 16 16s16-7.2 16-16V96c0-8.8-7.2-16-16-16zM304 96V224c0 8.8 7.2 16 16 16s16-7.2 16-16V96c0-8.8-7.2-16-16-16s-16 7.2-16 16zm128 72c0-13.3 10.7-24 24-24h72.8c16.8 0 32.7 7.5 43.3 20.5L631 236.4c5.8 7.1 9 16.1 9 25.3V272v16 64c0 17.7-14.3 32-32 32h-1.6c1 5.2 1.6 10.5 1.6 16c0 44.2-35.8 80-80 80s-80-35.8-80-80c0-5.5 .6-10.8 1.6-16H432 286.4c1 5.2 1.6 10.5 1.6 16c0 44.2-35.8 80-80 80c-26.2 0-49.4-12.6-64-32c-14.6 19.4-37.8 32-64 32c-44.2 0-80-35.8-80-80V384 352c0-17.7 14.3-32 32-32H80 208 432V288 256 168zm48 88H585l-50-61.1c-1.5-1.9-3.8-2.9-6.2-2.9H480v64zm80 144c0-17.7-14.3-32-32-32s-32 14.3-32 32s14.3 32 32 32s32-14.3 32-32zM208 432c17.7 0 32-14.3 32-32s-14.3-32-32-32s-32 14.3-32 32s14.3 32 32 32zm-96-32c0-17.7-14.3-32-32-32s-32 14.3-32 32s14.3 32 32 32s32-14.3 32-32z"/></svg>