<svg xmlns="http://www.w3.org/2000/svg" viewBox="0 0 640 512"><!--! Font Awesome Pro 6.2.0 by @fontawesome - https://fontawesome.com License - https://fontawesome.com/license (Commercial License) Copyright 2022 Fonticons, Inc. --><path d="M456 144c-13.3 0-24 10.7-24 24v88 32 32H208 80 32c-17.7 0-32 14.3-32 32v32 16c0 44.2 35.8 80 80 80c26.2 0 49.4-12.6 64-32c14.6 19.4 37.8 32 64 32c44.2 0 80-35.8 80-80c0-5.5-.6-10.8-1.6-16L432 384l17.6 0c-1 5.2-1.6 10.5-1.6 16c0 44.2 35.8 80 80 80s80-35.8 80-80c0-5.5-.6-10.8-1.6-16H608c17.7 0 32-14.3 32-32V288 272 261.7c0-9.2-3.2-18.2-9-25.3l-58.8-71.8c-10.6-13-26.5-20.5-43.3-20.5H456zM585 256H480V192h48.8c2.4 0 4.7 1.1 6.2 2.9L585 256zM528 432c-17.7 0-32-14.3-32-32s14.3-32 32-32s32 14.3 32 32s-14.3 32-32 32zM240 400c0 17.7-14.3 32-32 32s-32-14.3-32-32s14.3-32 32-32s32 14.3 32 32zM80 432c-17.7 0-32-14.3-32-32s14.3-32 32-32s32 14.3 32 32s-14.3 32-32 32z"/></svg>