<svg xmlns="http://www.w3.org/2000/svg" viewBox="0 0 640 512"><!--! Font Awesome Pro 6.2.0 by @fontawesome - https://fontawesome.com License - https://fontawesome.com/license (Commercial License) Copyright 2022 Fonticons, Inc. --><path d="M288 16c0-8.8 7.2-16 16-16h32c8.8 0 16 7.2 16 16V48c0 8.8-7.2 16-16 16H304c-8.8 0-16-7.2-16-16V16zm0 192c0-8.8 7.2-16 16-16h32c8.8 0 16 7.2 16 16v32c0 8.8-7.2 16-16 16H304c-8.8 0-16-7.2-16-16V208zM352 96h32c8.8 0 16 7.2 16 16v32c0 8.8-7.2 16-16 16H352c-8.8 0-16-7.2-16-16V112c0-8.8 7.2-16 16-16zm32-80c0-8.8 7.2-16 16-16h32c8.8 0 16 7.2 16 16V48c0 8.8-7.2 16-16 16H400c-8.8 0-16-7.2-16-16V16zm64 80h32c8.8 0 16 7.2 16 16v32c0 8.8-7.2 16-16 16H448c-8.8 0-16-7.2-16-16V112c0-8.8 7.2-16 16-16zm32-80c0-8.8 7.2-16 16-16h32c8.8 0 16 7.2 16 16V48c0 8.8-7.2 16-16 16H496c-8.8 0-16-7.2-16-16V16zm64 80h32c8.8 0 16 7.2 16 16v32c0 8.8-7.2 16-16 16H544c-8.8 0-16-7.2-16-16V112c0-8.8 7.2-16 16-16zm32-80c0-8.8 7.2-16 16-16h32c8.8 0 16 7.2 16 16V48c0 8.8-7.2 16-16 16H592c-8.8 0-16-7.2-16-16V16zm16 176h32c8.8 0 16 7.2 16 16v32c0 8.8-7.2 16-16 16H592c-8.8 0-16-7.2-16-16V208c0-8.8 7.2-16 16-16zM384 208c0-8.8 7.2-16 16-16H528c8.8 0 16 7.2 16 16v32c0 8.8-7.2 16-16 16H400c-8.8 0-16-7.2-16-16V208zM117.5 1.4c19.4-5.3 39.7 4.6 47.4 23.2l40 96c6.8 16.3 2.1 35.2-11.6 46.3L144 207.3c33.3 70.4 90.3 127.4 160.7 160.7L345 318.7c11.2-13.7 30-18.4 46.3-11.6l96 40c18.6 7.7 28.5 28 23.2 47.4l-24 88C481.8 499.9 466 512 448 512C200.6 512 0 311.4 0 64C0 46 12.1 30.2 29.5 25.4l88-24z"/></svg>