<svg xmlns="http://www.w3.org/2000/svg" viewBox="0 0 512 512"><!--! Font Awesome Pro 6.2.0 by @fontawesome - https://fontawesome.com License - https://fontawesome.com/license (Commercial License) Copyright 2022 Fonticons, Inc. --><path d="M506.3 274.3L368.3 136.3c-5.3-5.3-12.5-8.3-20-8.3c-15.6 0-28.3 12.7-28.3 28.3l0 83.7-208 0c-8.8 0-16-7.2-16-16L96 64c0-17.7-14.3-32-32-32L32 32C14.3 32 0 46.3 0 64L0 224c0 61.9 50.1 112 112 112l208 0 0 83.7c0 15.6 12.7 28.3 28.3 28.3c7.5 0 14.7-3 20-8.3L506.3 301.6c3.6-3.6 5.7-8.5 5.7-13.7s-2-10-5.7-13.7z"/></svg>