<svg xmlns="http://www.w3.org/2000/svg" viewBox="0 0 512 512"><!--! Font Awesome Pro 6.2.0 by @fontawesome - https://fontawesome.com License - https://fontawesome.com/license (Commercial License) Copyright 2022 Fonticons, Inc. --><path d="M5.7 274.3L143.7 136.3c5.3-5.3 12.5-8.3 20-8.3c15.6 0 28.3 12.7 28.3 28.3l0 83.7 208 0c8.8 0 16-7.2 16-16l0-160c0-17.7 14.3-32 32-32l32 0c17.7 0 32 14.3 32 32l0 160c0 61.9-50.1 112-112 112l-208 0 0 83.7c0 15.6-12.7 28.3-28.3 28.3c-7.5 0-14.7-3-20-8.3L5.7 301.6C2 298 0 293.1 0 288s2-10 5.7-13.7z"/></svg>