<svg xmlns="http://www.w3.org/2000/svg" viewBox="0 0 512 512"><!--! Font Awesome Pro 6.2.0 by @fontawesome - https://fontawesome.com License - https://fontawesome.com/license (Commercial License) Copyright 2022 Fonticons, Inc. --><path d="M64 64C64 28.7 92.7 0 128 0H354.7c17 0 33.3 6.7 45.3 18.7L429.3 48c12 12 18.7 28.3 18.7 45.3V192h32c17.7 0 32 14.3 32 32v32c0 17.7-14.3 32-32 32V448c0 35.3-28.7 64-64 64H96c-35.3 0-64-28.7-64-64V288c-17.7 0-32-14.3-32-32V224c0-17.7 14.3-32 32-32H64V64zm320 64H352c-17.7 0-32-14.3-32-32V64H128V192h18.7c8.5 0 16.6 3.4 22.6 9.4l13.3 13.3c6 6 14.1 9.4 22.6 9.4H306.7c8.5 0 16.6-3.4 22.6-9.4l13.3-13.3c6-6 14.1-9.4 22.6-9.4H384V128zM160 288c-8.8 0-16 7.2-16 16s7.2 16 16 16s16-7.2 16-16s-7.2-16-16-16zm64 0c-8.8 0-16 7.2-16 16s7.2 16 16 16s16-7.2 16-16s-7.2-16-16-16zm64 0c-8.8 0-16 7.2-16 16s7.2 16 16 16s16-7.2 16-16s-7.2-16-16-16zm64 0c-8.8 0-16 7.2-16 16s7.2 16 16 16s16-7.2 16-16s-7.2-16-16-16zm64 0c-8.8 0-16 7.2-16 16s7.2 16 16 16s16-7.2 16-16s-7.2-16-16-16zM96 288c-8.8 0-16 7.2-16 16s7.2 16 16 16s16-7.2 16-16s-7.2-16-16-16zm64 128c-8.8 0-16 7.2-16 16s7.2 16 16 16H352c8.8 0 16-7.2 16-16s-7.2-16-16-16H160zm-32-32c8.8 0 16-7.2 16-16s-7.2-16-16-16s-16 7.2-16 16s7.2 16 16 16zm64 0c8.8 0 16-7.2 16-16s-7.2-16-16-16s-16 7.2-16 16s7.2 16 16 16zm80-16c0-8.8-7.2-16-16-16s-16 7.2-16 16s7.2 16 16 16s16-7.2 16-16zm48 16c8.8 0 16-7.2 16-16s-7.2-16-16-16s-16 7.2-16 16s7.2 16 16 16zm80-16c0-8.8-7.2-16-16-16s-16 7.2-16 16s7.2 16 16 16s16-7.2 16-16z"/></svg>