<svg xmlns="http://www.w3.org/2000/svg" viewBox="0 0 384 512"><!--! Font Awesome Pro 6.2.0 by @fontawesome - https://fontawesome.com License - https://fontawesome.com/license (Commercial License) Copyright 2022 Fonticons, Inc. --><path d="M32 32C14.3 32 0 46.3 0 64S14.3 96 32 96H352c17.7 0 32-14.3 32-32s-14.3-32-32-32H32zM209.4 135.5c-4.5-4.8-10.8-7.5-17.4-7.5s-12.9 2.7-17.4 7.5l-136 144c-6.6 7-8.4 17.2-4.6 26s12.5 14.5 22 14.5h72V448c0 17.7 14.3 32 32 32h64c17.7 0 32-14.3 32-32V320h72c9.6 0 18.2-5.7 22-14.5s2-19-4.6-26l-136-144z"/></svg>