<svg xmlns="http://www.w3.org/2000/svg" viewBox="0 0 640 512"><!--! Font Awesome Pro 6.2.0 by @fontawesome - https://fontawesome.com License - https://fontawesome.com/license (Commercial License) Copyright 2022 Fonticons, Inc. --><path d="M64 96C28.7 96 0 124.7 0 160V352c0 35.3 28.7 64 64 64H416c17.7 0 32-14.3 32-32V128c0-17.7-14.3-32-32-32H64zm544 32H480V384H608c17.7 0 32-14.3 32-32V160c0-17.7-14.3-32-32-32zm-48 56c13.3 0 24 10.7 24 24s-10.7 24-24 24s-24-10.7-24-24s10.7-24 24-24zM536 304c0-13.3 10.7-24 24-24s24 10.7 24 24s-10.7 24-24 24s-24-10.7-24-24z"/></svg>