<svg xmlns="http://www.w3.org/2000/svg" viewBox="0 0 640 512"><!--! Font Awesome Pro 6.2.0 by @fontawesome - https://fontawesome.com License - https://fontawesome.com/license (Commercial License) Copyright 2022 Fonticons, Inc. --><path d="M224 256c-70.7 0-128-57.3-128-128S153.3 0 224 0s128 57.3 128 128s-57.3 128-128 128zm-45.7 48h91.4c43.2 0 82.8 15.4 113.7 41c-28.2 19.7-47.4 50-47.4 87c0 32.9 15.1 60.4 38.2 80H29.7C13.3 512 0 498.7 0 482.3C0 383.8 79.8 304 178.3 304zm450-120.7c7.4 6.1 11.7 15.2 11.7 24.7v48c0 15.3-10.8 28.4-25.7 31.4L560 298.2V432c0 44.2-43 80-96 80s-96-35.8-96-80s43-80 96-80c11.2 0 22 1.6 32 4.6V272 224c0-15.3 10.8-28.4 25.7-31.4l80-16c9.4-1.9 19.1 .6 26.6 6.6z"/></svg>