<svg xmlns="http://www.w3.org/2000/svg" viewBox="0 0 448 512"><!--! Font Awesome Pro 6.2.0 by @fontawesome - https://fontawesome.com License - https://fontawesome.com/license (Commercial License) Copyright 2022 Fonticons, Inc. --><path d="M304 144c0 44.2-35.8 80-80 80s-80-35.8-80-80V128c0-5.5 .6-10.8 1.6-16H176c29.8 0 55.9-16.3 69.6-40.5C257.3 86.4 275.5 96 296 96h1.3c4.3 9.8 6.7 20.6 6.7 32v16zM224 0C153.3 0 96 57.3 96 128v11c0 33.9-13.5 66.5-37.5 90.5l-3.9 3.9c-4.2 4.2-6.6 10-6.6 16C48 261.9 58.1 272 70.6 272H224 377.4c12.5 0 22.6-10.1 22.6-22.6c0-6-2.4-11.8-6.6-16l-3.9-3.9c-24-24-37.5-56.6-37.5-90.5V128C352 57.3 294.7 0 224 0zm41.1 512H417.3c17 0 30.7-13.8 30.7-30.7c0-80.6-59.1-147.4-136.3-159.4L272.2 483.1 238.9 359.2l18.6-31c6.4-10.7-1.3-24.2-13.7-24.2H224 204.3c-12.4 0-20.1 13.6-13.7 24.2l18.6 31L175.8 483.1 136.3 321.9C59.1 333.9 0 400.7 0 481.3c0 17 13.8 30.7 30.7 30.7H182.9h82.3z"/></svg>