<svg xmlns="http://www.w3.org/2000/svg" viewBox="0 0 640 512"><!--! Font Awesome Pro 6.2.0 by @fontawesome - https://fontawesome.com License - https://fontawesome.com/license (Commercial License) Copyright 2022 Fonticons, Inc. --><path d="M144 160c44.2 0 80-35.8 80-80s-35.8-80-80-80S64 35.8 64 80s35.8 80 80 80zm368 0c44.2 0 80-35.8 80-80s-35.8-80-80-80s-80 35.8-80 80s35.8 80 80 80zM0 298.7C0 310.4 9.6 320 21.3 320H234.7c.2 0 .4 0 .7 0c-26.6-23.5-43.3-57.8-43.3-96c0-7.6 .7-15 1.9-22.3c-13.6-6.3-28.7-9.7-44.6-9.7H106.7C47.8 192 0 239.8 0 298.7zM405.3 320h77.4c6.6-18.6 24.4-32 45.3-32h32c20.9 0 38.7 13.4 45.3 32h13.4c11.8 0 21.3-9.6 21.3-21.3C640 239.8 592.2 192 533.3 192H490.7c-15.9 0-31 3.5-44.6 9.7c1.3 7.2 1.9 14.7 1.9 22.3c0 38.2-16.8 72.5-43.3 96c.2 0 .4 0 .7 0zM416 400c0-14.6 6.5-27.7 16.9-36.5C416.3 356.1 398 352 378.7 352H261.3C187.7 352 128 411.7 128 485.3c0 14.7 11.9 26.7 26.7 26.7H482.7c-1.8-5-2.7-10.4-2.7-16V480H464c-26.5 0-48-21.5-48-48V400zm0-176c0-53-43-96-96-96s-96 43-96 96s43 96 96 96s96-43 96-96zm96 112v48H464c-8.8 0-16 7.2-16 16v32c0 8.8 7.2 16 16 16h48v48c0 8.8 7.2 16 16 16h32c8.8 0 16-7.2 16-16V448h48c8.8 0 16-7.2 16-16V400c0-8.8-7.2-16-16-16H576V336c0-8.8-7.2-16-16-16H528c-8.8 0-16 7.2-16 16z"/></svg>