<svg xmlns="http://www.w3.org/2000/svg" viewBox="0 0 640 512"><!--! Font Awesome Pro 6.2.0 by @fontawesome - https://fontawesome.com License - https://fontawesome.com/license (Commercial License) Copyright 2022 Fonticons, Inc. --><path d="M352 128c0 70.7-57.3 128-128 128s-128-57.3-128-128S153.3 0 224 0s128 57.3 128 128zM0 482.3c0-81 54-149.4 128-171.1v59.1c-23.1 6.9-40 28.3-40 53.7c0 30.9 25.1 56 56 56s56-25.1 56-56c0-25.4-16.9-46.8-40-53.7V304.9c6-.6 12.1-.9 18.3-.9h91.4c6.2 0 12.3 .3 18.3 .9V362c-27.6 7.1-48 32.2-48 62v40c0 8.8 7.2 16 16 16h16c8.8 0 16-7.2 16-16s-7.2-16-16-16V424c0-17.7 14.3-32 32-32s32 14.3 32 32v24c-8.8 0-16 7.2-16 16s7.2 16 16 16h16c8.8 0 16-7.2 16-16V424c0-29.8-20.4-54.9-48-62V311.2c74 21.7 128 90.1 128 171.1c0 16.4-13.3 29.7-29.7 29.7H29.7C13.3 512 0 498.7 0 482.3zM168 424c0 13.3-10.7 24-24 24s-24-10.7-24-24s10.7-24 24-24s24 10.7 24 24zM432 0H592c26.5 0 48 21.5 48 48V176c0 26.5-21.5 48-48 48H544l-83.2 62.4c-2.4 1.8-5.7 2.1-8.4 .8s-4.4-4.1-4.4-7.2V224H432c-26.5 0-48-21.5-48-48V48c0-26.5 21.5-48 48-48z"/></svg>