<svg xmlns="http://www.w3.org/2000/svg" viewBox="0 0 448 512"><!--! Font Awesome Pro 6.2.0 by @fontawesome - https://fontawesome.com License - https://fontawesome.com/license (Commercial License) Copyright 2022 Fonticons, Inc. --><path d="M384 48c0 20.9-13.4 38.7-32 45.3V112v64c0 70.7-57.3 128-128 128s-128-57.3-128-128V112 93.3C77.4 86.7 64 68.9 64 48C64 21.5 85.5 0 112 0c14.3 0 27.2 6.3 36 16.3C156.8 6.3 169.7 0 184 0c16.7 0 31.4 8.5 40 21.5C232.6 8.5 247.3 0 264 0c14.3 0 27.2 6.3 36 16.3C308.8 6.3 321.7 0 336 0c26.5 0 48 21.5 48 48zM304 176V160H144v16c0 44.2 35.8 80 80 80s80-35.8 80-80zM96 320l106.4 26.6-66.2 26.5C111.9 382.8 96 406.3 96 432.5V512H25.6C11.5 512 0 500.5 0 486.4c0-60.9 40.5-112.3 96-128.8V320zM352 512H128V432.5c0-13.1 8-24.9 20.1-29.7L352 321.2v36.3c55.5 16.5 96 68 96 128.8c0 14.1-11.5 25.6-25.6 25.6H352zM224 432c0-8.8-7.2-16-16-16s-16 7.2-16 16s7.2 16 16 16s16-7.2 16-16zm80 16c8.8 0 16-7.2 16-16s-7.2-16-16-16s-16 7.2-16 16s7.2 16 16 16z"/></svg>