<svg xmlns="http://www.w3.org/2000/svg" viewBox="0 0 640 512"><!--! Font Awesome Pro 6.2.0 by @fontawesome - https://fontawesome.com License - https://fontawesome.com/license (Commercial License) Copyright 2022 Fonticons, Inc. --><path d="M144 144V128H304v16c0 44.2-35.8 80-80 80s-80-35.8-80-80zm-.1-124.9c-.3-.2-.6-.4-.8-.6L140 16 124.4 3.5C121.5 1.2 118 0 114.4 0H112c-8.8 0-16 7.2-16 16V39v3.2 .1V144c0 70.7 57.3 128 128 128s128-57.3 128-128V42.3v-.1V39 16c0-8.8-7.2-16-16-16h-2.4c-3.6 0-7.2 1.2-10 3.5L308 16l-3 2.4c-.3 .2-.6 .4-.8 .6l-.1 .1c-10.2 7.5-23.8 8.3-34.9 2L238.9 4c-4.6-2.6-9.7-4-14.9-4s-10.4 1.4-14.9 4L178.9 21.2c-11 6.3-24.7 5.5-34.9-2l-.1-.1zM168 304C75.2 304 0 379.2 0 472v8c0 17.7 14.3 32 32 32H416c17.7 0 32-14.3 32-32v-8c0-92.8-75.2-168-168-168H168zm264-48c61.9 0 112-50.1 112-112s-50.1-112-112-112c-17.2 0-33.5 3.9-48 10.8V144c0 5.4-.3 10.7-.8 16c-2.4 24.3-10.3 47.1-22.4 67c-.5 .8-1 1.6-1.4 2.3C379 245.9 404.3 256 432 256zm39.4 256H609.3c17 0 30.7-13.8 30.7-30.7C640 392.2 567.8 320 478.7 320H417.3c-2.4 0-4.8 .1-7.1 .2C452.9 356.8 480 411.3 480 472v8c0 11.7-3.1 22.6-8.6 32z"/></svg>