<svg xmlns="http://www.w3.org/2000/svg" viewBox="0 0 640 512"><!--! Font Awesome Pro 6.2.0 by @fontawesome - https://fontawesome.com License - https://fontawesome.com/license (Commercial License) Copyright 2022 Fonticons, Inc. --><path d="M352 128c0 70.7-57.3 128-128 128s-128-57.3-128-128S153.3 0 224 0s128 57.3 128 128zM0 482.3C0 383.8 79.8 304 178.3 304h91.4c43.6 0 83.6 15.7 114.6 41.7c-.2 2.1-.3 4.2-.3 6.3V480c0 11.7 3.1 22.6 8.6 32H29.7C13.3 512 0 498.7 0 482.3zM496 272v48h16 48 48c17.7 0 32 14.3 32 32V480c0 17.7-14.3 32-32 32H448c-17.7 0-32-14.3-32-32V352c0-17.7 14.3-32 32-32V272c0-44.2 35.8-80 80-80s80 35.8 80 80H560c0-17.7-14.3-32-32-32s-32 14.3-32 32z"/></svg>