<svg xmlns="http://www.w3.org/2000/svg" viewBox="0 0 448 512"><!--! Font Awesome Pro 6.2.0 by @fontawesome - https://fontawesome.com License - https://fontawesome.com/license (Commercial License) Copyright 2022 Fonticons, Inc. --><path d="M0 64C0 46.3 14.3 32 32 32H96c17.7 0 32 14.3 32 32H320c0-17.7 14.3-32 32-32h64c17.7 0 32 14.3 32 32v64c0 17.7-14.3 32-32 32H384.3l-4.5 7.9-28.4 49.7c.4 2.1 .6 4.2 .6 6.4v64c0 2.2-.2 4.3-.6 6.4l28.4 49.7 4.5 7.9H416c17.7 0 32 14.3 32 32v64c0 17.7-14.3 32-32 32H352c-17.7 0-32-14.3-32-32H128c0 17.7-14.3 32-32 32H32c-17.7 0-32-14.3-32-32V384c0-17.7 14.3-32 32-32V160c-17.7 0-32-14.3-32-32V64zM322.2 372.3L292.3 320H256c-17.7 0-32-14.3-32-32V224c0-17.7 14.3-32 32-32h36.3l29.9-52.3c-1.4-3.6-2.2-7.5-2.2-11.7H128c0 17.7-14.3 32-32 32V352c17.7 0 32 14.3 32 32H320c0-4.1 .8-8.1 2.2-11.7zM48 80v32H80V80H48zm320 0v32h32V80H368zM80 400H48v32H80V400zm288 0v32h32V400H368zM304 240H272v32h32V240z"/></svg>