<svg xmlns="http://www.w3.org/2000/svg" viewBox="0 0 512 512"><!--! Font Awesome Pro 6.2.0 by @fontawesome - https://fontawesome.com License - https://fontawesome.com/license (Commercial License) Copyright 2022 Fonticons, Inc. --><path d="M192 32c0-17.7 14.3-32 32-32h64c17.7 0 32 14.3 32 32v9.3C392.2 62.8 449.2 119.8 470.7 192H480c17.7 0 32 14.3 32 32v64c0 17.7-14.3 32-32 32h-9.3C449.2 392.2 392.2 449.2 320 470.7V480c0 17.7-14.3 32-32 32H224c-17.7 0-32-14.3-32-32v-9.3C119.8 449.2 62.8 392.2 41.3 320H32c-17.7 0-32-14.3-32-32V224c0-17.7 14.3-32 32-32h9.3C62.8 119.8 119.8 62.8 192 41.3V32zM403.7 194.4c-16.2-38.9-47.3-70-86.2-86.2C312.7 119.9 301.3 128 288 128H224c-13.3 0-24.7-8.1-29.6-19.7c-38.9 16.2-70 47.3-86.2 86.2c11.6 4.8 19.7 16.2 19.7 29.6v64c0 13.3-8.1 24.7-19.7 29.6c16.2 38.9 47.3 70 86.2 86.2c4.8-11.6 16.2-19.7 29.6-19.7h64c13.3 0 24.7 8.1 29.6 19.7c38.9-16.2 70-47.3 86.2-86.2C392.1 312.7 384 301.3 384 288V224c0-13.3 8.1-24.7 19.7-29.6zM240 48V80h32V48H240zm32 384H240v32h32V432zM432 240v32h32V240H432zM80 240H48v32H80V240z"/></svg>