<svg xmlns="http://www.w3.org/2000/svg" viewBox="0 0 640 512"><!--! Font Awesome Pro 6.2.0 by @fontawesome - https://fontawesome.com License - https://fontawesome.com/license (Commercial License) Copyright 2022 Fonticons, Inc. --><path d="M38.8 5.1C28.4-3.1 13.3-1.2 5.1 9.2S-1.2 34.7 9.2 42.9l592 464c10.4 8.2 25.5 6.3 33.7-4.1s6.3-25.5-4.1-33.7l-88-69C582.8 365 608 313.4 608 256c0-60.1-27.7-113.8-70.9-149c-10.3-8.4-25.4-6.8-33.8 3.5s-6.8 25.4 3.5 33.8C539.3 170.7 560 210.9 560 256s-20.7 85.3-53.2 111.8c-.9 .7-1.7 1.5-2.4 2.3l-43.6-34.2c5.5 .1 11.1-1.6 15.7-5.4C498.1 312.9 512 286.1 512 256s-13.9-56.9-35.4-74.5c-10.3-8.4-25.4-6.8-33.8 3.5s-6.8 25.4 3.5 33.8C457.1 227.6 464 241 464 256s-6.9 28.4-17.7 37.3c-7.6 6.2-10.4 16-8 24.9L384 275.7V64c0-12.6-7.4-24-18.9-29.2s-25-3.1-34.4 5.3l-115.9 103L38.8 5.1zM64 224v64c0 35.3 28.7 64 64 64h67.8L330.7 471.9c9.4 8.4 22.9 10.4 34.4 5.3S384 460.6 384 448V398.5L93.8 169.9C75.9 181.2 64 201.2 64 224z"/></svg>