<svg xmlns="http://www.w3.org/2000/svg" viewBox="0 0 512 512"><!--! Font Awesome Pro 6.2.0 by @fontawesome - https://fontawesome.com License - https://fontawesome.com/license (Commercial License) Copyright 2022 Fonticons, Inc. --><path d="M512 256c0 141.4-114.6 256-256 256S0 397.4 0 256S114.6 0 256 0S512 114.6 512 256zM160 80c-8.8 0-16 7.2-16 16v48H96c-8.8 0-16 7.2-16 16s7.2 16 16 16h48v64H96c-8.8 0-16 7.2-16 16s7.2 16 16 16h48v64H96c-8.8 0-16 7.2-16 16s7.2 16 16 16h48v48c0 8.8 7.2 16 16 16s16-7.2 16-16V368h64v48c0 8.8 7.2 16 16 16s16-7.2 16-16V368h64v48c0 8.8 7.2 16 16 16s16-7.2 16-16V368h48c8.8 0 16-7.2 16-16s-7.2-16-16-16H368V272h48c8.8 0 16-7.2 16-16s-7.2-16-16-16H368V176h48c8.8 0 16-7.2 16-16s-7.2-16-16-16H368V96c0-8.8-7.2-16-16-16s-16 7.2-16 16v48H272V96c0-8.8-7.2-16-16-16s-16 7.2-16 16v48H176V96c0-8.8-7.2-16-16-16zm16 256V272h64v64H176zm96 0V272h64v64H272zm64-160v64H272V176h64zm-96 0v64H176V176h64z"/></svg>