<svg xmlns="http://www.w3.org/2000/svg" viewBox="0 0 640 512"><!--! Font Awesome Pro 6.2.0 by @fontawesome - https://fontawesome.com License - https://fontawesome.com/license (Commercial License) Copyright 2022 Fonticons, Inc. --><path d="M0 488V171.3c0-26.2 15.9-49.7 40.2-59.4L308.1 4.8c7.6-3.1 16.1-3.1 23.8 0L599.8 111.9c24.3 9.7 40.2 33.3 40.2 59.4V488c0 13.3-10.7 24-24 24H568c-13.3 0-24-10.7-24-24V224c0-17.7-14.3-32-32-32H128c-17.7 0-32 14.3-32 32V488c0 13.3-10.7 24-24 24H24c-13.3 0-24-10.7-24-24zM376 384H488c13.3 0 24 10.7 24 24v80c0 13.3-10.7 24-24 24H376c-13.3 0-24-10.7-24-24V408c0-13.3 10.7-24 24-24zM128 248c0-13.3 10.7-24 24-24H296c13.3 0 24 10.7 24 24v80c0 13.3-10.7 24-24 24H152c-13.3 0-24-10.7-24-24V248zm24 136H296c13.3 0 24 10.7 24 24v80c0 13.3-10.7 24-24 24H152c-13.3 0-24-10.7-24-24V408c0-13.3 10.7-24 24-24z"/></svg>