<svg xmlns="http://www.w3.org/2000/svg" viewBox="0 0 384 512"><!--! Font Awesome Pro 6.2.0 by @fontawesome - https://fontawesome.com License - https://fontawesome.com/license (Commercial License) Copyright 2022 Fonticons, Inc. --><path d="M64 48H320c0-26.5-21.5-48-48-48H112C85.5 0 64 21.5 64 48zM80 80C35.8 80 0 115.8 0 160V352c0 44.2 35.8 80 80 80H304c44.2 0 80-35.8 80-80V160c0-44.2-35.8-80-80-80H80zM192 298.7c-23.6 0-42.7-19.1-42.7-42.7s19.1-42.7 42.7-42.7s42.7 19.1 42.7 42.7s-19.1 42.7-42.7 42.7zM277.3 352c0 17.7-14.3 32-32 32s-32-14.3-32-32s14.3-32 32-32s32 14.3 32 32zM138.7 384c-17.7 0-32-14.3-32-32s14.3-32 32-32s32 14.3 32 32s-14.3 32-32 32zM277.3 160c0 17.7-14.3 32-32 32s-32-14.3-32-32s14.3-32 32-32s32 14.3 32 32zM138.7 192c-17.7 0-32-14.3-32-32s14.3-32 32-32s32 14.3 32 32s-14.3 32-32 32zM128 256c0 17.7-14.3 32-32 32s-32-14.3-32-32s14.3-32 32-32s32 14.3 32 32zm160 32c-17.7 0-32-14.3-32-32s14.3-32 32-32s32 14.3 32 32s-14.3 32-32 32zM112 512H272c26.5 0 48-21.5 48-48H64c0 26.5 21.5 48 48 48z"/></svg>