<svg xmlns="http://www.w3.org/2000/svg" viewBox="0 0 384 512"><!--! Font Awesome Pro 6.2.0 by @fontawesome - https://fontawesome.com License - https://fontawesome.com/license (Commercial License) Copyright 2022 Fonticons, Inc. --><path d="M64 48C64 21.5 85.5 0 112 0H272c26.5 0 48 21.5 48 48H64zm0 416H320c0 26.5-21.5 48-48 48H112c-26.5 0-48-21.5-48-48zM0 160c0-44.2 35.8-80 80-80H304c44.2 0 80 35.8 80 80V352c0 44.2-35.8 80-80 80H80c-44.2 0-80-35.8-80-80V160zM100.8 264.1l80 77.2c6.2 6 16 6 22.2 0l80-77.2c20.1-19.4 20.1-51.7 0-71.1c-19.1-18.4-49.4-18.4-68.5 0L192 214.9 169.4 193c-19.1-18.4-49.4-18.4-68.5 0c-20.1 19.4-20.1 51.7 0 71.1z"/></svg>