<svg xmlns="http://www.w3.org/2000/svg" viewBox="0 0 640 512"><!--! Font Awesome Pro 6.2.0 by @fontawesome - https://fontawesome.com License - https://fontawesome.com/license (Commercial License) Copyright 2022 Fonticons, Inc. --><path d="M352 32c0-17.7-14.3-32-32-32s-32 14.3-32 32V480c0 17.7 14.3 32 32 32s32-14.3 32-32V32zM544 96c0-17.7-14.3-32-32-32s-32 14.3-32 32V416c0 17.7 14.3 32 32 32s32-14.3 32-32V96zM256 128c0-17.7-14.3-32-32-32s-32 14.3-32 32V384c0 17.7 14.3 32 32 32s32-14.3 32-32V128zm192 32c0-17.7-14.3-32-32-32s-32 14.3-32 32V352c0 17.7 14.3 32 32 32s32-14.3 32-32V160zM160 224c0-17.7-14.3-32-32-32s-32 14.3-32 32v64c0 17.7 14.3 32 32 32s32-14.3 32-32V224zM0 256c0 17.7 14.3 32 32 32s32-14.3 32-32s-14.3-32-32-32s-32 14.3-32 32zm576 0c0 17.7 14.3 32 32 32s32-14.3 32-32s-14.3-32-32-32s-32 14.3-32 32z"/></svg>