<svg xmlns="http://www.w3.org/2000/svg" viewBox="0 0 640 512"><!--! Font Awesome Pro 6.2.0 by @fontawesome - https://fontawesome.com License - https://fontawesome.com/license (Commercial License) Copyright 2022 Fonticons, Inc. --><path d="M44.1 188.8C18.5 180.5 0 156.4 0 128C0 92.7 28.7 64 64 64c23.4 0 43.8 12.5 55 31.2C149.2 75.5 185.2 64 224 64c39.3 0 75.8 11.8 106.2 32c7.8 5.2 15.1 10.9 22 17l77.7 60.2-8.6 31.4c-3.2 11.7 1.1 24.2 10.8 31.5c9.6 7.2 22.7 7.9 33 1.7l27.1-16.3L629.4 327.8C636.1 333 640 341 640 349.4c0 6.8-2.5 13.4-7.1 18.4l-63.4 69.7c-6.1 6.7-14.7 10.5-23.7 10.5h-2c-5.2 0-10.2-1.2-14.8-3.6L380.7 367c-34.8 49-92 81-156.7 81C118 448 32 362 32 256c0-23.6 4.3-46.3 12.1-67.2zM288 256c0-35.3-28.7-64-64-64s-64 28.7-64 64s28.7 64 64 64s64-28.7 64-64zM64 144c8.8 0 16-7.2 16-16s-7.2-16-16-16s-16 7.2-16 16s7.2 16 16 16z"/></svg>