<svg xmlns="http://www.w3.org/2000/svg" viewBox="0 0 448 512"><!--! Font Awesome Pro 6.2.0 by @fontawesome - https://fontawesome.com License - https://fontawesome.com/license (Commercial License) Copyright 2022 Fonticons, Inc. --><path d="M224 352c-35.3 0-64 28.7-64 64s28.7 64 64 64s64-28.7 64-64s-28.7-64-64-64zm0-160c-70.2 0-137.9 25.6-190.5 72c-13.2 11.7-14.5 31.9-2.8 45.2c11.8 13.3 32 14.5 45.2 2.8c40.9-36.1 93.5-56 148.1-56s107.3 19.9 148.1 56c6.1 5.4 13.7 8 21.2 8c8.8 0 17.7-3.7 24-10.8c11.7-13.2 10.4-33.5-2.8-45.2c-52.6-46.4-120.2-72-190.5-72zM75.8 312c39.5-34.9 91.3-56 148.2-56s108.6 21.1 148.2 56c13.3 11.7 33.5 10.4 45.2-2.8s10.4-33.5-2.8-45.2C363.8 219.2 297 192 224 192s-139.8 27.2-190.5 72c-13.3 11.7-14.5 31.9-2.8 45.2s31.9 14.5 45.2 2.8zM224 480c35.3 0 64-28.7 64-64s-28.7-64-64-64s-64 28.7-64 64s28.7 64 64 64z"/></svg>