<svg xmlns="http://www.w3.org/2000/svg" viewBox="0 0 640 512"><!--! Font Awesome Pro 6.2.0 by @fontawesome - https://fontawesome.com License - https://fontawesome.com/license (Commercial License) Copyright 2022 Fonticons, Inc. --><path d="M418 368c-38.7 67-111.1 112-194 112C100.3 480 0 379.7 0 256S100.3 32 224 32c118.3 0 215.2 91.8 223.4 208H384c-35.3 0-64 28.7-64 64s28.7 64 64 64h34zM248 152c0-13.3-10.7-24-24-24s-24 10.7-24 24V264c0 13.3 10.7 24 24 24s24-10.7 24-24V152zM224 384c17.7 0 32-14.3 32-32s-14.3-32-32-32s-32 14.3-32 32s14.3 32 32 32zm248 48c0-17.7 14.3-32 32-32h32c17.7 0 32-14.3 32-32s-14.3-32-32-32H384c-17.7 0-32-14.3-32-32s14.3-32 32-32H536c53 0 96 43 96 96s-43 96-96 96H504c-17.7 0-32-14.3-32-32zm72-192H479.5c-1.4-22.2-5.6-43.7-12.3-64H544c17.7 0 32-14.3 32-32s-14.3-32-32-32H512c-17.7 0-32-14.3-32-32s14.3-32 32-32h32c53 0 96 43 96 96s-43 96-96 96z"/></svg>