<svg xmlns="http://www.w3.org/2000/svg" viewBox="0 0 640 512"><!--! Font Awesome Pro 6.2.0 by @fontawesome - https://fontawesome.com License - https://fontawesome.com/license (Commercial License) Copyright 2022 Fonticons, Inc. --><path d="M144 32C64.5 32 0 96.5 0 176V336c0 79.5 64.5 144 144 144s144-64.5 144-144V176c0-79.5-64.5-144-144-144zM64 176c0-44.2 35.8-80 80-80s80 35.8 80 80V336c0 44.2-35.8 80-80 80s-80-35.8-80-80V176zM496 32c-79.5 0-144 64.5-144 144V336c0 79.5 64.5 144 144 144s144-64.5 144-144V176c0-79.5-64.5-144-144-144zM416 176c0-44.2 35.8-80 80-80s80 35.8 80 80V336c0 44.2-35.8 80-80 80s-80-35.8-80-80V176z"/></svg>