<svg xmlns="http://www.w3.org/2000/svg" viewBox="0 0 448 512"><!--! Font Awesome Pro 6.2.0 by @fontawesome - https://fontawesome.com License - https://fontawesome.com/license (Commercial License) Copyright 2022 Fonticons, Inc. --><path d="M368 32H336 96 64V96H96 253.7L122.4 216.4 112 225.9V272h32H248c39.8 0 72 32.2 72 72s-32.2 72-72 72H175.4c-20 0-37.9-12.4-44.9-31.1L126 372.8 66 395.2l4.5 12.1C87 451 128.8 480 175.4 480H248c75.1 0 136-60.9 136-136s-60.9-136-136-136H226.3L357.6 87.6 368 78.1V32zm48 2.1l2.3-2.1H416v2.1z"/></svg>