<svg xmlns="http://www.w3.org/2000/svg" viewBox="0 0 640 512"><!--! Font Awesome Pro 6.2.0 by @fontawesome - https://fontawesome.com License - https://fontawesome.com/license (Commercial License) Copyright 2022 Fonticons, Inc. --><path d="M640 32c0-17.7-14.3-32-32-32s-32 14.3-32 32s14.3 32 32 32s32-14.3 32-32zM305.7 67.4L320 96c-14.3-28.6-14.3-28.6-14.3-28.6l0 0-.1 0-.1 .1-.3 .2-.9 .5c-.7 .4-1.7 .9-2.8 1.6c-2.3 1.3-5.4 3.2-9.1 5.7c-7.3 4.9-17 12.2-26.9 22C245.9 116.9 224 148.5 224 192v96 32h0v48c0 44.2 35.8 80 80 80s80-35.8 80-80V272c0-44.2-35.8-80-80-80c-5.5 0-10.8 .6-16 1.6V192c0-20.5 10.1-36.9 22.6-49.4c6.2-6.2 12.4-10.9 17.1-14c2.3-1.5 4.2-2.7 5.4-3.3c.6-.3 1-.6 1.2-.7l.1-.1 28.5-14.2L334.3 53.1 305.7 67.4zM32 64H0v64H32 97.3L39.7 195.2l-7.7 9V216v8 32H64 80c26.5 0 48 21.5 48 48v48c0 17.7-14.3 32-32 32s-32-14.3-32-32H0c0 53 43 96 96 96s96-43 96-96V304c0-47.6-29.8-88.3-71.7-104.5l64-74.6 7.7-9V104 96 64H160 32zm448 80c0-8.8 7.2-16 16-16s16 7.2 16 16V368c0 8.8-7.2 16-16 16s-16-7.2-16-16V144zm16-80c-44.2 0-80 35.8-80 80V368c0 44.2 35.8 80 80 80s80-35.8 80-80V144c0-44.2-35.8-80-80-80zM288 272c0-8.8 7.2-16 16-16s16 7.2 16 16v96c0 8.8-7.2 16-16 16s-16-7.2-16-16V272z"/></svg>