<svg xmlns="http://www.w3.org/2000/svg" viewBox="0 0 576 512"><!--! Font Awesome Pro 6.2.0 by @fontawesome - https://fontawesome.com License - https://fontawesome.com/license (Commercial License) Copyright 2022 Fonticons, Inc. --><path d="M512 96V208H448V176h8 24V128H456h-8V96h64zm-96 32h-8H384v48h24 8v32H288V176h8 24V128H296h-8V96H416v32zm-160 0h-8H224v48h24 8v32H160V176h8 24V128H168h-8V96h96v32zm-128 0h-8H96v48h24 8v32H64V96h64v32zM64 416V240h64v24h-8H96v48h24 8v24h-8H96v48h24 8v32H64zm96-32h8 24V336H168h-8V312h8 24V264H168h-8V240h96v24h-8H224v48h24 8v24h-8H224v48h24 8v32H160V384zm128-72h8 24V264H296h-8V240H416v96h-8H384v48h24 8v32H288V384h8 24V336H296h-8V312zm160 72h8 24V336H456h-8V240h64V416H448V384zM64 32H0V96 416v64H64 512h64V416 96 32H512 64z"/></svg>