<svg xmlns="http://www.w3.org/2000/svg" viewBox="0 0 576 512"><!--! Font Awesome Pro 6.2.0 by @fontawesome - https://fontawesome.com License - https://fontawesome.com/license (Commercial License) Copyright 2022 Fonticons, Inc. --><path d="M47 147.5C37.5 132.6 32 115 32 96C32 43 75 0 128 0c25.2 0 48.1 9.7 65.3 25.6L47 147.5zM422.2 467.4C384.8 495.4 338.3 512 288 512s-96.8-16.6-134.1-44.6l-19.2 19.2L112 509.3 66.7 464l22.6-22.6 19.2-19.2C80.6 384.8 64 338.3 64 288C64 164.3 164.3 64 288 64s224 100.3 224 224c0 50.3-16.6 96.8-44.6 134.2l19.2 19.2L509.3 464 464 509.3l-22.6-22.6-19.2-19.2zM384 25.6C401.1 9.7 424.1 0 449.3 0c53 0 96 43 96 96c0 19-5.5 36.6-15 51.5L384 25.6zM312 176H264v24 64H200 176v48h24 64v64 24h48V376 312h64 24V264H376 312V200 176z"/></svg>