<svg xmlns="http://www.w3.org/2000/svg" viewBox="0 0 576 512"><!--! Font Awesome Pro 6.2.0 by @fontawesome - https://fontawesome.com License - https://fontawesome.com/license (Commercial License) Copyright 2022 Fonticons, Inc. --><path d="M193.3 25.6C176.1 9.7 153.2 0 128 0C75 0 32 43 32 96c0 19 5.5 36.6 15 51.5L193.3 25.6zM288 512c50.3 0 96.8-16.6 134.2-44.6l19.2 19.2L464 509.3 509.3 464l-22.6-22.6-19.2-19.2c28-37.4 44.6-83.8 44.6-134.2C512 164.3 411.7 64 288 64S64 164.3 64 288c0 50.3 16.6 96.8 44.6 134.2L89.4 441.4 66.7 464 112 509.3l22.6-22.6 19.2-19.2c37.4 28 83.8 44.6 134.1 44.6zM530.3 147.5c9.5-14.9 15-32.6 15-51.5c0-53-43-96-96-96C424.1 0 401.1 9.7 384 25.6L530.3 147.5zM312 184v94.1l41 41 17 17L336 369.9l-17-17-48-48-7-7V288 184 160h48v24z"/></svg>