<svg xmlns="http://www.w3.org/2000/svg" viewBox="0 0 576 512"><!--! Font Awesome Pro 6.2.0 by @fontawesome - https://fontawesome.com License - https://fontawesome.com/license (Commercial License) Copyright 2022 Fonticons, Inc. --><path d="M0 32H448V192.7c-5.3-.5-10.6-.7-16-.7c-20.1 0-39.5 3.4-57.5 9.6C352.3 140 293.3 96 224 96C135.6 96 64 167.6 64 256s71.6 160 160 160c12.9 0 25.4-1.5 37.4-4.4c6.5 25.5 18.5 48.7 34.8 68.4H0V32zM224 288c-17.7 0-32-14.3-32-32s14.3-32 32-32s32 14.3 32 32s-14.3 32-32 32zM432 512c-79.5 0-144-64.5-144-144s64.5-144 144-144s144 64.5 144 144s-64.5 144-144 144zm16-208V288H416v16 48H368 352v32h16 48v48 16h32V432 384h48 16V352H496 448V304z"/></svg>