<svg xmlns="http://www.w3.org/2000/svg" viewBox="0 0 640 512"><!--! Font Awesome Pro 6.2.0 by @fontawesome - https://fontawesome.com License - https://fontawesome.com/license (Commercial License) Copyright 2022 Fonticons, Inc. --><path d="M32 0H56 456h24V48H456 56 32V0zm8 512L0 160H512l-5.1 32.3c-3.6-.2-7.2-.3-10.9-.3c-46.9 0-89.5 18.3-121 48.2C342.9 220.1 301.4 208 256 208C154.4 208 72 268.9 72 344s82.4 136 184 136c33.2 0 64.4-6.5 91.3-17.9c12.4 19.6 28.6 36.6 47.5 49.9H40zM256 376c-17.7 0-32-10.7-32-24s14.3-24 32-24s32 10.7 32 24s-14.3 24-32 24zM40 80H472h24v48H472 40 16V80H40zM496 512c-79.5 0-144-64.5-144-144s64.5-144 144-144s144 64.5 144 144s-64.5 144-144 144zm16-208V288H480v16 48H432 416v32h16 48v48 16h32V432 384h48 16V352H560 512V304z"/></svg>