<svg xmlns="http://www.w3.org/2000/svg" viewBox="0 0 640 512"><!--! Font Awesome Pro 6.2.0 by @fontawesome - https://fontawesome.com License - https://fontawesome.com/license (Commercial License) Copyright 2022 Fonticons, Inc. --><path d="M448 160v78.1V240h0c-.5 30-12.8 56.4-32 75.7V512H320V346.7c-4.1-.7-8.2-1.6-12.3-2.8L224 320v16 19.9l-14.1 14.1-27 27 38.3 115H120.1L82.5 399.2 73.1 371l21-21 26.6-26.6L78.2 259.9c-7.3-11-11.9-23.4-13.6-36.4C54.6 230.8 48 242.6 48 256v56 24H0V312 256c0-44.6 33.2-81.5 76.3-87.2c13-21.4 35.2-36.5 61.1-40c3.8 15.3 9.2 29.8 16.5 43c11.3 20.4 27.4 37.7 49.9 49.8c7.5 4 15.5 7.4 24.2 10.1C139.8 173.7 160 32 160 32l160 96C320 57.3 377.3 0 448 0h32 64 16V32H544 528l16 16h96V64L560 90.7V192l-80 32-32-64zm64-80c0-8.8-7.2-16-16-16s-16 7.2-16 16s7.2 16 16 16s16-7.2 16-16z"/></svg>