<svg xmlns="http://www.w3.org/2000/svg" viewBox="0 0 512 512"><!--! Font Awesome Pro 6.2.0 by @fontawesome - https://fontawesome.com License - https://fontawesome.com/license (Commercial License) Copyright 2022 Fonticons, Inc. --><path d="M256 0c-48.9 0-92.5 28.8-121.6 53.8c-15 12.9-27.3 25.7-35.8 35.3c-2.3 2.6-4.3 4.9-6 6.9H0V512H512V96H419.5c-1.7-2.1-3.8-4.4-6-6.9c-8.5-9.6-20.8-22.4-35.8-35.3C348.5 28.8 304.9 0 256 0zm96.9 96H159.1c2.1-1.9 4.3-3.8 6.5-5.8C192.5 67.2 224.9 48 256 48s63.5 19.2 90.4 42.2c2.2 1.9 4.4 3.9 6.5 5.8zM96 200c-13.3 0-24-10.7-24-24s10.7-24 24-24s24 10.7 24 24s-10.7 24-24 24zm120-24c0 13.3-10.7 24-24 24s-24-10.7-24-24s10.7-24 24-24s24 10.7 24 24zm104 24c-13.3 0-24-10.7-24-24s10.7-24 24-24s24 10.7 24 24s-10.7 24-24 24zm120-24c0 13.3-10.7 24-24 24s-24-10.7-24-24s10.7-24 24-24s24 10.7 24 24zm8 272H64V256H448V448zM144 288H112v32h32V288zm0 96H112v32h32V384zm64-96H176v32h32V288zm-32 96v32h32V384H176zm-32-48v32h32V336H144zm128-16V288H240v32h32zm-32 96h32V384H240v32zm0-80H208v32h32V336zm96-48H304v32h32V288zm-32 96v32h32V384H304zm-32-48v32h32V336H272zm128-48H368v32h32V288zm-32 96v32h32V384H368zm0-48H336v32h32V336z"/></svg>