<svg xmlns="http://www.w3.org/2000/svg" viewBox="0 0 448 512"><!--! Font Awesome Pro 6.2.0 by @fontawesome - https://fontawesome.com License - https://fontawesome.com/license (Commercial License) Copyright 2022 Fonticons, Inc. --><path d="M112 32H80V64v65c0 28 10.5 54.9 29.3 75.5l31.2 34.1L76.8 286.4C48.6 307.6 32 340.7 32 376v72 32H64 256h17.1l9.5-14.2 27.6-41.4L361 480h86.7l-16.1-17.6-84.9-92.9 63.9-95.8 17.8-26.6-53.3-35.5-17.8 26.6-55.1 82.6-67-73.3 39.9-29.9C303.4 196.4 320 163.3 320 128V64 32H288 112zM236.8 166.4l-44.9 33.7-35.4-38.7c-8.1-8.8-12.6-20.4-12.6-32.4V96H256v32c0 15.1-7.1 29.3-19.2 38.4zM115.2 337.6l68.7-51.5 81.9 89.6L238.9 416H96V376c0-15.1 7.1-29.3 19.2-38.4z"/></svg>