<svg xmlns="http://www.w3.org/2000/svg" viewBox="0 0 576 512"><!--! Font Awesome Pro 6.2.0 by @fontawesome - https://fontawesome.com License - https://fontawesome.com/license (Commercial License) Copyright 2022 Fonticons, Inc. --><path d="M256 96c0-17.7 14.3-32 32-32s32 14.3 32 32s-14.3 32-32 32s-32-14.3-32-32zm85.1 80C367 158.8 384 129.4 384 96c0-53-43-96-96-96s-96 43-96 96c0 33.4 17 62.8 42.9 80H224 192v64h32 32V448H128V352h64L96 256 0 352H64V480v32H96 288 480h32V480 352h64l-96-96-96 96h64v96H320V240h32 32V176H352 341.1z"/></svg>