<svg xmlns="http://www.w3.org/2000/svg" viewBox="0 0 576 512"><!--! Font Awesome Pro 6.2.0 by @fontawesome - https://fontawesome.com License - https://fontawesome.com/license (Commercial License) Copyright 2022 Fonticons, Inc. --><path d="M384 64.2c0 .1-.1 .3-.2 .6c-.3 .6-.9 1.8-2.3 3.5c-1.4 1.7-3.4 3.6-6.2 5.6c6.7 8.3 12.2 17.6 16.3 27.7C407 91 416 78 416 64c0-35.3-57.3-64-128-64S160 28.7 160 64c0 14 9 27 24.3 37.5c4.1-10 9.6-19.3 16.3-27.7c-2.7-2-4.8-4-6.2-5.6c-1.4-1.7-2-2.8-2.3-3.5c-.1-.3-.2-.5-.2-.6s0-.1 0-.2s0-.1 0-.2s.1-.3 .2-.6c.3-.6 .9-1.8 2.3-3.5c2.9-3.5 8.4-7.9 17.3-12.4C229.6 38.4 256.5 32 288 32s58.4 6.4 76.2 15.4c8.9 4.5 14.4 8.9 17.3 12.4c1.4 1.7 2 2.8 2.3 3.5c.1 .3 .2 .5 .2 .6s0 .1 0 .2s0 .1 0 .2zM368 144c0-44.2-35.8-80-80-80s-80 35.8-80 80s35.8 80 80 80s80-35.8 80-80zM209.4 285.3L120 464H49.2l42.4-91.9 11.3-24.4L87.9 325.4 48 265.5V208h84.1l77.3 77.3zM248 256l-96-96H48 0v48 72l48 72L0 456v8 48H48 96h96H384h96 48 48V464v-8L528 352l48-72V208 160H528 424l-96 96H248zM526.8 464H456L366.6 285.3 443.9 208H528v57.5l-39.9 59.9-14.9 22.4 11.3 24.4L526.8 464z"/></svg>