<svg xmlns="http://www.w3.org/2000/svg" viewBox="0 0 448 512"><!--! Font Awesome Pro 6.2.0 by @fontawesome - https://fontawesome.com License - https://fontawesome.com/license (Commercial License) Copyright 2022 Fonticons, Inc. --><path d="M64 64V32H0V64 448v32H32 416h32V416H416 64V64zM96 97.6v48.3c36.9 4.3 71.6 16 102.4 33.6l27.4-39.6C187 117.1 143 102.2 96 97.6zm129.3 99.4c29.4 21.6 54.2 49.1 72.9 80.5l41.7-23.8c-22.2-37.7-52-70.5-87.2-96.2l-27.3 39.5zM334.1 384h48.3c-3.6-36.1-13.2-70.4-27.7-102L312.8 306c10.8 24.3 18.1 50.6 21.3 78z"/></svg>