<svg xmlns="http://www.w3.org/2000/svg" viewBox="0 0 320 512"><!--! Font Awesome Pro 6.2.0 by @fontawesome - https://fontawesome.com License - https://fontawesome.com/license (Commercial License) Copyright 2022 Fonticons, Inc. --><path d="M96 128c0-35.3 28.7-64 64-64s64 28.7 64 64c0 41.6-20.7 76.6-46.6 104.1c-5.9 6.2-11.8 11.8-17.4 16.7c-5.6-4.9-11.5-10.5-17.4-16.7C116.7 204.6 96 169.6 96 128zM160 0C89.3 0 32 57.3 32 128c0 52.4 21.5 95.5 46.8 128H32 0v64H32h96V480v32h64V480 320h96 32V256H288 241.2c25.4-32.5 46.8-75.6 46.8-128C288 57.3 230.7 0 160 0z"/></svg>