<svg xmlns="http://www.w3.org/2000/svg" viewBox="0 0 576 512"><!--! Font Awesome Pro 6.2.0 by @fontawesome - https://fontawesome.com License - https://fontawesome.com/license (Commercial License) Copyright 2022 Fonticons, Inc. --><path d="M448 0H128V96H0V512H128h32 96V384h64V512h96 32H576V192H448V0zM320 320V256h64v64H320zm192 96H448V352h64v64zM64 320V256h64v64H64zm64 96H64V352h64v64zm64-96V256h64v64H192zM384 64v64H320V64h64zM192 64h64v64H192V64zM384 224H320V160h64v64zm64 96V256h64v64H448zM128 224H64V160h64v64zm64 0V160h64v64H192z"/></svg>