<svg xmlns="http://www.w3.org/2000/svg" viewBox="0 0 512 512"><!--! Font Awesome Pro 6.2.0 by @fontawesome - https://fontawesome.com License - https://fontawesome.com/license (Commercial License) Copyright 2022 Fonticons, Inc. --><path d="M265.4 25.4L288 2.7 333.3 48 310.6 70.6 285.3 96 480 96h32v32 96 32l-64 0V224 160l-162.7 0 25.4 25.4L333.3 208 288 253.3l-22.6-22.6-80-80L162.7 128l22.6-22.6 80-80zm-18.7 256l80 80L349.3 384l-22.6 22.6-80 80L224 509.3 178.7 464l22.6-22.6L226.7 416 64 416v64 32H0V480 384 352H32l194.7 0-25.4-25.4L178.7 304 224 258.7l22.6 22.6zM512 384c0 35.3-28.7 64-64 64s-64-28.7-64-64s28.7-64 64-64s64 28.7 64 64zM64 64c35.3 0 64 28.7 64 64s-28.7 64-64 64s-64-28.7-64-64S28.7 64 64 64z"/></svg>