<svg xmlns="http://www.w3.org/2000/svg" viewBox="0 0 512 512"><!--! Font Awesome Pro 6.2.0 by @fontawesome - https://fontawesome.com License - https://fontawesome.com/license (Commercial License) Copyright 2022 Fonticons, Inc. --><path d="M342.6 25.4L320 2.7 297.4 25.4l-80 80L194.7 128 240 173.3l22.6-22.6L288 125.3V256H125.3l25.4-25.4L173.3 208 128 162.7l-22.6 22.6-80 80L2.7 288l22.6 22.6 80 80L128 413.3 173.3 368l-22.6-22.6L125.3 320H288v64 32 64 32h32H480h32V448H480 352V416 384 288 256 125.3l25.4 25.4L400 173.3 445.3 128l-22.6-22.6-80-80z"/></svg>