<svg xmlns="http://www.w3.org/2000/svg" viewBox="0 0 576 512"><!--! Font Awesome Pro 6.2.0 by @fontawesome - https://fontawesome.com License - https://fontawesome.com/license (Commercial License) Copyright 2022 Fonticons, Inc. --><path d="M438.6 262.6l96-96L557.3 144l-22.6-22.6-96-96L416 2.8 370.7 48l22.6 22.6L434.7 112H64 32v64H64 434.7l-41.4 41.4L370.7 240 416 285.3l22.6-22.6zm-301.3 224L160 509.3 205.3 464l-22.6-22.6L141.3 400H512h32V336H512 141.3l41.4-41.4L205.3 272 160 226.7l-22.6 22.6-96 96L18.7 368l22.6 22.6 96 96z"/></svg>