<svg xmlns="http://www.w3.org/2000/svg" viewBox="0 0 512 512"><!--! Font Awesome Pro 6.2.0 by @fontawesome - https://fontawesome.com License - https://fontawesome.com/license (Commercial License) Copyright 2022 Fonticons, Inc. --><path d="M0 224v32H64V224 160H338.7l-25.4 25.4L290.7 208 336 253.3l22.6-22.6 80-80L461.3 128l-22.6-22.6-80-80L336 2.7 290.7 48l22.6 22.6L338.7 96H32 0v32 96zm512 64V256H448v32 64H173.3l25.4-25.4L221.3 304 176 258.7l-22.6 22.6-80 80L50.7 384l22.6 22.6 80 80L176 509.3 221.3 464l-22.6-22.6L173.3 416H480h32V384 288z"/></svg>