<svg xmlns="http://www.w3.org/2000/svg" viewBox="0 0 576 512"><!--! Font Awesome Pro 6.2.0 by @fontawesome - https://fontawesome.com License - https://fontawesome.com/license (Commercial License) Copyright 2022 Fonticons, Inc. --><path d="M160 479.4l23.6-25.7 88-96L293.2 334 246 290.8l-21.6 23.6L192 349.7V64 32H128V64 349.7L95.6 314.4 74 290.8 26.8 334l21.6 23.6 88 96L160 479.4zM449.7 362.7c-5.1 3.4-11.1 5.3-17.7 5.3c-17.7 0-32-14.3-32-32s14.3-32 32-32s32 14.3 32 32c0 11.1-5.7 21-14.3 26.7zm-35.9 59.4l-25.1 41.3L378.5 480h74.9L502 400.1c11.7-19.3 18-41.5 18-64.1c0-48.6-39.4-88-88-88s-88 39.4-88 88c0 42.3 29.9 77.7 69.8 86.1zM384 32H352V96h32 16v64H384 352v64h32 48 48 32V160H480 464V64 32H432 384z"/></svg>