<svg xmlns="http://www.w3.org/2000/svg" viewBox="0 0 512 512"><!--! Font Awesome Pro 6.2.0 by @fontawesome - https://fontawesome.com License - https://fontawesome.com/license (Commercial License) Copyright 2022 Fonticons, Inc. --><path d="M374.6 57.4L352 34.7 329.4 57.4l-96 96L210.7 176 256 221.3l22.6-22.6L320 157.3V448v32h64V448 157.3l41.4 41.4L448 221.3 493.3 176l-22.6-22.6-96-96zm-192 397.3l96-96L301.3 336 256 290.7l-22.6 22.6L192 354.7V64 32H128V64 354.7L86.6 313.4 64 290.7 18.7 336l22.6 22.6 96 96L160 477.3l22.6-22.6z"/></svg>