<svg xmlns="http://www.w3.org/2000/svg" viewBox="0 0 640 512"><!--! Font Awesome Pro 6.2.0 by @fontawesome - https://fontawesome.com License - https://fontawesome.com/license (Commercial License) Copyright 2022 Fonticons, Inc. --><path d="M40 112l38.1 0L0 33.9 33.9 0 112 78.1 112 40V16l48 0V40l0 96v24H136l-96 0H16l0-48H40zm521.9 0l38.1 0h24v48H600l-96 0H480V136l0-96V16l48 0V40 78.1L606.1 0 640 33.9 561.9 112zM128 256c20-48 86.4-144 192-144s172 96 192 144c-20 48-86.4 144-192 144s-172-96-192-144zm192 64c35.3 0 64-28.7 64-64s-28.7-64-64-64s-64 28.7-64 64s28.7 64 64 64zM528 433.9V472v24H480V472 376 352h24 96 24v48H600 561.9L640 478.1 606.1 512 528 433.9zM112 472V433.9L33.9 512 0 478.1 78.1 400H40 16l0-48H40h96 24v24 96 24H112V472z"/></svg>