<svg xmlns="http://www.w3.org/2000/svg" viewBox="0 0 640 512"><!--! Font Awesome Pro 6.2.0 by @fontawesome - https://fontawesome.com License - https://fontawesome.com/license (Commercial License) Copyright 2022 Fonticons, Inc. --><path d="M288 0H480V192h40V120 96h48v24 72h72V512H480 384 288V0zm64 64v64h64V64H352zm64 96H352v64h64V160zm-64 96v64h64V256H352zm224 0H512v64h64V256zm-64 96v64h64V352H512zM150.6 153.4l80 80L253.3 256l-22.6 22.6-80 80L128 381.3 82.7 336l22.6-22.6L130.7 288H32 0V224H32h98.7l-25.4-25.4L82.7 176 128 130.7l22.6 22.6z"/></svg>