<svg xmlns="http://www.w3.org/2000/svg" viewBox="0 0 576 512"><!--! Font Awesome Pro 6.2.0 by @fontawesome - https://fontawesome.com License - https://fontawesome.com/license (Commercial License) Copyright 2022 Fonticons, Inc. --><path d="M160 509.3l22.6-22.6 96-96L301.3 368 256 322.7l-22.6 22.6L192 386.7V288H544h32V224H544 448V125.3l41.4 41.4L512 189.3 557.3 144l-22.6-22.6-96-96L416 2.7 393.4 25.4l-96 96L274.7 144 320 189.3l22.6-22.6L384 125.3V224H192 128 32 0v64H32h96v98.7L86.6 345.4 64 322.7 18.7 368l22.6 22.6 96 96L160 509.3zM128 64V192h64V64 32H128V64zM384 320V448l0 32h64V448 320H384z"/></svg>