<svg xmlns="http://www.w3.org/2000/svg" viewBox="0 0 512 512"><!--! Font Awesome Pro 6.2.0 by @fontawesome - https://fontawesome.com License - https://fontawesome.com/license (Commercial License) Copyright 2022 Fonticons, Inc. --><path d="M0 224v32H64V224 160H416h32V114.7l-9.4-9.4-80-80L336 2.7 290.7 48l22.6 22.6L338.7 96H32 0v32 96zm512 64V256H448v32 64H96 64v45.3l9.4 9.4 80 80L176 509.3 221.3 464l-22.6-22.6L173.3 416H480h32V384 288zM216 262.8l18.7-9.4 5.3-2.6V296v24h48V296 216 192H264h-8-5.7l-5.1 2.5L216 209.2v53.7z"/></svg>