<svg xmlns="http://www.w3.org/2000/svg" viewBox="0 0 512 512"><!--! Font Awesome Pro 6.2.0 by @fontawesome - https://fontawesome.com License - https://fontawesome.com/license (Commercial License) Copyright 2022 Fonticons, Inc. --><path d="M374.6 454.6l96-96L493.3 336 448 290.7l-22.6 22.6L384 354.7V64 32H320V64 354.7l-41.4-41.4L256 290.7 210.7 336l22.6 22.6 96 96L352 477.3l22.6-22.6zM182.6 57.4L160 34.7 137.4 57.4l-96 96L18.7 176 64 221.3l22.6-22.6L128 157.3V448v32h64V448 157.3l41.4 41.4L256 221.3 301.3 176l-22.6-22.6-96-96z"/></svg>