<svg xmlns="http://www.w3.org/2000/svg" viewBox="0 0 576 512"><!--! Font Awesome Pro 6.2.0 by @fontawesome - https://fontawesome.com License - https://fontawesome.com/license (Commercial License) Copyright 2022 Fonticons, Inc. --><path d="M183.6 453.6L160 479.4l-23.6-25.7-88-96L26.8 334 74 290.8l21.6 23.6L128 349.7V64 32h64V64 349.7l32.4-35.4L246 290.8 293.2 334l-21.6 23.6-88 96zM352 288H480h32v32 8 14.5l-10.9 9.6L428 416h52 32v64H480 352 320V448v-8V425.5l10.9-9.6L404 352H352 320V288h32zM395.5 32h41.1l8.6 18.7 88 192 6.1 13.3H468.8l-14.7-32H377.9l-14.7 32H292.8l6.1-13.3 88-192L395.5 32zm4.4 144h32.3L416 140.8 399.9 176z"/></svg>