<svg xmlns="http://www.w3.org/2000/svg" viewBox="0 0 640 512"><!--! Font Awesome Pro 6.2.0 by @fontawesome - https://fontawesome.com License - https://fontawesome.com/license (Commercial License) Copyright 2022 Fonticons, Inc. --><path d="M150.6 73.4L128 50.7 105.4 73.4l-80 80L2.7 176 48 221.3l22.6-22.6L96 173.3V384v32h32H304h32V352H304 160V173.3l25.4 25.4L208 221.3 253.3 176l-22.6-22.6-80-80zM336 96H304v64h32H480V338.7l-25.4-25.4L432 290.7 386.7 336l22.6 22.6 80 80L512 461.3l22.6-22.6 80-80L637.3 336 592 290.7l-22.6 22.6L544 338.7V128 96H512 336z"/></svg>