<svg xmlns="http://www.w3.org/2000/svg" viewBox="0 0 576 512"><!--! Font Awesome Pro 6.2.0 by @fontawesome - https://fontawesome.com License - https://fontawesome.com/license (Commercial License) Copyright 2022 Fonticons, Inc. --><path d="M352 416h32H544h32V384 224 192H512v32 82.7L342.6 137.4 320 114.7l-22.6 22.6L192 242.7l-.2-.2-.3-.3-.3-.3-.3-.3-.3-.3-.3-.3-.3-.3-.3-.3-.3-.3-.3-.3-.3-.3-.3-.3-.3-.3-.3-.3-.3-.3-.3-.3-.3-.3-.3-.3-.3-.3-.3-.3-.3-.3-.3-.3-.3-.3-.3-.3-.3-.3-.3-.3-.3-.3-.3-.3-.3-.3-.3-.3-.3-.3-.3-.3-.3-.3-.3-.3-.3-.3-.3-.3-.3-.3-.3-.3-.3-.3-.3-.3-.3-.3-.3-.3-.3-.3-.3-.3-.3-.3-.3-.3-.3-.3-.3-.3-.3-.3-.3-.3-.3-.3-.3-.3-.3-.3-.3-.3-.3-.3-.3-.3-.3-.3-.3-.3-.3-.3-.3-.3-.3-.3-.3-.3-.3-.3-.3-.3-.3-.3-.3-.3-.3-.3-.3-.3-.3-.3-.4-.3-.4-.4-.4-.4-.4-.4-.4-.4-.4-.4-.4-.4-.4-.4-.4-.4-.4-.4-.4-.4-.4-.4-.4-.4-.4-.4-.4-.4-.4-.4-.4-.4-.4-.4-.4-.4-.4-.4-.4-.4-.4-.4-.4-.4-.4-.4-.4-.4-.4-.4-.4-.4-.4-.4-.4-.4-.4-.4-.4-.4-.4-.4-.4-.4-.4-.4-.4-.4-.4-.4-.4-.4-.4-.4-.4-.4-.4-.4-.4-.4-.4-.4-.4-.4-.4-.4-.4-.4-.4-.4-.4-.4-.4-.4-.4-.4-.4-.4-.4-.4-.4-.4-.4-.4-.4-.4-.4-.4-.4-.4-.4-.4-.4-.4-.4-.4-.4-.4-.4-.4-.4-.4-.4-.4-.4-.4-.4-.4-.4-.4-.4-.4-.4-.4-.4-.4-.4-.4-.4-.4-.4-.4-.4-.4-.4-.4-.4-.4-.4-.4-.4-.4-.4-.4-.4-.4-.4-.4-.4-.4-.4-.4-.4-.4-.4-.4-.4-.4-.4-.4-.4-.4-.4-.4-.4-.4-.4-.4-.4-.4-.4-.4-.4-.4-.4-.4-.4-.4-.4-.4-.4-.4-.4-.4-.4-.4-.4-.4-.4-.4-.4-.4-.4-.4-.4-.4-.4-.4-.4-.4-.4-.4-.4-.4-.4-.4-.4-.4-.4-.4-.4-.4-.4-.4-.4-.4-.4-.4-.4-.4-.4-.4-.4-.4-.4-.4-.4-.4-.4-.4-.4-.4-.4-.4-.4-.4-.4-.4-.4-.4-.4-.4-.4-.4-.4-.4-.4-.4-.4-.4-.4-.4-.4-.4-.4-.4-.4-.4-.4-.4-.4-.4-.4-.4-.4-.4-.4-.4-.4-.4-.4-.4-.4-.4-.4-.4-.4-.4-.4-.4-.4-.4-.4-.4-.4-.4-.4-.4-.4-.4-.4-.4-.4-.4-.4-.4-.4-.4-.4-.4-.4-.4-.4-.4-.4-.4-.4-.4-.4-.4-.4-.4-.4-.4-.4-.4-.4-.4-.4-.4-.4-.4-.4-.4-.4-.4-.4-.4-.4-.4-.4-.4-.4-.4-.4-.4-.4-.4-.4-.4-.4-.4-.4-.4-.4-.4-.4-.4-.4-.4-.4-.4-.4-.4-.4-.4-.4-.4-.4-.4-.4-.4-.4-.4-.4-.4-.4-.4-.4-.4-.4-.4-.4-.4-.4-.4-.4-.4-.4-.4-.4-.4-.4-.4-.4-.4-.4-.4-.4-.4-.4-.4-.4-.4-.4-.4-.4-.4-.4-.4-.4-.4-.4-.4-.4-.4-.4-.4-.4-.4-.4-.4-.4-.4-.4-.4-.4-.4-.4-.4-.4-.4-.4-.4-.4-.4-.4-.4-.4-.4-.4-.4-.4-.4-.4-.4-.4-.4-.4-.4-.4-.4-.4-.4-.4-.4-.4-.4-.4-.4-.4-.4-.4-.4-.4-.4-.4-.4-.4-.4-.4-.4-.4-.4-.4-.4-.4-.4-.4-.4-.4-.4-.4-.4-.4-.4-.4-.4-.4-.4-.4-.4-.4-.4-.4-.4-.4-.4-.4-.4-.4-.4-.4-.4-.4-.4-.4-.4-.4-.4-.4-.4-.4-.4-.4-.4-.4-.4-.4-.4-.4-.4-.4-.4-.4-.4-.4-.4-.4-.4-.4-.4-.4-.4-.4-.4-.4-.4-.4-.4-.4-.4-.4-.4-.4-.4-.4-.4-.4-.4-.4-.4-.4-.4-.4-.4-.4-.4-.4-.4-.4-.4-.4-.4-.4-.4-.4-.4-.4-.4-.4-.4-.4-.4-.4-.4-.4-.4L9.4 150.6l.4 .4 .4 .4 .4 .4 .4 .4 .4 .4 .4 .4 .4 .4 .4 .4 .4 .4 .4 .4 .4 .4 .4 .4 .4 .4 .4 .4 .4 .4 .4 .4 .4 .4 .4 .4 .4 .4 .4 .4 .4 .4 .4 .4 .4 .4 .4 .4 .4 .4 .4 .4 .4 .4 .4 .4 .4 .4 .4 .4 .4 .4 .4 .4 .4 .4 .4 .4 .4 .4 .4 .4 .4 .4 .4 .4 .4 .4 .4 .4 .4 .4 .4 .4 .4 .4 .4 .4 .4 .4 .4 .4 .4 .4 .4 .4 .4 .4 .4 .4 .4 .4 .4 .4 .4 .4 .4 .4 .4 .4 .4 .4 .4 .4 .4 .4 .4 .4 .4 .4 .4 .4 .4 .4 .4 .4 .4 .4 .4 .4 .4 .4 .4 .4 .4 .4 .4 .4 .4 .4 .4 .4 .4 .4 .4 .4 .4 .4 .4 .4 .4 .4 .4 .4 .4 .4 .4 .4 .4 .4 .4 .4 .4 .4 .4 .4 .4 .4 .4 .4 .4 .4 .4 .4 .4 .4 .4 .4 .4 .4 .4 .4 .4 .4 .4 .4 .4 .4 .4 .4 .4 .4 .4 .4 .4 .4 .4 .4 .4 .4 .4 .4 .4 .4 .4 .4 .4 .4 .4 .4 .4 .4 .4 .4 .4 .4 .4 .4 .4 .4 .4 .4 .4 .4 .4 .4 .4 .4 .4 .4 .4 .4 .4 .4 .4 .4 .4 .4 .4 .4 .4 .4 .4 .4 .4 .4 .4 .4 .4 .4 .4 .4 .4 .4 .4 .4 .4 .4 .4 .4 .4 .4 .4 .4 .4 .4 .4 .4 .4 .4 .4 .4 .4 .4 .4 .4 .4 .4 .4 .4 .4 .4 .4 .4 .4 .4 .4 .4 .4 .4 .4 .4 .4 .4 .4 .4 .4 .4 .4 .4 .4 .4 .4 .4 .4 .4 .4 .4 .4 .4 .4 .4 .4 .4 .4 .4 .4 .4 .4 .4 .4 .4 .4 .4 .4 .4 .4 .4 .4 .4 .4 .4 .4 .4 .4 .4 .4 .4 .4 .4 .4 .4 .4 .4 .4 .4 .4 .4 .4 .4 .4 .4 .4 .4 .4 .4 .4 .4 .4 .4 .4 .4 .4 .4 .4 .4 .4 .4 .4 .4 .4 .4 .4 .4 .4 .4 .4 .4 .4 .4 .4 .4 .4 .4 .4 .4 .4 .4 .4 .4 .4 .4 .4 .4 .4 .4 .4 .4 .4 .4 .4 .4 .4 .4 .4 .4 .4 .4 .4 .4 .4 .4 .4 .4 .4 .4 .4 .4 .4 .4 .4 .4 .4 .4 .4 .4 .4 .4 .4 .4 .4 .4 .4 .4 .4 .4 .4 .4 .4 .4 .4 .4 .4 .4 .4 .4 .4 .4 .4 .4 .4 .4 .4 .4 .4 .4 .4 .4 .4 .4 .4 .4 .4 .4 .4 .4 .4 .4 .4 .4 .4 .4 .4 .4 .4 .4 .4 .4 .4 .4 .4 .4 .4 .4 .4 .4 .4 .4 .4 .4 .4 .4 .4 .4 .4 .4 .4 .4 .4 .4 .4 .4 .4 .4 .4 .4 .4 .4 .4 .4 .4 .4 .4 .4 .4 .4 .4 .4 .4 .4 .4 .4 .4 .4 .4 .4 .4 .4 .4 .4 .4 .4 .4 .4 .4 .4 .4 .4 .4 .4 .4 .4 .4 .4 .4 .4 .4 .4 .4 .4 .4 .4 .4 .4 .4 .4 .4 .4 .4 .4 .4 .4 .4 .4 .4 .4 .4 .4 .4 .4 .4 .4 .4 .4 .4 .4 .4 .4 .3 .4 .3 .3 .3 .3 .3 .3 .3 .3 .3 .3 .3 .3 .3 .3 .3 .3 .3 .3 .3 .3 .3 .3 .3 .3 .3 .3 .3 .3 .3 .3 .3 .3 .3 .3 .3 .3 .3 .3 .3 .3 .3 .3 .3 .3 .3 .3 .3 .3 .3 .3 .3 .3 .3 .3 .3 .3 .3 .3 .3 .3 .3 .3 .3 .3 .3 .3 .3 .3 .3 .3 .3 .3 .3 .3 .3 .3 .3 .3 .3 .3 .3 .3 .3 .3 .3 .3 .3 .3 .3 .3 .3 .3 .3 .3 .3 .3 .3 .3 .3 .3 .3 .3 .3 .3 .3 .3 .3 .3 .3 .3 .3 .3 .3 .3 .3 .3 .3 .3 .3 .3 .3 .3 .3 .3 .3 .3 .3 .3 .3 .3 .3 .3 .3 .3 .3 .3 .3 .3 .3 .3 .3 .3 .3 .3 .3 .3 .3 .3 .3 .3 .3 .3 .3 .3 .3 .3 .3 .3 .3 .3 .3 .3 .3 .3 .3 .3 .3 .3 .3 .3 .2 .2 .2 .2 .2 .2 .2 .2 .2 .2 .2 .2 .2 .2 .2 .2 .2 .2 .2 .2 .2 .2 .2 .2 .2 .2 .2 .2 .2 .2 .2 .2 .2 .2 .2 .2 .2 .2 .2 .2 .2 .2 .2 .2 .2 .2 .2 .2 .2 .2 .2 .2 .2 .2 .2 .2 .2 .2 .2 .2 .2 .2 .2 .2 .2 .2 .2 .2 .2 .2 .2 .2 .2 .2 .2 .2 .2 .2 .2 .2 .2 .2 .2 .2 .2 .2 .2 .2 .2 .2 .2 .2 .2 .2 .2 .2 .2 .2 .2 .2 .2 .2 .2 .2 .2 .2 .2 .2 .2 .2 .2 .2 .2 .2 .2 .2 .2 .2 .2 .2 .2 .2 .2 .2 .2 .1 .1 .1 .1 .1 .1 .1 .1 .1 .1 .1 .1 .1 .1 .1 .1 .1 .1 .1 .1 .1 .1 .1 .1 .1 .1 .1 .1 .1 .1 .1 .1 .1 .1 .1 .1 .1 .1 .1 .1 .1 .1 .1 .1 .1 .1 .1 .1 .1 .1 .1 .1 .1 .1 .1 .1 .1 .1 .1 .1 .1 .1 .1 .1 .1 .1 .1 .1 .1 .1 .1 .1 .1 .1 .1 .1 .1 .1 .1 .1 .1 .1 .1 .1 .1 .1 .1 .1 .1 .1 .1 .1 .1 .1 .1 .1 .1 .1 .1 .1 .1 .1 .1 0 0 0 0 0 0 0 0 0 0 0 0 0 0 0 0 0 0 0 0 0 0 0 0 0 0 0 0 0 0 0 0 0 0 0 0 0 0 0 0 0 0 0 0L192 288l-22.6 22.6L192 333.3l22.6-22.6L320 205.3 466.7 352H384 352v64z"/></svg>