<svg xmlns="http://www.w3.org/2000/svg" viewBox="0 0 576 512"><!--! Font Awesome Pro 6.2.0 by @fontawesome - https://fontawesome.com License - https://fontawesome.com/license (Commercial License) Copyright 2022 Fonticons, Inc. --><path d="M320 480h32 32V416H352 320 288v64h32zm0-128h96 32V288H416 320 288v64h32zm0-128H480h32V160H480 320 288v64h32zm0-128H544h32V32H544 320 288V96h32zM151.7 58.5L128 32.4l-23.7 26-80 88L2.8 170.2l47.4 43.1 21.5-23.7L96 162.8V448v32h64V448 162.8l24.3 26.8 21.5 23.7 47.4-43.1-21.5-23.7-80-88z"/></svg>