<svg xmlns="http://www.w3.org/2000/svg" viewBox="0 0 640 512"><!--! Font Awesome Pro 6.2.0 by @fontawesome - https://fontawesome.com License - https://fontawesome.com/license (Commercial License) Copyright 2022 Fonticons, Inc. --><path d="M128 509.3l22.6-22.6 80-80L253.3 384 208 338.7l-22.6 22.6L160 386.7V288H384v-.3h32V272c0-17.2 3.9-33.5 10.8-48H352V125.3l25.4 25.4L400 173.3 445.3 128l-22.6-22.6-80-80L320 2.7 297.4 25.4l-80 80L194.7 128 240 173.3l22.6-22.6L288 125.3V224H160 96 32 0v64H32 96v98.7L70.6 361.4 48 338.7 2.7 384l22.6 22.6 80 80L128 509.3zM96 64V192h64V64 32H96V64zM288 448v32h64V448 320H288V448zM528 240c17.7 0 32 14.3 32 32v48H496V272c0-17.7 14.3-32 32-32zm-80 32v48H416V512H640V320H608V272c0-44.2-35.8-80-80-80s-80 35.8-80 80z"/></svg>