<svg xmlns="http://www.w3.org/2000/svg" viewBox="0 0 448 512"><!--! Font Awesome Pro 6.2.0 by @fontawesome - https://fontawesome.com License - https://fontawesome.com/license (Commercial License) Copyright 2022 Fonticons, Inc. --><path d="M224 96c-11 0-21.7 1.1-32 3.2V34.3c10.5-1.5 21.1-2.3 32-2.3c57.8 0 110.5 21.9 150.2 57.8L416 48l16 16V192H304l-16-16 40.9-40.9C300.8 110.8 264.1 96 224 96zM103.1 151.1C78.8 179.2 64 215.9 64 256c0 11 1.1 21.7 3.2 32H2.3C.8 277.5 0 266.9 0 256c0-57.8 21.9-110.5 57.8-150.2L16 64 32 48H160V176l-16 16-40.9-40.9zM445.7 224c1.5 10.5 2.3 21.1 2.3 32c0 57.8-21.9 110.5-57.8 150.2L432 448l-16 16H288V336l16-16 40.9 40.9C369.2 332.8 384 296.1 384 256c0-11-1.1-21.7-3.2-32h64.9zM224 416c11 0 21.7-1.1 32-3.2v64.9c-10.5 1.5-21.1 2.3-32 2.3c-57.8 0-110.5-21.9-150.2-57.8L32 464 16 448l0-128H144l16 16-40.9 40.9C147.2 401.2 183.9 416 224 416z"/></svg>