<svg xmlns="http://www.w3.org/2000/svg" viewBox="0 0 512 512"><!--! Font Awesome Pro 6.2.0 by @fontawesome - https://fontawesome.com License - https://fontawesome.com/license (Commercial License) Copyright 2022 Fonticons, Inc. --><path d="M48 2.7L70.6 25.4 160 114.7V80 48h64V80 192v32H192 80 48V160H80h34.7L25.4 70.6 2.7 48 48 2.7zM509.3 48L486.6 70.6 397.3 160H432h32v64H432 320 288V192 80 48h64V80v34.7l89.4-89.4L464 2.7 509.3 48zM48 288H80 192h32v32V432v32H160V432 397.3L70.6 486.6 48 509.3 2.7 464l22.6-22.6L114.7 352H80 48V288zm240 0h32H432h32v64H432 397.3l89.4 89.4L509.3 464 464 509.3l-22.6-22.6L352 397.3V432v32H288V432 320 288z"/></svg>