<svg xmlns="http://www.w3.org/2000/svg" viewBox="0 0 512 512"><!--! Font Awesome Pro 6.2.0 by @fontawesome - https://fontawesome.com License - https://fontawesome.com/license (Commercial License) Copyright 2022 Fonticons, Inc. --><path d="M390.6 25.4L368 2.7 322.7 48l22.6 22.6L370.7 96H64 32v32V256v32H96V256 160H370.7l-25.4 25.4L322.7 208 368 253.3l22.6-22.6 80-80L493.3 128l-22.6-22.6-80-80zm-96 256L272 258.7 226.7 304l22.6 22.6L274.7 352H64 32v32 96 32H96V480 416H274.7l-25.4 25.4L226.7 464 272 509.3l22.6-22.6 80-80L397.3 384l-22.6-22.6-80-80z"/></svg>