<svg xmlns="http://www.w3.org/2000/svg" viewBox="0 0 576 512"><!--! Font Awesome Pro 6.2.0 by @fontawesome - https://fontawesome.com License - https://fontawesome.com/license (Commercial License) Copyright 2022 Fonticons, Inc. --><path d="M320 32h32 32V96H352 320 288V32h32zm0 128h96 32v64H416 320 288V160h32zm0 128H480h32v64H480 320 288V288h32zm0 128H544h32v64H544 320 288V416h32zM151.7 469.5l-23.7 26-23.7-26-80-88L2.8 357.8l47.4-43 21.5 23.7L96 365.2V80 48h64V80 365.2l24.3-26.8 21.5-23.7 47.4 43-21.5 23.7-80 88z"/></svg>