<svg xmlns="http://www.w3.org/2000/svg" viewBox="0 0 640 512"><!--! Font Awesome Pro 6.2.0 by @fontawesome - https://fontawesome.com License - https://fontawesome.com/license (Commercial License) Copyright 2022 Fonticons, Inc. --><path d="M120 0h48V24 142.1l23-23 17-17L241.9 136l-17 17-64 64-17 17-17-17L63 153l-17-17L80 102.1l17 17 23 23V24 0zM360 200c0 22.1-17.9 40-40 40s-40-17.9-40-40s17.9-40 40-40s40 17.9 40 40zM184 296c0 22.1-17.9 40-40 40s-40-17.9-40-40s17.9-40 40-40s40 17.9 40 40zm312 40c-22.1 0-40-17.9-40-40s17.9-40 40-40s40 17.9 40 40s-17.9 40-40 40zM81.9 352H96h96 14l44.9-83.4 6.8-12.6H272h96 14.3l6.8 12.6L434 352h14 96 14.1l6.9 12.3 56 100.8 11.7 21-42 23.3-11.7-21-27-48.6V512H440V439.8l-27 48.6-11.7 21-42-23.3 11.7-21 35.2-63.4-3.4-6.3L376 345.5V432H264V345.5l-26.9 49.9-3.4 6.3L269 465.1l11.7 21-42 23.3-11.7-21-27-48.6V512H88V439.8L61 488.5l-11.7 21-42-23.3 11.7-21L75 364.3 81.9 352zM415 153l-17-17L432 102.1l17 17 23 23V24 0h48V24 142.1l23-23 17-17L593.9 136l-17 17-64 64-17 17-17-17-64-64z"/></svg>