<svg xmlns="http://www.w3.org/2000/svg" viewBox="0 0 640 512"><!--! Font Awesome Pro 6.2.0 by @fontawesome - https://fontawesome.com License - https://fontawesome.com/license (Commercial License) Copyright 2022 Fonticons, Inc. --><path d="M64 301.3l22.6-22.6L128 237.3 128 448l0 32 64 0 0-32 0-210.7 41.4 41.4L256 301.3 301.3 256l-22.6-22.6-96-96L160 114.7l-22.6 22.6-96 96L18.7 256 64 301.3zm320 0l22.6-22.6L448 237.3 448 448l0 32 64 0 0-32 0-210.7 41.4 41.4L576 301.3 621.3 256l-22.6-22.6-96-96L480 114.7l-22.6 22.6-96 96L338.7 256 384 301.3zM64 96l512 0 32 0 0-64-32 0L64 32 32 32l0 64 32 0z"/></svg>