<svg xmlns="http://www.w3.org/2000/svg" viewBox="0 0 576 512"><!--! Font Awesome Pro 6.2.0 by @fontawesome - https://fontawesome.com License - https://fontawesome.com/license (Commercial License) Copyright 2022 Fonticons, Inc. --><path d="M320 32h32H480h32V64v8V86.5l-10.9 9.6L428 160h52 32v64H480 352 320V192v-8V169.5l10.9-9.6L404 96H352 320V32zm-160 .6l23.6 25.7 88 96L293.2 178 246 221.2l-21.6-23.6L192 162.3V448v32H128V448 162.3L95.6 197.6 74 221.2 26.8 178l21.6-23.6 88-96L160 32.6zM395.5 256h41.1l8.6 18.7 88 192 6.1 13.3H468.8l-14.7-32H377.9l-14.7 32H292.8l6.1-13.3 88-192 8.6-18.7zM416 364.8L399.9 400h32.3L416 364.8z"/></svg>