<svg xmlns="http://www.w3.org/2000/svg" viewBox="0 0 576 512"><!--! Font Awesome Pro 6.2.0 by @fontawesome - https://fontawesome.com License - https://fontawesome.com/license (Commercial License) Copyright 2022 Fonticons, Inc. --><path d="M534.6 278.6L557.3 256l-22.6-22.6-128-128L384 82.7 338.7 128l22.6 22.6L434.7 224 224 224l-32 0 0 64 32 0 210.7 0-73.4 73.4L338.7 384 384 429.3l22.6-22.6 128-128zM192 96l32 0 0-64-32 0L64 32 32 32l0 32 0 384 0 32 32 0 128 0 32 0 0-64-32 0-96 0L96 96l96 0z"/></svg>