<svg xmlns="http://www.w3.org/2000/svg" viewBox="0 0 640 512"><!--! Font Awesome Pro 6.2.0 by @fontawesome - https://fontawesome.com License - https://fontawesome.com/license (Commercial License) Copyright 2022 Fonticons, Inc. --><path d="M576 210.7l-22.6 22.6L512 274.7 512 64l0-32-64 0 0 32 0 210.7-41.4-41.4L384 210.7 338.7 256l22.6 22.6 96 96L480 397.3l22.6-22.6 96-96L621.3 256 576 210.7zm-320 0l-22.6 22.6L192 274.7 192 64l0-32-64 0 0 32 0 210.7L86.6 233.4 64 210.7 18.7 256l22.6 22.6 96 96L160 397.3l22.6-22.6 96-96L301.3 256 256 210.7zM576 416L64 416l-32 0 0 64 32 0 512 0 32 0 0-64-32 0z"/></svg>