<svg xmlns="http://www.w3.org/2000/svg" viewBox="0 0 576 512"><!--! Font Awesome Pro 6.2.0 by @fontawesome - https://fontawesome.com License - https://fontawesome.com/license (Commercial License) Copyright 2022 Fonticons, Inc. --><path d="M395.5 32l-8.6 18.7-88 192L292.8 256h70.4l14.7-32h76.3l14.7 32h70.4l-6.1-13.3-88-192L436.5 32H395.5zm4.4 144L416 140.8 432.1 176H399.9zM183.6 58.4L160 32.6 136.4 58.4l-88 96L26.8 178 74 221.2l21.6-23.6L128 162.3V448v32h64V448 162.3l32.4 35.4L246 221.2 293.2 178l-21.6-23.6-88-96zM352 288H320v64h32 52l-73 63.9L320 425.5V440v8 32h32H480h32V416H480 428l73-63.9 10.9-9.6V328v-8V288H480 352z"/></svg>