<svg xmlns="http://www.w3.org/2000/svg" viewBox="0 0 448 512"><!--! Font Awesome Pro 6.2.0 by @fontawesome - https://fontawesome.com License - https://fontawesome.com/license (Commercial License) Copyright 2022 Fonticons, Inc. --><path d="M288 32H256V96h32 50.7L224 210.7 109.3 96H160h32V32H160 32 0V64 192v32H64V192 141.3L178.7 256 64 370.7V320 288H0v32V448v32H32 160h32V416H160 109.3L224 301.3 338.7 416H288 256v64h32H416h32V448 320 288H384v32 50.7L269.3 256 384 141.3V192v32h64V192 64 32H416 288z"/></svg>