<svg xmlns="http://www.w3.org/2000/svg" viewBox="0 0 640 512"><!--! Font Awesome Pro 6.2.0 by @fontawesome - https://fontawesome.com License - https://fontawesome.com/license (Commercial License) Copyright 2022 Fonticons, Inc. --><path d="M64 96V64H0V96 416v32H64V416L64 96zm576 0V64H576V96 416v32h64V416 96zM246.6 182.6L269.3 160 224 114.7l-22.6 22.6-96 96L82.7 256l22.6 22.6 96 96L224 397.3 269.3 352l-22.6-22.6L205.3 288l229.5 0-41.4 41.4L370.7 352 416 397.3l22.6-22.6 96-96L557.3 256l-22.6-22.6-96-96L416 114.7 370.7 160l22.6 22.6L434.7 224l-229.5 0 41.4-41.4z"/></svg>