<svg xmlns="http://www.w3.org/2000/svg" viewBox="0 0 512 512"><!--! Font Awesome Pro 6.2.0 by @fontawesome - https://fontawesome.com License - https://fontawesome.com/license (Commercial License) Copyright 2022 Fonticons, Inc. --><path d="M256 64C150 64 64 150 64 256s86 192 192 192h32v64H256C114.6 512 0 397.4 0 256S114.6 0 256 0S512 114.6 512 256v96 32H480 440c-36 0-68.2-15.8-90.2-40.9C326.4 368.3 293 384 256 384c-70.7 0-128-57.3-128-128s57.3-128 128-128c32.5 0 62.1 12.1 84.7 32H384v32 64 8c0 30.9 25.1 56 56 56h8V256c0-106-86-192-192-192zm64 192c0-35.3-28.7-64-64-64s-64 28.7-64 64s28.7 64 64 64s64-28.7 64-64z"/></svg>