<svg xmlns="http://www.w3.org/2000/svg" viewBox="0 0 576 512"><!--! Font Awesome Pro 6.2.0 by @fontawesome - https://fontawesome.com License - https://fontawesome.com/license (Commercial License) Copyright 2022 Fonticons, Inc. --><path d="M576 32H0V480H576V32zM328 160h56c53 0 96 43 96 96s-43 96-96 96H328 304V328 184 160h24zm24 144h32c26.5 0 48-21.5 48-48s-21.5-48-48-48H352v96zM173.9 287.8h36.3L192 245.2l-18.1 42.6zm-17 40L146.5 352H94.4l75.6-177.4 6.2-14.6h31.7l6.2 14.6L289.6 352H237.5l-10.3-24.2H156.8z"/></svg>