<svg xmlns="http://www.w3.org/2000/svg" viewBox="0 0 640 512"><!--! Font Awesome Pro 6.2.0 by @fontawesome - https://fontawesome.com License - https://fontawesome.com/license (Commercial License) Copyright 2022 Fonticons, Inc. --><path d="M48.4 14.8L29.4 .1 0 38 19 52.7 591.5 497.2l19 14.7L639.9 474l-19-14.7-12.9-10V32H70.5L48.4 14.8zM336 238.1V184 160h24 56c53 0 96 43 96 96c0 35-18.8 65.7-46.8 82.4l-44.6-34.6C445 301.5 464 281 464 256c0-26.5-21.5-48-48-48H384v67.4l-48-37.3zM233.3 279.8l-18-14.2-6 14.2h24.1zM126.4 352l49.9-117.1L32 121.2V480H487.4L320 348.1l1.7 3.9H269.5l-13.7-32.2H192.2L178.5 352H126.4z"/></svg>