<svg xmlns="http://www.w3.org/2000/svg" viewBox="0 0 448 512"><!--! Font Awesome Pro 6.2.0 by @fontawesome - https://fontawesome.com License - https://fontawesome.com/license (Commercial License) Copyright 2022 Fonticons, Inc. --><path d="M194.3 32H216h16 21.7l8 20.1L330.5 224H416h32v64H416 356.1l12.8 32H416h32v64H416 394.5l27.2 68.1L432.9 480H363.9l-1.6-4.1L325.5 384H122.5L85.7 475.9 84.1 480H15.1l11.2-27.9L53.5 384H32 0V320H32 79.1l12.8-32H32 0V224H32h85.5L186.3 52.1l8-20.1zM224 130.2L186.5 224h75.1L224 130.2zM148.1 320H299.9l-12.8-32H160.9l-12.8 32z"/></svg>