<svg xmlns="http://www.w3.org/2000/svg" viewBox="0 0 384 512"><!--! Font Awesome Pro 6.2.0 by @fontawesome - https://fontawesome.com License - https://fontawesome.com/license (Commercial License) Copyright 2022 Fonticons, Inc. --><path d="M192 0l43.7 28.8L288 25.7l23.5 46.8L358.3 96l-3.1 52.3L384 192l-28.8 43.7 3.1 52.3-46.8 23.5L288 358.3l-52.3-3.1L192 384l-43.7-28.8L96 358.3 72.5 311.5 25.7 288l3.1-52.3L0 192l28.8-43.7L25.7 96 72.5 72.5 96 25.7l52.3 3.1L192 0zm80 192c0-44.2-35.8-80-80-80s-80 35.8-80 80s35.8 80 80 80s80-35.8 80-80zM0 456L49.8 337.6l17.6 35 9.4 18.8 21-1.2 41.7-2.4 31.9 21L128 512 75.8 456H0zm256 56L212.5 408.8l31.9-21 41.7 2.4 21 1.2 9.4-18.8 17.6-35L384 456H308.2L256 512z"/></svg>