<svg xmlns="http://www.w3.org/2000/svg" viewBox="0 0 384 512"><!--! Font Awesome Pro 6.2.0 by @fontawesome - https://fontawesome.com License - https://fontawesome.com/license (Commercial License) Copyright 2022 Fonticons, Inc. --><path d="M192 0l40.5 24.7L280 23.6l22.8 41.7L344.4 88l-1.1 47.5L368 176l-24.7 40.5 1.1 47.5-41.7 22.8L280 328.4l-47.5-1.1L192 352l-40.5-24.7L104 328.4 81.2 286.8 39.6 264l1.1-47.5L16 176l24.7-40.5L39.6 88 81.2 65.2 104 23.6l47.5 1.1L192 0zm80 176c0-44.2-35.8-80-80-80s-80 35.8-80 80s35.8 80 80 80s80-35.8 80-80zM64 512L99 360.5l5.8-.1 38.1-.9 32.5 19.8L192 389.5l16.6-10.1 32.5-19.8 38.1 .9 5.8 .1L320 512 192 464 64 512z"/></svg>