<svg xmlns="http://www.w3.org/2000/svg" viewBox="0 0 512 512"><!--! Font Awesome Pro 6.2.0 by @fontawesome - https://fontawesome.com License - https://fontawesome.com/license (Commercial License) Copyright 2022 Fonticons, Inc. --><path d="M256 192H.1C3.1 108 52.3 35.8 123 0L256 192zM384 96h32 64 32v64H480 448v64c0 25.2-5.8 50.2-17 73.5s-27.8 44.5-48.6 62.3s-45.5 32-72.7 41.6S253.4 416 224 416s-58.5-5-85.7-14.6s-51.9-23.8-72.7-41.6s-37.3-39-48.6-62.3S0 249.2 0 224l224 0 160 0V128 96zM80 512c-26.5 0-48-21.5-48-48s21.5-48 48-48s48 21.5 48 48s-21.5 48-48 48zm336-48c0 26.5-21.5 48-48 48s-48-21.5-48-48s21.5-48 48-48s48 21.5 48 48z"/></svg>