<svg xmlns="http://www.w3.org/2000/svg" viewBox="0 0 640 512"><!--! Font Awesome Pro 6.2.0 by @fontawesome - https://fontawesome.com License - https://fontawesome.com/license (Commercial License) Copyright 2022 Fonticons, Inc. --><path d="M272.2 112.2C304.6 79.8 344.9 64 381 64c28.2 0 53.2 9.6 71.3 27.7S480 134.9 480 163c0 36-15.8 76.4-48.2 108.8c-59.4 59.4-139.7 60.9-180.1 20.5C233.6 274.1 224 249.1 224 221c0-36 15.8-76.4 48.2-108.8zM381 0c-54.2 0-110.5 23.4-154 66.9s-67 99.8-66.9 154c0 32.4 8.4 64.2 26.2 91.6l-48.8 48.8L128 352 32 448l64 64 96-96-9.4-9.4 48.8-48.8c73.3 48.1 177.5 27.4 245.7-40.8c43.6-43.6 67-99.8 66.9-154c0-42.8-14.8-84.9-46.5-116.6S423.8 0 381 0zM544 352c-26.5 0-48 21.5-48 48v32h96V400c0-26.5-21.5-48-48-48zm-50.3 96l-11.6 38.8-4.6 15.3 30.7 9.2 4.6-15.3 14.4-48H493.7zm34.3 0v48 16h32V496 448H528zm32.9 0l14.4 48 4.6 15.3 30.6-9.2-4.6-15.3L594.3 448H560.9z"/></svg>