<svg xmlns="http://www.w3.org/2000/svg" viewBox="0 0 640 512"><!--! Font Awesome Pro 6.2.0 by @fontawesome - https://fontawesome.com License - https://fontawesome.com/license (Commercial License) Copyright 2022 Fonticons, Inc. --><path d="M640 208c0 114.9-93.1 208-208 208c-3.9 0-7.7-.1-11.5-.3c5.7-10.8 10.6-22.1 14.6-33.8L478.8 352l56.7-1.6 19-53.4 44.9-34.6-16-54.4 16-54.4L554.5 119l-19-53.4L478.8 64 432 32 385.2 64l-56.7 1.6-9.2 25.7c-14.4-7.6-29.7-13.7-45.7-18.3C311.8 28.4 368.6 0 432 0C546.9 0 640 93.1 640 208zM396.1 155c10.2-6.9 22.6-11 35.9-11c35.3 0 64 28.7 64 64c0 30.6-21.5 56.3-50.3 62.5c-6-43.3-23.6-82.9-49.5-115.6zM416 304c0 114.9-93.1 208-208 208S0 418.9 0 304S93.1 96 208 96s208 93.1 208 208zm-160 0c0-26.5-21.5-48-48-48s-48 21.5-48 48s21.5 48 48 48s48-21.5 48-48zM120 208l24 24 24-24-24-24-24 24zM80 296l24-24L80 248 56 272l24 24zm32 128l24-24-24-24L88 400l24 24zM304 264l24-24-24-24-24 24 24 24zM216 432l24 24 24-24-24-24-24 24zm88-8l24-24-24-24-24 24 24 24z"/></svg>