<svg xmlns="http://www.w3.org/2000/svg" viewBox="0 0 576 512"><!--! Font Awesome Pro 6.2.0 by @fontawesome - https://fontawesome.com License - https://fontawesome.com/license (Commercial License) Copyright 2022 Fonticons, Inc. --><path d="M176 96v64h96V96c0-26.5-21.5-48-48-48s-48 21.5-48 48zm-48 64V96c0-53 43-96 96-96s96 43 96 96v64H448v64H160V480H0V160H128zm448 96V512H192V256H576zM320 336V320H288v16 16c0 53 43 96 96 96s96-43 96-96V336 320H448v16 16c0 35.3-28.7 64-64 64s-64-28.7-64-64V336z"/></svg>