<svg xmlns="http://www.w3.org/2000/svg" viewBox="0 0 512 512"><!--! Font Awesome Pro 6.2.0 by @fontawesome - https://fontawesome.com License - https://fontawesome.com/license (Commercial License) Copyright 2022 Fonticons, Inc. --><path d="M256 448C150 448 64 362 64 256c0-41.5 13.1-79.9 35.5-111.2L367.2 412.5C335.9 434.9 297.5 448 256 448zm89-148.3l19.9 4 15.7 3.1 6.3-31.4-15.7-3.1-35.1-7V246.7l35.1-7 15.7-3.1-6.3-31.4-15.7 3.1L336 214.1V192l-5.3-5.3 21.6-12.9 13.7-8.2L349.5 138l-13.7 8.2-28.4 17.1L288 144H224l-17.4 17.4L144.8 99.5C176.1 77.1 214.5 64 256 64c106 0 192 86 192 192c0 41.5-13.1 79.9-35.5 111.2L345 299.7zM256 512c141.4 0 256-114.6 256-256S397.4 0 256 0S0 114.6 0 256S114.6 512 256 512zM140.9 272.3l-15.7 3.1 6.3 31.4 15.7-3.1 28.9-5.8V320l5.3 5.3-21.6 12.9L146 346.5 162.5 374l13.7-8.2 28.4-17.1L224 368h53.5L175 265.5l-34.1 6.8z"/></svg>