<svg xmlns="http://www.w3.org/2000/svg" viewBox="0 0 640 512"><!--! Font Awesome Pro 6.2.0 by @fontawesome - https://fontawesome.com License - https://fontawesome.com/license (Commercial License) Copyright 2022 Fonticons, Inc. --><path d="M385.2 10.4C443.4 63.1 480 139.3 480 224c0 12.3-.8 24.4-2.3 36.3L361.8 284.7 311 254.6c16.1-33.5 25-71 25-110.6c0-31.4-5.6-61.3-15.9-89l65.1-44.6zm-29 308.2l115.1-24.2 27.7-5.8 12.7-2.7L521 295l80 80 17 17L584 425.9l-17-17-70.8-70.8-43.9 9.2C406.1 444.7 306.9 512 192 512L32 512V400H80c72.9 0 138.7-30.5 185.4-79.4l-22.1-13.1-80.2 41.8-21.3 11.1-22.2-42.6 21.3-11.1 92-48 11.8-6.2 11.5 6.8 39.1 23.2 60.9 36.1z"/></svg>