<svg xmlns="http://www.w3.org/2000/svg" viewBox="0 0 512 512"><!--! Font Awesome Pro 6.2.0 by @fontawesome - https://fontawesome.com License - https://fontawesome.com/license (Commercial License) Copyright 2022 Fonticons, Inc. --><path d="M367.1 99.7L376 64 448 0l64 64-64 72-35.7 8.9L331.3 226c13.9 20.6 23.4 44.3 27 70H360h24v48H360h-1.7c-4.1 28.5-15.3 54.6-31.7 76.6l1.2 1.2 17 17-33.9 33.9-17-17-1.2-1.2c-22 16.5-48.1 27.7-76.6 31.7V488v24H168V488v-1.7c-28.5-4.1-54.6-15.3-76.6-31.7l-1.2 1.2-17 17L39.3 438.8l17-17 1.2-1.2C41 398.6 29.8 372.5 25.7 344H24 0V296H24h1.7c4.1-28.5 15.3-54.6 31.7-76.6l-1.2-1.2-17-17 33.9-33.9 17 17 1.2 1.2c22-16.5 48.2-27.7 76.6-31.7V152 128h48v24 1.7c25.7 3.7 49.5 13.1 70 27l81.1-81.1zM192 432c61.9 0 112-50.1 112-112s-50.1-112-112-112s-112 50.1-112 112s50.1 112 112 112zM155.3 308.7l48 48L214.6 368 192 390.6l-11.3-11.3-48-48L121.4 320 144 297.4l11.3 11.3z"/></svg>