<svg xmlns="http://www.w3.org/2000/svg" viewBox="0 0 640 512"><!--! Font Awesome Pro 6.2.0 by @fontawesome - https://fontawesome.com License - https://fontawesome.com/license (Commercial License) Copyright 2022 Fonticons, Inc. --><path d="M128 32H64V192h64V32zM64 480h64V320H64V480zm96 0h32V320H160V480zm64 0h64V320H224V480zm0-288h64V32H224V192zm96 288h64V320H320V480zm0-288h64V32H320V192zM448 480h32V320H448V480zm0-288h32V32H448V192zm64 288h64V320H512V480zm0-288h64V32H512V192zm-352 0h32V32H160V192zM0 232v48H640V232H0z"/></svg>