<svg xmlns="http://www.w3.org/2000/svg" viewBox="0 0 640 512"><!--! Font Awesome Pro 6.2.0 by @fontawesome - https://fontawesome.com License - https://fontawesome.com/license (Commercial License) Copyright 2022 Fonticons, Inc. --><path d="M608 208l29.1-13.2 2.9 6.3V208 352v20.8l-19 8.4L505.6 432.6 526.2 288H493.9l-7.2 50.3-22.9 160-2 13.7H448h-8-7.2l-4.8-5.3-44.2-49.5L340 506.6l-4.8 5.4H328 312h-7.2l-4.8-5.4-43.9-49.4-44.2 49.5-4.8 5.3H200h-8H178.1l-2-13.7-22.9-160L146.1 288H113.8l20.6 144.6L19 381.2 0 372.8V352 208v-6.9l2.9-6.3L32 208C2.9 194.8 2.9 194.7 2.9 194.7l0 0 0-.1 .1-.2 .3-.6c.2-.5 .5-1.1 .9-1.9c.8-1.6 1.9-3.8 3.4-6.6c3-5.5 7.4-13.2 13.3-22.2c11.8-18.1 29.8-42.1 54.9-66.2C126.4 48.5 206 0 320 0S513.6 48.5 564.1 96.9c25.1 24 43.2 48.1 54.9 66.2c5.9 9.1 10.3 16.7 13.3 22.2c1.5 2.8 2.6 5 3.4 6.6c.4 .8 .7 1.5 .9 1.9l.3 .6 .1 .2 0 .1 0 0c0 0 0 0-29.1 13.3zM178.4 288l5.2 36.6 44-36.6H178.4zm99.3 0l-1.2 1L320 337.6 363.4 289l-1.2-1H277.8zm134.5 0l44 36.6 5.2-36.6H412.3zM176 128H160v16 64H112 96v32h16 64H464h64 16V208H528 480V144 128H464 176zm272 32v48H192V160H448zM388 309.4l-46.6 52.2 42.4 47.5 52.7-59.3L388 309.4zm47.9 158l11.7-81.9-42.3 47.6 30.6 34.3zM320 385.6l-42.4 47.5L319.2 480h1.6l41.6-46.8L320 385.6zm-21.4-24L252 309.4l-48.5 40.3 52.7 59.3 42.4-47.5zM204.1 467.4l30.6-34.3-42.3-47.6 11.7 81.9z"/></svg>