<svg xmlns="http://www.w3.org/2000/svg" viewBox="0 0 576 512"><!--! Font Awesome Pro 6.2.0 by @fontawesome - https://fontawesome.com License - https://fontawesome.com/license (Commercial License) Copyright 2022 Fonticons, Inc. --><path d="M256.4 29.8L245.3 51.1 171.8 192H404.2L330.7 51.1 319.6 29.8 362.2 7.6l11.1 21.3L458.4 192H576v64H544L480 512H96L32 256H0V192H117.6L202.7 28.9 213.8 7.6l42.6 22.2zM144 296c13.3 0 24-10.7 24-24s-10.7-24-24-24s-24 10.7-24 24s10.7 24 24 24zm312-24c0-13.3-10.7-24-24-24s-24 10.7-24 24s10.7 24 24 24s24-10.7 24-24z"/></svg>