<svg xmlns="http://www.w3.org/2000/svg" viewBox="0 0 512 512"><!--! Font Awesome Pro 6.2.0 by @fontawesome - https://fontawesome.com License - https://fontawesome.com/license (Commercial License) Copyright 2022 Fonticons, Inc. --><path d="M64 0H32V32 256H0v64H32 480h32V256H480 96V64h18.7l18.8 18.8C130 91.8 128 101.7 128 112c0 19.6 7 37.5 18.7 51.4L134.1 176 168 209.9l17-17L289 89l17-17L272 38.1 259.4 50.7C245.5 39 227.6 32 208 32c-10.3 0-20.2 2-29.2 5.5L150.6 9.4 141.3 0H128 64zM32 352v16c0 28.4 12.4 54 32 71.6V480v32h64V480 464H384v16 32h64V480 439.6c19.6-17.6 32-43.1 32-71.6V352H32z"/></svg>