<svg xmlns="http://www.w3.org/2000/svg" viewBox="0 0 640 512"><!--! Font Awesome Pro 6.2.0 by @fontawesome - https://fontawesome.com License - https://fontawesome.com/license (Commercial License) Copyright 2022 Fonticons, Inc. --><path d="M472 0h16 14.8l6.6 13.3L534.8 64H616h24v48H616 520 505.2l-6.6-13.3L480.4 62.5 429.7 170.2 423.2 184H408 392 376.4l-6.3-14.3L344.4 112H216 192V64h24H360h15.6l6.3 14.3 18.5 41.5 49.9-106L456.8 0H472zM320 160h10.7l10.1 22.7L355.6 216H392h16 35.5l15.1-32.2L469.9 160H544c53 0 96 43 96 96V480v32H576V480 448H352 320 64v32 32H0V480 96 64H64V96 352H288V192 160h32zM176 320c-44.2 0-80-35.8-80-80s35.8-80 80-80s80 35.8 80 80s-35.8 80-80 80z"/></svg>