<svg xmlns="http://www.w3.org/2000/svg" viewBox="0 0 640 512"><!--! Font Awesome Pro 6.2.0 by @fontawesome - https://fontawesome.com License - https://fontawesome.com/license (Commercial License) Copyright 2022 Fonticons, Inc. --><path d="M352 0H288V51.2C215 66 160 130.6 160 208v88L96 368v48H544V368l-64-72V208c0-77.4-55-142-128-156.8V0zm32 448H320 256c0 17 6.7 33.3 18.7 45.3s28.3 18.7 45.3 18.7s33.3-6.7 45.3-18.7s18.7-28.3 18.7-45.3zM0 176v48H24h80 24V176H104 24 0zm536 0H512v48h24 80 24V176H616 536zM608.2 50.7L586.7 7.8 565.3 18.5l-64 32L479.8 61.3l21.5 42.9 21.5-10.7 64-32 21.5-10.7zM53.3 61.5l64 32 21.5 10.7 21.5-42.9L138.7 50.5l-64-32L53.3 7.8 31.8 50.7 53.3 61.5z"/></svg>