<svg xmlns="http://www.w3.org/2000/svg" viewBox="0 0 512 512"><!--! Font Awesome Pro 6.2.0 by @fontawesome - https://fontawesome.com License - https://fontawesome.com/license (Commercial License) Copyright 2022 Fonticons, Inc. --><path d="M208 288c-44.2 0-80-35.8-80-80s35.8-80 80-80s80 35.8 80 80s-35.8 80-80 80zm0 128c114.9 0 208-93.1 208-208S322.9 0 208 0S0 93.1 0 208S93.1 416 208 416zm48-208c0-26.5-21.5-48-48-48s-48 21.5-48 48s21.5 48 48 48s48-21.5 48-48zM208 448c-54 0-103.9-17.9-144-48V512H320h32H464h24V488 441.6c14.3-8.3 24-23.8 24-41.6c0-26.5-21.5-48-48-48s-48 21.5-48 48c0 17.8 9.7 33.3 24 41.6V464H352V400c-40.1 30.1-90 48-144 48z"/></svg>