<svg xmlns="http://www.w3.org/2000/svg" viewBox="0 0 640 512"><!--! Font Awesome Pro 6.2.0 by @fontawesome - https://fontawesome.com License - https://fontawesome.com/license (Commercial License) Copyright 2022 Fonticons, Inc. --><path d="M117.7 68.6L48.4 14.8 29.4 .1 0 38 19 52.7 591.5 497.2l19 14.7L639.9 474l-19-14.7-49.6-38.5c3-6.3 4.7-13.3 4.7-20.8c0-26.5-21.5-48-48-48c-11.7 0-22.5 4.2-30.8 11.2L445.4 323C467.2 290 480 250.5 480 208C480 93.1 386.9 0 272 0C210.8 0 155.7 26.5 117.7 68.6zm101.8 79.1C233.5 135.4 251.9 128 272 128c44.2 0 80 35.8 80 80c0 12.9-3.1 25.1-8.5 35.9l-26.1-20.3c1.7-4.9 2.6-10.2 2.6-15.6c0-26.5-21.5-48-48-48c-9.8 0-18.8 2.9-26.4 7.9l-26.1-20.3zM64 208c0 114.9 93.1 208 208 208c36.7 0 71.1-9.5 101-26.1L71.5 152.4C66.6 170.1 64 188.7 64 208zM272 448c-54 0-103.9-17.9-144-48V512H384h32H528l-60.9-48H416V423.8l-16.1-12.7C362.9 434.5 319 448 272 448z"/></svg>