<svg xmlns="http://www.w3.org/2000/svg" viewBox="0 0 448 512"><!--! Font Awesome Pro 6.2.0 by @fontawesome - https://fontawesome.com License - https://fontawesome.com/license (Commercial License) Copyright 2022 Fonticons, Inc. --><path d="M256 0H192V51.2C119 66 64 130.6 64 208v88L0 368v48H448V368l-64-72V208c0-77.4-55-142-128-156.8V0zm32 448H224 160c0 17 6.7 33.3 18.7 45.3s28.3 18.7 45.3 18.7s33.3-6.7 45.3-18.7s18.7-28.3 18.7-45.3zM248 152v24 40h40 24v48H288 248v40 24H200V304 264H160 136V216h24 40V176 152h48z"/></svg>