<svg xmlns="http://www.w3.org/2000/svg" viewBox="0 0 640 512"><!--! Font Awesome Pro 6.2.0 by @fontawesome - https://fontawesome.com License - https://fontawesome.com/license (Commercial License) Copyright 2022 Fonticons, Inc. --><path d="M608 96c0 5.1-.4 10.2-1.2 15.1C626.9 125.7 640 149.3 640 176v80H544V480v32H480V480 256H384V176c0-26.7 13.1-50.3 33.2-64.9c-.8-4.9-1.2-10-1.2-15.1c0-53 43-96 96-96s96 43 96 96zM32 192H352V320H32V192zm0 160H96 288h64 32v64H352v64 32H288V480 416H96v64 32H32V480 416H0V352H32z"/></svg>