<svg xmlns="http://www.w3.org/2000/svg" viewBox="0 0 640 512"><!--! Font Awesome Pro 6.2.0 by @fontawesome - https://fontawesome.com License - https://fontawesome.com/license (Commercial License) Copyright 2022 Fonticons, Inc. --><path d="M224 0h32 48 32V32 160h16 32v64H352 304 256 224V160h32 16V64H256 224V0zM0 288H32 80h32v32V448h16 32v64H128 80 32 0V448H32 48V352H32 0V288zM32 0H160h32V32 192v32H160 32 0V192 32 0H32zM64 160h64V64H64v96zM192 288h32H339.2c-12.3 24-19.2 51.2-19.2 80V352H256v96h32 32 19.2c11 21.5 26.3 40.5 44.8 55.8V512H352 224 192V480 320 288zm128 80c0 5.4 .2 10.7 .7 16H320V368zm320 0c0 79.5-64.5 144-144 144s-144-64.5-144-144s64.5-144 144-144s144 64.5 144 144zm-65.4-32L552 313.4l-11.3 11.3L480 385.4l-28.7-28.7L440 345.4 417.4 368l11.3 11.3 40 40L480 430.6l11.3-11.3 72-72L574.6 336z"/></svg>