<svg xmlns="http://www.w3.org/2000/svg" viewBox="0 0 384 512"><!--! Font Awesome Pro 6.2.0 by @fontawesome - https://fontawesome.com License - https://fontawesome.com/license (Commercial License) Copyright 2022 Fonticons, Inc. --><path d="M256 0h48 32V32 160h16 32v64H352 304 256 224V160h32 16V64H256 224V0h32zM32 288H80h32v32V448h16 32v64H128 80 32 0V448H32 48V352H32 0V288H32zM0 0H32 160h32V32 192v32H160 32 0V192 32 0zM64 64v96h64V64H64zM224 288H352h32v32V480v32H352 224 192V480 320 288h32zm32 160h64V352H256v96z"/></svg>