<svg xmlns="http://www.w3.org/2000/svg" viewBox="0 0 640 512"><!--! Font Awesome Pro 6.2.0 by @fontawesome - https://fontawesome.com License - https://fontawesome.com/license (Commercial License) Copyright 2022 Fonticons, Inc. --><path d="M352 0V64h32 16v96H384 352v64h32 48 48 32V160H480 464V32 0H432 384 352zM128 288v64h32 16v96H160 128v64h32 48 48 32V448H256 240V320 288H208 160 128zM160 0H128V32 76.6L48.4 14.8 29.4 .1 0 38 19 52.7 591.5 497.2l19 14.7L639.9 474l-19-14.7L512 374.7V320 288H480 400.3l-82.4-64H320V192 32 0H288 160zm75.4 160L192 126.3V64h64v96H235.4zM320 348.1V480v32h32H480h32V499.4L446.8 448H384V398.5l-64-50.4z"/></svg>