<svg xmlns="http://www.w3.org/2000/svg" viewBox="0 0 640 512"><!--! Font Awesome Pro 6.2.0 by @fontawesome - https://fontawesome.com License - https://fontawesome.com/license (Commercial License) Copyright 2022 Fonticons, Inc. --><path d="M224 0V64h32 16v96H256 224v64h32 48 48 32V160H352 336V32 0H304 256 224zM0 288v64H32 48v96H32 0v64H32 80h48 32V448H128 112V320 288H80 32 0zM32 0H0V32 192v32H32 160h32V192 32 0H160 32zM64 160V64h64v96H64zM192 288v32V480v32h32H352h32V480 320 288H352 224 192zm64 64h64v96H256V352zM528 240c17.7 0 32 14.3 32 32v48H496V272c0-17.7 14.3-32 32-32zm-80 32v48H416V512H640V320H608V272c0-44.2-35.8-80-80-80s-80 35.8-80 80z"/></svg>