<svg xmlns="http://www.w3.org/2000/svg" viewBox="0 0 640 512"><!--! Font Awesome Pro 6.2.0 by @fontawesome - https://fontawesome.com License - https://fontawesome.com/license (Commercial License) Copyright 2022 Fonticons, Inc. --><path d="M0 32H32 416h32V64v55c-31.6 25.6-61.5 52.3-88.2 83.1c-21.8 25.1-43.6 54.2-57.4 85.9H64v64 64H298.9c8.4 23.8 21.4 45.5 37.9 64H32 0V448 352 256 224 64 32zM288 352.2c0 10.9 .9 21.5 2.6 31.8H128 96V320h32H291.7c-2.4 10.5-3.7 21.2-3.7 32.2zm225-128c17.2-19.5 31-32 31-32s96 86.4 96 160c0 88.4-71.6 160-160 160s-160-71.6-160-160s128-192 128-192s32.6 26.4 65 64zM530 433c30-21 38-63 20-96c-2-4-4-8-7-12l-36 42s-58-74-62-79c-30 37-45 58-45 82c0 49 36 78 81 78c18 0 34-5 49-15z"/></svg>