<svg xmlns="http://www.w3.org/2000/svg" viewBox="0 0 576 512"><!--! Font Awesome Pro 6.2.0 by @fontawesome - https://fontawesome.com License - https://fontawesome.com/license (Commercial License) Copyright 2022 Fonticons, Inc. --><path d="M153.6 44.8l-25 89.6-58.9-6.7c-12.6 41.8-12.6 86.8 0 128.6l58.9-6.7 25 89.6L84.9 384 72.4 371.2c-96.6-99-96.6-259.4 0-358.4L84.9 0l68.7 44.8zM192 352V0H576L558.5 64H400 384V96h16H549.8l-17.5 64H400 384v32h16H523.6l-17.5 64H400 384v32h16 97.5L480 352H192zm352 32V512H160V384H544zM352 480c17.7 0 32-14.3 32-32s-14.3-32-32-32s-32 14.3-32 32s14.3 32 32 32z"/></svg>