<svg xmlns="http://www.w3.org/2000/svg" viewBox="0 0 512 512"><!--! Font Awesome Pro 6.2.0 by @fontawesome - https://fontawesome.com License - https://fontawesome.com/license (Commercial License) Copyright 2022 Fonticons, Inc. --><path d="M0 0H32h96 32H512L494.5 64H336 320V96h16H485.8l-17.5 64H336 320v32h16H459.6l-17.5 64H336 320v32h16 97.5L416 352H160l-8.7-96H32 0V224 32 0zM145.5 192L133.8 64H64V192h81.5zM480 384V512H96V384H480zM288 480c17.7 0 32-14.3 32-32s-14.3-32-32-32s-32 14.3-32 32s14.3 32 32 32z"/></svg>