<svg xmlns="http://www.w3.org/2000/svg" viewBox="0 0 512 512"><!--! Font Awesome Pro 6.2.0 by @fontawesome - https://fontawesome.com License - https://fontawesome.com/license (Commercial License) Copyright 2022 Fonticons, Inc. --><path d="M0 0H32 480h32V64H480 160v64 64 66.7c13.6 4.8 24.4 15.6 29.3 29.3c.1 .3 .2 .7 .4 1c1.5 4.7 2.4 9.7 2.4 15c0 26.5-21.5 48-48 48s-48-21.5-48-48c0-5.6 1-11 2.7-16c4.8-13.6 15.6-24.4 29.3-29.3V192 128 64H32 0V0zM40 128H96v64H0l40-64zm0 160H65.6c-1 5.2-1.6 10.5-1.6 16c0 18 6 34.6 16 48H0l40-64zm472 64H208c10-13.4 16-30 16-48c0-5.5-.6-10.8-1.6-16H472l40 64zm0-160H192V128H472l40 64zM0 512l40-64H472l40 64H0z"/></svg>