<svg xmlns="http://www.w3.org/2000/svg" viewBox="0 0 512 512"><!--! Font Awesome Pro 6.2.0 by @fontawesome - https://fontawesome.com License - https://fontawesome.com/license (Commercial License) Copyright 2022 Fonticons, Inc. --><path d="M32 0H0V64H16L0 128H128V64h32v64H512L496 64h16V0H480 32zM24 160L0 256H98.7c4.8-13.6 15.6-24.4 29.3-29.3V160H24zM144 320c-20.9 0-38.7-13.4-45.3-32H24L0 384H512l-24-96H189.3c-6.6 18.6-24.4 32-45.3 32zm16-93.3c13.6 4.8 24.4 15.6 29.3 29.3H512l-24-96H160v66.7zM0 512H512l-24-96H24L0 512z"/></svg>