<svg xmlns="http://www.w3.org/2000/svg" viewBox="0 0 640 512"><!--! Font Awesome Pro 6.2.0 by @fontawesome - https://fontawesome.com License - https://fontawesome.com/license (Commercial License) Copyright 2022 Fonticons, Inc. --><path d="M128 32v80H384V32H128zM96 112V32H32v80H96zM32 144v96H240V144H32zm0 224H96V272H32v96zm0 32v80H240V400H32zm240 0v80h64.8c-20.1-22.5-35-49.8-42.7-80H272zM480 144h-2.1l2.1 1.8V144zm-208 0v96h57.9c9.4-13.4 19.7-26.1 29.9-37.9c18.1-20.9 37.8-40 58.4-58.1H272zM128 272v96H288.6c-.4-5.2-.6-10.5-.6-15.8c0-28.1 8.8-55.1 22.1-80.2H128zM480 112V32H416v80h64zm33 112.1c-32.3-37.5-65-64-65-64s-128 103.6-128 192s71.6 160 160 160s160-71.6 160-160c0-73.6-96-160-96-160s-13.9 12.5-31 32zM530 433c-15 10-31 15-49 15c-45 0-81-29-81-78c0-24 15-45 45-82c4 5 62 79 62 79l36-42c3 4 5 8 7 12c18 33 10 75-20 96z"/></svg>