<svg xmlns="http://www.w3.org/2000/svg" viewBox="0 0 512 512"><!--! Font Awesome Pro 6.2.0 by @fontawesome - https://fontawesome.com License - https://fontawesome.com/license (Commercial License) Copyright 2022 Fonticons, Inc. --><path d="M192 0V64c141.4 0 256 114.6 256 256h64C512 143.3 368.7 0 192 0zm0 96v64c88.4 0 160 71.6 160 160h64C416 196.3 315.7 96 192 96zM96 144V96H0v48V368c0 79.5 64.5 144 144 144s144-64.5 144-144s-64.5-144-144-144H128v96h16c26.5 0 48 21.5 48 48s-21.5 48-48 48s-48-21.5-48-48V144z"/></svg>