<svg xmlns="http://www.w3.org/2000/svg" viewBox="0 0 384 512"><!--! Font Awesome Pro 6.2.0 by @fontawesome - https://fontawesome.com License - https://fontawesome.com/license (Commercial License) Copyright 2022 Fonticons, Inc. --><path d="M160 0l51.2 38.4 128 96L373.3 160l-34.1 25.6L245.3 256l93.9 70.4L373.3 352l-34.1 25.6-128 96L160 512V448 320L83.2 377.6 57.6 396.8 19.2 345.6l25.6-19.2L138.7 256 44.8 185.6 19.2 166.4l38.4-51.2 25.6 19.2L160 192V64 0zm64 320v64l42.7-32L224 320zm0-128l42.7-32L224 128v64z"/></svg>