<svg xmlns="http://www.w3.org/2000/svg" viewBox="0 0 512 512"><!--! Font Awesome Pro 6.2.0 by @fontawesome - https://fontawesome.com License - https://fontawesome.com/license (Commercial License) Copyright 2022 Fonticons, Inc. --><path d="M160 273.1c-19.5 11.3-35.7 27.5-46.9 46.9H334.9c-11.2-19.4-27.4-35.6-46.9-46.9l-32-18.5V217.7 64H192V217.7v36.9l-32 18.5zm228.6 12.2C406 314.1 416 347.9 416 384c0 49.2-18.5 94-48.9 128H80.9C50.5 478 32 433.2 32 384c0-71.1 38.6-133.1 96-166.3V64H96V0h32 64 64 64 32V64H320V217.7c14.2 8.2 27.2 18.2 38.8 29.6L398.1 208l-7-7-17-17L408 150.1l17 17 24 24 24 24 17 17L456 265.9l-17-17-7-7-43.3 43.3z"/></svg>