<svg xmlns="http://www.w3.org/2000/svg" viewBox="0 0 576 512"><!--! Font Awesome Pro 6.2.0 by @fontawesome - https://fontawesome.com License - https://fontawesome.com/license (Commercial License) Copyright 2022 Fonticons, Inc. --><path d="M419.4 398.3L384 268.3V142.8l93.7-25.1 67.2 247L419.4 398.3zM469.3 86.8L384 109.6V16.3L445.7 0l23.6 86.8zM427.8 429.2l125.5-33.6L576 478.9 450.3 512l-22.5-82.8zM64 0H192V96H64V0zm0 416H192v96H64V416zM224 0H352V96H224V0zm0 128H352V384H224V128zm0 288H352v96H224V416zM64 160h64v64h64v64H128v64H64V288H0V224H64V160z"/></svg>