<svg xmlns="http://www.w3.org/2000/svg" viewBox="0 0 512 512"><!--! Font Awesome Pro 6.2.0 by @fontawesome - https://fontawesome.com License - https://fontawesome.com/license (Commercial License) Copyright 2022 Fonticons, Inc. --><path d="M352 96c0 53-43 96-96 96s-96-43-96-96s43-96 96-96s96 43 96 96zM240 248V512l-48.4-24.2c-20.9-10.4-43.5-17-66.8-19.3L0 456V192H62.3c63.6 0 125.6 19.6 177.7 56zm32 264V248c52.1-36.4 114.1-56 177.7-56H512V456L387.2 468.5c-23.2 2.3-45.9 8.9-66.8 19.3L272 512z"/></svg>