<svg xmlns="http://www.w3.org/2000/svg" viewBox="0 0 448 512"><!--! Font Awesome Pro 6.2.0 by @fontawesome - https://fontawesome.com License - https://fontawesome.com/license (Commercial License) Copyright 2022 Fonticons, Inc. --><path d="M352 0c53 0 96 43 96 96V416c0 53-43 96-96 96H64 32 0V448H32V384H0V0H32 64 352zm0 384H96v64H352c17.7 0 32-14.3 32-32s-14.3-32-32-32zM301.7 90.3C280.1 73.8 253.2 64 224 64C153.3 64 96 121.3 96 192s57.3 128 128 128c29.2 0 56.1-9.8 77.7-26.3c-7 1.5-14.3 2.3-21.7 2.3c-57.4 0-104-46.6-104-104s46.6-104 104-104c7.4 0 14.7 .8 21.7 2.3zm-6.9 81.3L280 136l-14.8 35.6-38.4 3.1L256 199.8l-8.9 37.5L280 217.2l32.9 20.1L304 199.8l29.3-25.1-38.4-3.1z"/></svg>