<svg xmlns="http://www.w3.org/2000/svg" viewBox="0 0 640 512"><!--! Font Awesome Pro 6.2.0 by @fontawesome - https://fontawesome.com License - https://fontawesome.com/license (Commercial License) Copyright 2022 Fonticons, Inc. --><path d="M96 0C43 0 0 43 0 96V416c0 53 43 96 96 96H384h10.8c-23.3-16.4-42.5-38.4-55.6-64H96c-17.7 0-32-14.3-32-32s14.3-32 32-32H320.7c-.5-5.3-.7-10.6-.7-16c0-80.6 54.1-148.5 128-169.4V0H416 384 96zM640 368c0-79.5-64.5-144-144-144s-144 64.5-144 144s64.5 144 144 144s144-64.5 144-144zM504 289.4l11.3 11.3 56 56L582.6 368l-11.3 11.3-56 56L504 446.6 481.4 424l11.3-11.3L521.4 384H432 416V352h16 89.4l-28.7-28.7L481.4 312 504 289.4z"/></svg>