<svg xmlns="http://www.w3.org/2000/svg" viewBox="0 0 448 512"><!--! Font Awesome Pro 6.2.0 by @fontawesome - https://fontawesome.com License - https://fontawesome.com/license (Commercial License) Copyright 2022 Fonticons, Inc. --><path d="M0 96C0 43 43 0 96 0H384h32 32V384H416v64h32v64H416 384 96c-53 0-96-43-96-96V96zM64 416c0 17.7 14.3 32 32 32H352V384H96c-17.7 0-32 14.3-32 32zM250.1 64H229.9l-4.4 9.1-61.2 128-40.2 84-1.4 2.9h35.5l30.6-64H291.1l30.6 64h35.5l-1.4-2.9-40.2-84-61.2-128L250.1 64zm25.7 128H204.2L240 117.1 275.8 192z"/></svg>