<svg xmlns="http://www.w3.org/2000/svg" viewBox="0 0 448 512"><!--! Font Awesome Pro 6.2.0 by @fontawesome - https://fontawesome.com License - https://fontawesome.com/license (Commercial License) Copyright 2022 Fonticons, Inc. --><path d="M352 0c53 0 96 43 96 96V416c0 53-43 96-96 96H64 32 0V448H32V384H0V0H32 64 352zm0 384H96v64H352c17.7 0 32-14.3 32-32s-14.3-32-32-32zM208 40L194.1 64l-27.7 48H111 83.3l13.9 24 27.7 48L97.1 232 83.3 256H111h55.4l27.7 48L208 328l13.9-24 27.7-48H305h27.7l-13.9-24-27.7-48 27.7-48 13.9-24H305 249.6L221.9 64 208 40zm13.9 72H194.1L208 88l13.9 24zm-41.6 24h55.4l27.7 48-27.7 48H180.3l-27.7-48 27.7-48zm-27.7 0l-13.9 24-13.9-24h27.7zm-13.9 72l13.9 24H124.9l13.9-24zm55.4 48h27.7L208 280l-13.9-24zm69.3-24l13.9-24 13.9 24H263.4zm13.9-72l-13.9-24h27.7l-13.9 24z"/></svg>