<svg xmlns="http://www.w3.org/2000/svg" viewBox="0 0 640 512"><!--! Font Awesome Pro 6.2.0 by @fontawesome - https://fontawesome.com License - https://fontawesome.com/license (Commercial License) Copyright 2022 Fonticons, Inc. --><path d="M96 0C43 0 0 43 0 96V416c0 53 43 96 96 96H384h32 32V448H416V384h32V232h94.1l-39 39-17 17L520 321.9l17-17 80-80 17-17-17-17-80-80-17-17L486.1 128l17 17 39 39H448V0H416 384 96zM448 184v48H248 224V184h24H448zM96 384H352v64H96c-17.7 0-32-14.3-32-32s14.3-32 32-32z"/></svg>