<svg xmlns="http://www.w3.org/2000/svg" viewBox="0 0 640 512"><!--! Font Awesome Pro 6.2.0 by @fontawesome - https://fontawesome.com License - https://fontawesome.com/license (Commercial License) Copyright 2022 Fonticons, Inc. --><path d="M32 0H56 584h24V24 160h32V512H0V160H32V24 0zM80 160H192V128h64v32h32V128h64v32h32V128h64v32H560V48H80V160zM256 336c0 44.2-35.8 80-80 80s-80-35.8-80-80s35.8-80 80-80s80 35.8 80 80zm32 0c0-61.9-50.1-112-112-112s-112 50.1-112 112s50.1 112 112 112s112-50.1 112-112zm176 80c-44.2 0-80-35.8-80-80s35.8-80 80-80s80 35.8 80 80s-35.8 80-80 80zm0 32c61.9 0 112-50.1 112-112s-50.1-112-112-112s-112 50.1-112 112s50.1 112 112 112z"/></svg>