<svg xmlns="http://www.w3.org/2000/svg" viewBox="0 0 448 512"><!--! Font Awesome Pro 6.2.0 by @fontawesome - https://fontawesome.com License - https://fontawesome.com/license (Commercial License) Copyright 2022 Fonticons, Inc. --><path d="M0 32H448V96H0V32zm0 96H64v64H0V128zm448 0v64H384V128h64zm-256 0h64v64H192V128zM64 320v64H0V320H64zm320 0h64v64H384V320zm-128 0v64H192V320h64zM0 224H64v64H0V224zm448 0v64H384V224h64zm-256 0h64v64H192V224zM64 416v64H0V416H64zm320 0h64v64H384V416zm-128 0v64H192V416h64zM96 224h64v64H96V224zm64 192v64H96V416h64zm128 0h64v64H288V416zm64-192v64H288V224h64z"/></svg>