<svg xmlns="http://www.w3.org/2000/svg" viewBox="0 0 256 512"><!--! Font Awesome Pro 6.2.0 by @fontawesome - https://fontawesome.com License - https://fontawesome.com/license (Commercial License) Copyright 2022 Fonticons, Inc. --><path d="M192 0V64H64V0H192zM0 151.7c0-15.6 9-29.8 23.2-36.5L64.3 96H191.7l41.1 19.3c14.2 6.6 23.2 20.8 23.2 36.5c0 14.4-7.5 27-18.9 34.1c11.5 8.8 18.9 22.6 18.9 38.2c0 16.7-8.5 31.4-21.5 40c12.9 8.6 21.5 23.3 21.5 40s-8.5 31.4-21.5 40c12.9 8.6 21.5 23.3 21.5 40s-8.5 31.4-21.5 40c12.9 8.6 21.5 23.3 21.5 40v48H0V464c0-16.7 8.5-31.4 21.5-40C8.5 415.4 0 400.7 0 384s8.5-31.4 21.5-40C8.5 335.4 0 320.7 0 304s8.5-31.4 21.5-40C8.5 255.4 0 240.7 0 224c0-15.6 7.4-29.4 18.9-38.2C7.5 178.7 0 166.1 0 151.7zM64 224v32H192V224H64zM192 352H64v32H192V352z"/></svg>