<svg xmlns="http://www.w3.org/2000/svg" viewBox="0 0 512 512"><!--! Font Awesome Pro 6.2.0 by @fontawesome - https://fontawesome.com License - https://fontawesome.com/license (Commercial License) Copyright 2022 Fonticons, Inc. --><path d="M200 32h16 24V80H216 200 176V32h24zm-24 72h24 16 24v48H216 200 176V104zM56 176H72 96v48H72 56 32V176H56zm192 0h16 24v48H264 248 224V176h24zm-96 0h16 24v48H168 152 128V176h24zM80 104h24 16 24v48H120 104 80V104zm264 72h16 24v48H360 344 320V176h24zm-72-72h24 16 24v48H312 296 272V104zm168 72h16 24v48H456 440 416V176h24zm-72-72h24 16 24v48H408 392 368V104zM272 32h24 16 24V80H312 296 272V32zM0 256H512v24c0 67-39.2 124.9-96 151.8V480H96V431.8C39.2 404.9 0 347 0 280V256z"/></svg>