<svg xmlns="http://www.w3.org/2000/svg" viewBox="0 0 448 512"><!--! Font Awesome Pro 6.2.0 by @fontawesome - https://fontawesome.com License - https://fontawesome.com/license (Commercial License) Copyright 2022 Fonticons, Inc. --><path d="M224 208c0-22.7 6.7-43.8 18.3-61.4c19.8-30.2 53.8-50.2 92.6-50.6l1.1 0c61.9 0 112 50.1 112 112c0 5.4-.4 10.8-1.1 16H225.1c-.7-5.2-1.1-10.6-1.1-16zM0 208C0 146.1 50.1 96 112 96l1.1 0c38.7 .4 72.7 20.4 92.6 50.6C196.9 165.2 192 186 192 208c0 5.4 .3 10.7 .9 16H1.1C.4 218.8 0 213.4 0 208zM325.4 64.4c-40.9 3-77.1 23-101.4 53.1c-24.3-30.1-60.5-50.1-101.4-53.1C140.5 26.3 179.2 0 224 0s83.5 26.3 101.4 64.4zM4.5 300.7L0 256H448l-4.5 44.7C437 366.2 381.9 416 316.2 416H256l80 72v24H112V488l80-72H131.8C66.1 416 11 366.2 4.5 300.7z"/></svg>