<svg xmlns="http://www.w3.org/2000/svg" viewBox="0 0 512 512"><!--! Font Awesome Pro 6.2.0 by @fontawesome - https://fontawesome.com License - https://fontawesome.com/license (Commercial License) Copyright 2022 Fonticons, Inc. --><path d="M176 24c0 26.5 10.5 38.7 25.9 56.1l.4 .4C218.8 99 240 122.9 240 168v24H192V168c0-26.5-10.5-38.7-25.9-56.1l-.4-.4C149.2 93 128 69.1 128 24V0h48V24zm128 0c0 26.5 10.5 38.7 25.9 56.1l.4 .4C346.8 99 368 122.9 368 168v24H320V168c0-26.5-10.5-38.7-25.9-56.1l-.4-.4C277.2 93 256 69.1 256 24V0h48V24zM0 224H512l-3.6 61.2C503.5 368.1 454 438.2 384 472.9V512H128V472.9C58 438.2 8.5 368.1 3.6 285.2L0 224z"/></svg>