<svg xmlns="http://www.w3.org/2000/svg" viewBox="0 0 512 512"><!--! Font Awesome Pro 6.2.0 by @fontawesome - https://fontawesome.com License - https://fontawesome.com/license (Commercial License) Copyright 2022 Fonticons, Inc. --><path d="M0 96v32l64-10v24L0 144v32H64v48H0l3.6 61.2C8.5 368.1 58 438.2 128 472.9V512H384V472.9c70-34.6 119.5-104.8 124.4-187.7L512 224H224 192V176 138 98 60 40 16H144V40 69v36.5 34V176v48H112V176 140.5v-30V75 56 32H64V56 84L0 96zm512 80V128l-288 9v39H512zm0-128V0L224 54V93L512 48z"/></svg>