<svg xmlns="http://www.w3.org/2000/svg" viewBox="0 0 640 512"><!--! Font Awesome Pro 6.2.0 by @fontawesome - https://fontawesome.com License - https://fontawesome.com/license (Commercial License) Copyright 2022 Fonticons, Inc. --><path d="M448 64c0-35.3 28.7-64 64-64s64 28.7 64 64v1.1c0 7.4-1 14.8-2.9 22l-17.7 64.8c-.7 2.7-1.3 5.4-1.8 8.1H470.5c-.5-2.7-1.1-5.4-1.8-8.1L450.9 87.1c-2-7.2-2.9-14.6-2.9-22V64zm23.1 128h81.7c.8 6 2.2 11.9 4.1 17.6l49.4 148.3 3.1 9.4-2.7 9.5-32 112L568.1 512H544 480 455.9l-6.6-23.2L436 442.5c27.7-39.1 44-86.9 44-138.5c0-30.2-5.6-59.2-15.8-85.8l2.9-8.6c1.9-5.7 3.3-11.6 4.1-17.6zM448 304c0 114.9-93.1 208-208 208S32 418.9 32 304S125.1 96 240 96s208 93.1 208 208zM256 172c0-15.5-12.5-28-28-28s-28 12.5-28 28s12.5 28 28 28s28-12.5 28-28zM228 288c15.5 0 28-12.5 28-28s-12.5-28-28-28s-28 12.5-28 28s12.5 28 28 28zm-44-68c0-15.5-12.5-28-28-28s-28 12.5-28 28s12.5 28 28 28s28-12.5 28-28z"/></svg>