<svg xmlns="http://www.w3.org/2000/svg" viewBox="0 0 512 512"><!--! Font Awesome Pro 6.2.0 by @fontawesome - https://fontawesome.com License - https://fontawesome.com/license (Commercial License) Copyright 2022 Fonticons, Inc. --><path d="M128 0c35.3 0 64 28.7 64 64v1.1c0 7.4-1 14.8-2.9 21.9l-17.6 64.9c-.7 2.7-1.3 5.4-1.8 8.1H86.5c-.5-2.7-1.1-5.4-1.8-8.1L66.9 87.1c-2-7.2-2.9-14.6-2.9-22V64C64 28.7 92.7 0 128 0zM83.1 209.6c1.9-5.7 3.3-11.6 4.1-17.6H169c.8 6 2.2 11.8 4.1 17.6l49.3 148.3 3.1 9.4-2.7 9.5-32 112L184.1 512H160 96 71.9l-6.6-23.2-32-112-2.7-9.5 3.1-9.4L83.1 209.6zM384 0c35.3 0 64 28.7 64 64v1.1c0 7.4-1 14.8-2.9 21.9l-17.6 64.9c-.7 2.7-1.3 5.4-1.8 8.1H342.5c-.5-2.7-1.1-5.4-1.8-8.1L323 87.1c-2-7.2-3-14.6-3-22V64c0-35.3 28.7-64 64-64zM339.1 209.6c1.9-5.7 3.3-11.6 4.1-17.6H425c.8 6 2.2 11.8 4.1 17.6l49.3 148.3 3.1 9.4-2.7 9.5-32 112L440.1 512H416 352 327.9l-6.6-23.2-32-112-2.7-9.5 3.1-9.4 49.4-148.3z"/></svg>