<svg xmlns="http://www.w3.org/2000/svg" viewBox="0 0 448 512"><!--! Font Awesome Pro 6.2.0 by @fontawesome - https://fontawesome.com License - https://fontawesome.com/license (Commercial License) Copyright 2022 Fonticons, Inc. --><path d="M256 0H224l10.8 16.3c3.4 5 5.2 11 5.2 17c0 17-13.7 30.7-30.7 30.7H128c-35.3 0-64 28.7-64 64c0 11.7 3.1 22.6 8.6 32H64c-35.3 0-64 28.7-64 64v64H448V224c0-35.3-28.7-64-64-64h-8.6c5.4-9.4 8.6-20.3 8.6-32C384 57.3 326.7 0 256 0zM32 320H16v16 8c0 57.4 46.6 104 104 104h32l-24 64H320l-24-64h32c57.4 0 104-46.6 104-104v-8V320H416 32z"/></svg>