<svg xmlns="http://www.w3.org/2000/svg" viewBox="0 0 576 512"><!--! Font Awesome Pro 6.2.0 by @fontawesome - https://fontawesome.com License - https://fontawesome.com/license (Commercial License) Copyright 2022 Fonticons, Inc. --><path d="M208 32V160H0L64 32H208zm32 0H384l64 128H416 240V32zM0 480V192H416v.7c-89.7 8.1-160 83.5-160 175.3c0 42.5 15.1 81.6 40.2 112H0zM576 368c0 79.5-64.5 144-144 144s-144-64.5-144-144s64.5-144 144-144s144 64.5 144 144zm-65.4-32L488 313.4l-11.3 11.3L416 385.4l-28.7-28.7L376 345.4 353.4 368l11.3 11.3 40 40L416 430.6l11.3-11.3 72-72L510.6 336z"/></svg>