<svg xmlns="http://www.w3.org/2000/svg" viewBox="0 0 576 512"><!--! Font Awesome Pro 6.2.0 by @fontawesome - https://fontawesome.com License - https://fontawesome.com/license (Commercial License) Copyright 2022 Fonticons, Inc. --><path d="M64 32H96h96 32V96H192 128v96 13.3l-9.4 9.4L77.3 256l41.4 41.4 9.4 9.4V320v96h64 32v64H192 96 64V448 333.3L9.4 278.6 0 269.3V242.7l9.4-9.4L64 178.7V64 32zm448 0V64 178.7l54.6 54.6 9.4 9.4v26.5l-9.4 9.4L512 333.3V448v32H480 384 352V416h32 64V320 306.7l9.4-9.4L498.7 256l-41.4-41.4-9.4-9.4V192 96H384 352V32h32 96 32z"/></svg>