<svg xmlns="http://www.w3.org/2000/svg" viewBox="0 0 576 512"><!--! Font Awesome Pro 6.2.0 by @fontawesome - https://fontawesome.com License - https://fontawesome.com/license (Commercial License) Copyright 2022 Fonticons, Inc. --><path d="M240 56V0H184c-28.9 0-52.7 21.9-55.7 49.9C100.6 56.9 80 82.1 80 112c0 6 .8 11.9 2.4 17.4C53.6 135.7 32 161.3 32 192c0 15 5.1 28.8 13.8 39.7C18.7 244.5 0 272.1 0 304c0 34.2 21.4 63.4 51.6 74.8C49.3 385.4 48 392.6 48 400c0 35.3 28.7 64 64 64c5.6 0 11.1-.7 16.3-2.1c2.9 28.2 26.8 50.1 55.7 50.1h56V456 416 56zM477.8 208.6c1.4-5.3 2.2-10.8 2.2-16.6c0-30.7-21.6-56.3-50.4-62.6c1.6-5.5 2.4-11.4 2.4-17.4c0-29.9-20.6-55.1-48.3-62.1C380.6 21.9 356.9 0 328 0H272V56 325.5c26.4-32.6 66.8-53.5 112-53.5h32V208h61.3l.6 .6zM464 240H448v64H384c-61.9 0-112 50.1-112 112c0 64 64 96 64 96V464c0-35.3 28.7-64 64-64h48v64h16L576 352 464 240z"/></svg>