<svg xmlns="http://www.w3.org/2000/svg" viewBox="0 0 512 512"><!--! Font Awesome Pro 6.2.0 by @fontawesome - https://fontawesome.com License - https://fontawesome.com/license (Commercial License) Copyright 2022 Fonticons, Inc. --><path d="M240 56V0H184c-28.9 0-52.7 21.9-55.7 49.9C100.6 56.9 80 82.1 80 112c0 6 .8 11.9 2.4 17.4C53.6 135.7 32 161.3 32 192c0 15 5.1 28.8 13.8 39.7C18.7 244.5 0 272.1 0 304c0 34.2 21.4 63.4 51.6 74.8C49.3 385.4 48 392.6 48 400c0 35.3 28.7 64 64 64c5.6 0 11.1-.7 16.3-2.1c2.9 28.2 26.8 50.1 55.7 50.1h56V456 272H176v50.7c18.6 6.6 32 24.4 32 45.3c0 26.5-21.5 48-48 48s-48-21.5-48-48c0-20.9 13.4-38.7 32-45.3V256 240h16 80V160H205.3c-6.6 18.6-24.4 32-45.3 32c-26.5 0-48-21.5-48-48s21.5-48 48-48c20.9 0 38.7 13.4 45.3 32H240V56zm32 104V352h34.7c6.6-18.6 24.4-32 45.3-32c26.5 0 48 21.5 48 48s-21.5 48-48 48c-20.9 0-38.7-13.4-45.3-32H272v72 56h56c28.9 0 52.7-21.9 55.7-50.1c5.2 1.4 10.7 2.1 16.3 2.1c35.3 0 64-28.7 64-64c0-7.4-1.3-14.6-3.6-21.2C490.6 367.4 512 338.2 512 304c0-31.9-18.7-59.5-45.8-72.3C474.9 220.8 480 207 480 192c0-30.7-21.6-56.3-50.4-62.6c1.6-5.5 2.4-11.4 2.4-17.4c0-29.9-20.6-55.1-48.3-62.1C380.6 21.9 356.9 0 328 0H272V56v72h80 16v16 34.7c18.6 6.6 32 24.4 32 45.3c0 26.5-21.5 48-48 48s-48-21.5-48-48c0-20.9 13.4-38.7 32-45.3V160H272zM144 144c0 8.8 7.2 16 16 16s16-7.2 16-16s-7.2-16-16-16s-16 7.2-16 16zm208 64c-8.8 0-16 7.2-16 16s7.2 16 16 16s16-7.2 16-16s-7.2-16-16-16zM144 368c0 8.8 7.2 16 16 16s16-7.2 16-16s-7.2-16-16-16s-16 7.2-16 16zm192 0c0 8.8 7.2 16 16 16s16-7.2 16-16s-7.2-16-16-16s-16 7.2-16 16z"/></svg>