<svg xmlns="http://www.w3.org/2000/svg" viewBox="0 0 640 512"><!--! Font Awesome Pro 6.2.0 by @fontawesome - https://fontawesome.com License - https://fontawesome.com/license (Commercial License) Copyright 2022 Fonticons, Inc. --><path d="M544 256c0 123.7-100.3 224-224 224S96 379.7 96 256S196.3 32 320 32s224 100.3 224 224zM344 152V128H296v24V264v24h48V264 152zM296 320v48h48V320H296zM91.1 109C63.8 151.4 48 201.8 48 256s15.8 104.6 43.1 147l13 20.2-40.4 26L50.7 429C18.6 379.1 0 319.7 0 256S18.6 132.9 50.7 83l13-20.2 40.4 26L91.1 109zM589.3 83C621.4 132.9 640 192.3 640 256s-18.6 123.1-50.7 173l-13 20.2-40.4-26 13-20.2c27.3-42.4 43.1-92.8 43.1-147s-15.8-104.6-43.1-147l-13-20.2 40.4-26 13 20.2z"/></svg>