<svg xmlns="http://www.w3.org/2000/svg" viewBox="0 0 512 512"><!--! Font Awesome Pro 6.2.0 by @fontawesome - https://fontawesome.com License - https://fontawesome.com/license (Commercial License) Copyright 2022 Fonticons, Inc. --><path d="M432 32V0H368V32 54.2C321.5 70 288 114 288 165.9c0 48.2 29.3 91.5 74.1 109.4l52 20.8c20.5 8.2 33.9 28 33.9 50v3.4c0 27.9-22.6 50.5-50.5 50.5c-12.9 0-25.6-3.8-36.3-11l-23.4-15.6-35.5 53.3 23.4 15.6c13 8.6 27.3 14.8 42.3 18.3V480v32h64V480 458.7c46.4-14.6 80-58 80-109.2v-3.4c0-48.2-29.3-91.5-74.1-109.4l-52-20.8c-20.5-8.2-33.9-28-33.9-50c0-29.7 24.1-53.9 53.9-53.9h1.7c11.1 0 22 2.6 32 7.5l10.2 5.1 28.6-57.2-10.1-5.1c-11.5-5.7-23.6-9.8-36.2-12.1V32zM0 32V64 288 480H64V320h40.6l51.2 160H223l-.6-1.8L168.2 308.6c51.6-21.9 87.8-73 87.8-132.6c0-79.5-64.5-144-144-144H32 0zM64 256V96h48c44.2 0 80 35.8 80 80s-35.8 80-80 80H64z"/></svg>