<svg xmlns="http://www.w3.org/2000/svg" viewBox="0 0 640 512"><!--! Font Awesome Pro 6.2.0 by @fontawesome - https://fontawesome.com License - https://fontawesome.com/license (Commercial License) Copyright 2022 Fonticons, Inc. --><path d="M32 32H64 576h32V96H576 536v64h-8c-61.9 0-112 50.1-112 112v16H384l0 24.4c-17-15.2-39.4-24.4-64-24.4c-53 0-96 43-96 96v96H128V384c0-53-43-96-96-96V160h72V96H64 32V32zM408 96v64h80V96H408zm-48 64V96H280v64h80zM152 96v64h80V96H152zM528 240c-17.7 0-32 14.3-32 32v48h64V272c0-17.7-14.3-32-32-32zm-80 32c0-44.2 35.8-80 80-80s80 35.8 80 80v48h32V512H416V320h32V272z"/></svg>