<svg xmlns="http://www.w3.org/2000/svg" viewBox="0 0 640 512"><!--! Font Awesome Pro 6.2.0 by @fontawesome - https://fontawesome.com License - https://fontawesome.com/license (Commercial License) Copyright 2022 Fonticons, Inc. --><path d="M64 32H32V96H64h40v64H32V288c53 0 96 43 96 96v96h96V384c0-53 43-96 96-96c6.3 0 12.4 .6 18.3 1.7C367.1 231.8 426.9 192 496 192c42.5 0 81.6 15.1 112 40.2V160H536V96h40 32V32H576 64zM488 96v64H408V96h80zM360 96v64H280V96h80zM232 96v64H152V96h80zM496 512c79.5 0 144-64.5 144-144s-64.5-144-144-144s-144 64.5-144 144s64.5 144 144 144zm59.3-180.7L518.6 368l36.7 36.7L566.6 416 544 438.6l-11.3-11.3L496 390.6l-36.7 36.7L448 438.6 425.4 416l11.3-11.3L473.4 368l-36.7-36.7L425.4 320 448 297.4l11.3 11.3L496 345.4l36.7-36.7L544 297.4 566.6 320l-11.3 11.3z"/></svg>