<svg xmlns="http://www.w3.org/2000/svg" viewBox="0 0 640 512"><!--! Font Awesome Pro 6.2.0 by @fontawesome - https://fontawesome.com License - https://fontawesome.com/license (Commercial License) Copyright 2022 Fonticons, Inc. --><path d="M64 32H32V96H64h40v64H32V288c53 0 96 43 96 96v96h96V384c0-53 43-96 96-96c6.3 0 12.4 .6 18.3 1.7C367.1 231.8 426.9 192 496 192c42.5 0 81.6 15.1 112 40.2V160H536V96h40 32V32H576 64zM488 96v64H408V96h80zM360 96v64H280V96h80zM232 96v64H152V96h80zM640 368c0-79.5-64.5-144-144-144s-144 64.5-144 144s64.5 144 144 144s144-64.5 144-144zm-65.4-32l-11.3 11.3-72 72L480 430.6l-11.3-11.3-40-40L417.4 368 440 345.4l11.3 11.3L480 385.4l60.7-60.7L552 313.4 574.6 336z"/></svg>