<svg xmlns="http://www.w3.org/2000/svg" viewBox="0 0 448 512"><!--! Font Awesome Pro 6.2.0 by @fontawesome - https://fontawesome.com License - https://fontawesome.com/license (Commercial License) Copyright 2022 Fonticons, Inc. --><path d="M192 48v64h64V48H192zM96 82.7L50.7 128 96 173.3 141.3 128 96 82.7zM16 224v64H80l0-64H16zM141.3 384L96 338.7 50.7 384 96 429.3 141.3 384zM256 464V400H192v64h64zm50.7-80L352 429.3 397.3 384 352 338.7 306.7 384zM432 224H368v64h64V224zm-34.7-96L352 82.7 306.7 128 352 173.3 397.3 128zM224 352c53 0 96-43 96-96s-43-96-96-96s-96 43-96 96s43 96 96 96z"/></svg>