<svg xmlns="http://www.w3.org/2000/svg" viewBox="0 0 512 512"><!--! Font Awesome Pro 6.2.0 by @fontawesome - https://fontawesome.com License - https://fontawesome.com/license (Commercial License) Copyright 2022 Fonticons, Inc. --><path d="M288 32V0H224V32 80v32h64V80 32zM118.6 73.4L96 50.7 50.7 96l22.6 22.6 32 32L128 173.3 173.3 128l-22.6-22.6-32-32zm320 45.3L461.3 96 416 50.7 393.4 73.4l-32 32L338.7 128 384 173.3l22.6-22.6 32-32zM32 224H0v64H32 80h32V224H80 32zm448 0H432 400v64h32 48 32V224H480zM150.6 406.6L173.3 384 128 338.7l-22.6 22.6-32 32L50.7 416 96 461.3l22.6-22.6 32-32zm256-45.3L384 338.7 338.7 384l22.6 22.6 32 32L416 461.3 461.3 416l-22.6-22.6-32-32zM288 480V432 400H224v32 48 32h64V480zM256 352c53 0 96-43 96-96s-43-96-96-96s-96 43-96 96s43 96 96 96z"/></svg>