<svg xmlns="http://www.w3.org/2000/svg" viewBox="0 0 640 512"><!--! Font Awesome Pro 6.2.0 by @fontawesome - https://fontawesome.com License - https://fontawesome.com/license (Commercial License) Copyright 2022 Fonticons, Inc. --><path d="M627.6 57.3L398.3 235.7l39.1 50-70.1 14.2L288.4 199l30.7-64.6 39.7 50.8L588.4 6.7l39.3 50.5zM265.2 481.1C202.1 530.4 0 505.6 0 505.6s3.2-26.2 10.3-62L94.4 340.5 27.3 372c14-48.7 33.8-97 60.5-117.8c57.7-45.1 175.3-35.5 175.3-35.5L342 319.6s-19.1 116.4-76.8 161.5zM496 512c-44.2 0-80-35.8-80-80s35.8-80 80-80s80 35.8 80 80s-35.8 80-80 80z"/></svg>