<svg xmlns="http://www.w3.org/2000/svg" viewBox="0 0 640 512"><!--! Font Awesome Pro 6.2.0 by @fontawesome - https://fontawesome.com License - https://fontawesome.com/license (Commercial License) Copyright 2022 Fonticons, Inc. --><path d="M196.5 107.4l29.7-65.5 9.9-21.9L192.4 .2l-9.9 21.9L160 71.7 137.5 22.1 127.6 .2 83.9 20.1l9.9 21.9 29.7 65.5c-10.2 7.1-18.2 17-22.9 28.6H85.5l-2.1-18.7L80.7 93.5 33 98.8l2.7 23.9 4.5 40L42.5 184H64 96v23.3l-37.8 9.5-16.1 4-1.9 16.5-6.4 56L31 317.1l47.7 5.4 2.7-23.8L86 259.3l17.9-4.5C114.7 274.6 135.8 288 160 288s45.3-13.4 56.1-33.2l17.9 4.5 4.5 39.5 2.7 23.8 47.7-5.4-2.7-23.8-6.4-56L278 220.8l-16.1-4L224 207.3V184h32 21.3l2.5-21.1 4.8-40L287.5 99l-47.7-5.7L237 117.1 234.7 136H219.3c-4.7-11.6-12.7-21.5-22.9-28.6zM520 286.5l65.6-47 19.5-14-27.9-39-19.5 14-51.4 36.8 6.2-62.9 2.3-23.9-47.8-4.7-2.3 23.9L456.8 250c-12.3 1-24.2 5.6-34.1 13.3L408 254.8l6.8-20 7.7-22.7L377 196.7l-7.7 22.7-13.1 38.6-6.3 18.6 17 9.8 27.7 16L383 322.7 345.5 312 330 307.5l-10 12.7-34.9 44.5-14.8 18.9 37.8 29.6 14.8-18.9 25-31.8 18.2 5.2c-.5 22.6 11 44.7 32 56.8s45.9 11 65.2-.7l14.2 13.7L465.4 472l-8 22.6 45.3 15.9 8-22.6L527.8 439l5.1-14.5-11.1-10.7-28-27.1 11.6-20.1 27.7 16 17 9.8 13-14.8L590.2 347 606 329l-36.1-31.7-15.8 18-13.9 15.9-14.7-8.5c1.7-12.4-.2-25-5.5-36.2z"/></svg>