<svg xmlns="http://www.w3.org/2000/svg" viewBox="0 0 384 512"><!--! Font Awesome Pro 6.2.0 by @fontawesome - https://fontawesome.com License - https://fontawesome.com/license (Commercial License) Copyright 2022 Fonticons, Inc. --><path d="M384 0H0V512H144V384h96V512H384V0zM64 224h64v64H64V224zm160 0v64H160V224h64zm32 64V224h64v64H256zM112 80v64c0 8.8 7.2 16 16 16s16-7.2 16-16V80 64h32V80v64c0 26.5-21.5 48-48 48s-48-21.5-48-48V80 64h32V80zM224 64h8 9.9l4.4 8.8L272 124.2V80 64h32V80v96 16H288h-8-9.9l-4.4-8.8L240 131.8V176v16H208V176 80 64h16z"/></svg>