<svg xmlns="http://www.w3.org/2000/svg" viewBox="0 0 640 512"><!--! Font Awesome Pro 6.2.0 by @fontawesome - https://fontawesome.com License - https://fontawesome.com/license (Commercial License) Copyright 2022 Fonticons, Inc. --><path d="M384 0H0V512H144V384h96V512H384v-8.2c-39.1-32.3-64-81.1-64-135.8s24.9-103.5 64-135.8V0zM64 224h64v64H64V224zm160 0v64H160V224h64zm32 0h64v64H256V224zM128 96v64H64V96h64zm32 0h64v64H160V96zm160 0v64H256V96h64zM496 512c79.5 0 144-64.5 144-144s-64.5-144-144-144s-144 64.5-144 144s64.5 144 144 144zm59.3-180.7L518.6 368l36.7 36.7L566.6 416 544 438.6l-11.3-11.3L496 390.6l-36.7 36.7L448 438.6 425.4 416l11.3-11.3L473.4 368l-36.7-36.7L425.4 320 448 297.4l11.3 11.3L496 345.4l36.7-36.7L544 297.4 566.6 320l-11.3 11.3z"/></svg>