<svg xmlns="http://www.w3.org/2000/svg" viewBox="0 0 576 512"><!--! Font Awesome Pro 6.2.0 by @fontawesome - https://fontawesome.com License - https://fontawesome.com/license (Commercial License) Copyright 2022 Fonticons, Inc. --><path d="M384 0H0V512H144V384h96V512h80l0-224H256V224h64v63.7h32V272c0-30.5 12.2-58.2 32-78.4V0zM64 224h64v64H64V224zm160 0v64H160V224h64zM128 96v64H64V96h64zm32 0h64v64H160V96zm160 0v64H256V96h64zM464 240c17.7 0 32 14.3 32 32v48H432V272c0-17.7 14.3-32 32-32zm-80 32v48H352V512H576V320H544V272c0-44.2-35.8-80-80-80s-80 35.8-80 80z"/></svg>