<svg xmlns="http://www.w3.org/2000/svg" viewBox="0 0 640 512"><!--! Font Awesome Pro 6.2.0 by @fontawesome - https://fontawesome.com License - https://fontawesome.com/license (Commercial License) Copyright 2022 Fonticons, Inc. --><path d="M0 0H384V512H240V384H144V512H0V0zM128 224H64v64h64V224zm32 0v64h64V224H160zm160 0H256v64h64V224zM64 96v64h64V96H64zm160 0H160v64h64V96zm32 0v64h64V96H256zm384 96v16c0 44.2-35.8 80-80 80H544V272c0-44.2 35.8-80 80-80h16zm0 128c0 44.2-35.8 80-80 80H544V384c0-44.2 35.8-80 80-80h16v16zm0 112c0 44.2-35.8 80-80 80H544V496c0-44.2 35.8-80 80-80h16v16zM512 496v16H496c-44.2 0-80-35.8-80-80V416h16c44.2 0 80 35.8 80 80zm0-96H496c-44.2 0-80-35.8-80-80V304h16c44.2 0 80 35.8 80 80v16zm0-128v16H496c-44.2 0-80-35.8-80-80V192h16c44.2 0 80 35.8 80 80zM552 32V56 160v24H504V160 56 32l48 0zm72 64v32 24H576V128 96 72h48V96zM480 72V96v32 24l-48 0V128 96 72h48z"/></svg>