<svg xmlns="http://www.w3.org/2000/svg" viewBox="0 0 640 512"><!--! Font Awesome Pro 6.2.0 by @fontawesome - https://fontawesome.com License - https://fontawesome.com/license (Commercial License) Copyright 2022 Fonticons, Inc. --><path d="M384 0H0V512H144V384h96V512h77.8l60-160H384V272 0zM64 224h64v64H64V224zm160 0v64H160V224h64zm32 0h64v64H256V224zM128 96v64H64V96h64zm32 0h64v64H160V96zm160 0v64H256V96h64zM576 272c0-44.2-35.8-80-80-80s-80 35.8-80 80s35.8 80 80 80s80-35.8 80-80zm16 112H400L352 512H640L592 384z"/></svg>