<svg xmlns="http://www.w3.org/2000/svg" viewBox="0 0 640 512"><!--! Font Awesome Pro 6.2.0 by @fontawesome - https://fontawesome.com License - https://fontawesome.com/license (Commercial License) Copyright 2022 Fonticons, Inc. --><path d="M0 0H384V232.2c-39.1 32.3-64 81.1-64 135.8s24.9 103.5 64 135.8V512H240V384H144V512H0V0zM128 224H64v64h64V224zm32 0v64h64V224H160zm160 0H256v64h64V224zM64 96v64h64V96H64zm160 0H160v64h64V96zm32 0v64h64V96H256zM640 368c0 79.5-64.5 144-144 144s-144-64.5-144-144s64.5-144 144-144s144 64.5 144 144zM504 289.4L481.4 312l11.3 11.3L521.4 352H432 416v32h16 89.4l-28.7 28.7L481.4 424 504 446.6l11.3-11.3 56-56L582.6 368l-11.3-11.3-56-56L504 289.4z"/></svg>