<svg xmlns="http://www.w3.org/2000/svg" viewBox="0 0 384 512"><!--! Font Awesome Pro 6.2.0 by @fontawesome - https://fontawesome.com License - https://fontawesome.com/license (Commercial License) Copyright 2022 Fonticons, Inc. --><path d="M384 0H0V512H144V384h96V512H384V0zM64 288V224h64v64H64zm160-64v64H160V224h64zm32 64V224h64v64H256zM32 64H48h8 9.9l4.4 8.8L96 124.2V80 64h32V80v96 16H112h-8H94.1l-4.4-8.8L64 131.8V176v16H32V176 80 64zm136 0h48 16V96H216 184v64h16V144 128h32v16 32 16H216 168 152V176 80 64h16zm120 48v32c0 8.8 7.2 16 16 16s16-7.2 16-16V112c0-8.8-7.2-16-16-16s-16 7.2-16 16zm16-48c26.5 0 48 21.5 48 48v32c0 26.5-21.5 48-48 48s-48-21.5-48-48V112c0-26.5 21.5-48 48-48z"/></svg>