<svg xmlns="http://www.w3.org/2000/svg" viewBox="0 0 512 512"><!--! Font Awesome Pro 6.2.0 by @fontawesome - https://fontawesome.com License - https://fontawesome.com/license (Commercial License) Copyright 2022 Fonticons, Inc. --><path d="M440 0H426.1l-9.5 10.1L382 47.1C333.6 98.7 266 128 195.2 128H192 160 0V352H64V512H192V352l3.2 0c70.8 0 138.4 29.3 186.8 80.9l34.7 37 9.5 10.1H440h8 32V448 300.4c18.6-8.8 32-32.5 32-60.4s-13.4-51.6-32-60.4V32 0H448h-8zM416 103.6V240 376.4C356.7 319.8 277.7 288 195.2 288H192V192h3.2c82.4 0 161.4-31.8 220.8-88.4z"/></svg>