<svg xmlns="http://www.w3.org/2000/svg" viewBox="0 0 640 512"><!--! Font Awesome Pro 6.2.0 by @fontawesome - https://fontawesome.com License - https://fontawesome.com/license (Commercial License) Copyright 2022 Fonticons, Inc. --><path d="M79.3 160l-9-96H281.7l-9 96H79.3zM48 512H256V448 416 352 320c0-53.3 19.8-95.9 59.7-123.7c6-4.2 12.3-7.9 18.9-11.3L346 64l6-64H287.7 64.3 0L6 64 48 512zM464 192c-112 0-176 38.9-176 128H640c0-89.1-64-128-176-128zm-80 80c-8.8 0-16-7.2-16-16s7.2-16 16-16s16 7.2 16 16s-7.2 16-16 16zm96-32c0 8.8-7.2 16-16 16s-16-7.2-16-16s7.2-16 16-16s16 7.2 16 16zm64 32c-8.8 0-16-7.2-16-16s7.2-16 16-16s16 7.2 16 16s-7.2 16-16 16zM288 352v64H640V352H288zm0 96v64H640V448H288z"/></svg>