<svg xmlns="http://www.w3.org/2000/svg" viewBox="0 0 640 512"><!--! Font Awesome Pro 6.2.0 by @fontawesome - https://fontawesome.com License - https://fontawesome.com/license (Commercial License) Copyright 2022 Fonticons, Inc. --><path d="M64 32L97.4 221.4 117.7 272H128V90.7L112 0 64 32zM18.7 192H59.7L41.8 90.5 0 80 18.7 192zM384 80L342.7 90.3l-16.6 99.4c12.9-7.5 27.1-13.4 42.5-17.9L384 80zM256 320c0-5.4 .2-10.8 .6-16H96L64 224H0L64 512H256V320zm0-48h6.2c4.8-17.2 12.3-32.7 22.7-46.3l4.9-12.3L320 32 256 48V272zm-96 0h64V240 32L160 0V272zm304-80c-112 0-176 38.9-176 128H640c0-89.1-64-128-176-128zm-80 80c-8.8 0-16-7.2-16-16s7.2-16 16-16s16 7.2 16 16s-7.2 16-16 16zm96-32c0 8.8-7.2 16-16 16s-16-7.2-16-16s7.2-16 16-16s16 7.2 16 16zm64 32c-8.8 0-16-7.2-16-16s7.2-16 16-16s16 7.2 16 16s-7.2 16-16 16zM288 352v64H640V352H288zm0 96v64H640V448H288z"/></svg>