<svg xmlns="http://www.w3.org/2000/svg" viewBox="0 0 640 512"><!--! Font Awesome Pro 6.2.0 by @fontawesome - https://fontawesome.com License - https://fontawesome.com/license (Commercial License) Copyright 2022 Fonticons, Inc. --><path d="M189 0h19 56 24V48H264 227l-18.8 80H320h32v49.4c-10.6 4.1-20.5 8.9-29.7 14.6H320 32 0V128H32 158.9L184.6 18.5 189 0zm67 448v64H64L40 224H286.2C266 249.6 256 282.1 256 320v32 64 32zM464 192c112 0 176 38.9 176 128H288c0-89.1 64-128 176-128zm-80 80c8.8 0 16-7.2 16-16s-7.2-16-16-16s-16 7.2-16 16s7.2 16 16 16zm96-32c0-8.8-7.2-16-16-16s-16 7.2-16 16s7.2 16 16 16s16-7.2 16-16zm64 32c8.8 0 16-7.2 16-16s-7.2-16-16-16s-16 7.2-16 16s7.2 16 16 16zM288 352H640v64H288V352zm0 96H640v64H288V448z"/></svg>