<svg xmlns="http://www.w3.org/2000/svg" viewBox="0 0 512 512"><!--! Font Awesome Pro 6.2.0 by @fontawesome - https://fontawesome.com License - https://fontawesome.com/license (Commercial License) Copyright 2022 Fonticons, Inc. --><path d="M32 192v32H480V192s0-160-224-160S32 192 32 192zm96-48c-8.8 0-16-7.2-16-16s7.2-16 16-16s16 7.2 16 16s-7.2 16-16 16zm272-16c0 8.8-7.2 16-16 16s-16-7.2-16-16s7.2-16 16-16s16 7.2 16 16zM256 112c-8.8 0-16-7.2-16-16s7.2-16 16-16s16 7.2 16 16s-7.2 16-16 16zM480 384H32v96H480V384zM178.9 257.9L168 254l-10.9 4-76.9 28L27.2 266 4.8 326l64 24 11.1 4.2 11.1-4 77.1-28 77.1 28 10.9 4 10.9-4 77.1-28 77.1 28 11.1 4 11.1-4.2 64-24L484.8 266l-52.9 19.9-76.9-28L344 254l-10.9 4L256 286l-77.1-28z"/></svg>