<svg xmlns="http://www.w3.org/2000/svg" viewBox="0 0 512 512"><!--! Font Awesome Pro 6.2.0 by @fontawesome - https://fontawesome.com License - https://fontawesome.com/license (Commercial License) Copyright 2022 Fonticons, Inc. --><path d="M256 0C371.9 0 464 48 464 48V96v16h48V240H464l0 16h16V448H448v64H352V448H160v64H64V448H32V256H48V96h0V48s92.1-48 208-48zM48 240H0V112H48l0 128zM272 128V256H400V128H272zm-32 0H112V256H240V128zM112 384c17.7 0 32-14.3 32-32s-14.3-32-32-32s-32 14.3-32 32s14.3 32 32 32zm288 0c17.7 0 32-14.3 32-32s-14.3-32-32-32s-32 14.3-32 32s14.3 32 32 32zM352 96V64H336 176 160V96h16H336h16z"/></svg>