<svg xmlns="http://www.w3.org/2000/svg" viewBox="0 0 512 512"><!--! Font Awesome Pro 6.2.0 by @fontawesome - https://fontawesome.com License - https://fontawesome.com/license (Commercial License) Copyright 2022 Fonticons, Inc. --><path d="M256 0C380.8 0 480 48 480 48V96v32h32V256H480l0 192H448v64H352V448H160v64H64V448H32V96h0V48s99.2-48 224-48zM32 256H0V128H32l0 128zM272 128V288H416V128H272zm-32 0H96V288H240V128zM112 400c17.7 0 32-14.3 32-32s-14.3-32-32-32s-32 14.3-32 32s14.3 32 32 32zm288 0c17.7 0 32-14.3 32-32s-14.3-32-32-32s-32 14.3-32 32s14.3 32 32 32zM352 96V64H336 176 160V96h16H336h16z"/></svg>