<svg xmlns="http://www.w3.org/2000/svg" viewBox="0 0 640 512"><!--! Font Awesome Pro 6.2.0 by @fontawesome - https://fontawesome.com License - https://fontawesome.com/license (Commercial License) Copyright 2022 Fonticons, Inc. --><path d="M128 0h24H360h24V24 96H512v96.7c-5.3-.5-10.6-.7-16-.7c-54.7 0-103.5 24.9-135.8 64H352 192 0V96H128V24 0zM320 368c0 42.5 15.1 81.6 40.2 112H0V288H192v64H320.7c-.5 5.3-.7 10.6-.7 16zM336 48H176V96H336V48zM640 368c0 79.5-64.5 144-144 144s-144-64.5-144-144s64.5-144 144-144s144 64.5 144 144zM512 288H480v16 64 16h16 48 16V352H544 512V304 288z"/></svg>