<svg xmlns="http://www.w3.org/2000/svg" viewBox="0 0 512 512"><!--! Font Awesome Pro 6.2.0 by @fontawesome - https://fontawesome.com License - https://fontawesome.com/license (Commercial License) Copyright 2022 Fonticons, Inc. --><path d="M0 176v48H384h96 32V176l-32-22V32H384V88L256 0 0 176zm192 80H32v64H192V256zM32 352v64H192V352H32zm0 96v64H192V448H32zM320 256v64H480V256H320zM480 448H320v64H480V448zM320 352v64H480V352H320zM256 160c-17.7 0-32-14.3-32-32s14.3-32 32-32s32 14.3 32 32s-14.3 32-32 32z"/></svg>