<svg xmlns="http://www.w3.org/2000/svg" viewBox="0 0 512 512"><!--! Font Awesome Pro 6.2.0 by @fontawesome - https://fontawesome.com License - https://fontawesome.com/license (Commercial License) Copyright 2022 Fonticons, Inc. --><path d="M288 64c17.7 0 32-14.3 32-32s-14.3-32-32-32s-32 14.3-32 32s14.3 32 32 32zm-64-8c0-17.7-14.3-32-32-32s-32 14.3-32 32s14.3 32 32 32s32-14.3 32-32zm261 47.5l23.5-5L498.4 51.5l-23.5 5-224 48-224 48-23.5 5 10.1 46.9 23.5-5 195-41.8V224H32V512H480V224H280V147.4l205-43.9zM80 288h96v96H80V288zm224 0v96H208V288h96zm32 0h96v96H336V288z"/></svg>