<svg xmlns="http://www.w3.org/2000/svg" viewBox="0 0 448 512"><!--! Font Awesome Pro 6.2.0 by @fontawesome - https://fontawesome.com License - https://fontawesome.com/license (Commercial License) Copyright 2022 Fonticons, Inc. --><path d="M96 0L63.9 44.9C58.8 52.1 56 60.8 56 69.6V72c0 22.1 17.9 40 40 40s40-17.9 40-40V69.6c0-8.8-2.8-17.5-7.9-24.6L96 0zM224 0L191.9 44.9c-5.1 7.2-7.9 15.8-7.9 24.6V72c0 22.1 17.9 40 40 40s40-17.9 40-40V69.6c0-8.8-2.8-17.5-7.9-24.6L224 0zm95.9 44.9c-5.1 7.2-7.9 15.8-7.9 24.6V72c0 22.1 17.9 40 40 40s40-17.9 40-40V69.6c0-8.8-2.8-17.5-7.9-24.6L352 0 319.9 44.9zM128 176V144H64v32 48H0V350.8l29.2 15.3 60-28.6 7.1-3.4 7 3.5L160 366.1l56.8-28.4 7.2-3.6 7.2 3.6L288 366.1l56.8-28.4 7-3.5 7 3.4 60 28.6L448 350.8V224H384V176 144H320v32 48H256V176 144H192v32 48H128V176zM448 386.9l-21.3 11.2-7.1 3.7-7.2-3.4-60.2-28.6-57 28.5-7.2 3.6-7.2-3.6L224 369.9l-56.8 28.4-7.2 3.6-7.2-3.6-57-28.5L35.7 398.4l-7.2 3.4-7.1-3.7L0 386.9V512H448V386.9z"/></svg>