<svg xmlns="http://www.w3.org/2000/svg" viewBox="0 0 512 512"><!--! Font Awesome Pro 6.2.0 by @fontawesome - https://fontawesome.com License - https://fontawesome.com/license (Commercial License) Copyright 2022 Fonticons, Inc. --><path d="M0 0H224V224H0V0zM288 0H512V224H288V0zM512 288V512H288V288H512zM0 288H224V512H0V288zM416 64V48H384V64 96H352 336v32h16 32v32 16h32V160 128h32 16V96H448 416V64zM64 96H48v32H64h96 16V96H160 64zM83.3 348.7L72 337.4 49.4 360l11.3 11.3L89.4 400 60.7 428.7 49.4 440 72 462.6l11.3-11.3L112 422.6l28.7 28.7L152 462.6 174.6 440l-11.3-11.3L134.6 400l28.7-28.7L174.6 360 152 337.4l-11.3 11.3L112 377.4 83.3 348.7zM352 352H336v32h16 96 16V352H448 352zm0 64H336v32h16 96 16V416H448 352z"/></svg>