<svg xmlns="http://www.w3.org/2000/svg" viewBox="0 0 576 512"><!--! Font Awesome Pro 6.2.0 by @fontawesome - https://fontawesome.com License - https://fontawesome.com/license (Commercial License) Copyright 2022 Fonticons, Inc. --><path d="M160 0H96V64H0v96H448V64H352V0H288V64H160V0zm96 368c0-91.8 70.3-167.2 160-175.3V192H0V512H330.8C285.6 480.1 256 427.5 256 368zm320 0c0-79.5-64.5-144-144-144s-144 64.5-144 144s64.5 144 144 144s144-64.5 144-144zm-63.3 77.7c-20.4 21.2-49 34.3-80.7 34.3s-60.3-13.2-80.7-34.3L376 416H488l24.7 29.7zM480 336c0 26.5-21.5 48-48 48s-48-21.5-48-48s21.5-48 48-48s48 21.5 48 48z"/></svg>