<svg xmlns="http://www.w3.org/2000/svg" viewBox="0 0 576 512"><!--! Font Awesome Pro 6.2.0 by @fontawesome - https://fontawesome.com License - https://fontawesome.com/license (Commercial License) Copyright 2022 Fonticons, Inc. --><path d="M96 0V64H0v96H448V64H352V0H288V64H160V0H96zM448 192H432 0V512H330.8C285.6 480.1 256 427.5 256 368c0-97.2 78.8-176 176-176c5.4 0 10.7 .2 16 .7V192zM576 368c0-79.5-64.5-144-144-144s-144 64.5-144 144s64.5 144 144 144s144-64.5 144-144zM448 288v16 48h32 16v32H480 432 416V368 304 288h32z"/></svg>