<svg xmlns="http://www.w3.org/2000/svg" viewBox="0 0 512 512"><!--! Font Awesome Pro 6.2.0 by @fontawesome - https://fontawesome.com License - https://fontawesome.com/license (Commercial License) Copyright 2022 Fonticons, Inc. --><path d="M160 32L138.7 96H0V480H512V96H373.3L352 32H160zM384 272H296l-16-16 27-27c-13.6-13.4-31.9-21-51-21c-19.2 0-37.7 7.6-51.3 21.3L185 249 151 215l19.7-19.7C193.4 172.7 224 160 256 160c31.8 0 62.4 12.6 85 35l27-27 16 16v88zM128 304h88l16 16-27 27c13.6 13.4 31.9 21 51 21c19.2 0 37.7-7.6 51.3-21.3L327 327 361 361l-19.7 19.7C318.6 403.3 288 416 256 416c-31.8 0-62.4-12.6-85-35l-27 27-16-16V304z"/></svg>