<svg xmlns="http://www.w3.org/2000/svg" viewBox="0 0 640 512"><!--! Font Awesome Pro 6.2.0 by @fontawesome - https://fontawesome.com License - https://fontawesome.com/license (Commercial License) Copyright 2022 Fonticons, Inc. --><path d="M48.4 14.8L29.4 .1 0 38 19 52.7 591.5 497.2l19 14.7L639.9 474l-19-14.7L576 424.4V96H437.3L416 32H224L202.7 96H153L48.4 14.8zM285.1 198.6c10.8-4.2 22.6-6.6 34.9-6.6c53 0 96 43 96 96c0 3.9-.2 7.8-.7 11.7L285.1 198.6zM224 288c0-5 .4-9.9 1.1-14.6L64 146.4V480H487.4L356.4 376.8c-11.2 4.6-23.5 7.2-36.4 7.2c-53 0-96-43-96-96z"/></svg>