<svg xmlns="http://www.w3.org/2000/svg" viewBox="0 0 448 512"><!--! Font Awesome Pro 6.2.0 by @fontawesome - https://fontawesome.com License - https://fontawesome.com/license (Commercial License) Copyright 2022 Fonticons, Inc. --><path d="M340.5 415.4C405 376 448 305 448 224C448 100.3 347.7 0 224 0S0 100.3 0 224c0 81 43 152 107.5 191.4L32 472v40H416V472l-75.5-56.6zM224 352c70.7 0 128-57.3 128-128s-57.3-128-128-128S96 153.3 96 224s57.3 128 128 128zm0 32c-88.4 0-160-71.6-160-160s71.6-160 160-160s160 71.6 160 160s-71.6 160-160 160zM176 224H144c0-44.2 35.8-80 80-80v32c-26.5 0-48 21.5-48 48z"/></svg>