<svg xmlns="http://www.w3.org/2000/svg" viewBox="0 0 576 512"><!--! Font Awesome Pro 6.2.0 by @fontawesome - https://fontawesome.com License - https://fontawesome.com/license (Commercial License) Copyright 2022 Fonticons, Inc. --><path d="M128 64c-35.3 0-64 28.7-64 64s28.7 64 64 64s64-28.7 64-64s-28.7-64-64-64zM352 256H128C57.3 256 0 198.7 0 128S57.3 0 128 0c48.2 0 90.2 26.6 112 66C261.8 26.6 303.8 0 352 0c70.7 0 128 57.3 128 128s-57.3 128-128 128zm0-192c-35.3 0-64 28.7-64 64s28.7 64 64 64s64-28.7 64-64s-28.7-64-64-64zM576 256V512L448 448V320l128-64zM416 288V512H64V352H32 0V288H32 64h64 32H416z"/></svg>