<svg xmlns="http://www.w3.org/2000/svg" viewBox="0 0 512 512"><!--! Font Awesome Pro 6.2.0 by @fontawesome - https://fontawesome.com License - https://fontawesome.com/license (Commercial License) Copyright 2022 Fonticons, Inc. --><path d="M220.6 121.2L271.1 96H448v96H333.2c-21.9-15.1-48.5-24-77.2-24s-55.2 8.9-77.2 24H64V128H192c9.9 0 19.7-2.3 28.6-6.8zM256 32L192 64H160V32H64V64H0v64V416v64H64 448h64V416 96 32H448 256zm88 272c0 48.6-39.4 88-88 88s-88-39.4-88-88s39.4-88 88-88s88 39.4 88 88z"/></svg>