<svg xmlns="http://www.w3.org/2000/svg" viewBox="0 0 576 512"><!--! Font Awesome Pro 6.2.0 by @fontawesome - https://fontawesome.com License - https://fontawesome.com/license (Commercial License) Copyright 2022 Fonticons, Inc. --><path d="M317.7 58.3C288.6 24.2 259.2 .1 259.2 .1s-115.2 94.2-115.2 174.5s64.5 145.5 144 145.5s144-65.1 144-145.5c0-66.9-86.4-145.5-86.4-145.5s-12.5 11.3-27.9 29.1zM333 248.2c-13.5 9.1-27.9 13.6-44.1 13.6c-40.5 0-72.9-26.4-72.9-70.9c0-21.8 13.5-40.9 40.5-74.5c3.6 4.5 55.8 71.8 55.8 71.8L344.7 150c2.7 3.6 4.5 7.3 6.3 10.9c16.2 30 9 68.2-18 87.3zM73.6 299.1l-30.5-9.6L23.9 350.5l30.5 9.6L181.3 400 54.4 439.9l-30.5 9.6 19.2 61.1 30.5-9.6L288 433.5l214.4 67.4 30.5 9.6 19.2-61.1-30.5-9.6L394.7 400l126.9-39.9 30.5-9.6-19.2-61.1-30.5 9.6L288 366.5 73.6 299.1z"/></svg>