<svg xmlns="http://www.w3.org/2000/svg" viewBox="0 0 384 512"><!--! Font Awesome Pro 6.2.0 by @fontawesome - https://fontawesome.com License - https://fontawesome.com/license (Commercial License) Copyright 2022 Fonticons, Inc. --><path d="M272 304.1c11.4-2.4 22.2-5.3 32-8.6V426c-2.8 1.6-6.6 3.6-11.8 5.7C269.8 440.9 234.4 448 192 448s-77.8-7.1-100.2-16.3c-5.2-2.1-9-4.1-11.8-5.7V295.5c9.8 3.3 20.6 6.2 32 8.6V320v48h48 64 48V320 304.1zm-48 6.7V320H208 176 160v-9.2V256h64v54.8zM16 72V240 440c0 39.8 78.8 72 176 72s176-32.2 176-72V240 72c0-39.8-78.8-72-176-72S16 32.2 16 72zm288 0c0 13.3-50.1 24-112 24S80 85.3 80 72s50.1-24 112-24s112 10.7 112 24z"/></svg>