<svg xmlns="http://www.w3.org/2000/svg" viewBox="0 0 448 512"><!--! Font Awesome Pro 6.2.0 by @fontawesome - https://fontawesome.com License - https://fontawesome.com/license (Commercial License) Copyright 2022 Fonticons, Inc. --><path d="M240 112C240 64 160 0 160 0s-80 64-80 112c0 44.2 35.8 80 80 80s80-35.8 80-80zM128 224H64V464H24 0v48H24 376c39.8 0 72-32.2 72-72s-32.2-72-72-72s-72 32.2-72 72c0 8.4 1.4 16.5 4.1 24H256V224H160v48 16H128V272 224zM400 440c0 13.3-10.7 24-24 24s-24-10.7-24-24s10.7-24 24-24s24 10.7 24 24z"/></svg>