<svg xmlns="http://www.w3.org/2000/svg" viewBox="0 0 640 512"><!--! Font Awesome Pro 6.2.0 by @fontawesome - https://fontawesome.com License - https://fontawesome.com/license (Commercial License) Copyright 2022 Fonticons, Inc. --><path d="M335 11.7l272 144 28.3 15-29.9 56.6-28.3-15L320 76.2 63 212.3l-28.3 15L4.7 170.7l28.3-15 272-144 15-7.9 15 7.9zM202.9 160H224 416h21.1l8.3 19.4L492 288h36v96 64 64H448V448H192v64H112V448 384 288h36l46.5-108.6 8.3-19.4zm192 64H245.1l-27.4 64H422.3l-27.4-64zM192 392c13.3 0 24-10.7 24-24s-10.7-24-24-24s-24 10.7-24 24s10.7 24 24 24zm280-24c0-13.3-10.7-24-24-24s-24 10.7-24 24s10.7 24 24 24s24-10.7 24-24z"/></svg>