<svg xmlns="http://www.w3.org/2000/svg" viewBox="0 0 640 512"><!--! Font Awesome Pro 6.2.0 by @fontawesome - https://fontawesome.com License - https://fontawesome.com/license (Commercial License) Copyright 2022 Fonticons, Inc. --><path d="M96 64L42.7 224H0V432H65.3c7.6 45.4 47.1 80 94.7 80s87.1-34.6 94.7-80H385.3c7.6 45.4 47.1 80 94.7 80s87.1-34.6 94.7-80H640V224H522.7L416 64H96zM480 464c-20.9 0-38.7-13.4-45.3-32c-1.8-5-2.7-10.4-2.7-16c0-26.5 21.5-48 48-48s48 21.5 48 48c0 5.6-1 11-2.7 16c-6.6 18.6-24.4 32-45.3 32zM205.3 432c-6.6 18.6-24.4 32-45.3 32s-38.7-13.4-45.3-32c-1.8-5-2.7-10.4-2.7-16c0-26.5 21.5-48 48-48s48 21.5 48 48c0 5.6-1 11-2.7 16zM208 240L336 112l-24 96h88L272 336l24-96H208z"/></svg>