<svg xmlns="http://www.w3.org/2000/svg" viewBox="0 0 640 512"><!--! Font Awesome Pro 6.2.0 by @fontawesome - https://fontawesome.com License - https://fontawesome.com/license (Commercial License) Copyright 2022 Fonticons, Inc. --><path d="M106.3 64H128 384h15.4L409 76 527.4 224H640V432H574.7c-7.6 45.4-47.1 80-94.7 80s-87.1-34.6-94.7-80H254.7c-7.6 45.4-47.1 80-94.7 80s-87.1-34.6-94.7-80H0V224H42.3l56-139.9 8-20.1zM434.7 432c6.6 18.6 24.4 32 45.3 32s38.7-13.4 45.3-32c1.8-5 2.7-10.4 2.7-16c0-26.5-21.5-48-48-48s-48 21.5-48 48c0 5.6 1 11 2.7 16zM208 416c0-26.5-21.5-48-48-48s-48 21.5-48 48c0 5.6 1 11 2.7 16c6.6 18.6 24.4 32 45.3 32s38.7-13.4 45.3-32c1.8-5 2.7-10.4 2.7-16zM111.3 224H224V128H149.7l-38.4 96zM272 224H445.4l-76.8-96H272v96z"/></svg>