<svg xmlns="http://www.w3.org/2000/svg" viewBox="0 0 576 512"><!--! Font Awesome Pro 6.2.0 by @fontawesome - https://fontawesome.com License - https://fontawesome.com/license (Commercial License) Copyright 2022 Fonticons, Inc. --><path d="M96 0c32.8 0 61 19.7 73.3 48H406.7C419 19.7 447.2 0 480 0c12.5 0 24.4 2.9 34.9 8c19.6 9.5 34.8 26.9 41.4 48H528 501.2 480v48h21.2H528h28.3c-6.6 21.1-21.8 38.5-41.4 48c-10.6 5.1-22.4 8-34.9 8c-32.8 0-61-19.7-73.3-48H169.3C157 140.3 128.8 160 96 160c-12.5 0-24.4-2.9-34.9-8c-19.6-9.5-34.8-26.9-41.4-48H48 74.8 96V56H74.8 48 19.7C26.3 34.9 41.4 17.5 61.1 8C71.6 2.9 83.5 0 96 0zm65.4 160H184 392h22.6l7.6 21.2L460.3 288H496v96 64 64H416V448H160v64H80V448 384 288h35.7l38.1-106.8 7.6-21.2zm208 64H206.6l-22.9 64H392.3l-22.9-64zM160 392c13.3 0 24-10.7 24-24s-10.7-24-24-24s-24 10.7-24 24s10.7 24 24 24zm280-24c0-13.3-10.7-24-24-24s-24 10.7-24 24s10.7 24 24 24s24-10.7 24-24z"/></svg>