<svg xmlns="http://www.w3.org/2000/svg" viewBox="0 0 576 512"><!--! Font Awesome Pro 6.2.0 by @fontawesome - https://fontawesome.com License - https://fontawesome.com/license (Commercial License) Copyright 2022 Fonticons, Inc. --><path d="M152 32H129.3l-7.5 21.4L84.5 160H0v64H32V400v80h96V400H448v80h96V400 224h32V160H491.5L454.2 53.4 446.7 32H424 152zM434.9 192H141.1l33.6-96H401.3l33.6 96zM160 288c0 17.7-14.3 32-32 32s-32-14.3-32-32s14.3-32 32-32s32 14.3 32 32zm288 32c-17.7 0-32-14.3-32-32s14.3-32 32-32s32 14.3 32 32s-14.3 32-32 32z"/></svg>