<svg xmlns="http://www.w3.org/2000/svg" viewBox="0 0 448 512"><!--! Font Awesome Pro 6.2.0 by @fontawesome - https://fontawesome.com License - https://fontawesome.com/license (Commercial License) Copyright 2022 Fonticons, Inc. --><path d="M64 128c-26.5 0-48-21.5-48-48C16 48 64 0 64 0s48 48 48 80s-21.5 48-48 48zm160 0c-26.5 0-48-21.5-48-48c0-32 48-80 48-80s48 48 48 80s-21.5 48-48 48zM432 80c0 32-21.5 48-48 48s-48-21.5-48-48c0-32 48-80 48-80s48 48 48 80zM106.9 160H128 320h21.1l8.3 19.4L396 288h36v96 64 64H352V448H96v64H16V448 384 288H52L98.6 179.4l8.3-19.4zm192 64H149.1l-27.4 64H326.3l-27.4-64zM96 392c13.3 0 24-10.7 24-24s-10.7-24-24-24s-24 10.7-24 24s10.7 24 24 24zm280-24c0-13.3-10.7-24-24-24s-24 10.7-24 24s10.7 24 24 24s24-10.7 24-24z"/></svg>