<svg xmlns="http://www.w3.org/2000/svg" viewBox="0 0 640 512"><!--! Font Awesome Pro 6.2.0 by @fontawesome - https://fontawesome.com License - https://fontawesome.com/license (Commercial License) Copyright 2022 Fonticons, Inc. --><path d="M120 32H97.3L89.8 53.4 41.3 192H0V400v80H96V400H322.9c-1.9-10.4-2.9-21.1-2.9-32c0-97.2 78.8-176 176-176c5.4 0 10.7 .2 16 .7V192H496 470.7L422.2 53.4 414.7 32H392 120zM402.9 192H109.1l33.6-96H369.3l33.6 96zM128 288c0 17.7-14.3 32-32 32s-32-14.3-32-32s14.3-32 32-32s32 14.3 32 32zM496 512c79.5 0 144-64.5 144-144s-64.5-144-144-144s-144 64.5-144 144s64.5 144 144 144zm32-224l-16 64h64L464 448l16-64H416l112-96z"/></svg>