<svg xmlns="http://www.w3.org/2000/svg" viewBox="0 0 640 512"><!--! Font Awesome Pro 6.2.0 by @fontawesome - https://fontawesome.com License - https://fontawesome.com/license (Commercial License) Copyright 2022 Fonticons, Inc. --><path d="M0 0H352V128H320 296.9 273.9l-7.3 21.9-7.3 21.9L252.5 192H192v64 32V448v32H0V0zM289.6 181.9l7.3-21.9H320h32H544h23.1l7.3 21.9L609.7 288H640l0 160v64H560V448H304v64H224V480 448h0V416 400 336 320 288h30.3l35.4-106.1zM352 224h-8.9l-10.7 32-10.7 32H352 542.3l-21.3-64H352zM64 96v64h64V96H64zm0 96v64h64V192H64zm64 96H64v64h64V288zM192 96v64h64V96H192zM304 392c13.3 0 24-10.7 24-24s-10.7-24-24-24s-24 10.7-24 24s10.7 24 24 24zm280-24c0-13.3-10.7-24-24-24s-24 10.7-24 24s10.7 24 24 24s24-10.7 24-24z"/></svg>