<svg xmlns="http://www.w3.org/2000/svg" viewBox="0 0 640 512"><!--! Font Awesome Pro 6.2.0 by @fontawesome - https://fontawesome.com License - https://fontawesome.com/license (Commercial License) Copyright 2022 Fonticons, Inc. --><path d="M65.1 75.8l21.1-5.7L318.1 8l21.1-5.7L352.2 20 430.6 127l40.7-10.9L521 301.5l20.7 77.3-92.7 24.8-20.7-77.3L150 400.9l20.7 77.3L78 503 57.3 425.8 7.6 240.3l40.7-10.9L62.7 97.6l2.4-21.8zm248.4-.3L124 126.3l-9.3 85.3 249.6-66.9L313.5 75.5zm-180 263.6c17.1-4.6 27.2-22.1 22.6-39.2s-22.1-27.2-39.2-22.6s-27.2 22.1-22.6 39.2s22.1 27.2 39.2 22.6zM434.3 225.4c-4.6-17.1-22.1-27.2-39.2-22.6s-27.2 22.1-22.6 39.2s22.1 27.2 39.2 22.6s27.2-22.1 22.6-39.2zM510.9 416c56.4 0 103.1 41.7 110.9 96H400c7.8-54.3 54.4-96 110.9-96z"/></svg>