<svg xmlns="http://www.w3.org/2000/svg" viewBox="0 0 640 512"><!--! Font Awesome Pro 6.2.0 by @fontawesome - https://fontawesome.com License - https://fontawesome.com/license (Commercial License) Copyright 2022 Fonticons, Inc. --><path d="M72.9 0H96 320h23.1l7.3 21.9L385.7 128H320h-1.7L296.9 64H119.1L97.7 128H273.9l-7.3 21.9-7.3 21.9L231.2 256H224 192v32H80v64H0V288H0V128H30.3L65.6 21.9 72.9 0zM332.4 256l-10.7 32H542.3l-21.3-64H416 343.1l-10.7 32zm-78.1 32l35.4-106.1 7.3-21.9H320h96H544h23.1l7.3 21.9L609.7 288H640l0 160v64H560V448H304v64H224V448h0V288h30.3zM80 232c13.3 0 24-10.7 24-24s-10.7-24-24-24s-24 10.7-24 24s10.7 24 24 24zM304 392c13.3 0 24-10.7 24-24s-10.7-24-24-24s-24 10.7-24 24s10.7 24 24 24zm280-24c0-13.3-10.7-24-24-24s-24 10.7-24 24s10.7 24 24 24s24-10.7 24-24z"/></svg>