<svg xmlns="http://www.w3.org/2000/svg" viewBox="0 0 640 512"><!--! Font Awesome Pro 6.2.0 by @fontawesome - https://fontawesome.com License - https://fontawesome.com/license (Commercial License) Copyright 2022 Fonticons, Inc. --><path d="M24 0H0V48H24 76.1l60.3 316.5 3.7 19.5H160 320.7c-.5-5.3-.7-10.6-.7-16c0-10.9 1-21.6 2.9-32h-143l-9.1-48H339.2c29.1-57 88.4-96 156.8-96c10 0 19.7 .8 29.2 2.4L576 32H122l-2.4-12.5L115.9 0H96 24zM176 512c26.5 0 48-21.5 48-48s-21.5-48-48-48s-48 21.5-48 48s21.5 48 48 48zM352 368c0 79.5 64.5 144 144 144s144-64.5 144-144s-64.5-144-144-144s-144 64.5-144 144zm208 16H512v48 16H480V432 384H432l-16 0V352l16 0h48V304 288h32v16 48h48 16v32H560z"/></svg>