<svg xmlns="http://www.w3.org/2000/svg" viewBox="0 0 640 512"><!--! Font Awesome Pro 6.2.0 by @fontawesome - https://fontawesome.com License - https://fontawesome.com/license (Commercial License) Copyright 2022 Fonticons, Inc. --><path d="M24 0H0V48H24 76.1l60.3 316.5 3.7 19.5H160 320.7c-.5-5.3-.7-10.6-.7-16c0-10.9 1-21.6 2.9-32h-143l-9.1-48H339.2c29.1-57 88.4-96 156.8-96c10 0 19.7 .8 29.2 2.4L576 32H122l-2.4-12.5L115.9 0H96 24zM176 512c26.5 0 48-21.5 48-48s-21.5-48-48-48s-48 21.5-48 48s21.5 48 48 48zM496 224c-79.5 0-144 64.5-144 144s64.5 144 144 144s144-64.5 144-144s-64.5-144-144-144zM417.4 360l11.3-11.3 56-56L496 281.4l11.3 11.3 56 56L574.6 360 552 382.6l-11.3-11.3L512 342.6V432v16H480V432 342.6l-28.7 28.7L440 382.6 417.4 360z"/></svg>