<svg xmlns="http://www.w3.org/2000/svg" viewBox="0 0 640 512"><!--! Font Awesome Pro 6.2.0 by @fontawesome - https://fontawesome.com License - https://fontawesome.com/license (Commercial License) Copyright 2022 Fonticons, Inc. --><path d="M64 0H88h72 19.9l3.7 19.5L186 32H640L560 288H234.7l9.1 48H552h24v48H552 224 204.1l-3.7-19.5L140.1 48H88 64V0zM288 464c0 26.5-21.5 48-48 48s-48-21.5-48-48s21.5-48 48-48s48 21.5 48 48zm240 48c-26.5 0-48-21.5-48-48s21.5-48 48-48s48 21.5 48 48s-21.5 48-48 48zM0 144V96H112v48H0zm0 80V176H128v48H0zm0 80V256H144v48H0z"/></svg>