<svg xmlns="http://www.w3.org/2000/svg" viewBox="0 0 576 512"><!--! Font Awesome Pro 6.2.0 by @fontawesome - https://fontawesome.com License - https://fontawesome.com/license (Commercial License) Copyright 2022 Fonticons, Inc. --><path d="M312 32H122l-2.4-12.5L115.9 0H96 24 0V48H24 76.1l60.3 316.5 3.7 19.5H160 488h24V336H488 179.9l-9.1-48H496L576 32H360v99.1l24.2-21.2 18.1-15.8 31.6 36.1-18.1 15.8-64 56L336 215.9l-15.8-13.8-64-56-18.1-15.8 31.6-36.1 18.1 15.8L312 131.1V32zM224 464c0-26.5-21.5-48-48-48s-48 21.5-48 48s21.5 48 48 48s48-21.5 48-48zm240 48c26.5 0 48-21.5 48-48s-21.5-48-48-48s-48 21.5-48 48s21.5 48 48 48z"/></svg>