<svg xmlns="http://www.w3.org/2000/svg" viewBox="0 0 640 512"><!--! Font Awesome Pro 6.2.0 by @fontawesome - https://fontawesome.com License - https://fontawesome.com/license (Commercial License) Copyright 2022 Fonticons, Inc. --><path d="M0 0H32 96h32V32 384H608h32v64H608 541.3c1.8 5 2.7 10.4 2.7 16c0 26.5-21.5 48-48 48s-48-21.5-48-48c0-5.6 1-11 2.7-16H253.3c1.8 5 2.7 10.4 2.7 16c0 26.5-21.5 48-48 48s-48-21.5-48-48c0-5.6 1-11 2.7-16H96 64V416 64H32 0V0zM432 96V48H336V96h96zM288 96V24 0h24H456h24V24 96 320H288V96zM512 320V96h64V320H512zM192 96h64V320H192V96z"/></svg>