<svg xmlns="http://www.w3.org/2000/svg" viewBox="0 0 640 512"><!--! Font Awesome Pro 6.2.0 by @fontawesome - https://fontawesome.com License - https://fontawesome.com/license (Commercial License) Copyright 2022 Fonticons, Inc. --><path d="M24 0H0V48H24 76.1l60.3 316.5 3.7 19.5H160 320.7c-.5-5.3-.7-10.6-.7-16c0-10.9 1-21.6 2.9-32h-143l-9.1-48H339.2c29.1-57 88.4-96 156.8-96c10 0 19.7 .8 29.2 2.4L576 32H122l-2.4-12.5L115.9 0H96 24zM176 512c26.5 0 48-21.5 48-48s-21.5-48-48-48s-48 21.5-48 48s21.5 48 48 48zm320 0c79.5 0 144-64.5 144-144s-64.5-144-144-144s-144 64.5-144 144s64.5 144 144 144zm59.3-180.7L518.6 368l36.7 36.7L566.6 416 544 438.6l-11.3-11.3L496 390.6l-36.7 36.7L448 438.6 425.4 416l11.3-11.3L473.4 368l-36.7-36.7L425.4 320 448 297.4l11.3 11.3L496 345.4l36.7-36.7L544 297.4 566.6 320l-11.3 11.3z"/></svg>