<svg xmlns="http://www.w3.org/2000/svg" viewBox="0 0 576 512"><!--! Font Awesome Pro 6.2.0 by @fontawesome - https://fontawesome.com License - https://fontawesome.com/license (Commercial License) Copyright 2022 Fonticons, Inc. --><path d="M0 32H576V480H483.1L439 362.4 435.1 352H424 152 140.9L137 362.4 92.9 480H0V32zM412.9 384l36 96H127.1l36-96H412.9zM341.5 192H234.5c3.5 10 5.5 20.8 5.5 32s-1.9 22-5.5 32H341.5c-3.5-10-5.5-20.8-5.5-32s1.9-22 5.5-32zm90.5 0c-17.7 0-32 14.3-32 32s14.3 32 32 32s32-14.3 32-32s-14.3-32-32-32zM112 224c0 17.7 14.3 32 32 32s32-14.3 32-32s-14.3-32-32-32s-32 14.3-32 32z"/></svg>