<svg xmlns="http://www.w3.org/2000/svg" viewBox="0 0 576 512"><!--! Font Awesome Pro 6.2.0 by @fontawesome - https://fontawesome.com License - https://fontawesome.com/license (Commercial License) Copyright 2022 Fonticons, Inc. --><path d="M544 160c0 70.7-57.3 128-128 128s-128-57.3-128-128c0-32.5 12.1-62.1 32-84.7V160c0 53 43 96 96 96s96-43 96-96V75.3c19.9 22.6 32 52.2 32 84.7zM384 96L342.9 54.9C363.6 40.5 388.8 32 416 32s52.4 8.5 73.1 22.9L448 96H384zm64 220.8C521 302 576 237.4 576 160C576 71.6 504.4 0 416 0S256 71.6 256 160c0 11.7 1.3 23.1 3.6 34.1c-54.9 8.1-102.2 39.5-131.6 83.8V192c0-53-43-96-96-96H0v64H32c17.7 0 32 14.3 32 32V480v32H96 304h32V448H304 248L384 339.2V480v32h64V480 316.8zM400 160c0 8.8-7.2 16-16 16s-16-7.2-16-16s7.2-16 16-16s16 7.2 16 16zm48 16c-8.8 0-16-7.2-16-16s7.2-16 16-16s16 7.2 16 16s-7.2 16-16 16zM209.3 46.7L192 0 174.7 46.7 128 64l46.7 17.3L192 128l17.3-46.7L256 64 209.3 46.7z"/></svg>