<svg xmlns="http://www.w3.org/2000/svg" viewBox="0 0 512 512"><!--! Font Awesome Pro 6.2.0 by @fontawesome - https://fontawesome.com License - https://fontawesome.com/license (Commercial License) Copyright 2022 Fonticons, Inc. --><path d="M305.1 192H288c-66.8 0-125.6 34.1-160 85.8V192c0-53-43-96-96-96H0v64H32c17.7 0 32 14.3 32 32V480v32H96 304h32V448H304 248L384 339.2V480v32h64V480 288 256v-4c-10.2 2.6-21 4-32 4c-47.4 0-88.7-25.7-110.9-64zm194.3-16.4c8-14 12.6-30.3 12.6-47.6V45.3 0L480 32 448 64v0H384v0L352 32 320 0V45.3 128v0c0 18.6 5.3 36 14.5 50.8c2.9 4.7 6.3 9.1 9.9 13.2h0c17.6 19.6 43.1 32 71.6 32c11.2 0 22-1.9 32-5.5v0c21.8-7.7 40-23.1 51.4-42.9zM400 128c0 8.8-7.2 16-16 16s-16-7.2-16-16s7.2-16 16-16s16 7.2 16 16zm48 16c-8.8 0-16-7.2-16-16s7.2-16 16-16s16 7.2 16 16s-7.2 16-16 16z"/></svg>