<svg xmlns="http://www.w3.org/2000/svg" viewBox="0 0 448 512"><!--! Font Awesome Pro 6.2.0 by @fontawesome - https://fontawesome.com License - https://fontawesome.com/license (Commercial License) Copyright 2022 Fonticons, Inc. --><path d="M160 64c17.7 0 32-14.3 32-32s-14.3-32-32-32s-32 14.3-32 32s14.3 32 32 32zm112 64c26.5 0 48-21.5 48-48s-21.5-48-48-48s-48 21.5-48 48s21.5 48 48 48zM35.1 224C16.5 257 0 297.1 0 334.4c0 37.4 11.9 69.4 32 95.5V512H80V473c40.4 25.5 91.8 39 144 39s103.6-13.5 144-39v39h48V429.9c20.1-26.1 32-58.1 32-95.5c0-37.3-16.5-77.4-35.1-110.4H448V160H368 224 80 0v64H35.1z"/></svg>