<svg xmlns="http://www.w3.org/2000/svg" viewBox="0 0 384 512"><!--! Font Awesome Pro 6.2.0 by @fontawesome - https://fontawesome.com License - https://fontawesome.com/license (Commercial License) Copyright 2022 Fonticons, Inc. --><path d="M256 0V32 66.7c49.6 8.3 92.7 35.6 121.6 74.1l-51.2 38.4C303 148.1 265.8 128 224 128c-70.7 0-128 57.3-128 128s57.3 128 128 128c41.8 0 79-20.1 102.4-51.2l51.2 38.4c-28.9 38.5-72 65.8-121.6 74.1V480v32H192V480 445.3C101.2 430.1 32 351.1 32 256s69.2-174.1 160-189.3V32 0h64z"/></svg>