<svg xmlns="http://www.w3.org/2000/svg" viewBox="0 0 640 512"><!--! Font Awesome Pro 6.2.0 by @fontawesome - https://fontawesome.com License - https://fontawesome.com/license (Commercial License) Copyright 2022 Fonticons, Inc. --><path d="M175.4 0L79.1 183.3c-31 58.9-9.3 130.2 45.5 163.1L97 422.2 16.1 392.7 0 436.9 206 512l16.1-44.2-80.9-29.5 27.5-75.8c63 10.1 125.4-30.5 139.5-95.6L320 212.2l11.8 54.6c14.1 65.1 76.5 105.8 139.5 95.6l27.5 75.8-80.9 29.5L434 512l206-75.1-16.1-44.2L543 422.2l-27.5-75.8c54.8-32.8 76.5-104.1 45.5-163.1L464.6 0 320 52.7h0L175.4 0zM161.1 128.3l36.8-70 99.5 36.3-16.7 77.4L161.1 128.3zm317.9 0L359.4 171.9 342.6 94.6l99.5-36.3 36.8 70z"/></svg>