<svg xmlns="http://www.w3.org/2000/svg" viewBox="0 0 576 512"><!--! Font Awesome Pro 6.2.0 by @fontawesome - https://fontawesome.com License - https://fontawesome.com/license (Commercial License) Copyright 2022 Fonticons, Inc. --><path d="M320 0H32V416H320V304h16c22.1 0 40 17.9 40 40v32c0 39.8 32.2 72 72 72s72-32.2 72-72V252.3c32.5-10.2 56-40.5 56-76.3V128H544V80 64H512V80v48H480V80 64H448V80v48H416v48c0 35.8 23.5 66.1 56 76.3V376c0 13.3-10.7 24-24 24s-24-10.7-24-24V344c0-48.6-39.4-88-88-88H320V0zM208 96l-24 96h88L144 320l24-96H80L208 96zM352 448H0v64H352V448z"/></svg>