<svg xmlns="http://www.w3.org/2000/svg" viewBox="0 0 640 512"><!--! Font Awesome Pro 6.2.0 by @fontawesome - https://fontawesome.com License - https://fontawesome.com/license (Commercial License) Copyright 2022 Fonticons, Inc. --><path d="M160 0h32H608h32V32 384v32H608 324.6l-19.2-64H576V64H224v49.1C205.2 102.2 183.3 96 160 96V32 0zM473 201l-72 72-17 17-17-17-64-64-17-17L320 158.1l17 17 47 47 55-55-39-39 16-16H528V224l-16 16-39-39zM256 224c0 53-43 96-96 96s-96-43-96-96s43-96 96-96s96 43 96 96zm16 128l48 160H0L48 352H272z"/></svg>