<svg xmlns="http://www.w3.org/2000/svg" viewBox="0 0 640 512"><!--! Font Awesome Pro 6.2.0 by @fontawesome - https://fontawesome.com License - https://fontawesome.com/license (Commercial License) Copyright 2022 Fonticons, Inc. --><path d="M288 0H160V128h58.6l29.1 62.3C221.8 210.4 203 239 195.6 272H128V240H0V368H128V336h67.6c14.6 64.1 71.9 112 140.4 112c40.8 0 77.7-17 103.9-44.3L512 446.9V512H640V384H531.5l-58.6-35.2c4.6-14.1 7.1-29.2 7.1-44.8c0-20.3-4.2-39.7-11.8-57.2L542.8 192H640V64H512v71.3l-81.7 59.9C405 173.3 372.1 160 336 160c-10.4 0-20.6 1.1-30.4 3.2L288 125.5V0zm48 352c-26.5 0-48-21.5-48-48s21.5-48 48-48s48 21.5 48 48s-21.5 48-48 48z"/></svg>