<svg xmlns="http://www.w3.org/2000/svg" viewBox="0 0 512 512"><!--! Font Awesome Pro 6.2.0 by @fontawesome - https://fontawesome.com License - https://fontawesome.com/license (Commercial License) Copyright 2022 Fonticons, Inc. --><path d="M141.8 145.7L0 256H512C512 132.3 411.7 32 288 32L217.1 87.2c4.4 7.2 6.9 15.7 6.9 24.8c0 26.5-21.5 48-48 48c-13.4 0-25.5-5.5-34.2-14.3zM416 288c0 26.5-21.5 48-48 48s-48-21.5-48-48H0V480H512V288H416zM176 432c-26.5 0-48-21.5-48-48s21.5-48 48-48s48 21.5 48 48s-21.5 48-48 48z"/></svg>