<svg xmlns="http://www.w3.org/2000/svg" viewBox="0 0 640 512"><!--! Font Awesome Pro 6.2.0 by @fontawesome - https://fontawesome.com License - https://fontawesome.com/license (Commercial License) Copyright 2022 Fonticons, Inc. --><path d="M256 32H96V80h56v48H0V480H640V128H544V96H384v32H200V80h56V32zm96 272c0-61.9 50.1-112 112-112s112 50.1 112 112s-50.1 112-112 112s-112-50.1-112-112zm182.6-48L512 233.4l-11.3 11.3-48 48L441.4 304 464 326.6l11.3-11.3 48-48L534.6 256zM176 416c-61.9 0-112-50.1-112-112s50.1-112 112-112s112 50.1 112 112s-50.1 112-112 112zM160 240v64 16h32V304 240 224H160v16z"/></svg>