<svg xmlns="http://www.w3.org/2000/svg" viewBox="0 0 256 512"><!--! Font Awesome Pro 6.2.0 by @fontawesome - https://fontawesome.com License - https://fontawesome.com/license (Commercial License) Copyright 2022 Fonticons, Inc. --><path d="M152 24c0-13.3-10.7-24-24-24s-24 10.7-24 24s10.7 24 24 24s24-10.7 24-24zM0 464v48H256V464l-32-16V416H32v32L0 464zM66.5 192H48v48H72h5.1L59.8 384H196.2L178.9 240H184h24V192H189.5L240 92 219 78l-4.6 4.6c-6 6-14.5 10.3-22.3 7.1c-11-4.5-15-15.1-15-25.7H149s0 21-21 21s-21-21-21-21H79c0 10.6-4 21.2-15 25.7c-7.8 3.2-16.3-1.1-22.3-7.1L37 78 16 92 66.5 192z"/></svg>