<svg xmlns="http://www.w3.org/2000/svg" viewBox="0 0 640 512"><!--! Font Awesome Pro 6.2.0 by @fontawesome - https://fontawesome.com License - https://fontawesome.com/license (Commercial License) Copyright 2022 Fonticons, Inc. --><path d="M384 32H544V80H488v48H640V480H0V128H96V96H256v32H440V80H384V32zM288 304c0-61.9-50.1-112-112-112s-112 50.1-112 112s50.1 112 112 112s112-50.1 112-112zm-41.4-48l-11.3 11.3-48 48L176 326.6 153.4 304l11.3-11.3 48-48L224 233.4 246.6 256zM464 416c61.9 0 112-50.1 112-112s-50.1-112-112-112s-112 50.1-112 112s50.1 112 112 112zm16-176v64 16H448V304 240 224h32v16z"/></svg>