<svg xmlns="http://www.w3.org/2000/svg" viewBox="0 0 256 512"><!--! Font Awesome Pro 6.2.0 by @fontawesome - https://fontawesome.com License - https://fontawesome.com/license (Commercial License) Copyright 2022 Fonticons, Inc. --><path d="M160 32H96V84.6C75.1 105.9 48 143 48 192c0 26.3 13.6 40.5 26.3 48H72 48v48H72h5.7L64 384H192l-13.7-96H184h24V240H184h-2.3c12.7-7.5 26.3-21.7 26.3-48c0-25.9-7.5-48.4-17.7-67l-48.6 48.6-5.7 5.7L124.7 168l5.7-5.7L181.7 111C174.6 100.5 167 91.7 160 84.6V32zM0 464v48H256V464l-32-16V416H32v32L0 464z"/></svg>