<svg xmlns="http://www.w3.org/2000/svg" viewBox="0 0 512 512"><!--! Font Awesome Pro 6.2.0 by @fontawesome - https://fontawesome.com License - https://fontawesome.com/license (Commercial License) Copyright 2022 Fonticons, Inc. --><path d="M144 16V0H112V16 32H96 80V64H96h16V96H40v24l29.3 88H48v48H72h5.8L60.4 384H195.6L178.2 256H184h24V208H186.7L216 120V96H144V64h16 16V32H160 144V16zM304 192v80l35.2 40L337 384H462.5l-3.3-72L496 272V192H456v32H432V192H368v32H344V192H304zm80 112c0-8.8 7.2-16 16-16s16 7.2 16 16v32H384V304zM288 512H512V464l-32-16V416H320v32l-32 16v48zM0 464v48H256V464l-32-16V416H32v32L0 464z"/></svg>