<svg xmlns="http://www.w3.org/2000/svg" viewBox="0 0 512 512"><!--! Font Awesome Pro 6.2.0 by @fontawesome - https://fontawesome.com License - https://fontawesome.com/license (Commercial License) Copyright 2022 Fonticons, Inc. --><path d="M312 56c0-30.9-25.1-56-56-56s-56 25.1-56 56s25.1 56 56 56s56-25.1 56-56zM64 448v64H96 416h32V448H416 96 64zM61.3 173.3L48 160 0 192 104 416H408L512 192l-48-32-13.3 13.3c-12 12-28.8 20.3-44.9 14.8C378 178.6 368 153.3 368 128H304s0 48-48 48s-48-48-48-48H144c0 25.3-10 50.6-37.9 60.1c-16.1 5.5-32.9-2.8-44.9-14.8z"/></svg>