<svg xmlns="http://www.w3.org/2000/svg" viewBox="0 0 640 512"><!--! Font Awesome Pro 6.2.0 by @fontawesome - https://fontawesome.com License - https://fontawesome.com/license (Commercial License) Copyright 2022 Fonticons, Inc. --><path d="M160 128c35.3 0 64-28.7 64-64s-28.7-64-64-64S96 28.7 96 64s28.7 64 64 64zm-41.5 32H102.3l-9.6 13.1-70.5 96L3.3 294.9l51.6 37.9 18.9-25.8L88 287.6v.4 2.3L56 400H88v80 32h64V480 400h16v80 32h64V480 400h32L232 290.3V288v-.4l14.2 19.3 18.9 25.8 51.6-37.9-18.9-25.8-70.5-96L217.7 160H201.5h-83zM480 128c35.3 0 64-28.7 64-64s-28.7-64-64-64s-64 28.7-64 64s28.7 64 64 64zm-41.5 32H422.3l-9.6 13.1-70.5 96-18.9 25.8 51.6 37.9 18.9-25.8L408 287.6V480v32h64V480 384h16v96 32h64V480 287.6l14.2 19.3 18.9 25.8 51.6-37.9-18.9-25.8-70.5-96L537.7 160H521.5h-83z"/></svg>