<svg xmlns="http://www.w3.org/2000/svg" viewBox="0 0 320 512"><!--! Font Awesome Pro 6.2.0 by @fontawesome - https://fontawesome.com License - https://fontawesome.com/license (Commercial License) Copyright 2022 Fonticons, Inc. --><path d="M224 64c0 35.3-28.7 64-64 64s-64-28.7-64-64s28.7-64 64-64s64 28.7 64 64zM100.9 160h16 86.2 16l9.6 12.8 72.1 96L320 294.4l-51.2 38.4-19.2-25.6-15.3-20.4L272 400H232v80 32H168V480 400H152v80 32H88V480 400H48L85.7 286.8 70.4 307.2 51.2 332.8 0 294.4l19.2-25.6 72.1-96 9.6-12.8z"/></svg>