<svg xmlns="http://www.w3.org/2000/svg" viewBox="0 0 576 512"><!--! Font Awesome Pro 6.2.0 by @fontawesome - https://fontawesome.com License - https://fontawesome.com/license (Commercial License) Copyright 2022 Fonticons, Inc. --><path d="M176 128c35.3 0 64-28.7 64-64s-28.7-64-64-64s-64 28.7-64 64s28.7 64 64 64zm-43.1 32h-16l-9.6 12.8-72.1 96L16 294.4l51.2 38.4 19.2-25.6L96 294.4V480v32h64V480 384h32v96 32h64V480 294.4l9.6 12.8 19.2 25.6L336 294.4l-19.2-25.6-72.1-96L235.1 160h-16H132.9zM464 0H448 416 400V32h16v96H400v64H368V400h48V512h96L484 400h60V352H480V325.3L544 304V192H496v72l-16 5.3V128H464V0z"/></svg>