<svg xmlns="http://www.w3.org/2000/svg" viewBox="0 0 512 512"><!--! Font Awesome Pro 6.2.0 by @fontawesome - https://fontawesome.com License - https://fontawesome.com/license (Commercial License) Copyright 2022 Fonticons, Inc. --><path d="M512 256c0 141.4-114.6 256-256 256S0 397.4 0 256S114.6 0 256 0S512 114.6 512 256zM264 128H248c-39.8 0-72 32.2-72 72c0 15.7 5 30.1 13.5 42c-18 14.7-29.5 37-29.5 62c0 44.2 35.8 80 80 80h32c44.2 0 80-35.8 80-80c0-25-11.5-47.4-29.5-62c8.5-11.8 13.5-26.3 13.5-42c0-39.8-32.2-72-72-72zm-16 96c-13.2 0-24-10.8-24-24s10.7-24 24-24h16c13.3 0 24 10.7 24 24s-10.7 24-24 24c0 0 0 0 0 0H248s0 0 0 0zm16 48h8c17.7 0 32 14.3 32 32s-14.3 32-32 32H240c-17.7 0-32-14.3-32-32s14.3-32 32-32h8 16z"/></svg>