<svg xmlns="http://www.w3.org/2000/svg" viewBox="0 0 512 512"><!--! Font Awesome Pro 6.2.0 by @fontawesome - https://fontawesome.com License - https://fontawesome.com/license (Commercial License) Copyright 2022 Fonticons, Inc. --><path d="M256 512c141.4 0 256-114.6 256-256S397.4 0 256 0S0 114.6 0 256S114.6 512 256 512zm32-368V368v16H256V368 144 128h32v16zM160 176V336v16H128V336 176 160h32v16zm192 24V312v16H320V312 200 184h32v16zM224 216v80 16H192V296 216 200h32v16zm192 24v32 16H384V272 240 224h32v16z"/></svg>