<svg xmlns="http://www.w3.org/2000/svg" viewBox="0 0 512 512"><!--! Font Awesome Pro 6.2.0 by @fontawesome - https://fontawesome.com License - https://fontawesome.com/license (Commercial License) Copyright 2022 Fonticons, Inc. --><path d="M448 256c0-106-86-192-192-192S64 150 64 256s86 192 192 192s192-86 192-192zm64 0c0 141.4-114.6 256-256 256S0 397.4 0 256S114.6 0 256 0S512 114.6 512 256zM200 128h80c53 0 96 43 96 96s-43 96-96 96H232v32 32H168V352 320 256 160 128h32zm112 96c0-17.7-14.3-32-32-32H232v64h48c17.7 0 32-14.3 32-32z"/></svg>