<svg xmlns="http://www.w3.org/2000/svg" viewBox="0 0 512 512"><!--! Font Awesome Pro 6.2.0 by @fontawesome - https://fontawesome.com License - https://fontawesome.com/license (Commercial License) Copyright 2022 Fonticons, Inc. --><path d="M512 256c0 141.4-114.6 256-256 256S0 397.4 0 256S114.6 0 256 0S512 114.6 512 256zM208 96V256c0 26.5 21.5 48 48 48s48-21.5 48-48V240H272 256V208h16 32V176H272 256V144h16 32V96H208zM160 240V224H128v16 16c0 65.3 48.9 119.1 112 127v17 16h32V400 383c63.1-7.9 112-61.7 112-127V240 224H352v16 16c0 53-43 96-96 96s-96-43-96-96V240z"/></svg>