<svg xmlns="http://www.w3.org/2000/svg" viewBox="0 0 512 512"><!--! Font Awesome Pro 6.2.0 by @fontawesome - https://fontawesome.com License - https://fontawesome.com/license (Commercial License) Copyright 2022 Fonticons, Inc. --><path d="M256 512c141.4 0 256-114.6 256-256S397.4 0 256 0S0 114.6 0 256S114.6 512 256 512zM208 256V96h96V256c0 26.5-21.5 48-48 48s-48-21.5-48-48zm-48-32v16 16c0 53 43 96 96 96s96-43 96-96V240 224h32v16 16c0 65.3-48.9 119.1-112 127v17 16H240V400 383c-63.1-7.9-112-61.7-112-127V240 224h32z"/></svg>