<svg xmlns="http://www.w3.org/2000/svg" viewBox="0 0 512 512"><!--! Font Awesome Pro 6.2.0 by @fontawesome - https://fontawesome.com License - https://fontawesome.com/license (Commercial License) Copyright 2022 Fonticons, Inc. --><path d="M.5 240C4.1 181.3 27.5 128 64 86.6L109.4 132C84.3 161.7 68 199 64.7 240H.5zM132 109.4L86.6 64C128 27.5 181.3 4.1 240 .5V64.7c-41 3.4-78.3 19.6-108 44.7zm140 338c41-3.4 78.3-19.6 108-44.7L425.4 448C384 484.5 330.6 507.9 272 511.5V447.3zM402.6 380c25.1-29.6 41.4-67 44.7-108h64.2c-3.6 58.6-27 112-63.5 153.4L402.6 380zm-316 68L132 402.6c29.6 25.1 67 41.4 108 44.7v64.2c-58.7-3.6-112-27-153.4-63.5zM64 425.4C27.5 384 4.1 330.6 .5 272H64.7c3.4 41 19.6 78.3 44.7 108L64 425.4zM425.4 64L380 109.4C350.3 84.3 313 68 272 64.7V.5c58.6 3.6 112 27 153.4 63.5zM448 86.6c36.5 41.4 59.9 94.7 63.5 153.4H447.3c-3.4-41-19.6-78.3-44.7-108L448 86.6z"/></svg>