<svg xmlns="http://www.w3.org/2000/svg" viewBox="0 0 512 512"><!--! Font Awesome Pro 6.2.0 by @fontawesome - https://fontawesome.com License - https://fontawesome.com/license (Commercial License) Copyright 2022 Fonticons, Inc. --><path d="M256 512c141.4 0 256-114.6 256-256S397.4 0 256 0S0 114.6 0 256S114.6 512 256 512zM135.2 279.2c-14.9-14.9-23.2-35-23.2-56v-3.6c0-41.8 33.9-75.6 75.6-75.6c23 0 44.7 10.4 59.1 28.4L256 184l9.3-11.6c14.4-17.9 36.1-28.4 59.1-28.4c41.8 0 75.6 33.9 75.6 75.6v3.6c0 21-8.3 41.1-23.2 56L352 304l-96 96-96-96-24.8-24.8z"/></svg>