<svg xmlns="http://www.w3.org/2000/svg" viewBox="0 0 512 512"><!--! Font Awesome Pro 6.2.0 by @fontawesome - https://fontawesome.com License - https://fontawesome.com/license (Commercial License) Copyright 2022 Fonticons, Inc. --><path d="M256 512c141.4 0 256-114.6 256-256S397.4 0 256 0S0 114.6 0 256S114.6 512 256 512zm56-384h24v34.6l-7.8 7.1-50.8 46.5c41.9 4.8 74.6 40.4 74.6 83.6c0 46.5-37.7 84.2-84.2 84.2H242.7c-32.2 0-61.6-18.2-76-47l-4.2-8.3 42.9-21.5 4.2 8.3c6.3 12.5 19.1 20.4 33 20.4h25.2c20 0 36.2-16.2 36.2-36.2c0-20.1-16.3-36.3-36.4-36.2l-51.5 .3-24.1 .1V229.4l7.8-7.1L250.3 176H184 160V128h24H312z"/></svg>