<svg xmlns="http://www.w3.org/2000/svg" viewBox="0 0 512 512"><!--! Font Awesome Pro 6.2.0 by @fontawesome - https://fontawesome.com License - https://fontawesome.com/license (Commercial License) Copyright 2022 Fonticons, Inc. --><path d="M256 512c141.4 0 256-114.6 256-256S397.4 0 256 0S0 114.6 0 256S114.6 512 256 512zM176 256c0 44.2 35.8 80 80 80c35.8 0 66.1-23.5 76.3-56H280 256V232h24 80 24v24c0 70.7-57.3 128-128 128s-128-57.3-128-128s57.3-128 128-128c32.8 0 62.7 12.3 85.3 32.6l-32 35.8C295.2 183.7 276.5 176 256 176c-44.2 0-80 35.8-80 80z"/></svg>