<svg xmlns="http://www.w3.org/2000/svg" viewBox="0 0 512 512"><!--! Font Awesome Pro 6.2.0 by @fontawesome - https://fontawesome.com License - https://fontawesome.com/license (Commercial License) Copyright 2022 Fonticons, Inc. --><path d="M256 512c141.4 0 256-114.6 256-256S397.4 0 256 0S0 114.6 0 256S114.6 512 256 512zM208 128H312h24v48H312 229.9L226 218.9l56 6.7c39.9 4.8 70 38.7 70 78.9c0 43.9-35.6 79.5-79.5 79.5h-33c-29.8 0-57.1-16.4-71.2-42.6l-5.4-10 42.3-22.7 5.4 10c5.7 10.7 16.9 17.3 29 17.3h33c17.4 0 31.5-14.1 31.5-31.5c0-15.9-11.9-29.3-27.7-31.2l-79.1-9.5L174 261.1l2.1-23.2 8-88 2-21.8H208z"/></svg>