<svg xmlns="http://www.w3.org/2000/svg" viewBox="0 0 512 512"><!--! Font Awesome Pro 6.2.0 by @fontawesome - https://fontawesome.com License - https://fontawesome.com/license (Commercial License) Copyright 2022 Fonticons, Inc. --><path d="M512 256c0 141.4-114.6 256-256 256S0 397.4 0 256S114.6 0 256 0S512 114.6 512 256zM256 176c26.5 0 48 21.5 48 48s-21.5 48-48 48s-48-21.5-48-48s21.5-48 48-48zm96 48c0-53-43-96-96-96s-96 43-96 96c0 49.2 37 89.8 84.7 95.3l-44.4 48.4L185.4 384l65.1 0 68.1-74.3c21.4-23.4 33.3-54 33.3-85.7z"/></svg>