<svg xmlns="http://www.w3.org/2000/svg" viewBox="0 0 640 512"><!--! Font Awesome Pro 6.2.0 by @fontawesome - https://fontawesome.com License - https://fontawesome.com/license (Commercial License) Copyright 2022 Fonticons, Inc. --><path d="M480 0H288V96H224V24 0H176V24 96H112V24 0H64V24 96H0v96V512H288h64H480 640V192H480V0zm96 352v64H512V352h64zm-384 0h64v64H192V352zm-64 64H64V352h64v64zM512 256h64v64H512V256zM64 160h64v64H64V160zm192 96v64H192V256h64zm0-96v64H192V160h64zM64 320V256h64v64H64zm352-64v64H352V256h64zM352 64h64v64H352V64zm64 96v64H352V160h64z"/></svg>