<svg xmlns="http://www.w3.org/2000/svg" viewBox="0 0 640 512"><!--! Font Awesome Pro 6.2.0 by @fontawesome - https://fontawesome.com License - https://fontawesome.com/license (Commercial License) Copyright 2022 Fonticons, Inc. --><path d="M224 96h16 32 96 96 32 16v32H496 480v32h91.2l44-29.3L640 114.1V144 336v29.9l-24.9-16.6-44-29.3H96 92.9l-2.9-1.1-80-32L0 282.8V272 208 197.2l10.1-4 80-32 2.9-1.1H96 256V128H240 224V96zm224 32H384v32h64V128zm-96 0H288v32h64V128zM272 264c13.3 0 24-10.7 24-24s-10.7-24-24-24s-24 10.7-24 24s10.7 24 24 24zm120-24c0-13.3-10.7-24-24-24s-24 10.7-24 24s10.7 24 24 24s24-10.7 24-24zm72 24c13.3 0 24-10.7 24-24s-10.7-24-24-24s-24 10.7-24 24s10.7 24 24 24z"/></svg>