<svg xmlns="http://www.w3.org/2000/svg" viewBox="0 0 384 512"><!--! Font Awesome Pro 6.2.0 by @fontawesome - https://fontawesome.com License - https://fontawesome.com/license (Commercial License) Copyright 2022 Fonticons, Inc. --><path d="M101.5 64C114.6 26.7 150.2 0 192 0s77.4 26.7 90.5 64H384V512H0V64H101.5zM224 96c0-17.7-14.3-32-32-32s-32 14.3-32 32s14.3 32 32 32s32-14.3 32-32zM198.6 208L176 185.4l-11.3 11.3L112 249.4 91.3 228.7 80 217.4 57.4 240l11.3 11.3 32 32L112 294.6l11.3-11.3 64-64L198.6 208zm9.4 48H192v32h16 96 16V256H304 208zm-48 96v32h16H304h16V352H304 176 160zM96 392c13.3 0 24-10.7 24-24s-10.7-24-24-24s-24 10.7-24 24s10.7 24 24 24z"/></svg>