<svg xmlns="http://www.w3.org/2000/svg" viewBox="0 0 640 512"><!--! Font Awesome Pro 6.2.0 by @fontawesome - https://fontawesome.com License - https://fontawesome.com/license (Commercial License) Copyright 2022 Fonticons, Inc. --><path d="M209.8 84.8C222.3 35 267.1 0 318.5 0H320c61.9 0 112 50.1 112 112v6.3c0 36.5-17.8 70.8-47.8 91.8l-8.3 5.8L626.3 389.7l13.7 9.5V416v64 32H608 32 0V480 416 399.3l13.7-9.5L301.6 189.8l.1-.1 45.8-32c12.8-9 20.5-23.7 20.5-39.3V112c0-26.5-21.5-48-48-48h-1.5c-22 0-41.2 15-46.6 36.4l-.9 3.4-7.8 31-62.1-15.5 7.8-31 .9-3.4zM320 255L64 432.7V448H576V432.7L320 255z"/></svg>