<svg xmlns="http://www.w3.org/2000/svg" viewBox="0 0 576 512"><!--! Font Awesome Pro 6.2.0 by @fontawesome - https://fontawesome.com License - https://fontawesome.com/license (Commercial License) Copyright 2022 Fonticons, Inc. --><path d="M224 0c38.6 0 71.9 22.8 87.2 55.7C325.7 41.1 345.8 32 368 32c38.7 0 71 27.5 78.4 64H448c35.3 0 64 28.7 64 64v64H64V160c0-35.3 28.7-64 64-64c0-53 43-96 96-96zM140.6 292.3l-48 80L80.2 392.9 39.1 368.2l12.3-20.6 48-80 12.3-20.6 41.2 24.7-12.3 20.6zm348.3-20.6l-12.3 20.6-48 80-12.3 20.6-41.2-24.7 12.3-20.6 48-80 12.3-20.6 41.2 24.7zM252.6 292.3l-48 80-12.3 20.6-41.2-24.7 12.3-20.6 48-80 12.3-20.6 41.2 24.7-12.3 20.6zm124.3-20.6l-12.3 20.6-48 80-12.3 20.6-41.2-24.7 12.3-20.6 48-80 12.3-20.6 41.2 24.7zM272.4 493.1c-19.8 9-48.5 18.9-80.4 18.9s-60.6-9.9-80.4-18.9c-5.8-2.7-11.1-5.3-15.6-7.7c-4.5 2.4-9.7 5.1-15.6 7.7C60.6 502.1 31.9 512 0 512V448c19.3 0 38.6-6.1 54-13.1c14.9-6.8 26.9-15.4 40-24.7c.7-.5 1.4-1 2.1-1.5c.7 .5 1.4 1 2.1 1.5c13.1 9.3 25.1 17.9 40 24.7c15.4 7 34.7 13.1 54 13.1s38.6-6.1 54-13.1c14.9-6.8 26.9-15.4 40-24.7c.7-.5 1.4-1 2.1-1.5c.7 .5 1.4 1 2.1 1.5c13.1 9.3 25.1 18 40 24.7c15.4 7 34.7 13.1 54 13.1s38.6-6.1 54-13.1c14.9-6.8 26.9-15.4 40-24.7c.7-.5 1.4-1 2.1-1.5c.7 .5 1.4 1 2.1 1.5c13.1 9.3 25.1 18 40 24.7c15.4 7 34.7 13.1 54 13.1v64c-31.9 0-60.6-9.9-80.4-18.9c-5.8-2.7-11.1-5.3-15.6-7.7c-4.5 2.4-9.7 5.1-15.6 7.7c-19.8 9-48.5 18.9-80.4 18.9s-60.6-9.9-80.4-18.9c-5.8-2.7-11.1-5.3-15.6-7.7c-4.5 2.4-9.7 5.1-15.6 7.7z"/></svg>