<svg xmlns="http://www.w3.org/2000/svg" viewBox="0 0 640 512"><!--! Font Awesome Pro 6.2.0 by @fontawesome - https://fontawesome.com License - https://fontawesome.com/license (Commercial License) Copyright 2022 Fonticons, Inc. --><path d="M207.9 62.3L122.2 1 104.9 105 .9 122.2l61.3 85.7L.9 293.7l104 17.2 17.2 104 41.6-29.8c9.2-37.1 34.5-67.8 68.1-84.2c-45.6 11.8-94.1-11.5-112.6-56.2c-20.3-49 3-105.1 52-125.4c46.1-19.1 98.6 .4 121.5 43.6c7.3-22.8 22.9-41.9 43.2-53.7l-25-4.1L293.6 1 207.9 62.3zM148.7 232.4c13.5 32.7 51 48.2 83.6 34.6s48.2-51 34.6-83.6s-51-48.2-83.6-34.6s-48.2 51-34.6 83.6zm448.4 55.6H640v-72c0-39.8-32.2-72-72-72c-3.2 0-6.4 .2-9.5 .6C551.4 107.9 519 80.1 480 80.1c-34.2 0-63.3 21.4-74.8 51.6c-6.6-2.3-13.8-3.6-21.2-3.6c-35.3 0-64 28.6-64 64c0 3 .2 6 .6 8.9c14.6-5.8 30.6-9 47.3-9c35.7 0 68 14.6 91.2 38.2c11.5-4 23.9-6.2 36.8-6.2c44.7 0 83.3 26.2 101.3 64.1zm42.7 223.8v-80c0-39.3-28.4-72.1-65.8-78.7c1.2-5.6 1.9-11.3 1.9-17.2c0-44.2-35.8-80-80-80c-17 0-32.8 5.3-45.8 14.4C433.3 242.6 402.8 224 368 224c-53 0-96 43-96 96l0 1.3c-45.4 7.6-80 47.1-80 94.6v96h96H559.9l80 0z"/></svg>