<svg xmlns="http://www.w3.org/2000/svg" viewBox="0 0 640 512"><!--! Font Awesome Pro 6.2.0 by @fontawesome - https://fontawesome.com License - https://fontawesome.com/license (Commercial License) Copyright 2022 Fonticons, Inc. --><path d="M144 480H0V336c0-62.7 40.1-116 96-135.8V192c0-88.4 71.6-160 160-160c59.3 0 111 32.2 138.7 80.2C409.9 102 428.3 96 448 96c53 0 96 43 96 96v36c55.2 14.2 96 64.3 96 124V480H512 144zm79-217l-17 17L240 313.9l17-17 39-39V392v24h48V392 257.9l39 39 17 17L433.9 280l-17-17-80-80-17-17-17 17-80 80z"/></svg>