<svg xmlns="http://www.w3.org/2000/svg" viewBox="0 0 512 512"><!--! Font Awesome Pro 6.2.0 by @fontawesome - https://fontawesome.com License - https://fontawesome.com/license (Commercial License) Copyright 2022 Fonticons, Inc. --><path d="M0 320H96h36.4l10.5-10.5 22.6-22.6 12.1-12.1 16.8 3.4 12.1 2.4 6.9-10.3 9.5-14.2H240h32 17.1l9.5 14.2 6.9 10.3 12.1-2.4 16.8-3.4 12.1 12.1 22.6 22.6L379.6 320H416h96V224c0-53-43-96-96-96V112c0-44.2-35.8-80-80-80c-24.3 0-46.1 10.9-60.8 28C256.5 24.3 219.1 0 176 0C114.1 0 64 50.1 64 112v21.5C26.7 146.6 0 182.2 0 224v96zM172.1 434.7l-6.6 33.1 22.6 22.6 33.1-6.6L240 512h32l18.7-28.1 33.1 6.6 22.6-22.6-6.6-33.1L368 416V384l-28.1-18.7 6.6-33.1-22.6-22.6-33.1 6.6L272 288H240l-18.7 28.1-33.1-6.6-22.6 22.6 6.6 33.1L144 384v32l28.1 18.7zM48 448c26.5 0 48-21.5 48-48s-21.5-48-48-48s-48 21.5-48 48s21.5 48 48 48zm416 0c26.5 0 48-21.5 48-48s-21.5-48-48-48s-48 21.5-48 48s21.5 48 48 48z"/></svg>