<svg xmlns="http://www.w3.org/2000/svg" viewBox="0 0 640 512"><!--! Font Awesome Pro 6.2.0 by @fontawesome - https://fontawesome.com License - https://fontawesome.com/license (Commercial License) Copyright 2022 Fonticons, Inc. --><path d="M477.6 107c0 53 43 96 96 96c18.9 0 36.5-5.5 51.4-14.9C603.5 228.5 561 256 512 256c-3.7 0-7.5-.2-11.1-.5c-11.1-23.1-29.9-41.9-53.1-52.8c-1.9-41.7-26.7-77.5-62.1-95.1C395.4 46.6 448.3 0 512 0c18.9 0 36.9 4.1 53 11.5c-49 4.4-87.4 45.5-87.4 95.6zM132.1 441.3l-13.3 20L100 489.5l-13.3 20L46.7 482.8l13.3-20 18.8-28.2 13.3-20 39.9 26.6zm96 0l-13.3 20-18.8 28.2-13.3 20-39.9-26.6 13.3-20 18.8-28.2 13.3-20L228 441.3zm191.9 0l-13.3 20-18.8 28.2-13.3 20-39.9-26.6 13.3-20 18.8-28.2 13.3-20L420 441.3zm-96 0l-13.3 20-18.8 28.2-13.3 20-39.9-26.6 13.3-20 18.8-28.2 13.3-20L324 441.3zm155.9-57.4l-80 0H128 32v-96c0-47.6 34.6-87 80-94.6l0-1.3c0-53 43-96 96-96c34.9 0 65.4 18.6 82.2 46.4c13-9.1 28.8-14.4 45.8-14.4c44.2 0 80 35.8 80 80c0 5.9-.6 11.7-1.9 17.2c37.4 6.7 65.8 39.4 65.8 78.7v80z"/></svg>