<svg xmlns="http://www.w3.org/2000/svg" viewBox="0 0 512 512"><!--! Font Awesome Pro 6.2.0 by @fontawesome - https://fontawesome.com License - https://fontawesome.com/license (Commercial License) Copyright 2022 Fonticons, Inc. --><path d="M96 320H0V224c0-41.8 26.7-77.4 64-90.5V112C64 50.1 114.1 0 176 0c43.1 0 80.5 24.3 99.2 60c14.7-17.1 36.5-28 60.8-28c44.2 0 80 35.8 80 80v16c53 0 96 43 96 96v96H416 96zm-1.9 65.5l-10.3 24-9.5 22.1L30.2 412.6l9.5-22.1 10.3-24 9.5-22.1 44.1 18.9-9.5 22.1zm120 0l-42 98-9.5 22.1-44.1-18.9 9.5-22.1 42-98 9.5-22.1 44.1 18.9-9.5 22.1zm232 0l-42 98-9.5 22.1-44.1-18.9 9.5-22.1 42-98 9.5-22.1 44.1 18.9-9.5 22.1zm-120 0l-10.3 24-9.5 22.1-44.1-18.9 9.5-22.1 10.3-24 9.5-22.1 44.1 18.9-9.5 22.1zM32 512c-17.7 0-32-14.3-32-32s14.3-32 32-32s32 14.3 32 32s-14.3 32-32 32zm256-32c0 17.7-14.3 32-32 32s-32-14.3-32-32s14.3-32 32-32s32 14.3 32 32z"/></svg>