<svg xmlns="http://www.w3.org/2000/svg" viewBox="0 0 640 512"><!--! Font Awesome Pro 6.2.0 by @fontawesome - https://fontawesome.com License - https://fontawesome.com/license (Commercial License) Copyright 2022 Fonticons, Inc. --><path d="M565 11.4c-49 4.4-87.4 45.5-87.4 95.6c0 53 43 96 96 96c18.9 0 36.5-5.5 51.4-14.9C603.5 228.5 561 256 512 256c-3.7 0-7.5-.2-11.1-.5c-11.1-23.1-29.9-41.9-53.1-52.8c-1.9-41.7-26.7-77.5-62.1-95.1C395.4 46.6 448.3 0 512 0c18.9 0 36.9 4.1 53 11.5zM479.9 383.9l-80 0H352V337.8H287.6L321.9 224H267.6L96 361.5v22.4H32v-96c0-47.6 34.6-87 80-94.6l0-1.3c0-53 43-96 96-96c34.9 0 65.4 18.6 82.2 46.4c13-9.1 28.8-14.4 45.8-14.4c44.2 0 80 35.8 80 80c0 5.9-.6 11.7-1.9 17.2c37.4 6.7 65.8 39.4 65.8 78.7v80zM169.1 512l34.3-113.8H128V376.9L278.9 256 244.6 369.8H320v21.3L169.1 512z"/></svg>