<svg xmlns="http://www.w3.org/2000/svg" viewBox="0 0 640 512"><!--! Font Awesome Pro 6.2.0 by @fontawesome - https://fontawesome.com License - https://fontawesome.com/license (Commercial License) Copyright 2022 Fonticons, Inc. --><path d="M122.1 1l85.7 61.3L293.6 1l13 78.6c-20 10.9-36.7 27.1-48.5 46.5c-25.3-15.5-57.5-19.2-87-6.9c-49 20.3-72.2 76.4-52 125.4c8.4 20.4 23.1 36.3 40.8 46.5v96.6l-37.8 27.1-17.2-104L.9 293.7l61.3-85.7L.9 122.2l104-17.2L122.1 1zm123 154.9c-1.2 4.1-2.2 8.3-3 12.5c-38 14.6-67.2 46.7-77.8 86.4c-6.6-6.1-11.9-13.6-15.6-22.4c-13.5-32.7 2-70.1 34.6-83.6c21.2-8.8 44.4-5.3 61.8 7.1zm52.2 277.5l-13.3 20L260 489.5l-13.3 20-39.9-26.6 13.3-20 24.1-36.1 13.3-20 39.9 26.6zm96 0l-13.3 20-24.1 36.2-13.3 20-39.9-26.6 13.3-20 24.1-36.1 13.3-20 39.9 26.6zm96 0l-13.3 20-24.1 36.2-13.3 20-39.9-26.6 13.3-20 24.1-36.1 13.3-20 39.9 26.6zm96 0l-13.3 20-24.1 36.2-13.3 20-39.9-26.6 13.3-20 24.1-36.1 13.3-20 39.9 26.6zm54.6-49.5l-80 0H288 192v-96c0-47.6 34.6-87 80-94.6l0-1.3c0-53 43-96 96-96c34.9 0 65.4 18.6 82.2 46.4c13-9.1 28.8-14.4 45.8-14.4c44.2 0 80 35.8 80 80c0 5.9-.6 11.7-1.9 17.2c37.4 6.7 65.8 39.4 65.8 78.7v80z"/></svg>