<svg xmlns="http://www.w3.org/2000/svg" viewBox="0 0 512 512"><!--! Font Awesome Pro 6.2.0 by @fontawesome - https://fontawesome.com License - https://fontawesome.com/license (Commercial License) Copyright 2022 Fonticons, Inc. --><path d="M96 320H0V224c0-41.8 26.7-77.4 64-90.5V112C64 50.1 114.1 0 176 0c43.1 0 80.5 24.3 99.2 60c14.7-17.1 36.5-28 60.8-28c44.2 0 80 35.8 80 80v16c53 0 96 43 96 96v96H416 96zm-8 56v48 24H40V424 376 352H88v24zm96 64v48 24H136V488 440 416h48v24zm192-24v24 48 24H328V488 440 416h48zm-96-40v48 24H232V424 376 352h48v24zm192-24v24 48 24H424V424 376 352h48z"/></svg>