<svg xmlns="http://www.w3.org/2000/svg" viewBox="0 0 640 512"><!--! Font Awesome Pro 6.2.0 by @fontawesome - https://fontawesome.com License - https://fontawesome.com/license (Commercial License) Copyright 2022 Fonticons, Inc. --><path d="M48.4 14.8L29.4 .1 0 38 19 52.7 591.5 497.2l19 14.7L635.2 480H640V352c0-59.6-40.8-109.8-96-124V192c0-53-43-96-96-96c-19.7 0-38.1 6-53.3 16.2C367 64.2 315.3 32 256 32c-46.8 0-89 20.1-118.2 52.2L48.4 14.8zM96 192v8.2C40.1 220 0 273.3 0 336V480H144 487.4L97.2 172.6c-.8 6.4-1.2 12.9-1.2 19.4z"/></svg>