<svg xmlns="http://www.w3.org/2000/svg" viewBox="0 0 640 512"><!--! Font Awesome Pro 6.2.0 by @fontawesome - https://fontawesome.com License - https://fontawesome.com/license (Commercial License) Copyright 2022 Fonticons, Inc. --><path d="M448 140C448 72.3 499 16.5 564.7 8.9C548.2 3.1 530.5 0 512 0C423.6 0 352 71.6 352 160c0 15.2 2.1 30 6.1 43.9c36.8 17.2 64.1 51.4 71.8 92.5c9 3.5 17.6 7.9 25.5 13.3C473 316.4 492.1 320 512 320c51.2 0 96.7-24 126-61.4c-17.5 8.6-37.2 13.4-58 13.4c-72.9 0-132-59.1-132-132zM74.9 288c18-37.9 56.5-64 101.2-64c12.9 0 25.3 2.2 36.8 6.2C236.1 206.6 268.3 192 304 192c5.4 0 10.7 .3 15.9 1l0-.9c0-35.3-28.6-64-64-64c-7.4 0-14.6 1.3-21.2 3.6c-11.5-30.1-40.6-51.6-74.8-51.6c-38.9 0-71.3 27.8-78.5 64.6c-3.1-.4-6.3-.6-9.5-.6c-39.8 0-72 32.2-72 72v72H72c1 0 1.9 0 2.9-.1zM32 511.9l80 0H383.9h96v-96c0-47.6-34.6-87-80-94.6l0-1.3c0-53-43-96-96-96c-34.9 0-65.4 18.6-82.2 46.4C208.8 261.3 193 256 176 256c-44.2 0-80 35.8-80 80c0 5.9 .6 11.7 1.9 17.2C60.4 359.9 32 392.6 32 431.9v80z"/></svg>