<svg xmlns="http://www.w3.org/2000/svg" viewBox="0 0 576 512"><!--! Font Awesome Pro 6.2.0 by @fontawesome - https://fontawesome.com License - https://fontawesome.com/license (Commercial License) Copyright 2022 Fonticons, Inc. --><path d="M128 320H32V224c0-41.8 26.7-77.4 64-90.5V112C96 50.1 146.1 0 208 0c43.1 0 80.5 24.3 99.2 60c14.7-17.1 36.5-28 60.8-28c44.2 0 80 35.8 80 80v16c53 0 96 43 96 96v96H448 128zm-1.9 65.5l-44 102.7-9.5 22.1L28.5 491.3l9.5-22.1 44-102.7 9.5-22.1 44.1 18.9-9.5 22.1zm120 0l-44 102.7-9.5 22.1-44.1-18.9 9.5-22.1 44-102.7 9.5-22.1 44.1 18.9-9.5 22.1zm232 0l-44 102.7-9.5 22.1-44.1-18.9 9.5-22.1 44-102.7 9.5-22.1 44.1 18.9-9.5 22.1zm-120 0l-44 102.7-9.5 22.1-44.1-18.9 9.5-22.1 44-102.7 9.5-22.1 44.1 18.9-9.5 22.1z"/></svg>