<svg xmlns="http://www.w3.org/2000/svg" viewBox="0 0 640 512"><!--! Font Awesome Pro 6.2.0 by @fontawesome - https://fontawesome.com License - https://fontawesome.com/license (Commercial License) Copyright 2022 Fonticons, Inc. --><path d="M160 320H64V224c0-41.8 26.7-77.4 64-90.5V112C128 50.1 178.1 0 240 0c43.1 0 80.5 24.3 99.2 60c14.7-17.1 36.5-28 60.8-28c44.2 0 80 35.8 80 80v16c53 0 96 43 96 96v96H480 160zM0 368H24 552h24v48H552 24 0V368zm64 96H88 200h24v48H200 88 64V464zm208 0h24H616h24v48H616 296 272V464z"/></svg>