<svg xmlns="http://www.w3.org/2000/svg" viewBox="0 0 640 512"><!--! Font Awesome Pro 6.2.0 by @fontawesome - https://fontawesome.com License - https://fontawesome.com/license (Commercial License) Copyright 2022 Fonticons, Inc. --><path d="M207.9 62.3L122.1 1 104.9 105 .9 122.2l61.3 85.7L.9 293.7l104 17.2 17.2 104 41.6-29.8c9.2-37.1 34.5-67.8 68.1-84.2c-45.6 11.8-94.1-11.5-112.6-56.2c-20.3-49 3-105.1 52-125.4s105.1 3 125.4 52c5.1 12.4 7.5 25.3 7.3 38c18-10.4 38.8-16.6 61-17.1l50-69.8L310.8 105 293.6 1 207.9 62.3zM148.7 232.4c13.5 32.7 51 48.2 83.6 34.6s48.2-51 34.6-83.6s-51-48.2-83.6-34.6s-48.2 51-34.6 83.6zM639.9 511.9v-80c0-39.3-28.4-72.1-65.8-78.7c1.2-5.6 1.9-11.3 1.9-17.2c0-44.2-35.8-80-80-80c-17 0-32.8 5.3-45.8 14.4C433.3 242.6 402.8 224 368 224c-53 0-96 43-96 96l0 1.3c-45.4 7.6-80 47.1-80 94.6v96h96H559.9l80 0z"/></svg>