<svg xmlns="http://www.w3.org/2000/svg" viewBox="0 0 512 512"><!--! Font Awesome Pro 6.2.0 by @fontawesome - https://fontawesome.com License - https://fontawesome.com/license (Commercial License) Copyright 2022 Fonticons, Inc. --><path d="M96 320H0V224c0-41.8 26.7-77.4 64-90.5V112C64 50.1 114.1 0 176 0c43.1 0 80.5 24.3 99.2 60c14.7-17.1 36.5-28 60.8-28c44.2 0 80 35.8 80 80v16c53 0 96 43 96 96v96H416 96zm0 48l40.9 68.1c4.7 7.8 7.1 16.7 7.1 25.8V464c0 26.5-21.5 48-48 48s-48-21.5-48-48v-2.1c0-9.1 2.5-18 7.1-25.8L96 368zm160 0l40.9 68.1c4.7 7.8 7.1 16.7 7.1 25.8V464c0 26.5-21.5 48-48 48s-48-21.5-48-48v-2.1c0-9.1 2.5-18 7.1-25.8L256 368zm119.1 68.1L416 368l40.9 68.1c4.7 7.8 7.1 16.7 7.1 25.8V464c0 26.5-21.5 48-48 48s-48-21.5-48-48v-2.1c0-9.1 2.5-18 7.1-25.8z"/></svg>