<svg xmlns="http://www.w3.org/2000/svg" viewBox="0 0 640 512"><!--! Font Awesome Pro 6.2.0 by @fontawesome - https://fontawesome.com License - https://fontawesome.com/license (Commercial License) Copyright 2022 Fonticons, Inc. --><path d="M207.9 62.3L122.1 1 104.9 105 .9 122.2l61.3 85.7L.9 293.7l104 17.2 17.2 104L160 387.8V319.9c0-9.3 1-18.4 2.9-27.2c-19-10.1-34.8-26.6-43.7-48.1c-20.3-49 3-105.1 52-125.4c35.9-14.9 75.6-6.4 102.3 18.5c12.3-13.5 27.5-24.3 44.5-31.6l-7.1-1.2L293.6 1 207.9 62.3zm34.3 138.1c2.4-12.8 6.7-25 12.6-36.1c-17.7-19-46-26-71.3-15.5c-32.7 13.5-48.2 51-34.6 83.6c5.3 12.7 14.2 22.9 25 29.7c14.3-28.1 38.7-50.3 68.4-61.7zM639.9 415.9v-80c0-39.3-28.4-72.1-65.8-78.7c1.2-5.6 1.9-11.3 1.9-17.2c0-44.2-35.8-80-80-80c-17 0-32.8 5.3-45.8 14.4C433.3 146.6 402.8 128 368 128c-53 0-96 43-96 96l0 1.3c-45.4 7.6-80 47.1-80 94.6v96h80V361.5L443.6 224h54.3L463.6 337.8H528v68.7 9.4h31.9l80 0zM345.1 512L496 391.1V369.8H420.6L454.9 256 304 376.9v21.3h75.4L345.1 512z"/></svg>