<svg xmlns="http://www.w3.org/2000/svg" viewBox="0 0 512 512"><!--! Font Awesome Pro 6.2.0 by @fontawesome - https://fontawesome.com License - https://fontawesome.com/license (Commercial License) Copyright 2022 Fonticons, Inc. --><path d="M56 56h48v48H56V56zM0 0V56v48 56H48V352H0v56 48 56H56h48 56V456 408 352H112V160h48V104 56 0H104 56 0zM56 408h48v48H56V408zm400 0v48H408V408h48zM400 192V352H352v56 48 56h56 48 56V456 408 352H464V192c0-70.7-57.3-128-128-128H320V0H288L192 96l96 96h32V128h16c35.3 0 64 28.7 64 64z"/></svg>