<svg xmlns="http://www.w3.org/2000/svg" viewBox="0 0 448 512"><!--! Font Awesome Pro 6.2.0 by @fontawesome - https://fontawesome.com License - https://fontawesome.com/license (Commercial License) Copyright 2022 Fonticons, Inc. --><path d="M104 56v48H56V56h48zM56 0H0V56v48 56H48v32c0 53 43 96 96 96h48v64H144v56 48 56h56 48 56V456 408 352H256V288h48c53 0 96-43 96-96V160h48V104 56 0H392 344 288V56v48 56h48v32c0 17.7-14.3 32-32 32H144c-17.7 0-32-14.3-32-32V160h48V104 56 0H104 56zM392 56v48H344V56h48zM200 408h48v48H200V408z"/></svg>