<svg xmlns="http://www.w3.org/2000/svg" viewBox="0 0 448 512"><!--! Font Awesome Pro 6.2.0 by @fontawesome - https://fontawesome.com License - https://fontawesome.com/license (Commercial License) Copyright 2022 Fonticons, Inc. --><path d="M56 56v48h48V56H56zM0 0H56h48 56V56v48 56H112v81.1c18.8-10.9 40.7-17.1 64-17.1h96c35.3 0 64-28.7 64-64H288V104 56 0h56 48 56V56v48 56H400c0 70.7-57.3 128-128 128H176c-35.3 0-64 28.7-64 64h48v56 48 56H104 56 0V456 408 352H48V160H0V104 56 0zM392 56H344v48h48V56zM104 408H56v48h48V408z"/></svg>