<svg xmlns="http://www.w3.org/2000/svg" viewBox="0 0 512 512"><!--! Font Awesome Pro 6.2.0 by @fontawesome - https://fontawesome.com License - https://fontawesome.com/license (Commercial License) Copyright 2022 Fonticons, Inc. --><path d="M305.4 62.6L354.7 112l-49.4 49.4 45.3 45.3L400 157.3l49.4 49.4 45.3-45.3L445.3 112l49.4-49.4L449.4 17.4 400 66.7 350.6 17.4 305.4 62.6zM136 88v48H88V88h48zM88 32H32V88v48 56H80V352H32v56 48 56H88h48 56V456 408 352H144V192h48V136 88 32H136 88zM432 288V256H368v32 64H320v56 48 56h56 48 56V456 408 352H432V288zm-8 168H376V408h48v48zM88 408h48v48H88V408z"/></svg>