<svg xmlns="http://www.w3.org/2000/svg" viewBox="0 0 512 512"><!--! Font Awesome Pro 6.2.0 by @fontawesome - https://fontawesome.com License - https://fontawesome.com/license (Commercial License) Copyright 2022 Fonticons, Inc. --><path d="M288 320l-96 96 96 96h32V448h16c70.7 0 128-57.3 128-128V160h48V104 56 0H456 408 352V56v48 56h48V320c0 35.3-28.7 64-64 64H320V320H288zM408 56h48v48H408V56zM224 0H192V64H176C105.3 64 48 121.3 48 192V352H0v56 48 56H56h48 56V456 408 352H112V192c0-35.3 28.7-64 64-64h16v64h32l96-96L224 0zM56 408h48v48H56V408z"/></svg>