<svg xmlns="http://www.w3.org/2000/svg" viewBox="0 0 512 512"><!--! Font Awesome Pro 6.2.0 by @fontawesome - https://fontawesome.com License - https://fontawesome.com/license (Commercial License) Copyright 2022 Fonticons, Inc. --><path d="M430 71.7c1 .9 1.9 1.8 2.9 2.8c74.2 74.2 54.2 214.6-44.8 313.6C301 475.3 181.7 501.2 103.7 455.5l68.4-124.3L360.9 205.3l3.5-2.4 1.9-3.8L430 71.7zM77.9 436.1c-1.1-1.1-2.2-2.1-3.3-3.2C.3 358.7 20.4 218.3 119.3 119.3C206.6 32 326.1 6.1 404 52.2L339.6 181 151.1 306.7l-3.3 2.2-1.9 3.4L77.9 436.1z"/></svg>