<svg xmlns="http://www.w3.org/2000/svg" viewBox="0 0 512 512"><!--! Font Awesome Pro 6.2.0 by @fontawesome - https://fontawesome.com License - https://fontawesome.com/license (Commercial License) Copyright 2022 Fonticons, Inc. --><path d="M512 256c0 141.4-114.6 256-256 256S0 397.4 0 256S114.6 0 256 0S512 114.6 512 256zM256 416c-88.4 0-160-71.6-160-160s71.6-160 160-160s160 71.6 160 160s-71.6 160-160 160zm0 32c106 0 192-86 192-192s-86-192-192-192S64 150 64 256s86 192 192 192zm24-264V160H232v24V328v24h48V328 184z"/></svg>