<svg xmlns="http://www.w3.org/2000/svg" viewBox="0 0 512 512"><!--! Font Awesome Pro 6.2.0 by @fontawesome - https://fontawesome.com License - https://fontawesome.com/license (Commercial License) Copyright 2022 Fonticons, Inc. --><path d="M512 240c0 114.9-114.6 208-256 208c-31.5 0-61.7-4.6-89.6-13.1L16 480 56.9 370.8C21.3 335.1 0 289.6 0 240C0 125.1 114.6 32 256 32s256 93.1 256 208zM280 328V209.9l31 31 17 17L361.9 224l-17-17-72-72-17-17-17 17-72 72-17 17L184 257.9l17-17 31-31V328v24h48V328z"/></svg>