<svg xmlns="http://www.w3.org/2000/svg" viewBox="0 0 512 512"><!--! Font Awesome Pro 6.2.0 by @fontawesome - https://fontawesome.com License - https://fontawesome.com/license (Commercial License) Copyright 2022 Fonticons, Inc. --><path d="M0 0H32 160h32V32v96H320V32 0h32H480h32V32 160v32H480 384V320h96 32v32V480v32H480 352 320V480 384H192v96 32H160 32 0V480 352 320H32h96V192H32 0V160 32 0zM128 128V64H64v64h64zm64 192H320V192H192V320zm-64 64H64v64h64V384zm256 0v64h64V384H384zm0-256h64V64H384v64z"/></svg>