<svg xmlns="http://www.w3.org/2000/svg" viewBox="0 0 640 512"><!--! Font Awesome Pro 6.2.0 by @fontawesome - https://fontawesome.com License - https://fontawesome.com/license (Commercial License) Copyright 2022 Fonticons, Inc. --><path d="M208 352c114.9 0 208-78.8 208-176S322.9 0 208 0S0 78.8 0 176c0 37.5 13.9 72.3 37.6 100.9L0 352l108.1-21.6C137.7 344.2 171.8 352 208 352zm23.5 31C255.8 457.4 336.4 512 432 512c36.2 0 70.3-7.8 99.9-21.6L640 512l-37.6-75.1C626.1 408.3 640 373.5 640 336c0-92.8-84.9-168.9-192.6-175.5c.4 5.1 .6 10.3 .6 15.5c0 112.3-99.1 196.9-216.5 207zM134.7 124c0-25.8 20.9-46.7 46.7-46.7h47.4c29.1 0 52.6 23.6 52.6 52.6c0 18.8-10.1 36.3-26.4 45.6L228 191v6.3 20H188v-20V179.5 167.9l10-5.8L235 140.9c3.9-2.3 6.3-6.4 6.3-10.9c0-7-5.7-12.6-12.6-12.6H181.3c-3.7 0-6.7 3-6.7 6.7l0 5.5-40 0 0-5.5zM188 250.7h40v40H188v-40z"/></svg>