<svg xmlns="http://www.w3.org/2000/svg" viewBox="0 0 512 512"><!--! Font Awesome Pro 6.2.0 by @fontawesome - https://fontawesome.com License - https://fontawesome.com/license (Commercial License) Copyright 2022 Fonticons, Inc. --><path d="M512 240c0 114.9-114.6 208-256 208c-31.5 0-61.7-4.6-89.6-13.1L16 480 56.9 370.8C21.3 335.1 0 289.6 0 240C0 125.1 114.6 32 256 32s256 93.1 256 208zM352 128V104.9L330.4 113l-128 48L192 164.9V176v32 81.8c-5-1.2-10.4-1.8-16-1.8c-26.5 0-48 14.3-48 32s21.5 32 48 32s48-14.3 48-32V219.1l96-36v74.7c-5-1.2-10.4-1.8-16-1.8c-26.5 0-48 14.3-48 32s21.5 32 48 32s48-14.3 48-32V160 128z"/></svg>