<svg xmlns="http://www.w3.org/2000/svg" viewBox="0 0 640 512"><!--! Font Awesome Pro 6.2.0 by @fontawesome - https://fontawesome.com License - https://fontawesome.com/license (Commercial License) Copyright 2022 Fonticons, Inc. --><path d="M384 96V320H64V96H384zM64 32H0V96 320v64H64 181.3l-10.7 32H64v64H384V416H277.3l-10.7-32H384h64V320 96 32H384 64zm576 0H480V480H640V32zM544 96h32 16v32H576 544 528V96h16zm-16 64h16 32 16v32H576 544 528V160zm32 240c-17.7 0-32-14.3-32-32s14.3-32 32-32s32 14.3 32 32s-14.3 32-32 32z"/></svg>