<svg xmlns="http://www.w3.org/2000/svg" viewBox="0 0 640 512"><!--! Font Awesome Pro 6.2.0 by @fontawesome - https://fontawesome.com License - https://fontawesome.com/license (Commercial License) Copyright 2022 Fonticons, Inc. --><path d="M288 480V416H128 96v64h32H288zM64 32H0V96 320v64H64 288V320H64V96H288V32H64zm576 0H320V480H640V32zM544 320c0-35.3-28.7-64-64-64s-64 28.7-64 64s28.7 64 64 64s64-28.7 64-64zm32 0c0 53-43 96-96 96s-96-43-96-96s43-96 96-96s96 43 96 96zM512 128c0 17.7-14.3 32-32 32s-32-14.3-32-32s14.3-32 32-32s32 14.3 32 32z"/></svg>