<svg xmlns="http://www.w3.org/2000/svg" viewBox="0 0 576 512"><!--! Font Awesome Pro 6.2.0 by @fontawesome - https://fontawesome.com License - https://fontawesome.com/license (Commercial License) Copyright 2022 Fonticons, Inc. --><path d="M128 0h24H296h24V24 96h64l19.7 98.3C319.9 207.8 256 280.4 256 368c0 16.6 2.3 32.7 6.6 48H0L64 96h64V24 0zM285.5 465.6C277.9 492.4 253.2 512 224 512c-35.3 0-64-28.7-64-64H275.2c3.1 6.1 6.6 12 10.3 17.6zM272 48H176V96h96V48zM432 512c-79.5 0-144-64.5-144-144s64.5-144 144-144s144 64.5 144 144s-64.5 144-144 144zm16-208V288H416v16 48H368 352v32h16 48v48 16h32V432 384h48 16V352H496 448V304z"/></svg>