<svg xmlns="http://www.w3.org/2000/svg" viewBox="0 0 576 512"><!--! Font Awesome Pro 6.2.0 by @fontawesome - https://fontawesome.com License - https://fontawesome.com/license (Commercial License) Copyright 2022 Fonticons, Inc. --><path d="M160 0C89.3 0 32 57.3 32 128l0 64v15.4l13.9 6.4 85 39.2c-3.7 6-6.9 12.4-9.6 19H83.8L55.2 257.7l-14.3-7.2L26.5 279.2l14.3 7.2 32 16 3.4 1.7H80h33c-.7 5.2-1 10.6-1 16v9.8l-21.1 7L87.4 338l-2.7 2.7-32 32L41.4 384 64 406.6l11.3-11.3L104.6 366l22.8-7.6 32.4 30.1-37 12.3-3.6 1.2-2.7 2.7-32 32L73.4 448 96 470.6l11.3-11.3L136.6 430l50-16.7 16.8 15.6-35.7 21.4-7.8 4.7V464v32 16h32V496 473.1L233.8 448H342.2L384 473.1V496v16h32V496 464v-9.1l-7.8-4.7-36.6-21.9 15.7-15.7 52 17.3 29.3 29.3L480 470.6 502.6 448l-11.3-11.3-32-32-2.7-2.7-3.6-1.2-40.4-13.5 30.7-30.7 28 9.3 29.3 29.3L512 406.6 534.6 384l-11.3-11.3-32-32-2.7-2.7-3.6-1.2-21.1-7V320c0-5.4-.3-10.8-1-16h33 3.8l3.4-1.7 32-16 14.3-7.2-14.3-28.6-14.3 7.2L492.2 272H454.7c-2.7-6.6-5.9-13-9.6-19l85-39.2 13.9-6.4V192 128C544 57.3 486.7 0 416 0H352l64 64H352c0 35.3 28.7 64 64 64h80v48.6L410.7 216c-16.9-12.2-37-20.3-58.7-23V144 128H320v16 48H256V144 128H224v16 49c-21.7 2.7-41.7 10.9-58.7 23L80 176.6V128h80c35.3 0 64-28.7 64-64H160L224 0H160z"/></svg>