<svg xmlns="http://www.w3.org/2000/svg" viewBox="0 0 512 512"><!--! Font Awesome Pro 6.2.0 by @fontawesome - https://fontawesome.com License - https://fontawesome.com/license (Commercial License) Copyright 2022 Fonticons, Inc. --><path d="M160 54.9C160 24.6 184.6 0 214.9 0H224V9.1C224 39.4 199.4 64 169.1 64H160V54.9zm192 0C352 24.6 376.6 0 406.9 0H416V9.1C416 39.4 391.4 64 361.1 64H352V54.9zM96 80c27.4 0 64 18.3 64 18.3s36.6-18.3 64-18.3c43.6 0 64 47.8 64 91.4c0 7-.4 13.9-1.2 20.6H33.2c-.8-6.7-1.2-13.5-1.2-20.6C32 127.8 52.4 80 96 80zm384 91.4c0 7-.4 13.9-1.2 20.6H319c.7-6.7 1-13.6 1-20.6c0-26.1-6-55.1-20.3-78.6c-2.7-4.4-5.7-8.7-9-12.7C317.7 81.2 352 98.3 352 98.3s36.6-18.3 64-18.3c43.6 0 64 47.8 64 91.4zM0 224H512V352H0V224zM0 384H512V512H0V384zm80-96c0-8.8-7.2-16-16-16s-16 7.2-16 16s7.2 16 16 16s16-7.2 16-16zM64 464c8.8 0 16-7.2 16-16s-7.2-16-16-16s-16 7.2-16 16s7.2 16 16 16zM464 288c0-8.8-7.2-16-16-16s-16 7.2-16 16s7.2 16 16 16s16-7.2 16-16zM448 464c8.8 0 16-7.2 16-16s-7.2-16-16-16s-16 7.2-16 16s7.2 16 16 16z"/></svg>