<svg xmlns="http://www.w3.org/2000/svg" viewBox="0 0 512 512"><!--! Font Awesome Pro 6.2.0 by @fontawesome - https://fontawesome.com License - https://fontawesome.com/license (Commercial License) Copyright 2022 Fonticons, Inc. --><path d="M509.3 48L486.6 70.6l-119 119L425.9 248l-40 40H224V126.1l40-40 58.3 58.3 119-119L464 2.7 509.3 48zM512 432c0 44.2-35.8 80-80 80s-80-35.8-80-80s35.8-80 80-80s80 35.8 80 80zM111 508.2c-21.4-4-51.4-13.1-71.9-35.2C16.9 452.4 7.8 422.4 3.8 401c-3.2-17-4-34-3.6-51.2L192 158.1V304v16h16H353.9L162.2 511.8c-17.2 .4-34.2-.4-51.2-3.6z"/></svg>