<svg xmlns="http://www.w3.org/2000/svg" viewBox="0 0 512 512"><!--! Font Awesome Pro 6.2.0 by @fontawesome - https://fontawesome.com License - https://fontawesome.com/license (Commercial License) Copyright 2022 Fonticons, Inc. --><path d="M288 0V32 42.4c93.7 13.9 167.7 88 181.6 181.6H480h32v64H480 469.6c-13.9 93.7-88 167.7-181.6 181.6V480v32H224V480 469.6C130.3 455.7 56.3 381.7 42.4 288H32 0V224H32 42.4C56.3 130.3 130.3 56.3 224 42.4V32 0h64zM107.4 288c12.5 58.3 58.4 104.1 116.6 116.6V384 352h64v32 20.6c58.3-12.5 104.1-58.4 116.6-116.6H384 352V224h32 20.6C392.1 165.7 346.3 119.9 288 107.4V128v32H224V128 107.4C165.7 119.9 119.9 165.7 107.4 224H128h32v64H128 107.4zM256 288c-17.7 0-32-14.3-32-32s14.3-32 32-32s32 14.3 32 32s-14.3 32-32 32z"/></svg>