<svg xmlns="http://www.w3.org/2000/svg" viewBox="0 0 640 512"><!--! Font Awesome Pro 6.2.0 by @fontawesome - https://fontawesome.com License - https://fontawesome.com/license (Commercial License) Copyright 2022 Fonticons, Inc. --><path d="M456 0c-48.6 0-88 39.4-88 88v29.2L.3 400l39 50.7L126.1 384H259.2l18.6 45.1 14 34 14 34 6.1 14.9h51.9l-13.6-33.1-14-34-14-34L311.1 384H352c1.1 0 2.1 0 3.2 0l46.6 113.2 6.1 14.9h51.9l-13.6-33.1-42-102C484.9 354.1 544 280 544 192V128v-8l96-24V64L592 32H523.9C507.7 12.5 483.3 0 456 0zm0 112c-13.3 0-24-10.7-24-24s10.7-24 24-24s24 10.7 24 24s-10.7 24-24 24z"/></svg>