<svg xmlns="http://www.w3.org/2000/svg" viewBox="0 0 448 512"><!--! Font Awesome Pro 6.2.0 by @fontawesome - https://fontawesome.com License - https://fontawesome.com/license (Commercial License) Copyright 2022 Fonticons, Inc. --><path d="M448 224c0 62.7-25.7 119.3-67.2 160H67.2C25.7 343.3 0 286.7 0 224C0 100.3 100.3 0 224 0S448 100.3 448 224zM177.3 110.7L160 64l-17.3 46.7L96 128l46.7 17.3L160 192l17.3-46.7L224 128l-46.7-17.3zM304 112l-25.9 70.1L208 208l70.1 25.9L304 304l25.9-70.1L400 208l-70.1-25.9L304 112zM0 512l64-96H384l64 96H0z"/></svg>