<svg xmlns="http://www.w3.org/2000/svg" viewBox="0 0 576 512"><!--! Font Awesome Pro 6.2.0 by @fontawesome - https://fontawesome.com License - https://fontawesome.com/license (Commercial License) Copyright 2022 Fonticons, Inc. --><path d="M288 4.2l8.5 3.2L424.5 56 440 61.9V78.4 204.5l120.5 45.7 15.5 5.9v16.6V426.8v15.7l-14.3 6.3L433.7 505l-9.7 4.2-9.7-4.2L288 449.5 161.7 505l-9.7 4.2-9.7-4.2-128-56.3L0 442.4V426.8 272.6 256.1l15.5-5.9L136 204.5V78.4 61.9L151.5 56l128-48.5L288 4.2zm21.6 237.6L392 210.6V121l-82.4 31.6v89.2zM288 55.6L217.3 82.4 288 109.5l70.7-27.1L288 55.6zM173.6 447.3L256 411.1V323.2l-82.4 31.6v92.5zM152 249.8L70.8 280.6 152 311.7l81.2-31.1L152 249.8zM528 411.1V323.2l-82.4 31.6v92.5L528 411.1zM505.2 280.6L424 249.8l-81.2 30.8L424 311.7l81.2-31.1z"/></svg>