<svg xmlns="http://www.w3.org/2000/svg" viewBox="0 0 384 512"><!--! Font Awesome Pro 6.2.0 by @fontawesome - https://fontawesome.com License - https://fontawesome.com/license (Commercial License) Copyright 2022 Fonticons, Inc. --><path d="M205 0l-4.4 18.5L174.9 128H32 0v64H32 352h32V128H352 224.2L243 48h37 24V0H280 224 205zM40 224L64 512H320l24-288H40zm194.4 78.9c18.7-10.1 42-17.2 72.7-20.6L303 331.2c-20.8 3.1-35.2 8.2-45.8 13.9c-17.2 9.3-26.9 21.2-39.9 37.2l-.7 .8c-13.3 16.4-29.5 35.9-58.7 50.4c-17.7 8.8-39.3 15.2-66.7 18.9l-4-47.9c22.1-3.2 37.7-8.3 49.4-14.1c19.3-9.5 30.1-22 42.8-37.6l1.9-2.3c12.3-15.2 27.4-33.8 53.1-47.7z"/></svg>