<svg xmlns="http://www.w3.org/2000/svg" viewBox="0 0 448 512"><!--! Font Awesome Pro 6.2.0 by @fontawesome - https://fontawesome.com License - https://fontawesome.com/license (Commercial License) Copyright 2022 Fonticons, Inc. --><path d="M352 128l0 .8c3.3 .5 6.6 1.4 9.9 2.4l20.5 6.8c39.2 13.1 65.6 49.8 65.6 91.1V288H0V229.2c0-41.3 26.4-78 65.6-91.1l20.5-6.8c3.2-1.1 6.5-1.9 9.9-2.4l0-.8c0-35.3 28.7-64 64-64h49.3c17 0 30.7-13.7 30.7-30.7c0-6.1-1.8-12-5.2-17L224 0c70.7 0 128 57.3 128 128zM291.9 320l-24 192H180.1l-24-192H291.9zM64 320h59.9l24 192H96L64 320zM300.1 512l24-192H384L352 512H300.1z"/></svg>