<svg xmlns="http://www.w3.org/2000/svg" viewBox="0 0 576 512"><!--! Font Awesome Pro 6.2.0 by @fontawesome - https://fontawesome.com License - https://fontawesome.com/license (Commercial License) Copyright 2022 Fonticons, Inc. --><path d="M288 0V16 40c0 13.3 10.7 24 24 24h16c13.3 0 24-10.7 24-24V16 0h32V16 40c0 8.6-1.9 16.7-5.4 24h30.6H448c13.3 0 24-10.7 24-24V16 0h32V16 40c0 21.7-12.3 40.4-30.3 49.8c.6 .5 1.1 1.1 1.7 1.6L544 160v64H448h-5.3L416 304v64V512H320V368H272l-64-27.4V344v19.9l-14.1 14.1-26.6 26.6L205.3 512H103.5L66.7 408 56.7 379.4l21.4-21.4L104.1 332 88 315.9c-3-3-5.7-6.1-8.1-9.5l-1.8 23.3-47.9-3.7 1.8-23.9L34.4 272c4.2-54.2 49.3-96 103.7-96h7.9H160h96 78.4l9.6-32H288V112l64-16H328 312c-30.9 0-56-25.1-56-56V16 0h32zM432 160c8.8 0 16-7.2 16-16s-7.2-16-16-16s-16 7.2-16 16s7.2 16 16 16z"/></svg>