<svg xmlns="http://www.w3.org/2000/svg" viewBox="0 0 640 512"><!--! Font Awesome Pro 6.2.0 by @fontawesome - https://fontawesome.com License - https://fontawesome.com/license (Commercial License) Copyright 2022 Fonticons, Inc. --><path d="M288 16V0H256V16 40c0 30.9 25.1 56 56 56h16 24l-64 16v32h56l-9.6 32H256 160 145.9h-7.9c-54.3 0-99.5 41.8-103.7 96l-2.3 30.1-1.8 23.9 47.9 3.7 1.8-23.3c2.4 3.3 5.2 6.5 8.1 9.5L104.1 332 78.1 358.1 56.7 379.4 66.7 408l36.7 104H205.3L167.3 404.6l26.6-26.6L208 363.9V344v-3.4L272 368h48V512h96V368 304l26.7-80H448h96V175.2c2.6 .5 5.3 .8 8 .8c22.1 0 40-17.9 40-40s-17.9-40-40-40c-19.6 0-35.9 14.1-39.3 32.7L475.4 91.4c-.6-.6-1.1-1.1-1.7-1.6C491.7 80.4 504 61.7 504 40V16 0H472V16 40c0 13.3-10.7 24-24 24H409.2 378.6c3.5-7.3 5.4-15.4 5.4-24V16 0H352V16 40c0 13.3-10.7 24-24 24H312c-13.3 0-24-10.7-24-24V16zM448 144c0 8.8-7.2 16-16 16s-16-7.2-16-16s7.2-16 16-16s16 7.2 16 16z"/></svg>