<svg xmlns="http://www.w3.org/2000/svg" viewBox="0 0 512 512"><!--! Font Awesome Pro 6.2.0 by @fontawesome - https://fontawesome.com License - https://fontawesome.com/license (Commercial License) Copyright 2022 Fonticons, Inc. --><path d="M512 32V224H280v64l40 0 32 0v32l-32 32-64 64-64-64-32-32V288l32 0 40 0V224H0V32H512zM64 288l64 0v32 13.3l9.4 9.4 9.4 9.4H64v64H210.7l22.6 22.6L256 461.3l22.6-22.6L301.3 416H448V352H365.3l9.4-9.4 9.4-9.4V320 288h64 64v64 64 64H448L64 480H0V416 352 288H64z"/></svg>