<svg xmlns="http://www.w3.org/2000/svg" viewBox="0 0 512 512"><!--! Font Awesome Pro 6.2.0 by @fontawesome - https://fontawesome.com License - https://fontawesome.com/license (Commercial License) Copyright 2022 Fonticons, Inc. --><path d="M33.9 416.8L256 512V446L33.9 416.8zM288 512l222.1-95.2L288 446v66zM512 328.4V143.5L427.7 194 512 328.4zM500.2 113.2L307.1 1.8 410.7 166.9l89.5-53.7zM236.9 1.8L43.8 113.2l89.5 53.7L236.9 1.8zM32 143.5V328.4L116.3 194 32 143.5zM272 6.1L165.4 176H378.6L272 6.1zm0 377.6L372.4 208H171.6L272 383.8zM404.2 216.8L292 413.2l217.5-28.6L404.2 216.8zm-264.5 0L34.5 384.6 252 413.2 139.8 216.8z"/></svg>