<svg xmlns="http://www.w3.org/2000/svg" viewBox="0 0 512 512"><!--! Font Awesome Pro 6.2.0 by @fontawesome - https://fontawesome.com License - https://fontawesome.com/license (Commercial License) Copyright 2022 Fonticons, Inc. --><path d="M324.6 0H187.4L94.8 53.4 256 111 417.2 53.4 324.6 0zM447.9 76.4L272 139.3V246.1l108.8 54.4L505.4 176 447.9 76.4zM512 214.6L398.1 328.5 344.3 500.6l99.1-57.2L512 324.6v-110zM307.2 512l57.4-183.8L256 273.9 147.3 328.2 204.8 512H307.2zM167.7 500.6L113.9 328.5 0 214.6v110L68.6 443.4l99.1 57.2zM6.6 176L131.2 300.5 240 246.1V139.3L64.1 76.4 6.6 176z"/></svg>