<svg xmlns="http://www.w3.org/2000/svg" viewBox="0 0 640 512"><!--! Font Awesome Pro 6.2.0 by @fontawesome - https://fontawesome.com License - https://fontawesome.com/license (Commercial License) Copyright 2022 Fonticons, Inc. --><path d="M208 144V113l0-.5c.3-18 14.9-32.5 33-32.5c9.5 0 18.6 4.1 24.8 11.3L312 144H240 208zm120 0l46.1-52.7C380.4 84.1 389.5 80 399 80h1c17.7 0 32 14.3 32 32l0 .5 0 .5v31H400 328zm-72 64V316.2L97.7 347.8 64 280.4V208H256zM384 316.2V208H576v72.4l-33.7 67.4L384 316.2zm0 65.3l169.7 33.9 24 4.8 10.9-21.9 48-96 3.4-6.8V288 176 144H608 480V113c0-44.7-36.3-81-81-81c-23.4 0-45.6 10.1-61 27.7L320 80.3 302 59.7C286.6 42.1 264.4 32 241 32c-44.7 0-81 36.3-81 81v31H32 0v32V288v7.6l3.4 6.8 48 96 10.9 21.9 24-4.8L256 381.4V480l64-40 64 40V381.4z"/></svg>