<svg xmlns="http://www.w3.org/2000/svg" viewBox="0 0 512 512"><!--! Font Awesome Pro 6.2.0 by @fontawesome - https://fontawesome.com License - https://fontawesome.com/license (Commercial License) Copyright 2022 Fonticons, Inc. --><path d="M287 32c-18.4 0-35.9 7.6-48.5 21.1L207 86.8c-17.8 19.1-43.3 29.3-69.4 27.9l-80.6-4.6c-11.7-.7-23.2 2.5-32.9 9.1C-.7 136.2-6.5 170.3 11.3 194.6l43.8 59.7c5.8 8 9 17.6 9 27.4c0 9-2.6 17.8-7.5 25.3L29.3 348.8c-11.8 18.1-11.8 41.4 0 59.4c11.8 18.1 33.3 27.5 54.6 23.9l71.5-12.2c4.9-.8 9.8-1.2 14.8-1.2h16.2c18 0 35.6 5.5 50.3 15.8L284.9 468c11.2 7.8 24.4 12 38.1 12c38.6 0 69.2-32.8 66.4-71.4l-2.5-33.9c-.9-12.5 5.1-24.5 15.7-31.3l85.9-54.8c14.7-9.4 23.6-25.7 23.6-43.1c0-22.3-14.4-42-35.6-48.7l-62.2-19.9c-23-7.3-40.9-25.3-48.2-48.3L350.1 78.3C341.4 50.7 315.9 32 287 32zM120 224l40-40 40 40-40 40-40-40zm128 96l40-40 40 40-40 40-40-40zm56-88l-24-24 24-24 24 24-24 24z"/></svg>