<svg xmlns="http://www.w3.org/2000/svg" viewBox="0 0 576 512"><!--! Font Awesome Pro 6.2.0 by @fontawesome - https://fontawesome.com License - https://fontawesome.com/license (Commercial License) Copyright 2022 Fonticons, Inc. --><path d="M0 0H576V416H336l10.7 32H416h32v64H416 160 128V448h32 69.3L240 416H0V0zM64 64V352H512V64H64zM249 177l-31 31 31 31 17 17L232 289.9l-17-17-48-48-17-17 17-17 48-48 17-17L265.9 160l-17 17zM361 143l48 48 17 17-17 17-48 48-17 17L310.1 256l17-17 31-31-31-31-17-17L344 126.1l17 17z"/></svg>