<svg xmlns="http://www.w3.org/2000/svg" viewBox="0 0 576 512"><!--! Font Awesome Pro 6.2.0 by @fontawesome - https://fontawesome.com License - https://fontawesome.com/license (Commercial License) Copyright 2022 Fonticons, Inc. --><path d="M176 192h80V383.3c-5.3 .5-10.6 .7-16 .7c-28.8 0-56-6.9-80-19.2V512H64V247.1c-29.1-13.6-50.5-41.4-54.8-75.1l-1-7.9-4-31.8 63.5-7.9 4 31.8 1 7.9c2 16 15.6 28 31.8 28H144h16 16zM320 364.8c-10.1 5.2-20.8 9.4-32 12.6V208.1L416 262l0 250H320V364.8zM426.7 192l-6.2 37.2L305.8 180.9 336 0h32l24 32h72l32 32h80v48c0 44.2-35.8 80-80 80H464 448 426.7zM448 96c8.8 0 16-7.2 16-16s-7.2-16-16-16s-16 7.2-16 16s7.2 16 16 16zM132.6 13L275 148.4l11.6 11-22 23.2-11.6-11L110.6 36.2 99 25.2 121 2l11.6 11z"/></svg>