<svg xmlns="http://www.w3.org/2000/svg" viewBox="0 0 576 512"><!--! Font Awesome Pro 6.2.0 by @fontawesome - https://fontawesome.com License - https://fontawesome.com/license (Commercial License) Copyright 2022 Fonticons, Inc. --><path d="M309.6 158.5L336 0h32l24 32h72l32 32h80v48c0 44.2-35.8 80-80 80H464 448 426.7l-5.1 30.5-112-64zM416 256.1L416 512H320V364.8c-24 12.3-51.2 19.2-80 19.2s-56-6.9-80-19.2V512H64V247.1c-29.1-13.6-50.5-41.4-54.8-75.1l-1-7.9-4-31.8 63.5-7.9 4 31.8 1 7.9c2 16 15.6 28 31.8 28H144h16 16H303.8L416 256.1zM464 80c0-8.8-7.2-16-16-16s-16 7.2-16 16s7.2 16 16 16s16-7.2 16-16z"/></svg>