<svg xmlns="http://www.w3.org/2000/svg" viewBox="0 0 640 512"><!--! Font Awesome Pro 6.2.0 by @fontawesome - https://fontawesome.com License - https://fontawesome.com/license (Commercial License) Copyright 2022 Fonticons, Inc. --><path d="M32 0H64h96 23.1l7.3 21.9L289.7 320c30.1 .5 56.8 14.9 74 37l202.1-67.4 30.4-10.1 20.2 60.7-30.4 10.1L384 417.7c-.9 52.2-43.5 94.3-96 94.3c-53 0-96-43-96-96c0-30.8 14.5-58.2 37-75.8L136.9 64H64 32V0zM343 79.4l19.8 60.9 60.9-19.8L403.8 59.6l76.1-24.7 69.2 213L359.2 309.6c-9.3-6.3-19.6-11.3-30.4-15L266.9 104.1 343 79.4z"/></svg>