<svg xmlns="http://www.w3.org/2000/svg" viewBox="0 0 320 512"><!--! Font Awesome Pro 6.2.0 by @fontawesome - https://fontawesome.com License - https://fontawesome.com/license (Commercial License) Copyright 2022 Fonticons, Inc. --><path d="M192 0V32 66.9c.4 .1 .9 .1 1.3 .2c11.4 1.7 46 8 58.6 11.2l31 7.9-15.7 62-31-7.9c-9.7-2.5-41.9-8.4-52.3-10l.4-2.4-.4 2.4c-10.6-1.6-20.6-2.3-29.9-2.4h-1.4c-18 .1-33.2 2.9-44.9 7.6c-16.9 6.9-24.6 16.9-26.8 28.9c-1.9 10.7-.5 16.8 1.3 20.6c1.9 4 5.6 8.5 12.9 13.4c16.2 10.8 41.1 17.9 73.3 26.7l2.8 .8 0 0c28.4 7.7 63.2 17.2 89 34.3c14.1 9.4 27.3 22.1 35.5 39.7c8.3 17.8 10.1 37.8 6.3 59.1c-6.9 38-33.1 63.4-65.6 76.7c-13.7 5.6-28.6 9.2-44.4 11V480v32H128V480 445.1c-.4-.1-.9-.1-1.3-.2l-.2 0 0 0c-21.2-3.3-55.4-14.4-77.2-21.5l0 0 0 0c-4.2-1.4-7.9-2.6-11-3.6L7.8 410.2l19.3-61 30.5 9.7c4.3 1.4 9 2.9 14 4.5l0 0 0 0c22.2 7.2 49.1 15.9 64.6 18.3c10.6 1.6 20.5 2.3 29.8 2.4h1.4c18-.1 33.2-2.9 44.9-7.6c16.9-6.9 24.6-16.9 26.8-28.9c1.9-10.7 .5-16.8-1.3-20.6c-1.9-4-5.6-8.5-12.9-13.4c-16.2-10.8-41.1-17.9-73.3-26.7l-2.8-.8c-28.4-7.7-63.2-17.2-89-34.3c-14.1-9.4-27.3-22.1-35.5-39.7c-8.3-17.8-10.1-37.8-6.3-59.1C24.9 115 51 89.6 83.6 76.4c13.7-5.6 28.6-9.2 44.4-11V32 0h64z"/></svg>