<svg xmlns="http://www.w3.org/2000/svg" viewBox="0 0 512 512"><!--! Font Awesome Pro 6.2.0 by @fontawesome - https://fontawesome.com License - https://fontawesome.com/license (Commercial License) Copyright 2022 Fonticons, Inc. --><path d="M176 0h30.5c46.1 0 89.7 10.2 128.9 28.6L464 0l16 16L427.4 94.8c52.4 55 84.6 129.4 84.6 211.3c0 94.2-79.2 169.5-173.3 164.3l-72.5-4L248 512H160l32-80-32-80h88l21.5 53.7 60-3C360 401.2 384 376 384 345.4c0-31.7-25.7-57.4-57.4-57.4H320v64H288l-80-64H192 176 32 0V256 240 221.9l15.5-9.3L42 196.7c-6.4-16.3-10-34.1-10-52.7C32 64.5 96.5 0 176 0zm0 168c13.3 0 24-10.7 24-24s-10.7-24-24-24s-24 10.7-24 24s10.7 24 24 24z"/></svg>