<svg xmlns="http://www.w3.org/2000/svg" viewBox="0 0 512 512"><!--! Font Awesome Pro 6.2.0 by @fontawesome - https://fontawesome.com License - https://fontawesome.com/license (Commercial License) Copyright 2022 Fonticons, Inc. --><path d="M288 32V0H224V32 274.7l-73.4-73.4L128 178.7 82.7 224l22.6 22.6 128 128L256 397.3l22.6-22.6 128-128L429.3 224 384 178.7l-22.6 22.6L288 274.7V32zM0 512H512V352H346.5l-45.3 45.3L256 442.5l-45.3-45.3L165.5 352H0V512zm432-56c-13.3 0-24-10.7-24-24s10.7-24 24-24s24 10.7 24 24s-10.7 24-24 24z"/></svg>