<svg xmlns="http://www.w3.org/2000/svg" viewBox="0 0 640 512"><!--! Font Awesome Pro 6.2.0 by @fontawesome - https://fontawesome.com License - https://fontawesome.com/license (Commercial License) Copyright 2022 Fonticons, Inc. --><path d="M448 160h32l32 32h96V128L512 0H416 384 288V32l48 24L288 80v32l64 16 0 120v26.6V280v13.3l9.4 9.4L448 389.3v21.5L30.6 448H0v31.6 .7V512H31.6h.7H432h64 96 48V464 368 341.4l-22.6-14.1L448 221.4V160zm64-87.7v-.6c0 .1 0 .2 0 .3s0 .2 0 .3zm-1.3 7.4C507.5 89.2 498.6 96 488 96c-13.3 0-24-10.7-24-24c0-1.3 .1-2.6 .3-3.9l46.4 11.6zM160 96L0 256l176-16L96 320H320V192L160 96z"/></svg>