<svg xmlns="http://www.w3.org/2000/svg" viewBox="0 0 640 512"><!--! Font Awesome Pro 6.2.0 by @fontawesome - https://fontawesome.com License - https://fontawesome.com/license (Commercial License) Copyright 2022 Fonticons, Inc. --><path d="M160 112V96H96v16H24 0v48H24 96v16 16 64 20.8l19 8.4 56.5 25.1-21.9 26.3-5.6 6.7V352v40 24h48V392 360.7l25.1-30.1L259 349.2l6.2 2.8H272h96 6.8l6.2-2.8 41.9-18.6L448 360.7V392v24h48V392 352v-8.7l-5.6-6.7-21.9-26.3L525 285.2l19-8.4V256 192 176 160h72 24V112H616 544V96H480v16H376 352v48h24H480v16 16 43.2l-17.8 7.9-40.6-23.7C390.7 201.5 355.7 192 320 192s-70.7 9.5-101.6 27.5l-40.6 23.7L160 235.2V192 176 160H264h24V112H264 160z"/></svg>