<svg xmlns="http://www.w3.org/2000/svg" viewBox="0 0 320 512"><!--! Font Awesome Pro 6.2.0 by @fontawesome - https://fontawesome.com License - https://fontawesome.com/license (Commercial License) Copyright 2022 Fonticons, Inc. --><path d="M160 480c88.4 0 160-75.2 160-168s-160-280-160-280S0 219.2 0 312s71.6 168 160 168zM104 288c-13.3 0-24-10.7-24-24s10.7-24 24-24s24 10.7 24 24s-10.7 24-24 24zM216 400c-13.3 0-24-10.7-24-24s10.7-24 24-24s24 10.7 24 24s-10.7 24-24 24zm14.6-128l-11.3 11.3-96 96L112 390.6 89.4 368l11.3-11.3 96-96L208 249.4 230.6 272z"/></svg>