<svg xmlns="http://www.w3.org/2000/svg" viewBox="0 0 640 512"><!--! Font Awesome Pro 6.2.0 by @fontawesome - https://fontawesome.com License - https://fontawesome.com/license (Commercial License) Copyright 2022 Fonticons, Inc. --><path d="M320 496c-97.2 0-176-78.8-176-176c0-23.9 10.7-55.5 26.8-89.5L443.5 445.4C411.7 476.7 368.1 496 320 496zM491.7 359L620.9 459.3l19 14.7-29.4 37.9-19-14.7L19 52.7 0 38 29.4 .1l19 14.7L217.6 146.2C265.9 68.5 320 0 320 0s176 222.8 176 320c0 13.4-1.5 26.4-4.3 39zM240 320V304H208v16c0 61.9 50.1 112 112 112h16V400H320c-44.2 0-80-35.8-80-80z"/></svg>