<svg xmlns="http://www.w3.org/2000/svg" viewBox="0 0 512 512"><!--! Font Awesome Pro 6.2.0 by @fontawesome - https://fontawesome.com License - https://fontawesome.com/license (Commercial License) Copyright 2022 Fonticons, Inc. --><path d="M160 176V278.5l-58.4 58.3C90.9 326.4 76.2 320 60 320c-33.1 0-60 26.9-60 60s26.9 60 60 60H72v12c0 33.1 26.9 60 60 60s60-26.9 60-60c0-16.2-6.4-30.9-16.8-41.7L233.5 352H336c15.3 0 30.1-1.9 44.3-5.6C362.7 326.6 352 300.6 352 272c0-61.9 50.1-112 112-112c17.1 0 33.4 3.9 47.9 10.7C509.1 76 431.4 0 336 0C238.8 0 160 78.8 160 176z"/></svg>