<svg xmlns="http://www.w3.org/2000/svg" viewBox="0 0 576 512"><!--! Font Awesome Pro 6.2.0 by @fontawesome - https://fontawesome.com License - https://fontawesome.com/license (Commercial License) Copyright 2022 Fonticons, Inc. --><path d="M553.2 62.9L533.2 76.1l-67.9 44.5C513.8 138.5 544 166.9 544 208v32V368c0 31.3-27.4 58.8-72 78.7V328v-9.3c-14.3 6.4-30.5 12-48 16.7v128c-33 8.9-71.1 14.5-112 16.1v-128c-7.9 .3-15.9 .5-24 .5s-16.1-.2-24-.5v128c-40.9-1.6-79-7.2-112-16.1v-128c-17.5-4.7-33.7-10.3-48-16.7V328 446.7C59.4 426.8 32 399.3 32 368V240 208C32 128 146.6 96 288 96c41 0 79.8 2.7 114.2 8.5L506.8 35.9l20.1-13.2 26.3 40.2zm-278.4 125l64.6-42.3C323.1 144.5 306 144 288 144c-68.2 0-125.4 7.9-163.6 22.7C85.6 181.8 80 197.4 80 208c0 .8 2.7 17.2 46 35.9c38.9 16.8 96 28.1 162 28.1s123.1-11.3 162-28.1c43.3-18.7 46-35.1 46-35.9c0-10.6-5.6-26.2-44.4-41.3c-11.5-4.5-24.7-8.3-39.4-11.5L301.2 228.1l-20.1 13.2-26.3-40.2 20.1-13.2z"/></svg>