<svg xmlns="http://www.w3.org/2000/svg" viewBox="0 0 448 512"><!--! Font Awesome Pro 6.2.0 by @fontawesome - https://fontawesome.com License - https://fontawesome.com/license (Commercial License) Copyright 2022 Fonticons, Inc. --><path d="M0 0H448V512H0V0zM368 304c0-79.5-64.5-144-144-144s-144 64.5-144 144s64.5 144 144 144s144-64.5 144-144zM88 112c13.3 0 24-10.7 24-24s-10.7-24-24-24S64 74.7 64 88s10.7 24 24 24zM208 88c0-13.3-10.7-24-24-24s-24 10.7-24 24s10.7 24 24 24s24-10.7 24-24zM336 304c0 61.9-50.1 112-112 112c-56.4 0-103.1-41.7-110.9-96H176h16V288H176 113.1c7.8-54.3 54.4-96 110.9-96c61.9 0 112 50.1 112 112z"/></svg>