<svg xmlns="http://www.w3.org/2000/svg" viewBox="0 0 448 512"><!--! Font Awesome Pro 6.2.0 by @fontawesome - https://fontawesome.com License - https://fontawesome.com/license (Commercial License) Copyright 2022 Fonticons, Inc. --><path d="M448 0H0V512H448V0zM224 448c-79.5 0-144-64.5-144-144s64.5-144 144-144s144 64.5 144 144s-64.5 144-144 144zM112 88c0 13.3-10.7 24-24 24s-24-10.7-24-24s10.7-24 24-24s24 10.7 24 24zm72 24c-13.3 0-24-10.7-24-24s10.7-24 24-24s24 10.7 24 24s-10.7 24-24 24zm-12.7 92.7l-22.6 22.6L177.4 256c4.2 4.2 6.6 10 6.6 16s-2.4 11.8-6.6 16l-9.4 9.4c-10.2 10.2-16 24.1-16 38.6s5.8 28.4 16 38.6l28.7 28.7 22.6-22.6L190.6 352c-4.2-4.2-6.6-10-6.6-16s2.4-11.8 6.6-16l9.4-9.4c10.2-10.2 16-24.1 16-38.6s-5.8-28.4-16-38.6l-28.7-28.7zM280 233.4l-28.7-28.7-22.6 22.6L257.4 256c4.2 4.2 6.6 10 6.6 16s-2.4 11.8-6.6 16l-9.4 9.4c-10.2 10.2-16 24.1-16 38.6s5.8 28.4 16 38.6l28.7 28.7 22.6-22.6L270.6 352c-4.2-4.2-6.6-10-6.6-16s2.4-11.8 6.6-16l9.4-9.4c10.2-10.2 16-24.1 16-38.6s-5.8-28.4-16-38.6z"/></svg>