<svg xmlns="http://www.w3.org/2000/svg" viewBox="0 0 512 512"><!--! Font Awesome Pro 6.2.0 by @fontawesome - https://fontawesome.com License - https://fontawesome.com/license (Commercial License) Copyright 2022 Fonticons, Inc. --><path d="M431.5 125.9C426.5 73.2 382 32 328 32c-57.4 0-104 46.6-104 104c0 36.8 19.1 69.2 48 87.7v4.9L64 288 32 256H0v32C0 394 86 480 192 480H312c70.7 0 128-57.3 128-128c0-36.6-15.4-69.6-40-93V224h16c53 0 96-43 96-96H448l-16.5-2.1zM368 136c0 13.3-10.7 24-24 24s-24-10.7-24-24s10.7-24 24-24s24 10.7 24 24zM308.6 295.1l31.9 1.9c-3.2 55.6-43.5 104.9-101.5 119.3c-52.4 13.1-105.3-5.8-136.4-44.5l25-20c23.2 28.9 63.3 43.6 103.7 33.5c44.7-11.2 74.9-48.9 77.3-90.1z"/></svg>