<svg xmlns="http://www.w3.org/2000/svg" viewBox="0 0 640 512"><!--! Font Awesome Pro 6.2.0 by @fontawesome - https://fontawesome.com License - https://fontawesome.com/license (Commercial License) Copyright 2022 Fonticons, Inc. --><path d="M32 32L0 160H114.9L140.5 32H32zM272 160V32H173.1L147.5 160H272zm32 0h64.8c15.8-17.2 32.5-33.2 50-48.5L402.9 32H304V160zm240-42.9c9.5 8.5 18.7 17 27.7 25.7L544 32H435.5l11.2 56 1.3-1c22.7 18.4 44.8 37.2 65.3 58.2c7.6-7.5 15.6-14.6 23.5-21.7c2.4-2.1 4.8-4.3 7.2-6.4zm-256 203c0-47.2 24.9-91 53.7-128.2H32l4 32H0v64H44L64 448v32h64V448H336.8C306.4 414.1 288 369.3 288 320.2zm225-128c-32.3-37.5-65-64-65-64s-128 103.6-128 192s71.6 160 160 160s160-71.6 160-160c0-73.6-96-160-96-160s-13.9 12.5-31 32zM530 401c-15 10-31 15-49 15c-45 0-81-29-81-78c0-24 15-45 45-82c4 5 62 79 62 79l36-42c3 4 5 8 7 12c18 33 10 75-20 96z"/></svg>