<svg xmlns="http://www.w3.org/2000/svg" viewBox="0 0 640 512"><!--! Font Awesome Pro 6.2.0 by @fontawesome - https://fontawesome.com License - https://fontawesome.com/license (Commercial License) Copyright 2022 Fonticons, Inc. --><path d="M96 0h32H512h32V32 208c-3.4 0-6.7 .2-9.9 .7C521.6 198.3 505.5 192 488 192c-2.7 0-5.4 .1-8 .4V64H160V192.4c-2.6-.3-5.3-.4-8-.4c-17.5 0-33.6 6.3-46.1 16.7c-3.2-.4-6.6-.7-9.9-.7V32 0zM527.8 243.4c5-2.2 10.5-3.4 16.2-3.4c16.5 0 30.6 9.9 36.7 24.1c1.1-.1 2.2-.1 3.3-.1c22.1 0 40 17.9 40 40c0 2.6-.2 5.1-.7 7.5c10.1 7.3 16.7 19.1 16.7 32.5c0 9-3 17.3-8 24c5 6.7 8 15 8 24c0 13.4-6.6 25.3-16.7 32.5c.5 2.4 .7 4.9 .7 7.5c0 22.1-17.9 40-40 40c-1.1 0-2.2 0-3.3-.1C574.6 486.1 560.5 496 544 496c-7.5 0-14.5-2.1-20.5-5.6C516.9 503.2 503.5 512 488 512c-22.1 0-40-17.9-40-40c0-10.9 4.4-20.8 11.4-28c-7.1-7.2-11.4-17.1-11.4-28c0-9 3-17.3 8-24c-5-6.7-8-15-8-24s3-17.3 8-24c-5-6.7-8-15-8-24c0-10.9 4.4-20.8 11.4-28c-7.1-7.2-11.4-17.1-11.4-28c0-19.4 13.7-35.5 32-39.2c2.6-.5 5.3-.8 8-.8c13.8 0 25.9 6.9 33.1 17.5c.9 1.3 1.7 2.7 2.4 4.1c1.4-.8 2.8-1.5 4.2-2.2zM152 224c2.7 0 5.4 .3 8 .8c18.3 3.7 32 19.8 32 39.2c0 10.9-4.4 20.8-11.4 28c7.1 7.2 11.4 17.1 11.4 28c0 9-3 17.3-8 24c5 6.7 8 15 8 24s-3 17.3-8 24c5 6.7 8 15 8 24c0 10.9-4.4 20.8-11.4 28c7.1 7.2 11.4 17.1 11.4 28c0 22.1-17.9 40-40 40c-15.5 0-28.9-8.8-35.5-21.6c-6 3.6-13 5.6-20.5 5.6c-16.5 0-30.6-9.9-36.7-24.1c-1.1 .1-2.2 .1-3.3 .1c-22.1 0-40-17.9-40-40c0-2.6 .2-5.1 .7-7.5C6.6 417.3 0 405.4 0 392c0-9 3-17.3 8-24c-5-6.7-8-15-8-24c0-13.4 6.6-25.3 16.7-32.5c-.5-2.4-.7-4.9-.7-7.5c0-22.1 17.9-40 40-40c1.1 0 2.2 0 3.3 .1C65.4 249.9 79.5 240 96 240c5.8 0 11.3 1.2 16.2 3.4c1.5 .6 2.9 1.4 4.2 2.2c.6-1.1 1.2-2.2 1.9-3.2c.2-.3 .4-.6 .6-.9c7.2-10.6 19.3-17.5 33.1-17.5z"/></svg>