<svg xmlns="http://www.w3.org/2000/svg" viewBox="0 0 512 512"><!--! Font Awesome Pro 6.2.0 by @fontawesome - https://fontawesome.com License - https://fontawesome.com/license (Commercial License) Copyright 2022 Fonticons, Inc. --><path d="M509.3 48L486.6 70.6l-24 24L440 117.3 394.7 72l22.6-22.6 24-24L464 2.7 509.3 48zm-304 304l-22.6 22.6-112 112L48 509.3 2.7 464l22.6-22.6 112-112L160 306.7 205.3 352zM240 128c-61.9 0-112 50.1-112 112H64c0-97.2 78.8-176 176-176s176 78.8 176 176c0 54.7-25 103.5-64 135.8V400c0 61.9-50.1 112-112 112H208V448h32c26.5 0 48-21.5 48-48V359.8 342.7l14.2-9.5C332.3 313 352 278.8 352 240c0-61.9-50.1-112-112-112zM208 240H160c0-44.2 35.8-80 80-80s80 35.8 80 80H272c0-17.7-14.3-32-32-32s-32 14.3-32 32z"/></svg>