<svg xmlns="http://www.w3.org/2000/svg" viewBox="0 0 512 512"><!--! Font Awesome Pro 6.2.0 by @fontawesome - https://fontawesome.com License - https://fontawesome.com/license (Commercial License) Copyright 2022 Fonticons, Inc. --><path d="M455.5 48.3C483.5 78.6 512 126 512 192H448c0-46-19.5-78.6-39.5-100.3c-10.1-10.9-20.2-18.9-27.7-24.2c-3.7-2.6-6.8-4.5-8.7-5.6c-1-.6-1.7-1-2.1-1.2l-.3-.2 .1 0 0 0 0 0c0 0 0 0 14.3-28.6S398.3 3.4 398.3 3.4l0 0 .1 0 .2 .1 .4 .2c.3 .2 .7 .4 1.2 .7c1 .5 2.3 1.3 4 2.2c3.3 1.9 7.7 4.7 13 8.3c10.5 7.3 24.4 18.3 38.3 33.3zM160 384c-17.7 0-32-14.3-32-32s14.3-32 32-32s32 14.3 32 32s-14.3 32-32 32zM32 512c-17.7 0-32-14.3-32-32s14.3-32 32-32s32 14.3 32 32s-14.3 32-32 32zM86.6 361.4l64 64L173.3 448 128 493.3l-22.6-22.6-64-64L18.7 384 64 338.7l22.6 22.6zM240 128c-61.9 0-112 50.1-112 112H64c0-97.2 78.8-176 176-176s176 78.8 176 176c0 54.7-25 103.5-64 135.8V400c0 61.9-50.1 112-112 112H208V448h32c26.5 0 48-21.5 48-48V359.8 342.7l14.2-9.5C332.3 313 352 278.8 352 240c0-61.9-50.1-112-112-112zM208 240H160c0-44.2 35.8-80 80-80s80 35.8 80 80H272c0-17.7-14.3-32-32-32s-32 14.3-32 32z"/></svg>