<svg xmlns="http://www.w3.org/2000/svg" viewBox="0 0 384 512"><!--! Font Awesome Pro 6.2.0 by @fontawesome - https://fontawesome.com License - https://fontawesome.com/license (Commercial License) Copyright 2022 Fonticons, Inc. --><path d="M384 192c0 71.2-38.7 133.3-96.3 166.5c.2 3.1 .3 6.3 .3 9.5c0 79.5-64.5 144-144 144S0 447.5 0 368V192C0 86 86 0 192 0S384 86 384 192zm-256 0c0-35.3 28.7-64 64-64s64 28.7 64 64v8 24h48V200v-8c0-61.9-50.1-112-112-112S80 130.1 80 192v40 14.8l13.3 6.6L128 270.8v5.9L88.6 309.6 70.2 324.9l30.7 36.9 18.4-15.4 48-40 8.6-7.2V288 256 241.2l-13.3-6.6L128 217.2V192z"/></svg>