<svg xmlns="http://www.w3.org/2000/svg" viewBox="0 0 512 512"><!--! Font Awesome Pro 6.2.0 by @fontawesome - https://fontawesome.com License - https://fontawesome.com/license (Commercial License) Copyright 2022 Fonticons, Inc. --><path d="M55.7 199.7L96 240h48l48 48v64l32 32v64h64V400l64-64V256H224l-32-32V192h80V160l-32-32V112l32-32V48.6c-5.3-.4-10.6-.6-16-.6C160.6 48 80.3 112.2 55.7 199.7zM464 256c0-36.9-9.6-71.5-26.4-101.6L400 192v80h63.4c.4-5.3 .6-10.6 .6-16zm48 0c0 141.4-114.6 256-256 256S0 397.4 0 256S114.6 0 256 0S512 114.6 512 256z"/></svg>