<svg xmlns="http://www.w3.org/2000/svg" viewBox="0 0 512 512"><!--! Font Awesome Pro 6.2.0 by @fontawesome - https://fontawesome.com License - https://fontawesome.com/license (Commercial License) Copyright 2022 Fonticons, Inc. --><path d="M256 512c141.4 0 256-114.6 256-256S397.4 0 256 0S0 114.6 0 256S114.6 512 256 512zM411.3 379.3l-32 32L368 422.6 345.4 400l11.3-11.3 32-32L400 345.4 422.6 368l-11.3 11.3zM288 416v32H224V416h64zM448 256v64H416V256h32zM192 160V128h96v64H224l-32-32zM96 352V288l64-64h32v32h32V224h32l64 64v96H224l-32-32H96z"/></svg>