<svg xmlns="http://www.w3.org/2000/svg" viewBox="0 0 512 512"><!--! Font Awesome Pro 6.2.0 by @fontawesome - https://fontawesome.com License - https://fontawesome.com/license (Commercial License) Copyright 2022 Fonticons, Inc. --><path d="M50.4 288H128l32 32h64V224h48V144l32-32V53.6c-15.4-3.6-31.5-5.6-48-5.6C141.1 48 48 141.1 48 256c0 10.9 .8 21.6 2.4 32zM454 320H416V288H352l-64 64v64h64l15.6 15.6C408 405.8 439 366.5 454 320zm58-64c0 141.4-114.6 256-256 256S0 397.4 0 256S114.6 0 256 0S512 114.6 512 256zM128 352v32h64V352H128zm160-96H256v64h32V256zm32-128v64h32V128H320z"/></svg>