<svg xmlns="http://www.w3.org/2000/svg" viewBox="0 0 640 512"><!--! Font Awesome Pro 6.2.0 by @fontawesome - https://fontawesome.com License - https://fontawesome.com/license (Commercial License) Copyright 2022 Fonticons, Inc. --><path d="M256 73.1L150 0 126.7 126.7 0 150 73.1 256 0 362l126.7 23.3L150 512l106-73.1L362 512l12.5-68.2c-31.6-15.1-58.8-37.9-79.2-66c-12.4 4-25.6 6.2-39.4 6.2c-70.7 0-128-57.3-128-128s57.3-128 128-128c13.7 0 27 2.2 39.4 6.2c20.3-28.1 47.6-50.9 79.2-66L362 0 256 73.1zM256 256c0-33.6 8-65.3 22.1-93.4c-7.1-1.7-14.5-2.6-22.1-2.6c-53 0-96 43-96 96s43 96 96 96c7.6 0 15-.9 22.1-2.6C264 321.3 256 289.6 256 256zM464 432c97.2 0 176-78.8 176-176s-78.8-176-176-176s-176 78.8-176 176s78.8 176 176 176z"/></svg>