<svg xmlns="http://www.w3.org/2000/svg" viewBox="0 0 512 512"><!--! Font Awesome Pro 6.2.0 by @fontawesome - https://fontawesome.com License - https://fontawesome.com/license (Commercial License) Copyright 2022 Fonticons, Inc. --><path d="M480 65.9l31.4-31.4L477.4 .6 446.1 32H288l16 48 48 16 16 48 48 16 16 48 48 16V65.9zM271 82.3c-30.1 22.4-65.7 39.7-101.2 56.9C83.4 181.3-1.6 222.5 0 336c1.4 95.3 79.8 175.9 176.4 176c130.5 .1 227.9-140.1 276.4-263.4l-30.9-10.3-15.2-5.1-5.1-15.2-10.9-32.8-32.8-10.9-15.2-5.1-5.1-15.2-10.9-32.8-32.8-10.9-15.2-5.1-5.1-15.2L271 82.3z"/></svg>