<svg xmlns="http://www.w3.org/2000/svg" viewBox="0 0 512 512"><!--! Font Awesome Pro 6.2.0 by @fontawesome - https://fontawesome.com License - https://fontawesome.com/license (Commercial License) Copyright 2022 Fonticons, Inc. --><path d="M64 80V96H224V80L144 0 64 80zm448 48H0V512H512V128zM160 320c-26.5 0-48-21.5-48-48s21.5-48 48-48s48 21.5 48 48s-21.5 48-48 48zM80 448l24-96H216l24 96H80zm328-96l24 96H272l24-96H408zm-8-80c0 26.5-21.5 48-48 48s-48-21.5-48-48s21.5-48 48-48s48 21.5 48 48zM368 96l80-80V0H288V16l80 80z"/></svg>