<svg xmlns="http://www.w3.org/2000/svg" viewBox="0 0 640 512"><!--! Font Awesome Pro 6.2.0 by @fontawesome - https://fontawesome.com License - https://fontawesome.com/license (Commercial License) Copyright 2022 Fonticons, Inc. --><path d="M0 64v80L256 320l78.4-53.9c26.1-60.2 84.9-103 154.1-105.9L512 144V64H0zM274.1 346.4L256 358.8l-18.1-12.5L0 182.8V448H360.2C335.1 417.6 320 378.5 320 336c0-7.5 .5-14.9 1.4-22.1l-47.2 32.5zM640 336c0-79.5-64.5-144-144-144s-144 64.5-144 144s64.5 144 144 144s144-64.5 144-144zm-65.4-32l-11.3 11.3-72 72L480 398.6l-11.3-11.3-40-40L417.4 336 440 313.4l11.3 11.3L480 353.4l60.7-60.7L552 281.4 574.6 304z"/></svg>