<svg xmlns="http://www.w3.org/2000/svg" viewBox="0 0 512 512"><!--! Font Awesome Pro 6.2.0 by @fontawesome - https://fontawesome.com License - https://fontawesome.com/license (Commercial License) Copyright 2022 Fonticons, Inc. --><path d="M512 448v64H448 64 0V448 244.8l4.1 2.9L246.7 421l9.3 6.6 9.3-6.6L507.9 247.7l4.1-2.9V448zm0-256v13.5l-22.7 16.2L416 274.1V200 144 120 96H384 368 277.3 234.7 144 128 96v24 24 56 74.1L22.7 221.7 0 205.5V192l48-36V96 48H96h96L256 0l64 48h96 48V96v60l48 36zM176 160H336h16v32H336 176 160V160h16zm0 64H336h16v32H336 176 160V224h16z"/></svg>