<svg xmlns="http://www.w3.org/2000/svg" viewBox="0 0 512 512"><!--! Font Awesome Pro 6.2.0 by @fontawesome - https://fontawesome.com License - https://fontawesome.com/license (Commercial License) Copyright 2022 Fonticons, Inc. --><path d="M512 448v64H448 64 0V448 244.8l4.1 2.9L246.7 421l9.3 6.6 9.3-6.6L507.9 247.7l4.1-2.9V448zm0-256v13.5l-22.7 16.2L416 274.1V200 144 120 96H384 368 277.3 234.7 144 128 96v24 24 56 74.1L22.7 221.7 0 205.5V192l48-36V96 48H96h96L256 0l64 48h96 48V96v60l48 36zM276 144v6.3c6.6 1.2 16.7 3.2 21.1 4.4l19.3 5.1-10.3 38.7-19.3-5.1c-3.8-1-17.4-3.7-21.7-4.3c-12.2-1.9-22.2-.3-28.6 2.6c-6.3 2.9-7.9 6.2-8.2 8.1c-.6 3.4 0 4.7 .1 5c.3 .5 1 1.8 3.6 3.5c6.1 4.2 15.7 7.2 29.9 11.4l.8 .2 0 0 0 0c12.1 3.7 28.3 8.5 40.4 17.4c6.7 4.9 13 11.4 16.9 20.5c4 9.1 4.8 19.1 3 29.4c-3.3 19-15.9 32-31.6 38.7c-4.9 2.1-10.1 3.6-15.4 4.6V336v20H236V336v-6.4c-9.5-2.2-22-6.4-29.9-9.1l0 0c-1.7-.6-3.2-1.1-4.4-1.5l-19-6.3 12.6-38 19 6.3c2 .7 4.2 1.4 6.4 2.1c9.5 3.2 20.2 6.9 26.2 7.9c12.8 2 22.7 .7 28.8-1.9c5.5-2.3 7.4-5.3 8-8.8c.7-4 .1-5.9-.2-6.7c-.4-.9-1.3-2.2-3.8-4c-5.9-4.3-15.3-7.5-29.3-11.7l-2.2-.7c-11.7-3.5-27-8.1-38.6-16c-6.6-4.5-13.2-10.7-17.3-19.5c-4.2-9-5.2-18.8-3.4-29c3.2-18.3 16.2-30.9 31.1-37.7c5-2.3 10.4-4 16-5.1v-6V124h40v20z"/></svg>