<svg xmlns="http://www.w3.org/2000/svg" viewBox="0 0 512 512"><!--! Font Awesome Pro 6.2.0 by @fontawesome - https://fontawesome.com License - https://fontawesome.com/license (Commercial License) Copyright 2022 Fonticons, Inc. --><path d="M240.1 130.8L341.6 29.2c39-39 102.2-39 141.1 0s39 102.2 0 141.1L381.2 271.9l9.4 9.4L413.3 304 368 349.3l-22.6-22.6-160-160L162.7 144 208 98.7l22.6 22.6 9.4 9.4zm-65.3 70.5L220 246.5 146.5 320h91l28-28 45.3 45.3L168 480H80l-12.3 9.9L45 508l-5 4L0 472l4-5 18.1-22.7L32 432V344L174.7 201.3z"/></svg>