<svg xmlns="http://www.w3.org/2000/svg" viewBox="0 0 512 512"><!--! Font Awesome Pro 6.2.0 by @fontawesome - https://fontawesome.com License - https://fontawesome.com/license (Commercial License) Copyright 2022 Fonticons, Inc. --><path d="M0 256C0 357.2 58.7 444.7 144 486.3V432 376 352 320h32 24V275.9c-14.8-6.9-26.6-15.9-35.3-24.6L153.4 240 176 217.4l11.3 11.3c3.5 3.5 7.7 7.1 12.7 10.5V224 192h32 48 32v32 15.2c4.9-3.4 9.2-7 12.7-10.5L336 217.4 358.6 240l-11.3 11.3c-8.7 8.7-20.5 17.7-35.3 24.6V320h8 32v32 10.1l.8-1 24.6 20.5 36.9 30.7 24.6 20.5-10 12C480 398 512 330.7 512 256C512 114.6 397.4 0 256 0S0 114.6 0 256zm176.4-96c-17.7 0-32-14.3-32-32s14.3-32 32-32s32 14.3 32 32s-14.3 32-32 32zm192-32c0 17.7-14.3 32-32 32s-32-14.3-32-32s14.3-32 32-32s32 14.3 32 32zM280 248V224H232v24 72h48V248zM200 352H176v24 56 56 24h24 80 40 11.2l7.2-8.6 40-48 15.4-18.4-36.9-30.7-15.4 18.4L308.8 464H287.6L224 419.5V400h24 24v32h48V376 352H296 248 200z"/></svg>