<svg xmlns="http://www.w3.org/2000/svg" viewBox="0 0 512 512"><!--! Font Awesome Pro 6.2.0 by @fontawesome - https://fontawesome.com License - https://fontawesome.com/license (Commercial License) Copyright 2022 Fonticons, Inc. --><path d="M256 512c141.4 0 256-114.6 256-256S397.4 0 256 0S0 114.6 0 256S114.6 512 256 512zM208 384h96 16v32H304 208 192V384h16zM72.8 193.7l22.9-11.4c14.5-7.2 27.2-17.6 37.4-30.2l14.4-18 25 20-14.4 18c-13 16.3-29.4 29.5-48 38.8L87.2 222.3 72.8 193.7zm236 72.7c21.6 28.8 64.8 28.8 86.4 0l25.6 19.2c-34.4 45.9-103.2 45.9-137.6 0l25.6-19.2zm-105.6 0l25.6 19.2c-34.4 45.9-103.2 45.9-137.6 0l25.6-19.2c21.6 28.8 64.8 28.8 86.4 0zm213.1-84.1l22.9 11.4-14.3 28.6L402 210.9c-18.6-9.3-35-22.6-48.1-38.8l-14.4-18 25-20 14.4 18c10.1 12.7 22.9 23 37.4 30.2z"/></svg>