<svg xmlns="http://www.w3.org/2000/svg" viewBox="0 0 576 512"><!--! Font Awesome Pro 6.2.0 by @fontawesome - https://fontawesome.com License - https://fontawesome.com/license (Commercial License) Copyright 2022 Fonticons, Inc. --><path d="M424.5 472.6C385 497.6 338.2 512 288 512C146.6 512 32 397.4 32 256S146.6 0 288 0S544 114.6 544 256c0 34.9-7 68.1-19.6 98.4l-62.1-31-20.6-10.3-16.3 16.3-32 32-16.3 16.3 10.3 20.6 37.1 74.3zM240.4 208c0-17.7-14.3-32-32-32s-32 14.3-32 32s14.3 32 32 32s32-14.3 32-32zm128 32c17.7 0 32-14.3 32-32s-14.3-32-32-32s-32 14.3-32 32s14.3 32 32 32zM176 320H144v16 32 16h32V368 336 320zm64 0H208v16 32 16h32V368 336 320zm64 0H272v16 32 16h32V368 336 320zm64 0H336v16 32 16h32V368 336 320zM480 512L416 384l32-32 128 64-96 96zm41-88l-17-17-8.5 8.5-16 16L471 440l17 17 8.5-8.5 16-16L521 424z"/></svg>