<svg xmlns="http://www.w3.org/2000/svg" viewBox="0 0 512 512"><!--! Font Awesome Pro 6.2.0 by @fontawesome - https://fontawesome.com License - https://fontawesome.com/license (Commercial License) Copyright 2022 Fonticons, Inc. --><path d="M384.1 477.7C506.5 407 548.5 250.4 477.8 128S250.5-36.4 128.1 34.3S-36.3 261.6 34.4 384c36.2 62.7 94.9 104.3 160.1 120.5c-11.5-15.8-18.4-35.4-18.4-56.5V403.5c-16-10.5-30.2-24-41.9-40.2L409.9 204.1c29.4 65.1 11.7 141.7-41.9 187.4V448c0 15.4-3.6 30-10.1 42.9c8.8-3.8 17.5-8.2 26.1-13.2zM128 288c-35.3 0-64-28.7-64-64s28.7-64 64-64s64 28.7 64 64s-28.7 64-64 64zM384 152c0 39.8-32.2 72-72 72s-72-32.2-72-72s32.2-72 72-72s72 32.2 72 72zM336 448V384H288v24H256V384H208v64c0 35.3 28.7 64 64 64s64-28.7 64-64zM152 224c0-13.3-10.7-24-24-24s-24 10.7-24 24s10.7 24 24 24s24-10.7 24-24zm144-56c17.7 0 32-14.3 32-32s-14.3-32-32-32s-32 14.3-32 32s14.3 32 32 32z"/></svg>