<svg xmlns="http://www.w3.org/2000/svg" viewBox="0 0 512 512"><!--! Font Awesome Pro 6.2.0 by @fontawesome - https://fontawesome.com License - https://fontawesome.com/license (Commercial License) Copyright 2022 Fonticons, Inc. --><path d="M509.8 222L384 279.2V256H128v23.2L2.2 222C18.9 96.7 126.1 0 256 0S493.1 96.7 509.8 222zm2.2 34.1c0 46.6-12.5 90.3-34.2 127.9H384V314.3l128-58.2zM455.9 416c-46.9 58.5-119 96-199.9 96s-152.9-37.5-199.9-96H128v32H384V416h71.9zM34.2 384C12.5 346.4 0 302.7 0 256.1l128 58.2V384H34.2zM208 176h16V144H208c-55.4 0-93.6 23-107.3 36.7l22.6 22.6C130.9 195.7 161 176 208 176zm80-32v32h16c47 0 77.1 19.7 84.7 27.3l22.6-22.6C397.6 167 359.4 144 304 144H288zM176 304H336h16v32H336 176 160V304h16zm0 64H336h16v32H336 176 160V368h16z"/></svg>