<svg xmlns="http://www.w3.org/2000/svg" viewBox="0 0 640 512"><!--! Font Awesome Pro 6.2.0 by @fontawesome - https://fontawesome.com License - https://fontawesome.com/license (Commercial License) Copyright 2022 Fonticons, Inc. --><path d="M128 0C104.3 0 83.6 12.9 72.6 32H64C28.7 32 0 60.7 0 96v64H224h32 32V128 96c0-35.3-28.7-64-64-64H183.4C172.4 12.9 151.7 0 128 0zM320 192H288 268.1c2.7 4.7 4.3 10.2 4.3 16c0 17.7-14.3 32-32 32s-32-14.3-32-32c0-5.8 1.6-11.3 4.3-16H72.1c-5.3 20.5-8.1 41.9-8.1 64c0 107.4 66.2 199.4 160 237.4V464c0-54.7 34.3-101.3 82.5-119.7C317.4 293.8 362.3 256 416 256c29.1 0 55.6 11.1 75.5 29.2c8.9-3.4 18.5-5.2 28.5-5.2c20 0 38.3 7.3 52.3 19.5c2.4-14.1 3.7-28.7 3.7-43.5C576 114.6 461.4 0 320 0c-20.6 0-40.7 2.4-59.9 7C295.2 21.3 320 55.8 320 96v64 32zm16 177.3c-41.2 6.9-73.6 40.1-79.2 81.8c-.6 4.2-.9 8.5-.9 12.9v16 23.9V512h64H640V464c0-44.7-30.6-82.3-72-93V360c0-26.5-21.5-48-48-48c-13.9 0-26.4 5.9-35.1 15.3C470.9 303.8 445.3 288 416 288c-44.2 0-80 35.8-80 80c0 .4 0 .9 0 1.3zM400.4 240c-17.7 0-32-14.3-32-32s14.3-32 32-32s32 14.3 32 32s-14.3 32-32 32z"/></svg>