<svg xmlns="http://www.w3.org/2000/svg" viewBox="0 0 512 512"><!--! Font Awesome Pro 6.2.0 by @fontawesome - https://fontawesome.com License - https://fontawesome.com/license (Commercial License) Copyright 2022 Fonticons, Inc. --><path d="M512 256c0 141.4-114.6 256-256 256S0 397.4 0 256S114.6 0 256 0S512 114.6 512 256zM320 352c0-35.3-28.7-64-64-64s-64 28.7-64 64s28.7 64 64 64s64-28.7 64-64zM123.3 132.7L112 121.4 89.4 144l11.3 11.3L137.4 192l-36.7 36.7L89.4 240 112 262.6l11.3-11.3L160 214.6l36.7 36.7L208 262.6 230.6 240l-11.3-11.3L182.6 192l36.7-36.7L230.6 144 208 121.4l-11.3 11.3L160 169.4l-36.7-36.7zm192 0L304 121.4 281.4 144l11.3 11.3L329.4 192l-36.7 36.7L281.4 240 304 262.6l11.3-11.3L352 214.6l36.7 36.7L400 262.6 422.6 240l-11.3-11.3L374.6 192l36.7-36.7L422.6 144 400 121.4l-11.3 11.3L352 169.4l-36.7-36.7z"/></svg>