<svg xmlns="http://www.w3.org/2000/svg" viewBox="0 0 512 512"><!--! Font Awesome Pro 6.2.0 by @fontawesome - https://fontawesome.com License - https://fontawesome.com/license (Commercial License) Copyright 2022 Fonticons, Inc. --><path d="M256 512c141.4 0 256-114.6 256-256S397.4 0 256 0S0 114.6 0 256S114.6 512 256 512zM400 400H344V360l56 0v40zm0-56l-56 0V304h56v40zm-72 0H264V304h64v40zm0 56H264V360h64v40zm-80-96v40l-64 0V304h64zm0 56v40H184V360l64 0zm-80-16H112V304h56v40zm0 56H112V360h56v40zm40.4-192c0 17.7-14.3 32-32 32s-32-14.3-32-32s14.3-32 32-32s32 14.3 32 32zm128 32c-17.7 0-32-14.3-32-32s14.3-32 32-32s32 14.3 32 32s-14.3 32-32 32z"/></svg>