<svg xmlns="http://www.w3.org/2000/svg" viewBox="0 0 512 512"><!--! Font Awesome Pro 6.2.0 by @fontawesome - https://fontawesome.com License - https://fontawesome.com/license (Commercial License) Copyright 2022 Fonticons, Inc. --><path d="M256 512c141.4 0 256-114.6 256-256S397.4 0 256 0S0 114.6 0 256S114.6 512 256 512zM176.4 256c-17.7 0-32-14.3-32-32s14.3-32 32-32s32 14.3 32 32s-14.3 32-32 32zm192-32c0 17.7-14.3 32-32 32s-32-14.3-32-32s14.3-32 32-32s32 14.3 32 32zM256 320c44.2 0 80 35.8 80 80v16H176V400c0-44.2 35.8-80 80-80zM192 128c-4.4 0-8.8 .3-13 .9c-21.2 2.8-40.6 12.4-56.1 26.8l-11.7 10.9L89.4 143.2l11.7-10.9c20.1-18.7 45.5-31.5 73.7-35.2c5.6-.7 11.4-1.1 17.2-1.1h16v32H192zm141 .9c-4.3-.6-8.6-.9-13-.9H304V96h16c5.8 0 11.6 .4 17.2 1.1c28.2 3.7 53.7 16.4 73.7 35.2l11.7 10.9-21.8 23.4-11.7-10.9c-15.5-14.5-34.8-24-56.1-26.8z"/></svg>