<svg xmlns="http://www.w3.org/2000/svg" viewBox="0 0 512 512"><!--! Font Awesome Pro 6.2.0 by @fontawesome - https://fontawesome.com License - https://fontawesome.com/license (Commercial License) Copyright 2022 Fonticons, Inc. --><path d="M256 512c141.4 0 256-114.6 256-256S397.4 0 256 0S0 114.6 0 256S114.6 512 256 512zm-.4-128c-38.7 0-74.5 11.4-103.6 30.6c4.7-53 49.3-94.6 103.6-94.6s98.8 41.6 103.6 94.6C330.1 395.4 294.3 384 255.6 384zM208.4 272c0 17.7-14.3 32-32 32s-32-14.3-32-32s14.3-32 32-32s32 14.3 32 32zm128 32c-17.7 0-32-14.3-32-32s14.3-32 32-32s32 14.3 32 32s-14.3 32-32 32zM192 160c-4.4 0-8.8 .3-13 .9c-21.2 2.8-40.6 12.4-56.1 26.8l-11.7 10.9L89.4 175.2l11.7-10.9c20.1-18.7 45.5-31.5 73.7-35.2c5.6-.7 11.4-1.1 17.2-1.1h16v32H192zm141 .9c-4.3-.6-8.6-.9-13-.9H304V128h16c5.8 0 11.6 .4 17.2 1.1c28.2 3.7 53.7 16.4 73.7 35.2l11.7 10.9-21.8 23.4-11.7-10.9c-15.5-14.5-34.8-24-56.1-26.8z"/></svg>