<svg xmlns="http://www.w3.org/2000/svg" viewBox="0 0 512 512"><!--! Font Awesome Pro 6.2.0 by @fontawesome - https://fontawesome.com License - https://fontawesome.com/license (Commercial License) Copyright 2022 Fonticons, Inc. --><path d="M256 512c141.4 0 256-114.6 256-256S397.4 0 256 0S0 114.6 0 256S114.6 512 256 512zm.3-180.2c59.1 0 114.1-10.6 160.2-29C400.3 376.7 334.7 432 256.3 432s-144-55.3-160.2-129.2c46.2 18.3 101.2 29 160.2 29zm122.9-94.2c-21.6-28.8-64.8-28.8-86.4 0l-25.6-19.2c34.4-45.9 103.2-45.9 137.6 0l-25.6 19.2zM176.4 240c-17.7 0-32-14.3-32-32s14.3-32 32-32s32 14.3 32 32s-14.3 32-32 32z"/></svg>