<svg xmlns="http://www.w3.org/2000/svg" viewBox="0 0 512 512"><!--! Font Awesome Pro 6.2.0 by @fontawesome - https://fontawesome.com License - https://fontawesome.com/license (Commercial License) Copyright 2022 Fonticons, Inc. --><path d="M512 256c0 10.7-.7 21.3-1.9 31.6L495.9 450.8 490.6 512H437.4l-5.3-61.2-.7-8.3c-7.5 7-15.4 13.6-23.7 19.8l-6.4 14.6L385.9 512H358.1l-7.8-17.9c-29.2 11.6-61 17.9-94.2 17.9c-66.4 0-126.9-25.3-172.4-66.8l-.5 2.8H28.9l-4.5-26.7L6.5 313.4C2.2 294.9 0 275.7 0 256C0 114.6 114.6 0 256 0S512 114.6 512 256zM56 415.8l0 .2 0-.2L80 272H32L56 415.8zM344 400l28 64 28-64V360l-56 0v40zm56-56V304H344v40l56 0zm-72 0V304H264v40h64zm0 56V360H264v40l32 48 32-48zm-80-96H184v40l64 0V304zm0 56l-64 0v40h64V360zm-80-16V304H112v40h56zm0 56V360H112v40h56zm40.4-192c0-17.7-14.3-32-32-32s-32 14.3-32 32s14.3 32 32 32s32-14.3 32-32zm128 32c17.7 0 32-14.3 32-32s-14.3-32-32-32s-32 14.3-32 32s14.3 32 32 32zM488 224H440l24 224 24-224z"/></svg>