<svg xmlns="http://www.w3.org/2000/svg" viewBox="0 0 512 512"><!--! Font Awesome Pro 6.2.0 by @fontawesome - https://fontawesome.com License - https://fontawesome.com/license (Commercial License) Copyright 2022 Fonticons, Inc. --><path d="M0 256C0 397.4 114.6 512 256 512s256-114.6 256-256S397.4 0 256 0S0 114.6 0 256zm240 64h16c45 0 85.6 20.5 115.7 53.1l10.9 11.7-23.5 21.7-10.9-11.8c-25-27.1-57.4-42.9-92.3-42.9H240V320zm-80-32l38.4 51.2c6.2 8.3 9.6 18.4 9.6 28.8c0 26.5-21.5 48-48 48s-48-21.5-48-48c0-10.4 3.4-20.5 9.6-28.8L160 288zm143.6-80c0-17.7 14.3-32 32-32s32 14.3 32 32s-14.3 32-32 32s-32-14.3-32-32zm-128 32c-17.7 0-32-14.3-32-32s14.3-32 32-32s32 14.3 32 32s-14.3 32-32 32z"/></svg>