<svg xmlns="http://www.w3.org/2000/svg" viewBox="0 0 640 512"><!--! Font Awesome Pro 6.2.0 by @fontawesome - https://fontawesome.com License - https://fontawesome.com/license (Commercial License) Copyright 2022 Fonticons, Inc. --><path d="M568 0H520V24 72H472 448v48h24 48v48 24h48V168 120h48 24V72H616 568V24 0zM224 512c123.7 0 224-100.3 224-224S347.7 64 224 64S0 164.3 0 288S100.3 512 224 512zM144.4 272c-17.7 0-32-14.3-32-32s14.3-32 32-32s32 14.3 32 32s-14.3 32-32 32zm192-32c0 17.7-14.3 32-32 32s-32-14.3-32-32s14.3-32 32-32s32 14.3 32 32zM224 384c33.4 0 63.5-14.6 84-37.9l24 21.2C305.6 397.1 267 416 224 416s-81.6-18.9-108-48.7l24-21.2c20.5 23.3 50.6 37.9 84 37.9z"/></svg>