<svg xmlns="http://www.w3.org/2000/svg" viewBox="0 0 640 512"><!--! Font Awesome Pro 6.2.0 by @fontawesome - https://fontawesome.com License - https://fontawesome.com/license (Commercial License) Copyright 2022 Fonticons, Inc. --><path d="M552.4 363.5c-10.1 3.5-20.7 5.4-31.6 5.4H512 488h-8H456h-8v-32h8 24V328H456h-8l-8 0-16 0-16 0V296h34.6H448h32v-8H452.4 408V256l58.6 0 7.4 0 6 0h2.7l8.7 0V243.8l-12.1-8.7-4.9-3.5L414.7 189l18.6-26 40.1 27.5 24 16.4 19.5 13.4 17 11.6 11.6 8V220.4l-8.2-8.2-22.6-22.6 5.6-5.6 0 0 17-17 5.7-5.7 22.6 22.6 .1 .1 22.4 22.4 .8 .8c36.4 37.2 36.1 96.9-.8 133.8c-10.2 10.2-22.4 17.8-35.7 22.5zm-31.6 37.4c3.5 0 7.1-.1 10.6-.4C485.3 467.8 407.8 512 320 512c-105.9 0-196.8-64.3-235.7-156c11.3 3.2 23 4.9 34.9 4.9H192h32v-32V320h16 32V288v-8V256v-8-8V224v-8-8V184v-8V144H240 176.1l10.4-10.4L163.9 111 135.6 82.7l-2.1-2.1C180.2 31 246.5 0 320 0c92 0 172.6 48.5 217.7 121.3l-17.4 17.4-26.9 26.8-42.1-28.9-25.9-17.8-13.8 19.4c-6.3-1.4-12.9-2.2-19.7-2.2c-48.6 0-88 39.4-88 88c0 43.1 31 79 72 86.5V328v32h32 16v8.9 32h32 64.8zm-401.6-72c-17.1 0-33.7-4.6-48.2-13.1c-6.9-4.1-13.4-9-19.1-14.8c-36.9-36.9-37.2-96.6-.8-133.8l.8-.8L113 105.3l0 0 5.6 5.6 17 17 5.7 5.7L130.8 144l-12.2 12.2-6.1 6.1L98.8 176h19.3H128h16.1H160h48 32 0v32h0H208 192 160v8l32 0h16 32 0v8 16 8h0H208l-16 0H160v8l32 0h16 32v0l.3 32H240l-16 0-16 0H192l0 0-32 0v8.9h32V320v8.9H160h0l-32 0-8.8 0zM384 400c0-26.5-28.7-48-64-48s-64 21.5-64 48s28.7 48 64 48s64-21.5 64-48zm32.4-176c0 6.1-2.3 11.8-6.1 16H374.5c-3.8-4.2-6.1-9.9-6.1-16c0-13.3 10.7-24 24-24s24 10.7 24 24z"/></svg>