<svg xmlns="http://www.w3.org/2000/svg" viewBox="0 0 512 512"><!--! Font Awesome Pro 6.2.0 by @fontawesome - https://fontawesome.com License - https://fontawesome.com/license (Commercial License) Copyright 2022 Fonticons, Inc. --><path d="M256 512c141.4 0 256-114.6 256-256c0-30-5.2-58.8-14.6-85.5l6.2-37.2L509.8 96H472 455.9C408.9 37.5 336.8 0 256 0S103.1 37.5 56.1 96H40 2.2l6.2 37.3 6.2 37.2C5.2 197.2 0 226 0 256C0 397.4 114.6 512 256 512zM224 272H64L40 128H240l-1.8 16h35.6L272 128H472L448 272H288l-10.7-96H234.7L224 272zm-94.3 71.2l28.6-14.3c8.7 17.5 41.3 55.2 97.7 55.2s88.9-37.7 97.7-55.2l28.6 14.3C369.7 368.3 327.6 416 256 416s-113.7-47.7-126.3-72.8z"/></svg>