<svg xmlns="http://www.w3.org/2000/svg" viewBox="0 0 512 512"><!--! Font Awesome Pro 6.2.0 by @fontawesome - https://fontawesome.com License - https://fontawesome.com/license (Commercial License) Copyright 2022 Fonticons, Inc. --><path d="M512 80c0 44.2-114.6 80-256 80S0 124.2 0 80S114.6 0 256 0S512 35.8 512 80zm-64 0c0-17.7-86-32-192-32S64 62.3 64 80s86 32 192 32s192-14.3 192-32zM16 272c0-41.9 10.7-81.3 29.6-115.5C98.1 178.3 173 192 256 192s157.9-13.7 210.4-35.5C485.3 190.7 496 230.1 496 272c0 132.5-107.5 240-240 240S16 404.5 16 272zm113.7 87.2C142.3 384.3 184.4 432 256 432s113.7-47.7 126.3-72.8l-28.6-14.3C344.9 362.3 312.4 400 256 400s-88.9-37.7-97.7-55.2l-28.6 14.3zM176 224c-28 0-56 40-56 80c0 0 28-32 56-32s56 32 56 32c0-40-28-80-56-80zm104 80s28-32 56-32s56 32 56 32c0-40-28-80-56-80s-56 40-56 80z"/></svg>