<svg xmlns="http://www.w3.org/2000/svg" viewBox="0 0 512 512"><!--! Font Awesome Pro 6.2.0 by @fontawesome - https://fontawesome.com License - https://fontawesome.com/license (Commercial License) Copyright 2022 Fonticons, Inc. --><path d="M24 0H136h24V48H136 48v88 24H0V136 24 0H24zM376 0H488h24V24 136v24H464V136 48H376 352V0h24zM48 376v88h88 24v48H136 24 0V488 376 352H48v24zm464 0V488v24H488 376 352V464h24 88V376 352h48v24zM416 256c0 88.4-71.6 160-160 160s-160-71.6-160-160s71.6-160 160-160s160 71.6 160 160zM224 216c0-13.3-10.7-24-24-24s-24 10.7-24 24s10.7 24 24 24s24-10.7 24-24zm88 24c13.3 0 24-10.7 24-24s-10.7-24-24-24s-24 10.7-24 24s10.7 24 24 24zM192.5 292.9l-23.1 22.2C191.2 337.8 222 352 256 352s64.8-14.2 86.6-36.9l-23.1-22.2C303.5 309.6 281 320 256 320s-47.5-10.4-63.5-27.1z"/></svg>