<svg xmlns="http://www.w3.org/2000/svg" viewBox="0 0 512 512"><!--! Font Awesome Pro 6.2.0 by @fontawesome - https://fontawesome.com License - https://fontawesome.com/license (Commercial License) Copyright 2022 Fonticons, Inc. --><path d="M256 0C114.6 0 0 114.6 0 256S114.6 512 256 512s256-114.6 256-256S397.4 0 256 0zM382.3 184.8l-28.6 14.3C344.9 181.7 312.4 144 256 144s-88.9 37.7-97.7 55.2l-28.6-14.3C142.3 159.7 184.4 112 256 112s113.7 47.7 126.3 72.8zM303.6 304c0-17.7 14.3-32 32-32s32 14.3 32 32s-14.3 32-32 32s-32-14.3-32-32zm-128-32c17.7 0 32 14.3 32 32s-14.3 32-32 32s-32-14.3-32-32s14.3-32 32-32z"/></svg>