<svg xmlns="http://www.w3.org/2000/svg" viewBox="0 0 512 512"><!--! Font Awesome Pro 6.2.0 by @fontawesome - https://fontawesome.com License - https://fontawesome.com/license (Commercial License) Copyright 2022 Fonticons, Inc. --><path d="M256 512c141.4 0 256-114.6 256-256S397.4 0 256 0S0 114.6 0 256S114.6 512 256 512zm0-128c-48.9 0-93.5 16.8-127.4 44.3c-.4-4.1-.6-8.2-.6-12.3c0-70.7 57.3-128 128-128s128 57.3 128 128c0 4.2-.2 8.3-.6 12.3C349.5 400.8 304.9 384 256 384zM112 144l118.9 64L112 272l45.7-64L112 144zm169.1 64L400 144l-45.7 64L400 272 281.1 208z"/></svg>