<svg xmlns="http://www.w3.org/2000/svg" viewBox="0 0 512 512"><!--! Font Awesome Pro 6.2.0 by @fontawesome - https://fontawesome.com License - https://fontawesome.com/license (Commercial License) Copyright 2022 Fonticons, Inc. --><path d="M256 512c141.4 0 256-114.6 256-256S397.4 0 256 0S0 114.6 0 256S114.6 512 256 512zm0-80c-83 0-151.2-63.1-159.2-144H415.2c-8 80.9-76.2 144-159.2 144zM208.4 192c0 17.7-14.3 32-32 32s-32-14.3-32-32s14.3-32 32-32s32 14.3 32 32zm84.4 29.6l-25.6-19.2c34.4-45.9 103.2-45.9 137.6 0l-25.6 19.2c-21.6-28.8-64.8-28.8-86.4 0z"/></svg>