<svg xmlns="http://www.w3.org/2000/svg" viewBox="0 0 512 512"><!--! Font Awesome Pro 6.2.0 by @fontawesome - https://fontawesome.com License - https://fontawesome.com/license (Commercial License) Copyright 2022 Fonticons, Inc. --><path d="M384 48V34.2C346.3 12.5 302.6 0 256 0C114.6 0 0 114.6 0 256S114.6 512 256 512s256-114.6 256-256c0-46.6-12.5-90.3-34.2-128H432 384V80 72 64 48zM256 64h16 64 16V80v8 8l-6.4 4.8L309.3 128H336h16v32H336 272 256V144v-8-8l6.4-4.8L298.7 96H272 256V64zm40 320c0 22.1-17.9 40-40 40s-40-17.9-40-40s17.9-40 40-40s40 17.9 40 40zm99.2-149.6l25.6 19.2c-34.4 45.9-103.2 45.9-137.6 0l25.6-19.2c21.6 28.8 64.8 28.8 86.4 0zm-278.4 0c21.6 28.8 64.8 28.8 86.4 0l25.6 19.2c-34.4 45.9-103.2 45.9-137.6 0l25.6-19.2zM432 0H416V32h16 26.7L422.4 59.2 416 64v8 8V96h16 64 16V64H496 469.3l36.3-27.2L512 32V24 16 0H496 432z"/></svg>