<svg xmlns="http://www.w3.org/2000/svg" viewBox="0 0 512 512"><!--! Font Awesome Pro 6.2.0 by @fontawesome - https://fontawesome.com License - https://fontawesome.com/license (Commercial License) Copyright 2022 Fonticons, Inc. --><path d="M512 256c0 141.4-114.6 256-256 256S0 397.4 0 256S114.6 0 256 0S512 114.6 512 256zM153.6 313.4l-24.2 21 10.5 12.1c22.2 25.7 61 53.5 116.1 53.5h16V368H256c-43.4 0-74-21.8-91.9-42.5l-10.5-12.1zM352 288l-38.4 51.2c-6.2 8.3-9.6 18.4-9.6 28.8c0 26.5 21.5 48 48 48s48-21.5 48-48c0-10.4-3.4-20.5-9.6-28.8L352 288zM208.4 208c0-17.7-14.3-32-32-32s-32 14.3-32 32s14.3 32 32 32s32-14.3 32-32zm128 32c17.7 0 32-14.3 32-32s-14.3-32-32-32s-32 14.3-32 32s14.3 32 32 32z"/></svg>