<svg xmlns="http://www.w3.org/2000/svg" viewBox="0 0 640 512"><!--! Font Awesome Pro 6.2.0 by @fontawesome - https://fontawesome.com License - https://fontawesome.com/license (Commercial License) Copyright 2022 Fonticons, Inc. --><path d="M54.3 144.7L35 93.5C49.7 67.8 67.7 44.3 88.5 23.6l45.8 12.2C99.7 65.1 72.1 102.3 54.3 144.7zm-1-130.5C41.5 27.2 30.7 41 20.9 55.6L0 0 53.3 14.2zM531.7 400C485.6 467.6 408 512 320 512C178.6 512 64 397.4 64 256S178.6 0 320 0C433.4 0 529.7 73.8 563.3 176H528 480v48 64 16H432 412.9c-1.2-2.3-2.6-4.4-4.2-6.3c-4.3-5.2-10.1-9.7-16.7-13.4C378.7 276.9 361.4 272 344 272l-3.9 15 0 0 0 0 0 0 0 0 .2 .1c.2 .1 .5 .3 .9 .5c.8 .5 2 1.2 3.4 2.1c2.8 1.9 6.5 4.5 10.2 7.6c3.7 3.1 7.2 6.6 9.6 10.1c2.5 3.5 3.5 6.4 3.5 8.6s-1 5-3.5 8.6c-2.5 3.5-5.9 6.9-9.6 10.1c-3.7 3.1-7.4 5.7-10.2 7.6c-1.4 .9-2.6 1.6-3.4 2.1c-.4 .2-.7 .4-.9 .5l-.2 .1 0 0 0 0 0 0 0 0V359l0 0 0 0 0 0 0 0 .2 .1c.2 .1 .5 .3 .9 .5c.8 .5 2 1.2 3.4 2.1c2.8 1.9 6.5 4.5 10.2 7.6c3.7 3.1 7.2 6.6 9.6 10.1c2.5 3.5 3.5 6.4 3.5 8.6s-1 5-3.5 8.6c-2.5 3.5-5.9 6.9-9.6 10.1c-3.7 3.1-7.4 5.7-10.2 7.6c-1.4 .9-2.6 1.6-3.4 2.1c-.4 .2-.7 .4-.9 .5l-.2 .1 0 0 0 0 0 0 0 0 3.9 15c17.4 0 34.7-4.9 47.9-12.3c6.6-3.7 12.5-8.2 16.7-13.4c1.6-2 3.1-4.1 4.2-6.3H432h99.7zM384 351.7V336h16H608V240H544v32h32 16v32H576 528 512V288 224 208h16 96 16v16V352v16H624 400 384V352.3l-.8-.3 .8-.3zM196.8 237.6c21.6-28.8 64.8-28.8 86.4 0l25.6-19.2c-34.4-45.9-103.2-45.9-137.6 0l25.6 19.2zm246.4 0l25.6-19.2c-34.4-45.9-103.2-45.9-137.6 0l25.6 19.2c21.6-28.8 64.8-28.8 86.4 0z"/></svg>