<svg xmlns="http://www.w3.org/2000/svg" viewBox="0 0 512 512"><!--! Font Awesome Pro 6.2.0 by @fontawesome - https://fontawesome.com License - https://fontawesome.com/license (Commercial License) Copyright 2022 Fonticons, Inc. --><path d="M256 512c141.4 0 256-114.6 256-256c0-16.4-1.5-32.5-4.5-48H440c0 49.4-37.4 90.1-85.4 95.4l4.5 2.3 8.8 4.4V320v32 9.9l-8.8 4.4-14.3 7.1L364.5 398l10 12.5-25 20-10-12.5-23.9-29.9-7.3 3.6 10.5 26.3 5.9 14.9-29.7 11.9-5.9-14.9-9.5-23.9-7.6 3.8V432v16H240V432 409.9l-7.6-3.8-9.5 23.9-5.9 14.9-29.7-11.9 5.9-14.9 10.5-26.3-7.3-3.6L172.5 418l-10 12.5-25-20 10-12.5 19.6-24.5-14.3-7.1-8.8-4.4V352 320v-9.9l8.8-4.4 4.5-2.3c-48-5.3-85.4-46-85.4-95.4H4.5C1.5 223.5 0 239.6 0 256C0 397.4 114.6 512 256 512zm55.1-249.3c2.9 1.8 5.4 3.2 6.8 3.8c7.9 3.5 16.7 5.5 26.1 5.5c35.3 0 64-28.7 64-64s-28.7-64-64-64s-64 28.7-64 64c0 4.4 .4 8.7 1.3 12.8l29.6 42.3 .2-.4zM232 208c0-35.3-28.7-64-64-64s-64 28.7-64 64s28.7 64 64 64c9.3 0 18.1-2 26.1-5.5c1.4-.6 3.9-2 6.8-3.8l.2 .4 29.6-42.3c.8-4.1 1.3-8.4 1.3-12.8zM12.7 176H77.5c5.3-14.9 14.1-28 25.4-38.5l-5.2-10.3-7.2-14.3 28.6-14.3 7.2 14.3 3.5 7c4.6-2 9.3-3.6 14.2-4.9V96 80h32V96v16.3c4.4 .4 8.7 1 13 2l4.7-9.5 7.2-14.3 28.6 14.3-7.2 14.3-3.6 7.3c16.4 10.2 29.5 25.3 37.3 43.1c7.8-17.9 20.9-32.9 37.3-43.1l-3.6-7.3-7.2-14.3 28.6-14.3 7.2 14.3 4.7 9.5c4.2-.9 8.6-1.6 13-2V96 80h32V96v19c4.9 1.3 9.6 2.9 14.2 4.9l3.5-7 7.2-14.3 28.6 14.3-7.2 14.3-5.2 10.3c11.3 10.5 20.1 23.7 25.4 38.5h64.7C465.7 73.8 369.4 0 256 0S46.3 73.8 12.7 176zM256 240.5l-50.9 72.7-2.3 3.3-3.6 1.8L176 329.9v12.2l80 40 80-40V329.9l-23.2-11.6-3.6-1.8-2.3-3.3L256 240.5zM192 216c0 13.3-10.7 24-24 24s-24-10.7-24-24s10.7-24 24-24s24 10.7 24 24zm152 24c-13.3 0-24-10.7-24-24s10.7-24 24-24s24 10.7 24 24s-10.7 24-24 24z"/></svg>