<svg xmlns="http://www.w3.org/2000/svg" viewBox="0 0 512 512"><!--! Font Awesome Pro 6.2.0 by @fontawesome - https://fontawesome.com License - https://fontawesome.com/license (Commercial License) Copyright 2022 Fonticons, Inc. --><path d="M256 512c141.4 0 256-114.6 256-256S397.4 0 256 0S0 114.6 0 256S114.6 512 256 512zm79.6-272c-17.7 0-32-14.3-32-32s14.3-32 32-32s32 14.3 32 32s-14.3 32-32 32zm-192-32c0-17.7 14.3-32 32-32s32 14.3 32 32s-14.3 32-32 32s-32-14.3-32-32zm51.7-84.7l-7.4 7.4c-23.6 23.6-53.9 39.2-86.8 44.7l-2.5 .4-15.8 2.6-5.3-31.6 15.8-2.6 2.5-.4c26.3-4.4 50.6-16.9 69.5-35.7l7.4-7.4L184 89.4 206.6 112l-11.3 11.3zM305.4 112L328 89.4l11.3 11.3 7.4 7.4c18.9 18.9 43.2 31.4 69.5 35.7l2.5 .4 15.8 2.6-5.3 31.6-15.8-2.6-2.5-.4c-32.9-5.5-63.3-21.1-86.8-44.7l-7.4-7.4L305.4 112zM168 282.7c19.5 11.3 33.8 30.5 38.4 53.3h99.2c4.6-22.8 18.9-42 38.4-53.3l13.8-8 16 27.7-13.8 8c-14.4 8.3-24 23.8-24 41.6s9.6 33.3 24 41.6l13.8 8-16 27.7-13.8-8c-19.5-11.3-33.8-30.5-38.4-53.3H206.4c-4.6 22.8-18.9 42-38.4 53.3l-13.8 8-16-27.7 13.8-8c14.4-8.3 24-23.8 24-41.6s-9.6-33.3-24-41.6l-13.8-8 16-27.7 13.8 8z"/></svg>