<svg xmlns="http://www.w3.org/2000/svg" viewBox="0 0 512 512"><!--! Font Awesome Pro 6.2.0 by @fontawesome - https://fontawesome.com License - https://fontawesome.com/license (Commercial License) Copyright 2022 Fonticons, Inc. --><path d="M256 512c141.4 0 256-114.6 256-256S397.4 0 256 0S0 114.6 0 256S114.6 512 256 512zm.3-180.2c59.1 0 114.1-10.6 160.2-29C400.3 376.7 334.7 432 256.3 432s-144-55.3-160.2-129.2c46.2 18.3 101.2 29 160.2 29zM176 152c28 0 56 40 56 80c0 0-28-32-56-32s-56 32-56 32c0-40 28-80 56-80zm104 80c0-40 28-80 56-80s56 40 56 80c0 0-28-32-56-32s-56 32-56 32z"/></svg>