<svg xmlns="http://www.w3.org/2000/svg" viewBox="0 0 512 512"><!--! Font Awesome Pro 6.2.0 by @fontawesome - https://fontawesome.com License - https://fontawesome.com/license (Commercial License) Copyright 2022 Fonticons, Inc. --><path d="M256 512c141.4 0 256-114.6 256-256S397.4 0 256 0S0 114.6 0 256S114.6 512 256 512zm48.7-198.3c4.3 5.1 7.3 11.4 7.3 18.3s-3.1 13.2-7.3 18.3c-4.3 5.2-10.1 9.7-16.7 13.4c-2.7 1.5-5.7 3-8.7 4.3c3.1 1.3 6 2.7 8.7 4.3c6.6 3.7 12.5 8.2 16.7 13.4c4.3 5.1 7.3 11.4 7.3 18.3s-3.1 13.2-7.3 18.3c-4.3 5.2-10.1 9.7-16.7 13.4C274.7 443.1 257.4 448 240 448l-3.9-15 0 0 0 0 0 0 0 0 .2-.1c.2-.1 .5-.3 .9-.5c.8-.5 2-1.2 3.4-2.1c2.8-1.9 6.5-4.5 10.2-7.6c3.7-3.1 7.2-6.6 9.6-10.1c2.5-3.5 3.5-6.4 3.5-8.6s-1-5-3.5-8.6c-2.5-3.5-5.9-6.9-9.6-10.1c-3.7-3.1-7.4-5.7-10.2-7.6c-1.4-.9-2.6-1.6-3.4-2.1c-.4-.2-.7-.4-.9-.5l-.2-.1 0 0 0 0 0 0 0 0V361l0 0 0 0 0 0 0 0 .2-.1 .3-.2 .6-.4c.8-.5 2-1.2 3.4-2.1c2.8-1.9 6.5-4.5 10.2-7.6c3.7-3.1 7.2-6.6 9.6-10.1c2.5-3.5 3.5-6.4 3.5-8.6s-1-5-3.5-8.6c-2.5-3.5-5.9-6.9-9.6-10.1c-3.7-3.1-7.4-5.7-10.2-7.6c-1.4-.9-2.6-1.6-3.4-2.1l-.4-.3-.5-.3-.2-.1 0 0 0 0 0 0 0 0 3.9-15c17.4 0 34.7 4.9 47.9 12.3c6.6 3.7 12.5 8.2 16.7 13.4zM208.4 208c0 17.7-14.3 32-32 32s-32-14.3-32-32s14.3-32 32-32s32 14.3 32 32zm128 32c-17.7 0-32-14.3-32-32s14.3-32 32-32s32 14.3 32 32s-14.3 32-32 32z"/></svg>