<svg xmlns="http://www.w3.org/2000/svg" viewBox="0 0 576 512"><!--! Font Awesome Pro 6.2.0 by @fontawesome - https://fontawesome.com License - https://fontawesome.com/license (Commercial License) Copyright 2022 Fonticons, Inc. --><path d="M544 256c0 72.5-30.1 137.9-78.5 184.5l-16.7-5.6c-11.9-4-21.5-12.3-27.2-22.9c16.7-12.6 26.4-27.7 26.4-44c0-44.2-71.6-80-160-80s-160 35.8-160 80c0 16.3 9.7 31.4 26.4 44c-5.7 10.6-15.2 19-27.2 22.9l-16.7 5.6C62.1 393.9 32 328.5 32 256C32 114.6 146.6 0 288 0S544 114.6 544 256zM262.9 192L144 128l45.7 64L144 256l118.9-64zM432 128L313.1 192 432 256l-45.7-64L432 128zM32 512c-17.7 0-32-14.3-32-32s14.3-32 32-32s32 14.3 32 32s-14.3 32-32 32zm544-64c0 17.7-14.3 32-32 32s-32-14.3-32-32s14.3-32 32-32s32 14.3 32 32zM192 396.1V338.7c23.6-11.1 57.3-18.7 96-18.7s72.4 7.6 96 18.7v57.4c0 31 19.8 58.5 49.2 68.3L480 480v32H96V480l46.8-15.6c29.4-9.8 49.2-37.3 49.2-68.3zM304 384c-8.8 0-16 7.2-16 16s7.2 16 16 16s16-7.2 16-16s-7.2-16-16-16zm-48 48c0-8.8-7.2-16-16-16s-16 7.2-16 16s7.2 16 16 16s16-7.2 16-16z"/></svg>