<svg xmlns="http://www.w3.org/2000/svg" viewBox="0 0 512 512"><!--! Font Awesome Pro 6.2.0 by @fontawesome - https://fontawesome.com License - https://fontawesome.com/license (Commercial License) Copyright 2022 Fonticons, Inc. --><path d="M512 256c0 141.4-114.6 256-256 256S0 397.4 0 256S114.6 0 256 0S512 114.6 512 256zM96 192v32h16 32c0 17.7 14.3 32 32 32s32-14.3 32-32s-14.3-32-32-32H112 96zM375.8 338.6l2.6-15.8-31.6-5.3-2.6 15.8-.2 1.2c-3.2 19.3-19.9 33.4-39.5 33.4H192 176v32h16H304.6c35.2 0 65.2-25.4 71-60.2l.2-1.2zM288 192v32h16 32c0 17.7 14.3 32 32 32s32-14.3 32-32s-14.3-32-32-32H304 288z"/></svg>