<svg xmlns="http://www.w3.org/2000/svg" viewBox="0 0 512 512"><!--! Font Awesome Pro 6.2.0 by @fontawesome - https://fontawesome.com License - https://fontawesome.com/license (Commercial License) Copyright 2022 Fonticons, Inc. --><path d="M128 128c35.3 0 64-28.7 64-64s-28.7-64-64-64S64 28.7 64 64s28.7 64 64 64zm48 48c0-5.5 .6-10.8 1.6-16H64L0 384H64V512H176V448H144V416 256 224h32 16c-10-13.4-16-30-16-48zm272-16H334.4c1 5.2 1.6 10.5 1.6 16c0 18-6 34.6-16 48h16 32v32V416v32H336v64H448V384h64L448 160zm-64-32c35.3 0 64-28.7 64-64s-28.7-64-64-64s-64 28.7-64 64s28.7 64 64 64zM256 224c26.5 0 48-21.5 48-48s-21.5-48-48-48s-48 21.5-48 48s21.5 48 48 48zm80 192V256H176V416h32v96h96V416h32z"/></svg>