<svg xmlns="http://www.w3.org/2000/svg" viewBox="0 0 512 512"><!--! Font Awesome Pro 6.2.0 by @fontawesome - https://fontawesome.com License - https://fontawesome.com/license (Commercial License) Copyright 2022 Fonticons, Inc. --><path d="M256 0V44.8L384 32V96L256 83.2l-31.2-3.1L224 80h0 0l-.8 .1L192 83.2 64 96V32L192 44.8V0h64zM128 192l32-32h32V115.4l32-3.2 32 3.2V160h32l32 32h32c88.4 0 160 71.6 160 160v32H384V352c0-17.7-14.3-32-32-32H315.9c-20.2 29-53.9 48-91.9 48s-71.7-19-91.9-48H0V192H128zM448 416l27.8 48.7c2.7 4.8 4.2 10.2 4.2 15.7c0 17.5-14.2 31.6-31.6 31.6h-.8c-17.5 0-31.6-14.2-31.6-31.6c0-5.5 1.4-10.9 4.2-15.7L448 416z"/></svg>