<svg xmlns="http://www.w3.org/2000/svg" viewBox="0 0 512 512"><!--! Font Awesome Pro 6.2.0 by @fontawesome - https://fontawesome.com License - https://fontawesome.com/license (Commercial License) Copyright 2022 Fonticons, Inc. --><path d="M192 64v44.8L64 96v64l128-12.8 31.2-3.1 .8-.1h0 0l.8 .1 31.2 3.1L384 160V96L256 108.8V64H192zM160 224l-32 32H0V384H132.1c20.2 29 53.9 48 91.9 48s71.7-19 91.9-48H352c17.7 0 32 14.3 32 32v32H512V416c0-88.4-71.6-160-160-160H320l-32-32H256V179.4l-32-3.2-32 3.2V224H160z"/></svg>