<svg xmlns="http://www.w3.org/2000/svg" viewBox="0 0 512 512"><!--! Font Awesome Pro 6.2.0 by @fontawesome - https://fontawesome.com License - https://fontawesome.com/license (Commercial License) Copyright 2022 Fonticons, Inc. --><path d="M304 0H208V37.2c-24.2 5.3-46.9 14.5-67.4 26.8H64v48 28.6C51.6 161.1 42.4 183.8 37.2 208H0v48c0 22.7 15.7 41.7 36.9 46.7c5.2 24.7 14.5 47.8 27.1 68.7V400c0 25.5 19.8 46.3 44.9 47.9L160 352H128c-15.5-20.7-26.2-45.3-30.2-72h81.9c-2.4-7.6-3.7-15.6-3.7-24s1.3-16.4 3.7-24H97.8c4-26.3 14.3-50.4 29.4-70.9L185.1 219c7.6-14.5 19.5-26.4 33.9-33.9l-57.9-57.9c20.5-15.1 44.6-25.4 70.9-29.4v81.9c7.6-2.4 15.6-3.7 24-3.7s16.4 1.3 24 3.7V97.8c26.3 4 50.4 14.3 70.9 29.4L293 185.1c14.5 7.6 26.4 19.5 33.9 33.9l57.9-57.9c15.1 20.5 25.4 44.6 29.4 70.9H332.3c2.4 7.6 3.7 15.6 3.7 24s-1.3 16.4-3.7 24h81.9c-4 26.7-14.7 51.3-30.2 72H352l51.1 95.9c25-1.6 44.9-22.4 44.9-47.9V371.4c12.6-20.9 21.9-44.1 27.1-68.7c21.1-5 36.9-24 36.9-46.7V208H474.8c-5.3-24.2-14.5-46.9-26.8-67.4V64H371.4C350.9 51.6 328.2 42.4 304 37.2V0zm0 256c0-26.5-21.5-48-48-48s-48 21.5-48 48c0 15.6 7.5 29.5 19 38.3L128 480v32H384V480L285 294.3c11.6-8.8 19-22.7 19-38.3z"/></svg>