<svg xmlns="http://www.w3.org/2000/svg" viewBox="0 0 384 512"><!--! Font Awesome Pro 6.2.0 by @fontawesome - https://fontawesome.com License - https://fontawesome.com/license (Commercial License) Copyright 2022 Fonticons, Inc. --><path d="M224 0H0V512H384V160H224V0zm32 0V128H384L256 0zM104 196h72c33.1 0 60 26.9 60 60c0 25.5-15.9 47.2-38.3 55.9l43 40.3 33.8-31 14.7-13.5 27 29.5-14.7 13.5L270 379.7l31.7 29.7 14.6 13.7-27.4 29.2-14.6-13.7-33.9-31.8-34.9 32-14.7 13.5-27-29.5 14.7-13.5 32.6-29.9-64.8-60.8-2.8-2.6H124v44 20H84V360 296 216 196h20zm55.1 79.7l.3 .3H176c11 0 20-9 20-20s-9-20-20-20H124v40h34.8l.3-.3z"/></svg>