<svg xmlns="http://www.w3.org/2000/svg" viewBox="0 0 384 512"><!--! Font Awesome Pro 6.2.0 by @fontawesome - https://fontawesome.com License - https://fontawesome.com/license (Commercial License) Copyright 2022 Fonticons, Inc. --><path d="M224 0H0V512H384V160H224V0zm32 0V128H384L256 0zm16 304c0 17.8-4.9 34.5-13.3 48.9L297 391.2l17 17L280 442.1l-17-17-38.4-38.4C210.4 395.2 193.8 400 176 400c-53 0-96-43-96-96s43-96 96-96s96 43 96 96zm-96 48c26.5 0 48-21.5 48-48s-21.5-48-48-48s-48 21.5-48 48s21.5 48 48 48z"/></svg>