<svg xmlns="http://www.w3.org/2000/svg" viewBox="0 0 576 512"><!--! Font Awesome Pro 6.2.0 by @fontawesome - https://fontawesome.com License - https://fontawesome.com/license (Commercial License) Copyright 2022 Fonticons, Inc. --><path d="M0 0H224V160H384v38.6C310.1 219.5 256 287.4 256 368c0 59.5 29.6 112.1 74.8 144H0V0zM384 128H256V0L384 128zm48 384c-79.5 0-144-64.5-144-144s64.5-144 144-144s144 64.5 144 144s-64.5 144-144 144zm59.3-180.7L502.6 320 480 297.4l-11.3 11.3L432 345.4l-36.7-36.7L384 297.4 361.4 320l11.3 11.3L409.4 368l-36.7 36.7L361.4 416 384 438.6l11.3-11.3L432 390.6l36.7 36.7L480 438.6 502.6 416l-11.3-11.3L454.6 368l36.7-36.7z"/></svg>