<svg xmlns="http://www.w3.org/2000/svg" viewBox="0 0 384 512"><!--! Font Awesome Pro 6.2.0 by @fontawesome - https://fontawesome.com License - https://fontawesome.com/license (Commercial License) Copyright 2022 Fonticons, Inc. --><path d="M224 0H0V512H384V160H224V0zm32 0V128H384L256 0zM80 224H96c22.1 0 40 17.9 40 40v8 16H104V272v-8c0-4.4-3.6-8-8-8H80c-4.4 0-8 3.6-8 8v80c0 4.4 3.6 8 8 8H96c4.4 0 8-3.6 8-8v-8V320h32v16 8c0 22.1-17.9 40-40 40H80c-22.1 0-40-17.9-40-40V264c0-22.1 17.9-40 40-40zm118.4 0H208h16v32H208h-9.6c-7.9 0-14.4 6.4-14.4 14.4c0 5.2 2.8 9.9 7.2 12.5l25.4 14.5c14.4 8.3 23.4 23.6 23.4 40.3c0 25.6-20.8 46.4-46.4 46.4H168 152V352h16 25.6c7.9 0 14.4-6.4 14.4-14.4c0-5.2-2.8-9.9-7.2-12.5l-25.4-14.5C160.9 302.4 152 287 152 270.4c0-25.6 20.8-46.4 46.4-46.4zm41.2 0h32.8L296 330.2 319.6 224h32.8l-.8 3.5-32 144L316.8 384H304 288 275.2l-2.8-12.5-32-144-.8-3.5z"/></svg>