<svg xmlns="http://www.w3.org/2000/svg" viewBox="0 0 384 512"><!--! Font Awesome Pro 6.2.0 by @fontawesome - https://fontawesome.com License - https://fontawesome.com/license (Commercial License) Copyright 2022 Fonticons, Inc. --><path d="M224 0H0V512H384V160H224V0zm32 0V128H384L256 0zM80 64h64 16V96H144 80 64V64H80zm0 64h64 16v32H144 80 64V128H80zm56 176h16 11.9l3.4 11.4 15.4 51.4 3-5.9 4.4-8.8H200h32 9.9l4.4 8.8L257.9 384H304h16v32H304 248h-9.9l-4.4-8.8L222.1 384H209.9l-11.6 23.2-4.4 8.8H184h-8H164.1l-3.4-11.4L144 349l-16.7 55.6L123.9 416H112 80 64V384H80h20.1l20.6-68.6 3.4-11.4H136z"/></svg>