<svg xmlns="http://www.w3.org/2000/svg" viewBox="0 0 384 512"><!--! Font Awesome Pro 6.2.0 by @fontawesome - https://fontawesome.com License - https://fontawesome.com/license (Commercial License) Copyright 2022 Fonticons, Inc. --><path d="M224 0H0V512H384V160H224V0zm32 0V128H384L256 0zm32 224v32V384c0 17.7-21.5 32-48 32s-48-14.3-48-32s21.5-32 48-32c5.6 0 11 .6 16 1.8V279.1l-96 36V416c0 17.7-21.5 32-48 32s-48-14.3-48-32s21.5-32 48-32c5.6 0 11 .6 16 1.8V304 272 260.9l10.4-3.9 128-48 21.6-8.1V224z"/></svg>