<svg xmlns="http://www.w3.org/2000/svg" viewBox="0 0 384 512"><!--! Font Awesome Pro 6.2.0 by @fontawesome - https://fontawesome.com License - https://fontawesome.com/license (Commercial License) Copyright 2022 Fonticons, Inc. --><path d="M224 0H0V512H384V160H224V0zm32 0V128H384L256 0zm-1.8 447.9l-15.5-28C268.1 403.5 288 372.1 288 336s-19.9-67.5-49.4-83.9l15.5-28C293.4 245.9 320 287.9 320 336s-26.6 90.1-65.8 111.9zm-31.1-56l-15.5-28c9.8-5.5 16.5-15.9 16.5-28s-6.6-22.5-16.5-28l15.5-28C242.7 291 256 311.9 256 336s-13.3 45-32.9 56zM64 376V296h56l40-40h16V416H160l-40-40H64z"/></svg>