<svg xmlns="http://www.w3.org/2000/svg" viewBox="0 0 576 512"><!--! Font Awesome Pro 6.2.0 by @fontawesome - https://fontawesome.com License - https://fontawesome.com/license (Commercial License) Copyright 2022 Fonticons, Inc. --><path d="M61.3 317.3L16 272l45.3-45.3 76.1-76.1-80-80L34.7 48 80 2.7l22.6 22.6 80 80 60.1-60.1L288 0l45.3 45.3L482.7 194.7 528 240l-45.3 45.3L301.3 466.7 256 512l-45.3-45.3L61.3 317.3zM182.6 195.9L106.5 272l16 16h267l48-48L288 90.5l-60.1 60.1 18.7 18.7L269.3 192 224 237.3l-22.6-22.6-18.7-18.7z"/></svg>