<svg xmlns="http://www.w3.org/2000/svg" viewBox="0 0 576 512"><!--! Font Awesome Pro 6.2.0 by @fontawesome - https://fontawesome.com License - https://fontawesome.com/license (Commercial License) Copyright 2022 Fonticons, Inc. --><path d="M16 272l45.3 45.3L210.7 466.7 256 512l45.3-45.3L482.7 285.3 528 240l-45.3-45.3L333.3 45.3 288 0 242.7 45.3l-60.1 60.1-80-80L80 2.7 34.7 48 57.4 70.6l80 80L61.3 226.7 16 272zm185.4-57.4L224 237.3 269.3 192l-22.6-22.6-18.7-18.7L288 90.5 437.5 240l-48 48h-267l-16-16 76.1-76.1 18.7 18.7zM512 320l-55.7 97.4c-5.5 9.6-8.3 20.4-8.3 31.4c0 34.9 28.3 63.2 63.2 63.2h1.6c34.9 0 63.2-28.3 63.2-63.2c0-11-2.9-21.8-8.3-31.4L512 320z"/></svg>