<svg xmlns="http://www.w3.org/2000/svg" viewBox="0 0 640 512"><!--! Font Awesome Pro 6.2.0 by @fontawesome - https://fontawesome.com License - https://fontawesome.com/license (Commercial License) Copyright 2022 Fonticons, Inc. --><path d="M29.4 .1l19 14.7L70.5 32H576V424.4l44.9 34.9 19 14.7-29.4 37.9-19-14.7L19 52.7 0 38 29.4 .1zM317.9 224H416V96H224v55.1L317.9 224zm-74.2 64H224V416H406.2l81.2 64H64V146.4L162.5 224H112v64h64V234.7L243.7 288zM176 352H112v64h64V352zM528 224H464v64h64V224zM464 96v64h64V96H464z"/></svg>