<svg xmlns="http://www.w3.org/2000/svg" viewBox="0 0 512 512"><!--! Font Awesome Pro 6.2.0 by @fontawesome - https://fontawesome.com License - https://fontawesome.com/license (Commercial License) Copyright 2022 Fonticons, Inc. --><path d="M256 48C141.1 48 48 141.1 48 256v32H0V256C0 114.6 114.6 0 256 0c95 0 177.9 51.7 222 128.5l-41.6 23.9C400.5 90 333.1 48 256 48zM464 256c0-22.1-3.5-43.4-9.8-63.4L499.9 178c7.9 24.6 12.1 50.8 12.1 78v32H464V256zm-264 0c0 49.3-4.1 88.6-8.3 115.6c-2.1 13.5-4.2 24.1-5.8 31.3c-.8 3.6-1.5 6.4-2 8.4c-.2 1-.4 1.7-.6 2.3l-.2 .7-.1 .2 0 .1 0 0 0 0s0 0-23.1-6.6s-23.1-6.6-23.1-6.6l0 0 .1-.3c.1-.3 .2-.9 .4-1.6c.4-1.5 .9-3.8 1.6-6.9c1.4-6.3 3.3-15.7 5.2-28.2c3.8-24.9 7.7-61.7 7.7-108.4c0-57.4 46.6-104 104-104s104 46.6 104 104c0 48.9-2.9 89.7-5.7 118.4c-1.4 14.3-2.9 25.7-4 33.4c-.5 3.9-1 6.9-1.3 9c-.2 1-.3 1.8-.4 2.4l-.1 .7 0 .2 0 .1 0 0 0 0s0 0-23.6-4.1s-23.6-4.1-23.6-4.1l0 0 0-.1 .1-.5c.1-.4 .2-1.1 .3-2c.3-1.8 .7-4.5 1.2-8.1c1-7.2 2.4-17.9 3.7-31.6c2.7-27.3 5.5-66.5 5.5-113.6c0-30.9-25.1-56-56-56s-56 25.1-56 56zm32 0h48c0 81.6-8.2 143.2-16.5 184.7c-4.2 20.8-8.3 36.5-11.5 47.2c-1.6 5.4-3 9.4-4 12.3c-.5 1.4-.9 2.5-1.2 3.3l-.4 1-.1 .3 0 .1 0 0 0 0c0 0 0 0-22.3-8.9s-22.3-8.9-22.3-8.9l0 0 .2-.5c.2-.5 .5-1.2 .8-2.3c.8-2.2 1.9-5.6 3.3-10.2c2.8-9.3 6.6-23.6 10.5-42.8C224.2 392.8 232 334.4 232 256zM201.8 135.4L182.2 91.6c22.6-10.2 47.6-15.8 73.8-15.8c99.5 0 180.2 80.7 180.2 180.2c0 32.9-2.1 65.6-4.1 90c-1 12.2-2 22.4-2.8 29.6c-.4 3.6-.7 6.4-.9 8.3l-.3 2.2-.1 .6 0 .2 0 0 0 0 0 0s0 0-23.8-3l-23.8-3 0 0 0 0 0-.1 .1-.5 .2-2c.2-1.8 .5-4.5 .9-7.9c.7-6.8 1.7-16.6 2.7-28.4c2-23.6 3.9-54.9 3.9-86c0-73-59.2-132.2-132.2-132.2c-19.3 0-37.7 4.1-54.2 11.6zM123.8 256c0 33.9-4.2 65.4-8.4 88.3c-2.1 11.5-4.2 20.9-5.8 27.6c-.8 3.3-1.5 5.9-1.9 7.7c-.2 .9-.4 1.6-.6 2.1l-.2 .6 0 .2 0 .1 0 0 0 0s0 0-23.1-6.6s-23.1-6.6-23.1-6.6l0-.1 .1-.4c.1-.3 .2-.9 .4-1.6c.4-1.5 1-3.8 1.7-6.7c1.4-5.9 3.3-14.4 5.2-24.9c3.8-21.1 7.6-49.6 7.6-79.7c0-48.8 19.4-93.1 50.9-125.5l34.4 33.5c-23.2 23.8-37.4 56.3-37.4 92.1z"/></svg>