<svg xmlns="http://www.w3.org/2000/svg" viewBox="0 0 512 512"><!--! Font Awesome Pro 6.2.0 by @fontawesome - https://fontawesome.com License - https://fontawesome.com/license (Commercial License) Copyright 2022 Fonticons, Inc. --><path d="M128 0h96V56h64V32L512 0V160L288 128V104H224v34.8c37.8 18 64 56.5 64 101.2V384H64V240c0-44.7 26.2-83.2 64-101.2V110c-36.2 11.1-66 36.9-82.3 70.5l-43.1-21C26.7 109.8 72.7 72.6 128 60.4V0zM288 512H64V416H288v96zM176 96c8.8 0 16-7.2 16-16s-7.2-16-16-16s-16 7.2-16 16s7.2 16 16 16z"/></svg>