<svg xmlns="http://www.w3.org/2000/svg" viewBox="0 0 640 512"><!--! Font Awesome Pro 6.2.0 by @fontawesome - https://fontawesome.com License - https://fontawesome.com/license (Commercial License) Copyright 2022 Fonticons, Inc. --><path d="M0 0V96H640V0H0zM608 128H32V512H160V352c0-88.4 71.6-160 160-160s160 71.6 160 160V512H608V128zM343.8 302.6c-23.5-27.3-47.2-46.5-47.2-46.5s-93.1 75.4-93.1 139.6s52.1 116.4 116.4 116.4s116.4-52.1 116.4-116.4c0-53.6-69.8-116.4-69.8-116.4s-10.1 9.1-22.6 23.2zm12.4 151.9c-10.9 7.3-22.5 10.9-35.6 10.9c-32.7 0-58.9-21.1-58.9-56.7c0-17.5 10.9-32.7 32.7-59.6c2.9 3.6 45.1 57.5 45.1 57.5L365.7 376c2.2 2.9 3.6 5.8 5.1 8.7c13.1 24 7.3 54.5-14.5 69.8z"/></svg>