<svg xmlns="http://www.w3.org/2000/svg" viewBox="0 0 448 512"><!--! Font Awesome Pro 6.2.0 by @fontawesome - https://fontawesome.com License - https://fontawesome.com/license (Commercial License) Copyright 2022 Fonticons, Inc. --><path d="M284.6 0H288h64 24V24 136v24H328V136 48H291.4L88 106.1V288h40V512H0V288H40V88 69.9l17.4-5 224-64 3.2-.9zM256 336c0-80 96-144 96-144s96 64 96 144c0 64-64 112-64 112l32 48v16H288V496l32-48s-64-44.5-64-112zm120-24c0-13.3-10.7-24-24-24s-24 10.7-24 24s10.7 24 24 24s24-10.7 24-24z"/></svg>