<svg xmlns="http://www.w3.org/2000/svg" viewBox="0 0 512 512"><!--! Font Awesome Pro 6.2.0 by @fontawesome - https://fontawesome.com License - https://fontawesome.com/license (Commercial License) Copyright 2022 Fonticons, Inc. --><path d="M64 22.3V0H0V32 480v32H64V480 374.3c33.4-9.4 86.5-22.3 128-22.3c33 0 57.2 8.1 81.2 16.2c23.7 7.9 47.2 15.8 78.8 15.8c63.7 0 160-32 160-32V289.1c-2.2 .8-5 1.8-8.2 3c-8.8 3.1-21.1 7.2-35.5 11.3C439.8 311.5 402.1 320 368 320c-34.1 0-63.9-8.5-91.4-16.4l-.8-.2C247.5 295.3 221.4 288 192 288c-29.7 0-61.9 7.5-87.3 15.3C92.1 307.2 81.5 311 74 313.9c-3.7 1.4-6.7 2.6-8.6 3.5L64 318V283.5c7.9-3 18.7-6.9 31.3-10.8c26.6-8.2 62.4-16.7 96.7-16.7c34.3 0 64.2 8.5 91.8 16.4l.7 .2c28.3 8.1 54.2 15.4 83.5 15.4c29.6 0 63.9-7.5 91.5-15.4c13.6-3.9 25.4-7.8 33.6-10.7c4.1-1.5 7.4-2.7 9.6-3.5c1.1-.4 2-.7 2.5-1l.6-.2 .1-.1 0 0 0 0 0 0 0 0 5.9-2.4V193.1c-2.2 .8-5 1.8-8.2 3c-8.8 3.1-21.1 7.2-35.5 11.3C439.8 215.5 402.1 224 368 224c-34.1 0-63.9-8.5-91.4-16.4l-.8-.2C247.5 199.3 221.4 192 192 192c-29.7 0-61.9 7.5-87.3 15.3C92.1 211.2 81.5 215 74 217.9c-3.7 1.4-6.7 2.6-8.6 3.5L64 222V187.5c7.9-3 18.7-6.9 31.3-10.8c26.6-8.2 62.4-16.7 96.7-16.7c34.3 0 64.2 8.5 91.8 16.4l0 0 .7 .2c28.3 8.1 54.2 15.4 83.5 15.4c29.6 0 63.9-7.5 91.5-15.4c13.6-3.9 25.4-7.8 33.6-10.7c4.1-1.5 7.4-2.7 9.6-3.5c1.1-.4 2-.7 2.5-1l.6-.2 .1-.1 0 0 0 0 0 0 0 0 5.9-2.4V97.1c-2.2 .8-5 1.8-8.2 3c-8.8 3.1-21.1 7.2-35.5 11.3C439.8 119.5 402.1 128 368 128c-34.1 0-63.9-8.5-91.4-16.4l-.8-.2c-6.7-1.9-13.2-3.8-19.7-5.5V72.8c9.6 2.4 18.8 5 27.8 7.6l.7 .2C312.8 88.7 338.7 96 368 96c29.6 0 63.9-7.5 91.5-15.4c13.6-3.9 25.4-7.8 33.6-10.7c4.1-1.5 7.4-2.7 9.6-3.5c1.1-.4 2-.7 2.5-1l.6-.2 .1-.1 0 0 0 0 0 0 0 0 5.9-2.4V0s-96.3 32-160 32c-31.6 0-55.2-7.9-78.8-15.8C249.2 8.1 225 0 192 0C150.5 0 97.4 12.8 64 22.3zM208 48c0 8.8-7.2 16-16 16s-16-7.2-16-16s7.2-16 16-16s16 7.2 16 16zm-64 8c0 8.8-7.2 16-16 16s-16-7.2-16-16s7.2-16 16-16s16 7.2 16 16zm48 72c-8.8 0-16-7.2-16-16s7.2-16 16-16s16 7.2 16 16s-7.2 16-16 16zm-48-8c0 8.8-7.2 16-16 16s-16-7.2-16-16s7.2-16 16-16s16 7.2 16 16z"/></svg>