<svg xmlns="http://www.w3.org/2000/svg" viewBox="0 0 512 512"><!--! Font Awesome Pro 6.2.0 by @fontawesome - https://fontawesome.com License - https://fontawesome.com/license (Commercial License) Copyright 2022 Fonticons, Inc. --><path d="M64 0V22.3C97.4 12.8 150.5 0 192 0c33 0 57.2 8.1 81.2 16.2C296.8 24.1 320.4 32 352 32c29.3 0 65.5-6.8 96-14.1C483.9 9.3 512 0 512 0V67 352s-96.3 32-160 32c-31.6 0-55.2-7.9-78.8-15.8C249.2 360.1 225 352 192 352c-41.5 0-94.6 12.8-128 22.3V480v32H0V480 32 0H64zm0 153.1c18.3-4.8 40.4-9.8 64-13.1V72.3c-8.4 1.8-16.8 3.7-25 5.8c-14.7 3.7-27.5 7.4-36.7 10.2L64 89v64.1zm0 80v74.9c2.6-.7 5.2-1.3 7.8-2c16.2-4.1 35.7-8.5 56.2-11.9V219.9c17.1-2.4 33.6-3.9 48-3.9c11.2 0 21.8 .9 32 2.5v70c33.3 2.1 59.5 10.3 80 17.1V238.5c20.2 5.3 41 9.5 64 9.5c5.1 0 10.5-.2 16-.6v71.8c21.5-1.9 47.7-7.2 72.4-13.3c2.6-.6 5.1-1.3 7.6-1.9V232.3c-23.1 6.6-51.8 13.2-80 15.1v-80c28.2-2 56.9-8.5 80-15.1V83.6C423.4 89 394.9 94 368 95.5v71.9c-5.5 .4-10.9 .6-16 .6c-23 0-43.8-4.2-64-9.5V87.7c-12.7-3.3-23.9-7-33.7-10.3l0 0-2-.7C235 70.9 222.1 66.8 208 65v73.5c-10.2-1.5-20.8-2.5-32-2.5c-14.4 0-30.9 1.5-48 3.9v80c-23.6 3.3-45.7 8.3-64 13.1zm144-94.6v80c20 3 38.7 8.4 57.2 13.7l0 0c7.6 2.2 15.1 4.3 22.8 6.4v-80c-7.6-2-15.2-4.2-22.8-6.4l0 0c-18.6-5.3-37.2-10.7-57.2-13.7z"/></svg>