<svg xmlns="http://www.w3.org/2000/svg" viewBox="0 0 640 512"><!--! Font Awesome Pro 6.2.0 by @fontawesome - https://fontawesome.com License - https://fontawesome.com/license (Commercial License) Copyright 2022 Fonticons, Inc. --><path d="M224 0h32V64H224V309.9l-59.3 96.3-4.7 7.7v9.1 19.6c-10 3.5-20.8 5.5-32 5.5c-53 0-96-43-96-96V64H0V0H32 96h64 64zM196.7 415.2L221 375.8l99-160.8V64H288V0h32 32H480h32 32V64H512V214.9L635.3 415.2l4.7 7.7V432v48 32H608 224 192V480 432v-8.4-.6l4.7-7.7zM96 64v96h64V64H96zm288 0V224v9.1l-4.7 7.7L330.5 320h171l-48.8-79.2-4.7-7.7V224 64H384z"/></svg>