<svg xmlns="http://www.w3.org/2000/svg" viewBox="0 0 448 512"><!--! Font Awesome Pro 6.2.0 by @fontawesome - https://fontawesome.com License - https://fontawesome.com/license (Commercial License) Copyright 2022 Fonticons, Inc. --><path d="M320 167.4C386.6 202.1 432 271.8 432 352c0 64.3-29.2 121.8-75.1 160H91.1C45.2 473.8 16 416.3 16 352c0-80.2 45.4-149.9 112-184.6V64H96V0h32 64 64 64 32V64H320V167.4zM336 312c0-48.6-50.1-88-112-88s-112 39.4-112 88c0 29.9 19 56.3 48 72.2V432H288V384.2c29-15.9 48-42.3 48-72.2zM184 336c-13.3 0-24-10.7-24-24s10.7-24 24-24s24 10.7 24 24s-10.7 24-24 24zm104-24c0 13.3-10.7 24-24 24s-24-10.7-24-24s10.7-24 24-24s24 10.7 24 24z"/></svg>