<svg xmlns="http://www.w3.org/2000/svg" viewBox="0 0 576 512"><!--! Font Awesome Pro 6.2.0 by @fontawesome - https://fontawesome.com License - https://fontawesome.com/license (Commercial License) Copyright 2022 Fonticons, Inc. --><path d="M346.6 53.2L255.9 3.4 185.1 78.8 83.6 98.9 77.8 202.2 13 282.9 75 365.7l.5 25.5L133.8 333c-13.7-19.5-21.8-43.3-21.8-69c0-66.3 53.7-120 120-120c25.7 0 49.5 8.1 69 21.8L422.5 44.2l-75.9 9zM232 176c-48.6 0-88 39.4-88 88c0 16.8 4.7 32.5 12.9 45.9l121-121C264.5 180.7 248.8 176 232 176zM464.3 432.3c106.2-106.2 106.2-278.4 0-384.7L79.7 432.3c106.2 106.2 278.4 106.2 384.7 0zM288 432c0 8.8-7.2 16-16 16s-16-7.2-16-16s7.2-16 16-16s16 7.2 16 16zm48 16c-8.8 0-16-7.2-16-16s7.2-16 16-16s16 7.2 16 16s-7.2 16-16 16zm-16-80c0 8.8-7.2 16-16 16s-16-7.2-16-16s7.2-16 16-16s16 7.2 16 16z"/></svg>