<svg xmlns="http://www.w3.org/2000/svg" viewBox="0 0 576 512"><!--! Font Awesome Pro 6.2.0 by @fontawesome - https://fontawesome.com License - https://fontawesome.com/license (Commercial License) Copyright 2022 Fonticons, Inc. --><path d="M32 32H0V64 448v32H32 296.2c-17.6-21.4-30.3-46.9-36.3-75c-10.2 6.9-22.6 11-35.9 11c-35.3 0-64-28.7-64-64s28.7-64 64-64c16.8 0 32.1 6.5 43.6 17.1C292.9 239 357 192 432 192c5.4 0 10.7 .2 16 .7V160 146.7l-9.4-9.4-96-96L333.3 32H320 32zM64 96H320V224H64V96zM432 512c79.5 0 144-64.5 144-144s-64.5-144-144-144s-144 64.5-144 144s64.5 144 144 144zm59.3-180.7L454.6 368l36.7 36.7L502.6 416 480 438.6l-11.3-11.3L432 390.6l-36.7 36.7L384 438.6 361.4 416l11.3-11.3L409.4 368l-36.7-36.7L361.4 320 384 297.4l11.3 11.3L432 345.4l36.7-36.7L480 297.4 502.6 320l-11.3 11.3z"/></svg>