<svg xmlns="http://www.w3.org/2000/svg" viewBox="0 0 576 512"><!--! Font Awesome Pro 6.2.0 by @fontawesome - https://fontawesome.com License - https://fontawesome.com/license (Commercial License) Copyright 2022 Fonticons, Inc. --><path d="M0 32H32 320h13.3l9.4 9.4 96 96 9.4 9.4V160v76.4l-181 181L258 480H32 0V448 64 32zM320 96H64V224H320V96zM288 352c0-35.3-28.7-64-64-64s-64 28.7-64 64s28.7 64 64 64s64-28.7 64-64zM505 224l71 71-41.3 41.3-71-71L505 224zm-63.9 63.9l71 71L370.9 500.1 288 512l11.9-82.9L441.1 287.9z"/></svg>