<svg xmlns="http://www.w3.org/2000/svg" viewBox="0 0 512 512"><!--! Font Awesome Pro 6.2.0 by @fontawesome - https://fontawesome.com License - https://fontawesome.com/license (Commercial License) Copyright 2022 Fonticons, Inc. --><path d="M288 281.3c9.8 4.3 20.6 6.7 32 6.7c44.2 0 80-35.8 80-80c0-26.2-12.6-49.4-32-64c19.4-14.6 32-37.8 32-64c0-44.2-35.8-80-80-80c-26.2 0-49.4 12.6-64 32C241.4 12.6 218.2 0 192 0c-44.2 0-80 35.8-80 80c0 26.2 12.6 49.4 32 64c-19.4 14.6-32 37.8-32 64c0 44.2 35.8 80 80 80c11.4 0 22.2-2.4 32-6.7V394.8C192.1 349.5 139.5 320 80 320H0v16c0 97.2 78.8 176 176 176h48 32 32 48c97.2 0 176-78.8 176-176V320H432c-59.5 0-112.1 29.5-144 74.8V281.3zM200 144l56-56 56 56-56 56-56-56z"/></svg>