<svg xmlns="http://www.w3.org/2000/svg" viewBox="0 0 512 512"><!--! Font Awesome Pro 6.2.0 by @fontawesome - https://fontawesome.com License - https://fontawesome.com/license (Commercial License) Copyright 2022 Fonticons, Inc. --><path d="M512 96V480H0V32H208l64 64H512zM352 192V168.9L330.4 177l-128 48L192 228.9V240v32 81.8c-5-1.2-10.4-1.8-16-1.8c-26.5 0-48 14.3-48 32s21.5 32 48 32s48-14.3 48-32V283.1l96-36v74.7c-5-1.2-10.4-1.8-16-1.8c-26.5 0-48 14.3-48 32s21.5 32 48 32s48-14.3 48-32V224 192z"/></svg>