<svg xmlns="http://www.w3.org/2000/svg" viewBox="0 0 512 512"><!--! Font Awesome Pro 6.2.0 by @fontawesome - https://fontawesome.com License - https://fontawesome.com/license (Commercial License) Copyright 2022 Fonticons, Inc. --><path d="M512 96V480H0V32H208l64 64H512zM288 160H224v37.5c-11.2 4-21.5 10-30.4 17.6l-32.5-18.7-32 55.4 32.5 18.7c-1.1 5.7-1.6 11.6-1.6 17.6s.5 11.9 1.6 17.5l-32.5 18.7 32 55.4L193.6 361c8.9 7.6 19.2 13.6 30.4 17.6V416h64V378.5c11.2-4 21.5-10 30.4-17.6l32.5 18.7 32-55.4-32.5-18.7c1-5.7 1.6-11.6 1.6-17.5s-.6-11.9-1.6-17.6l32.5-18.7-32-55.4L318.4 215c-8.9-7.6-19.1-13.6-30.4-17.6V160zm8 128c0 22.1-17.9 40-40 40s-40-17.9-40-40s17.9-40 40-40s40 17.9 40 40z"/></svg>