<svg xmlns="http://www.w3.org/2000/svg" viewBox="0 0 448 512"><!--! Font Awesome Pro 6.2.0 by @fontawesome - https://fontawesome.com License - https://fontawesome.com/license (Commercial License) Copyright 2022 Fonticons, Inc. --><path d="M328.5 80c-62.8 0-86.6-32-149.3-32C128.4 48 104.4 68.6 64 76.8V32H0V480H64V140.8c40.4-8 64.4-28.8 115.2-28.8c62.7 0 86.4 32 149.3 32c18.9 0 37.6-3.1 55.5-9.3v208c-17.8 6.2-36.6 9.4-55.5 9.3c-62.8 0-86.6-32-149.3-32c-17.4 0-34.7 2.7-51.2 8.2v64c16.5-5.5 33.8-8.2 51.2-8.2c62.7 0 86.4 32 149.3 32c37.1 0 56.4-9.6 119.5-32V48c-63.1 22.4-82.3 32-119.5 32z"/></svg>