<svg xmlns="http://www.w3.org/2000/svg" viewBox="0 0 640 512"><!--! Font Awesome Pro 6.2.0 by @fontawesome - https://fontawesome.com License - https://fontawesome.com/license (Commercial License) Copyright 2022 Fonticons, Inc. --><path d="M153 32l-7.3 21.8L2.6 480H70.1l37.6-112H244.3l37.6 112h67.5L206.3 53.8 199 32H153zm69.8 272H129.2L176 164.6 222.8 304zM640 192V160H576v17.1c-18.8-10.9-40.7-17.1-64-17.1c-70.7 0-128 57.3-128 128v64c0 70.7 57.3 128 128 128c23.3 0 45.2-6.2 64-17.1V480h64V448 352.1l0-.1V288l0-.1V192zM512 224c35.3 0 64 28.6 64 63.9l0 .1v64l0 .1c0 35.3-28.7 63.9-64 63.9c-35.3 0-64-28.7-64-64V288c0-35.3 28.7-64 64-64z"/></svg>