<svg xmlns="http://www.w3.org/2000/svg" viewBox="0 0 512 512"><!--! Font Awesome Pro 6.2.0 by @fontawesome - https://fontawesome.com License - https://fontawesome.com/license (Commercial License) Copyright 2022 Fonticons, Inc. --><path d="M494.2 226.2L340.3 245.5l14 74.5H496h16v16 72 72 16H496 368 354.7l-2.4-13.1-13.5-72L327.7 352H292l7.7 20.5c2.9 7.6 4.3 15.7 4.3 23.8v1.3c0 36.7-29.7 66.4-66.4 66.4c-9 0-17.9-1.8-26.1-5.4L112 416H77.1C39.1 373.5 16 317.5 16 256C16 123.5 123.5 16 256 16c122.5 0 223.5 91.7 238.2 210.2zM256 256l24 64h41.7l-13.2-70.6L256 256zm104.3 96l7.5 40H480V352H360.3zM480 424H373.8l7.5 40H480V424zM176 360c13.3 0 24-10.7 24-24s-10.7-24-24-24s-24 10.7-24 24s10.7 24 24 24z"/></svg>