<svg xmlns="http://www.w3.org/2000/svg" viewBox="0 0 640 512"><!--! Font Awesome Pro 6.2.0 by @fontawesome - https://fontawesome.com License - https://fontawesome.com/license (Commercial License) Copyright 2022 Fonticons, Inc. --><path d="M128 0H96V32 160H0V416c0 53 43 96 96 96s96-43 96-96h64c0 53 43 96 96 96s96-43 96-96c0-28.4-12.4-54-32-71.6V256v-5.5l-1.9-5.2-80-224L326.6 0H304 128zM256 256l-96-96V64H281.4L350 256H256zM96 464c-26.5 0-48-21.5-48-48s21.5-48 48-48s48 21.5 48 48s-21.5 48-48 48zm256 0c-26.5 0-48-21.5-48-48s21.5-48 48-48s48 21.5 48 48s-21.5 48-48 48zM544 32V0H480V32 416v32h32 96 32V384H608 544V32z"/></svg>