<svg xmlns="http://www.w3.org/2000/svg" viewBox="0 0 576 512"><!--! Font Awesome Pro 6.2.0 by @fontawesome - https://fontawesome.com License - https://fontawesome.com/license (Commercial License) Copyright 2022 Fonticons, Inc. --><path d="M214.6 169.4L192 146.7l0 0L45.3 0S0 40 0 104c0 70.7 63.5 136.2 154.7 226.8L265.4 220.1l-50.7-50.7zM441.4 486.6L464 509.3 509.3 464l-22.6-22.6L355.9 310.6l-45.3 45.3L441.4 486.6zM488 24L464 0 345.8 76.8c-26.1 17-41.8 46-41.8 77.1c0 19.8 6.4 39 18.1 54.8L89.4 441.4 66.7 464 112 509.3l22.6-22.6L367.3 253.9c15.7 11.7 34.9 18.1 54.8 18.1c31.1 0 60.1-15.7 77.1-41.8L576 112 552 88 448 192l-16-16L528 64 512 48 400 144l-16-16L488 24z"/></svg>