<svg xmlns="http://www.w3.org/2000/svg" viewBox="0 0 576 512"><!--! Font Awesome Pro 6.2.0 by @fontawesome - https://fontawesome.com License - https://fontawesome.com/license (Commercial License) Copyright 2022 Fonticons, Inc. --><path d="M368 32c41.7 0 75.9 31.8 79.7 72.5L576 144v80L400.8 323.5 493.3 416H544h32v64H544 480 466.7l-9.4-9.4L346.9 360.2c11.7-36 3.2-77.1-25.4-105.7c-40.6-40.6-106.3-40.6-146.9-.1L101 324.4l-11.6 11 22.1 23.2 11.6-11 73.8-70.2 .1-.1 .1-.1c3.5-3.5 7.3-6.6 11.3-9.2c27.9-18.5 65.9-15.4 90.5 9.2c24.7 24.7 27.7 62.9 9 90.9c-2.6 3.8-5.6 7.5-9 10.9L261.8 416H320h32v64H320 32 0V448 416C0 249.6 127 112.9 289.3 97.5C296.2 60.2 328.8 32 368 32zm0 104c13.3 0 24-10.7 24-24s-10.7-24-24-24s-24 10.7-24 24s10.7 24 24 24z"/></svg>