<svg xmlns="http://www.w3.org/2000/svg" viewBox="0 0 640 512"><!--! Font Awesome Pro 6.2.0 by @fontawesome - https://fontawesome.com License - https://fontawesome.com/license (Commercial License) Copyright 2022 Fonticons, Inc. --><path d="M0 480H200l16-96H424l16 96H640L597.2 96 480 32H320 160L42.8 96 0 480zM432 312c-22.1 0-40-17.9-40-40s17.9-40 40-40s40 17.9 40 40s-17.9 40-40 40zM536 176c0 22.1-17.9 40-40 40s-40-17.9-40-40s17.9-40 40-40s40 17.9 40 40zm-320-8v32h32 24v48H248 216v32 24H168V280 248H136 112V200h24 32V168 144h48v24z"/></svg>