<svg xmlns="http://www.w3.org/2000/svg" viewBox="0 0 640 512"><!--! Font Awesome Pro 6.2.0 by @fontawesome - https://fontawesome.com License - https://fontawesome.com/license (Commercial License) Copyright 2022 Fonticons, Inc. --><path d="M125 8h70l10 48.1c13.8 5.2 26.5 12.7 37.5 22L285.6 64 320 123.4l-33.9 30.3c1.3 7.3 1.9 14.7 1.9 22.3s-.7 15.1-1.9 22.3L320 228.6 285.6 288l-43.1-14.2c-11.1 9.3-23.7 16.8-37.5 22L195 344H125l-10-48.1c-13.8-5.2-26.5-12.7-37.5-22L34.4 288 0 228.6l33.9-30.3C32.7 191.1 32 183.6 32 176s.7-15.1 1.9-22.3L0 123.4 34.4 64 77.5 78.2c11.1-9.3 23.7-16.8 37.5-22L125 8zm83 168c0-26.5-21.5-48-48-48s-48 21.5-48 48s21.5 48 48 48s48-21.5 48-48zM632 386.4l-47.8 9.8c-4.9 13.4-12 25.8-20.9 36.7l15 44.8L517.7 512l-30.9-34c-7.4 1.3-15 2-22.7 2s-15.4-.7-22.7-2l-30.9 34-60.6-34.4 15-44.8c-8.9-10.9-16-23.3-20.9-36.7L296 386.4V317.6l47.8-9.8c4.9-13.4 12-25.8 20.9-36.7l-15-44.8L410.3 192l30.9 34c7.4-1.3 15-2 22.7-2s15.4 .7 22.7 2l30.9-34 60.6 34.4-15 44.8c8.9 10.9 16 23.3 20.9 36.7l47.8 9.8v68.7zM464 400c26.5 0 48-21.5 48-48s-21.5-48-48-48s-48 21.5-48 48s21.5 48 48 48z"/></svg>