<svg xmlns="http://www.w3.org/2000/svg" viewBox="0 0 576 512"><!--! Font Awesome Pro 6.2.0 by @fontawesome - https://fontawesome.com License - https://fontawesome.com/license (Commercial License) Copyright 2022 Fonticons, Inc. --><path d="M0 32H576V480H0V32zM320 160H288v16V336v16h32V336 176 160zm32 0v16 80 80 16h32V336 272h64 16V240H448 384V192h80 16V160H464 368 352zM128 256c0-35.3 28.7-64 64-64c14.4 0 27.7 4.8 38.4 12.8l19.2-25.6c-16-12.1-36-19.2-57.6-19.2c-53 0-96 43-96 96s43 96 96 96c21.6 0 41.6-7.1 57.6-19.2L256 328v-8V264 248H240 184 168v32h16 40v31.4c-9.4 5.4-20.3 8.6-32 8.6c-35.3 0-64-28.7-64-64z"/></svg>