<svg xmlns="http://www.w3.org/2000/svg" viewBox="0 0 576 512"><!--! Font Awesome Pro 6.2.0 by @fontawesome - https://fontawesome.com License - https://fontawesome.com/license (Commercial License) Copyright 2022 Fonticons, Inc. --><path d="M61 31.9l21.8 3.2 88.7 13.2 23.7 3.5-7 47.5-23.7-3.5L97.6 85.8c-8.4 34.3-15.4 59.6-22.4 84.6l0 0-.3 1c-8.1 29-16.1 57.8-26.2 100.6H224h32v32h64V272h32H527.3c-10.1-42.8-18.1-71.7-26.2-100.6l-.3-1 0 0 0 0 0 0c-7-25-14-50.3-22.4-84.6l-66.9 9.9-23.7 3.5-7-47.5 23.7-3.5 88.7-13.2L515 31.9l5 21.5c10.5 44.8 18.8 74.3 27.1 104.2l.2 .9c8.5 30.3 17.1 61.2 28 108.1l.6 2.7V272v0 32 48 24 72 32H544 352 320V448 368H256v80 32H224 32 0V448 376 352 304 272v0-2.8l.6-2.7c10.9-46.9 19.5-77.7 28-108.1l.3-.9C37.2 127.7 45.5 98.1 56 53.4l5-21.5zM64 336v80H192V336H64zm320 80H512V336H384v80z"/></svg>