<svg xmlns="http://www.w3.org/2000/svg" viewBox="0 0 448 512"><!--! Font Awesome Pro 6.2.0 by @fontawesome - https://fontawesome.com License - https://fontawesome.com/license (Commercial License) Copyright 2022 Fonticons, Inc. --><path d="M31.9 0h35H383.3h35l-3.1 34.8-39.6 448L373.1 512H343.8 106.4 77.1l-2.6-29.2L35 34.8 31.9 0zm69.9 64l21 237.4L128 304c20.1 10.1 43.9 10.1 64 0s43.9-10.1 64 0s43.9 10.1 64 0l7.5-3.8L348.4 64H101.8zM224 96l47.9 53.9c10.4 11.7 16.1 26.7 16.1 42.4c0 35.2-28.8 63.8-64 63.8s-64-28.5-64-63.8c0-15.6 5.7-30.7 16.1-42.4L224 96z"/></svg>