<svg xmlns="http://www.w3.org/2000/svg" viewBox="0 0 512 512"><!--! Font Awesome Pro 6.2.0 by @fontawesome - https://fontawesome.com License - https://fontawesome.com/license (Commercial License) Copyright 2022 Fonticons, Inc. --><path d="M352 256c0-22.1-2.2-43.5-6.1-64H166.1c-3.9 20.5-6.1 41.9-6.1 64s2.2 43.5 6.1 64H345.9c3.9-20.5 6.1-41.9 6.1-64zm26.4-64c3.6 20.5 5.6 41.9 5.6 64s-2 43.5-5.6 64H503.9c5.3-20.5 8.1-41.9 8.1-64s-2.8-43.5-8.1-64H378.4zm115-32c-33-81.5-106.7-142.2-196-156.7c25.7 36.7 57 91 74 156.7h122zm-155.1 0c-11.4-40.2-28.4-75.9-45.8-105.4c-13-21.9-25.9-40-36.5-53.5c-10.5 13.5-23.5 31.6-36.5 53.5c-17.4 29.4-34.5 65.1-45.8 105.4H338.3zm-197.7 0c17-65.6 48.3-120 74-156.7C125.4 17.8 51.6 78.5 18.6 160h122zM8.1 192C2.8 212.5 0 233.9 0 256s2.8 43.5 8.1 64H133.6c-3.6-20.5-5.6-41.9-5.6-64s2-43.5 5.6-64H8.1zM173.7 352c11.4 40.2 28.4 75.9 45.8 105.4c13 21.9 25.9 40 36.5 53.5c10.5-13.5 23.5-31.6 36.5-53.5c17.4-29.4 34.5-65.1 45.8-105.4H173.7zm-33.2 0H18.6c33 81.5 106.7 142.2 196 156.7c-25.7-36.7-57-91-74-156.7zm352.8 0h-122c-17 65.6-48.3 120-74 156.7c89.2-14.5 163-75.2 196-156.7z"/></svg>