<svg xmlns="http://www.w3.org/2000/svg" viewBox="0 0 448 512"><!--! Font Awesome Pro 6.2.0 by @fontawesome - https://fontawesome.com License - https://fontawesome.com/license (Commercial License) Copyright 2022 Fonticons, Inc. --><path d="M380.8 384c41.5-40.7 67.2-97.3 67.2-160C448 100.3 347.7 0 224 0S0 100.3 0 224c0 62.7 25.7 119.3 67.2 160H192V352H112V336l80-80H144V240l80-80 80 80v16H256l80 80v16H256v32H380.8zM80 224c-8.8 0-16-7.2-16-16s7.2-16 16-16s16 7.2 16 16s-7.2 16-16 16zM256 80c0 8.8-7.2 16-16 16s-16-7.2-16-16s7.2-16 16-16s16 7.2 16 16zm80 112c-8.8 0-16-7.2-16-16s7.2-16 16-16s16 7.2 16 16s-7.2 16-16 16zM0 512H448l-64-96H64L0 512z"/></svg>