<svg xmlns="http://www.w3.org/2000/svg" viewBox="0 0 448 512"><!--! Font Awesome Pro 6.2.0 by @fontawesome - https://fontawesome.com License - https://fontawesome.com/license (Commercial License) Copyright 2022 Fonticons, Inc. --><path d="M23 359l-17 17L40 409.9l17-17 10.5-10.5c34.3 27.7 74.9 43.8 116.5 48.3V464H64v48H352V464H232V430.7c49.1-5.3 96.8-26.7 134.4-64.3c81.7-81.7 87.1-211 16.1-298.9L393 57l17-17L376 6.1 359 23 332.5 49.6l-17 17 17 17c68.7 68.7 68.7 180.2 0 248.9s-180.2 68.7-248.9 0l-17-17-17 17L23 359zm185-7c79.5 0 144-64.5 144-144s-64.5-144-144-144S64 128.5 64 208s64.5 144 144 144z"/></svg>