<svg xmlns="http://www.w3.org/2000/svg" viewBox="0 0 640 512"><!--! Font Awesome Pro 6.2.0 by @fontawesome - https://fontawesome.com License - https://fontawesome.com/license (Commercial License) Copyright 2022 Fonticons, Inc. --><path d="M32 32H0V64 448v32H64V448 96H576V448v32h64V448 64 32H608 32zm160 96H160v64H96v32h64v64H96v32h64v64H96v32h64v64h32V416h64v64h32V416h64v64h32V416h64v64h32V416h64V384H480V320h64V288H480V224h64V192H480V128H448v64H384V128H352v64H288V128H256v64H192V128zm64 256H192V320h64v64zm96 0H288V320h64v64zm96 0H384V320h64v64zm0-96H384V224h64v64zm-96 0H288V224h64v64zm-96 0H192V224h64v64z"/></svg>