<svg xmlns="http://www.w3.org/2000/svg" viewBox="0 0 384 512"><!--! Font Awesome Pro 6.2.0 by @fontawesome - https://fontawesome.com License - https://fontawesome.com/license (Commercial License) Copyright 2022 Fonticons, Inc. --><path d="M384 192c0 66.8-34.1 125.6-85.8 160H85.8C34.1 317.6 0 258.8 0 192C0 86 86 0 192 0S384 86 384 192zM242.1 256.6c0 18.5-15 33.5-33.5 33.5c-4.9 0-9.6-1.1-13.8-3c5.3 11.6 16.9 19.7 30.5 19.7c18.5 0 33.5-15 33.5-33.5c0-13.6-8.1-25.3-19.7-30.5c1.9 4.2 3 8.9 3 13.8zm-52.3-49.3c-4.9 0-9.6-1.1-13.8-3c5.3 11.6 16.9 19.7 30.5 19.7c18.5 0 33.5-15 33.5-33.5c0-13.6-8.1-25.3-19.7-30.5c1.9 4.2 3 8.9 3 13.8c0 18.5-15 33.5-33.5 33.5zm113.5-17.5c0 18.5-15 33.5-33.5 33.5c-4.9 0-9.6-1.1-13.8-3c5.3 11.6 16.9 19.7 30.5 19.7c18.5 0 33.5-15 33.5-33.5c0-13.6-8.1-25.3-19.7-30.5c1.9 4.2 3 8.9 3 13.8zM96 448V384H288v64H224v64H160V448H96z"/></svg>