<svg xmlns="http://www.w3.org/2000/svg" viewBox="0 0 512 512"><!--! Font Awesome Pro 6.2.0 by @fontawesome - https://fontawesome.com License - https://fontawesome.com/license (Commercial License) Copyright 2022 Fonticons, Inc. --><path d="M360 0s-40 40-40 80s7.3 55.3 32 80s40 32 80 32s80-40 80-40s-32-40-80-40c-32 0-40 8-40 8s8-8 8-40c0-48-40-80-40-80zM304 152c0-30.9-25.1-56-56-56s-56 25.1-56 56s25.1 56 56 56s56-25.1 56-56zM112 232c30.9 0 56-25.1 56-56s-25.1-56-56-56s-56 25.1-56 56s25.1 56 56 56zm32 80c0-30.9-25.1-56-56-56s-56 25.1-56 56s25.1 56 56 56s56-25.1 56-56zM112 456c0-30.9-25.1-56-56-56s-56 25.1-56 56s25.1 56 56 56s56-25.1 56-56zm144-32c0-30.9-25.1-56-56-56s-56 25.1-56 56s25.1 56 56 56s56-25.1 56-56zm80 32c30.9 0 56-25.1 56-56s-25.1-56-56-56s-56 25.1-56 56s25.1 56 56 56zM280 288c0-30.9-25.1-56-56-56s-56 25.1-56 56s25.1 56 56 56s56-25.1 56-56zm80 32c30.9 0 56-25.1 56-56s-25.1-56-56-56s-56 25.1-56 56s25.1 56 56 56z"/></svg>