<svg xmlns="http://www.w3.org/2000/svg" viewBox="0 0 576 512"><!--! Font Awesome Pro 6.2.0 by @fontawesome - https://fontawesome.com License - https://fontawesome.com/license (Commercial License) Copyright 2022 Fonticons, Inc. --><path d="M0 32H32h96 96 96 96 32V64v93.9L343.7 318.1c-15.4 23.7-23.7 51.4-23.7 79.7V400c0 29.6 8.9 57.1 24.2 80H320 224 128 32 0V448 256 64 32zM64 96V224H96V96H64zm0 320H96V288H64V416zm128 0V288H160V416h32zm96 0V288H256V416h32zM384 96H352V224h32V96zM256 96V224h32V96H256zm-96 0V224h32V96H160zm304 96l93.5 143.6c12.1 18.5 18.5 40.2 18.5 62.3V400c0 61.9-50.1 112-112 112s-112-50.1-112-112v-2.1c0-22.1 6.4-43.7 18.5-62.3L464 192z"/></svg>