<svg xmlns="http://www.w3.org/2000/svg" viewBox="0 0 448 512"><!--! Font Awesome Pro 6.2.0 by @fontawesome - https://fontawesome.com License - https://fontawesome.com/license (Commercial License) Copyright 2022 Fonticons, Inc. --><path d="M0 32v89.6H89.6V32H0zM0 151.5v89.6H89.6V151.5H0zM89.6 270.9H0v89.6H89.6V270.9zM0 390.4V480H89.6V390.4H0zM119.5 32v89.6h89.6V32H119.5zm0 119.5v89.6h89.6V151.5H119.5zm89.6 119.5H119.5v89.6h89.6V270.9zM119.5 390.4V480h89.6V390.4H119.5zM328.5 32H238.9v89.6h89.6V32zm0 119.5H238.9v89.6h89.6V151.5zM238.9 270.9v89.6h89.6V270.9H238.9zm89.6 119.5H238.9V480h89.6V390.4zM358.4 32v89.6H448V32H358.4zm0 119.5v89.6H448V151.5H358.4zM448 270.9H358.4v89.6H448V270.9zM358.4 390.4V480H448V390.4H358.4z"/></svg>