<svg xmlns="http://www.w3.org/2000/svg" viewBox="0 0 384 512"><!--! Font Awesome Pro 6.2.0 by @fontawesome - https://fontawesome.com License - https://fontawesome.com/license (Commercial License) Copyright 2022 Fonticons, Inc. --><path d="M224 0H160V66.7C69.2 81.9 0 160.9 0 256s69.2 174.1 160 189.3V512h64V445.3c90.8-15.2 160-94.2 160-189.3V224H352 224V132c22.1 5.7 41.8 17.1 57.6 32.6l44.8-45.7C299 92 263.5 73.3 224 66.7V0zM160 132V380c-55.2-14.2-96-64.3-96-124s40.8-109.8 96-124zM224 380V288h92c-11.6 45-47 80.4-92 92z"/></svg>