<svg xmlns="http://www.w3.org/2000/svg" viewBox="0 0 640 512"><!--! Font Awesome Pro 6.2.0 by @fontawesome - https://fontawesome.com License - https://fontawesome.com/license (Commercial License) Copyright 2022 Fonticons, Inc. --><path d="M48.4 14.8L29.4 .1 0 38 19 52.7 591.5 497.2l19 14.7L639.9 474l-19-14.7L412.4 297.4 432.9 240H480l32-32h96V64H560V56 32H512V56v8H111.8L48.4 14.8zM194.2 128H512v32H235.4l-41.2-32zM338.5 240h43.5l-9.4 26.4-34-26.4zM32 121.2V240h92L64 480H224l32-128h68.9L32 121.2z"/></svg>