<svg xmlns="http://www.w3.org/2000/svg" viewBox="0 0 640 512"><!--! Font Awesome Pro 6.2.0 by @fontawesome - https://fontawesome.com License - https://fontawesome.com/license (Commercial License) Copyright 2022 Fonticons, Inc. --><path d="M64 96V64H0V96 256 416v32H64V416 288H256V416v32h64V416 256 96 64H256V96 224H64V96zm560 13.3V64H592 400 368v64h32H514.7L432 210.7V272h16 72c30.9 0 56 25.1 56 56s-25.1 56-56 56H459.7c-11 0-20.6-7.5-23.3-18.2L431 344.2 369 359.8l5.4 21.6c9.8 39.2 45 66.7 85.4 66.7H520c66.3 0 120-53.7 120-120c0-64.6-51-117.2-114.9-119.9l89.5-89.5 9.4-9.4z"/></svg>