<svg xmlns="http://www.w3.org/2000/svg" viewBox="0 0 640 512"><!--! Font Awesome Pro 6.2.0 by @fontawesome - https://fontawesome.com License - https://fontawesome.com/license (Commercial License) Copyright 2022 Fonticons, Inc. --><path d="M64 96V64H0V96 256 416v32H64V416 288H256V416v32h64V416 256 96 64H256V96 224H64V96zM432 64H403.2l-3 28.7-16 152L380.5 280H416 524c28.7 0 52 23.3 52 52s-23.3 52-52 52H459.7c-11 0-20.6-7.5-23.3-18.2L431 344.2 369 359.8l5.4 21.6c9.8 39.2 45 66.7 85.4 66.7H524c64.1 0 116-51.9 116-116s-51.9-116-116-116H451.5l9.3-88H576h32V64H576 432z"/></svg>