<svg xmlns="http://www.w3.org/2000/svg" viewBox="0 0 640 512"><!--! Font Awesome Pro 6.2.0 by @fontawesome - https://fontawesome.com License - https://fontawesome.com/license (Commercial License) Copyright 2022 Fonticons, Inc. --><path d="M64 64V96 224H256V96 64h64V96 256 416v32H256V416 288H64V416v32H0V416 256 96 64H64zM496 384c44.2 0 80-35.8 80-80s-35.8-80-80-80s-80 35.8-80 80s35.8 80 80 80zM352 304c0-38 12.1-75 34.6-105.6L485.1 64h79.4l-70.4 96c.6 0 1.3 0 1.9 0c79.5 0 144 64.5 144 144s-64.5 144-144 144s-144-64.5-144-144z"/></svg>