<svg xmlns="http://www.w3.org/2000/svg" viewBox="0 0 512 512"><!--! Font Awesome Pro 6.2.0 by @fontawesome - https://fontawesome.com License - https://fontawesome.com/license (Commercial License) Copyright 2022 Fonticons, Inc. --><path d="M0 288H96V32h80V224h40V0h80V224h40V32h80V288h96v48L416.6 441c-41.1 45.2-99.4 71-160.6 71s-119.4-25.8-160.6-71L0 336V288zm256 0c-48 0-96 64-96 64s48 64 96 64s96-64 96-64s-48-64-96-64zm0 96c-17.7 0-32-14.3-32-32s14.3-32 32-32s32 14.3 32 32s-14.3 32-32 32z"/></svg>