<svg xmlns="http://www.w3.org/2000/svg" viewBox="0 0 576 512"><!--! Font Awesome Pro 6.2.0 by @fontawesome - https://fontawesome.com License - https://fontawesome.com/license (Commercial License) Copyright 2022 Fonticons, Inc. --><path d="M251.2 39.7L242.9 8.8 181.1 25.4l8.3 30.9L242.9 256H213.3L166.6 102.7l-9.3-30.6L96.1 90.7l9.3 30.6 71.7 235.5-61.6-58.6-29-27.6L31.4 328.5l29 27.6L156.8 448c43.1 41.1 100.4 64 160 64h10.9H336v-.2c58.3-3.5 108.7-43.1 125.5-99.7l81.2-275 9.1-30.7L490.4 88.2l-9.1 30.7L440.8 256H416.1L455.3 70.6l6.6-31.3L399.3 26.1l-6.6 31.3L350.7 256H309.1L251.2 39.7z"/></svg>