<svg xmlns="http://www.w3.org/2000/svg" viewBox="0 0 512 512"><!--! Font Awesome Pro 6.2.0 by @fontawesome - https://fontawesome.com License - https://fontawesome.com/license (Commercial License) Copyright 2022 Fonticons, Inc. --><path d="M384 64c-17.7 0-32-14.3-32-32s14.3-32 32-32s32 14.3 32 32s-14.3 32-32 32zm-57.6 55.4l41.6 24-12 20.8-14.7 25.5-8.9-28-37.2 11.8 19.2-33.3 12-20.8zM183.5 209C112.3 231.7 64 297.8 64 372.5c0 1.5 0 3 .1 4.5C24.3 351.4 0 307.3 0 259.6V136 112H48v24l0 81.7L159.8 24l12-20.8 41.6 24L201.4 48 137.7 158.3l13.9 8 84-145.5L247.6 0l41.6 24-12 20.8-84 145.5 13.9 8L275 80.5l12-20.8 41.6 24-12 20.8-44 76.2L183.5 209zM424 512H223.3 216c-22.7 0-44-6.3-62.1-17.3c3.9-9.5 6.1-19.8 6.1-30.7c0-38.7-27.5-71-64-78.4l0-.9c0-68 44-128.2 108.9-148.9l83.9-26.7 22.9-7.3 14.6 45.7-22.9 7.3L249.4 272H456h24v48H456 320v16H488h24v48H488 320v16H456h24v48H456 320v16H424h24v48H424zm88-336c0 26.5-21.5 48-48 48s-48-21.5-48-48s21.5-48 48-48s48 21.5 48 48zM80 512c-26.5 0-48-21.5-48-48s21.5-48 48-48s48 21.5 48 48s-21.5 48-48 48z"/></svg>