<svg xmlns="http://www.w3.org/2000/svg" viewBox="0 0 576 512"><!--! Font Awesome Pro 6.2.0 by @fontawesome - https://fontawesome.com License - https://fontawesome.com/license (Commercial License) Copyright 2022 Fonticons, Inc. --><path d="M436 217l71.2-57H576V32H544 352 192 179.6l-10.2 7-128 88-33 22.7 45.3 65.9 33-22.7 94.5-65H320v32H288 224 192v64h32 64 64 64 11.2l8.8-7zM140 295L68.8 352H0V480H32 224 384h12.4l10.2-7 128-88 33-22.7-45.3-65.9-33 22.7-94.5 65H256V352h32 64 32V288H352 288 224 160 148.8l-8.8 7z"/></svg>