<svg xmlns="http://www.w3.org/2000/svg" viewBox="0 0 448 512"><!--! Font Awesome Pro 6.2.0 by @fontawesome - https://fontawesome.com License - https://fontawesome.com/license (Commercial License) Copyright 2022 Fonticons, Inc. --><path d="M96 0h64V32 96v32H0L43.6 80 0 32H96V0zm0 160h64v80H96V160zm192 0h64V288H288V160zm-32-32V240H192V128h64zm128 64h64V320H384V192zM64 363V272H256v48 32H160 144v32h16H272h16V368 320h64v32h96c0 88.4-71.6 160-160 160H226.3c-42.4 0-83.1-16.9-113.1-46.9l-11.6-11.6C77.5 429.5 64 396.9 64 363z"/></svg>