<svg xmlns="http://www.w3.org/2000/svg" viewBox="0 0 640 512"><!--! Font Awesome Pro 6.2.0 by @fontawesome - https://fontawesome.com License - https://fontawesome.com/license (Commercial License) Copyright 2022 Fonticons, Inc. --><path d="M320 256c-70.7 0-128-57.3-128-128S249.3 0 320 0s128 57.3 128 128s-57.3 128-128 128zM80 64v40 8 32 80 66.7l84.1 84.1L205.8 347l-36.4-36.4L146.7 288l-9.4-9.4L114.7 256 160 210.7l22.6 22.6 9.4 9.4 22.6 22.6 64 64 9.4 9.4V352v64 32 32 32H256 160 146.7l-9.4-9.4-128-128L0 365.3V352 224 160 128 104 64H80zm480 0h80v40 24 32 64V352v13.3l-9.4 9.4-128 128-9.4 9.4H480 384 352V480 448 416 352 338.7l9.4-9.4 64-64L448 242.7l9.4-9.4L480 210.7 525.3 256l-22.6 22.6-9.4 9.4-22.6 22.6L434.2 347l41.7 27.8L560 290.7V224 144 112v-8V64z"/></svg>