<svg xmlns="http://www.w3.org/2000/svg" viewBox="0 0 576 512"><!--! Font Awesome Pro 6.2.0 by @fontawesome - https://fontawesome.com License - https://fontawesome.com/license (Commercial License) Copyright 2022 Fonticons, Inc. --><path d="M96 0c0 88.4 71.6 160 160 160v96 32h64V256 160C320 71.6 248.4 0 160 0H96zM480 0H416c-40.7 0-77.8 15.2-106 40.1c25.7 32.1 41.3 72.6 42 116.7C425 142 480 77.4 480 0zM140 327L68.8 384H0V512H32 224 384h12.4l10.2-7 128-88 33-22.7-45.3-65.9-33 22.7-94.5 65H256V384h32 64 32V320H352 288 224 160 148.8l-8.8 7z"/></svg>