<svg xmlns="http://www.w3.org/2000/svg" viewBox="0 0 512 512"><!--! Font Awesome Pro 6.2.0 by @fontawesome - https://fontawesome.com License - https://fontawesome.com/license (Commercial License) Copyright 2022 Fonticons, Inc. --><path d="M0 96l0 64 240 0V96L0 96zM160 288v64H288V288H160zm-32-32H240V192H128v64zm64 128l0 64H320V384H192zM363 64H272l0 192h48l32 0 0-96V144h32v16l0 112v16H368l-48 0v64l32 0v96c88.4 0 160-71.6 160-160V226.3c0-42.4-16.9-83.1-46.9-113.1l-11.6-11.6C429.5 77.5 396.9 64 363 64z"/></svg>