<svg xmlns="http://www.w3.org/2000/svg" viewBox="0 0 512 512"><!--! Font Awesome Pro 6.2.0 by @fontawesome - https://fontawesome.com License - https://fontawesome.com/license (Commercial License) Copyright 2022 Fonticons, Inc. --><path d="M288 0V32 256h32V64 32h64V64 256h32V128 96h64v32V336c0 97.2-78.8 176-176 176H284.8c-59.6 0-116.9-22.9-160-64L29.3 357 .3 329.4l55.2-57.9 29 27.6 43.6 41.5c0-1.5-.1-3.1-.1-4.6V64 32h64V64 256h32V32 0h64zM213.4 359.5c0 10.7 4.4 21 12.1 28.4L280.7 441l7.4 7.1 7.4-7.1 55.2-53.1c7.7-7.4 12.1-17.7 12.1-28.4c0-21.8-17.7-39.5-39.5-39.5h-1.6c-10.6 0-20.8 4.1-28.5 11.5l-5.1 4.9-5.1-4.9c-7.7-7.4-17.9-11.5-28.5-11.5h-1.6c-21.8 0-39.5 17.7-39.5 39.5z"/></svg>