<svg xmlns="http://www.w3.org/2000/svg" viewBox="0 0 576 512"><!--! Font Awesome Pro 6.2.0 by @fontawesome - https://fontawesome.com License - https://fontawesome.com/license (Commercial License) Copyright 2022 Fonticons, Inc. --><path d="M64 32V0H0V32 64 96v80 16 32 11.8l7.7 9L99.6 352H96 72v48H96h32H256h64H448h32 24V352H480h-3.6l91.9-107.2 7.7-9V224 192 176 96 64 32 0H512V32 64 96v67.9l-76.2 86.4L400.1 226l39.8-44.8 21.3-23.9-47.8-42.5-21.3 23.9-64 72-8.1 9.1V232v88 32H256V320 232 219.8l-8.1-9.1-64-72-21.3-23.9-47.8 42.5 21.3 23.9L175.9 226l-35.7 24.2L64 163.9V96 64 32zM96 432H72v48H96h32v32H256V480h64v32H448V480h32 24V432H480 448 320 256 128 96z"/></svg>