<svg xmlns="http://www.w3.org/2000/svg" viewBox="0 0 512 512"><!--! Font Awesome Pro 6.2.0 by @fontawesome - https://fontawesome.com License - https://fontawesome.com/license (Commercial License) Copyright 2022 Fonticons, Inc. --><path d="M352 80c0-26.5-21.5-48-48-48h-8H280V0h16 8c44.2 0 80 35.8 80 80v8 16H352V88 80zM185.4 70.6L162.7 48 208 2.7l22.6 22.6 192 192c3.3 3.3 6.4 6.7 9.4 10.2l0-99.5V96l32 0 16 0 32 0v32V312.3c0 60.2-27.9 116.9-75.5 153.7C385.7 505.3 321 515.7 263 498.7c-28.4-7.1-55.3-21.8-77.6-44.1l-4.9-4.9L73.4 342.6 50.7 320l-9.4-9.4L18.7 288 64 242.7l22.6 22.6 9.4 9.4 22.6 22.6 56 56 18.7-18.7-136-136L34.7 176 80 130.7l22.6 22.6 136 136 18.7-18.7-152-152L82.7 96 128 50.7l22.6 22.6 152 152 18.7-18.7-136-136zM32 344v16 8c0 26.5 21.5 48 48 48h8 16v32H88 80c-44.2 0-80-35.8-80-80v-8V344H32z"/></svg>