<svg xmlns="http://www.w3.org/2000/svg" viewBox="0 0 640 512"><!--! Font Awesome Pro 6.2.0 by @fontawesome - https://fontawesome.com License - https://fontawesome.com/license (Commercial License) Copyright 2022 Fonticons, Inc. --><path d="M48.4 14.8L29.4 .1 0 38 19 52.7 591.5 497.2l19 14.7L639.9 474l-19-14.7L509 372.4l6.8-7.4-35.4-32.4-134.2-123-23.4 18.2-26.1-20.3 77.4-60.2 12.6-9.8 19.6 25.3-12.6 9.8-20.9 16.2L550.2 352H640V128H592 516h-4-.7l-3.9-2.5L411.3 64H349.7L233.2 158.3l-26-20.2L298.8 64H224l-60.4 40.3L48.4 14.8zM0 128V352H156.2l73.9 67.4 35.4 32.4 47.7-52.2 22.3 20.5 35.4 32.4 34.2-37.3L40.6 128H0z"/></svg>