<svg xmlns="http://www.w3.org/2000/svg" viewBox="0 0 640 512"><!--! Font Awesome Pro 6.2.0 by @fontawesome - https://fontawesome.com License - https://fontawesome.com/license (Commercial License) Copyright 2022 Fonticons, Inc. --><path d="M320 80c-22.1 0-40-17.9-40-40s17.9-40 40-40s40 17.9 40 40s-17.9 40-40 40zM290.5 96h59.1 8.8l6.7 5.7 50.5 42.7 18.3 15.5-31 36.7L384.5 181l-19.8-16.7L375.8 253l3 23.8-47.6 6-3-23.8-4.4-35h-7.6l-4.4 35-3 23.8-47.6-6 3-23.8 11.1-88.8L255.5 181l-18.3 15.5-31-36.7 18.3-15.5L275 101.7l6.7-5.7h8.8zM80 64v40 8 32 80 66.7l84.1 84.1L205.8 347l-36.4-36.4L146.7 288l-9.4-9.4L114.7 256 160 210.7l22.6 22.6 9.4 9.4 22.6 22.6 64 64 9.4 9.4V352v64 32 32 32H256 160 146.7l-9.4-9.4-128-128L0 365.3V352 224 160 128 104 64H80zm480 0h80v40 24 32 64V352v13.3l-9.4 9.4-128 128-9.4 9.4H480 384 352V480 448 416 352 338.7l9.4-9.4 64-64L448 242.7l9.4-9.4L480 210.7 525.3 256l-22.6 22.6-9.4 9.4-22.6 22.6L434.2 347l41.7 27.8L560 290.7V224 144 112v-8V64z"/></svg>