<svg xmlns="http://www.w3.org/2000/svg" viewBox="0 0 640 512"><!--! Font Awesome Pro 6.2.0 by @fontawesome - https://fontawesome.com License - https://fontawesome.com/license (Commercial License) Copyright 2022 Fonticons, Inc. --><path d="M344 32v2.9c6.4 1.2 14.3 2.8 18.2 3.9L385.4 45 373 91.4l-23.2-6.2c-3.7-1-17-3.6-21.3-4.3c-11.6-1.8-20.8-.3-26.4 2.3c-5.5 2.5-5.9 4.8-5.9 5.1l0 0c-.3 1.5-.2 2.3-.2 2.7c.2 .2 .7 .9 2.2 1.9c5.5 3.7 14.4 6.6 28.8 10.9l1 .3c12 3.6 28.7 8.7 41.4 17.9c7.1 5.2 14 12.3 18.2 22.1c4.3 9.9 5.1 20.7 3.2 31.7c-3.6 20.6-17.3 34.5-34 41.7c-4.2 1.8-8.5 3.2-13 4.2V224v24H296l0-24v-3.2c-9.3-2.4-20.3-6.1-27.3-8.5l0 0 0 0c-1.7-.6-3.1-1.1-4.2-1.4l-22.8-7.6 15.2-45.5 22.8 7.6c2.1 .7 4.3 1.5 6.6 2.2c9.5 3.2 19.7 6.7 25.4 7.6c12.3 1.9 21.4 .6 26.6-1.6c4.4-1.9 5.3-3.8 5.6-5.8c.3-1.8 .3-2.9 .2-3.5c-.1-.6-.2-.8-.2-.9l0 0c0-.1-.4-.9-2.4-2.4c-5.2-3.8-14-6.8-28.1-11.1l-2.3-.7c-11.6-3.5-27.5-8.2-39.6-16.5c-7-4.8-14.1-11.5-18.7-21.1c-4.6-9.8-5.6-20.5-3.7-31.4c3.5-20 17.6-33.5 33.4-40.7c4.3-2 8.9-3.5 13.6-4.7V32 8h48V32zM296.1 91.2s0 0 0-.1c0 .1 0 .1 0 .1zM80 64v40 8 32 80 66.7l84.1 84.1L205.8 347l-36.4-36.4L146.7 288l-9.4-9.4L114.7 256 160 210.7l22.6 22.6 9.4 9.4 22.6 22.6 64 64 9.4 9.4V352v64 32 32 32H256 160 146.7l-9.4-9.4-128-128L0 365.3V352 224 160 128 104 64H80zm480 0h80v40 24 32 64V352v13.3l-9.4 9.4-128 128-9.4 9.4H480 384 352V480 448 416 352 338.7l9.4-9.4 64-64L448 242.7l9.4-9.4L480 210.7 525.3 256l-22.6 22.6-9.4 9.4-22.6 22.6L434.2 347l41.7 27.8L560 290.7V224 144 112v-8V64z"/></svg>