<svg xmlns="http://www.w3.org/2000/svg" viewBox="0 0 576 512"><!--! Font Awesome Pro 6.2.0 by @fontawesome - https://fontawesome.com License - https://fontawesome.com/license (Commercial License) Copyright 2022 Fonticons, Inc. --><path d="M148 74c0 20.1 8.2 39.4 22.7 53.3l103.4 99.5L288 240.2l13.9-13.3 103.4-99.5C419.8 113.4 428 94.1 428 74c0-40.9-33.1-74-74-74h-3c-19.9 0-39 7.7-53.4 21.5L288 30.7l-9.6-9.2C264.1 7.7 244.9 0 225 0h-3c-40.9 0-74 33.1-74 74zm-8 253L68.8 384H0V512H32 224 384h12.4l10.2-7 128-88 33-22.7-45.3-65.9-33 22.7-94.5 65H256V384h32 64 32V320H352 288 224 160 148.8l-8.8 7z"/></svg>