<svg xmlns="http://www.w3.org/2000/svg" viewBox="0 0 384 512"><!--! Font Awesome Pro 6.2.0 by @fontawesome - https://fontawesome.com License - https://fontawesome.com/license (Commercial License) Copyright 2022 Fonticons, Inc. --><path d="M101 35.6L87.5 6.6l-58 27.1L43 62.6l32 68.7 35.3-75.7L101 35.6zM165.6 240H192v-9.4L181 207l-15.4 33zM288 320H224v48 16H208 96 80V352H96h96V320 272H150.6 115.3 80 0v91c0 33.9 13.5 66.5 37.5 90.5l11.6 11.6c30 30 70.7 46.9 113.1 46.9H224c88.4 0 160-71.6 160-160H288V320zM212.8 63l13.5-29-58-27.1-13.5 29L59.6 240h70.6L212.8 63zM224 160V288h64V160H224zm96 32V320h64V192H320z"/></svg>