<svg xmlns="http://www.w3.org/2000/svg" viewBox="0 0 512 512"><!--! Font Awesome Pro 6.2.0 by @fontawesome - https://fontawesome.com License - https://fontawesome.com/license (Commercial License) Copyright 2022 Fonticons, Inc. --><path d="M185.6 119.4l-41.6 24 12 20.8 14.7 25.5 8.9-28 37.2 11.8-19.2-33.3-12-20.8zM328.5 209C399.7 231.7 448 297.8 448 372.5c0 1.5 0 3-.1 4.5c39.7-25.6 64.1-69.7 64.1-117.4L512 136V112l-48 0v24l0 81.7L352.2 24l-12-20.8-41.6 24 12 20.8 63.7 110.3-13.9 8-84-145.5L264.4 0 222.9 24l12 20.8 84 145.5-13.9 8L237 80.5 225 59.7l-41.6 24 12 20.8 44 76.2L328.5 209zM88 512H288.7 296c66.3 0 120-53.7 120-120c0-1.2 0-2.4-.1-3.6c0-1.2 .1-2.5 .1-3.7c0-68-44-128.2-108.9-148.9l-83.9-26.7-22.9-7.3-14.6 45.7 22.9 7.3L262.6 272H56 32v48H56 192v16H24 0v48H24 192v16H56 32v48H56 192v16H88 64v48H88z"/></svg>