<svg xmlns="http://www.w3.org/2000/svg" viewBox="0 0 512 512"><!--! Font Awesome Pro 6.2.0 by @fontawesome - https://fontawesome.com License - https://fontawesome.com/license (Commercial License) Copyright 2022 Fonticons, Inc. --><path d="M512 96v64H272V96H512zM352 288v64l-128 0V288l128 0zm32-32l-112 0V192l112 0v64zM320 384v64H192V384H320zM149 64l91 0 0 192H192 160V160 144H128v16l0 112v16h16 48v64H160v96C71.6 448 0 376.4 0 288l0-61.7c0-42.4 16.9-83.1 46.9-113.1l11.6-11.6C82.5 77.5 115.1 64 149 64z"/></svg>