<svg xmlns="http://www.w3.org/2000/svg" viewBox="0 0 448 512"><!--! Font Awesome Pro 6.2.0 by @fontawesome - https://fontawesome.com License - https://fontawesome.com/license (Commercial License) Copyright 2022 Fonticons, Inc. --><path d="M308.9 32h64.9l-16 96H432h12.9l-10.7 64H432 347.1L325.8 320H400h12.9l-10.7 64H400 315.1l-16 96H234.2l16-96H155.1l-16 96H74.2l16-96H16 3.1l10.7-64H16h84.9l21.3-128H48 35.1l10.7-64H48h84.9l16-96h64.9l-16 96h95.1l16-96zM165.8 320h95.1l21.3-128H187.1L165.8 320z"/></svg>