<svg xmlns="http://www.w3.org/2000/svg" viewBox="0 0 512 512"><!--! Font Awesome Pro 6.2.0 by @fontawesome - https://fontawesome.com License - https://fontawesome.com/license (Commercial License) Copyright 2022 Fonticons, Inc. --><path d="M256 0l23.3 23.8 33.3-.4-.4 33.3L336 80l-23.8 23.3 .4 33.3-33.3-.4L256 160l-23.3-23.8-33.3 .4 .4-33.3L176 80l23.8-23.3-.4-33.3 33.3 .4L256 0zM0 448H32 480h32v64H480 32 0V448zM60.8 292.5C80.3 243.2 113 191.7 167.1 164.2L167 169l32.8-.4 19.6-.2 13.7 14L256 205.8l22.9-23.4 13.7-14 19.6 .2L345 169l-.1-4.8c54.1 27.5 86.8 79 106.3 128.3l-18.7 9.4-48.6-27.8-7.9-4.5-7.9 4.5-48.6 27.8-56.3-28.2-7.2-3.6-7.2 3.6-56.3 28.2-48.6-27.8-7.9-4.5-7.9 4.5L79.5 301.9l-18.7-9.4zM50.1 322.9l22.7 11.4 7.7 3.8 7.4-4.2L136 306.4l48.1 27.5 7.4 4.2 7.7-3.8L256 305.9l56.8 28.4 7.7 3.8 7.4-4.2L376 306.4l48.1 27.5 7.4 4.2 7.7-3.8 22.7-11.4C477.5 374 480 416 480 416H32s2.5-42 18.1-93.1z"/></svg>