<svg xmlns="http://www.w3.org/2000/svg" viewBox="0 0 512 512"><!--! Font Awesome Pro 6.2.0 by @fontawesome - https://fontawesome.com License - https://fontawesome.com/license (Commercial License) Copyright 2022 Fonticons, Inc. --><path d="M153.5 51.3C176.9 20.2 214.1 0 256 0s79.1 20.2 102.5 51.3C374.6 39.2 394.7 32 416.4 32C469 32 512 74.6 512 127.2c0 11.1-1.9 22.1-5.7 32.5L448 320H373.8l26-149.3 2.7-15.8L371 149.5l-2.7 15.8L341.3 320H272V160 144H240v16V320H170.7L143.8 165.3 141 149.5 109.5 155l2.7 15.8 26 149.3H64L5.7 159.8C1.9 149.3 0 138.3 0 127.2C0 74.6 43 32 95.6 32c21.7 0 41.7 7.2 57.9 19.3zM448 352V512H64V352H448z"/></svg>