<svg xmlns="http://www.w3.org/2000/svg" viewBox="0 0 512 512"><!--! Font Awesome Pro 6.2.0 by @fontawesome - https://fontawesome.com License - https://fontawesome.com/license (Commercial License) Copyright 2022 Fonticons, Inc. --><path d="M0 224.2C0 100.6 100.2 0 224 0h32C358.1 0 441.6 79.7 447.7 180.3L505 252l7 8.8V272v16 32H480 448v96 32H416 320v32 32H288 96 64V480 381.2c-41-41.9-64-98.3-64-157zm128-35c0 16.2 6.5 31.8 17.9 43.3l82.7 82.7L240 326.6l11.3-11.3 82.7-82.7c11.5-11.5 17.9-27.1 17.9-43.3c0-33.8-27.4-61.3-61.3-61.3c-16.2 0-31.8 6.5-43.3 17.9l-7.4 7.4-7.4-7.4c-11.5-11.5-27.1-17.9-43.3-17.9c-33.8 0-61.3 27.4-61.3 61.3z"/></svg>