<svg xmlns="http://www.w3.org/2000/svg" viewBox="0 0 512 512"><!--! Font Awesome Pro 6.2.0 by @fontawesome - https://fontawesome.com License - https://fontawesome.com/license (Commercial License) Copyright 2022 Fonticons, Inc. --><path d="M0 224.2C0 100.6 100.2 0 224 0h32C358.1 0 441.6 79.7 447.7 180.3L505 252l7 8.8V272v16 32H480 448v96 32H416 320v32 32H288 96 64V480 381.2c-41-41.9-64-98.3-64-157zM330.5 110.9l-11.3 11.3C295.9 145.5 256 129 256 96V80H240 224V96c0 33-39.9 49.5-63.2 26.2l-11.3-11.3-11.3 11.3 0 0-11.3 11.3 11.3 11.3C161.5 168.1 145 208 112 208H96v16 16h16c33 0 49.5 39.9 26.2 63.2l-11.3 11.3 11.3 11.3 0 0 11.3 11.3 11.3-11.3C184.1 302.5 224 319 224 352v16h16 16V352c0-33 39.9-49.5 63.2-26.2l11.3 11.3 11.3-11.3 11.3-11.3-11.3-11.3C318.5 279.9 335 240 368 240h16V224 208H368c-33 0-49.5-39.9-26.2-63.2l11.3-11.3-11.3-11.3-11.3-11.3zM216 224c-13.3 0-24-10.7-24-24s10.7-24 24-24s24 10.7 24 24s-10.7 24-24 24zm72 32c0 8.8-7.2 16-16 16s-16-7.2-16-16s7.2-16 16-16s16 7.2 16 16z"/></svg>