<svg xmlns="http://www.w3.org/2000/svg" viewBox="0 0 512 512"><!--! Font Awesome Pro 6.2.0 by @fontawesome - https://fontawesome.com License - https://fontawesome.com/license (Commercial License) Copyright 2022 Fonticons, Inc. --><path d="M160 106.8V9.3C67.4 36.9 0 122.8 0 224.2c0 58.7 23 115.1 64 157V480v32H96 288h32V480 448h96 32V416 320h32 32V288 272 260.8l-7-8.8-57.3-71.7C441.6 79.7 358.1 0 256 0V106.8c37.8 18 64 56.5 64 101.2c0 61.9-50.1 112-112 112s-112-50.1-112-112c0-44.7 26.2-83.2 64-101.2zM240 208c0 17.7-14.3 32-32 32s-32-14.3-32-32s14.3-32 32-32s32 14.3 32 32zm48 0c0-44.2-35.8-80-80-80s-80 35.8-80 80s35.8 80 80 80s80-35.8 80-80z"/></svg>