<svg xmlns="http://www.w3.org/2000/svg" viewBox="0 0 640 512"><!--! Font Awesome Pro 6.2.0 by @fontawesome - https://fontawesome.com License - https://fontawesome.com/license (Commercial License) Copyright 2022 Fonticons, Inc. --><path d="M441.5 320L620.9 459.3l19 14.7-29.4 37.9-19-14.7L19 52.7 0 38 29.4 .1l19 14.7L81 40.1C114.6 14.9 156.4 0 201.7 0H224C326.1 0 409.6 79.7 415.7 180.3L473 252l7 8.8V272v16 32H448h-6.5zM0 201.7c0-32.1 7.5-62.4 20.8-89.3L324.9 352H320v64h32 54.2l9.8 7.8V448v32H384 288v32H256 96 64V480 349.3l-4.9-4.9C21.3 306.5 0 255.2 0 201.7zM632 288c0 13.3-10.7 24-24 24s-24-10.7-24-24s10.7-24 24-24s24 10.7 24 24zm-88 72c-13.3 0-24-10.7-24-24s10.7-24 24-24s24 10.7 24 24s-10.7 24-24 24zm64 48c-13.3 0-24-10.7-24-24s10.7-24 24-24s24 10.7 24 24s-10.7 24-24 24z"/></svg>