<svg xmlns="http://www.w3.org/2000/svg" viewBox="0 0 512 512"><!--! Font Awesome Pro 6.2.0 by @fontawesome - https://fontawesome.com License - https://fontawesome.com/license (Commercial License) Copyright 2022 Fonticons, Inc. --><path d="M0 224.2C0 100.6 100.2 0 224 0h32C358.1 0 441.6 79.7 447.7 180.3L505 252l7 8.8V272v16 32H480 448v96 32H416 320v32 32H288 96 64V480 381.2c-41-41.9-64-98.3-64-157zM288 208h48c26.5 0 48-21.5 48-48s-21.5-48-48-48c-.9 0-1.8 0-2.7 .1C326.7 93.4 308.9 80 288 80c-8.6 0-16.6 2.2-23.5 6.2C255.9 72.8 241 64 224 64s-31.9 8.8-40.5 22.2c-7-3.9-15-6.2-23.5-6.2c-26.5 0-48 21.5-48 48c-26.5 0-48 21.5-48 48c0 20.9 13.4 38.7 32.1 45.3c0 .9-.1 1.8-.1 2.7c0 26.5 21.5 48 48 48h16v48h64V272h16c26.5 0 48-21.5 48-48V208zM160 176v2.7l-.1 0c0-.9 .1-1.8 .1-2.7z"/></svg>