<svg xmlns="http://www.w3.org/2000/svg" viewBox="0 0 576 512"><!--! Font Awesome Pro 6.2.0 by @fontawesome - https://fontawesome.com License - https://fontawesome.com/license (Commercial License) Copyright 2022 Fonticons, Inc. --><path d="M64 288L39.8 263.8C14.3 238.3 0 203.8 0 167.8C0 92.8 60.8 32 135.8 32c36 0 70.5 14.3 96 39.8L256 96l24.2-24.2c25.5-25.5 60-39.8 96-39.8C451.2 32 512 92.8 512 167.8c0 13.8-2.1 27.4-6.2 40.4C483.4 197.8 458.4 192 432 192c-97.2 0-176 78.8-176 176c0 32.2 8.6 62.3 23.7 88.3L256 480 64 288zM432 512c-79.5 0-144-64.5-144-144s64.5-144 144-144s144 64.5 144 144s-64.5 144-144 144zm16-208V288H416v16 48H368 352v32h16 48v48 16h32V432 384h48 16V352H496 448V304z"/></svg>