<svg xmlns="http://www.w3.org/2000/svg" viewBox="0 0 512 512"><!--! Font Awesome Pro 6.2.0 by @fontawesome - https://fontawesome.com License - https://fontawesome.com/license (Commercial License) Copyright 2022 Fonticons, Inc. --><path d="M32 128V384L256 512 480 384V128L256 0 32 128zM224 92l31.8-18.2L304 101.4v36.9l-48-27.5V240h32 16v32H288 256V432v6.3L224 420V256 92zM352 383.4V165.8L328 152V115.1l47.9 27.4 0 0L416 165.4v36.8L384 184V365.1l-32 18.3zM192 384v17.7L159.2 383 128 266.1V360v5.1L96 346.9V165.1l33.1-18.9L160 261.9V128.6l32-18.3V112 381.9 384z"/></svg>