<svg xmlns="http://www.w3.org/2000/svg" viewBox="0 0 512 512"><!--! Font Awesome Pro 6.2.0 by @fontawesome - https://fontawesome.com License - https://fontawesome.com/license (Commercial License) Copyright 2022 Fonticons, Inc. --><path d="M32 128V384L256 512 480 384V128L256 0 32 128zm80 32h8 11.9l3.4 11.4L160 253.7V176 160h32v16V336v16H176h-8H156.1l-3.4-11.4L128 258.3V336v16H96V336 176 160h16zm128 0h48 16v32H288 256v48h32 16v32H288 256v64 16H224V336 256 176 160h16zm96 0h32 32 16v32H400 384V336v16H352V336 192H336 320V160h16z"/></svg>