<svg xmlns="http://www.w3.org/2000/svg" viewBox="0 0 640 512"><!--! Font Awesome Pro 6.2.0 by @fontawesome - https://fontawesome.com License - https://fontawesome.com/license (Commercial License) Copyright 2022 Fonticons, Inc. --><path d="M424 30.1l17 17 17.2 17.2c1.9-.1 3.9-.2 5.8-.2h32c11.2 0 21.9 2.3 31.6 6.5L543 55l17-17L593.9 72 577 89 564 101.9c7.6 12.2 12 26.7 12 42.1v17.6c36.5 7.4 64 39.7 64 78.4c0 26.2-12.6 49.4-32 64v48H544V320H480v32H416V318.4c-11.8-2.4-22.7-7.4-32-14.4c-1.5-1.1-2.9-2.3-4.3-3.5c-17-14.7-27.7-36.4-27.7-60.5l0-16H320v16c0 44.7 26.2 83.2 64 101.2V384h64v96H320V372c-19.8 7.7-41.4 12-64 12s-44.2-4.3-64-12V480H64V329.1L45.9 369.7 2.1 350.3 32 282.9V264C32 156.3 117.1 68.5 223.8 64.2l.2-.2h8 24 32l109 36.3c3.8-5.9 8.4-11.2 13.6-15.8L407 81l-17-17L424 30.1zM480 232c0-13.3-10.7-24-24-24s-24 10.7-24 24s10.7 24 24 24s24-10.7 24-24zm88 24c13.3 0 24-10.7 24-24s-10.7-24-24-24s-24 10.7-24 24s10.7 24 24 24zM480 144c0-8.8-7.2-16-16-16s-16 7.2-16 16s7.2 16 16 16s16-7.2 16-16zm48 16c8.8 0 16-7.2 16-16s-7.2-16-16-16s-16 7.2-16 16s7.2 16 16 16z"/></svg>