<svg xmlns="http://www.w3.org/2000/svg" viewBox="0 0 512 512"><!--! Font Awesome Pro 6.2.0 by @fontawesome - https://fontawesome.com License - https://fontawesome.com/license (Commercial License) Copyright 2022 Fonticons, Inc. --><path d="M0 512V319.2c0-109.5 69.7-207 173.4-242.3L352 16l32 48L336 96l104 64 72 192-64 64H368l-58.6-70.4c-11.6 4.1-24.1 6.4-37.1 6.4H272l0 0c-6.3 0-12.5-.5-18.6-1.5c-3.6-.6-7.2-1.4-10.7-2.3l0 0c-28.9-7.8-53.1-26.8-67.8-52.2l-8-13.8-27.7 16 8 13.8c24 41.5 68.3 70 119.3 71.9L352 512H0zM328 224c13.3 0 24-10.7 24-24s-10.7-24-24-24s-24 10.7-24 24s10.7 24 24 24z"/></svg>