<svg xmlns="http://www.w3.org/2000/svg" viewBox="0 0 448 512"><!--! Font Awesome Pro 6.2.0 by @fontawesome - https://fontawesome.com License - https://fontawesome.com/license (Commercial License) Copyright 2022 Fonticons, Inc. --><path d="M288 104v24h48V104v-2.3l80-11.4V104h32V88 40 24H416V37.7L336 26.3V24 0H288V24v80zM64 176c0-44.2 35.8-80 80-80H256V32H144C64.5 32 0 96.5 0 176s64.5 144 144 144H416c17.7 0 32-14.3 32-32s-14.3-32-32-32H144c-44.2 0-80-35.8-80-80zM32 352c-17.7 0-32 14.3-32 32s14.3 32 32 32H416c17.7 0 32-14.3 32-32s-14.3-32-32-32H32zm0 96c-17.7 0-32 14.3-32 32s14.3 32 32 32H416c17.7 0 32-14.3 32-32s-14.3-32-32-32H32z"/></svg>