<svg xmlns="http://www.w3.org/2000/svg" viewBox="0 0 576 512"><!--! Font Awesome Pro 6.2.0 by @fontawesome - https://fontawesome.com License - https://fontawesome.com/license (Commercial License) Copyright 2022 Fonticons, Inc. --><path d="M0 0H32 352h32V64H352v64 13.3l-9.4 9.4L237.3 256l36 36c-11 23-17.2 48.8-17.2 76c0 59.5 29.6 112.1 74.8 144H32 0V448H32V384 370.7l9.4-9.4L146.7 256 41.4 150.6 32 141.3V128 64H0V0zM96 64v50.7L109.3 128H274.7L288 114.7V64H96zM576 368c0 79.5-64.5 144-144 144s-144-64.5-144-144s64.5-144 144-144s144 64.5 144 144zM448 288H416v16 64 16h16 48 16V352H480 448V304 288z"/></svg>