<svg xmlns="http://www.w3.org/2000/svg" viewBox="0 0 576 512"><!--! Font Awesome Pro 6.2.0 by @fontawesome - https://fontawesome.com License - https://fontawesome.com/license (Commercial License) Copyright 2022 Fonticons, Inc. --><path d="M96 208L336 0 576 208v48H512V416H271.6C250.7 357 211.2 306.7 160 272.5V256H132.1c-11.6-6-23.6-11.2-36.1-15.6V208zm288-16H288v96h96V192zM0 304V256c141.4 0 256 114.6 256 256H208c0-114.9-93.1-208-208-208zM32 512c-17.7 0-32-14.3-32-32s14.3-32 32-32s32 14.3 32 32s-14.3 32-32 32zm80 0c0-61.9-50.1-112-112-112V352c88.4 0 160 71.6 160 160H112z"/></svg>