<svg xmlns="http://www.w3.org/2000/svg" viewBox="0 0 640 512"><!--! Font Awesome Pro 6.2.0 by @fontawesome - https://fontawesome.com License - https://fontawesome.com/license (Commercial License) Copyright 2022 Fonticons, Inc. --><path d="M520.5 193.7L288.4 0 0 240v47.6H64.1v69.6c-.1 .9-.1 1.9-.1 2.8V472c0 .9 0 1.9 .1 2.8V512H104h16H224V352h96.7c8.1-89.7 83.5-160 175.3-160c8.3 0 16.5 .6 24.5 1.7zM640 368c0-79.5-64.5-144-144-144s-144 64.5-144 144s64.5 144 144 144s144-64.5 144-144zm-65.4-32l-11.3 11.3-72 72L480 430.6l-11.3-11.3-40-40L417.4 368 440 345.4l11.3 11.3L480 385.4l60.7-60.7L552 313.4 574.6 336z"/></svg>