<svg xmlns="http://www.w3.org/2000/svg" viewBox="0 0 640 512"><!--! Font Awesome Pro 6.2.0 by @fontawesome - https://fontawesome.com License - https://fontawesome.com/license (Commercial License) Copyright 2022 Fonticons, Inc. --><path d="M288.4 0L488.7 167.1C446.2 183 416 224 416 272v15.7H384L384 512H352V352H224V512H120 104 64.1V474.8c-.1-.9-.1-1.9-.1-2.8V360c0-.9 0-1.9 .1-2.8V287.6H0V240L288.4 0zM528 240c-17.7 0-32 14.3-32 32v48h64V272c0-17.7-14.3-32-32-32zm-80 32c0-44.2 35.8-80 80-80s80 35.8 80 80v48h32V512H416V320h32V272z"/></svg>