<svg xmlns="http://www.w3.org/2000/svg" viewBox="0 0 576 512"><!--! Font Awesome Pro 6.2.0 by @fontawesome - https://fontawesome.com License - https://fontawesome.com/license (Commercial License) Copyright 2022 Fonticons, Inc. --><path d="M576 287.6H511.8l1 224.4H64.1V287.6H0V240L288.4 0 416 106.5V32h96V186.6L576 240v47.6zM235.2 208c-32.7 0-59.2 26.5-59.2 59.2c0 16.1 6.6 31.5 18.2 42.7l82.8 79.6L288 400.1l11.1-10.7 82.8-79.6c11.6-11.2 18.2-26.6 18.2-42.7c0-32.7-26.5-59.2-59.2-59.2h-2.4c-15.9 0-31.2 6.2-42.7 17.2l-7.7 7.4-7.7-7.4c-11.5-11-26.8-17.2-42.7-17.2h-2.4z"/></svg>