<svg xmlns="http://www.w3.org/2000/svg" viewBox="0 0 640 512"><!--! Font Awesome Pro 6.2.0 by @fontawesome - https://fontawesome.com License - https://fontawesome.com/license (Commercial License) Copyright 2022 Fonticons, Inc. --><path d="M320 368.7c.2 59.2 29.7 111.6 74.8 143.3H64.1V287.6H0V240L288.4 0 520.5 193.7c-8-1.1-16.2-1.7-24.5-1.7c-54.7 0-103.5 24.9-135.8 64H320V192H256v64H192v64h64v64h64V368.7zM496 512c-79.5 0-144-64.5-144-144s64.5-144 144-144s144 64.5 144 144s-64.5 144-144 144zm16-64V416H480v32h32zm0-176H480v16 80 16h32V368 288 272z"/></svg>