<svg xmlns="http://www.w3.org/2000/svg" viewBox="0 0 640 512"><!--! Font Awesome Pro 6.2.0 by @fontawesome - https://fontawesome.com License - https://fontawesome.com/license (Commercial License) Copyright 2022 Fonticons, Inc. --><path d="M320 368.7c.2 59.2 29.7 111.6 74.8 143.3H64.1V287.6H0V240L288.4 0 520.5 193.7c-8-1.1-16.2-1.7-24.5-1.7c-54.7 0-103.5 24.9-135.8 64H320V192H256v64H192v64h64v64h64V368.7zM496 512c-79.5 0-144-64.5-144-144s64.5-144 144-144s144 64.5 144 144s-64.5 144-144 144zm59.3-180.7L566.6 320 544 297.4l-11.3 11.3L496 345.4l-36.7-36.7L448 297.4 425.4 320l11.3 11.3L473.4 368l-36.7 36.7L425.4 416 448 438.6l11.3-11.3L496 390.6l36.7 36.7L544 438.6 566.6 416l-11.3-11.3L518.6 368l36.7-36.7z"/></svg>