<svg xmlns="http://www.w3.org/2000/svg" viewBox="0 0 640 512"><!--! Font Awesome Pro 6.2.0 by @fontawesome - https://fontawesome.com License - https://fontawesome.com/license (Commercial License) Copyright 2022 Fonticons, Inc. --><path d="M160 0L119.6 62.4 46.9 46.9l15.6 72.7L0 160l62.4 40.4L46.9 273.1l72.7-15.6 16.2 25.1 3.2-2.8 52.1-45.1c-9.6 4-20.1 6.3-31.1 6.3c-44.2 0-80-35.8-80-80s35.8-80 80-80s80 35.8 80 80c0 15.1-4.2 29.3-11.5 41.3l67-58.1-38-24.6 15.6-72.7L200.4 62.4 160 0zm48 160c0-26.5-21.5-48-48-48s-48 21.5-48 48s21.5 48 48 48s48-21.5 48-48zM400 96L160 304v48h64V512H576V352h64V304L400 96zM352 288h96v96H352V288z"/></svg>