<svg xmlns="http://www.w3.org/2000/svg" viewBox="0 0 640 512"><!--! Font Awesome Pro 6.2.0 by @fontawesome - https://fontawesome.com License - https://fontawesome.com/license (Commercial License) Copyright 2022 Fonticons, Inc. --><path d="M320 368.7c.2 59.2 29.7 111.6 74.8 143.3H64.1V287.6H0V240L288.4 0 520.5 193.7c-8-1.1-16.2-1.7-24.5-1.7c-54.7 0-103.5 24.9-135.8 64H320V192H256v64H192v64h64v64h64V368.7zm320-.7c0 79.5-64.5 144-144 144s-144-64.5-144-144s64.5-144 144-144s144 64.5 144 144zm-65.4-32L552 313.4l-11.3 11.3L480 385.4l-28.7-28.7L440 345.4 417.4 368l11.3 11.3 40 40L480 430.6l11.3-11.3 72-72L574.6 336z"/></svg>