<svg xmlns="http://www.w3.org/2000/svg" viewBox="0 0 384 512"><!--! Font Awesome Pro 6.2.0 by @fontawesome - https://fontawesome.com License - https://fontawesome.com/license (Commercial License) Copyright 2022 Fonticons, Inc. --><path d="M114.2 123.1C131.5 105.7 155 96 179.5 96H223c27.1 0 49 21.9 49 49c0 11.5-4 22.4-11.1 31H0v64H155.5l-50.6 28.9c-1.7 1-3.4 2-5.1 3.1H0v64H52.3c-2.8 9.9-4.3 20.4-4.3 31c0 62.4 50.6 113 113 113h43.5c41.5 0 81.3-16.5 110.6-45.8l11.5-11.5-45.3-45.3-11.5 11.5C252.5 406.3 229 416 204.5 416H161c-27.1 0-49-21.9-49-49c0-11.5 4-22.4 11.1-31H384V272H228.5l50.6-28.9c1.7-1 3.4-2 5.1-3.1H384V176H331.7c2.8-10 4.3-20.4 4.3-31c0-62.4-50.6-113-113-113H179.5C138.1 32 98.3 48.5 68.9 77.8L57.4 89.4l45.3 45.3 11.5-11.5z"/></svg>