<svg xmlns="http://www.w3.org/2000/svg" viewBox="0 0 512 512"><!--! Font Awesome Pro 6.2.0 by @fontawesome - https://fontawesome.com License - https://fontawesome.com/license (Commercial License) Copyright 2022 Fonticons, Inc. --><path d="M242 32c-40.2 0-74 29.9-79 69.8l-12.1 96.7C145 246 182.1 288 230 288c40.2 0 74-29.9 79-69.8l12.1-96.7C327 74 289.9 32 242 32zm-15.5 77.7c1-7.8 7.6-13.7 15.5-13.7c9.4 0 16.7 8.2 15.5 17.6l-12.1 96.7c-1 7.8-7.6 13.7-15.5 13.7c-9.4 0-16.7-8.2-15.5-17.6l12.1-96.7zm-190 306l448-64h0l-9.1-63.4h0l-448 64h0l9.1 63.4h0zm448 32l-9.1-63.4-224 32 9.1 63.4 224-32zM348.2 104.6L340.9 185c-4.2 46.7 32.6 87 79.5 87c41.3 0 75.7-31.5 79.5-72.6l7.3-80.4c4.2-46.7-32.5-87-79.5-87c-41.3 0-75.7 31.5-79.5 72.6zM427.7 96c9.3 0 16.6 8 15.7 17.2l-7.3 80.4c-.7 8.1-7.6 14.4-15.7 14.4c-9.3 0-16.6-8-15.7-17.2l7.3-80.4c.7-8.1 7.6-14.4 15.7-14.4zM64.2 116.5L36.3 312l-1 6.9 65.9-9.4L135.7 68 91.4 34.8l-56 24.9L6 72.8l25.2 58.4 29.4-13.1 3.7-1.6z"/></svg>