<svg xmlns="http://www.w3.org/2000/svg" viewBox="0 0 576 512"><!--! Font Awesome Pro 6.2.0 by @fontawesome - https://fontawesome.com License - https://fontawesome.com/license (Commercial License) Copyright 2022 Fonticons, Inc. --><path d="M160 224L268.1 115.9c12.7-12.7 19.9-30 19.9-48C288 30.4 257.6 0 220.1 0c-18 0-35.3 7.2-48 19.9L160 32 147.9 19.9C135.2 7.2 117.9 0 99.9 0C62.4 0 32 30.4 32 67.9c0 18 7.2 35.3 19.9 48L160 224zm352 32L352 400l84.3 10.5L416 512 576 368l-84.3-10.5L512 256zM128 272l-21.3 32H32V512H320V304H245.3L224 272H128zm48 184c-26.5 0-48-21.5-48-48s21.5-48 48-48s48 21.5 48 48s-21.5 48-48 48zM544 40V1L505.7 8.6l-160 32L320 45.8V72v88c-35.3 0-64 21.5-64 48s28.7 48 64 48s64-21.5 64-48V98.2L480 79v49c-35.3 0-64 21.5-64 48s28.7 48 64 48s64-21.5 64-48V40z"/></svg>