<svg xmlns="http://www.w3.org/2000/svg" viewBox="0 0 576 512"><!--! Font Awesome Pro 6.2.0 by @fontawesome - https://fontawesome.com License - https://fontawesome.com/license (Commercial License) Copyright 2022 Fonticons, Inc. --><path d="M576 32H96V384H576V32zM395.6 139.8l96 136L496 282v7.6 8 24H472 352 328 280 256 200 176v-24-8-9.1l6.1-6.8 64-72L264 181.5l17.9 20.2L299.1 221l57.3-81.2L376 112l19.6 27.8zM256 128c0 17.7-14.3 32-32 32s-32-14.3-32-32s14.3-32 32-32s32 14.3 32 32zM48 120V96H0v24V456v24H24 456h24V432H456 48V120z"/></svg>