<svg xmlns="http://www.w3.org/2000/svg" viewBox="0 0 640 512"><!--! Font Awesome Pro 6.2.0 by @fontawesome - https://fontawesome.com License - https://fontawesome.com/license (Commercial License) Copyright 2022 Fonticons, Inc. --><path d="M48.4 14.8L29.4 .1 0 38 19 52.7 591.5 497.2l19 14.7L639.9 474l-19-14.7L576 424.4V32H70.5L48.4 14.8zM157.7 99.6c5.7-2.3 11.8-3.6 18.3-3.6c26.5 0 48 21.5 48 48c0 2.3-.2 4.6-.5 6.8L157.7 99.6zM327.5 231.5l21-29.4L368 174.7l19.5 27.3 120 168 1.9 2.7-182-141.3zM214.2 279.9l8-8.8L64 146.4V480H487.4l-81.2-64H292.8 280 248 224 152 128V392v-8-9.3l6.2-6.9 80-88z"/></svg>