<svg xmlns="http://www.w3.org/2000/svg" viewBox="0 0 640 512"><!--! Font Awesome Pro 6.2.0 by @fontawesome - https://fontawesome.com License - https://fontawesome.com/license (Commercial License) Copyright 2022 Fonticons, Inc. --><path d="M64 128V384H576V128H64zM0 64H64 576h64v64V384v64H576 64 0V384 128 64zm312 96h52c33.1 0 60 26.9 60 60c0 9.2-2.1 17.9-5.8 25.7c13.3 11 21.8 27.6 21.8 46.3c0 33.1-26.9 60-60 60H312 288V328v-8V256 192v-8V160h24zm24 72h28c6.6 0 12-5.4 12-12s-5.4-12-12-12H336v24zm44 72c6.6 0 12-5.4 12-12s-5.4-12-12-12H364 336v24h44zM198.3 167.1l47.8 119.5c.1 .3 .3 .7 .4 1l23.8 59.5 2 4.9H220.6l-12.8-32H144.2l-12.8 32H79.8l2-4.9 23.8-59.5c.1-.4 .3-.7 .4-1.1l47.8-119.5 2.8-7.1h38.9l2.8 7.1zM188.6 272L176 240.6 163.4 272h25.1z"/></svg>