<svg xmlns="http://www.w3.org/2000/svg" viewBox="0 0 576 512"><!--! Font Awesome Pro 6.2.0 by @fontawesome - https://fontawesome.com License - https://fontawesome.com/license (Commercial License) Copyright 2022 Fonticons, Inc. --><path d="M288 0L0 96v32 15.1 .9l288 96 288-96v-.9V128 96L288 0zm0 189.4L79.8 120 288 50.6 496.2 120 288 189.4zM0 176.9v46.3l5.1 1.7L64 244.5v33.7L0 256.9V416l288 96 288-96V256.9l-64 21.3V244.5l58.9-19.6 5.1-1.7V176.9L293.1 271.2l-5.1 1.7-5.1-1.7L0 176.9zm96 112V255.1l96 32v33.7l-96-32zm128 42.7V297.8l64 21.3 64-21.3v33.7l-58.9 19.6-5.1 1.7-5.1-1.7L224 331.5zm160-44.4l96-32v33.7l-96 32V287.1z"/></svg>