<svg xmlns="http://www.w3.org/2000/svg" viewBox="0 0 640 512"><!--! Font Awesome Pro 6.2.0 by @fontawesome - https://fontawesome.com License - https://fontawesome.com/license (Commercial License) Copyright 2022 Fonticons, Inc. --><path d="M514 128h94 32v32V352v32H608 514c-19.8 10.2-42.2 16-66 16s-46.3-5.8-66-16H224h-4.6l-4.4-1.3-192-56L0 320V296 216 192l23-6.7 192-56 4.4-1.3H224 382c19.8-10.2 42.2-16 66-16s46.3 5.8 66 16zm30 128c0-53-43-96-96-96s-96 43-96 96s43 96 96 96s96-43 96-96zM427.3 212.7L448 233.4l20.7-20.7L480 201.4 502.6 224l-11.3 11.3L470.6 256l20.7 20.7L502.6 288 480 310.6l-11.3-11.3L448 278.6l-20.7 20.7L416 310.6 393.4 288l11.3-11.3L425.4 256l-20.7-20.7L393.4 224 416 201.4l11.3 11.3z"/></svg>