<svg xmlns="http://www.w3.org/2000/svg" viewBox="0 0 576 512"><!--! Font Awesome Pro 6.2.0 by @fontawesome - https://fontawesome.com License - https://fontawesome.com/license (Commercial License) Copyright 2022 Fonticons, Inc. --><path d="M576 64H0V448H576V64zM128 128v64H64V128h64zM64 224h64v64H64V224zm64 96v64H64V320h64zm32-192h64v64H160V128zm64 96v64H160V224h64zm-64 96H416v64H160V320zM320 128v64H256V128h64zm-64 96h64v64H256V224zm160-96v64H352V128h64zm-64 96h64v64H352V224zm160-96v64H448V128h64zm-64 96h64v64H448V224zm64 96v64H448V320h64z"/></svg>