<svg xmlns="http://www.w3.org/2000/svg" viewBox="0 0 640 512"><!--! Font Awesome Pro 6.2.0 by @fontawesome - https://fontawesome.com License - https://fontawesome.com/license (Commercial License) Copyright 2022 Fonticons, Inc. --><path d="M352 64V96v96 32H288V192 96 64h64zM112 130.7l22.6 22.6 64 64L221.3 240 176 285.3l-22.6-22.6-64-64L66.7 176 112 130.7zM573.3 176l-22.6 22.6-64 64L464 285.3 418.7 240l22.6-22.6 64-64L528 130.7 573.3 176zM0 352H32 96h32v64H96 32 0V352zm192 0h32H416h32v64H416 224 192V352zm320 64V352h32 64 32v64H608 544 512z"/></svg>