<svg xmlns="http://www.w3.org/2000/svg" viewBox="0 0 640 512"><!--! Font Awesome Pro 6.2.0 by @fontawesome - https://fontawesome.com License - https://fontawesome.com/license (Commercial License) Copyright 2022 Fonticons, Inc. --><path d="M160 64H640V448H160V64zm64 64v64h64V128H224zm64 96H224v64h64V224zm-64 96v64h64V320H224zM384 128H320v64h64V128zm-64 96v64h64V224H320zm160 96H320v64H480V320zM416 128v64h64V128H416zm64 96H416v64h64V224zm32-96v64h64V128H512zm64 96H512v64h64V224zm-64 96v64h64V320H512zM0 256l96-96h32V352H96L0 256z"/></svg>