<svg xmlns="http://www.w3.org/2000/svg" viewBox="0 0 576 512"><!--! Font Awesome Pro 6.2.0 by @fontawesome - https://fontawesome.com License - https://fontawesome.com/license (Commercial License) Copyright 2022 Fonticons, Inc. --><path d="M224 48L288 0l64 48s-6.6 10.6-14.5 27.5C374.5 93.8 400 131.9 400 176s-25.5 82.2-62.5 100.5C345.4 293.4 352 304 352 304l-48 36v22.6l34.5-23.7 .1-.1C395.8 299.5 448 256 448 180.6c0-47.6-14.7-106.7-32-132.6c0 0 128 54.5 128 176c0 96-112 192-112 192l-83.4-45.3L316.2 393l46.1 31.7c1.8-.4 3.7-.7 5.7-.7c13.3 0 24 10.7 24 24s-10.7 24-24 24c-12.2 0-22.3-9.1-23.8-21L304 423.4v28.9c9.6 5.5 16 15.9 16 27.7c0 17.7-14.3 32-32 32s-32-14.3-32-32c0-11.8 6.4-22.2 16-27.7V423.4L231.8 451c-1.5 11.8-11.6 21-23.8 21c-13.3 0-24-10.7-24-24s10.7-24 24-24c2 0 3.9 .2 5.7 .7L259.8 393l-32.4-22.3L144 416s-112-96-112-192C32 102.5 160 48 160 48c-17.3 25.9-32 85.1-32 132.6c0 75.4 52.2 118.9 109.4 158.2l.1 .1L272 362.6V340l-48-36s6.6-10.6 14.5-27.5C201.5 258.2 176 220.1 176 176s25.5-82.2 62.5-100.5C230.6 58.6 224 48 224 48zm0 128c0 23.5 12.7 44.1 31.6 55.2c4.9-17.3 8.4-36.2 8.4-55.2s-3.5-37.9-8.4-55.2C236.7 131.9 224 152.5 224 176zm88 0c0 18.9 3.5 37.9 8.4 55.2C339.3 220.1 352 199.5 352 176s-12.7-44.1-31.6-55.2c-4.9 17.3-8.4 36.2-8.4 55.2z"/></svg>