<svg xmlns="http://www.w3.org/2000/svg" viewBox="0 0 576 512"><!--! Font Awesome Pro 6.2.0 by @fontawesome - https://fontawesome.com License - https://fontawesome.com/license (Commercial License) Copyright 2022 Fonticons, Inc. --><path d="M240 144c0-53-43-96-96-96s-96 43-96 96s43 96 96 96s96-43 96-96zm44.4 32C269.9 240.1 212.5 288 144 288C64.5 288 0 223.5 0 144S64.5 0 144 0c68.5 0 125.9 47.9 140.4 112H344V96h48H496h48v48 48H496 392 344V176H284.4zM144 208c-35.3 0-64-28.7-64-64s28.7-64 64-64s64 28.7 64 64s-28.7 64-64 64zm280 32v32H544v48H256V272H376V240h48zM288 352H512V512H288V352zM176 320c26.5 0 48 21.5 48 48s-21.5 48-48 48H160v32H32V320h96 32 16zm0 64c8.8 0 16-7.2 16-16s-7.2-16-16-16H160v32h16zm48 80v48H0V464H224z"/></svg>