<svg xmlns="http://www.w3.org/2000/svg" viewBox="0 0 448 512"><!--! Font Awesome Pro 6.2.0 by @fontawesome - https://fontawesome.com License - https://fontawesome.com/license (Commercial License) Copyright 2022 Fonticons, Inc. --><path d="M448 176c0 79.5-100.3 144-224 144S0 255.5 0 176S100.3 32 224 32s224 64.5 224 144zM224 64H208V80v24 16h16 16V104 80 64H224zM64 176v16H80h32 16V176 160H112 80 64v16zm256 0v16h16 32 16V176 160H368 336 320v16zm-96 56H208v16 24 16h16 16V272 248 232H224zM139.3 92.7L128 81.4 105.4 104l11.3 11.3 8 8L136 134.6 158.6 112l-11.3-11.3-8-8zm192 22.6L342.6 104 320 81.4 308.7 92.7l-8 8L289.4 112 312 134.6l11.3-11.3 8-8zm-184 136L158.6 240 136 217.4l-11.3 11.3-8 8L105.4 248 128 270.6l11.3-11.3 8-8zm176-22.6L312 217.4 289.4 240l11.3 11.3 8 8L320 270.6 342.6 248l-11.3-11.3-8-8zM280 176c0-13.3-25.1-24-56-24s-56 10.7-56 24s25.1 24 56 24s56-10.7 56-24zM224 480C102.4 480 3.4 383.1 .1 262.2c13.2 16.4 29.8 30.7 48.2 42.5C94.7 334.6 156.9 352 224 352s129.3-17.4 175.7-47.3c18.5-11.9 35-26.2 48.2-42.5C444.6 383.1 345.6 480 224 480z"/></svg>