<svg xmlns="http://www.w3.org/2000/svg" viewBox="0 0 640 512"><!--! Font Awesome Pro 6.2.0 by @fontawesome - https://fontawesome.com License - https://fontawesome.com/license (Commercial License) Copyright 2022 Fonticons, Inc. --><path d="M256 64H0V448H256h48 16H576h64V384 128 64H576 320 304 256zm320 64V384H320V128H576zM144.9 160h30.3l3.4 8.6 47.8 119.6c.1 .3 .2 .6 .3 .9l23.8 59.6 1.4 3.4H208.9l-14.4-36H125.5l-14.4 36H68.1l1.4-3.4L93.3 289c.1-.3 .2-.6 .4-.9l47.8-119.6 3.4-8.6zM160 229.9L141.5 276h36.9L160 229.9zM468 164H428v20 4H392 372v40h20 56 32.9l-22.7 50-20.1-20.1L424 243.7 395.7 272l14.1 14.1 12.4 12.4-23.2 11.6-17.9 8.9 17.9 35.8 17.9-8.9 38.2-19.1 30.6 18.3 17.2 10.3 20.6-34.3-17.1-10.3-15-9L524.9 228H540V188H520h-8H468v-4V164z"/></svg>