<svg xmlns="http://www.w3.org/2000/svg" viewBox="0 0 640 512"><!--! Font Awesome Pro 6.2.0 by @fontawesome - https://fontawesome.com License - https://fontawesome.com/license (Commercial License) Copyright 2022 Fonticons, Inc. --><path d="M64 32H96 544h32V64 352H512V96H128V352H64V64 32zM0 432V384H640v48l-48 48H48L0 432zM281 209l-31 31 31 31 17 17L264 321.9l-17-17-48-48-17-17 17-17 48-48 17-17L297.9 192l-17 17zM393 175l48 48 17 17-17 17-48 48-17 17L342.1 288l17-17 31-31-31-31-17-17L376 158.1l17 17z"/></svg>