<svg xmlns="http://www.w3.org/2000/svg" viewBox="0 0 384 512"><!--! Font Awesome Pro 6.2.0 by @fontawesome - https://fontawesome.com License - https://fontawesome.com/license (Commercial License) Copyright 2022 Fonticons, Inc. --><path d="M176 32V96.7c5.3-.4 10.6-.7 16-.7s10.7 .2 16 .7V32h64v81.4c66.1 30.3 112 97.1 112 174.6H320c0-40.4-18.7-76.5-48-99.9V288H208V161c-5.2-.7-10.6-1-16-1s-10.8 .3-16 1V288H112l0-99.9C82.7 211.5 64 247.6 64 288c0 70.7 57.3 128 128 128H384v64H192 0V416H48.9C18.5 382 0 337.2 0 288c0-77.5 45.9-144.3 112-174.6L112 32h64z"/></svg>