<svg xmlns="http://www.w3.org/2000/svg" viewBox="0 0 512 512"><!--! Font Awesome Pro 6.2.0 by @fontawesome - https://fontawesome.com License - https://fontawesome.com/license (Commercial License) Copyright 2022 Fonticons, Inc. --><path d="M272 96H376c50.2 0 92.7-33 106.9-78.6C501.5 58.8 512 106.2 512 156.6C512 317.1 405.1 447.3 273 448l-1 0c-81.7 0-150.4-55.7-170.2-131.2C68.7 347.5 48 391.3 48 440v16 24H0V456 440c0-75.1 38.3-141.2 96.4-179.9C130.6 237.3 171.8 224 216 224c0 0 0 0 0 0h72 16 16V192H304 216c-40.2 0-78.2 9.6-111.7 26.5C126.9 147.5 193.4 96 272 96v0z"/></svg>