<svg xmlns="http://www.w3.org/2000/svg" viewBox="0 0 512 512"><!--! Font Awesome Pro 6.2.0 by @fontawesome - https://fontawesome.com License - https://fontawesome.com/license (Commercial License) Copyright 2022 Fonticons, Inc. --><path d="M367.2 412.5C335.9 434.9 297.5 448 256 448s-79.9-13.1-111.2-35.5l58-58c15.8 8.6 34 13.5 53.3 13.5s37.4-4.9 53.3-13.5l58 58zm91 .5c33.7-43.3 53.8-97.8 53.8-157s-20.1-113.6-53.8-157l12.4-12.4L493.3 64 448 18.7 425.4 41.4 413 53.8C369.6 20.1 315.2 0 256 0S142.4 20.1 99 53.8L86.6 41.4 64 18.7 18.7 64 41.4 86.6 53.8 99C20.1 142.4 0 196.8 0 256s20.1 113.6 53.8 157L41.4 425.4 18.7 448 64 493.3l22.6-22.6L99 458.2c43.3 33.7 97.8 53.8 157 53.8s113.6-20.1 157-53.8l12.4 12.4L448 493.3 493.3 448l-22.6-22.6L458.2 413zm-45.7-45.7l-58-58c8.6-15.8 13.5-34 13.5-53.3s-4.9-37.4-13.5-53.3l58-58C434.9 176.1 448 214.5 448 256s-13.1 79.9-35.5 111.2zM367.2 99.5l-58 58c-15.8-8.6-34-13.5-53.3-13.5s-37.4 4.9-53.3 13.5l-58-58C176.1 77.1 214.5 64 256 64s79.9 13.1 111.2 35.5zM157.5 309.3l-58 58C77.1 335.9 64 297.5 64 256s13.1-79.9 35.5-111.2l58 58c-8.6 15.8-13.5 34-13.5 53.3s4.9 37.4 13.5 53.3zM304 256c0 26.5-21.5 48-48 48s-48-21.5-48-48s21.5-48 48-48s48 21.5 48 48z"/></svg>