<svg xmlns="http://www.w3.org/2000/svg" viewBox="0 0 640 512"><!--! Font Awesome Pro 6.2.0 by @fontawesome - https://fontawesome.com License - https://fontawesome.com/license (Commercial License) Copyright 2022 Fonticons, Inc. --><path d="M294.8 69L320 64V38.3 0L282.5 7.5 160 32V96L294.8 69zM160 224v64l320-64V160L160 224zm0-96v64l320-64V64L160 128zm64 256v96h64v32h64V480h64V384H384V339.2L480 320V256L336 284.8V320v28.8V384H304V291.8l-48 9.6V384H224zM63.3 16L43.3 2.7 16.7 42.7 36.7 56l6 4 24 16 20 13.3 26.6-39.9L93.3 36l-24-16-6-4zM603.3 56l20-13.3L596.7 2.7 576.7 16l-6 4-24 16-20 13.3 26.6 39.9 20-13.3 24-16 6-4zM24 160H0v48H24 72 96V160H72 24zm544 0H544v48h24 48 24V160H616 568zM93.3 332l20-13.3L86.7 278.7 66.7 292l-24 16-6 4-20 13.3 26.6 39.9 20-13.3 6-4 24-16zm480-39.9l-20-13.3-26.6 39.9 20 13.3 24 16 6 4 20 13.3 26.6-39.9-20-13.3-6-4-24-16z"/></svg>