<svg xmlns="http://www.w3.org/2000/svg" viewBox="0 0 640 512"><!--! Font Awesome Pro 6.2.0 by @fontawesome - https://fontawesome.com License - https://fontawesome.com/license (Commercial License) Copyright 2022 Fonticons, Inc. --><path d="M69.3 36l-20-13.3L22.7 62.7 42.7 76l48 32 20 13.3 26.6-39.9L117.3 68l-48-32zM597.3 76l20-13.3L590.7 22.7 570.7 36l-48 32-20 13.3 26.6 39.9 20-13.3 48-32zM24 192H0v48H24 96h24V192H96 24zm520 0H520v48h24 72 24V192H616 544zM320 32c-88.4 0-160 71.6-160 160V352H480V192c0-88.4-71.6-160-160-160zM240 192H208c0-61.9 50.1-112 112-112v32c-44.2 0-80 35.8-80 80zM544 384H96v96H544V384z"/></svg>