<svg xmlns="http://www.w3.org/2000/svg" viewBox="0 0 640 512"><!--! Font Awesome Pro 6.2.0 by @fontawesome - https://fontawesome.com License - https://fontawesome.com/license (Commercial License) Copyright 2022 Fonticons, Inc. --><path d="M48.4 14.8L29.4 .1 0 38 19 52.7 591.5 497.2l19 14.7L639.9 474l-19-14.7-74.4-57.7C601.7 376.3 640 320.6 640 256c0-88.4-71.6-160-160-160H384 352v64h32 96c53 0 96 43 96 96c0 52.1-41.5 94.5-93.3 96l-82.4-64H416h32V224H416 317.9l-82.4-64H256h32V96H256 160c-2.3 0-4.6 0-6.8 .1L48.4 14.8zm4.2 122.6C20.3 166.7 0 209 0 256c0 88.4 71.6 160 160 160h96 32V352H256 160c-53 0-96-43-96-96c0-32.1 15.8-60.6 40-78L52.6 137.4z"/></svg>