<svg xmlns="http://www.w3.org/2000/svg" viewBox="0 0 640 512"><!--! Font Awesome Pro 6.2.0 by @fontawesome - https://fontawesome.com License - https://fontawesome.com/license (Commercial License) Copyright 2022 Fonticons, Inc. --><path d="M0 256C0 167.6 71.6 96 160 96h96 32v64H256 160c-53 0-96 43-96 96s43 96 96 96h96 32v64H256 160C71.6 416 0 344.4 0 256zm640 0c0 88.4-71.6 160-160 160H384 352V352h32 96c53 0 96-43 96-96s-43-96-96-96H384 352V96h32 96c88.4 0 160 71.6 160 160zM224 224H416h32v64H416 224 192V224h32z"/></svg>