<svg xmlns="http://www.w3.org/2000/svg" viewBox="0 0 384 512"><!--! Font Awesome Pro 6.2.0 by @fontawesome - https://fontawesome.com License - https://fontawesome.com/license (Commercial License) Copyright 2022 Fonticons, Inc. --><path d="M144 159.2c0-34.9 28.3-63.2 63.2-63.2c7.4 0 14.7 1.3 21.6 3.8l72.2 26.3L331.1 137 353 76.9 322.9 65.9 250.7 39.7c-13.9-5.1-28.6-7.7-43.5-7.7C137 32 80 89 80 159.2V192H32v64H80v32H32v64H72.2L35.4 425.7 32 432.4V440v8 32H64 320h32V416H320 111.8l28.8-57.7 3.2-6.3H288V288H144V256H288V192H144V159.2z"/></svg>