<svg xmlns="http://www.w3.org/2000/svg" viewBox="0 0 512 512"><!--! Font Awesome Pro 6.2.0 by @fontawesome - https://fontawesome.com License - https://fontawesome.com/license (Commercial License) Copyright 2022 Fonticons, Inc. --><path d="M32 32H56 80h24V56 176h8 24v48H112h-8H56 48 24V176H48h8V80H32V32zM8 352c0-35.3 28.7-64 64-64H89.2c34.7 0 62.8 28.1 62.8 62.8c0 17.7-7.5 34.6-20.5 46.5L93.4 432H128h24v48H128 32 8V456v-.6V444.8l7.8-7.1 83.3-75.9c3.1-2.8 4.8-6.8 4.8-11c0-8.2-6.6-14.8-14.8-14.8H72c-8.8 0-16 7.2-16 16H8zM224 64H480h32v64H480 224 192V64h32zm0 160H480h32v64H480 224 192V224h32zm0 160H480h32v64H480 224 192V384h32z"/></svg>