<svg xmlns="http://www.w3.org/2000/svg" viewBox="0 0 576 512"><!--! Font Awesome Pro 6.2.0 by @fontawesome - https://fontawesome.com License - https://fontawesome.com/license (Commercial License) Copyright 2022 Fonticons, Inc. --><path d="M201.9 54.2L185.8 72.1l-72 80L96.9 170.9 79 153 39 113l-17-17L56 62.1 73 79l22.1 22.1 55.1-61.2 16.1-17.8 35.7 32.1zm0 160l-16.1 17.8-72 80L96.9 330.9 79 313 39 273l-17-17L56 222.1l17 17 22.1 22.1 55.1-61.2 16.1-17.8 35.7 32.1zM256 64h32H512h32v64H512 288 256V64zm0 160h32H512h32v64H512 288 256V224zM192 384h32H512h32v64H512 224 192V384zM80 464c-26.5 0-48-21.5-48-48s21.5-48 48-48s48 21.5 48 48s-21.5 48-48 48z"/></svg>