<svg xmlns="http://www.w3.org/2000/svg" viewBox="0 0 512 512"><!--! Font Awesome Pro 6.2.0 by @fontawesome - https://fontawesome.com License - https://fontawesome.com/license (Commercial License) Copyright 2022 Fonticons, Inc. --><path d="M64 144c26.5 0 48-21.5 48-48s-21.5-48-48-48S16 69.5 16 96s21.5 48 48 48zM192 64H160v64h32H480h32V64H480 192zm0 160H160v64h32H480h32V224H480 192zm0 160H160v64h32H480h32V384H480 192zM64 464c26.5 0 48-21.5 48-48s-21.5-48-48-48s-48 21.5-48 48s21.5 48 48 48zm48-208c0-26.5-21.5-48-48-48s-48 21.5-48 48s21.5 48 48 48s48-21.5 48-48z"/></svg>