<svg xmlns="http://www.w3.org/2000/svg" viewBox="0 0 576 512"><!--! Font Awesome Pro 6.2.0 by @fontawesome - https://fontawesome.com License - https://fontawesome.com/license (Commercial License) Copyright 2022 Fonticons, Inc. --><path d="M544 .4V44.8v64 23.1l-21.9 7.3L448 163.9V432c0 44.2-50.1 80-112 80s-112-35.8-112-80s50.1-80 112-80c17.2 0 33.5 2.8 48 7.7V140.8v-64V53.7l21.9-7.3 96-32L544 .4zM64 64H288h32v64H288 64 32V64H64zm0 128H288h32v64H288 64 32V192H64zm0 128h96 32v64H160 64 32V320H64z"/></svg>