<svg xmlns="http://www.w3.org/2000/svg" viewBox="0 0 512 512"><!--! Font Awesome Pro 6.2.0 by @fontawesome - https://fontawesome.com License - https://fontawesome.com/license (Commercial License) Copyright 2022 Fonticons, Inc. --><path d="M288 32V0H224V32 96v32h64V96 32zm0 384V384H224v32 64 32h64V480 416zM0 224v64H32 96h32V224H96 32 0zm416 0H384v64h32 64 32V224H480 416zM97.6 52.4L52.4 97.6 75 120.2l45.3 45.3 22.6 22.6 45.3-45.3-22.6-22.6L120.2 75 97.6 52.4zM391.8 346.5l-22.6-22.6-45.3 45.3 22.6 22.6L391.8 437l22.6 22.6 45.3-45.3L437 391.8l-45.3-45.3zM52.4 414.4l45.3 45.3L120.2 437l45.3-45.3 22.6-22.6-45.3-45.3-22.6 22.6L75 391.8 52.4 414.4zM346.5 120.2l-22.6 22.6 45.3 45.3 22.6-22.6L437 120.2l22.6-22.6L414.4 52.3 391.8 75l-45.3 45.3z"/></svg>