<svg xmlns="http://www.w3.org/2000/svg" viewBox="0 0 512 512"><!--! Font Awesome Pro 6.2.0 by @fontawesome - https://fontawesome.com License - https://fontawesome.com/license (Commercial License) Copyright 2022 Fonticons, Inc. --><path d="M80 2V96l42.9-57.2c3.3 7.7 5.1 16.2 5.1 25.2v64c0 14.9-5.1 28.6-13.6 39.4L151.3 192h46.5c2.7-7.3 6.2-14 10.2-20.2V53.6l-34.6-5.8-15.8-2.6 5.3-31.6 15.8 2.6 48 8L240 26.4V40v98c5.9-4.4 11.4-7.7 16-10c4.6 2.3 10.1 5.6 16 10V40 26.4l13.4-2.2 48-8 15.8-2.6 5.3 31.6-15.8 2.6L304 53.6V171.8c4 6.2 7.5 13 10.2 20.2h46.5l36.9-24.6C389.1 156.6 384 142.9 384 128V64c0-8.9 1.8-17.4 5.1-25.2L432 96V2c5.1-1.3 10.5-2 16-2c35.3 0 64 28.7 64 64v64c0 35.3-28.7 64-64 64l-.7 0-66 44-6 4H368 320v16h48.9c7.4 0 14.8-1.7 21.5-5.1l34.5-17.2 14.3-7.2 14.3 28.6-14.3 7.2-34.5 17.2c-11.1 5.6-23.4 8.4-35.8 8.4H320v16h69.6c5.2 0 10.3-.8 15.2-2.5l38.1-12.7 15.2-5.1 10.1 30.4-15.2 5.1-38.1 12.7c-8.2 2.7-16.7 4.1-25.3 4.1H320v16h16.9c12.4 0 24.7 2.9 35.8 8.4l18.5 9.2 14.3 7.2-14.3 28.6-14.3-7.2-18.5-9.2c-6.7-3.3-14-5.1-21.5-5.1H320l-21.6 64.8c30.4 5 53.6 31.4 53.6 63.2H160c0-31.8 23.2-58.2 53.6-63.2L192 384H175.1c-7.5 0-14.8 1.7-21.5 5.1l-18.5 9.2-14.3 7.2-14.3-28.6 14.3-7.2 18.5-9.2c11.1-5.6 23.4-8.4 35.8-8.4H192V336H122.4c-8.6 0-17.1-1.4-25.3-4.1L58.9 319.2l-15.2-5.1 10.1-30.4 15.2 5.1 38.1 12.7c4.9 1.6 10 2.5 15.2 2.5H192V288H143.1c-12.4 0-24.7-2.9-35.8-8.4L72.8 262.3l-14.3-7.2 14.3-28.6 14.3 7.2 34.5 17.2c6.7 3.3 14 5.1 21.5 5.1H192V240H144h-7.3l-6-4-66-44-.7 0c-35.3 0-64-28.7-64-64V64C0 28.7 28.7 0 64 0c5.5 0 10.9 .7 16 2z"/></svg>