<svg xmlns="http://www.w3.org/2000/svg" viewBox="0 0 512 512"><!--! Font Awesome Pro 6.2.0 by @fontawesome - https://fontawesome.com License - https://fontawesome.com/license (Commercial License) Copyright 2022 Fonticons, Inc. --><path d="M192 512s28.8-31.1 64-75.8L256 288h32V272c0-55.6 40.5-101.7 93.6-110.5C367 70 287.7 0 192 0C86 0 0 86 0 192C0 304 192 512 192 512zm0-256c-35.3 0-64-28.7-64-64s28.7-64 64-64s64 28.7 64 64s-28.7 64-64 64zm208-16c17.7 0 32 14.3 32 32v48H368V272c0-17.7 14.3-32 32-32zm-80 32v48H288V512H512V320H480V272c0-44.2-35.8-80-80-80s-80 35.8-80 80z"/></svg>