<svg xmlns="http://www.w3.org/2000/svg" viewBox="0 0 512 512"><!--! Font Awesome Pro 6.2.0 by @fontawesome - https://fontawesome.com License - https://fontawesome.com/license (Commercial License) Copyright 2022 Fonticons, Inc. --><path d="M288 0V32 66.7C368.4 80.1 431.9 143.6 445.3 224H480h32v64H480 445.3C431.9 368.4 368.4 431.9 288 445.3V480v32H224V480 445.3C143.6 431.9 80.1 368.4 66.7 288H32 0V224H32 66.7C80.1 143.6 143.6 80.1 224 66.7V32 0h64zM128 256c0 70.7 57.3 128 128 128s128-57.3 128-128s-57.3-128-128-128s-128 57.3-128 128zm128 80c-44.2 0-80-35.8-80-80s35.8-80 80-80s80 35.8 80 80s-35.8 80-80 80z"/></svg>