<svg xmlns="http://www.w3.org/2000/svg" viewBox="0 0 640 512"><!--! Font Awesome Pro 6.2.0 by @fontawesome - https://fontawesome.com License - https://fontawesome.com/license (Commercial License) Copyright 2022 Fonticons, Inc. --><path d="M352 32V0H288V32 66.7c-40.2 6.7-76.2 26-103.8 53.6L48.4 14.8 29.4 .1 0 38 19 52.7 591.5 497.2l19 14.7L639.9 474l-19-14.7L485.2 353.9C497 334 505.4 311.7 509.3 288H544h32V224H544 509.3C495.9 143.6 432.4 80.1 352 66.7V32zm82 282.2l-39-30.3c3.2-8.7 5-18.1 5-27.9c0-44.2-35.8-80-80-80c-16.9 0-32.7 5.3-45.6 14.3l-39-30.3c22.6-19.9 52.2-32 84.6-32c70.7 0 128 57.3 128 128c0 21-5 40.7-14 58.2zM414.9 422.9l-56.8-44.7C346.1 382 333.3 384 320 384c-70.7 0-128-57.3-128-128c0-2.9 .1-5.7 .3-8.5l-56.8-44.7c-2 6.9-3.6 14-4.8 21.3H96 64v64H96h34.7c13.5 80.4 76.9 143.9 157.3 157.3V480v32h64V480 445.3c22.6-3.8 43.8-11.5 62.9-22.4z"/></svg>