<svg xmlns="http://www.w3.org/2000/svg" viewBox="0 0 384 512"><!--! Font Awesome Pro 6.2.0 by @fontawesome - https://fontawesome.com License - https://fontawesome.com/license (Commercial License) Copyright 2022 Fonticons, Inc. --><path d="M192 512s192-208 192-320C384 86 298 0 192 0S0 86 0 192C0 304 192 512 192 512zM104 152c0-30.9 25.1-56 56-56h56.9c34.9 0 63.1 28.3 63.1 63.1c0 22.6-12.1 43.5-31.7 54.8L216 232.4V240v24H168V240 218.5 204.6l12.1-6.9 44.3-25.4c4.7-2.7 7.6-7.7 7.6-13.1c0-8.4-6.8-15.1-15.1-15.1H160c-4.4 0-8 3.6-8 8l0 6.5-48 0V152zm64 152h48v48H168V304z"/></svg>