<svg xmlns="http://www.w3.org/2000/svg" viewBox="0 0 640 512"><!--! Font Awesome Pro 6.2.0 by @fontawesome - https://fontawesome.com License - https://fontawesome.com/license (Commercial License) Copyright 2022 Fonticons, Inc. --><path d="M320 32h24 48c116.6 0 211.6 92.4 215.9 208h.1v7.3l0 .7v72l0 .3c-.2 44.1-35.9 79.7-80 79.7H515.6l45.7 80H506.1l-45.7-80H380l-55.4 80H266.2l55.4-80h-53l-59.8 80H148.9l65-86.9-41.2-15.7L91.6 480H30.5L301.2 137.1l25-31.7 15.9 37.1 21.5 50.2 41.2-55.1 24.9-33.3 16.4 38.2L487.8 240h72C555.6 150.9 482.1 80 392 80H344 320V32zM435.6 240l-17.3-40.3L388.2 240h47.4zm-107.3 0l2.1-2.8-16.6-38.6L281.1 240h47.2zM64 240H182.7L96.1 348.2 64 336V240zm464 80c8.8 0 16-7.2 16-16s-7.2-16-16-16s-16 7.2-16 16s7.2 16 16 16z"/></svg>