<svg xmlns="http://www.w3.org/2000/svg" viewBox="0 0 640 512"><!--! Font Awesome Pro 6.2.0 by @fontawesome - https://fontawesome.com License - https://fontawesome.com/license (Commercial License) Copyright 2022 Fonticons, Inc. --><path d="M352 32V64v80H288V64 32 0h64V32zm-96 96v60.1l-26.5-26.5-67.9 67.9 32.7 32.7c3.6 3.6 1.1 9.8-4.1 9.8H144v96h46.2c5.1 0 7.7 6.2 4.1 9.8l-32.7 32.7 68.9 68.9-119.9 30c-7.1 1.8-14.3 2.7-21.6 2.7c-49.1 0-89-39.8-89-89v-7c0-1.3 .1-2.7 .2-4c8.8-70.6 45.5-147.2 78-203.9c16.5-28.9 32.4-53.6 44.3-71.1c5.9-8.8 10.8-15.7 14.3-20.6c1.7-2.4 3.1-4.3 4.1-5.6l1.1-1.5 .3-.4 .1-.1 0 0 0 0s0 0 25.6 19.2l-25.6-19.2L152 96h16 56 32v32zM529.4 509.3l-119.9-30 68.9-68.9-32.7-32.7c-3.6-3.6-1.1-9.8 4.1-9.8H496V272H449.8c-5.1 0-7.7-6.2-4.1-9.8l32.7-32.7-67.9-67.9L384 188.1V128 96h32 56 16l9.6 12.8L472 128c25.6-19.2 25.6-19.2 25.6-19.2l0 0 0 0 .1 .1 .3 .4 1.1 1.5c1 1.3 2.3 3.2 4.1 5.6c3.5 4.8 8.4 11.8 14.3 20.6c11.8 17.5 27.8 42.2 44.3 71.1c32.4 56.7 69.1 133.3 78 203.9c.2 1.3 .2 2.6 .2 4v7c0 49.1-39.8 89-89 89c-7.3 0-14.5-.9-21.6-2.7zM410.5 206.9l11.3 11.3 11.3 11.3-11.3 11.3C398.5 264.1 415 304 448 304h16v16 16H448c-33 0-49.5 39.9-26.2 63.2l11.3 11.3-11.3 11.3-11.3 11.3-11.3-11.3C375.9 398.5 336 415 336 448v16H320 304V448c0-33-39.9-49.5-63.2-26.2l-11.3 11.3-11.3-11.3 0 0-11.3-11.3 11.3-11.3C241.5 375.9 225 336 192 336H176V320 304h16c33 0 49.5-39.9 26.2-63.2l-11.3-11.3 11.3-11.3 0 0 11.3-11.3 11.3 11.3C264.1 241.5 304 225 304 192V176h16 16v16c0 33 39.9 49.5 63.2 26.2l11.3-11.3zM296 320c13.3 0 24-10.7 24-24s-10.7-24-24-24s-24 10.7-24 24s10.7 24 24 24zm72 32c0-8.8-7.2-16-16-16s-16 7.2-16 16s7.2 16 16 16s16-7.2 16-16z"/></svg>