<svg xmlns="http://www.w3.org/2000/svg" viewBox="0 0 512 512"><!--! Font Awesome Pro 6.2.0 by @fontawesome - https://fontawesome.com License - https://fontawesome.com/license (Commercial License) Copyright 2022 Fonticons, Inc. --><path d="M416 208c0 45.9-14.9 88.3-40 122.7L486.6 441.4 509.3 464 464 509.3l-22.6-22.6L330.7 376c-34.4 25.2-76.8 40-122.7 40C93.1 416 0 322.9 0 208S93.1 0 208 0S416 93.1 416 208zm-312 8v64l0 24h48V280l0-64V192H104l0 24zm80-96V280l0 24h48l0-24V120 96l-48 0v24zm80 64v96 24h48V280 184 160l-48 0v24z"/></svg>