<svg xmlns="http://www.w3.org/2000/svg" viewBox="0 0 576 512"><!--! Font Awesome Pro 6.2.0 by @fontawesome - https://fontawesome.com License - https://fontawesome.com/license (Commercial License) Copyright 2022 Fonticons, Inc. --><path d="M216.2 152.2C253.7 114.7 302.9 96 352 96V24 0h32 16 8 64c39.8 0 72 32.2 72 72V96H520 480c-33.4 0-62.8-17-80-42.9v49c32.2 8.3 62.6 25 87.8 50.2C525.3 189.7 544 238.9 544 288c0 76.6-57.5 224-224 224c-144 0-244.1-43.3-244.1-43.3L32 448l-1.8-64 26.5-18.5c34.3-25.7 52.1-59.4 71.1-95.4c20.6-38.9 42.6-80.6 88.4-117.9zM432 288c0 61.9-50.1 112-112 112v32c79.5 0 144-64.5 144-144H432z"/></svg>