<svg xmlns="http://www.w3.org/2000/svg" viewBox="0 0 512 512"><!--! Font Awesome Pro 6.2.0 by @fontawesome - https://fontawesome.com License - https://fontawesome.com/license (Commercial License) Copyright 2022 Fonticons, Inc. --><path d="M448 256c0-106-86-192-192-192S64 150 64 256s86 192 192 192s192-86 192-192zm64 0c0 141.4-114.6 256-256 256S0 397.4 0 256S114.6 0 256 0S512 114.6 512 256zM256 128c16.6 0 30.3-12.6 31.8-28.8C361 113.9 416 178.5 416 256s-55 142.1-128.2 156.8C286.3 396.6 272.6 384 256 384s-30.3 12.6-31.8 28.8C151 398.1 96 333.5 96 256s55-142.1 128.2-156.8c1.6 16.2 15.2 28.8 31.8 28.8zm-80 48v32h32V176H176zm0 64v32h32V240H176zm32 64H176v32h32V304zm64-128H240v32h32V176zm-32 64v32h32V240H240zm32 64H240v32h32V304zm64-128H304v32h32V176zm-32 64v32h32V240H304zm32 64H304v32h32V304z"/></svg>