<svg xmlns="http://www.w3.org/2000/svg" viewBox="0 0 576 512"><!--! Font Awesome Pro 6.2.0 by @fontawesome - https://fontawesome.com License - https://fontawesome.com/license (Commercial License) Copyright 2022 Fonticons, Inc. --><path d="M288 320s120-130 120-200C408 53.7 354.3 0 288 0S168 53.7 168 120c0 70 120 200 120 200zM133 138.8L0 192V512l160-64V200.9c-11.9-21.4-21.5-42.6-27-62.1zM288 373.3s-51.5-55.7-96-121V448l192 64V252.3c-44.6 65.3-96 121-96 121zM422 189.6c-1.9 3.7-4 7.5-6 11.3V512l160-64V128L422 189.6z"/></svg>