<svg xmlns="http://www.w3.org/2000/svg" viewBox="0 0 576 512"><!--! Font Awesome Pro 6.2.0 by @fontawesome - https://fontawesome.com License - https://fontawesome.com/license (Commercial License) Copyright 2022 Fonticons, Inc. --><path d="M408 120c0 70-120 200-120 200s-120-130-120-200C168 53.7 221.7 0 288 0s120 53.7 120 120zM160 200.9V448L0 512V192l133-53.2c5.5 19.4 15.1 40.6 27 62.1zm224 51.5V512L192 448V252.3c44.5 65.3 96 121 96 121s51.4-55.7 96-121zm32-51.5c2.1-3.8 4.1-7.5 6-11.3L576 128V448L416 512V200.9zM288 152c22.1 0 40-17.9 40-40s-17.9-40-40-40s-40 17.9-40 40s17.9 40 40 40z"/></svg>