<svg xmlns="http://www.w3.org/2000/svg" viewBox="0 0 512 512"><!--! Font Awesome Pro 6.2.0 by @fontawesome - https://fontawesome.com License - https://fontawesome.com/license (Commercial License) Copyright 2022 Fonticons, Inc. --><path d="M512 0H384L352 32l41.4 41.4-23 23L345 71l-17-17L294.1 88l17 17 25.4 25.4L307.8 159c-28.4-19.5-62.7-31-99.8-31c-97.2 0-176 78.8-176 176s78.8 176 176 176s176-78.8 176-176c0-37-11.4-71.4-31-99.8l28.6-28.6L407 201l17 17L457.9 184l-17-17-25.4-25.4 23-23L480 160l32-32V0zM320 304c0 61.9-50.1 112-112 112s-112-50.1-112-112s50.1-112 112-112s112 50.1 112 112z"/></svg>