<svg xmlns="http://www.w3.org/2000/svg" viewBox="0 0 640 512"><!--! Font Awesome Pro 6.2.0 by @fontawesome - https://fontawesome.com License - https://fontawesome.com/license (Commercial License) Copyright 2022 Fonticons, Inc. --><path d="M320 256c0-61.9-50.1-112-112-112s-112 50.1-112 112s50.1 112 112 112s112-50.1 112-112zm62.4 24C370.7 365.8 297.1 432 208 432c-97.2 0-176-78.8-176-176s78.8-176 176-176c89.1 0 162.7 66.2 174.4 152H416V184 160h48v24 48h32V160h32l96 96-96 96H496V280H464v48 24H416V328 280H382.4z"/></svg>