<svg xmlns="http://www.w3.org/2000/svg" viewBox="0 0 640 512"><!--! Font Awesome Pro 6.2.0 by @fontawesome - https://fontawesome.com License - https://fontawesome.com/license (Commercial License) Copyright 2022 Fonticons, Inc. --><path d="M176 0L133.8 88.5 38.4 66.3l42.9 88.1L4.4 215.2 100 236.6l-.4 98L176 273.2l57.2 46c-16-28-25.2-60.5-25.2-95.2c0-60.7 28.1-114.7 72.1-149.9L218.2 88.5 176 0zM640 0H512L480 32l47 47-23.2 23.2C475.9 78.4 439.6 64 400 64c-88.4 0-160 71.6-160 160c0 80.2 59 146.6 136 158.2V384v.4 .4 .4 .4 .4 .4 .4 .4 .4 .4 .4 .4 .4 .4 .4 .4 .4 .4 .4 .4 .4 .4 .4 .4 .4 .4 .4 .4 .4 .4 .3 .4 .3 .3 .3 .3 .3 .3 .3 .3 .3 .3 .3 .3 .3 .3 .3 .3 .3 .3 .3 .3 .3 .3 .3 .3 .3 .3 .3 .3 .3 .3 .3 .3 .3 .3 .3 .3 .3H352 328v48h24 24v.2 .2 .2 .2 .2 .2 .2 .2 .2 .2 .2 .2 .2 .2 .2 .2 .2 .2 .2 .2 .2 .2 .2 .2 .2 .2 .2 .2 .2 .2 .2 .2 .2 .2 .2 .2 .2 .2 .2 .2 .2 .2 .2 .2 .2 .2 .2 .2 .2 .2 .2 .2 .2 .2 .2 .2 .2 .2 .2 .2 .2 .2 .2 .2 .2 .2 .2 .2 .2 .2 .2 .2 .2 .2 .2 .2 .2 .2 .2 .2 .2 .2 .2 .2 .2 .2 .2 .2 .2 .2 .2 .2 .2 .2 .2 .2 .2 .2 .2 .2 .2 .1 .1 .1 .1 .1 .1 .1 .1 .1 .1 .1 .1 .1 .1 .1 .1 .1 .1 .1 .1 .1 .1 .1 .1 .1 .1 .1 .1 .1 .1 .1 .1 .1 .1 .1 .1 .1 .1 .1 .1 .1 .1 .1 .1 .1 .1 .1 .1 .1 .1 .1 .1 .1 .1 .1 .1 .1 .1 .1 .1 .1 .1 .1 .1 .1 .1 .1 .1 .1 .1 .1 .1 .1 .1 .1 .1 .1 .1 .1 .1 .1 .1 .1 .1 .1 .1 .1 .1 .1 .1 .1 .1 .1 .1 .1 .1 .1 .1 .1 .1 .1 .1 .1 .1 .1 .1 .1 .1 .1 .1 .1 .1 .1 .1 .1 .1 .1 0 0 0 0 0 0 0 0 0 0 0 0 0 0 0 0 0 0 0 0 0 0 0 0 0 0 0 0 0 0 0 0 0 0 0 0 0 0 0 0 0 0 0 0 0 0 0 0 0 0 0 0 0l24 0H376v24h48V488H400l24 0v0 0 0 0 0 0 0 0 0 0 0 0 0 0 0 0 0 0 0 0 0 0 0 0 0 0 0 0 0 0 0 0 0 0 0 0 0 0 0 0 0 0 0 0 0 0 0 0 0 0 0 0 0-.1-.1-.1-.1-.1-.1-.1-.1-.1-.1V486 486v-.1-.1-.1-.1-.1-.1-.1-.1-.1-.1-.1-.1-.1V485 485v-.1-.1-.1-.1-.1-.1-.1-.1-.1-.1-.1V484v-.1-.1-.1-.1-.1-.1-.1-.1-.1-.1V483v-.1-.1-.1-.1-.1-.1-.1-.1-.1-.1-.1-.1-.1-.1-.1-.1-.1-.1-.1V481v-.1-.1-.1-.1-.1-.1-.1-.1V480v-.1-.1-.1-.1-.1-.1-.1V479v-.1-.1-.1-.1-.1-.1-.1V478v-.1-.1-.1-.1-.1-.1V477v-.1-.1-.1-.1-.1-.1V476v-.1-.1-.1-.1-.1-.1V475v-.1-.2-.2-.2-.2-.2V474v-.2-.2-.2-.2-.2V473v-.2-.2-.2-.2-.2-.2-.2-.2-.2-.2-.2-.2-.2-.2-.2-.2-.2V470v-.2-.2-.2-.2-.2V469v-.2-.2-.2-.2-.2-.2-.2-.2-.2-.2V467v-.2-.2-.2-.2-.2-.2-.2-.2-.2-.2-.2-.2-.2-.2-.2-.2-.2-.2-.2-.2V463v-.2-.2-.2-.2-.2-.2-.2-.2-.2-.2-.2-.2-.2-.2-.2-.2-.2-.2V459v-.2-.2-.2-.2-.2-.2-.2-.2V457v-.2-.2-.2-.2V456h24 24V408H448 424v-.3-.3-.3-.3-.3-.3-.3-.3-.3-.3-.3-.3-.3-.3V403v-.3-.3V402v-.3-.3V401v-.3-.3V400v-.3-.3-.3-.3-.3-.3-.3-.3-.3-.3-.3-.3-.3-.4-.3-.4-.4-.4-.4V393v-.4-.4-.4-.4-.4-.4-.4-.4-.4-.4-.4-.4-.4V388v-.4-.4-.4-.4-.4-.4-.4-.4-.4-.4V384v-1.8c77-11.6 136-78 136-158.2c0-31.4-9-60.7-24.7-85.4L561 113l47 47 32-32V0zM400 320c-53 0-96-43-96-96s43-96 96-96s96 43 96 96s-43 96-96 96z"/></svg>