<svg xmlns="http://www.w3.org/2000/svg" viewBox="0 0 320 512"><!--! Font Awesome Pro 6.2.0 by @fontawesome - https://fontawesome.com License - https://fontawesome.com/license (Commercial License) Copyright 2022 Fonticons, Inc. --><path d="M160 0L80 80V96h56v24H104 80v48h24 32v24c0 .6 0 1.2 .1 1.8C59.1 205.3 0 271.8 0 352c0 88.4 71.6 160 160 160s160-71.6 160-160c0-80.2-59.1-146.7-136.1-158.2c0-.6 .1-1.2 .1-1.8V168h32 24V120H216 184V96h56V80L160 0zm96 352c0 53-43 96-96 96s-96-43-96-96s43-96 96-96s96 43 96 96z"/></svg>