<svg xmlns="http://www.w3.org/2000/svg" viewBox="0 0 448 512"><!--! Font Awesome Pro 6.2.0 by @fontawesome - https://fontawesome.com License - https://fontawesome.com/license (Commercial License) Copyright 2022 Fonticons, Inc. --><path d="M448 32H320L288 64l41.4 41.4L275.8 159c-28.4-19.5-62.7-31-99.8-31C78.8 128 0 206.8 0 304s78.8 176 176 176s176-78.8 176-176c0-37-11.4-71.4-31-99.8l53.6-53.6L416 192l32-32V32zM176 416c-61.9 0-112-50.1-112-112s50.1-112 112-112s112 50.1 112 112s-50.1 112-112 112z"/></svg>