<svg xmlns="http://www.w3.org/2000/svg" viewBox="0 0 640 512"><!--! Font Awesome Pro 6.2.0 by @fontawesome - https://fontawesome.com License - https://fontawesome.com/license (Commercial License) Copyright 2022 Fonticons, Inc. --><path d="M320 32H448V160l-32 32-41.4-41.4L321 204.2c19.5 28.4 31 62.7 31 99.8c0 97.2-78.8 176-176 176S0 401.2 0 304s78.8-176 176-176c37 0 71.4 11.4 99.8 31l53.6-53.6L288 64l32-32zM288 304c0-61.9-50.1-112-112-112s-112 50.1-112 112s50.1 112 112 112s112-50.1 112-112zm16 164c18.9-14.8 35.2-32.8 48.1-53.1c5.2 .7 10.6 1.1 16 1.1c61.9 0 112-50.1 112-112c0-35.7-16.7-67.5-42.7-88L480 173.3V146.7l41.4-41.4L480 64l32-32H640V160l-32 32-41.4-41.4L513 204.2c19.5 28.4 31 62.7 31 99.8c0 97.2-78.8 176-176 176c-22.6 0-44.2-4.3-64-12z"/></svg>