<svg xmlns="http://www.w3.org/2000/svg" viewBox="0 0 640 512"><!--! Font Awesome Pro 6.2.0 by @fontawesome - https://fontawesome.com License - https://fontawesome.com/license (Commercial License) Copyright 2022 Fonticons, Inc. --><path d="M384 393.2v76.6c38-12.6 70.6-36 93.5-66.4l144.4-36.1 18.2-4.5V344 152 128H616 454.5c-2.3-3.5-4.6-7-6.9-10.4L384 32H256l-64 85.6c-2.4 3.4-4.7 6.9-6.9 10.4H24 0v24V344v18.7l18.2 4.5 144.1 36c22.7 30.5 55.4 54.1 93.8 66.6V393.3c-19.7-16.4-32-40.3-32-66.9c0-26.5 12.4-63.2 32-91.6L288 192h32 32l31.8 42.8c19.7 28.4 32.2 65.1 32.2 91.6c0 26.7-12.4 50.4-32 66.8zM134.3 346.8L48 325.3V176H159.1C139.4 219.2 128 264.7 128 300.8c0 15.9 2.2 31.4 6.3 46zM480.7 176H592V325.3l-86.4 21.6c4.2-14.7 6.4-30.1 6.4-46.1c0-36.1-11.6-81.6-31.3-124.8zM288 288V512h64V288H288z"/></svg>