<svg xmlns="http://www.w3.org/2000/svg" viewBox="0 0 640 512"><!--! Font Awesome Pro 6.2.0 by @fontawesome - https://fontawesome.com License - https://fontawesome.com/license (Commercial License) Copyright 2022 Fonticons, Inc. --><path d="M304 64h-9.7l-8.1 5.4L198.3 128H144 128 24 0v24V344v18.7l18.2 4.5 180.7 45.2C233.8 435 275.4 448 320 448s86.2-13 121.1-35.5l180.7-45.2 18.2-4.5V344 152 128H616 512 496 441.7L353.8 69.4 345.7 64H336 304zM132.3 346.3L48 325.3V176H96v48c0 45.1 13.4 87.2 36.3 122.3zM592 325.3l-84.3 21.1c23-35.2 36.3-77.2 36.3-122.3V176h48V325.3zM422.3 192H432h16v32H432 208 192V192h16 9.7H422.3zM192 256h16H432h16v32H432 208 192V256zm32 64h16H400h16v32H400 240 224V320z"/></svg>