<svg xmlns="http://www.w3.org/2000/svg" viewBox="0 0 512 512"><!--! Font Awesome Pro 6.2.0 by @fontawesome - https://fontawesome.com License - https://fontawesome.com/license (Commercial License) Copyright 2022 Fonticons, Inc. --><path d="M0 0H144l86.4 129.6c-42.2 5.2-80.5 23-111 49.6L0 0zM512 0L392.6 179.1c-30.5-26.6-68.8-44.4-111-49.6L368 0H512zM432 336c0 97.2-78.8 176-176 176s-176-78.8-176-176s78.8-176 176-176s176 78.8 176 176zM256 240l-29.7 57.2L160 306.3l48 44.5-11.3 62.8L256 384l59.3 29.7L304 350.8l48-44.5-66.3-9.2L256 240z"/></svg>