<svg xmlns="http://www.w3.org/2000/svg" viewBox="0 0 576 512"><!--! Font Awesome Pro 6.2.0 by @fontawesome - https://fontawesome.com License - https://fontawesome.com/license (Commercial License) Copyright 2022 Fonticons, Inc. --><path d="M384 0H0V512H330.8C285.6 480.1 256 427.5 256 368c0-80.6 54.1-148.5 128-169.4V0zM80 128H304h16v32H304 80 64V128H80zm0 96H240h16v32H240 80 64V224H80zm0 96h96 16v32H176 80 64V320H80zm496 48c0-79.5-64.5-144-144-144s-144 64.5-144 144s64.5 144 144 144s144-64.5 144-144zm-65.4-32l-11.3 11.3-72 72L416 430.6l-11.3-11.3-40-40L353.4 368 376 345.4l11.3 11.3L416 385.4l60.7-60.7L488 313.4 510.6 336z"/></svg>