<svg xmlns="http://www.w3.org/2000/svg" viewBox="0 0 384 512"><!--! Font Awesome Pro 6.2.0 by @fontawesome - https://fontawesome.com License - https://fontawesome.com/license (Commercial License) Copyright 2022 Fonticons, Inc. --><path d="M39.3 0c9.8 31.3 29 58.4 54.2 78.1C46.7 109.7 16 163.3 16 224c0 89.1 66.2 162.7 152 174.4V424H136 112v48h24 32v16 24h48V488 472h32 24V424H248 216V398.4c85.8-11.7 152-85.3 152-174.4c0-60.7-30.7-114.3-77.5-145.9C315.7 58.4 334.9 31.3 344.7 0H275.2C258.6 28.7 227.5 48 192 48s-66.6-19.3-83.2-48H39.3zM80 224c0-61.9 50.1-112 112-112s112 50.1 112 112s-50.1 112-112 112s-112-50.1-112-112z"/></svg>