<svg xmlns="http://www.w3.org/2000/svg" viewBox="0 0 640 512"><!--! Font Awesome Pro 6.2.0 by @fontawesome - https://fontawesome.com License - https://fontawesome.com/license (Commercial License) Copyright 2022 Fonticons, Inc. --><path d="M416 0H0V320H96v64l106.7-64H416V0zM256 352v96H437.3L544 512V448h96V128H448V352H256zM134.7 108c0-25.8 20.9-46.7 46.7-46.7h47.4c29.1 0 52.6 23.6 52.6 52.6c0 18.8-10.1 36.3-26.4 45.6L228 175v6.3 20H188v-20V163.5 151.9l10-5.8L235 124.9c3.9-2.3 6.3-6.4 6.3-10.9c0-7-5.7-12.6-12.6-12.6H181.3c-3.7 0-6.7 3-6.7 6.7l0 5.5-40 0 0-5.5zM188 234.7h40v40H188v-40z"/></svg>