<svg xmlns="http://www.w3.org/2000/svg" viewBox="0 0 512 512"><!--! Font Awesome Pro 6.2.0 by @fontawesome - https://fontawesome.com License - https://fontawesome.com/license (Commercial License) Copyright 2022 Fonticons, Inc. --><path d="M0 0H512V416H304L160 512V416H0V0zM192 144v16 96 16h32V256 203l18.4 29.5L256 254.2l13.6-21.7L288 203v53 16h32V256 160 144H304h-8-8.9l-4.7 7.5L256 193.8l-26.4-42.3-4.7-7.5H216h-8H192zm-87.8 37.5l0 0c0-.2 .3-1.8 4-3.4c3.7-1.7 9.8-2.7 17.6-1.5c2.8 .4 11.8 2.2 14.2 2.8l15.5 4.1 8.2-30.9-15.5-4.1c-3.9-1.1-14.1-3-17.5-3.5c-12.6-2-25.3-.8-35.7 4c-10.6 4.8-20 13.8-22.3 27.1c-1.3 7.2-.6 14.4 2.5 20.9c3 6.4 7.8 10.9 12.5 14.1c8.1 5.5 18.7 8.7 26.4 11l0 0 1.5 .5c9.4 2.8 15.3 4.9 18.7 7.4c1.4 1 1.6 1.6 1.6 1.6l0 0c0 .1 .1 .2 .1 .6c0 .4 .1 1.2-.2 2.3c-.2 1.3-.8 2.6-3.8 3.9c-3.5 1.5-9.5 2.4-17.8 1.1c-3.8-.6-10.6-2.9-16.9-5.1l0 0 0 0c-1.5-.5-3-1-4.4-1.5l-15.2-5.1L67.8 258.1l15.2 5.1c.8 .3 1.7 .6 2.8 1l0 0c6.1 2.1 16.7 5.7 23.5 6.8l0 0 .1 0c12.2 1.9 24.7 1.3 35.3-3.3c11.2-4.8 20.3-14.1 22.7-27.8c1.3-7.3 .7-14.5-2.2-21.2c-2.8-6.6-7.4-11.3-12.2-14.7c-8.5-6.2-19.6-9.5-27.6-11.9l-.7-.2c-9.6-2.9-15.6-4.8-19.2-7.3c-1-.7-1.4-1.1-1.5-1.3c0-.2-.1-.8 .1-1.8zm-.1 1.9s0 0 0-.1c0 .1 0 .1 0 .1zm272.1-1.9l0 0c0-.2 .3-1.8 4-3.4c3.7-1.7 9.8-2.7 17.6-1.5c2.8 .4 11.8 2.2 14.2 2.8l15.5 4.1 8.2-30.9-15.5-4.1c-4-1.1-14.1-3-17.5-3.5c-12.6-2-25.3-.8-35.7 4c-10.6 4.8-20 13.8-22.3 27.1c-1.3 7.2-.6 14.4 2.5 20.9c3 6.4 7.8 10.9 12.5 14.1c8.1 5.5 18.7 8.7 26.4 11l1.5 .5c9.4 2.8 15.3 4.9 18.7 7.4c1.4 1 1.6 1.6 1.6 1.6l0 0c0 .1 .1 .2 .1 .6c0 .4 .1 1.2-.2 2.3c-.2 1.3-.8 2.6-3.8 3.9c-3.5 1.5-9.5 2.4-17.8 1.1c-3.8-.6-10.6-2.9-16.9-5.1l0 0c-1.5-.5-3-1-4.4-1.5l-15.2-5.1-10.1 30.4 15.2 5.1c.8 .3 1.7 .6 2.8 1l0 0c6.1 2.1 16.7 5.7 23.5 6.8l0 0 .1 0c12.2 1.9 24.7 1.3 35.3-3.3c11.2-4.8 20.3-14.1 22.7-27.8c1.3-7.3 .7-14.5-2.2-21.2c-2.8-6.6-7.4-11.3-12.2-14.7c-8.5-6.2-19.6-9.5-27.6-11.9l-.7-.2c-9.6-2.9-15.6-4.8-19.2-7.3c-1-.7-1.4-1.1-1.5-1.3c0-.2-.1-.8 .1-1.8zm-.1 1.9s0 0 0-.1c0 .1 0 .1 0 .1z"/></svg>