<svg xmlns="http://www.w3.org/2000/svg" viewBox="0 0 640 512"><!--! Font Awesome Pro 6.2.0 by @fontawesome - https://fontawesome.com License - https://fontawesome.com/license (Commercial License) Copyright 2022 Fonticons, Inc. --><path d="M256 512c33.4 0 65.3-6.4 94.6-18C312.1 458.9 288 408.3 288 352.2c0-47.2 24.9-91 53.7-128.2H320V192 160 128h64v32 16c20.1-20.3 41.7-39 64-57c15 12.2 29.8 24.5 43.9 37.5C453.1 64.5 362.1 0 256 0C114.6 0 0 114.6 0 256S114.6 512 256 512zM192 160v32 32H128V192 160 128h64v32zm96 0v32 32H224V192 160 128h64v32zm225 64.1c-32.3-37.5-65-64-65-64s-128 103.6-128 192s71.6 160 160 160s160-71.6 160-160c0-73.6-96-160-96-160s-13.9 12.5-31 32zM530 433c-15 10-31 15-49 15c-45 0-81-29-81-78c0-24 15-45 45-82c4 5 62 79 62 79l36-42c3 4 5 8 7 12c18 33 10 75-20 96z"/></svg>