<svg xmlns="http://www.w3.org/2000/svg" viewBox="0 0 512 512"><!--! Font Awesome Pro 6.2.0 by @fontawesome - https://fontawesome.com License - https://fontawesome.com/license (Commercial License) Copyright 2022 Fonticons, Inc. --><path d="M176 24V0H128V24 64H64v64H24 0v48H24 64v56H24 0v48H24 64v56H24 0v48H24 64v64h64v40 24h48V488 448h56v40 24h48V488 448h56v40 24h48V488 448h64V384h40 24V336H488 448V280h40 24V232H488 448V176h40 24V128H488 448V64H384V24 0H336V24 64H280V24 0H232V24 64H176V24zM352 176v16V320v16H320V320 192 176h32zM162.5 336H127.5l9.8-22.4 14-32 42-96 4.2-9.6h20.9l4.2 9.6 42 96 14 32 9.8 22.4H253.5l-4.2-9.6L239.5 304H176.5l-9.8 22.4-4.2 9.6zM208 231.9L190.5 272h35.1L208 231.9z"/></svg>