<svg xmlns="http://www.w3.org/2000/svg" viewBox="0 0 384 512"><!--! Font Awesome Pro 6.2.0 by @fontawesome - https://fontawesome.com License - https://fontawesome.com/license (Commercial License) Copyright 2022 Fonticons, Inc. --><path d="M96 0V256c0 53 43 96 96 96s96-43 96-96H208 192V224h16 80V192H208 192V160h16 80V128H208 192V96h16 80V0H96zM320 224v32c0 70.7-57.3 128-128 128s-128-57.3-128-128V216 192H16v24 40c0 89.1 66.2 162.7 152 174.4V464H120 96v48h24 72 72 24V464H264 216V430.4c85.8-11.7 152-85.3 152-174.4V216 192H320v24 8z"/></svg>