<svg xmlns="http://www.w3.org/2000/svg" viewBox="0 0 384 512"><!--! Font Awesome Pro 6.2.0 by @fontawesome - https://fontawesome.com License - https://fontawesome.com/license (Commercial License) Copyright 2022 Fonticons, Inc. --><path d="M160 250.5L81.9 469.2l60.3 21.5 17.9-50V448h64V416 261.5l35.7-100c3.9-1 8.1-1.6 12.3-1.6c26.5 0 48 21.5 48 48V416v32h64V416 208c0-58.2-44.3-106-101.1-111.5l19.2-53.8L241.9 21.2 208 116.1c-5.7 4-11.1 8.5-16 13.5C171.7 108.9 143.3 96 112 96c-17.2 0-33.5 3.9-48 10.8V96H0V208 416v32H64V416 208c0-26.5 21.5-48 48-48s48 21.5 48 48v42.5z"/></svg>