<svg xmlns="http://www.w3.org/2000/svg" viewBox="0 0 512 512"><!--! Font Awesome Pro 6.2.0 by @fontawesome - https://fontawesome.com License - https://fontawesome.com/license (Commercial License) Copyright 2022 Fonticons, Inc. --><path d="M64 64H288V306.5c18.8-20.4 40.3-38.3 64-53V64 0H288 64 0V64 448v64H64 208c0-22 2.3-43.4 6.7-64H64V64zM224 384H208 144 128v32h16 64 15.5l.5-1.6V384zm288-80V256c-141.4 0-256 114.6-256 256h48c0-114.9 93.1-208 208-208zM480 512c17.7 0 32-14.3 32-32s-14.3-32-32-32s-32 14.3-32 32s14.3 32 32 32zm-80 0c0-61.9 50.1-112 112-112V352c-88.4 0-160 71.6-160 160h48z"/></svg>