<svg xmlns="http://www.w3.org/2000/svg" viewBox="0 0 512 512"><!--! Font Awesome Pro 6.2.0 by @fontawesome - https://fontawesome.com License - https://fontawesome.com/license (Commercial License) Copyright 2022 Fonticons, Inc. --><path d="M64 64H224V0H64 0V64 448v64H64 288h64V448 288H288V448H64V64zm80 320H128v32h16 64 16V384H208 144zM256 48c114.9 0 208 93.1 208 208h48C512 114.6 397.4 0 256 0V48zm32 208c17.7 0 32-14.3 32-32s-14.3-32-32-32s-32 14.3-32 32s14.3 32 32 32zm80 0h48c0-88.4-71.6-160-160-160v48c61.9 0 112 50.1 112 112z"/></svg>