<svg xmlns="http://www.w3.org/2000/svg" viewBox="0 0 576 512"><!--! Font Awesome Pro 6.2.0 by @fontawesome - https://fontawesome.com License - https://fontawesome.com/license (Commercial License) Copyright 2022 Fonticons, Inc. --><path d="M576 64H0V448H576V64zM128 384H64V320c35.3 0 64 28.7 64 64zM64 192V128h64c0 35.3-28.7 64-64 64zM448 384c0-35.3 28.7-64 64-64v64H448zm64-192c-35.3 0-64-28.7-64-64h64v64zM400 256c0 61.9-50.1 112-112 112s-112-50.1-112-112s50.1-112 112-112s112 50.1 112 112zM252 188v40h16v48h-4H244v40h20 24 24 20V276H312h-4V208 188H288 272 252z"/></svg>