<svg xmlns="http://www.w3.org/2000/svg" viewBox="0 0 640 512"><!--! Font Awesome Pro 6.2.0 by @fontawesome - https://fontawesome.com License - https://fontawesome.com/license (Commercial License) Copyright 2022 Fonticons, Inc. --><path d="M0 512V160H160V288H128v32V512H0zM80 0s80 32 80 128H0C0 32 80 0 80 0zM216.6 288c-13.2-15.6-24.6-37-24.6-64c0-74 53.5-105.2 107.9-137C339.6 63.9 379.8 40.5 400 0c20.2 40.5 60.4 63.9 100.1 87C554.5 118.8 608 150 608 224c0 27-11.4 48.4-24.6 64H216.6zM288 512V440c0-13.3-10.7-24-24-24s-24 10.7-24 24v72H160V320H640V512H560V440c0-13.3-10.7-24-24-24s-24 10.7-24 24v72H448V454c0-19-8.4-37-23-49.2L400 384l-25 20.8C360.4 417 352 435 352 454v58H288z"/></svg>