<svg xmlns="http://www.w3.org/2000/svg" viewBox="0 0 640 512"><!--! Font Awesome Pro 6.2.0 by @fontawesome - https://fontawesome.com License - https://fontawesome.com/license (Commercial License) Copyright 2022 Fonticons, Inc. --><path d="M288 0V144.4L357.7 256H416v64H397.7L507.1 495l10.6 17H640V192H568V120 96H520v24 72H480V0H288zm64 64h64v64H352V64zm64 96v64H352V160h64zm160 96v64H512V256h64zm-64 96h64v64H512V352zM480 512l-30-48L268.3 173.3 240 128l-28.3 45.3L30 464 0 512H56.6 423.4 480zM240 218.6L303.4 320H240l-48 64-30.2-40.3L240 218.6z"/></svg>