<svg xmlns="http://www.w3.org/2000/svg" viewBox="0 0 512 512"><!--! Font Awesome Pro 6.2.0 by @fontawesome - https://fontawesome.com License - https://fontawesome.com/license (Commercial License) Copyright 2022 Fonticons, Inc. --><path d="M112 0H64V24c0 38.9 23.4 59.4 39.1 73.1l1.1 1C120.5 112.3 128 119.9 128 136v24h48V136c0-38.9-23.4-59.4-39.1-73.1l-1.1-1C119.5 47.7 112 40.1 112 24V0zM0 192V512H384V416h16c61.9 0 112-50.1 112-112s-50.1-112-112-112H384 352 0zm384 64h16c26.5 0 48 21.5 48 48s-21.5 48-48 48H384V256zM224 24V0H176V24c0 38.9 23.4 59.4 39.1 73.1l1.1 1C232.5 112.3 240 119.9 240 136v24h48V136c0-38.9-23.4-59.4-39.1-73.1l-1.1-1C231.5 47.7 224 40.1 224 24z"/></svg>