<svg xmlns="http://www.w3.org/2000/svg" viewBox="0 0 640 512"><!--! Font Awesome Pro 6.2.0 by @fontawesome - https://fontawesome.com License - https://fontawesome.com/license (Commercial License) Copyright 2022 Fonticons, Inc. --><path d="M48.4 14.8L29.4 .1 0 38 19 52.7 591.5 497.2l19 14.7L639.9 474l-19-14.7L384 275.4V163.9l74.1-24.7 21.9-7.3V108.8v-64V.4l-42.1 14-96 32L320 53.7V76.8v64 84.9L48.4 14.8zM320 359.7c-14.5-4.9-30.8-7.7-48-7.7c-61.9 0-112 35.8-112 80s50.1 80 112 80s112-35.8 112-80V398.5l-64-50.4v11.6z"/></svg>