<svg xmlns="http://www.w3.org/2000/svg" viewBox="0 0 640 512"><!--! Font Awesome Pro 6.2.0 by @fontawesome - https://fontawesome.com License - https://fontawesome.com/license (Commercial License) Copyright 2022 Fonticons, Inc. --><path d="M640 336c0-49-20.2-93.2-52.7-125.2L640 0 511.7 166.8c-15.5-4.4-31.8-6.8-48.6-6.8c-50.9 0-100.7 17.5-140.2 49.6L128 368V256l64-32V96L96 144 0 96V224l64 32v96c0 88.4 71.6 160 160 160H464c97.2 0 176-78.8 176-176zm-144-8c-13.3 0-24-10.7-24-24s10.7-24 24-24s24 10.7 24 24s-10.7 24-24 24z"/></svg>