<svg xmlns="http://www.w3.org/2000/svg" viewBox="0 0 640 512"><!--! Font Awesome Pro 6.2.0 by @fontawesome - https://fontawesome.com License - https://fontawesome.com/license (Commercial License) Copyright 2022 Fonticons, Inc. --><path d="M384 64v64H352 288 256V64H384zM352 192h32 64V128 64 0H384 256 192V64v64 64h64 32v32H192 128 32 0v64H32h96v32H96 32v64 64 64H96 224h64V448 384 320H224 192V288h96 64 96v32H416 352v64 64 64h64H544h64V448 384 320H544 512V288h96 32V224H608 512 448 352V192zM512 384h32v64H416V384h32 64zm-320 0h32v64H96V384h32 64z"/></svg>