<svg xmlns="http://www.w3.org/2000/svg" viewBox="0 0 640 512"><!--! Font Awesome Pro 6.2.0 by @fontawesome - https://fontawesome.com License - https://fontawesome.com/license (Commercial License) Copyright 2022 Fonticons, Inc. --><path d="M48.4 14.8L29.4 .1 0 38 19 52.7 591.5 497.2l19 14.7L639.9 474l-19-14.7L544 399.6V32H96V51.8l-47.6-37zM160 101.4V96h16 64 16v32H240 194.2L160 101.4zM301.8 211.6c.7-.3 1.4-.6 2.2-.8V112 96h16H464h16v16V349.9L448 325V128H336v82.7c18.6 6.6 32 24.4 32 45.3c0 2.2-.2 4.4-.4 6.6l-65.7-51zM192 384H365.5L192 247.3V384zm-32 16V222.1L96 171.6V480H487.4l-81.2-64H176 160V400z"/></svg>