<svg xmlns="http://www.w3.org/2000/svg" viewBox="0 0 512 512"><!--! Font Awesome Pro 6.2.0 by @fontawesome - https://fontawesome.com License - https://fontawesome.com/license (Commercial License) Copyright 2022 Fonticons, Inc. --><path d="M0 32H448V231.1c-22.4 5.1-43.9 12.8-64 22.8V112 96H368 224 208v16 98.7c-18.6 6.6-32 24.4-32 45.3c0 26.5 21.5 48 48 48s48-21.5 48-48c0-20.9-13.4-38.7-32-45.3V128H352V272.5c-41.6 27.9-75.6 66.3-98.1 111.5H96V128h48 16V96H144 80 64v16V400v16H80 240.4c-7.2 20.4-12.2 41.8-14.6 64H0V32zM512 304c-114.9 0-208 93.1-208 208H256c0-141.4 114.6-256 256-256v48zM480 512c-17.7 0-32-14.3-32-32s14.3-32 32-32s32 14.3 32 32s-14.3 32-32 32zm-80 0H352c0-88.4 71.6-160 160-160v48c-61.9 0-112 50.1-112 112z"/></svg>