<svg xmlns="http://www.w3.org/2000/svg" viewBox="0 0 640 512"><!--! Font Awesome Pro 6.2.0 by @fontawesome - https://fontawesome.com License - https://fontawesome.com/license (Commercial License) Copyright 2022 Fonticons, Inc. --><path d="M0 32H448V160H434.3l-16 32H384V112 96H368 224 208v16 98.7c-18.6 6.6-32 24.4-32 45.3c0 26.5 21.5 48 48 48s48-21.5 48-48c0-20.9-13.4-38.7-32-45.3V128H352v64 96 96H96V128h48 16V96H144 80 64v16V400v16H80 368h9.1l4.6 64H0V32zM454.1 192H464h96 9.9l4.4 8.8L585.9 224H624h16v32H624 576 448 400 384V224h16 38.1l11.6-23.2 4.4-8.8zM608 512H416L400 288H624L608 512z"/></svg>