<svg xmlns="http://www.w3.org/2000/svg" viewBox="0 0 512 512"><!--! Font Awesome Pro 6.2.0 by @fontawesome - https://fontawesome.com License - https://fontawesome.com/license (Commercial License) Copyright 2022 Fonticons, Inc. --><path d="M368 0L336 32l32 32 32-32L368 0zm16 192H370.7l-9.4 9.4L306.7 256H245.2c6.9-14.5 10.8-30.8 10.8-48c0-61.9-50.1-112-112-112c-41.2 0-77.1 22.2-96.5 55.2l55.1 32.5C111 169.4 126.4 160 144 160c26.5 0 48 21.5 48 48s-21.5 48-48 48H88l24 64h32 16c35.3 0 64 28.7 64 64s-28.7 64-64 64C48 448 0 352 0 352s0 160 160 160c70.7 0 128-57.3 128-128c0-23.3-6.2-45.2-17.1-64H320h13.3l9.4-9.4L397.3 256H416c17.7 0 32 14.3 32 32v96c0 17.7-14.3 32-32 32c-64 0-96-48-96-48v64s16 48 96 48c53 0 96-43 96-96V288c0-53-43-96-96-96H384zM480 64s-66.5 32-112 32s-112-32-112-32s16 96 120 96c72 0 104-32 104-32V64z"/></svg>