<svg xmlns="http://www.w3.org/2000/svg" viewBox="0 0 448 512"><!--! Font Awesome Pro 6.2.0 by @fontawesome - https://fontawesome.com License - https://fontawesome.com/license (Commercial License) Copyright 2022 Fonticons, Inc. --><path d="M224 96C135.6 96 64 167.6 64 256c0 59.2 32.1 110.9 80 138.6l16 9.2v18.5V448v32H128 32 0V416H32 67.2C25.8 375.4 0 318.7 0 256C0 132.3 100.3 32 224 32s224 100.3 224 224c0 62.7-25.8 119.4-67.2 160H416h32v64H416 320 288V448 422.3 403.9l16-9.2c47.9-27.7 80-79.4 80-138.6c0-88.4-71.6-160-160-160z"/></svg>