<svg xmlns="http://www.w3.org/2000/svg" viewBox="0 0 384 512"><!--! Font Awesome Pro 6.2.0 by @fontawesome - https://fontawesome.com License - https://fontawesome.com/license (Commercial License) Copyright 2022 Fonticons, Inc. --><path d="M224 96H160V64c0-17.7 14.3-32 32-32s32 14.3 32 32V96zm32 0V64c0-35.3-28.7-64-64-64s-64 28.7-64 64V96H96v57.7C66.9 170.5 42.5 194.9 25.7 224H358.3c-16.9-29.1-41.2-53.5-70.3-70.3V96H256zM0 320c0 22.4 3.8 44 10.9 64H373.1c7.1-20 10.9-41.6 10.9-64s-3.8-44-10.9-64H10.9C3.8 276 0 297.6 0 320zm25.7 96c33.2 57.4 95.2 96 166.3 96s133.1-38.6 166.3-96H25.7z"/></svg>