<svg xmlns="http://www.w3.org/2000/svg" viewBox="0 0 576 512"><!--! Font Awesome Pro 6.2.0 by @fontawesome - https://fontawesome.com License - https://fontawesome.com/license (Commercial License) Copyright 2022 Fonticons, Inc. --><path d="M528 256c0 132.5-107.5 240-240 240c-55.2 0-106-18.6-146.5-49.9L88 480 0 440V336l52.5-33.3C49.6 287.6 48 272 48 256C48 123.5 155.5 16 288 16c53.5 0 102.9 17.5 142.9 47.1L480 32l96 40-8 104-45.5 28.8c3.6 16.5 5.5 33.6 5.5 51.2zm-6-107.7l3.5-45.4-40.9-17L467.5 96.7c16.1 18.1 29.5 38.7 39.5 61.1l14.9-9.5zM67.2 350.2L48 362.4v46.7l36.2 16.5L105.6 412c-15.7-18.4-28.8-39.2-38.4-61.8zM320 96c-35.3 0-64 28.7-64 64H384c0-35.3-28.7-64-64-64zm-99.7 64L192 131.7l-14.1 14.1-32 32L131.7 192 160 220.3l14.1-14.1 32-32L220.3 160zM296 240c0-13.3-10.7-24-24-24s-24 10.7-24 24s10.7 24 24 24s24-10.7 24-24zm72 152c13.3 0 24-10.7 24-24s-10.7-24-24-24s-24 10.7-24 24s10.7 24 24 24zm58.5-200L336 282.5c25 25 65.5 25 90.5 0s25-65.5 0-90.5zM214.6 288L192 265.4l-11.3 11.3-8 8-8 8L153.4 304 176 326.6l8-8 24 24V368c0 26.5 21.5 48 48 48s48-21.5 48-48s-21.5-48-48-48H230.6l-24-24 8-8z"/></svg>