<svg xmlns="http://www.w3.org/2000/svg" viewBox="0 0 640 512"><!--! Font Awesome Pro 6.2.0 by @fontawesome - https://fontawesome.com License - https://fontawesome.com/license (Commercial License) Copyright 2022 Fonticons, Inc. --><path d="M0 32H448v87c-22.3 18.1-43.9 36.8-64 57V96H64V224H341.7c-17 21.9-32.7 46.1-42.6 72H264v48h24.2c-.2 2.7-.2 5.4-.2 8.2c0 49.1 18.4 93.9 48.8 127.8H0V32zM168 296v48h48V296H168zm-96 0v48h48V296H72zm441-71.9c17.2-19.5 31-32 31-32s96 86.4 96 160c0 88.4-71.6 160-160 160s-160-71.6-160-160s128-192 128-192s32.6 26.4 65 64zM530 433c30-21 38-63 20-96c-2-4-4-8-7-12l-36 42s-58-74-62-79c-30 37-45 58-45 82c0 49 36 78 81 78c18 0 34-5 49-15z"/></svg>