<svg xmlns="http://www.w3.org/2000/svg" viewBox="0 0 512 512"><!--! Font Awesome Pro 6.2.0 by @fontawesome - https://fontawesome.com License - https://fontawesome.com/license (Commercial License) Copyright 2022 Fonticons, Inc. --><path d="M512 0H0V288H16c44.2 0 80 35.8 80 80v16c0 17.7 14.3 32 32 32s32-14.3 32-32V352H128V256h96v96H192v32c0 35.3-28.7 64-64 64s-64-28.7-64-64V368c0-26.5-21.5-48-48-48H0V512H512V0zM112 64h96 16V96H208 112 96V64h16zm192 0h96 16V96H400 304 288V64h16zM112 128h96 16v32H208 112 96V128h16zm192 0h96 16v32H400 304 288V128h16zM416 256V448H288V256H416z"/></svg>