<svg xmlns="http://www.w3.org/2000/svg" viewBox="0 0 640 512"><!--! Font Awesome Pro 6.2.0 by @fontawesome - https://fontawesome.com License - https://fontawesome.com/license (Commercial License) Copyright 2022 Fonticons, Inc. --><path d="M32 32H0V64 448v32H32 48h5.5l5.2-1.9 0 0 0 0 0 0 0 0 .1 0 .7-.3c.7-.2 1.8-.6 3.4-1.1c3.1-1 7.7-2.5 13.9-4.2c12.3-3.5 30.5-8.3 53.7-13.2C176.8 449.7 242.6 440 320 440s143.2 9.7 189.5 19.3c23.1 4.8 41.4 9.6 53.7 13.2c6.2 1.8 10.8 3.2 13.9 4.2c1.5 .5 2.7 .9 3.4 1.1l.7 .3 .1 0 0 0 0 0 0 0 0 0 5.2 1.9H592h16 32V448 64 32H608 592h-5.5l-5.2 1.9 0 0 0 0 0 0 0 0-.1 0-.7 .3c-.7 .2-1.8 .6-3.4 1.1c-3.1 1-7.7 2.5-13.9 4.2c-12.3 3.5-30.5 8.3-53.7 13.2C463.2 62.3 397.4 72 320 72s-143.2-9.7-189.5-19.3c-23.1-4.8-41.4-9.6-53.7-13.2c-6.2-1.8-10.8-3.2-13.9-4.2c-1.5-.5-2.7-.9-3.4-1.1l-.7-.3-.1 0 0 0 0 0L53.5 32H48 32zM160 160c0 17.7-14.3 32-32 32s-32-14.3-32-32s14.3-32 32-32s32 14.3 32 32zm208-18.6l19.8 29.1L512.3 353l31.8 46.7-55.7-9.5C442.7 382.4 385.2 376 320 376c-19 0-37.3 .5-54.9 1.5l-.8 1.2-.9-1.1c-42.5 2.4-80.5 7.3-112.7 12.8L88.4 401l39.5-49.3L197.3 265 216 241.6 234.7 265l26.4 33.1 87-127.6L368 141.4z"/></svg>