<svg xmlns="http://www.w3.org/2000/svg" viewBox="0 0 512 512"><!--! Font Awesome Pro 6.2.0 by @fontawesome - https://fontawesome.com License - https://fontawesome.com/license (Commercial License) Copyright 2022 Fonticons, Inc. --><path d="M357.5 60c-16.6 0-32.5 6.6-44.2 18.3L123.6 268C103.4 288.2 92 315.7 92 344.2C92 403.8 140.2 452 199.8 452c28.6 0 56-11.4 76.2-31.6L444.2 252.2l39.6 39.6L315.6 460c-30.7 30.7-72.4 48-115.8 48C109.3 508 36 434.7 36 344.2c0-43.4 17.3-85.1 48-115.8L273.7 38.7C295.9 16.5 326.1 4 357.5 4C422.9 4 476 57.1 476 122.5c0 31.4-12.5 61.6-34.7 83.8L257.1 390.5c-13.7 13.7-32.4 21.5-51.8 21.5c-40.5 0-73.3-32.8-73.3-73.3c0-19.4 7.7-38.1 21.5-51.8L316.2 124.2l39.6 39.6L193.1 326.5c-3.2 3.2-5.1 7.6-5.1 12.2c0 9.5 7.7 17.3 17.3 17.3c4.6 0 9-1.8 12.2-5.1L401.7 166.7C413.4 155 420 139.1 420 122.5C420 88 392 60 357.5 60z"/></svg>