<svg xmlns="http://www.w3.org/2000/svg" viewBox="0 0 512 512"><!--! Font Awesome Pro 6.2.0 by @fontawesome - https://fontawesome.com License - https://fontawesome.com/license (Commercial License) Copyright 2022 Fonticons, Inc. --><path d="M96 32C96 14.3 81.7 0 64 0S32 14.3 32 32s14.3 32 32 32s32-14.3 32-32zM512 160c0-17.7-14.3-32-32-32s-32 14.3-32 32s14.3 32 32 32s32-14.3 32-32zM480 480c17.7 0 32-14.3 32-32s-14.3-32-32-32s-32 14.3-32 32s14.3 32 32 32zM256 0H208V24c0 27.5-9.9 51.1-20.5 68.4c-5.2 8.6-10.5 15.3-14.3 19.9c-1.9 2.3-3.5 3.9-4.5 5c-.5 .5-.9 .9-1.1 1.1l-.2 .2-17.4 16.5 33 34.8 17.4-16.5-16-16.9c16 16.9 16 16.9 16 16.9l0 0 0 0 .1-.1 .2-.2 .6-.6c.5-.5 1.2-1.2 2-2c1.6-1.7 3.8-4.1 6.4-7.1c5.1-6.1 11.9-14.8 18.7-25.9C241.9 95.4 256 63 256 24V0zM488 304l24 0 0-48-24 0c-38.8 0-71.1 14.1-93.2 27.5c-11.1 6.8-19.9 13.5-26 18.7c-3.1 2.6-5.5 4.8-7.2 6.4c-.8 .8-1.5 1.5-2 1.9l-.6 .6-.2 .2-.1 .1 0 0 0 0s0 0 17.3 16.6l-17.3-16.6-16.6 17.3 34.7 33.2 16.5-17.3 0 0 .2-.2c.2-.2 .6-.6 1.1-1.1c1.1-1 2.8-2.6 5.1-4.5c4.6-3.9 11.4-9.1 20-14.3C437.1 313.9 460.8 304 488 304zM0 480l32 32 98.9-38.5L38.5 381.1 0 480zM51.1 348.5L163.5 460.9l59.6-23.2L74.3 288.9 51.1 348.5zM87 256.3L255.7 425 320 400 112 192 87 256.3zM493.5 50.8l10-8.5-31-36.6-10 8.5c-5.8 4.9-13.2 7.5-20.7 7.3c-42.5-1.1-78.3 31.7-80.8 74.2l-1.8 30c-1 16.6-15 29.4-31.6 29c-19.4-.5-38.2 6.1-53 18.6l-10 8.5-18.3 15.5 31 36.6 18.3-15.5 10-8.5c5.8-4.9 13.2-7.5 20.7-7.3c42.5 1.1 78.3-31.7 80.8-74.2l1.8-30c1-16.6 15-29.4 31.6-29c19.4 .5 38.2-6.1 53-18.6z"/></svg>