<svg xmlns="http://www.w3.org/2000/svg" viewBox="0 0 512 512"><!--! Font Awesome Pro 6.2.0 by @fontawesome - https://fontawesome.com License - https://fontawesome.com/license (Commercial License) Copyright 2022 Fonticons, Inc. --><path d="M65.6 382.4c-87.5-87.5-87.5-229.3 0-316.8s229.3-87.5 316.8 0L65.6 382.4zM480 96c-17.7 0-32-14.3-32-32s14.3-32 32-32s32 14.3 32 32s-14.3 32-32 32zM352 512c-17.7 0-32-14.3-32-32s14.3-32 32-32s32 14.3 32 32s-14.3 32-32 32zM32 480c0-17.7 14.3-32 32-32s32 14.3 32 32s-14.3 32-32 32s-32-14.3-32-32zM512 256H488c-39 0-71.4-14.1-93.4-27.5c-11.1-6.8-19.9-13.5-25.9-18.7c-3-2.6-5.4-4.8-7.1-6.4c-.8-.8-1.5-1.5-2-2l-.6-.6-.2-.2-.1-.1 0 0 0 0s0 0 16.9-16l-16.9 16-16.5-17.4 34.8-33 16.5 17.4 .2 .2c.2 .2 .6 .6 1.1 1.1c1.1 1 2.7 2.6 5 4.5c4.5 3.9 11.3 9.1 19.9 14.3c17.3 10.6 41 20.5 68.4 20.5h24v48zM208 488c0-27.2-9.9-50.9-20.5-68.3c-5.2-8.6-10.5-15.4-14.3-20c-1.9-2.3-3.5-4-4.5-5.1c-.5-.5-.9-.9-1.1-1.1l-.2-.2 0 0-17.3-16.5 33.2-34.7 17.3 16.6L184 376c16.6-17.3 16.6-17.3 16.6-17.3l0 0 0 0 .1 .1 .2 .2 .6 .6c.5 .5 1.1 1.2 1.9 2c1.6 1.7 3.8 4.1 6.4 7.2c5.1 6.1 11.9 14.9 18.7 26C241.9 416.9 256 449.2 256 488l0 24-48 0 0-24zm261.7 15.5l-8.5-10c-12.5-14.8-19.1-33.7-18.6-53c.5-16.6-12.4-30.6-29-31.6l-30-1.8c-42.5-2.5-75.3-38.3-74.2-80.8c.2-7.6-2.4-15-7.3-20.7l-8.5-10-15.5-18.3 36.6-31 15.5 18.3 8.5 10c12.5 14.8 19.1 33.7 18.6 53c-.5 16.6 12.4 30.6 29 31.6l30 1.8c42.5 2.5 75.3 38.3 74.2 80.8c-.2 7.6 2.4 15 7.3 20.7l8.5 10-36.6 31z"/></svg>