<svg xmlns="http://www.w3.org/2000/svg" viewBox="0 0 512 512"><!--! Font Awesome Pro 6.2.0 by @fontawesome - https://fontawesome.com License - https://fontawesome.com/license (Commercial License) Copyright 2022 Fonticons, Inc. --><path d="M373.1 58.4L320 0V71.2c-18.3 9.8-34.3 28.9-42.5 53.6c-14.3 42.9 .3 86.2 32.6 96.8s70.1-15.6 84.4-58.5c4-11.9 5.7-23.9 5.5-35.1h0c0-25.7-9.6-50.6-26.9-69.6zM64 196.8V128L12.2 199.2C4.3 210.1 0 223.3 0 236.8V240H0c-.1 13.3 3.7 27.8 11.6 41.4c18.9 32.4 54 47.3 78.5 33.3s29.1-51.7 10.2-84.1C91.1 214.7 77.9 203 64 196.8zm384 0c-13.9 6.1-27.1 17.8-36.4 33.7c-18.9 32.4-14.3 70.1 10.2 84.1s59.7-.9 78.5-33.3c7.9-13.6 11.7-28.1 11.6-41.4h0v-3.2c0-13.5-4.3-26.7-12.2-37.6L448 128v68.8zM192 0L138.9 58.4c-4.6 5.1-8.7 10.6-12.2 16.4c-21.2 17.4-29 53-17.2 88.3c14.3 42.9 52.1 69.1 84.4 58.5s46.9-53.9 32.6-96.8c-7-21-19.6-38-34.5-48.6V0zm64 256c-64 0-192 80-192 256l192-48 192 48c0-176-128-256-192-256z"/></svg>