<svg xmlns="http://www.w3.org/2000/svg" viewBox="0 0 640 512"><!--! Font Awesome Pro 6.2.0 by @fontawesome - https://fontawesome.com License - https://fontawesome.com/license (Commercial License) Copyright 2022 Fonticons, Inc. --><path d="M161.1 392.3c-.7-2.6-1.1-5.4-1.1-8.3c0-17.7 14.3-32 32-32s32 14.3 32 32s-14.3 32-32 32c-2.9 0-5.6-.4-8.3-1.1l-88 88L288 448l36.2-96.6L206.4 258.6 128 288 73.1 480.3l88-88zm222.8-117L576 96 480 0 290.6 202.9 48.4 14.8 29.4 .1 0 38 19 52.7 591.5 497.2l19 14.7L639.9 474l-19-14.7-237-184z"/></svg>