<svg xmlns="http://www.w3.org/2000/svg" viewBox="0 0 640 512"><!--! Font Awesome Pro 6.2.0 by @fontawesome - https://fontawesome.com License - https://fontawesome.com/license (Commercial License) Copyright 2022 Fonticons, Inc. --><path d="M576 128l-72.4 72.4-128-128L448 0 576 128zM288 30.1l17 17L481 223l-1 1-33 33-37.9 37.9L620.9 459.3l19 14.7-29.4 37.9-19-14.7L19 52.7 0 38 29.4 .1l19 14.7L191.9 126.2 271 47l17-17zM230.1 155.9L265 183l54-54-31-31-57.9 57.9zm-33.2 95.3L340.1 363.9 224 480 64 512 96 352 196.9 251.1z"/></svg>