<svg xmlns="http://www.w3.org/2000/svg" viewBox="0 0 640 512"><!--! Font Awesome Pro 6.2.0 by @fontawesome - https://fontawesome.com License - https://fontawesome.com/license (Commercial License) Copyright 2022 Fonticons, Inc. --><path d="M74.2 461L64 512l51-10.2L224 480 340.1 363.9 196.9 251.1 96 352 74.2 461zM409.1 294.9l75.6-75.6-128-128L265 183 48.4 14.8 29.4 .1 0 38 19 52.7 591.5 497.2l19 14.7L639.9 474l-19-14.7L409.1 294.9zM379.3 68.7l128 128 34.7-34.7L576 128l-16-16L542.1 94.1 481.9 33.9 464 16 448 0 414.1 33.9 379.3 68.7zM160 416h60.1l-19.8 19.8-75.1 15 15-75.1L160 355.9V416z"/></svg>