<svg xmlns="http://www.w3.org/2000/svg" viewBox="0 0 640 512"><!--! Font Awesome Pro 6.2.0 by @fontawesome - https://fontawesome.com License - https://fontawesome.com/license (Commercial License) Copyright 2022 Fonticons, Inc. --><path d="M335.6 12.1L320 3.3l-15.6 8.7-272 152L4.5 179.7l31.2 55.9 27.9-15.6L320 76.7 576.4 219.9l27.9 15.6 31.2-55.9-27.9-15.6-272-152zM320 240c22.1 0 40-17.9 40-40s-17.9-40-40-40s-40 17.9-40 40s17.9 40 40 40zM144 336c22.1 0 40-17.9 40-40s-17.9-40-40-40s-40 17.9-40 40s17.9 40 40 40zm392-40c0-22.1-17.9-40-40-40s-40 17.9-40 40s17.9 40 40 40s40-17.9 40-40zM96 352H81.9L75 364.3 19 465.1l-11.7 21 42 23.3 11.7-21 27-48.6V512H200V439.8l27 48.6 11.7 21 42-23.3-11.7-21-35.2-63.4 3.4-6.3L264 345.5V432H376V345.5l26.9 49.9 3.4 6.3L371 465.1l-11.7 21 42 23.3 11.7-21 27-48.6V512H552V439.8l27 48.6 11.7 21 42-23.3-11.7-21L565 364.3 558.1 352H544 448 434l-44.9-83.4L382.3 256H368 272 257.7l-6.8 12.6L206 352H192 96z"/></svg>