<svg xmlns="http://www.w3.org/2000/svg" viewBox="0 0 640 512"><!--! Font Awesome Pro 6.2.0 by @fontawesome - https://fontawesome.com License - https://fontawesome.com/license (Commercial License) Copyright 2022 Fonticons, Inc. --><path d="M320 112c22.1 0 40-17.9 40-40s-17.9-40-40-40s-40 17.9-40 40s17.9 40 40 40zM144 208c22.1 0 40-17.9 40-40s-17.9-40-40-40s-40 17.9-40 40s17.9 40 40 40zm392-40c0-22.1-17.9-40-40-40s-40 17.9-40 40s17.9 40 40 40s40-17.9 40-40zM96 224H81.9L75 236.3 19 337.1l-11.7 21 42 23.3 11.7-21 27-48.6V384H200V311.8l27 48.6 11.7 21 42-23.3-11.7-21-35.2-63.5 3.4-6.3L264 217.5V304H376V217.5l26.9 49.9 3.4 6.3L371 337.1l-11.7 21 42 23.3 11.7-21 27-48.6V384H552V311.8l27 48.6 11.7 21 42-23.3-11.7-21L565 236.3 558.1 224H544 448 434l-44.9-83.4L382.3 128H368 272 257.7l-6.8 12.6L206 224H192 96zM32 416H0v64H32 608h32V416H608 32z"/></svg>