<svg xmlns="http://www.w3.org/2000/svg" viewBox="0 0 576 512"><!--! Font Awesome Pro 6.2.0 by @fontawesome - https://fontawesome.com License - https://fontawesome.com/license (Commercial License) Copyright 2022 Fonticons, Inc. --><path d="M128 48c0-26.5-21.5-48-48-48S32 21.5 32 48s21.5 48 48 48s48-21.5 48-48zm10.8 304l29.8 134.1 3.9 23.2 .5 2.7h64.9l-2.2-13.3-4-24c-.1-.6-.2-1.1-.3-1.7L174.3 216.8l115.6 56.7 33.8 16.6 10.9-36 11.8-38.8L369 205.2l13.6-6-17 63.6c-5.6 21.1-.1 43.6 14.7 59.7l70.9 77.4 22 80.5 8.4 30.9 61.7-16.8-8.4-30.9-24-88-2-7.5-5.2-5.7-52.3-57 18.4-62.4 13.7 27.4 4.8 9.5 9.5 4.8 48 24 28.6-57.2-38.5-19.2-35.2-70.5-7-14-15.3-3.1-80-16-10-2-9.3 4.1-6.8 3-29.2 13-36 16-12.9 5.7-.5 .2-4.1 13.6-5.7 17-138.7-68-6.7-3.3h-7.4H32 0v32V320v32H58.2L84.4 509.3l.5 2.7h64.9l-2.2-13.3L123.1 352h15.7zM464 96c26.5 0 48-21.5 48-48s-21.5-48-48-48s-48 21.5-48 48s21.5 48 48 48zM349.7 335.6l-25 62.4-43.4 43.4L258.7 464 304 509.3l22.6-22.6 48-48 4.6-4.6 2.4-6.1 15.7-39.3-40.7-44.4c-2.5-2.7-4.8-5.6-7-8.6z"/></svg>