<svg xmlns="http://www.w3.org/2000/svg" viewBox="0 0 640 512"><!--! Font Awesome Pro 6.2.0 by @fontawesome - https://fontawesome.com License - https://fontawesome.com/license (Commercial License) Copyright 2022 Fonticons, Inc. --><path d="M176 48c0-26.5-21.5-48-48-48S80 21.5 80 48s21.5 48 48 48s48-21.5 48-48zM80 128H48v32V274.7c0 17 6.7 33.3 18.7 45.3l22.6 22.6 56.7 56.7 6.3 37.9 8 48 4 24 .5 2.7h64.9l-2.2-13.3-4-24-8-48-8-48-1.7-10.1-7.3-7.3L144 306.7V241.7l21.4 32.1 3.7 5.5 5.6 3.6 49.6 32 7.9 5.1h9.4H256V288h0v32H383.8h.2 14.2 9.4l7.9-5.1 49.6-32 5.6-3.6 3.7-5.5 21.4-32.1v65.1l-54.6 54.6-7.3 7.3-1.7 10.1-8 48-8 48-4 24L410 512h64.9l.5-2.7 4-24 8-48 6.3-37.9 56.8-56.7L573.1 320c12-12 18.7-28.3 18.7-45.3V160 128h-32-48H494.7l-9.5 14.3-60.3 90.5-8.9 5.7V128H224V238.6l-9.1-5.8-60.3-90.5L145.1 128H128 80zM52.5 351L9.5 486.3 1.3 512H68.5l2-6.3 33-103.7L52.5 351zM463.8 48c0 26.5 21.5 48 48 48s48-21.5 48-48s-21.5-48-48-48s-48 21.5-48 48zM587.3 351l-51 50.9 33 103.7 2 6.3h67.2l-8.2-25.7L587.3 351z"/></svg>