<svg xmlns="http://www.w3.org/2000/svg" viewBox="0 0 640 512"><!--! Font Awesome Pro 6.2.0 by @fontawesome - https://fontawesome.com License - https://fontawesome.com/license (Commercial License) Copyright 2022 Fonticons, Inc. --><path d="M160 96c26.5 0 48-21.5 48-48s-21.5-48-48-48s-48 21.5-48 48s21.5 48 48 48zm-51.1 32H91.4L82 142.8 .2 270.8l53.9 34.4 33.8-53V480v32h64V480 352h16V480v32h64V480 252.2l33.8 53 53.9-34.4L238 142.8 228.6 128H211.1 108.9zM480 96c26.5 0 48-21.5 48-48s-21.5-48-48-48s-48 21.5-48 48s21.5 48 48 48zm-51.1 32H411.4L402 142.8l-81.7 128 53.9 34.4 33.8-53V480v32h64V480 352h16V480v32h64V480 252.2l33.8 53 53.9-34.4L558 142.8 548.6 128H531.1 428.9z"/></svg>