<svg xmlns="http://www.w3.org/2000/svg" viewBox="0 0 640 512"><!--! Font Awesome Pro 6.2.0 by @fontawesome - https://fontawesome.com License - https://fontawesome.com/license (Commercial License) Copyright 2022 Fonticons, Inc. --><path d="M128 144c-30.9 0-56-25.1-56-56s25.1-56 56-56s56 25.1 56 56s-25.1 56-56 56zM53.3 275.1L64 292.4V247.3L53.3 275.1zM0 280L40 176H212.3l-.1 .1-64 112L138 305.9 150 322.6l42 58.9V384v64H64V384L0 280zM448 381.5l42-58.9L502 305.9l-10.2-17.8-64-112-.1-.1H600l40 104L576 384v64H448V384v-2.5zM512 144c-30.9 0-56-25.1-56-56s25.1-56 56-56s56 25.1 56 56s-25.1 56-56 56zm74.7 131.1L576 247.3v45.1l10.7-17.3zM320 160c-35.3 0-64-28.7-64-64s28.7-64 64-64s64 28.7 64 64s-28.7 64-64 64zM232.9 301.1L256 333.4V260.7l-23.1 40.4zM384 260.7v72.7l23.1-32.3L384 260.7zM464 304L384 416v64H256l0-64L176 304l64-112H400l64 112z"/></svg>