<svg xmlns="http://www.w3.org/2000/svg" viewBox="0 0 640 512"><!--! Font Awesome Pro 6.2.0 by @fontawesome - https://fontawesome.com License - https://fontawesome.com/license (Commercial License) Copyright 2022 Fonticons, Inc. --><path d="M128 128c35.3 0 64-28.7 64-64s-28.7-64-64-64S64 28.7 64 64s28.7 64 64 64zm9.4 198.6L114.7 304l22.6-22.6 88-88L224 160H32L24 352H64V512H192V381.3l-54.6-54.6zM512 128c35.3 0 64-28.7 64-64s-28.7-64-64-64s-64 28.7-64 64s28.7 64 64 64zM616 352l-8-192H416l-1.4 33.4 88 88L525.3 304l-22.6 22.6L448 381.3V512H576V352h40zM272 192L160 304 272 416V336h96v80L480 304 368 192v80H272V192z"/></svg>