<svg xmlns="http://www.w3.org/2000/svg" viewBox="0 0 576 512"><!--! Font Awesome Pro 6.2.0 by @fontawesome - https://fontawesome.com License - https://fontawesome.com/license (Commercial License) Copyright 2022 Fonticons, Inc. --><path d="M80 96c26.5 0 48-21.5 48-48s-21.5-48-48-48S32 21.5 32 48s21.5 48 48 48zM40 128H8v32V288v32H8V480v32H72V480 352H88V480v32h64V480 252.7l13 20.5 9.4 14.9H192h48 32V224H240 209.6l-51.5-81.1L148.7 128H131.1 40zM400 96c26.5 0 48-21.5 48-48s-21.5-48-48-48s-48 21.5-48 48s21.5 48 48 48zM273.1 168.2l6.3 23.8H304h24V480v32h64V480 352h16V480v32h64V480 192h24 24.6l6.3-23.8 32-120 8.2-30.9L505.3 .8l-8.2 30.9L471.4 128H408v0H392v0H328.6L302.9 31.8 294.7 .8 232.8 17.3l8.2 30.9 32 120z"/></svg>