<svg xmlns="http://www.w3.org/2000/svg" viewBox="0 0 512 512"><!--! Font Awesome Pro 6.2.0 by @fontawesome - https://fontawesome.com License - https://fontawesome.com/license (Commercial License) Copyright 2022 Fonticons, Inc. --><path d="M423.9 44.4L419 35.7l42-23.3 4.8 8.7c19.3 34.7 19.8 75.7 3.4 110C495.8 159.6 512 197.9 512 240c0 33.1-10.1 63.9-27.3 89.4L448 256H336L320 144l-88-9.8C261.3 101 304.2 80 352 80c28.3 0 54.8 7.3 77.8 20.2c5.5-18.2 3.7-38.4-6-55.8zM171.2 345.5L262 163.9l29.4 6.5 12.9 90.1 3.9 27.5H336h92.2l23.9 47.8C372.3 443.9 244.3 512 103.2 512H0V432l84.5-18.8c37.6-8.4 69.5-33.2 86.7-67.7z"/></svg>