<svg xmlns="http://www.w3.org/2000/svg" viewBox="0 0 448 512"><!--! Font Awesome Pro 6.2.0 by @fontawesome - https://fontawesome.com License - https://fontawesome.com/license (Commercial License) Copyright 2022 Fonticons, Inc. --><path d="M288 96c26.5 0 48-21.5 48-48s-21.5-48-48-48s-48 21.5-48 48s21.5 48 48 48zM144 96H130.7l-9.4 9.4-48 48L50.7 176 96 221.3l22.6-22.6L157.3 160h27.7l-31.3 94c-9.3 28 1.7 58.8 26.8 74.5l86.2 53.9-9.4 32.8-16 56L229.6 512h66.6l6.6-23.2 16-56 16-56 6.6-23.2L321 340.9 254 299l29-77.4 24.3 48.6 8.8 17.7H336h48 32V224H384 355.8l-39.2-78.3-5.4-10.9-11.3-4.5-80-32L214.2 96H208 144zM125.5 310.7L107.2 352H48 16v64H48h80 20.8l8.4-19L173 361.6l-9.5-6c-17.5-10.9-30.5-26.8-37.9-44.9z"/></svg>