<svg xmlns="http://www.w3.org/2000/svg" viewBox="0 0 512 512"><!--! Font Awesome Pro 6.2.0 by @fontawesome - https://fontawesome.com License - https://fontawesome.com/license (Commercial License) Copyright 2022 Fonticons, Inc. --><path d="M192 48c0 26.5-21.5 48-48 48s-48-21.5-48-48s21.5-48 48-48s48 21.5 48 48zM84.7 128H104h88 14.4l9.5 10.7 58.7 66.1 43.6 16.3 15.9-43.7L256 148.4 308.8 0 388 29.5l9.9-27.1L443 18.8 433 46.2l79 29.4L459.2 224l-80-29.8-45 123.7-8.2 22.6L280.8 324l8.2-22.6 7.3-20.1L244.8 262l-7.4-2.8-5.3-5.9L216 235.2v77.3l36.6 73.2 3.4 6.8V400v80 32H192V480 407.6L164.2 352H144V480v32H80V480 273.7L60.3 311 3.7 281l72-136 9-17z"/></svg>