<svg xmlns="http://www.w3.org/2000/svg" viewBox="0 0 576 512"><!--! Font Awesome Pro 6.2.0 by @fontawesome - https://fontawesome.com License - https://fontawesome.com/license (Commercial License) Copyright 2022 Fonticons, Inc. --><path d="M192 64V32H128V64 208v23.4l22.3 7.1 37.6 12-18.4 129c7.7 2.2 15.3 3.5 22.5 3.5c13 0 27.6-4.3 40.7-10.3c12-5.5 21.7-12.5 35.5-22.5l0 0 0 0 1.1-.8L288 336l19.7 14.2 0 0c13.9 10 23.6 17 35.5 22.5c6.9 3.2 14.2 5.9 21.5 7.7l17.1-94 137.2-31.2 31.2-7.1-14.2-62.4-31.2 7.1L337.4 230.9 192 184.6V64zM320 192c35.3 0 64-28.7 64-64s-28.7-64-64-64s-64 28.7-64 64s28.7 64 64 64zM272.4 461.1c5.8-2.7 11.1-5.3 15.6-7.7c4.5 2.4 9.7 5.1 15.6 7.7c19.8 9 48.5 18.9 80.4 18.9s60.6-9.9 80.4-18.9c5.8-2.7 11.1-5.3 15.6-7.7c4.5 2.4 9.7 5.1 15.6 7.7c19.8 9 48.5 18.9 80.4 18.9V416c-19.3 0-38.6-6.1-54-13.1c-14.9-6.8-26.9-15.4-40-24.7c-.7-.5-1.4-1-2.1-1.5c-.7 .5-1.4 1-2.1 1.5c-13.1 9.3-25.1 17.9-40 24.7c-15.4 7-34.7 13.1-54 13.1s-38.6-6.1-54-13.1c-14.9-6.8-26.9-15.4-40-24.7c-.7-.5-1.4-1-2.1-1.5c-.7 .5-1.4 1-2.1 1.5c-13.1 9.3-25.1 17.9-40 24.7c-15.4 7-34.7 13.1-54 13.1s-38.6-6.1-54-13.1c-14.9-6.8-26.9-15.4-40-24.7c-.7-.5-1.4-1-2.1-1.5c-.7 .5-1.4 1-2.1 1.5c-13.1 9.3-25.1 17.9-40 24.7C38.6 409.9 19.3 416 0 416v64c31.9 0 60.6-9.9 80.4-18.9c5.8-2.7 11.1-5.3 15.6-7.7c4.5 2.4 9.7 5.1 15.6 7.7c19.8 9 48.5 18.9 80.4 18.9s60.6-9.9 80.4-18.9z"/></svg>