<svg xmlns="http://www.w3.org/2000/svg" viewBox="0 0 512 512"><!--! Font Awesome Pro 6.2.0 by @fontawesome - https://fontawesome.com License - https://fontawesome.com/license (Commercial License) Copyright 2022 Fonticons, Inc. --><path d="M154.2 352c3.8-29.6 5.8-62.1 5.8-96c0-18-.6-35.5-1.7-52.4L176 221.3l22.6-22.6L237.3 160h27.7l-31.3 94c-9.3 28 1.7 58.8 26.8 74.5l86.2 53.9-9.4 32.8-16 56L309.6 512h66.6l6.6-23.2 16-56 16-56 6.6-23.2L401 340.9 334 299l29-77.4 24.3 48.6 8.8 17.7H416h48 32V224H464 435.8l-39.2-78.3-5.4-10.9-11.3-4.5-80-32L294.2 96H288 224 210.7l-9.4 9.4-48 48-.1 .1C141 63.1 112.8 0 80 0C35.8 0 0 114.6 0 256S35.8 512 80 512c25.3 0 47.8-37.5 62.5-96H208h20.8l8.4-19L253 361.6l-9.5-6c-17.5-10.9-30.5-26.8-37.9-44.9L187.2 352h-33zM416 48c0-26.5-21.5-48-48-48s-48 21.5-48 48s21.5 48 48 48s48-21.5 48-48z"/></svg>