<svg xmlns="http://www.w3.org/2000/svg" viewBox="0 0 640 512"><!--! Font Awesome Pro 6.2.0 by @fontawesome - https://fontawesome.com License - https://fontawesome.com/license (Commercial License) Copyright 2022 Fonticons, Inc. --><path d="M288 64v77.9L143.5 228.6 128 237.9V256l0 128v0H64V64l224 0zm64 0l224 0V384H508.3l-3.7-4.5-80-96L415 272H400l-78.6 0-35.3-54.4 50.3-30.2 15.5-9.3V160l0-96zm73 320H379.2l42.7 64H576h64V384 64 0H576 64 0V64 384v64H64 308.2l24.9 37.3 17.8 26.6 53.3-35.5-17.8-26.6L310.5 336l74.6 0 40 48zm-159.5 0H192v0l0-109.9 .2-.1 73.3 110zM192 128c0-26.5-21.5-48-48-48s-48 21.5-48 48s21.5 48 48 48s48-21.5 48-48z"/></svg>