<svg xmlns="http://www.w3.org/2000/svg" viewBox="0 0 576 512"><!--! Font Awesome Pro 6.2.0 by @fontawesome - https://fontawesome.com License - https://fontawesome.com/license (Commercial License) Copyright 2022 Fonticons, Inc. --><path d="M508.7 48c0 26.5-21.5 48-48 48s-48-21.5-48-48s21.5-48 48-48s48 21.5 48 48zM45.8 247.6l21.3 11.1L264.7 361.3l46.2-69.2-76.5-76.5c-14.4-14.4-20.2-33.4-18.4-51.5l110.2 52.7 48.6 48.6 18.6 18.6-14.6 21.8L321.8 391l126.4 65.6 37.1-18.5 21.5-10.7 21.5 42.9L506.7 481l-48 24-10.9 5.5-10.9-5.6L44.9 301.3 23.6 290.2l22.1-42.6zM150.9 65.6L169 74.2l8.7-17.4 7.2-14.3 28.6 14.3-7.2 14.3-8.5 16.9 52.6 25.2c1-.5 2.1-1 3.2-1.5L355 66.8l26.2-11.6 14.4 24.8 51.7 88.6 48.6 27.7 27.8 15.9-31.8 55.6-27.8-15.9-56-32-7.4-4.3-4.3-7.4L378.8 178l-28.3 12.6-6.8 3-6.7-3.2L183.5 116.7l-9.2 18.4-7.2 14.3-28.6-14.3 7.2-14.3 9-18-17.6-8.4-14.4-6.9 13.8-28.8 14.4 6.9z"/></svg>