<svg xmlns="http://www.w3.org/2000/svg" viewBox="0 0 512 512"><!--! Font Awesome Pro 6.2.0 by @fontawesome - https://fontawesome.com License - https://fontawesome.com/license (Commercial License) Copyright 2022 Fonticons, Inc. --><path d="M256 96c26.5 0 48-21.5 48-48s-21.5-48-48-48s-48 21.5-48 48s21.5 48 48 48zm-8 384V352h16V480c0 17.7 14.3 32 32 32s32-14.3 32-32V256.9l28.6 47.5c9.1 15.1 28.8 20 43.9 10.9s20-28.8 10.9-43.9l-58.3-97c-17.4-28.9-48.6-46.6-82.3-46.6H241.1c-33.7 0-64.9 17.7-82.3 46.6l-58.3 97c-9.1 15.1-4.2 34.8 10.9 43.9s34.8 4.2 43.9-10.9L184 256.9V480c0 17.7 14.3 32 32 32s32-14.3 32-32zM57 23L40 6.1 6.1 40 23 57l64 64 17 17L137.9 104 121 87 57 23zM489 57l17-17L472 6.1 455 23 391 87l-17 17L408 137.9l17-17 64-64zM121 425l17-17L104 374.1 87 391 23 455l-17 17L40 505.9l17-17 64-64zM425 391l-17-17L374.1 408l17 17 64 64 17 17L505.9 472l-17-17-64-64z"/></svg>