<svg xmlns="http://www.w3.org/2000/svg" viewBox="0 0 576 512"><!--! Font Awesome Pro 6.2.0 by @fontawesome - https://fontawesome.com License - https://fontawesome.com/license (Commercial License) Copyright 2022 Fonticons, Inc. --><path d="M288 198.3l-32 8.5V0h32V198.3zM192 80c0 26.5-21.5 48-48 48s-48-21.5-48-48s21.5-48 48-48s48 21.5 48 48zm7.4 60.7l13.7 30.1 32.7 71.9 65.9-17.6L352 256V388.5l144-53.2V312 288h48v24 40c0 10-6.3 19-15.7 22.5l-344 127.1L161.8 510l-16.6-45 22.5-8.3L288 412.2V297.7l-66.7 17.8c-22.6 6-46.2-5.1-55.9-26.3l-36.4-78.9L115.8 182l27.9-13.8 26.1-12.9 29.6-14.7zm-121.8 49L157 355.6l68.7-18.7 23.2-6.3 12.6 46.3-23.2 6.3-88 24L131 412.4l-8.6-18.1-88-184L24 188.7 67.3 168l10.4 21.7z"/></svg>