<svg xmlns="http://www.w3.org/2000/svg" viewBox="0 0 576 512"><!--! Font Awesome Pro 6.2.0 by @fontawesome - https://fontawesome.com License - https://fontawesome.com/license (Commercial License) Copyright 2022 Fonticons, Inc. --><path d="M320 48c0 26.5-21.5 48-48 48s-48-21.5-48-48s21.5-48 48-48s48 21.5 48 48zM114.7 96H128h64 6.2l5.7 2.3 80 32 11.3 4.5 5.4 10.9L339.8 224H368h32v64H368 320 300.2l-8.8-17.7L267 221.7 238 299 305 340.9l20.4 12.8-6.6 23.2-16 56-16 56L280.1 512H213.6l11.7-40.8 16-56 9.4-32.8-86.2-53.9c-25.1-15.7-36.1-46.5-26.8-74.5l31.3-94H141.2l-38.6 38.6L80 221.3 34.7 176l22.6-22.6 48-48 9.4-9.4zM91.2 352l18.3-41.3c7.4 18.1 20.4 33.9 37.9 44.9l9.5 6L141.2 397l-8.4 19H112 32 0V352H32 91.2zM384 0H576V512H384V320h48V192H384V0z"/></svg>