<svg xmlns="http://www.w3.org/2000/svg" viewBox="0 0 384 512"><!--! Font Awesome Pro 6.2.0 by @fontawesome - https://fontawesome.com License - https://fontawesome.com/license (Commercial License) Copyright 2022 Fonticons, Inc. --><path d="M288 48c0 26.5-21.5 48-48 48s-48-21.5-48-48s21.5-48 48-48s48 21.5 48 48zM168.5 117.1l31.3 7.8 48 12 12 3 6.9 10.3L305.1 208H336V184 160h48v24 24h0v64h0V488v24H336V488 272H288 270.9l-9.5-14.2-18.1-27.1L224.2 307l54.4 54.4 9.4 9.4V384v96 32H224V480 397.3l-69.7-69.7-1.1-.3 .2-.7-3.3-3.3c-15.8-15.8-22.2-38.6-16.9-60.3l27.8-114.5 7.6-31.3zM117.3 334c3 4.2 6.4 8.2 10.1 11.9l41.9 41.9L136.7 512H70.5l46.8-178zM144 96L96 288 0 272 48 96h96z"/></svg>