<svg xmlns="http://www.w3.org/2000/svg" viewBox="0 0 576 512"><!--! Font Awesome Pro 6.2.0 by @fontawesome - https://fontawesome.com License - https://fontawesome.com/license (Commercial License) Copyright 2022 Fonticons, Inc. --><path d="M336 96c-26.5 0-48-21.5-48-48s21.5-48 48-48s48 21.5 48 48s-21.5 48-48 48zM178.7 96H192h48 4.8l4.6 1.4 104 32 14.4 4.4 5.8 13.9L405.3 224H448h32v64H461.7L434.6 464H528V432 408h48v24 56 24H552 320.7c-.5 0-1 0-1.4 0H160.7c-.4 0-.9 0-1.4 0H24 0V464H24 67l55.6-264.1L98.7 176l22.6-22.6 48-48 9.4-9.4zM402.3 464l27.1-176H384 362.7l-8.2-19.7-21.5-51.7L302 299 369 340.9l20.4 12.8-6.6 23.2L357.8 464h44.4zm-270.1 0l58.7-125.7c5.9 6.6 12.8 12.5 20.6 17.3l32.4 20.3L202.8 464h88.5l23.3-81.6-86.2-53.9c-25.1-15.7-36.1-46.5-26.8-74.5l31.3-94H205.3l-38.6 38.6-14 14L99.7 464h32.4z"/></svg>