<svg xmlns="http://www.w3.org/2000/svg" viewBox="0 0 576 512"><!--! Font Awesome Pro 6.2.0 by @fontawesome - https://fontawesome.com License - https://fontawesome.com/license (Commercial License) Copyright 2022 Fonticons, Inc. --><path d="M464 96c-26.5 0-48-21.5-48-48s21.5-48 48-48s48 21.5 48 48s-21.5 48-48 48zM259.4 110.3l-40-80L276.6 1.7l33 66 64.7 12.9 7.4 1.5 6 4.6 144 112 25.3 19.6-39.3 50.5-25.3-19.6-72.1-56.1-71.5 31.8 55.8 46.5L419.6 284l-4.4 19.2-24 104-5.8 25 83 31.8H504h24v48H504 464h-4.4l-4.1-1.6-376-144-4.8-1.8L71 361 39 329l-17-17L56 278.1l17 17 28.4 28.4 29.9 11.4-11.7-35.1 30.4-10.1L224 264.9l0-53.2c0-24.2 13.7-46.4 35.4-57.2l45.2-22.6-22.8-4.6-15.3-3.1-7-14zM171 350.1l154.1 59 3.8-16.3L348.4 308 288 257.7l0 30.3v23.1l-21.9 7.3L171 350.1z"/></svg>