<svg xmlns="http://www.w3.org/2000/svg" viewBox="0 0 576 512"><!--! Font Awesome Pro 6.2.0 by @fontawesome - https://fontawesome.com License - https://fontawesome.com/license (Commercial License) Copyright 2022 Fonticons, Inc. --><path d="M256 112c26.5 0 48-21.5 48-48s-21.5-48-48-48s-48 21.5-48 48s21.5 48 48 48zM41.2 201.8l-22.2-9.2L.6 236.9l22.2 9.2 347.9 145L352 416H288l-32 96H576V464L448 288l-47.6 63.5-91.9-38.3L253.6 179.8l-5.1-12.5-12.6-5-80-32-22-8.8L119 140 62.5 210.7l-21.2-8.8zm17.1 90.1L49 328 1.3 512H67.4l34.2-131.9 58.4 25V480v32h64V480 384 362.9l-19.4-8.3-112-48L58.4 291.9z"/></svg>