<svg xmlns="http://www.w3.org/2000/svg" viewBox="0 0 576 512"><!--! Font Awesome Pro 6.2.0 by @fontawesome - https://fontawesome.com License - https://fontawesome.com/license (Commercial License) Copyright 2022 Fonticons, Inc. --><path d="M312.4 180.9l134.2 115c-7.5 5.1-14.2 9.2-21.9 12.7C411.6 314.7 397 319 384 319s-27.6-4.3-40.7-10.3c-12-5.5-21.7-12.5-35.5-22.5L288 272l-18.6 13.4-1.1 .8c-13.9 10-23.6 17-35.5 22.5C219.6 314.7 205 319 192 319c-10.2 0-21.3-2.7-32-6.7V256 242.7l9.4-9.4 128-128 9.4-9.4H320 448h32v64H448 333.3l-20.9 20.9zM32 160c0-35.3 28.7-64 64-64s64 28.7 64 64s-28.7 64-64 64s-64-28.7-64-64zM272.4 397.1c-19.8 9-48.5 18.9-80.4 18.9s-60.6-9.9-80.4-18.9c-5.8-2.7-11.1-5.3-15.6-7.7c-4.5 2.4-9.7 5.1-15.6 7.7C60.6 406.1 31.9 416 0 416V352c19.3 0 38.6-6.1 54-13.1c14.9-6.8 26.9-15.4 40-24.7c.7-.5 1.4-1 2.1-1.5c.7 .5 1.4 1 2.1 1.5c13.1 9.3 25.1 17.9 40 24.7c15.4 7 34.7 13.1 54 13.1s38.6-6.1 54-13.1c14.9-6.8 26.9-15.4 40-24.7c.7-.5 1.4-1 2.1-1.5c.7 .5 1.4 1 2.1 1.5c13.1 9.3 25.1 18 40 24.7c15.4 7 34.7 13.1 54 13.1s38.6-6.1 54-13.1c14.9-6.8 26.9-15.4 40-24.7c.7-.5 1.4-1 2.1-1.5c.7 .5 1.4 1 2.1 1.5c13.1 9.3 25.1 18 40 24.7c15.4 7 34.7 13.1 54 13.1v64c-31.9 0-60.6-9.9-80.4-18.9c-5.8-2.7-11.1-5.3-15.6-7.7c-4.5 2.4-9.7 5.1-15.6 7.7c-19.8 9-48.5 18.9-80.4 18.9s-60.6-9.9-80.4-18.9c-5.8-2.7-11.1-5.3-15.6-7.7c-4.5 2.4-9.7 5.1-15.6 7.7z"/></svg>