<svg xmlns="http://www.w3.org/2000/svg" viewBox="0 0 512 512"><!--! Font Awesome Pro 6.2.0 by @fontawesome - https://fontawesome.com License - https://fontawesome.com/license (Commercial License) Copyright 2022 Fonticons, Inc. --><path d="M200 0L56 14.1v32H200V0zM189.5 78.1H66.5C64.9 83.8 64 89.8 64 96c0 35.3 28.7 64 64 64s64-28.7 64-64c0-6.2-.9-12.2-2.5-17.9zM192 192H83.8L217.8 295 192 192zM32 320H197.8L58.7 213.1 32 320zM384 160c35.3 0 64-28.7 64-64s-28.7-64-64-64s-64 28.7-64 64s28.7 64 64 64zm96 160L448 192H320L288 320H480zM272 432l96 80h16V456l104 0 24 0 0-48-24 0-104 0V352H368l-96 80zM128 352v56L24 408 0 408l0 48 24 0 104 0v56h16l96-80-96-80H128z"/></svg>