<svg xmlns="http://www.w3.org/2000/svg" viewBox="0 0 512 512"><!--! Font Awesome Pro 6.2.0 by @fontawesome - https://fontawesome.com License - https://fontawesome.com/license (Commercial License) Copyright 2022 Fonticons, Inc. --><path d="M448 48c0 26.5-21.5 48-48 48s-48-21.5-48-48s21.5-48 48-48s48 21.5 48 48zM128 96h32H320h13.3l9.4 9.4 13.8 13.8 25.9 25.9-29.2 22.2L230.1 260.8l-6.4 7.5c-2.4 2.8-4.4 6.1-5.7 9.6L179.8 380 464 233.4V192 168h48v24 56 14.6l-13 6.7L50.5 500.7l-21.3 11L7.1 469l21.3-11 66.6-34.4 63-168.3c3.9-10.5 9.7-20.3 17-28.8L232.1 160H160 128V96z"/></svg>