<svg xmlns="http://www.w3.org/2000/svg" viewBox="0 0 576 512"><!--! Font Awesome Pro 6.2.0 by @fontawesome - https://fontawesome.com License - https://fontawesome.com/license (Commercial License) Copyright 2022 Fonticons, Inc. --><path d="M320 192h16V512H144V337.7L90.4 428.3 70.1 462.8 1.2 422.1l20.3-34.4 104-176L137.2 192H160 320zm0-112c0 44.2-35.8 80-80 80s-80-35.8-80-80s35.8-80 80-80s80 35.8 80 80zM464 0V128h16V269.3l16-5.3V192h48V304l-64 21.3V352h64v48H484l28 112H416V400H368V192h32V128h16V32H400V0h16 32 16z"/></svg>