<svg xmlns="http://www.w3.org/2000/svg" viewBox="0 0 384 512"><!--! Font Awesome Pro 6.2.0 by @fontawesome - https://fontawesome.com License - https://fontawesome.com/license (Commercial License) Copyright 2022 Fonticons, Inc. --><path d="M144 128c26.5 0 48-21.5 48-48s-21.5-48-48-48s-48 21.5-48 48s21.5 48 48 48zm-16 32H96v32 96c0 35.3 28.7 64 64 64h99.8l12.5 100 3.5 28H304h48 32V416H352 332.2L319.8 316l-3.5-28H288 192V256h64 32V192H256 192V160H160 128zm-64 0V128H0v32V416v32H32 192h32V384H192 64V160z"/></svg>