<svg xmlns="http://www.w3.org/2000/svg" viewBox="0 0 640 512"><!--! Font Awesome Pro 6.2.0 by @fontawesome - https://fontawesome.com License - https://fontawesome.com/license (Commercial License) Copyright 2022 Fonticons, Inc. --><path d="M240 96c26.5 0 48-21.5 48-48s-21.5-48-48-48s-48 21.5-48 48s21.5 48 48 48zM373.5 85.3L362.7 63.8 319.8 85.3l10.7 21.5 37.4 74.7L360 192H304l-80-72H160L106.7 220.6c-11.4 21.6-9.4 47.8 5.3 67.4H80L31.1 385.8c5.4-1.2 11.1-1.8 16.9-1.8H272c26.2 0 49.4 12.6 64 32H450l36 48H440 416v48h24H568h9.9l7-7 32-32 17-17L600 422.1l-17 17-25 25H546l-46-61.3L576 352V256L419.8 177.9 373.5 85.3zM272 256h40l-24 32H264l-72-32 32-48 48 48zM48 416c-26.5 0-48 21.5-48 48s21.5 48 48 48H272c26.5 0 48-21.5 48-48s-21.5-48-48-48H48z"/></svg>