<svg xmlns="http://www.w3.org/2000/svg" viewBox="0 0 448 512"><!--! Font Awesome Pro 6.2.0 by @fontawesome - https://fontawesome.com License - https://fontawesome.com/license (Commercial License) Copyright 2022 Fonticons, Inc. --><path d="M272 48c0-26.5-21.5-48-48-48s-48 21.5-48 48s21.5 48 48 48s48-21.5 48-48zm-8 187.3l47.4 57.1 20.4 24.6 49.3-40.9-20.4-24.6-92.9-112L258.1 128h-15H140.9 122.8l-9.3 15.5-76.9 128L20.1 298.9l54.9 33 16.5-27.4L120 256.9V480v32h64V480 352h16V480v32h64V480 235.3zM352 376c0-4.4 3.6-8 8-8s8 3.6 8 8V488v24h48V488 376c0-30.9-25.1-56-56-56s-56 25.1-56 56v8 24h48V384v-8z"/></svg>