<svg xmlns="http://www.w3.org/2000/svg" viewBox="0 0 448 512"><!--! Font Awesome Pro 6.2.0 by @fontawesome - https://fontawesome.com License - https://fontawesome.com/license (Commercial License) Copyright 2022 Fonticons, Inc. --><path d="M352 64c0 35.3-28.7 64-64 64s-64-28.7-64-64s28.7-64 64-64s64 28.7 64 64zM151.9 144H176h48 20.4l12 16.5 39.1 53.8L334.8 182l31-25.3 50.7 61.9-31 25.3-72.1 59-32.8 26.8-24.9-34.2L232.7 264l-45 90 116.1 85.8L280 512H72 32V432H72h86.6l-53.2-39.3c-34.9-25.8-45.8-73.3-25.6-111.8l60.8-115.5L151.9 144z"/></svg>