<svg xmlns="http://www.w3.org/2000/svg" viewBox="0 0 512 512"><!--! Font Awesome Pro 6.2.0 by @fontawesome - https://fontawesome.com License - https://fontawesome.com/license (Commercial License) Copyright 2022 Fonticons, Inc. --><path d="M336 80c0 44.2-35.8 80-80 80s-80-35.8-80-80s35.8-80 80-80s80 35.8 80 80zM301.2 443.8l23-32.9-52.8-8.8L224 354.7V312H160l0 20.4 0 35.6c0 .7 0 1.4 .1 2.1l69.2 34.3 43 21.3-42.6 86-43-21.3L58.7 427 32 413.8 32 384l0-32 0-17.8 11.6-13.5 96-112L153.9 192H176 352h26.2l14.2 22 72 112 17.4 27.1-18.5 26.4-56 80-27.5 39.3-78.6-55zM308 376c24.3 0 44-19.7 44-44s-19.7-44-44-44s-44 19.7-44 44s19.7 44 44 44z"/></svg>