<svg xmlns="http://www.w3.org/2000/svg" viewBox="0 0 512 512"><!--! Font Awesome Pro 6.2.0 by @fontawesome - https://fontawesome.com License - https://fontawesome.com/license (Commercial License) Copyright 2022 Fonticons, Inc. --><path d="M64 181.4V512H0V144L256 0 512 144V512H448V181.4L256 73.4 64 181.4zM256 208c-22.1 0-40-17.9-40-40s17.9-40 40-40s40 17.9 40 40s-17.9 40-40 40zm-48 16h96 14.3l6.8 12.6 56 104 11.4 21.1-42.3 22.8-11.4-21.1L312 313.5V488v24H264V488 400H248v88 24H200V488 313.5l-26.9 49.9-11.4 21.1-42.3-22.8 11.4-21.1 56-104 6.8-12.6H208z"/></svg>