<svg xmlns="http://www.w3.org/2000/svg" viewBox="0 0 384 512"><!--! Font Awesome Pro 6.2.0 by @fontawesome - https://fontawesome.com License - https://fontawesome.com/license (Commercial License) Copyright 2022 Fonticons, Inc. --><path d="M192 96c-26.5 0-48-21.5-48-48s21.5-48 48-48s48 21.5 48 48s-21.5 48-48 48zM120 384H96V296.9l-4.6 7.6L74.9 331.9l-54.9-33 16.5-27.4 76.9-128 9.3-15.5h18.1H176h16 32 32l18.3 97.7c44.3 8.6 77.7 47.5 77.7 94.3v64H304 264v96 32H200V480 384h-8-8v96 32H120V480 384z"/></svg>