<svg xmlns="http://www.w3.org/2000/svg" viewBox="0 0 448 512"><!--! Font Awesome Pro 6.2.0 by @fontawesome - https://fontawesome.com License - https://fontawesome.com/license (Commercial License) Copyright 2022 Fonticons, Inc. --><path d="M448 48c0 26.5-21.5 48-48 48s-48-21.5-48-48s21.5-48 48-48s48 21.5 48 48zM128 96h32H320h13.3l9.4 9.4 19.3 19.3 23.4 23.4-24.2 22.6-83.4 77.8 64.9 64.9 9.4 9.4V336v80 32H288V416 349.3l-77.9-77.8c-26.6-26.6-24.6-70.3 4.3-94.4l20.4-17H160 128V96zM81.4 353.4l86.9-86.9c4.6 10 11 19.3 19.3 27.5l21.8 21.8-82.7 82.7L104 421.3 58.7 376l22.6-22.6zm307 91.2l31 7.8-3.9 15.5-8 32-3 12.1H392 288 272V480h16 91.5l5-19.9 3.9-15.5zM135.2 478.3l-32 16-10.3 5.2-8.2-8.2-72-72L1.4 408 24 385.4l11.3 11.3 63.8 63.8 21.7-10.8 14.3-7.2 14.3 28.6-14.3 7.2z"/></svg>