<svg xmlns="http://www.w3.org/2000/svg" viewBox="0 0 576 512"><!--! Font Awesome Pro 6.2.0 by @fontawesome - https://fontawesome.com License - https://fontawesome.com/license (Commercial License) Copyright 2022 Fonticons, Inc. --><path d="M256 0H192V32 192h64V32 0zM192 480v32h64V480 320H192V480zM576 0H512V32 480v32h64V480 32 0zM320 0H283.1l5.2 36.5 31.2 218.6L288.6 409.7 281 448h39 32 64 32 32V416 32 0H448 320zM112 80c0-26.5-21.5-48-48-48S16 53.5 16 80s21.5 48 48 48s48-21.5 48-48zM0 160v32 96 10.7l0 0V480v32H64V480 384l32 42.7V480v32h64V480 416 405.3l-6.4-8.5L112 341.3l0-72.1 9.4 9.4 9.4 9.4H144h80 32V224H224 157.3l-54.6-54.6L93.3 160H80 32 0z"/></svg>