<svg xmlns="http://www.w3.org/2000/svg" viewBox="0 0 512 512"><!--! Font Awesome Pro 6.2.0 by @fontawesome - https://fontawesome.com License - https://fontawesome.com/license (Commercial License) Copyright 2022 Fonticons, Inc. --><path d="M80 96c26.5 0 48-21.5 48-48s-21.5-48-48-48S32 21.5 32 48s21.5 48 48 48zM0 480l0 32 64 0 0-32v0V410.5l-64-64L0 480zM32 128H0v32V274.7c0 17 6.7 33.3 18.7 45.3l22.6 22.6 56.7 56.7 6.3 37.9 4 24 4 24 0 0 4 24 .5 2.7h64.9l-2.2-13.3-4-24 0 0-4-24-4-24-8-48-1.7-10.1-7.3-7.3L96 306.7V241.7l21.4 32.1 9.5 14.3H144h79.3l27.1 108.3c-16 11.6-26.3 30.5-26.3 51.7c0 35.3 28.7 64 64 64c32.3 0 59.1-24 63.4-55.1l134.4-33.6 23.3-5.8-11.6-46.6-23.3 5.8L339.7 410.3c-10-13.7-25.3-23.3-42.8-25.7L247.3 186.2l-5.8-23.3-46.6 11.6 5.8 23.3 6.5 26.2H161.1l-54.5-81.7L97.1 128H80 32zM304 448c0 8.8-7.2 16-16 16s-16-7.2-16-16s7.2-16 16-16s16 7.2 16 16z"/></svg>