<svg xmlns="http://www.w3.org/2000/svg" viewBox="0 0 512 512"><!--! Font Awesome Pro 6.2.0 by @fontawesome - https://fontawesome.com License - https://fontawesome.com/license (Commercial License) Copyright 2022 Fonticons, Inc. --><path d="M176 96c26.5 0 48-21.5 48-48s-21.5-48-48-48s-48 21.5-48 48s21.5 48 48 48zm-48 32H108.2l-8.8 17.7-64 128L21.1 302.3l57.2 28.6 14.3-28.6L128 231.6v43.2c0 17 6.7 33.3 18.7 45.3L224 397.3V480v32h64V480 384 370.7l-9.4-9.4L224 306.7V288 213.3l70.4 93.9 19.2 25.6 51.2-38.4-19.2-25.6-96-128L240 128H224 128zm-7 248.2l-12 48-6 24-6 24-6 24L87 512h66l.1-.2 6-24 6-24 6-24 10-40.2-52.8-52.8L121 376.2zM446.5 498.8l9.1 13.2 26.3-18.2-9.1-13.2L360.2 317.9l-25.6 19.2 112 161.7z"/></svg>