<svg xmlns="http://www.w3.org/2000/svg" viewBox="0 0 640 512"><!--! Font Awesome Pro 6.2.0 by @fontawesome - https://fontawesome.com License - https://fontawesome.com/license (Commercial License) Copyright 2022 Fonticons, Inc. --><path d="M192 96c26.5 0 48-21.5 48-48s-21.5-48-48-48s-48 21.5-48 48s21.5 48 48 48zm-51.1 32H122.8l-9.3 15.5L48.9 251.1 32.4 278.5l54.9 33L103.7 284 120 256.9V480v32h64V480 352h16V480v32h64V480 192h56 64 16 32V128H400 384V64H576V256H384V224H320v32 64h64H576h64V256 64 0H576 384 320V64v64H243.1 140.9z"/></svg>