<svg xmlns="http://www.w3.org/2000/svg" viewBox="0 0 576 512"><!--! Font Awesome Pro 6.2.0 by @fontawesome - https://fontawesome.com License - https://fontawesome.com/license (Commercial License) Copyright 2022 Fonticons, Inc. --><path d="M288 176c48.6 0 88-39.4 88-88s-39.4-88-88-88s-88 39.4-88 88s39.4 88 88 88zm-64 32H213.6l-9.5 4.3-76.7 34.8C124 270.3 104.1 288 80 288c-9.5 0-18.4-2.8-25.8-7.5l-10 4.6L.4 304.9l39.7 87.4 43.7-19.9L176 330.5V432H400V330.5l92.1 41.9 43.7 19.9 39.7-87.4L531.9 285l-31.1-14.1c-8.8 10.5-22 17.1-36.7 17.1c-26.5 0-48-21.5-48-48c0-2.5 .2-5 .6-7.4l-44.7-20.3-9.5-4.3H352 224zM24 464H0v48H24 552h24V464H552 24zM272 280c0 13.3-10.7 24-24 24s-24-10.7-24-24s10.7-24 24-24s24 10.7 24 24zm56 104c-13.3 0-24-10.7-24-24s10.7-24 24-24s24 10.7 24 24s-10.7 24-24 24zM96 240c0-8.8-7.2-16-16-16s-16 7.2-16 16s7.2 16 16 16s16-7.2 16-16zm368 16c8.8 0 16-7.2 16-16s-7.2-16-16-16s-16 7.2-16 16s7.2 16 16 16z"/></svg>