<svg xmlns="http://www.w3.org/2000/svg" viewBox="0 0 640 512"><!--! Font Awesome Pro 6.2.0 by @fontawesome - https://fontawesome.com License - https://fontawesome.com/license (Commercial License) Copyright 2022 Fonticons, Inc. --><path d="M448 48c0-26.5-21.5-48-48-48s-48 21.5-48 48s21.5 48 48 48s48-21.5 48-48zM427.2 160L336 88 223.2 175.2c-30.7 23.8-28.5 70.8 4.3 91.6L288 305.1V448h64V270.9l-57-38 60.3-48.5L404.8 224H512V160H427.2zM176 176L304 80 256 20H213.3L112 96l64 80zm-16 80H96v20.6c-7.4 2.2-14.6 5.2-21.3 8.8L60.1 270.9 14.9 316.1l14.6 14.6c-3.6 6.7-6.6 13.8-8.8 21.3H0v64H20.6c2.2 7.4 5.2 14.6 8.8 21.3L14.9 451.9l45.3 45.3 14.6-14.6c6.7 3.6 13.8 6.6 21.3 8.8V512h64V491.4c7.4-2.2 14.6-5.2 21.3-8.8l14.6 14.6 45.3-45.3-14.6-14.6c3.6-6.7 6.6-13.8 8.8-21.3H256V352H235.4c-2.2-7.4-5.2-14.6-8.8-21.3l14.6-14.6-45.3-45.3-14.6 14.6c-6.7-3.6-13.8-6.6-21.3-8.8V256zM128 448c-35.3 0-64-28.7-64-64s28.7-64 64-64s64 28.7 64 64s-28.7 64-64 64zM480 256v20.6c-7.4 2.2-14.6 5.2-21.3 8.8l-14.6-14.6-45.3 45.3 14.6 14.6c-3.6 6.7-6.6 13.8-8.8 21.3H384v64h20.6c2.2 7.4 5.2 14.6 8.8 21.3l-14.6 14.6 45.3 45.3 14.6-14.6c6.7 3.6 13.8 6.6 21.3 8.8V512h64V491.4c7.4-2.2 14.6-5.2 21.3-8.8l14.6 14.6 45.3-45.3-14.6-14.6c3.6-6.7 6.6-13.8 8.8-21.3H640V352H619.4c-2.2-7.4-5.2-14.6-8.8-21.3l14.6-14.6-45.3-45.3-14.6 14.6c-6.7-3.6-13.8-6.6-21.3-8.8V256H480zm96 128c0 35.3-28.7 64-64 64s-64-28.7-64-64s28.7-64 64-64s64 28.7 64 64z"/></svg>