<svg xmlns="http://www.w3.org/2000/svg" viewBox="0 0 640 512"><!--! Font Awesome Pro 6.2.0 by @fontawesome - https://fontawesome.com License - https://fontawesome.com/license (Commercial License) Copyright 2022 Fonticons, Inc. --><path d="M400 96c26.5 0 48-21.5 48-48s-21.5-48-48-48s-48 21.5-48 48s21.5 48 48 48zm27.2 64L336 88 223.2 175.2c-30.7 23.8-28.5 70.8 4.3 91.6L288 305.1V448h64V270.9l-57-38 60.3-48.5L404.8 224H512V160H427.2zM200 384c0 39.8-32.2 72-72 72s-72-32.2-72-72s32.2-72 72-72s72 32.2 72 72zm56 0c0-70.7-57.3-128-128-128S0 313.3 0 384s57.3 128 128 128s128-57.3 128-128zm328 0c0 39.8-32.2 72-72 72s-72-32.2-72-72s32.2-72 72-72s72 32.2 72 72zm56 0c0-70.7-57.3-128-128-128s-128 57.3-128 128s57.3 128 128 128s128-57.3 128-128z"/></svg>