<svg xmlns="http://www.w3.org/2000/svg" viewBox="0 0 576 512"><!--! Font Awesome Pro 6.2.0 by @fontawesome - https://fontawesome.com License - https://fontawesome.com/license (Commercial License) Copyright 2022 Fonticons, Inc. --><path d="M480 80c0 26.5-21.5 48-48 48s-48-21.5-48-48s21.5-48 48-48s48 21.5 48 48zM45.8 215.6l21.3 11.1L204.4 298c-12.8-20.3-10.5-49.8 13.8-66L278.3 192H192 160V128h32H352h13.3l9.4 9.4 12.8 12.8 3.2 3.2L413.3 176l-22.6 22.6L333.3 256H384h32v32 96 23.9l56.2 29.2 37.1-18.5 21.5-10.7 21.5 42.9-21.5 10.7-48 24-10.9 5.5-10.9-5.6-416-216L23.6 258.2l22.1-42.6zM352 374.6V320H246.7L352 374.6z"/></svg>