<svg xmlns="http://www.w3.org/2000/svg" viewBox="0 0 640 512"><!--! Font Awesome Pro 6.2.0 by @fontawesome - https://fontawesome.com License - https://fontawesome.com/license (Commercial License) Copyright 2022 Fonticons, Inc. --><path d="M192 96c26.5 0 48-21.5 48-48s-21.5-48-48-48s-48 21.5-48 48s21.5 48 48 48zm-51.1 32H123.4L114 142.8l-81.7 128 53.9 34.4 33.8-53V448H32 0v64H32h88 64 16 64H608h32V448H608 264V252.2l33.8 53 53.9-34.4L270 142.8 260.6 128H243.1 140.9zM200 448H184V352h16v96zM464 306.7l-25.4-25.4L416 258.7 370.7 304l22.6 22.6 80 80L496 429.3l22.6-22.6 80-80L621.3 304 576 258.7l-22.6 22.6L528 306.7V64 32H464V64 306.7z"/></svg>