<svg xmlns="http://www.w3.org/2000/svg" viewBox="0 0 512 512"><!--! Font Awesome Pro 6.2.0 by @fontawesome - https://fontawesome.com License - https://fontawesome.com/license (Commercial License) Copyright 2022 Fonticons, Inc. --><path d="M160 16V64H352V0L160 16zm17.6 80c-1 5.2-1.6 10.5-1.6 16c0 44.2 35.8 80 80 80s80-35.8 80-80c0-5.5-.6-10.8-1.6-16H177.6zM176 224h-6.1L352 484.1V369.7l53.6 90.6 20.3 34.4 68.9-40.7-20.3-34.4-81.6-138 52.4-90.8L416 173.9 479.4 64l-13.9-8L437.9 40 424 32 408 59.7l13.9 8L331.6 224H176zm-34.4 19.7l-104 176L17.2 454.1l68.9 40.7 20.3-34.4L160 369.7V512H332.5L143 241.3l-1.4 2.4zM296 320c-13.3 0-24-10.7-24-24s10.7-24 24-24s24 10.7 24 24s-10.7 24-24 24z"/></svg>