<svg xmlns="http://www.w3.org/2000/svg" viewBox="0 0 512 512"><!--! Font Awesome Pro 6.2.0 by @fontawesome - https://fontawesome.com License - https://fontawesome.com/license (Commercial License) Copyright 2022 Fonticons, Inc. --><path d="M176 128c26.5 0 48-21.5 48-48s-21.5-48-48-48s-48 21.5-48 48s21.5 48 48 48zm0 32H135l9.9 39.8 25.9 103.8C178 332 203.6 352 233 352h7 89.9l37.5 99.3 10.7 28.3 28.8-9 48-15.1 30.5-9.6-19.1-61.1-30.5 9.6-19.2 6-34.7-91.7L374.1 288H352 265l-8-32h63 32V192H320 241l-1.9-7.8L233 160H208 176zm-80.5-5.9l-5.9-31.5L26.7 134.4l5.9 31.5 48 256L85.4 448H112 272h32V384H272 138.6L95.5 154.1z"/></svg>