<svg xmlns="http://www.w3.org/2000/svg" viewBox="0 0 640 512"><!--! Font Awesome Pro 6.2.0 by @fontawesome - https://fontawesome.com License - https://fontawesome.com/license (Commercial License) Copyright 2022 Fonticons, Inc. --><path d="M176 0L133.8 88.5 38.4 66.3l42.9 88.1L4.4 215.2 100 236.6l-.4 98L176 273.2l76.4 61.4-.4-98L312.8 223l15-23.5-57.1-45.1 42.9-88.1L218.2 88.5 176 0zM480 96c26.5 0 48-21.5 48-48s-21.5-48-48-48s-48 21.5-48 48s21.5 48 48 48zm-51.1 32H411.4l-9.4 14.8-81.7 128 53.9 34.4 42-65.8L368 384h40v96 32h64V480 384h16v96 32h64V480 384h40L543.8 239.4l42 65.8 53.9-34.4L558 142.8 548.6 128H531.1 428.9z"/></svg>