<svg xmlns="http://www.w3.org/2000/svg" viewBox="0 0 576 512"><!--! Font Awesome Pro 6.2.0 by @fontawesome - https://fontawesome.com License - https://fontawesome.com/license (Commercial License) Copyright 2022 Fonticons, Inc. --><path d="M416 0L224 16V64H416V0zM240 112c0 44.2 35.8 80 80 80s80-35.8 80-80c0-5.5-.6-10.8-1.6-16H241.6c-1 5.2-1.6 10.5-1.6 16zM72 224H32v80H72 224v89.4L393.4 224H240 72zm356.7 9.9L246.6 416H416V369.7l53.6 90.6 20.3 34.4 68.9-40.7-20.4-34.4-104-176-5.7-9.7zM224 448v64H416V448H224z"/></svg>