<svg xmlns="http://www.w3.org/2000/svg" viewBox="0 0 512 512"><!--! Font Awesome Pro 6.2.0 by @fontawesome - https://fontawesome.com License - https://fontawesome.com/license (Commercial License) Copyright 2022 Fonticons, Inc. --><path d="M128 48c0 26.5-21.5 48-48 48S32 74.5 32 48S53.5 0 80 0s48 21.5 48 48zM0 346.5l64 64V480v0l0 32L0 512l0-32L0 346.5zM0 128H32 80 97.1l9.5 14.3L161.1 224h46.1l-6.5-26.2-5.8-23.3 46.6-11.6 5.8 23.3 49.6 198.4c17.6 2.4 32.9 12 42.8 25.7l134.4-33.6 23.3-5.8 11.6 46.6-23.3 5.8L351.4 456.9C347.1 488 320.3 512 288 512c-35.3 0-64-28.7-64-64c0-21.3 10.4-40.1 26.3-51.7L223.3 288H144 126.9l-9.5-14.3L96 241.7v65.1l54.6 54.6 7.3 7.3 1.7 10.1 8 48 4 24 4 24 0 0 4 24 2.2 13.3H116.9l-.5-2.7-4-24 0 0-4-24-4-24-6.3-37.9L41.4 342.6 18.7 320C6.7 308 0 291.7 0 274.7V160 128zM288 464c8.8 0 16-7.2 16-16s-7.2-16-16-16s-16 7.2-16 16s7.2 16 16 16zm38.4-80L288 230.4 441.6 192 480 345.6 326.4 384z"/></svg>