<svg xmlns="http://www.w3.org/2000/svg" viewBox="0 0 384 512"><!--! Font Awesome Pro 6.2.0 by @fontawesome - https://fontawesome.com License - https://fontawesome.com/license (Commercial License) Copyright 2022 Fonticons, Inc. --><path d="M64 32H32V64v64H0v64H32v32H0v64H32v64V480H96V384h80c68.4 0 127.7-39 156.8-96H384V224H351.3c.5-5.3 .7-10.6 .7-16s-.2-10.7-.7-16H384V128H332.8C303.7 71 244.4 32 176 32H64zm190.4 96H96V96h80c30.5 0 58.2 12.2 78.4 32zM96 192H286.9c.7 5.2 1.1 10.6 1.1 16s-.4 10.8-1.1 16H96V192zm158.4 96c-20.2 19.8-47.9 32-78.4 32H96V288H254.4z"/></svg>