<svg xmlns="http://www.w3.org/2000/svg" viewBox="0 0 640 512"><!--! Font Awesome Pro 6.2.0 by @fontawesome - https://fontawesome.com License - https://fontawesome.com/license (Commercial License) Copyright 2022 Fonticons, Inc. --><path d="M63.8 32l144-32 80 144-83.8 67c13 24.6 28.5 47.5 46.3 68.6L591.5 14.8l19-14.7L639.9 38l-19 14.7L48.4 497.2l-19 14.7L0 474l19-14.7L164.2 346.5C101.5 269.5 63.9 171.1 63.9 64l0-32zm301 339.8l67-83.8 144 80-32 144h-32c-104.9 0-201.3-36-277.6-96.4l88.4-69.7c13.4 9.5 27.5 18.1 42.2 25.9z"/></svg>