<svg xmlns="http://www.w3.org/2000/svg" viewBox="0 0 640 512"><!--! Font Awesome Pro 6.2.0 by @fontawesome - https://fontawesome.com License - https://fontawesome.com/license (Commercial License) Copyright 2022 Fonticons, Inc. --><path d="M96 0H224l32 32L209 79l81 81h60.1L487 23l17-17L537.9 40 521 57 377 201l-7 7H360 280h-9.9l-7-7-88-88-47 47L96 128V0zM640 397.5L565.3 512 416 470.4l11.2-98.1c-69.7-21-144.6-21-214.3 0L224 470.4 74.7 512 0 397.5l21.3-20.8c164.9-160.9 432.4-160.9 597.3 0L640 397.5z"/></svg>