<svg xmlns="http://www.w3.org/2000/svg" viewBox="0 0 512 512"><!--! Font Awesome Pro 6.2.0 by @fontawesome - https://fontawesome.com License - https://fontawesome.com/license (Commercial License) Copyright 2022 Fonticons, Inc. --><path d="M144 0L0 32 0 64C0 311.4 200.6 512 448 512h32l32-144L368 288l-67 83.8C232.5 335.7 176.3 279.5 140.2 211L224 144 144 0zm362 40L472 6.1 455 23l-47 47L361 23l-17-17L310.1 40l17 17 47 47-47 47-17 17L344 201.9l17-17 47-47 47 47 17 17L505.9 168l-17-17-47-47 47-47 17-17z"/></svg>