<svg xmlns="http://www.w3.org/2000/svg" viewBox="0 0 512 512"><!--! Font Awesome Pro 6.2.0 by @fontawesome - https://fontawesome.com License - https://fontawesome.com/license (Commercial License) Copyright 2022 Fonticons, Inc. --><path d="M204.8 59.7L113.2 0 96.6 17.1C-32.2 149-32.2 363 96.6 494.9L113.2 512l91.6-59.7L171.5 332.8 93 341.7C76.2 286 76.2 226 93 170.3l78.5 8.9L204.8 59.7zM464 256c0 87.8-47.1 164.5-117.5 206.4l24.5 41.3C455.5 453.5 512 361.3 512 256S455.5 58.5 371.1 8.3L346.5 49.6C416.9 91.5 464 168.2 464 256zM297.5 379.8L322 421.1c56.3-33.5 94-94.9 94-165.1s-37.7-131.6-94-165.1l-24.5 41.3C339.7 157.3 368 203.3 368 256s-28.3 98.7-70.5 123.8zM272 256c0 17.6-9.4 32.9-23.5 41.3L273 338.6c28.1-16.7 47-47.4 47-82.6s-18.9-65.8-47-82.6l-24.5 41.3c14.1 8.4 23.5 23.7 23.5 41.3z"/></svg>