<svg xmlns="http://www.w3.org/2000/svg" viewBox="0 0 640 512"><!--! Font Awesome Pro 6.2.0 by @fontawesome - https://fontawesome.com License - https://fontawesome.com/license (Commercial License) Copyright 2022 Fonticons, Inc. --><path d="M640 0V352H192V0H640zM475.6 106.2L456 78.4l-19.6 27.8-57.3 81.2-17.1-19.3L344 147.9l-17.9 20.2-64 72-6.1 6.8V256v8 24h24 56 24 48 24H552h24V264v-8-7.6l-4.4-6.2-96-136zM336 96c0-17.7-14.3-32-32-32s-32 14.3-32 32s14.3 32 32 32s32-14.3 32-32zM0 128H160V384v64H352V384H512V512H0V128zm104 64H56v48h48V192zm0 104H56v48h48V296zm0 104H56v48h48V400zm304 0v48h48V400H408z"/></svg>