<svg xmlns="http://www.w3.org/2000/svg" viewBox="0 0 640 512"><!--! Font Awesome Pro 6.2.0 by @fontawesome - https://fontawesome.com License - https://fontawesome.com/license (Commercial License) Copyright 2022 Fonticons, Inc. --><path d="M640 0H192V320H368V256H352 288V224l72-80 28 32 60-80 51 68 141-47V0zM160 392V96H0V448H289.9c4.4-18.3 15.9-33.2 29.7-43.5c6.7-5 14.2-9.2 22.3-12.5H160zM288 128c-17.7 0-32-14.3-32-32s14.3-32 32-32s32 14.3 32 32s-14.3 32-32 32zM56 152h48v48H56V152zm48 96v48H56V248h48zM56 344h48v48H56V344zM640 152l-31.6 10.5-192 64L400 232v17.3 48V418.8c-5.1-1-10.5-1.5-16-1.5c-35.3 0-64 21.5-64 48s28.7 48 64 48s64-21.5 64-48V314.6l144-48v88.2c-5.1-1-10.5-1.5-16-1.5c-35.3 0-64 21.5-64 48s28.7 48 64 48s64-21.5 64-48c0-1.5-.1-3-.3-4.4c.2-1.2 .3-2.4 .3-3.6v-160-48V152z"/></svg>