<svg xmlns="http://www.w3.org/2000/svg" viewBox="0 0 576 512"><!--! Font Awesome Pro 6.2.0 by @fontawesome - https://fontawesome.com License - https://fontawesome.com/license (Commercial License) Copyright 2022 Fonticons, Inc. --><path d="M288 0L528 240l-9 9c-24.8-15.7-54.3-24.8-85.9-24.8c-72 0-133 47.3-153.3 112.5L155.7 212.8l-11.3-11.3-22.6 22.7 11.3 11.3L273 374.9c-.2 3-.3 6.1-.3 9.1c0 31.7 9.2 61.2 25.2 86L288 480 160 432 80 512 16 448l80-80L48 240 288 0zM560 384c0 70.7-57.3 128-128 128s-128-57.3-128-128s57.3-128 128-128s128 57.3 128 128zM336 368c0 8.8 7.2 16 16 16s16-7.2 16-16s-7.2-16-16-16s-16 7.2-16 16zm80 80c-8.8 0-16 7.2-16 16s7.2 16 16 16s16-7.2 16-16s-7.2-16-16-16zm0-64c0 8.8 7.2 16 16 16s16-7.2 16-16s-7.2-16-16-16s-16 7.2-16 16zm96 0c-8.8 0-16 7.2-16 16s7.2 16 16 16s16-7.2 16-16s-7.2-16-16-16zm-80-80c0 8.8 7.2 16 16 16s16-7.2 16-16s-7.2-16-16-16s-16 7.2-16 16z"/></svg>