<svg xmlns="http://www.w3.org/2000/svg" viewBox="0 0 576 512"><!--! Font Awesome Pro 6.2.0 by @fontawesome - https://fontawesome.com License - https://fontawesome.com/license (Commercial License) Copyright 2022 Fonticons, Inc. --><path d="M544 240H531.3C497.7 137.8 401.4 64 288 64S78.3 137.8 44.7 240H32 0v64H32h9.2l63.9-30.4 6-2.9 6.3 2.3L200 303l82.5-30 5.5-2 5.5 2L376 303l82.5-30 6.3-2.3 6.1 2.9L534.8 304H544h32V240H544zM96 448H480l38.7-116.2-55.6-26.5L381.5 335l-5.5 2-5.5-2L288 305l-82.5 30-5.5 2-5.5-2-81.7-29.7L57.3 331.8 96 448zM206.3 151.2l-16 32-7.2 14.3-28.6-14.3 7.2-14.3 16-32 7.2-14.3 28.6 14.3-7.2 14.3zm192-14.3l16 32 7.2 14.3-28.6 14.3-7.2-14.3-16-32-7.2-14.3 28.6-14.3 7.2 14.3zM304 144v32 16H272V176 144 128h32v16z"/></svg>