<svg xmlns="http://www.w3.org/2000/svg" viewBox="0 0 640 512"><!--! Font Awesome Pro 6.2.0 by @fontawesome - https://fontawesome.com License - https://fontawesome.com/license (Commercial License) Copyright 2022 Fonticons, Inc. --><path d="M453.1 46L528 32V78c0 19.7-9 37.8-23.6 49.7c6.4 4.9 12.7 10.1 18.6 15.7c17.6-15.9 28.5-38.6 29-63.3h40 16v32c0 32.8-24.6 59.8-56.3 63.5l6.8 9C570 200 585 212.5 602.2 221.1L608 224h32V368H572.5c-22.2 21.2-49.7 36.2-79.8 43.3L473.1 480H384V416H320 272v64H182.9L155 382.4C110.3 358 80 310.5 80 256V240H47.4C21.2 240 0 218.8 0 192.6c0-21.8 14.8-40.7 35.9-46l8.2-2 7.8 31-8.2 2c-6.9 1.7-11.7 7.9-11.7 15c0 8.5 6.9 15.4 15.4 15.4H83.2C98 135 162.6 80 240 80H362.4c14.6 0 29 1.4 43.1 4c8.4-19.3 25.9-33.8 47.7-37.9zM468 256c11 0 20-9 20-20s-9-20-20-20s-20 9-20 20s9 20 20 20z"/></svg>