<svg xmlns="http://www.w3.org/2000/svg" viewBox="0 0 512 512"><!--! Font Awesome Pro 6.2.0 by @fontawesome - https://fontawesome.com License - https://fontawesome.com/license (Commercial License) Copyright 2022 Fonticons, Inc. --><path d="M112 318.1V253.3l41.8 17.4 6.8 2.8 6.5-3.3L259.8 224H288 512v93.2l-23.3 9.3-25.6-12.8-6.4-3.2-6.7 2.7-33.3 13.3-25.6-12.8-6.4-3.2-6.7 2.7-33.3 13.3-25.6-12.8-6.4-3.2-6.7 2.7-33.3 13.3-25.6-12.8-6.4-3.2-6.7 2.7-33.3 13.3-25.6-12.8-6.4-3.2-6.7 2.7-33.3 13.3L112 318.1zm0 35.8l8.8 4.4 6.4 3.2 6.7-2.7 33.3-13.3 25.6 12.8 6.4 3.2 6.7-2.7 33.3-13.3 25.6 12.8 6.4 3.2 6.7-2.7 33.3-13.3 25.6 12.8 6.4 3.2 6.7-2.7 33.3-13.3 25.6 12.8 6.4 3.2 6.7-2.7 33.3-13.3 25.6 12.8 6.4 3.2 6.7-2.7 18.1-7.2v50.5l-24 12-24.8-12.4-7.2-3.6-7.2 3.6-23.7 11.8-16.3-10.8-4-2.7H400 224h-4.8l-4 2.7-16.3 10.8-23.7-11.8-7.2-3.6-7.2 3.6L136 414.1l-24-12V353.9zm47.4-115.5L0 172V64H176V0h64V198.1l-80.6 40.3zM112 437.9l16.8 8.4 7.2 3.6 7.2-3.6L168 433.9l24.8 12.4 8.3 4.2 7.7-5.2L224 435.2V512H112V437.9zm288-2.7l15.1 10.1 7.7 5.2 8.3-4.2L456 433.9l24.8 12.4 7.2 3.6 7.2-3.6 16.8-8.4V512H400V435.2zM200 144c0-13.3-10.7-24-24-24s-24 10.7-24 24s10.7 24 24 24s24-10.7 24-24z"/></svg>