<svg xmlns="http://www.w3.org/2000/svg" viewBox="0 0 512 512"><!--! Font Awesome Pro 6.2.0 by @fontawesome - https://fontawesome.com License - https://fontawesome.com/license (Commercial License) Copyright 2022 Fonticons, Inc. --><path d="M512 256c0 46.4-12.3 89.8-33.9 127.4l33.2 32.1L512 512l-96.6-.7-32.1-33.2C345.8 499.7 302.4 512 256 512c-46.5 0-90.2-12.4-127.8-34.1L95.9 511.3H0V415.4l33.6-32.5C12.2 345.5 0 302.2 0 256c0-46.4 12.3-89.9 33.9-127.4L0 95.9V0H95.9l32.8 33.9C166.1 12.3 209.6 0 256 0c46.2 0 89.5 12.2 126.9 33.6L415.4 0h95.9V95.9l-33.4 32.3C499.6 165.8 512 209.5 512 256zM64 80c8.8 0 16-7.2 16-16s-7.2-16-16-16s-16 7.2-16 16s7.2 16 16 16zM256 416c88.4 0 160-71.6 160-160s-71.6-160-160-160S96 167.6 96 256s71.6 160 160 160zM80 448c0-8.8-7.2-16-16-16s-16 7.2-16 16s7.2 16 16 16s16-7.2 16-16zM448 80c8.8 0 16-7.2 16-16s-7.2-16-16-16s-16 7.2-16 16s7.2 16 16 16zm16 368c0-8.8-7.2-16-16-16s-16 7.2-16 16s7.2 16 16 16s16-7.2 16-16z"/></svg>