<svg xmlns="http://www.w3.org/2000/svg" viewBox="0 0 512 512"><!--! Font Awesome Pro 6.2.0 by @fontawesome - https://fontawesome.com License - https://fontawesome.com/license (Commercial License) Copyright 2022 Fonticons, Inc. --><path d="M99.9 112.2L0 512l399.8-99.9c.2-4 .2-8 .2-12.1c0-159.1-128.9-288-288-288c-4 0-8.1 .1-12.1 .2zM432 404l80-20C512 171.9 340.1 0 128 0L108 80c1.3 0 2.7 0 4 0c176.7 0 320 143.3 320 320c0 1.3 0 2.7 0 4zM176 272c-17.7 0-32-14.3-32-32s14.3-32 32-32s32 14.3 32 32s-14.3 32-32 32zm128 64c0 17.7-14.3 32-32 32s-32-14.3-32-32s14.3-32 32-32s32 14.3 32 32zM160 384c0 17.7-14.3 32-32 32s-32-14.3-32-32s14.3-32 32-32s32 14.3 32 32z"/></svg>