<svg xmlns="http://www.w3.org/2000/svg" viewBox="0 0 576 512"><!--! Font Awesome Pro 6.2.0 by @fontawesome - https://fontawesome.com License - https://fontawesome.com/license (Commercial License) Copyright 2022 Fonticons, Inc. --><path d="M256 464c57.4 0 109.4-23.3 147.1-60.9L437 437c-46.3 46.3-110.3 75-181 75C114.6 512 0 397.4 0 256S114.6 0 256 0c70.7 0 134.7 28.7 181 75l-33.9 33.9C365.4 71.3 313.4 48 256 48C141.1 48 48 141.1 48 256s93.1 208 208 208zm124.5-83.5c-68.7 68.7-180.2 68.7-248.9 0s-68.7-180.2 0-248.9s180.2-68.7 248.9 0L256 256 380.5 380.5zM176 256c0-8.8-7.2-16-16-16s-16 7.2-16 16s7.2 16 16 16s16-7.2 16-16zm32-80c8.8 0 16-7.2 16-16s-7.2-16-16-16s-16 7.2-16 16s7.2 16 16 16zm64 192c0-8.8-7.2-16-16-16s-16 7.2-16 16s7.2 16 16 16s16-7.2 16-16zm206.6 22.6C509.4 354.3 528 307.3 528 256s-18.6-98.3-49.4-134.6l34-34c39.5 45 63.4 104 63.4 168.6s-23.9 123.6-63.4 168.6l-34-34zM344 256l41.4-41.4c2.5 5.6 8.1 9.4 14.6 9.4c8.8 0 16-7.2 16-16c0-6.5-3.9-12.1-9.4-14.6l49.3-49.3c53.5 64.8 53.5 158.9 0 223.8L344 256zm104 32c8.8 0 16-7.2 16-16s-7.2-16-16-16s-16 7.2-16 16s7.2 16 16 16z"/></svg>