<svg xmlns="http://www.w3.org/2000/svg" viewBox="0 0 640 512"><!--! Font Awesome Pro 6.2.0 by @fontawesome - https://fontawesome.com License - https://fontawesome.com/license (Commercial License) Copyright 2022 Fonticons, Inc. --><path d="M256 93.7C256 59.5 285 0 320 0c36 0 64 59.5 64 93.7V160L576 288v96l-91.2-30.4L620.9 459.3l19 14.7-29.4 37.9-19-14.7L19 52.7 0 38 29.4 .1l19 14.7L244.9 167.4 256 160V93.7zM448 449v63L320 480 192 512V448l64-48V320L64 384V288l97.3-64.9L384 398.5V400l38.4 28.8L448 449z"/></svg>