<svg xmlns="http://www.w3.org/2000/svg" viewBox="0 0 640 512"><!--! Font Awesome Pro 6.2.0 by @fontawesome - https://fontawesome.com License - https://fontawesome.com/license (Commercial License) Copyright 2022 Fonticons, Inc. --><path d="M192 93.7C192 59.5 221 0 256 0c36 0 64 59.5 64 93.7l0 66.3 85.5 57C354.3 247.8 320 303.9 320 368c0 54.7 24.9 103.5 64 135.8V512L256 480 128 512V448l64-48V320L0 384V288L192 160V93.7zM496 512c-79.5 0-144-64.5-144-144s64.5-144 144-144s144 64.5 144 144s-64.5 144-144 144zm59.3-180.7L566.6 320 544 297.4l-11.3 11.3L496 345.4l-36.7-36.7L448 297.4 425.4 320l11.3 11.3L473.4 368l-36.7 36.7L425.4 416 448 438.6l11.3-11.3L496 390.6l36.7 36.7L544 438.6 566.6 416l-11.3-11.3L518.6 368l36.7-36.7z"/></svg>