<svg xmlns="http://www.w3.org/2000/svg" viewBox="0 0 640 512"><!--! Font Awesome Pro 6.2.0 by @fontawesome - https://fontawesome.com License - https://fontawesome.com/license (Commercial License) Copyright 2022 Fonticons, Inc. --><path d="M32.3 196.1L32 64l72 16 24 64 96.8 26.9L176 0h80L375.7 212.9l104.6 29.1c16.7 4.6 32.2 12.6 45.7 23.4l34.1 27.3c23.8 19.1 17.9 56.8-10.6 67.6c-41.5 15.8-87 18-129.8 6.4L120.7 285.4 32.3 196.1zM32 448H608h32v64H608 32 0V448H32zm160-80c0 17.7-14.3 32-32 32s-32-14.3-32-32s14.3-32 32-32s32 14.3 32 32zm64 48c-17.7 0-32-14.3-32-32s14.3-32 32-32s32 14.3 32 32s-14.3 32-32 32z"/></svg>