<svg xmlns="http://www.w3.org/2000/svg" viewBox="0 0 576 512"><!--! Font Awesome Pro 6.2.0 by @fontawesome - https://fontawesome.com License - https://fontawesome.com/license (Commercial License) Copyright 2022 Fonticons, Inc. --><path d="M512 128c-35.3 0-64-28.7-64-64s28.7-64 64-64s64 28.7 64 64s-28.7 64-64 64zM448 288c0 123.7-100.3 224-224 224S0 411.7 0 288S100.3 64 224 64s224 100.3 224 224zM256 114.9c-10.4-1.9-21.1-2.9-32-2.9c-86.3 0-158 62.1-173.1 144H128l64 64v64h32v72h40l56-104V288H208l-32-32 80-96V114.9z"/></svg>