<svg xmlns="http://www.w3.org/2000/svg" viewBox="0 0 512 512"><!--! Font Awesome Pro 6.2.0 by @fontawesome - https://fontawesome.com License - https://fontawesome.com/license (Commercial License) Copyright 2022 Fonticons, Inc. --><path d="M288 120c0-30.9 25.1-56 56-56s56 25.1 56 56v13c-29.3 10-48 34.5-48 70.1c0 29.3 35.8 79.4 80 116.9c44.2-37.5 80-88 80-116.9c0-35.6-18.7-60.2-48-70.1V120C464 53.7 410.3 0 344 0S224 53.7 224 120v21.8C207.3 133 188.2 128 168 128c-66.3 0-120 53.7-120 120v13c-29.3 10-48 34.5-48 70.1C0 360.4 35.8 410.5 80 448c44.2-37.5 80-88 80-116.9c0-35.6-18.7-60.2-48-70.1V248c0-30.9 25.1-56 56-56s56 25.1 56 56v32V480v32h64V480 280 248 120z"/></svg>