<svg xmlns="http://www.w3.org/2000/svg" viewBox="0 0 512 512"><!--! Font Awesome Pro 6.2.0 by @fontawesome - https://fontawesome.com License - https://fontawesome.com/license (Commercial License) Copyright 2022 Fonticons, Inc. --><path d="M400 32c44.2 0 80 35.8 80 80v32H464c-44.2 0-80-35.8-80-80V32h16zM56 64h48 24v48H104 56 32V64H56zM24 136H136h24v48H136 24 0V136H24zm8 72H56h48 24v48H104 56 32V208zM272 32h16c44.2 0 80 35.8 80 80v32H352c-44.2 0-80-35.8-80-80V32zm-96 0c44.2 0 80 35.8 80 80v32H240c-44.2 0-80-35.8-80-80V32h16zM480 176v32c0 44.2-35.8 80-80 80H384V256c0-44.2 35.8-80 80-80h16zm-128 0h16v32c0 44.2-35.8 80-80 80H272V256c0-44.2 35.8-80 80-80zm-96 0v32c0 44.2-35.8 80-80 80H160V256c0-44.2 35.8-80 80-80h16zM96 444C40.8 429.8 0 379.6 0 320H512c0 59.6-40.8 109.8-96 124v36H96V444z"/></svg>