<svg xmlns="http://www.w3.org/2000/svg" viewBox="0 0 576 512"><!--! Font Awesome Pro 6.2.0 by @fontawesome - https://fontawesome.com License - https://fontawesome.com/license (Commercial License) Copyright 2022 Fonticons, Inc. --><path d="M128 0H64V32v96h64V32 0zM320 0H256V32v96h64V32 0zM32 160H0v64H32v32c0 77.4 55 142 128 156.8V512h64V412.8c12.3-2.5 24.1-6.4 35.1-11.5c-2.1-10.8-3.1-21.9-3.1-33.3c0-80.6 54.1-148.5 128-169.4V160H352 32zM576 368c0-79.5-64.5-144-144-144s-144 64.5-144 144s64.5 144 144 144s144-64.5 144-144zm-64 16H496l-128 0-16 0V352l16 0H496h16v32z"/></svg>