<svg xmlns="http://www.w3.org/2000/svg" viewBox="0 0 640 512"><!--! Font Awesome Pro 6.2.0 by @fontawesome - https://fontawesome.com License - https://fontawesome.com/license (Commercial License) Copyright 2022 Fonticons, Inc. --><path d="M128 48c0-26.5-21.5-48-48-48S32 21.5 32 48s21.5 48 48 48s48-21.5 48-48zM576 96v32H480V96h96zM288 32H224V96v32 64h64H576h64V128 96 32H576 288zM576 384v32H352V384H576zM288 320H224v64 32 64h64H576h64V416 384 320H576 288zM160 224l-32-96H32L0 224H160zM128 336c0-26.5-21.5-48-48-48s-48 21.5-48 48s21.5 48 48 48s48-21.5 48-48zm32 176l-32-96H32L0 512H160z"/></svg>