<svg xmlns="http://www.w3.org/2000/svg" viewBox="0 0 448 512"><!--! Font Awesome Pro 6.2.0 by @fontawesome - https://fontawesome.com License - https://fontawesome.com/license (Commercial License) Copyright 2022 Fonticons, Inc. --><path d="M208 0c64 0 112 43 112 96c0 11.2-1.9 22-5.5 32H320c35.3 0 64 28.7 64 64c0 12.7-3.7 24.6-10.1 34.5c42.5 9.9 74.1 48 74.1 93.5v88H336V336H272.5L320 225.2H260.1L80 351.3V408H0V320c0-45.5 31.6-83.6 74.1-93.5C67.7 216.6 64 204.7 64 192c0-35.3 28.7-64 64-64h32C272 96 208 0 208 0zM112 400V368L272 256 224 368h80v32L144 512l32-112H112z"/></svg>