<svg xmlns="http://www.w3.org/2000/svg" viewBox="0 0 512 512"><!--! Font Awesome Pro 6.2.0 by @fontawesome - https://fontawesome.com License - https://fontawesome.com/license (Commercial License) Copyright 2022 Fonticons, Inc. --><path d="M256 48c0 44.2-35.8 80-80 80H165.5 160c-35.3 0-64 28.7-64 64c0 19.1 8.4 36.3 21.7 48H104c-39.8 0-72 32.2-72 72c0 25.6 13.4 48.2 33.6 60.9C27.5 385.6 0 421.6 0 464v48H512V464c0-42.4-27.5-78.4-65.6-91.1C466.6 360.2 480 337.6 480 312c0-39.8-32.2-72-72-72H394.3c13.3-11.7 21.7-28.9 21.7-48c0-35.3-28.7-64-64-64h-5.5c3.5-10 5.5-20.8 5.5-32c0-53-43-96-96-96c-5.1 0-10.2 .4-15.1 1.2C250.4 14.3 256 30.5 256 48zM192 320c-17.7 0-32-14.3-32-32s14.3-32 32-32s32 14.3 32 32s-14.3 32-32 32zm160-32c0 17.7-14.3 32-32 32s-32-14.3-32-32s14.3-32 32-32s32 14.3 32 32zM256 448c-64 0-96-64-96-64H352s-32 64-96 64z"/></svg>