<svg xmlns="http://www.w3.org/2000/svg" viewBox="0 0 512 512"><!--! Font Awesome Pro 6.2.0 by @fontawesome - https://fontawesome.com License - https://fontawesome.com/license (Commercial License) Copyright 2022 Fonticons, Inc. --><path d="M512 256c0 141.4-114.6 256-256 256S0 397.4 0 256S114.6 0 256 0S512 114.6 512 256zM384 192c0-70.7-57.3-128-128-128s-128 57.3-128 128s57.3 128 128 128s128-57.3 128-128zm-80-48c0 11.5-4 22-10.7 30.2C304.8 184.5 312 199.4 312 216c0 30.9-25.1 56-56 56s-56-25.1-56-56c0-16.6 7.2-31.5 18.7-41.8C212 166 208 155.5 208 144c0-26.5 21.5-48 48-48s48 21.5 48 48zm-48 16c8.8 0 16-7.2 16-16s-7.2-16-16-16s-16 7.2-16 16s7.2 16 16 16zm24 56c0-13.3-10.7-24-24-24s-24 10.7-24 24s10.7 24 24 24s24-10.7 24-24z"/></svg>