<svg xmlns="http://www.w3.org/2000/svg" viewBox="0 0 640 512"><!--! Font Awesome Pro 6.2.0 by @fontawesome - https://fontawesome.com License - https://fontawesome.com/license (Commercial License) Copyright 2022 Fonticons, Inc. --><path d="M112 24V0H64V24c0 45.1 21.2 69 37.7 87.5l.4 .4C117.5 129.3 128 141.5 128 168v24h48V168c0-45.1-21.2-69-37.7-87.5l-.4-.4C122.5 62.7 112 50.5 112 24zm112 0V0H176V24c0 45.1 21.2 69 37.7 87.5l.4 .4C229.5 129.3 240 141.5 240 168v24h48V168c0-45.1-21.2-69-37.7-87.5l-.4-.4C234.5 62.7 224 50.5 224 24zm208 88c-50.7 0-93.6 33.7-107.4 80H539.4c-13.8-46.3-56.6-80-107.4-80zM576 224H64l1.9 32H48 16v64H48 72.4C87.1 387.5 132.1 443.2 192 472.9V512H448V472.9c59.9-29.7 104.9-85.4 119.6-152.9H592h32V256H592 574.1l1.9-32z"/></svg>