<svg xmlns="http://www.w3.org/2000/svg" viewBox="0 0 640 512"><!--! Font Awesome Pro 6.2.0 by @fontawesome - https://fontawesome.com License - https://fontawesome.com/license (Commercial License) Copyright 2022 Fonticons, Inc. --><path d="M96 0H368h13.3l9.4 9.4 48 48 9.4 9.4V80v80H384V93.3L354.7 64H128v96H64V32 0H96zM0 192H352c-38.9 29.2-64 75.7-64 128c0 11 1.1 21.7 3.2 32H128v16 16 64H352c26.7 20.1 60 32 96 32v32H416 96 64V480 384H0V192zM448 400.2c44.2 0 80-35.8 80-80s-35.8-80-80-80s-80 35.8-80 80s35.8 80 80 80zm0 48c-70.7 0-128-57.3-128-128s57.3-128 128-128s128 57.3 128 128c0 26.7-8.2 51.4-22.1 71.9l63 62.6 17 16.9-33.8 34-17-16.9L520 426c-20.5 14-45.3 22.1-72 22.1z"/></svg>