<svg xmlns="http://www.w3.org/2000/svg" viewBox="0 0 640 512"><!--! Font Awesome Pro 6.2.0 by @fontawesome - https://fontawesome.com License - https://fontawesome.com/license (Commercial License) Copyright 2022 Fonticons, Inc. --><path d="M160 0H128V32 76.6L48.4 14.8 29.4 .1 0 38 19 52.7 591.5 497.2l19 14.7L639.9 474l-19-14.7-97-75.3H576V192H276.6L192 126.3V64H418.7L448 93.3V160h64V80 66.7l-9.4-9.4-48-48L445.3 0H432 160zM64 192V384h64v96 32h32H480h32V499.4L446.8 448H192V384 368 352H324.9L121.8 192H64zM496 296c-13.3 0-24-10.7-24-24s10.7-24 24-24s24 10.7 24 24s-10.7 24-24 24z"/></svg>