<svg xmlns="http://www.w3.org/2000/svg" viewBox="0 0 640 512"><!--! Font Awesome Pro 6.2.0 by @fontawesome - https://fontawesome.com License - https://fontawesome.com/license (Commercial License) Copyright 2022 Fonticons, Inc. --><path d="M440 24V0H392V24v80 24h48V104 24zM281 39l-17-17L230.1 56l17 17 56 56 17 17L353.9 112 337 95 281 39zM585 73l17-17L568 22.1 551 39 495 95l-17 17L512 145.9l17-17 56-56zm55 119H512c-26.7-20.1-60-32-96-32s-69.3 11.9-96 32H0V448H64l16 64h64l16-64H320c26.7 20.1 60 32 96 32c24.4 0 47.5-5.5 68.2-15.2L496 512h64l16-64h64V192zM416 416c-53 0-96-43-96-96s43-96 96-96s96 43 96 96s-43 96-96 96zM128 320c0 17.7-14.3 32-32 32s-32-14.3-32-32s14.3-32 32-32s32 14.3 32 32zm64 32c-17.7 0-32-14.3-32-32s14.3-32 32-32s32 14.3 32 32s-14.3 32-32 32z"/></svg>