<svg xmlns="http://www.w3.org/2000/svg" viewBox="0 0 512 512"><!--! Font Awesome Pro 6.2.0 by @fontawesome - https://fontawesome.com License - https://fontawesome.com/license (Commercial License) Copyright 2022 Fonticons, Inc. --><path d="M304 0H512V208H432v16c0 17.7-14.3 32-32 32s-32-14.3-32-32V208l-64 0V144h32c17.7 0 32-14.3 32-32s-14.3-32-32-32H304V0zM0 272V64H208v64h16c17.7 0 32 14.3 32 32s-14.3 32-32 32H208v80H144V240c0-17.7-14.3-32-32-32s-32 14.3-32 32v32H0zM0 512V304H208v64H176c-17.7 0-32 14.3-32 32s14.3 32 32 32h32v80H0zM240 304h64v32c0 17.7 14.3 32 32 32s32-14.3 32-32V304h80V512H240V304z"/></svg>