<svg xmlns="http://www.w3.org/2000/svg" viewBox="0 0 640 512"><!--! Font Awesome Pro 6.2.0 by @fontawesome - https://fontawesome.com License - https://fontawesome.com/license (Commercial License) Copyright 2022 Fonticons, Inc. --><path d="M256 144c0-17.8 12.9-33.3 32-41.6V64H128V224H89.6c-8.3-19.1-23.8-32-41.6-32c-26.5 0-48 28.7-48 64s21.5 64 48 64c17.8 0 33.3-12.9 41.6-32H128V448H288V409.6c-19.1-8.3-32-23.8-32-41.6c0-26.5 28.7-48 64-48s64 21.5 64 48c0 17.8-12.9 33.3-32 41.6V448H512V288h38.4c8.3 19.1 23.8 32 41.6 32c26.5 0 48-28.7 48-64s-21.5-64-48-64c-17.8 0-33.3 12.9-41.6 32H512V64H352v38.4c19.1 8.3 32 23.8 32 41.6c0 26.5-28.7 48-64 48s-64-21.5-64-48z"/></svg>