<svg xmlns="http://www.w3.org/2000/svg" viewBox="0 0 576 512"><!--! Font Awesome Pro 6.2.0 by @fontawesome - https://fontawesome.com License - https://fontawesome.com/license (Commercial License) Copyright 2022 Fonticons, Inc. --><path d="M88 0C39.4 0 0 39.4 0 88v8 72 72H144V96H64V88c0-13.3 10.7-24 24-24h8 32V0H96 88zM264 0c-48.6 0-88 39.4-88 88v8 72 72H320V96H240V88c0-13.3 10.7-24 24-24h8 32V0H272h-8zM488 512c48.6 0 88-39.4 88-88v-8V344 272H432V416h80v8c0 13.3-10.7 24-24 24h-8H448v64h32 8zm-176 0c48.6 0 88-39.4 88-88v-8V344 272H256V416h80v8c0 13.3-10.7 24-24 24h-8H272v64h32 8z"/></svg>