<svg xmlns="http://www.w3.org/2000/svg" viewBox="0 0 512 512"><!--! Font Awesome Pro 6.2.0 by @fontawesome - https://fontawesome.com License - https://fontawesome.com/license (Commercial License) Copyright 2022 Fonticons, Inc. --><path d="M311.9 128h24c1-23.7-2.8-47.2-11-69.2c7.6-17.8 18.6-34.2 32.7-48.3L368 0l24 8 3 11.9c10.4 41.6 3.3 85.1-18.6 120.8L448 199.1V288H352v10.3l78 210.6 1.2 3.1H362.9L317.7 390.1 265.6 448H288h32v64H288 208 160 128 96V471.2C85.8 481.6 71.7 488 56 488c-30.9 0-56-25.1-56-56s25.1-56 56-56c17.4 0 33 8 43.3 20.5C114 317.7 176.8 255.9 256 242.7V153.8c-29.7-37.6-42.4-86.4-34-134.4L224 8l32-8 10.4 10.3C298 41.7 314.1 84.6 311.9 128zM368 224c8.8 0 16-7.2 16-16s-7.2-16-16-16s-16 7.2-16 16s7.2 16 16 16z"/></svg>