<svg xmlns="http://www.w3.org/2000/svg" viewBox="0 0 640 512"><!--! Font Awesome Pro 6.2.0 by @fontawesome - https://fontawesome.com License - https://fontawesome.com/license (Commercial License) Copyright 2022 Fonticons, Inc. --><path d="M480 32l-24 0-4.7 16.5c-3.2 11.2-5 22.5-5.6 33.8c23.5 20.8 41.5 47.4 51.9 77.7H471.9c-18-44.5-55.4-79-102.1-93L360 64 328 80l7.1 19.7c13.5 37.5 39.5 68.4 72.9 88.2v26.8L303.7 154.9C272.8 137.3 237.8 128 202.2 128c-32.3 0-62.2 16.8-78.9 44.4C113 159.9 97.4 152 80 152c-30.9 0-56 25.1-56 56s25.1 56 56 56c11.3 0 21.8-3.3 30.6-9.1c4.9 17.2 14.5 33.1 28.4 45.9L290.4 439.6l9.2 8.4H312 440h32V384H440 376 359.2 344V340.5c0-42.9-28.4-80.5-69.6-92.3l-30.8-8.8 8.8-30.8 30.8 8.8c55 15.7 92.8 65.9 92.8 123.1v15.7l56-32.4 6.4-3.7H600V231.1l-71-57.9c8-48.9-7.6-99.1-42.8-135L480 32zM184.1 408.4l-26.8 17.5 35 53.6L219.1 462l28.2-18.4-48.7-44.6-14.5 9.5zM536 240c0 8.8-7.2 16-16 16s-16-7.2-16-16s7.2-16 16-16s16 7.2 16 16z"/></svg>