<svg xmlns="http://www.w3.org/2000/svg" viewBox="0 0 512 512"><!--! Font Awesome Pro 6.2.0 by @fontawesome - https://fontawesome.com License - https://fontawesome.com/license (Commercial License) Copyright 2022 Fonticons, Inc. --><path d="M485.7 55.3L509 49.6 497.6 3 474.3 8.7l-456 112L0 125.2V128v16V304v24V512H512V128H189.8l296-72.7zM368 400c-44.2 0-80-35.8-80-80s35.8-80 80-80s80 35.8 80 80s-35.8 80-80 80zM80 240H96h96 16v32H192 96 80V240zM64 304H80 208h16v32H208 80 64V304zm16 64H96h96 16v32H192 96 80V368z"/></svg>