<svg xmlns="http://www.w3.org/2000/svg" viewBox="0 0 512 512"><!--! Font Awesome Pro 6.2.0 by @fontawesome - https://fontawesome.com License - https://fontawesome.com/license (Commercial License) Copyright 2022 Fonticons, Inc. --><path d="M485.7 55.3L509 49.6 497.6 3 474.3 8.7l-456 112L0 125.2V128v16V304v24V512H512V128H189.8l296-72.7zM448 384c0 35.3-28.7 64-64 64s-64-28.7-64-64s28.7-64 64-64s64 28.7 64 64zM80 336H208h16v32H208 80 64V336H80zm16 64h96 16v32H192 96 80V400H96zM64 192H96 416h32v64H416 96 64V192z"/></svg>