<svg xmlns="http://www.w3.org/2000/svg" viewBox="0 0 448 512"><!--! Font Awesome Pro 6.2.0 by @fontawesome - https://fontawesome.com License - https://fontawesome.com/license (Commercial License) Copyright 2022 Fonticons, Inc. --><path d="M107.9 105.9C100.1 116.8 96 130 96 143.4c0 35.3 28.7 64.6 64 64.6s64-29.2 64-64.6c0-13.4-4.1-26.6-11.9-37.5L160 32l-52.1 73.9zm-96 192C4.1 308.8 0 322 0 335.4C0 370.8 28.7 400 64 400s64-29.2 64-64.6c0-13.4-4.1-26.6-11.9-37.5L64 224 11.9 297.9zM320 128L211.7 293.5c-12.8 19.6-19.7 42.6-19.7 66C192 426 246 480 312.5 480h15C394 480 448 426 448 359.5c0-23.4-6.8-46.4-19.7-66L320 128z"/></svg>