<svg xmlns="http://www.w3.org/2000/svg" viewBox="0 0 640 512"><!--! Font Awesome Pro 6.2.0 by @fontawesome - https://fontawesome.com License - https://fontawesome.com/license (Commercial License) Copyright 2022 Fonticons, Inc. --><path d="M336 64v8V96h48V72 64c0-8.8 7.2-16 16-16s16 7.2 16 16V96l-10.3 10.3-55.2 23.6-22.1 9.5 18.9 44.1 22.1-9.5 14.5-6.2V320H576V167.8l14.5 6.2 22.1 9.5 18.9-44.1-22.1-9.5-55.1-23.6L544 96V64c0-8.8 7.2-16 16-16s16 7.2 16 16v8V96h48V72 64c0-35.3-28.7-64-64-64s-64 28.7-64 64H464c0-35.3-28.7-64-64-64s-64 28.7-64 64zm-49.5 58.6l30.8-13.2C309.3 83.1 284.9 64 256 64c-19.2 0-36.5 8.5-48.2 21.9C196.9 77.2 183 72 168 72c-30.1 0-55.3 20.8-62.2 48.8c-3.2-.5-6.5-.8-9.8-.8c-35.3 0-64 28.7-64 64c0 5.3 .7 10.5 1.9 15.5C13.7 210.3 0 231.5 0 256s13.7 45.7 33.9 56.5c-1.2 5-1.9 10.2-1.9 15.5c0 35.3 28.7 64 64 64c.5 0 1 0 1.5 0L120 512h88V426.3c11.7 13.3 28.9 21.7 48 21.7s36.3-8.4 48-21.7V512h88l22.5-120c.5 0 1 0 1.5 0c26.9 0 49.9-16.5 59.3-40H352V216.4l-21.4 9.2L286.5 122.6zM464 192c-8.8 0-16-7.2-16-16s7.2-16 16-16s16 7.2 16 16s-7.2 16-16 16zm80-16c0 8.8-7.2 16-16 16s-16-7.2-16-16s7.2-16 16-16s16 7.2 16 16z"/></svg>