<svg xmlns="http://www.w3.org/2000/svg" viewBox="0 0 576 512"><!--! Font Awesome Pro 6.2.0 by @fontawesome - https://fontawesome.com License - https://fontawesome.com/license (Commercial License) Copyright 2022 Fonticons, Inc. --><path d="M192 64h96V56 32h48V56 296v24H288V296v-8L176 512 48 448l80-160H112C50.1 288 0 237.9 0 176C0 131.3 26.2 92.8 64 74.8V0L192 64zm224 0V88v56h64l96-48V256l-96-48H416v56 24H368V264 88 64h48zM136 176c0-13.3-10.7-24-24-24s-24 10.7-24 24s10.7 24 24 24s24-10.7 24-24zm72 24c13.3 0 24-10.7 24-24s-10.7-24-24-24s-24 10.7-24 24s10.7 24 24 24z"/></svg>