<svg xmlns="http://www.w3.org/2000/svg" viewBox="0 0 640 512"><!--! Font Awesome Pro 6.2.0 by @fontawesome - https://fontawesome.com License - https://fontawesome.com/license (Commercial License) Copyright 2022 Fonticons, Inc. --><path d="M640 32H0V480H640V32zM80 160h24 56c35.3 0 64 28.7 64 64s-28.7 64-64 64H128v40 24H80V328 264 184 160zm48 80h32c8.8 0 16-7.2 16-16s-7.2-16-16-16H128v32zm272 8c0-48.6 39.4-88 88-88s88 39.4 88 88v16c0 48.6-39.4 88-88 88s-88-39.4-88-88V248zm88-40c-22.1 0-40 17.9-40 40v16c0 22.1 17.9 40 40 40s40-17.9 40-40V248c0-22.1-17.9-40-40-40zM264 160h56c35.3 0 64 28.7 64 64c0 21.9-11 41.2-27.7 52.7l24.1 38.5 23 36.7H346.7l-7-11.3-33-52.7H288v40 24H240V328 264 184 160h24zm56 80c8.8 0 16-7.2 16-16s-7.2-16-16-16H288v32h32z"/></svg>