<svg xmlns="http://www.w3.org/2000/svg" viewBox="0 0 576 512"><!--! Font Awesome Pro 6.2.0 by @fontawesome - https://fontawesome.com License - https://fontawesome.com/license (Commercial License) Copyright 2022 Fonticons, Inc. --><path d="M576 32H0V480H576V32zM368 280c0 13.3 10.7 24 24 24s24-10.7 24-24s-10.7-24-24-24s-24 10.7-24 24zm24-72c8.4 0 16.5 1.4 24 4.1V184 160h48v24 96 48 24H416v-4.1c-7.5 2.7-15.6 4.1-24 4.1c-39.8 0-72-32.2-72-72s32.2-72 72-72zM192.3 160H208h4 16.1l6.1 14.8L307.4 352H255.4l-9.9-24h-74l-10.4 24H108.8L186 174.4l6.3-14.4zm.2 120h33.3l-16.2-39.2L192.4 280z"/></svg>