<svg xmlns="http://www.w3.org/2000/svg" viewBox="0 0 640 512"><!--! Font Awesome Pro 6.2.0 by @fontawesome - https://fontawesome.com License - https://fontawesome.com/license (Commercial License) Copyright 2022 Fonticons, Inc. --><path d="M320 368c0 59.5 29.5 112.1 74.8 144L0 512V160l512 0v32.7c-5.3-.5-10.6-.7-16-.7c-97.2 0-176 78.8-176 176zM464 80v48L48 128V80l416 0zM416 0V48L96 48V0H416zm80 512c-79.5 0-144-64.5-144-144s64.5-144 144-144s144 64.5 144 144s-64.5 144-144 144zm16-208V288H480v16 48H432 416v32h16 48v48 16h32V432 384h48 16V352H560 512V304z"/></svg>