<svg xmlns="http://www.w3.org/2000/svg" viewBox="0 0 640 512"><!--! Font Awesome Pro 6.2.0 by @fontawesome - https://fontawesome.com License - https://fontawesome.com/license (Commercial License) Copyright 2022 Fonticons, Inc. --><path d="M320 368c0 59.5 29.5 112.1 74.8 144L0 512V160l512 0v32.7c-5.3-.5-10.6-.7-16-.7c-97.2 0-176 78.8-176 176zM464 80v48L48 128V80l416 0zM416 0V48L96 48V0H416zM640 368c0 79.5-64.5 144-144 144s-144-64.5-144-144s64.5-144 144-144s144 64.5 144 144zm-63.3 77.7L552 416H440l-24.7 29.7c20.4 21.2 49 34.3 80.7 34.3s60.3-13.2 80.7-34.3zM544 336c0-26.5-21.5-48-48-48s-48 21.5-48 48s21.5 48 48 48s48-21.5 48-48z"/></svg>