<svg xmlns="http://www.w3.org/2000/svg" viewBox="0 0 512 512"><!--! Font Awesome Pro 6.2.0 by @fontawesome - https://fontawesome.com License - https://fontawesome.com/license (Commercial License) Copyright 2022 Fonticons, Inc. --><path d="M256 512c141.4 0 256-114.6 256-256S397.4 0 256 0S0 114.6 0 256S114.6 512 256 512zM160 128h24H288c44.2 0 80 35.8 80 80c0 37.8-26.3 69.5-61.6 77.9L369.1 384h-57l-61.3-96H208v72 24H160V360 264 152 128zm48 112h56 24c17.7 0 32-14.3 32-32s-14.3-32-32-32H208v64z"/></svg>