<svg xmlns="http://www.w3.org/2000/svg" viewBox="0 0 640 512"><!--! Font Awesome Pro 6.2.0 by @fontawesome - https://fontawesome.com License - https://fontawesome.com/license (Commercial License) Copyright 2022 Fonticons, Inc. --><path d="M640 144c0 79.5-64.5 144-144 144s-144-64.5-144-144S416.5 0 496 0s144 64.5 144 144zM512 64H480V80v64 16h16 48 16V128H544 512V80 64zM224 160h96.7c8.1 89.7 83.5 160 175.3 160c5.1 0 10.2-.2 15.2-.6c.5 5.5 .8 11 .8 16.6c0 128-128 176-128 176s32-32 32-80c0-61.9-50.1-112-112-112H224v96H192L0 240 192 64h32v96z"/></svg>