<svg xmlns="http://www.w3.org/2000/svg" viewBox="0 0 640 512"><!--! Font Awesome Pro 6.2.0 by @fontawesome - https://fontawesome.com License - https://fontawesome.com/license (Commercial License) Copyright 2022 Fonticons, Inc. --><path d="M0 192C0 103.6 71.6 32 160 32H384c88.4 0 160 71.6 160 160v64H0V192zm127.8-64l-15.7 32-36.3 4.6 26.5 24.4L95.7 224l32.1-16.9L160 224l-6.7-34.9 26.5-24.4L143.6 160l-15.7-32zm159.7 32l-15.7-32-15.7 32-36.3 4.6 26.5 24.4L239.7 224l32.1-16.9L304 224l-6.7-34.9 26.5-24.4L287.6 160zm128.3-32l-15.7 32-36.3 4.6 26.5 24.4L383.7 224l32.1-16.9L448 224l-6.7-34.9 26.5-24.4L431.6 160l-15.7-32zM128 288H320h96 32 64 32v32 80c0 8.8 7.2 16 16 16s16-7.2 16-16V352 320h64v32 48c0 44.2-35.8 80-80 80s-80-35.8-80-80V352H448v32 96H320V384H128v96H0V384 288H128z"/></svg>