<svg xmlns="http://www.w3.org/2000/svg" viewBox="0 0 640 512"><!--! Font Awesome Pro 6.2.0 by @fontawesome - https://fontawesome.com License - https://fontawesome.com/license (Commercial License) Copyright 2022 Fonticons, Inc. --><path d="M192 64c0-35.3-28.7-64-64-64S64 28.7 64 64s28.7 64 64 64s64-28.7 64-64zm32 96H32L24 352H64V512H192V352h40l-8-192zM344 0H296V24 488v24h48V488 24 0zM512 128c35.3 0 64-28.7 64-64s-28.7-64-64-64s-64 28.7-64 64s28.7 64 64 64zM640 384L576 160H448L384 384h64V512H576V384h64z"/></svg>