<svg xmlns="http://www.w3.org/2000/svg" viewBox="0 0 640 512"><!--! Font Awesome Pro 6.2.0 by @fontawesome - https://fontawesome.com License - https://fontawesome.com/license (Commercial License) Copyright 2022 Fonticons, Inc. --><path d="M176 48c0 26.5-21.5 48-48 48s-48-21.5-48-48s21.5-48 48-48s48 21.5 48 48zM53.4 128H76.9 179.1h23.5l7 22.5 44.9 144-54.5 17V480v32H136V480 352H120V480v32H56V480 311.5l-54.5-17 44.9-144 7-22.5zM344 0V24 488v24H296V488 24 0h48zM560 48c0 26.5-21.5 48-48 48s-48-21.5-48-48s21.5-48 48-48s48 21.5 48 48zM437.4 128h23.5H563.1h23.5l7 22.5 44.9 144L598.3 307 624 384H584v96 32H520V480 384H504v96 32H440V480 384H400l25.7-77-40.2-12.5 44.9-144 7-22.5z"/></svg>