<svg xmlns="http://www.w3.org/2000/svg" viewBox="0 0 512 512"><!--! Font Awesome Pro 6.2.0 by @fontawesome - https://fontawesome.com License - https://fontawesome.com/license (Commercial License) Copyright 2022 Fonticons, Inc. --><path d="M64 189c.5-.5 1.1-1 1.7-1.5c6.9-6.1 18.1-14.7 33.9-23.5c31.4-17.4 82.1-36 156.5-36s125.1 18.5 156.5 36c15.8 8.8 26.9 17.4 33.9 23.5c.6 .5 1.1 1 1.7 1.5v19 19c-.5 .5-1.1 1-1.7 1.5c-2.1 1.8-4.5 3.9-7.4 6.1C399.5 212.8 339.7 192 256 192s-143.5 20.8-182.9 42.6c-2.8-2.2-5.3-4.3-7.4-6.1c-.6-.5-1.1-1-1.7-1.5V208 189zm192 99c-57.8 0-101.2-11.2-132.5-24.3C155.5 250.7 199 240 256 240s100.5 10.7 132.5 23.7C357.2 276.8 313.8 288 256 288zm256-80V176 164.8l-7-8.8-25 20c25-20 25-20 25-20l0 0-.1-.1-.1-.2-.3-.4c-.3-.3-.6-.7-1-1.2c-.8-.9-1.9-2.1-3.2-3.5c-2.7-2.9-6.5-6.7-11.5-11.1c-10.1-8.9-24.9-20.3-45.1-31.5C402.9 85.5 341.6 64 256 64s-146.9 21.5-187.5 44c-20.2 11.2-35.1 22.6-45.1 31.5c-5 4.4-8.9 8.2-11.5 11.1c-1.3 1.4-2.4 2.6-3.2 3.5c-.4 .5-.7 .8-1 1.2l-.3 .4-.1 .2-.1 .1 0 0c0 0 0 0 25 20L7 156l-7 8.8V176v32 32 11.2V336v11.2L7 356l25-20C7 356 7 356 7 356l0 0 .1 .1 .1 .2 .3 .4c.3 .3 .6 .7 1 1.2c.8 .9 1.9 2.1 3.2 3.5c2.7 2.9 6.5 6.7 11.5 11.1c10.1 8.9 24.9 20.3 45.1 31.5c40.6 22.6 101.9 44 187.5 44s146.9-21.5 187.5-44c20.2-11.2 35.1-22.6 45.1-31.5c5-4.4 8.9-8.2 11.5-11.1c1.3-1.4 2.4-2.6 3.2-3.5c.4-.5 .7-.8 1-1.2l.3-.4 .1-.2 .1-.1 0 0c0 0 0 0-25-20l25 20 7-8.8V336 251.2 240 208z"/></svg>