<svg xmlns="http://www.w3.org/2000/svg" viewBox="0 0 640 512"><!--! Font Awesome Pro 6.2.0 by @fontawesome - https://fontawesome.com License - https://fontawesome.com/license (Commercial License) Copyright 2022 Fonticons, Inc. --><path d="M160 32H288V96v32h64V96 32H480l46.5 162.6c-9.9-1.7-20.1-2.6-30.5-2.6c-59.5 0-112.1 29.6-144 74.8V224 192H288v32 64 32h38.6c-4.3 15.3-6.6 31.4-6.6 48c0 5.4 .2 10.7 .7 16H288v32 64H32L160 32zM496 512c-79.5 0-144-64.5-144-144s64.5-144 144-144s144 64.5 144 144s-64.5 144-144 144zm16-64V416H480v32h32zm0-176H480v16 80 16h32V368 288 272z"/></svg>