<svg xmlns="http://www.w3.org/2000/svg" viewBox="0 0 640 512"><!--! Font Awesome Pro 6.2.0 by @fontawesome - https://fontawesome.com License - https://fontawesome.com/license (Commercial License) Copyright 2022 Fonticons, Inc. --><path d="M160 32H288V96v32h64V96 32H480l46.5 162.6c-9.9-1.7-20.1-2.6-30.5-2.6c-59.5 0-112.1 29.6-144 74.8V224 192H288v32 64 32h38.6c-4.3 15.3-6.6 31.4-6.6 48c0 5.4 .2 10.7 .7 16H288v32 64H32L160 32zM640 368c0 79.5-64.5 144-144 144s-144-64.5-144-144s64.5-144 144-144s144 64.5 144 144zm-65.4-32L552 313.4l-11.3 11.3L480 385.4l-28.7-28.7L440 345.4 417.4 368l11.3 11.3 40 40L480 430.6l11.3-11.3 72-72L574.6 336z"/></svg>