<svg xmlns="http://www.w3.org/2000/svg" viewBox="0 0 640 512"><!--! Font Awesome Pro 6.2.0 by @fontawesome - https://fontawesome.com License - https://fontawesome.com/license (Commercial License) Copyright 2022 Fonticons, Inc. --><path d="M64 64V32H0V64 448v32H64V448 266.3L149.2 96H64V64zm576 0V32H576V64v53.7L490.8 288H576V448v32h64V448 64zM330.8 96l-5.4 10.7L234.8 288h74.3l5.4-10.7L405.2 96H330.8zM437.2 288l5.4-10.7L533.2 96H458.8l-5.4 10.7L362.8 288h74.3zM277.2 96H202.8l-5.4 10.7L106.8 288h74.3l5.4-10.7L277.2 96z"/></svg>