<svg xmlns="http://www.w3.org/2000/svg" viewBox="0 0 640 512"><!--! Font Awesome Pro 6.2.0 by @fontawesome - https://fontawesome.com License - https://fontawesome.com/license (Commercial License) Copyright 2022 Fonticons, Inc. --><path d="M352 0V32 96H544V512H96V96H288V32 0h64zM208 384H192v32h16 32 16V384H240 208zm96 0H288v32h16 32 16V384H336 304zm96 0H384v32h16 32 16V384H432 400zM264 256c0-22.1-17.9-40-40-40s-40 17.9-40 40s17.9 40 40 40s40-17.9 40-40zm152 40c22.1 0 40-17.9 40-40s-17.9-40-40-40s-40 17.9-40 40s17.9 40 40 40zM64 224V416H0V224H64zm576 0V416H576V224h64z"/></svg>