<svg xmlns="http://www.w3.org/2000/svg" viewBox="0 0 512 512"><!--! Font Awesome Pro 6.2.0 by @fontawesome - https://fontawesome.com License - https://fontawesome.com/license (Commercial License) Copyright 2022 Fonticons, Inc. --><path d="M128 128v32H384V128C384 57.3 326.7 0 256 0S128 57.3 128 128zm96 0c-17.7 0-32-14.3-32-32s14.3-32 32-32s32 14.3 32 32s-14.3 32-32 32zm96-16c0 8.8-7.2 16-16 16s-16-7.2-16-16s7.2-16 16-16s16 7.2 16 16zM0 512H128V384l64 64H320l64-64V512H512V480l-48-64V192H48V416L0 480v32zM208 256h96 16v32H304 208 192V256h16zm0 64h96 16v32H304 208 192V320h16z"/></svg>