<svg xmlns="http://www.w3.org/2000/svg" viewBox="0 0 512 512"><!--! Font Awesome Pro 6.2.0 by @fontawesome - https://fontawesome.com License - https://fontawesome.com/license (Commercial License) Copyright 2022 Fonticons, Inc. --><path d="M105.1 202.6c7.7-21.8 20.2-42.3 37.8-59.8c62.5-62.5 163.8-62.5 226.3 0l40 40L352 240l160 0V80l-57.6 57.6-40-40c-87.5-87.5-229.3-87.5-316.8 0C73.2 122 55.6 150.7 44.8 181.4l60.4 21.3zm37.8 166.5l-40-40L160 272H0V432l57.6-57.6 40 40c87.5 87.5 229.3 87.5 316.8 0c24.4-24.4 42.1-53.1 52.9-83.7l-60.4-21.3c-7.7 21.8-20.2 42.3-37.8 59.8c-62.5 62.5-163.8 62.5-226.3 0zM280 128H232v24V264v24h48V264 152 128zM232 320v48h48V320H232z"/></svg>