<svg xmlns="http://www.w3.org/2000/svg" viewBox="0 0 640 512"><!--! Font Awesome Pro 6.2.0 by @fontawesome - https://fontawesome.com License - https://fontawesome.com/license (Commercial License) Copyright 2022 Fonticons, Inc. --><path d="M24 64H56 80V88v64 48 32 48 32 48 64 24H56 24 0V400H24h8V360H24 0V312H24h8V280H24 0V232H24h8V200H24 0V152H24h8V112H24 0V64H24zm88 0H528V448H112V64zm528 0v48H616h-8v40h8 24v48H616h-8v32h8 24v48H616h-8v32h8 24v48H616h-8v40h8 24v48H616 584 560V424 360 312 280 232 200 152 88 64h24 32 24z"/></svg>