<svg xmlns="http://www.w3.org/2000/svg" viewBox="0 0 512 512"><!--! Font Awesome Pro 6.2.0 by @fontawesome - https://fontawesome.com License - https://fontawesome.com/license (Commercial License) Copyright 2022 Fonticons, Inc. --><path d="M208.9 37.1C274.5 12.8 357.6 6.5 461.5 23.8l21.6 3.6 4.4 21.5c17.5 84.8 18.6 211.3-41.6 309.5c-30.6 50-76.8 92-142.9 116.5c-65.6 24.3-148.7 30.7-252.6 13.3l-21.6-3.6-4.4-21.5C6.9 378.3 5.8 251.8 66 153.6c30.6-50 76.8-92 142.9-116.5zM379.3 155.3L390.6 144 368 121.4l-11.3 11.3L304 185.4l-20.7-20.7L272 153.4 249.4 176l11.3 11.3L281.4 208 256 233.4l-20.7-20.7L224 201.4 201.4 224l11.3 11.3L233.4 256 208 281.4l-20.7-20.7L176 249.4 153.4 272l11.3 11.3L185.4 304l-52.7 52.7L121.4 368 144 390.6l11.3-11.3L208 326.6l20.7 20.7L240 358.6 262.6 336l-11.3-11.3L230.6 304 256 278.6l20.7 20.7L288 310.6 310.6 288l-11.3-11.3L278.6 256 304 230.6l20.7 20.7L336 262.6 358.6 240l-11.3-11.3L326.6 208l52.7-52.7z"/></svg>