<svg xmlns="http://www.w3.org/2000/svg" viewBox="0 0 512 512"><!--! Font Awesome Pro 6.2.0 by @fontawesome - https://fontawesome.com License - https://fontawesome.com/license (Commercial License) Copyright 2022 Fonticons, Inc. --><path d="M0 32H32h80c79.5 0 144 64.5 144 144c0 59.6-36.2 110.7-87.8 132.6l54.3 169.6 .6 1.8H155.8L104.6 320H64V480H0V288 64 32zM64 256h48c44.2 0 80-35.8 80-80s-35.8-80-80-80H64V256zm224-96h32 80c61.9 0 112 50.1 112 112s-50.1 112-112 112H352V512H288V352 192 160zm64 160h48c26.5 0 48-21.5 48-48s-21.5-48-48-48H352v96z"/></svg>