<svg xmlns="http://www.w3.org/2000/svg" viewBox="0 0 640 512"><!--! Font Awesome Pro 6.2.0 by @fontawesome - https://fontawesome.com License - https://fontawesome.com/license (Commercial License) Copyright 2022 Fonticons, Inc. --><path d="M224 0H384V32H608V160H384V416H254.4c1 5.2 1.6 10.5 1.6 16c0 44.2-35.8 80-80 80s-80-35.8-80-80c0-5.5 .6-10.8 1.6-16H96L0 320V32H224V0zm32 128H96v96H256V128zM208 432c0-17.7-14.3-32-32-32s-32 14.3-32 32s14.3 32 32 32s32-14.3 32-32zm288 32c17.7 0 32-14.3 32-32c0-6.6-2-12.8-5.5-17.9C516.8 405.6 507 400 496 400c-11.8 0-22.2 6.4-27.7 16c-2.7 4.7-4.3 10.2-4.3 16c0 17.7 14.3 32 32 32zm-80-48V400 320 288 216 192h24 88 8.6l6.6 5.4 88 72 8.8 7.2V288v32 96H574.4c1 5.2 1.6 10.5 1.6 16c0 44.2-35.8 80-80 80s-80-35.8-80-80V416zM578.1 288l-58.7-48H464v48H578.1z"/></svg>