<svg xmlns="http://www.w3.org/2000/svg" viewBox="0 0 512 512"><!--! Font Awesome Pro 6.2.0 by @fontawesome - https://fontawesome.com License - https://fontawesome.com/license (Commercial License) Copyright 2022 Fonticons, Inc. --><path d="M192 96H320L384 0H128l64 96zm128 32H192c-3.8 2.5-8.1 5.3-13 8.4l0 0 0 0C122.3 172.7 0 250.9 0 416v96H96 416h96V416c0-165.1-122.3-243.3-179-279.6c-4.8-3.1-9.2-5.9-13-8.4zM222.1 336l-55-55L201 247l55 55 55-55L345 281l-55 55 55 55L311 425l-55-55-55 55L167 391l55-55z"/></svg>