<svg xmlns="http://www.w3.org/2000/svg" viewBox="0 0 512 512"><!--! Font Awesome Pro 6.2.0 by @fontawesome - https://fontawesome.com License - https://fontawesome.com/license (Commercial License) Copyright 2022 Fonticons, Inc. --><path d="M0 64H512V176H0V64zM320 384l96-48h32 64V448H0V336H192h32l96 48zM144.2 209.1L256 238.9l111.8-29.8c5.2-1.4 10.7-1.4 16-.1l96 24 31 7.8-15.5 62.1-31-7.8-88-22-112 29.9c-5.4 1.4-11.1 1.4-16.5 0L135.7 273l-88 22-31 7.8L1.2 240.7l31-7.8 96-24c5.3-1.3 10.8-1.3 16 .1z"/></svg>