<svg xmlns="http://www.w3.org/2000/svg" viewBox="0 0 640 512"><!--! Font Awesome Pro 6.2.0 by @fontawesome - https://fontawesome.com License - https://fontawesome.com/license (Commercial License) Copyright 2022 Fonticons, Inc. --><path d="M246.7 176L171.4 306.1c-2.2 3.8-3.4 8.2-3.4 12.6v2.6c0 12.5 10.1 22.6 22.6 22.6c6 0 11.8-2.4 16-6.6L319 225l-8-8-17-17L328 166.1l17 17 8 8L367 177l-8-8-17-17L376 118.1l17 17 8 8L415 129l-8-8-17-17L424 70.1l17 17 8 8 63-63h80l48 32V96H544L288.6 418.6C257.9 457.4 211.2 480 161.8 480C72.4 480 0 407.6 0 318.2v-3.1c0-12.7 1.5-25.4 4.4-37.8L28.2 176H24 0V128H24 264h24v48H264 246.7zM120 320c0-13.3-10.7-24-24-24s-24 10.7-24 24s10.7 24 24 24s24-10.7 24-24zm8-72c13.3 0 24-10.7 24-24s-10.7-24-24-24s-24 10.7-24 24s10.7 24 24 24z"/></svg>