<svg xmlns="http://www.w3.org/2000/svg" viewBox="0 0 640 512"><!--! Font Awesome Pro 6.2.0 by @fontawesome - https://fontawesome.com License - https://fontawesome.com/license (Commercial License) Copyright 2022 Fonticons, Inc. --><path d="M105.6 .1s-89.6 72.5-89.6 134.4c0 14.7 2.8 28.7 7.9 41.5H79.5c-4.8-8-7.5-17.8-7.5-29c0-16.8 10.5-31.5 31.5-57.4c2.8 3.5 43.4 55.3 43.4 55.3l25.2-29.4c2.1 2.8 3.5 5.6 4.9 8.4c9.1 16.7 8.7 36.7-.2 52.1h55.2c5.1-12.8 7.9-26.8 7.9-41.5c0-51.5-67.2-112-67.2-112s-9.7 8.7-21.7 22.4C128.4 18.6 105.6 .1 105.6 .1zm65.8 338L218.9 256H232h24V208H232 24 0v48H16.9L4.4 309.4C1.5 321.8 0 334.4 0 347.1v3.1C0 439.6 72.4 512 161.8 512c49.4 0 96.1-22.6 126.8-61.4L544 128h96V96L592 64H512l-63 63-8-8-17-17L390.1 136l17 17 8 8L401 175l-8-8-17-17L342.1 184l17 17 8 8L353 223l-8-8-17-17L294.1 232l17 17 8 8L206.6 369.4c-4.2 4.2-10 6.6-16 6.6c-12.5 0-22.6-10.1-22.6-22.6v-2.6c0-4.4 1.2-8.8 3.4-12.6zM96 280c0-13.3 10.7-24 24-24s24 10.7 24 24s-10.7 24-24 24s-24-10.7-24-24zM88 392c-13.3 0-24-10.7-24-24s10.7-24 24-24s24 10.7 24 24s-10.7 24-24 24z"/></svg>