<svg xmlns="http://www.w3.org/2000/svg" viewBox="0 0 640 512"><!--! Font Awesome Pro 6.2.0 by @fontawesome - https://fontawesome.com License - https://fontawesome.com/license (Commercial License) Copyright 2022 Fonticons, Inc. --><path d="M384 32H512h32V96H512 398.4c-5.2 25.8-22.9 47.1-46.4 57.3V448H512h32v64H512 320 128 96V448h32H288V153.3c-23.5-10.3-41.2-31.6-46.4-57.3H128 96V32h32H256c14.6-19.4 37.8-32 64-32s49.4 12.6 64 32zM112 128h32 14.5l6.7 12.9 88 168 2.7 5.2V320l0 32 0 9.9-7 7-40 40-7 7H192 64 54.1l-7-7L7 369l-7-7V352 320v-5.9l2.7-5.2 88-168L97.5 128H112zM51.1 320H204.9L129.5 176h-3L51.1 320zM481.5 128H496h32 14.5l6.7 12.9 88 168 2.7 5.2V320v32 9.9l-7 7-40 40-7 7H576 448h-9.9l-7-7-40-40-7-7V352 320v-5.9l2.7-5.2 88-168 6.7-12.9zm29 48L435.1 320H588.9L513.5 176h-3z"/></svg>