<svg xmlns="http://www.w3.org/2000/svg" viewBox="0 0 640 512"><!--! Font Awesome Pro 6.2.0 by @fontawesome - https://fontawesome.com License - https://fontawesome.com/license (Commercial License) Copyright 2022 Fonticons, Inc. --><path d="M388.9 39.3l113-37.7 20.2 60.7-125.9 42c-7 22-23.3 39.9-44.2 49V448H512h32v64H512 320 288V480 153.3c-5.1-2.2-9.9-5-14.4-8.2L138.1 190.4l-30.4 10.1L87.5 139.8l30.4-10.1L240.5 88.8c-.3-2.9-.5-5.8-.5-8.8c0-44.2 35.8-80 80-80c29.3 0 55 15.8 68.9 39.3zM112 224h32 14.5l6.7 12.9 88 168 2.7 5.2V416l0 32 0 9.9-7 7-40 40-7 7H192 64 54.1l-7-7L7 465l-7-7V448 416v-5.9l2.7-5.2 88-168L97.5 224H112zM51.1 416H204.9L129.5 272h-3L51.1 416zM481.5 96H496h32 14.5l6.7 12.9 88 168 2.7 5.2V288v32 9.9l-7 7-40 40-7 7H576 448h-9.9l-7-7-40-40-7-7V320 288v-5.9l2.7-5.2 88-168L481.5 96zm29 48L435.1 288H588.9L513.5 144h-3z"/></svg>