<svg xmlns="http://www.w3.org/2000/svg" viewBox="0 0 640 512"><!--! Font Awesome Pro 6.2.0 by @fontawesome - https://fontawesome.com License - https://fontawesome.com/license (Commercial License) Copyright 2022 Fonticons, Inc. --><path d="M251.1 39.3L138.1 1.6 117.9 62.4l125.9 42c7 22 23.3 39.9 44.2 49V448H128 96v64h32H320h32V480 153.3c5.1-2.2 9.9-5 14.4-8.2l135.5 45.2 30.4 10.1 20.2-60.7-30.4-10.1L399.5 88.8c.3-2.9 .5-5.8 .5-8.8c0-44.2-35.8-80-80-80c-29.3 0-55 15.8-68.9 39.3zM528 224H496 481.5l-6.7 12.9-88 168-2.7 5.2V416l0 32v9.9l7 7 40 40 7 7H448 576h9.9l7-7 40-40 7-7V448 416v-5.9l-2.7-5.2-88-168L542.5 224H528zm60.9 192H435.1l75.4-144h3l75.4 144zM158.5 96H144 112 97.5l-6.7 12.9-88 168L0 282.1V288v32 9.9l7 7 40 40 7 7H64 192h9.9l7-7 40-40 7-7V320 288v-5.9l-2.7-5.2-88-168L158.5 96zm-29 48l75.4 144H51.1l75.4-144h3z"/></svg>