<svg xmlns="http://www.w3.org/2000/svg" viewBox="0 0 576 512"><!--! Font Awesome Pro 6.2.0 by @fontawesome - https://fontawesome.com License - https://fontawesome.com/license (Commercial License) Copyright 2022 Fonticons, Inc. --><path d="M495.7 115.6L352 288H160L396.2 22.2C408.8 8.1 426.8 0 445.8 0C482.3 0 512 29.7 512 66.2v4.2c0 16.5-5.8 32.5-16.3 45.1zM0 512L176 320H288C288 496 0 512 0 512zm240-32h64 16v32H304 240 224V480h16zm128 0h64 16v32H432 368 352V480h16zm128 0h64 16v32H560 496 480V480h16z"/></svg>