<svg xmlns="http://www.w3.org/2000/svg" viewBox="0 0 512 512"><!--! Font Awesome Pro 6.2.0 by @fontawesome - https://fontawesome.com License - https://fontawesome.com/license (Commercial License) Copyright 2022 Fonticons, Inc. --><path d="M184 0h-8.7l-4.7 7.3-72 112-2.5 4V128v80 6.6l4.7 4.7 176 176 112 112 22.6-22.6L310.6 384 336 358.6 436.7 459.3l22.6-22.6L358.6 336 384 310.6 484.7 411.3l22.6-22.6-112-112L384 265.4l-9.4-9.4L256 137.4 214.6 96H256h41.4l-18.7 18.7L397.3 233.4l14.1-14.1 4.7-4.7V208 128v-4.7l-2.5-4-72-112L336.7 0H328 184zM4.7 388.7l22.6 22.6 112-112-22.6-22.6-112 112zm48 48l22.6 22.6 112-112-22.6-22.6-112 112zm48 48l22.6 22.6 112-112-22.6-22.6-112 112z"/></svg>