<svg xmlns="http://www.w3.org/2000/svg" viewBox="0 0 448 512"><!--! Font Awesome Pro 6.2.0 by @fontawesome - https://fontawesome.com License - https://fontawesome.com/license (Commercial License) Copyright 2022 Fonticons, Inc. --><path d="M320 96c0 11.2-1.9 22-5.5 32H432l-16 32 32 32-32 32 16 32H320l32 160-64-32-64 32-64-32L96 416l32-160H16l16-32L0 192l32-32L16 128H133.5c-3.5-10-5.5-20.8-5.5-32c0-53 43-96 96-96s96 43 96 96zM208 80c0-8.8-7.2-16-16-16s-16 7.2-16 16s7.2 16 16 16s16-7.2 16-16zm48 32c8.8 0 16-7.2 16-16s-7.2-16-16-16s-16 7.2-16 16s7.2 16 16 16zM192 480V435.8l17.7 8.8 14.3 7.2 14.3-7.2 17.7-8.8V480v32H192V480z"/></svg>