<svg xmlns="http://www.w3.org/2000/svg" viewBox="0 0 576 512"><!--! Font Awesome Pro 6.2.0 by @fontawesome - https://fontawesome.com License - https://fontawesome.com/license (Commercial License) Copyright 2022 Fonticons, Inc. --><path d="M320 0h96V80H320V95.5L410.3 160H544h32v32V480v32H544 336V400c0-26.5-21.5-48-48-48s-48 21.5-48 48V512H32 0V480 192 160H32 165.7L256 95.5V32 0h32 32zm16 240c0-26.5-21.5-48-48-48s-48 21.5-48 48s21.5 48 48 48s48-21.5 48-48zM128 224H64v96h64V224zm320 0v96h64V224H448zM128 352H64v96h64V352zm384 0H448v96h64V352z"/></svg>