<svg xmlns="http://www.w3.org/2000/svg" viewBox="0 0 640 512"><!--! Font Awesome Pro 6.2.0 by @fontawesome - https://fontawesome.com License - https://fontawesome.com/license (Commercial License) Copyright 2022 Fonticons, Inc. --><path d="M640 512H384V416c0-35.3-28.7-64-64-64s-64 28.7-64 64v96H0V96H160L320 0 480 96H640V512zM144 192H80v96h64V192zm352 0v96h64V192H496zM144 320H80v96h64V320zm352 0v96h64V320H496zM408 176c0-48.6-39.4-88-88-88s-88 39.4-88 88s39.4 88 88 88s88-39.4 88-88zm-72-48v16 16h16 16v32H352 320 304V176 144 128h32z"/></svg>