<svg xmlns="http://www.w3.org/2000/svg" viewBox="0 0 640 512"><!--! Font Awesome Pro 6.2.0 by @fontawesome - https://fontawesome.com License - https://fontawesome.com/license (Commercial License) Copyright 2022 Fonticons, Inc. --><path d="M384 288l0 64H320c-35.3 0-64 28.7-64 64v96H0V96H160L320 0 480 96H640V272c0-61.9-50.1-112-112-112s-112 50.1-112 112v16H384zM80 192v96h64V192H80zm0 128v96h64V320H80zm240-56c48.6 0 88-39.4 88-88s-39.4-88-88-88s-88 39.4-88 88s39.4 88 88 88zm16-120v16h16 16v32H352 320 304V176 144 128h32v16zm192 96c-17.7 0-32 14.3-32 32v48h64V272c0-17.7-14.3-32-32-32zm-80 32c0-44.2 35.8-80 80-80s80 35.8 80 80v48h32V512H416V320h32V272z"/></svg>