<svg xmlns="http://www.w3.org/2000/svg" viewBox="0 0 640 512"><!--! Font Awesome Pro 6.2.0 by @fontawesome - https://fontawesome.com License - https://fontawesome.com/license (Commercial License) Copyright 2022 Fonticons, Inc. --><path d="M640 512H597.2l0 0H640v0zm-245.2 0l0 0H384v0h10.8zM576 211.2c25.6 13.1 47.6 32.2 64 55.6V96H480L320 0 160 96H0V512H256V416c0-35.3 28.7-64 64-64h0v0h.7c3.4-37.7 18.7-72.1 42.2-99.1C350.2 260 335.6 264 320 264c-48.6 0-88-39.4-88-88s39.4-88 88-88s88 39.4 88 88c0 18.3-5.6 35.3-15.1 49.4c16.5-11.9 35.1-21.1 55.1-26.8V160H576v51.2zM144 192v96H80V192h64zm0 128v96H80V320h64zM336 128H304v16 32 16h16 32 16V160H352 336V144 128zM640 368c0-79.5-64.5-144-144-144s-144 64.5-144 144s64.5 144 144 144s144-64.5 144-144zm-65.4-32l-11.3 11.3-72 72L480 430.6l-11.3-11.3-40-40L417.4 368 440 345.4l11.3 11.3L480 385.4l60.7-60.7L552 313.4 574.6 336z"/></svg>