<svg xmlns="http://www.w3.org/2000/svg" viewBox="0 0 512 512"><!--! Font Awesome Pro 6.2.0 by @fontawesome - https://fontawesome.com License - https://fontawesome.com/license (Commercial License) Copyright 2022 Fonticons, Inc. --><path d="M160 112c0-26.5-21.5-48-48-48s-48 21.5-48 48s21.5 48 48 48s48-21.5 48-48zm-7.5 104.5c-12.6 4.9-26.2 7.5-40.5 7.5C50.1 224 0 173.9 0 112S50.1 0 112 0s112 50.1 112 112c0 14.3-2.7 27.9-7.5 40.5L256 192 416 32h64l32 32L216.5 359.5c4.9 12.6 7.5 26.2 7.5 40.5c0 61.9-50.1 112-112 112S0 461.9 0 400s50.1-112 112-112c14.3 0 27.9 2.7 40.5 7.5L192 256l-39.5-39.5zM278.6 342.6l64-64L512 448l-32 32H416L278.6 342.6zM112 352c-26.5 0-48 21.5-48 48s21.5 48 48 48s48-21.5 48-48s-21.5-48-48-48z"/></svg>