<svg xmlns="http://www.w3.org/2000/svg" viewBox="0 0 576 512"><!--! Font Awesome Pro 6.2.0 by @fontawesome - https://fontawesome.com License - https://fontawesome.com/license (Commercial License) Copyright 2022 Fonticons, Inc. --><path d="M512 96H64V199.1C43.4 194.5 22 192 0 192V96 32H64 512h64V96 416v64H512 288c0-22-2.5-43.4-7.1-64H512V96zM0 272V224c141.4 0 256 114.6 256 256H208c0-114.9-93.1-208-208-208zM32 480c-17.7 0-32-14.3-32-32s14.3-32 32-32s32 14.3 32 32s-14.3 32-32 32zm80 0c0-61.9-50.1-112-112-112V320c88.4 0 160 71.6 160 160H112z"/></svg>