<svg xmlns="http://www.w3.org/2000/svg" viewBox="0 0 640 512"><!--! Font Awesome Pro 6.2.0 by @fontawesome - https://fontawesome.com License - https://fontawesome.com/license (Commercial License) Copyright 2022 Fonticons, Inc. --><path d="M32 0H64 576h32V32 248.4c-17-15.2-39.4-24.4-64-24.4V64H96V224c-24.6 0-47 9.2-64 24.4V32 0zM160 320c0 35.3-28.7 64-64 64s-64-28.7-64-64s28.7-64 64-64s64 28.7 64 64zm224 0c0 35.3-28.7 64-64 64s-64-28.7-64-64s28.7-64 64-64s64 28.7 64 64zm160 64c-35.3 0-64-28.7-64-64s28.7-64 64-64s64 28.7 64 64s-28.7 64-64 64zM416 512H224l32-96H384l32 96zM32 416H160l32 96H0l32-96zm608 96H448l32-96H608l32 96z"/></svg>