<svg xmlns="http://www.w3.org/2000/svg" viewBox="0 0 640 512"><!--! Font Awesome Pro 6.2.0 by @fontawesome - https://fontawesome.com License - https://fontawesome.com/license (Commercial License) Copyright 2022 Fonticons, Inc. --><path d="M96 0H0V512H96V0zM512 32H128V480H512V32zM544 0V512h96V0H544zM187.1 332l10.5-18 33.8-58-33.8-58-10.5-18H208h67.8l33.9-58L320 104.2l10.4 17.8 33.9 58H432h20.9l-10.5 18-33.8 58 33.8 58 10.5 18H432 364.2l-33.9 58L320 407.8 309.6 390l-33.9-58H208 187.1zM320 360.2L336.4 332H303.6L320 360.2zM259.2 256l30.3 52h60.9l30.3-52-30.3-52H289.6l-30.3 52zm135.4 23.8L378.2 308h32.9l-16.4-28.2zM411.1 204H378.2l16.4 28.2L411.1 204zM320 151.8L303.6 180h32.9L320 151.8zM228.9 204l16.4 28.2L261.8 204H228.9zm32.9 104l-16.4-28.2L228.9 308h32.9z"/></svg>