<svg xmlns="http://www.w3.org/2000/svg" viewBox="0 0 576 512"><!--! Font Awesome Pro 6.2.0 by @fontawesome - https://fontawesome.com License - https://fontawesome.com/license (Commercial License) Copyright 2022 Fonticons, Inc. --><path d="M48 32c26.5 0 48 21.5 48 48v80H48 0V80C0 53.5 21.5 32 48 32zm80 48c0-18-6-34.6-16-48H384c53 0 96 43 96 96l-32 32 32 32v16 16l-32 32 32 32v16 16H272 256v16 48c0 35.3-28.7 64-64 64s-64-28.7-64-64V272 256l32-32-32-32V176 80zM576 368c0 61.9-50.1 112-112 112H368 192c53 0 96-43 96-96V352h48 16l32 32 32-32h16H576v16z"/></svg>