<svg xmlns="http://www.w3.org/2000/svg" viewBox="0 0 512 512"><!--! Font Awesome Pro 6.2.0 by @fontawesome - https://fontawesome.com License - https://fontawesome.com/license (Commercial License) Copyright 2022 Fonticons, Inc. --><path d="M256 0l75 75H437V181l75 75-75 75V437H331l-75 75-75-75H75V331L0 256l75-75V75H181L256 0zM168 184v6.5l48 0 0-6.5c0-4.4 3.6-8 8-8h56.9c8.4 0 15.1 6.8 15.1 15.1c0 5.4-2.9 10.4-7.6 13.1l-44.3 25.4L232 236.6v13.9V272v24h48V272v-7.6l32.3-18.5c19.6-11.3 31.7-32.2 31.7-54.8c0-34.9-28.3-63.1-63.1-63.1H224c-30.9 0-56 25.1-56 56zm64 152v48h48V336H232z"/></svg>