<svg xmlns="http://www.w3.org/2000/svg" viewBox="0 0 640 512"><!--! Font Awesome Pro 6.2.0 by @fontawesome - https://fontawesome.com License - https://fontawesome.com/license (Commercial License) Copyright 2022 Fonticons, Inc. --><path d="M0 32H448V480H0V32zM112 96H64v24V264v24h48V264 120 96zm96 0H160v24V264v24h48V264 120 96zm389.3 12l-48 32-20 13.3-26.6-39.9 20-13.3 48-32 20-13.3 26.6 39.9-20 13.3zM536 232h80 24v48H616 536 512V232h24zm13.3 140l48 32 20 13.3-26.6 39.9-20-13.3-48-32-20-13.3 26.6-39.9 20 13.3z"/></svg>