<svg xmlns="http://www.w3.org/2000/svg" viewBox="0 0 512 512"><!--! Font Awesome Pro 6.2.0 by @fontawesome - https://fontawesome.com License - https://fontawesome.com/license (Commercial License) Copyright 2022 Fonticons, Inc. --><path d="M256 5.7l11.5 4.4L475 90.2l19.2 7.4 1.2 20.6c2.9 49.7-4.9 125.6-37.3 199.8C425.4 392.8 367 467.1 268.6 509.4L256 514.8l-12.6-5.4C145 467.1 86.6 392.8 53.9 318C21.4 243.7 13.6 167.8 16.6 118.1l1.2-20.6L37 90.2l207.5-80L256 5.7zM160.9 286.2L144 320l128 64V320h48c44.2 0 80-35.8 80-80V192H320l-16-32H240v64c0 35.3-28.7 64-64 64c-5.2 0-10.3-.6-15.1-1.8zM144 160v64c0 17.7 14.3 32 32 32s32-14.3 32-32V192 160h-8H144zm144 48c0 8.8-7.2 16-16 16s-16-7.2-16-16s7.2-16 16-16s16 7.2 16 16z"/></svg>