<svg xmlns="http://www.w3.org/2000/svg" viewBox="0 0 512 512"><!--! Font Awesome Pro 6.2.0 by @fontawesome - https://fontawesome.com License - https://fontawesome.com/license (Commercial License) Copyright 2022 Fonticons, Inc. --><path d="M267.5 10.1L256 5.7l-11.5 4.4L37 90.2 17.8 97.6l-1.2 20.6C13.6 167.8 21.4 243.7 53.9 318C86.6 392.8 145 467.1 243.4 509.4l12.6 5.4 12.6-5.4C367 467.1 425.4 392.8 458.1 318c32.5-74.2 40.3-150.2 37.3-199.8l-1.2-20.6L475 90.2l-207.5-80zM224 86.6l32-12.3 32 12.3V160H431.3c-1.2 19.4-4.2 41.2-9.4 64H288V426.8c-10 6.5-20.7 12.5-32 18c-11.3-5.5-22-11.5-32-18V224H90.1c-5.2-22.8-8.2-44.6-9.4-64H224V86.6z"/></svg>