<svg xmlns="http://www.w3.org/2000/svg" viewBox="0 0 512 512"><!--! Font Awesome Pro 6.2.0 by @fontawesome - https://fontawesome.com License - https://fontawesome.com/license (Commercial License) Copyright 2022 Fonticons, Inc. --><path d="M256 5.7l11.5 4.4L475 90.2l19.2 7.4 1.2 20.6c2.9 49.7-4.9 125.6-37.3 199.8C425.4 392.8 367 467.1 268.6 509.4L256 514.8l-12.6-5.4C145 467.1 86.6 392.8 53.9 318C21.4 243.7 13.6 167.8 16.6 118.1l1.2-20.6L37 90.2l207.5-80L256 5.7zM224 208l-64-64V272c0 53 43 96 96 96s96-43 96-96V144l-64 64H224zm-8 80c-8.8 0-16-7.2-16-16s7.2-16 16-16s16 7.2 16 16s-7.2 16-16 16zm96-16c0 8.8-7.2 16-16 16s-16-7.2-16-16s7.2-16 16-16s16 7.2 16 16z"/></svg>