<svg xmlns="http://www.w3.org/2000/svg" viewBox="0 0 576 512"><!--! Font Awesome Pro 6.2.0 by @fontawesome - https://fontawesome.com License - https://fontawesome.com/license (Commercial License) Copyright 2022 Fonticons, Inc. --><path d="M192 0H384V64h64 32V96 240l96 32L441.4 395.3c-5.5 3.6-10.9 6.6-16.7 9.3C411.6 410.7 397 415 384 415s-27.6-4.3-40.7-10.3c-12-5.5-21.7-12.5-35.5-22.5l0 0 0 0L288 368l-18.6 13.4-1.1 .8c-13.9 10-23.6 17-35.5 22.5C219.6 410.7 205 415 192 415s-27.6-4.3-40.7-10.3c-5.9-2.7-11.2-5.7-16.7-9.3L0 272l96-32V96 64h32 64V0zM160 218.7L288 176l128 42.7V128H160v90.7zM272.4 493.1c-19.8 9-48.5 18.9-80.4 18.9s-60.6-9.9-80.4-18.9c-5.8-2.7-11.1-5.3-15.6-7.7c-4.5 2.4-9.7 5.1-15.6 7.7C60.6 502.1 31.9 512 0 512V448c19.3 0 38.6-6.1 54-13.1c14.9-6.8 26.9-15.4 40-24.7c.7-.5 1.4-1 2.1-1.5c.7 .5 1.4 1 2.1 1.5c13.1 9.3 25.1 17.9 40 24.7c15.4 7 34.7 13.1 54 13.1s38.6-6.1 54-13.1c14.9-6.8 26.9-15.4 40-24.7c.7-.5 1.4-1 2.1-1.5c.7 .5 1.4 1 2.1 1.5c13.1 9.3 25.1 18 40 24.7c15.4 7 34.7 13.1 54 13.1s38.6-6.1 54-13.1c14.9-6.8 26.9-15.4 40-24.7c.7-.5 1.4-1 2.1-1.5c.7 .5 1.4 1 2.1 1.5c13.1 9.3 25.1 18 40 24.7c15.4 7 34.7 13.1 54 13.1v64c-31.9 0-60.6-9.9-80.4-18.9c-5.8-2.7-11.1-5.3-15.6-7.7c-4.5 2.4-9.7 5.1-15.6 7.7c-19.8 9-48.5 18.9-80.4 18.9s-60.6-9.9-80.4-18.9c-5.8-2.7-11.1-5.3-15.6-7.7c-4.5 2.4-9.7 5.1-15.6 7.7z"/></svg>