<svg xmlns="http://www.w3.org/2000/svg" viewBox="0 0 512 512"><!--! Font Awesome Pro 6.2.0 by @fontawesome - https://fontawesome.com License - https://fontawesome.com/license (Commercial License) Copyright 2022 Fonticons, Inc. --><path d="M16 32H0V48v96 16H16 65c3.7 88.9 77 160 167 160h56V128H264 88.8 32V64H464h16V32H464 16zM320 320h18.3c9.9 0 19.1 3.2 26.6 8.5l133.5-92.4C471.8 172.6 409.1 128 336 128H320V320zm62.8 35.1c.8 3.4 1.2 7 1.2 10.6c0 4.6-.7 9-1.9 13.1L472.6 415c24.6-30.3 39.4-68.9 39.4-111c0-12.3-1.3-24.3-3.7-35.9L382.8 355.1zm-21.2 50c-3 1.8-6.2 3.2-9.6 4.3v69.9c36.4-3.3 69.5-17.6 96.1-39.6l-86.5-34.6zM320 407.8l-64.1-22.4L224 374.2V408v48 24h24 72V407.8zM216 192c0 13.3-10.7 24-24 24s-24-10.7-24-24s10.7-24 24-24s24 10.7 24 24z"/></svg>