<svg xmlns="http://www.w3.org/2000/svg" viewBox="0 0 512 512"><!--! Font Awesome Pro 6.2.0 by @fontawesome - https://fontawesome.com License - https://fontawesome.com/license (Commercial License) Copyright 2022 Fonticons, Inc. --><path d="M320 0V48H304 263L250.6 87.1l-31.3 99.2L176 208l-40 80 27 27 71.9-71.9L281.1 96.8 286.4 80H304 408h24v24V208v17.6l-16.8 5.3L268.8 277.1 197 349l27 27 80-40 21.6-43.3 99.2-31.3L464 249V208 192h48v96L240 416l-36.7 36.7-144-144L96 272 224 0h96zM36.7 331.3l144 144-6.9 6.9c-19.1 19.1-45 29.8-72 29.8C45.6 512 0 466.4 0 410.2c0-27 10.7-52.9 29.8-72l6.9-6.9z"/></svg>