<svg xmlns="http://www.w3.org/2000/svg" viewBox="0 0 640 512"><!--! Font Awesome Pro 6.2.0 by @fontawesome - https://fontawesome.com License - https://fontawesome.com/license (Commercial License) Copyright 2022 Fonticons, Inc. --><path d="M192 128c0-17.7 14.3-32 32-32s32 14.3 32 32v7.8c0 27.7-2.4 55.3-7.1 82.5l-130 39L96 264.2V288 448v32h32 64 18.6l9.2-16.1 25.5-44.7c26.8-47 46.5-97.7 58.4-150.5l94.4-28.3-12.5 37.5-14 42.1H416 544h32V256H544 460.4l18-53.9 19.5-58.5-59 17.7L316.4 198.1c2.4-20.7 3.6-41.4 3.6-62.3V128c0-53-43-96-96-96s-96 43-96 96v32 32h64V160 128zM160 311.8l71.8-21.5c-10.4 33.8-24.5 66.4-42.1 97.2L173.4 416H160V311.8zM24 368H0v48H24 64.3c-.2-2.8-.3-5.6-.3-8.5V368H24zm592 48h24V368H616 305.9c-6.7 16.3-14.2 32.3-22.3 48H616z"/></svg>