<svg xmlns="http://www.w3.org/2000/svg" viewBox="0 0 640 512"><!--! Font Awesome Pro 6.2.0 by @fontawesome - https://fontawesome.com License - https://fontawesome.com/license (Commercial License) Copyright 2022 Fonticons, Inc. --><path d="M608 0V32 449.3l12.9 10 19 14.7-29.4 37.9-19-14.7L19 52.7 0 38 29.4 .1l19 14.7L288 200.8V192h64v32 26.5l64 49.7V128 96h64v32V349.9l64 49.7V32 0h64zM480 474.2V480v32H416V480 423.8l64 50.4zM352 373.3V480v32H288V480 322.9l64 50.4zM224 288v32V480v32H160V480 320 288h64zM96 416v64 32H32V480 416 384H96v32z"/></svg>