<svg xmlns="http://www.w3.org/2000/svg" viewBox="0 0 640 512"><!--! Font Awesome Pro 6.2.0 by @fontawesome - https://fontawesome.com License - https://fontawesome.com/license (Commercial License) Copyright 2022 Fonticons, Inc. --><path d="M48.4 14.8L29.4 .1 0 38 19 52.7 591.5 497.2l19 14.7L639.9 474l-19-14.7-59.5-46.2C590.9 367.9 608 313.9 608 256c0-67.4-23.2-129.4-61.9-178.5l-50.2 39.7C526 155.4 544 203.5 544 256c0 43.2-12.2 83.5-33.4 117.7L472.4 344c15-25.9 23.6-56 23.6-88c0-41.2-14.2-79.1-37.9-109.1l-50.2 39.7C423 205.7 432 229.8 432 256c0 17.3-3.9 33.6-10.9 48.2l-46.5-36.1c.9-3.9 1.3-8 1.3-12.1c0-30.9-25.1-56-56-56c-9.1 0-17.7 2.2-25.3 6L48.4 14.8zM32 256c0 67.4 23.2 129.4 61.9 178.5l50.2-39.7C114 356.6 96 308.5 96 256c0-26.1 4.5-51.1 12.6-74.4L56.2 140.3C40.6 175.7 32 214.9 32 256zm112 0c0 41.2 14.2 79.1 37.9 109.1l50.2-39.7c-14.3-18.1-23.2-40.8-24-65.5l-58.9-46.4c-3.4 13.6-5.2 27.8-5.2 42.5z"/></svg>