<svg xmlns="http://www.w3.org/2000/svg" viewBox="0 0 640 512"><!--! Font Awesome Pro 6.2.0 by @fontawesome - https://fontawesome.com License - https://fontawesome.com/license (Commercial License) Copyright 2022 Fonticons, Inc. --><path d="M48.4 14.8L29.4 .1 0 38 19 52.7 591.5 497.2l19 14.7L639.9 474l-19-14.7L565.2 416H616h24V368H616 503.3l-61.8-48H544h32V256H544 460.4l18-53.9 19.5-58.5-59 17.7L316.4 198.1c2.4-20.7 3.6-41.4 3.6-62.3V128c0-53-43-96-96-96c-37.4 0-69.8 21.4-85.7 52.6L48.4 14.8zM192 126.3c.9-16.9 14.8-30.3 32-30.3c17.7 0 32 14.3 32 32v7.8c0 13-.5 26-1.6 39L192 126.3zM355.4 253.2l42.7-12.8L386 276.9l-30.5-23.7zm-236.6 4.2L96 264.2V288 448v32h32 64 18.6l9.2-16.1 25.5-44.7c17.5-30.5 31.9-62.7 43.1-95.9L181.1 238.7l-62.3 18.7zm113 32.9c-10.4 33.8-24.5 66.4-42.1 97.2L173.4 416H160V311.8l71.8-21.5zM24 368H0v48H24 64.3c-.2-2.8-.3-5.6-.3-8.5V368H24z"/></svg>