<svg xmlns="http://www.w3.org/2000/svg" viewBox="0 0 448 512"><!--! Font Awesome Pro 6.2.0 by @fontawesome - https://fontawesome.com License - https://fontawesome.com/license (Commercial License) Copyright 2022 Fonticons, Inc. --><path d="M128 0H96V32 384v32h32H416h32V384 128 114.7l-9.4-9.4-96-96L333.3 0H320 128zm80 144v48H160V144h48zm-48 80h64 96 64v48H320 224 160V224zm224-32H336V144h48v48zm-80-48v48H240V144h64zm80 160v48H336V304h48zm-80 48H240V304h64v48zm-96 0H160V304h48v48zM48 120V96H0v24V488v24H24 360h24V464H360 48V120z"/></svg>