<svg xmlns="http://www.w3.org/2000/svg" viewBox="0 0 512 512"><!--! Font Awesome Pro 6.2.0 by @fontawesome - https://fontawesome.com License - https://fontawesome.com/license (Commercial License) Copyright 2022 Fonticons, Inc. --><path d="M288 96c0-17.7 14.3-32 32-32s32 14.3 32 32v32h64V96c0-53-43-96-96-96s-96 43-96 96V288H160V232 208H136 56 32v48H56h56v32H32 0v64H32 224h64H480h32V288H480 400V256h64 24V208H464 376 352v24 56H288V96zM480 384H32v32c0 53 43 96 96 96H384c53 0 96-43 96-96V384z"/></svg>