<svg xmlns="http://www.w3.org/2000/svg" viewBox="0 0 640 512"><!--! Font Awesome Pro 6.2.0 by @fontawesome - https://fontawesome.com License - https://fontawesome.com/license (Commercial License) Copyright 2022 Fonticons, Inc. --><path d="M69.3 36l48 32 20 13.3-26.6 39.9L90.7 108l-48-32-20-13.3L49.3 22.7 69.3 36zM597.3 76l-48 32-20 13.3L502.7 81.3l20-13.3 48-32 20-13.3 26.6 39.9L597.3 76zM24 192H88h24v48H88 24 0V192H24zm528 0h64 24v48H616 552 528V192h24zM144 352L176 96H464l32 256H234.1l21.8-174 2.2-18H225.9l-1.8 14L201.9 352H144zM96 384H544v96H96V384z"/></svg>