<svg xmlns="http://www.w3.org/2000/svg" viewBox="0 0 512 512"><!--! Font Awesome Pro 6.2.0 by @fontawesome - https://fontawesome.com License - https://fontawesome.com/license (Commercial License) Copyright 2022 Fonticons, Inc. --><path d="M288 0V32 64H416h32v64H416 288v32H480h32v64H480 288v32H416h32v64H416 288v32H448v64l-64 96H128L64 416V352H224V320H96 64V256H96 224V224H32 0V160H32 224V128H96 64V64H96 224V32 0h64zM224 440c0-13.3-10.7-24-24-24s-24 10.7-24 24s10.7 24 24 24s24-10.7 24-24zm112 0c0-13.3-10.7-24-24-24s-24 10.7-24 24s10.7 24 24 24s24-10.7 24-24z"/></svg>