<svg xmlns="http://www.w3.org/2000/svg" viewBox="0 0 640 512"><!--! Font Awesome Pro 6.2.0 by @fontawesome - https://fontawesome.com License - https://fontawesome.com/license (Commercial License) Copyright 2022 Fonticons, Inc. --><path d="M113.3 256L80 416H480V288L366 240H320 304V208h16 52.7l10-48H336 320V128h16 53.3L416 0H352l-6.7 32H288c0 1.1-.1 2.2-.3 3.3l-43.3 208L241.7 256h-13H113.3zm6.7-32h95.7l40-192H160L120 224zM640 416V384H576v32c0 17.7-14.3 32-32 32H32 0v64H32 544c53 0 96-43 96-96z"/></svg>