<svg xmlns="http://www.w3.org/2000/svg" viewBox="0 0 640 512"><!--! Font Awesome Pro 6.2.0 by @fontawesome - https://fontawesome.com License - https://fontawesome.com/license (Commercial License) Copyright 2022 Fonticons, Inc. --><path d="M0 95.5C0 166.1 57.2 224 128 224V128H105c-28.7 0-52.7-21.7-55.6-50.3c-1.6-16 5.3-35.5 11.1-51.8C61.8 22.4 63 19.1 64 16L40 0C19 26.2 0 61 0 95.5zM512 224c70.8 0 128-57.9 128-128.5C640 61 621 26.2 600 0L576 16c1 3.1 2.2 6.4 3.4 9.9l0 0c5.8 16.4 12.7 35.8 11.1 51.8C587.7 106.3 563.7 128 535 128H512v96zM480 96H160V368h60l36 144H384l36-144h60V96zM288 256c0 17.7-14.3 32-32 32s-32-14.3-32-32s14.3-32 32-32s32 14.3 32 32zm96 32c-17.7 0-32-14.3-32-32s14.3-32 32-32s32 14.3 32 32s-14.3 32-32 32z"/></svg>