<svg xmlns="http://www.w3.org/2000/svg" viewBox="0 0 512 512"><!--! Font Awesome Pro 6.2.0 by @fontawesome - https://fontawesome.com License - https://fontawesome.com/license (Commercial License) Copyright 2022 Fonticons, Inc. --><path d="M400 128c0 44.4-25.4 83.5-64 106.4V288H176V234.4c-38.6-23-64-62.1-64-106.4C112 57.3 176.5 0 256 0s144 57.3 144 128zM200 176c17.7 0 32-14.3 32-32s-14.3-32-32-32s-32 14.3-32 32s14.3 32 32 32zm144-32c0-17.7-14.3-32-32-32s-32 14.3-32 32s14.3 32 32 32s32-14.3 32-32zM48.7 245.4l29 13.6L256 343l178.4-84 29-13.6 27.3 57.9-29 13.6L331.1 378.4l130.5 61.4 29 13.6-27.3 57.9-29-13.6L256 413.8l-178.4 84-29 13.6L21.4 453.5l29-13.6 130.5-61.4L50.4 317l-29-13.6 27.3-57.9z"/></svg>