<svg xmlns="http://www.w3.org/2000/svg" viewBox="0 0 512 512"><!--! Font Awesome Pro 6.2.0 by @fontawesome - https://fontawesome.com License - https://fontawesome.com/license (Commercial License) Copyright 2022 Fonticons, Inc. --><path d="M0 384l32 0 32 0 0-48 48 0 64 0 48 0 0 48 256 0 32 0 0 64-32 0-256 0 0 48-48 0-64 0-48 0 0-48-32 0L0 448l0-64zM0 224l32 0 256 0 0-48 48 0 64 0 48 0 0 48 32 0 32 0 0 64-32 0-32 0 0 48-48 0-64 0-48 0 0-48L32 288 0 288l0-64zM32 64l64 0 0-48 48 0 64 0 48 0 0 48 224 0 32 0 0 64-32 0-224 0 0 48-48 0-64 0-48 0 0-48-64 0L0 128 0 64l32 0zm80 384l64 0 0-64-64 0 0 64zM336 224l0 64 64 0 0-64-64 0zM144 128l64 0 0-64-64 0 0 64z"/></svg>