<svg xmlns="http://www.w3.org/2000/svg" viewBox="0 0 512 512"><!--! Font Awesome Pro 6.2.0 by @fontawesome - https://fontawesome.com License - https://fontawesome.com/license (Commercial License) Copyright 2022 Fonticons, Inc. --><path d="M128 0V32 64h48v48 64 48H128V480v32H64V480 224H16V176 112 64H64V32 0h64zM288 0V32 288h48v48 64 48H288v32 32H224V480 448H176V400 336 288h48V32 0h64zM448 32V96h48v48 64 48H448V480v32H384V480 256H336V208 144 96h48V32 0h64V32zM64 112v64h64V112H64zM288 336H224v64h64V336zm96-192v64h64V144H384z"/></svg>