<svg xmlns="http://www.w3.org/2000/svg" viewBox="0 0 640 512"><!--! Font Awesome Pro 6.2.0 by @fontawesome - https://fontawesome.com License - https://fontawesome.com/license (Commercial License) Copyright 2022 Fonticons, Inc. --><path d="M448 0H64V64H448V0zm64 96H0V416H64v96H416h32H592h32V480 211.8c9.8-8.8 16-21.6 16-35.8c0-26.5-21.5-48-48-48s-48 21.5-48 48c0 14.2 6.2 27 16 35.8V448H448V416h64V96zM80 176h72 24v24 8 5.3l-2.2 4.8L119.4 336H66.5l3.7-8.1 48-103.9H80 56V176H80zM263.4 336H210.5l3.7-8.1 48-103.9H224 200V176h24 72 24v24 8 5.3l-2.2 4.8L263.4 336zm144 0H354.5l3.7-8.1 48-103.9H368 344V176h24 72 24v24 8 5.3l-2.2 4.8L407.4 336z"/></svg>