<svg xmlns="http://www.w3.org/2000/svg" viewBox="0 0 640 512"><!--! Font Awesome Pro 6.2.0 by @fontawesome - https://fontawesome.com License - https://fontawesome.com/license (Commercial License) Copyright 2022 Fonticons, Inc. --><path d="M176 288H32V144C32 64.5 96.5 0 176 0c34.5 0 66.1 12.1 90.9 32.3C289.6 12.2 319.4 0 352 0c49.1 0 91.8 27.7 113.2 68.3C475 65.5 485.3 64 496 64c61.9 0 112 50.1 112 112s-50.1 112-112 112H468.7c-22.6 19.9-52.2 32-84.7 32s-62.1-12.1-84.7-32H176zm440 80h24v48H616 280 256V368h24H616zm-64 96h24v48H552 440 416V464h24H552zm-192 0h24v48H360 24 0V464H24 360zM224 368v48H200 96 72V368H96 200h24z"/></svg>