<svg xmlns="http://www.w3.org/2000/svg" viewBox="0 0 448 512"><!--! Font Awesome Pro 6.2.0 by @fontawesome - https://fontawesome.com License - https://fontawesome.com/license (Commercial License) Copyright 2022 Fonticons, Inc. --><path d="M192 0H160V64h32 33.3l-57.6 67.2-7.7 9V152v8 32h32 96 32V128H288 254.7l57.6-67.2 7.7-9V40 32 0H288 192zM320 224H288v64h32 33.3l-57.6 67.2-7.7 9V376v8 32h32 96 32V352H416 382.7l57.6-67.2 7.7-9V264v-8V224H416 320zM32 256H0v64H32h98.7L9.4 441.4 0 450.7V464v16 32H32 192h32V448H192 93.3L214.6 326.6l9.4-9.4V304 288 256H192 32z"/></svg>