<svg xmlns="http://www.w3.org/2000/svg" viewBox="0 0 640 512"><!--! Font Awesome Pro 6.2.0 by @fontawesome - https://fontawesome.com License - https://fontawesome.com/license (Commercial License) Copyright 2022 Fonticons, Inc. --><path d="M512 48h32c53 0 96 43 96 96s-43 96-96 96H416 384V176h32H544c17.7 0 32-14.3 32-32s-14.3-32-32-32H512 480V48h32zM200 64V88v25.4l12.7-12.7L224 89.4 246.6 112l-11.3 11.3L200 158.6v55.8l48.3-27.9 12.9-48.2 4.1-15.5 30.9 8.3-4.1 15.5-4.6 17.3 15-8.7 20.8-12 24 41.6-20.8 12-15 8.7 17.3 4.6 15.5 4.1L336 245.2 320.6 241l-48.2-12.9L224 256l48.3 27.9L320.6 271l15.5-4.1 8.3 30.9-15.5 4.1-17.3 4.6 15 8.7 20.8 12-24 41.6-20.8-12-15-8.7 4.6 17.3 4.1 15.5-30.9 8.3-4.1-15.5-12.9-48.2L200 297.6v55.8l35.3 35.3L246.6 400 224 422.6l-11.3-11.3L200 398.6V424v24H152V424 398.6l-12.7 12.7L128 422.6 105.4 400l11.3-11.3L152 353.4V297.6l-48.3 27.9L90.7 373.7l-4.1 15.5-30.9-8.3 4.1-15.5 4.6-17.3-15 8.7-20.8 12-24-41.6 20.8-12 15-8.7-17.3-4.6L7.7 297.7 16 266.8 31.4 271l48.2 12.9L128 256 79.7 228.1 31.4 241 16 245.2 7.7 214.3l15.5-4.1 17.3-4.6-15-8.7-20.8-12 24-41.6 20.8 12 15 8.7-4.6-17.3-4.1-15.5 30.9-8.3 4.1 15.5 12.9 48.2L152 214.4V158.6l-35.3-35.3L105.4 112 128 89.4l11.3 11.3L152 113.4V88 64h48zM480 464V400h32 24c17.7 0 32-14.3 32-32s-14.3-32-32-32H416 384V272h32H536c53 0 96 43 96 96s-43 96-96 96H512 480z"/></svg>