<svg xmlns="http://www.w3.org/2000/svg" viewBox="0 0 576 512"><!--! Font Awesome Pro 6.2.0 by @fontawesome - https://fontawesome.com License - https://fontawesome.com/license (Commercial License) Copyright 2022 Fonticons, Inc. --><path d="M384 96c0 18.7-5.4 36.2-14.7 51c9.3 9.8 16.8 21.3 22.1 34L440 160.2V120 96h48v24 19.6l22.5-9.7 22.1-9.5 18.9 44.1-22.1 9.5-56 24-73.6 31.5c-.6 11.8-3 23.1-6.9 33.6C426.7 292.6 448 335.8 448 384c0 52.3-25.1 98.8-64 128H192c-38.9-29.2-64-75.7-64-128c0-48.2 21.3-91.4 55.1-120.8c-3.9-10.5-6.3-21.8-6.9-33.6l-73.6-31.5-56-24-22.1-9.5 18.9-44.1 22.1 9.5L88 139.6V120 96h48v24 40.2L184.6 181c5.3-12.7 12.8-24.2 22.1-34c-9.3-14.8-14.7-32.3-14.7-51c0-53 43-96 96-96s96 43 96 96zM304 272H272v32h32V272zm0 96V336H272v32h32zM272 80c0-8.8-7.2-16-16-16s-16 7.2-16 16s7.2 16 16 16s16-7.2 16-16zm48 16c8.8 0 16-7.2 16-16s-7.2-16-16-16s-16 7.2-16 16s7.2 16 16 16zm-48 24v.3c0 2.9 .8 5.8 2.3 8.3L288 152l13.7-23.4c1.5-2.5 2.3-5.4 2.3-8.3V120c0-8.8-7.2-16-16-16s-16 7.2-16 16zm32 88H272v32h32V208z"/></svg>