<svg xmlns="http://www.w3.org/2000/svg" viewBox="0 0 448 512"><!--! Font Awesome Pro 6.2.0 by @fontawesome - https://fontawesome.com License - https://fontawesome.com/license (Commercial License) Copyright 2022 Fonticons, Inc. --><path d="M64 0H384V160H224 64V0zM330.2 192H416h32v64H416 390.3c16.3 28.2 25.7 61 25.7 96c0 66.8-34.1 125.6-85.8 160H117.8C66.1 477.6 32 418.8 32 352c0-35 9.3-67.8 25.7-96H32 0V192H32h85.8H330.2zM152 336c13.3 0 24-10.7 24-24s-10.7-24-24-24s-24 10.7-24 24s10.7 24 24 24zm168-24c0-13.3-10.7-24-24-24s-24 10.7-24 24s10.7 24 24 24s24-10.7 24-24zM224 448l27.8-48.7c2.7-4.8 4.2-10.2 4.2-15.7c0-17.5-14.2-31.6-31.6-31.6h-.8c-17.5 0-31.6 14.2-31.6 31.6c0 5.5 1.4 10.9 4.2 15.7L224 448z"/></svg>