<svg xmlns="http://www.w3.org/2000/svg" viewBox="0 0 512 512"><!--! Font Awesome Pro 6.2.0 by @fontawesome - https://fontawesome.com License - https://fontawesome.com/license (Commercial License) Copyright 2022 Fonticons, Inc. --><path d="M288 0V64H128V0H288zm0 96V256l-76.8 57.6C179 337.8 160 375.7 160 416c0 21.9 5.5 42.6 15.2 60.6l-21.6 16.2C137 505.3 116.8 512 96 512c-53 0-96-43-96-96c0-30.2 14.2-58.7 38.4-76.8L128 272V96H288zm32 0H512V368L345.6 492.8C329 505.3 308.8 512 288 512c-53 0-96-43-96-96c0-30.2 14.2-58.7 38.4-76.8L320 272V96zM512 64H320V0H512V64z"/></svg>