<svg xmlns="http://www.w3.org/2000/svg" viewBox="0 0 384 512"><!--! Font Awesome Pro 6.2.0 by @fontawesome - https://fontawesome.com License - https://fontawesome.com/license (Commercial License) Copyright 2022 Fonticons, Inc. --><path d="M320 128c0 11.8-3.2 22.9-8.8 32.4c32 3.6 56.8 30.7 56.8 63.6v64H16V224c0-32.9 24.8-60 56.8-63.6C67.2 150.9 64 139.8 64 128c0-35.3 28.7-64 64-64h46.1C192.8 64 208 48.8 208 30.1c0-9-3.6-17.6-9.9-24L192 0c70.7 0 128 57.3 128 128zM48 384V320H336v64H302.2L288 512H96L81.8 384H48z"/></svg>