<svg xmlns="http://www.w3.org/2000/svg" viewBox="0 0 640 512"><!--! Font Awesome Pro 6.2.0 by @fontawesome - https://fontawesome.com License - https://fontawesome.com/license (Commercial License) Copyright 2022 Fonticons, Inc. --><path d="M96 0H70.2L64.7 25.2l-64 296L0 324.6V328v24 32H32 288v64H224 192v64h32H416h32V448H416 352V384H608h32V352 328v-3.4l-.7-3.3-64-296L569.8 0H544 96zm3.3 168L121.8 64h90.9L202.3 168H99.3zM89 216H197.5L187.1 320H66.5L89 216zm156.8 0H394.3l10.4 104H235.3l10.4-104zm196.8 0H551l22.5 104H452.9L442.5 216zm98.1-48H437.7L427.3 64h90.9l22.5 104zm-151.2 0h-139L260.9 64H379.1l10.4 104z"/></svg>