<svg xmlns="http://www.w3.org/2000/svg" viewBox="0 0 512 512"><!--! Font Awesome Pro 6.2.0 by @fontawesome - https://fontawesome.com License - https://fontawesome.com/license (Commercial License) Copyright 2022 Fonticons, Inc. --><path d="M33.1 222.9L96 160 256 0 416 160l62.9 62.9c21.2 21.2 33.1 50 33.1 80C512 365.3 461.3 416 398.9 416c-30 0-58.8-11.9-80-33.1L288 352v96h32 32v64H320 288 224 192 160V448h32 32V352l-30.9 30.9c-21.2 21.2-50 33.1-80 33.1C50.7 416 0 365.3 0 302.9c0-30 11.9-58.8 33.1-80z"/></svg>