<svg xmlns="http://www.w3.org/2000/svg" viewBox="0 0 640 512"><!--! Font Awesome Pro 6.2.0 by @fontawesome - https://fontawesome.com License - https://fontawesome.com/license (Commercial License) Copyright 2022 Fonticons, Inc. --><path d="M165.3 0l8.2 19.7 66.7 160 26.7 64L272 256H202.7l-13.3-32H98.7L85.3 256H16l5.1-12.3 26.7-64 0 0 66.7-160L122.7 0h42.7zm-40 160h37.3L144 115.2 125.3 160zM288 0h32 64c44.2 0 80 35.8 80 80c0 13.6-3.4 26.4-9.4 37.6C470.2 132.2 480 152.9 480 176c0 44.2-35.8 80-80 80H320 288V224 128 32 0zm96 96c8.8 0 16-7.2 16-16s-7.2-16-16-16H352V96h32zm-32 64v32h48c8.8 0 16-7.2 16-16s-7.2-16-16-16H384 352zM621.3 272l-22.6 22.6-192 192L384 509.3l-22.6-22.6-96-96L242.7 368 288 322.7l22.6 22.6L384 418.7 553.4 249.4 576 226.7 621.3 272z"/></svg>