<svg xmlns="http://www.w3.org/2000/svg" viewBox="0 0 576 512"><!--! Font Awesome Pro 6.2.0 by @fontawesome - https://fontawesome.com License - https://fontawesome.com/license (Commercial License) Copyright 2022 Fonticons, Inc. --><path d="M199.4 19.1l-9.2 22.2-33.8 81.2L208 174.1V160c0-38.7 27.5-71 64-78.4V128h32V81.6c36.5 7.4 64 39.7 64 78.4v14.1l51.7-51.7L385.8 41.2l-9.2-22.2L420.9 .6l9.2 22.2 40 96 6.2 14.8L465 145l-72.1 72.1L477 189l20.2-60.6 7.6-22.8 45.5 15.2-7.6 22.8-24 72L515 227l-11.4 3.8L427.9 256l75.7 25.2L515 285l3.8 11.4 24 72 7.6 22.8-45.5 15.2-7.6-22.8L477 323l-84.2-28.1L465 367l11.4 11.4-6.2 14.8-40 96-9.2 22.2-44.3-18.5 9.2-22.2 33.8-81.2L384 353.9c-1 52.1-43.6 94.1-96 94.1s-95-41.9-96-94.1l-35.7 35.7 33.8 81.2 9.2 22.2-44.3 18.5-9.2-22.2-40-96-6.2-14.8L111 367l72.1-72.1L99 323 78.8 383.6l-7.6 22.8L25.6 391.2l7.6-22.8 24-72L61 285l11.4-3.8L148.1 256 72.4 230.8 61 227l-3.8-11.4-24-72-7.6-22.8 45.5-15.2 7.6 22.8L99 189l84.2 28.1L111 145 99.7 133.6l6.2-14.8 40-96L155.1 .6l44.3 18.5zM248 288v16l24 32-24 32v16h80V368l-24-32 24-32V288H248z"/></svg>