<svg xmlns="http://www.w3.org/2000/svg" viewBox="0 0 576 512"><!--! Font Awesome Pro 6.2.0 by @fontawesome - https://fontawesome.com License - https://fontawesome.com/license (Commercial License) Copyright 2022 Fonticons, Inc. --><path d="M190.2 41.2l9.2-22.2L155.1 .6l-9.2 22.2-40 96-6.2 14.8L111 145l72.1 72.1L99 189 78.8 128.4l-7.6-22.8L25.6 120.8l7.6 22.8 24 72L61 227l11.4 3.8L148.1 256 72.4 281.2 61 285l-3.8 11.4-24 72-7.6 22.8 45.5 15.2 7.6-22.8L99 323l84.2-28.1L111 367 99.7 378.4l6.2 14.8 40 96 9.2 22.2 44.3-18.5-9.2-22.2-33.8-81.2L192 353.9c1 52.1 43.6 94.1 96 94.1s95-41.9 96-94.1l35.7 35.7-33.8 81.2-9.2 22.2 44.3 18.5 9.2-22.2 40-96 6.2-14.8L465 367l-72.1-72.1L477 323l20.2 60.6 7.6 22.8 45.5-15.2-7.6-22.8-24-72L515 285l-11.4-3.8L427.9 256l75.7-25.2L515 227l3.8-11.4 24-72 7.6-22.8-45.5-15.2-7.6 22.8L477 189l-84.2 28.1L465 145l11.4-11.4-6.2-14.8-40-96L420.9 .6 376.6 19.1l9.2 22.2 33.8 81.2L368 174.1V160c0-38.7-27.5-71-64-78.4V128H272V81.6c-36.5 7.4-64 39.7-64 78.4v14.1l-51.7-51.7 33.8-81.2z"/></svg>