<svg xmlns="http://www.w3.org/2000/svg" viewBox="0 0 512 512"><!--! Font Awesome Pro 6.2.0 by @fontawesome - https://fontawesome.com License - https://fontawesome.com/license (Commercial License) Copyright 2022 Fonticons, Inc. --><path d="M224 0V128H96V0H224zM0 256c0-53 43-96 96-96H224c53 0 96 43 96 96V512H0V256zm240 80c0-44.2-35.8-80-80-80s-80 35.8-80 80s35.8 80 80 80s80-35.8 80-80zM384 128l16-32 16 32 32 16-32 16-16 32-16-32-32-16 32-16zM336 0l16 32 32 16L352 64 336 96 320 64 288 48l32-16L336 0zM448 32L464 0l16 32 32 16L480 64 464 96 448 64 416 48l32-16zm16 160l16 32 32 16-32 16-16 32-16-32-32-16 32-16 16-32z"/></svg>