<svg xmlns="http://www.w3.org/2000/svg" viewBox="0 0 448 512"><!--! Font Awesome Pro 6.2.0 by @fontawesome - https://fontawesome.com License - https://fontawesome.com/license (Commercial License) Copyright 2022 Fonticons, Inc. --><path d="M448 32H0V480H448V32zM303.9 140.9l.1-.1 16.8-16.8 33.9 33.9-17 17-.2 .2c-20.5 20.7-5.8 55.9 23.4 55.9h0 24v48h-24 0c-29.2 0-43.8 35.2-23.4 55.9l.2 .2 17 17-33.9 33.9L304 369l-.1-.1c-20.6-20.6-55.8-6.1-56.1 23v.3 24h-24-24V392.3l0-.2c0-29.2-35.2-43.8-55.9-23.4l-.2 .2-17 17L110 369l-.1-.1-.1-.1L92.9 351.9l16.8-16.8 .1-.1c20.7-20.7 6-56.1-23.2-56.1h-24V255.1l0-.2 0-.2V230.9h24c29.3 0 43.9-35.4 23.2-56.1l-.1-.1L92.9 157.8 109.7 141l.1-.1 .1-.1 16.8-16.8 17 17 .2 .2c20.7 20.5 55.9 5.8 55.9-23.4l0-.2V93.7h24 24v24 .3c.2 29.1 35.4 43.6 56.1 23zM192 256c17.7 0 32-14.3 32-32s-14.3-32-32-32s-32 14.3-32 32s14.3 32 32 32zm88 32c0-13.3-10.7-24-24-24s-24 10.7-24 24s10.7 24 24 24s24-10.7 24-24z"/></svg>