<svg xmlns="http://www.w3.org/2000/svg" viewBox="0 0 448 512"><!--! Font Awesome Pro 6.2.0 by @fontawesome - https://fontawesome.com License - https://fontawesome.com/license (Commercial License) Copyright 2022 Fonticons, Inc. --><path d="M0 32H448V480H0V32zM256 144c0-26.5-21.5-48-48-48s-48 21.5-48 48s21.5 48 48 48s48-21.5 48-48zm18.7 48l-9.4 9.4-16 16-9.4 9.4 0 13.3 0 66.7-41.4-41.4-51.2 8.3-24 48-12 24-12 24-12 24L76.2 416h71.6l8.8-17.7 12-24 12-24 4.1-8.3 54.7 54.7c12.4 12.4 29.1 19.3 46.6 19.3c36.4 0 65.9-29.5 65.9-65.9V224 192H320 288 274.7z"/></svg>