<svg xmlns="http://www.w3.org/2000/svg" viewBox="0 0 576 512"><!--! Font Awesome Pro 6.2.0 by @fontawesome - https://fontawesome.com License - https://fontawesome.com/license (Commercial License) Copyright 2022 Fonticons, Inc. --><path d="M0 32H448V161.1c-54.3 7.8-96 54.4-96 110.9v15.7H320v.3h-5.7L245.7 141.8 239.2 128H208.8l-6.5 13.8L88.6 384h53l22.5-48H283.8l22.5 48H320l0 96H0V32zM261.3 288H186.7L224 208.5 261.3 288zM464 240c-17.7 0-32 14.3-32 32v48h64V272c0-17.7-14.3-32-32-32zm-80 32c0-44.2 35.8-80 80-80s80 35.8 80 80v48h32V512H352V320h32V272z"/></svg>