<svg xmlns="http://www.w3.org/2000/svg" viewBox="0 0 576 512"><!--! Font Awesome Pro 6.2.0 by @fontawesome - https://fontawesome.com License - https://fontawesome.com/license (Commercial License) Copyright 2022 Fonticons, Inc. --><path d="M295 0h25H544h32V64H544 345L239 487.8 233 512H188.2l-8.8-17.7L76.2 288H32 0V224H32 96h19.8l8.8 17.7 73.3 146.6L289 24.2 295 0zM528 226.7L573.3 272l-22.6 22.6L525.3 320l25.4 25.4L573.3 368 528 413.3l-22.6-22.6L480 365.3l-25.4 25.4L432 413.3 386.7 368l22.6-22.6L434.7 320l-25.4-25.4L386.7 272 432 226.7l22.6 22.6L480 274.7l25.4-25.4L528 226.7z"/></svg>