<svg xmlns="http://www.w3.org/2000/svg" viewBox="0 0 512 512"><!--! Font Awesome Pro 6.2.0 by @fontawesome - https://fontawesome.com License - https://fontawesome.com/license (Commercial License) Copyright 2022 Fonticons, Inc. --><path d="M160 299.3c-19.9 22.6-32 52.2-32 84.7V512H256h64 32 96 32V448H448 432c10-13.4 16-30 16-48c0-26.2-12.6-49.4-32-64c-13.4-10-30-16-48-16c-9.4 0-18.3 1.6-26.7 4.5l-10.7-30.2c11.7-4.1 24.3-6.4 37.3-6.4c17.2 0 33.5 3.9 48 10.8V240h64l32-48V160l-87.9-58.6c-2.5-1.7-5.3-3-8.1-3.9V96 64c-20.4 0-38.2 10.9-48 27.1C358.2 74.9 340.4 64 320 64V96v32 54.2V224l-25.3 38c-2.2-.7-4.4-1.3-6.7-1.9V144C288 64.5 223.5 0 144 0S0 64.5 0 144s64.5 144 144 144c5.4 0 10.7-.3 16-.9v12.2zM416 176c-8.8 0-16-7.2-16-16s7.2-16 16-16s16 7.2 16 16s-7.2 16-16 16z"/></svg>