<svg xmlns="http://www.w3.org/2000/svg" viewBox="0 0 576 512"><!--! Font Awesome Pro 6.2.0 by @fontawesome - https://fontawesome.com License - https://fontawesome.com/license (Commercial License) Copyright 2022 Fonticons, Inc. --><path d="M428.3 26C462.3 16 500.6 7.2 544 0c-7.1 42.7-15.7 80.7-25.5 114.2l18.2 115.3 3.5 22.1-22.1-3.9-50.8-9C420.3 320.2 364.5 350 319.6 354.6l8.7 8.7 .2 .2 17 17 0 0 11.3 11.3c6.2 6.2 16.4 6.2 22.6 0l56.1-56.1c19-19 49.9-18.7 68.6 .7l27.5 28.6 9.5 9.9-8.3 10.9-2.5 3.3c-28.3 37-81 40.1-113.6 10.9L402 414.4c-18.7 18.7-49.1 18.7-67.9 0L305.7 386c-9.4-9.2-24.4-9.2-33.7 0l-.1 .1-.1 .1c-9.2 9.4-9.2 24.4 0 33.8l.1 .1 15.6 15.6 .1 .1 1.3 1.3 0 0c18.1 19.6 16.7 50.5-3.4 68.4l-2.8 2.5L261.4 484l2.8-2.5c6.9-6.1 7.2-16.7 .8-23.2l-.1-.1-15.6-15.6-.1-.1-40.3-40.3c-1.7 6.5-4.7 12.7-8.8 18.4l-20.1 27.3c-2.5 3.5-3.9 7.6-3.9 11.9c0 11.1 9 20.1 20.1 20.1H208h16v32H208 196.1c-28.8 0-52.1-23.3-52.1-52.1c0-11.1 3.6-21.9 10.1-30.9l20.1-27.3c6.8-9.2 5.8-22-2.3-30.1c-8.2-8.2-21.2-9.1-30.4-2.1l-26.2 20c-9 6.9-20.1 10.6-31.4 10.6C55.2 400 32 376.8 32 348.1V336 320H64l0 16v12.1c0 11 8.9 19.9 19.9 19.9c4.4 0 8.6-1.4 12-4.1l26.2-20c5.8-4.4 12.3-7.6 19.1-9.4l-38.7-38.7-.3-.3L85.7 279.1c-6.4-6.2-16.6-6-22.7 .5L59.6 283 36.4 261l3.3-3.5c18.4-19.4 49-20 68.2-1.5l0 0 .3 .3 .3 .3L125 273.1c9.4 9.2 24.5 9.1 33.8-.2c9.4-9.4 9.4-24.5 0-33.9l0 0-17-17-11.3-11.3c-18.7-18.7-18.7-49.1 0-67.9L145 128.4c-29.4-32.7-26.5-85.5 10.4-114.1l3.7-2.9 11-8.6 10 9.8 29 28.4c19.1 18.7 19.3 49.4 .4 68.3l-56.3 56.3c-6.2 6.2-6.2 16.4 0 22.6l25.1 25.1 3.2 3.2 .1 .1 8 8c4.7-45 34.7-100.8 116.4-147.9l-8.8-49.7L293.2 4.7l22.2 3.5L428.3 26zM232.9 280c0-8.8-7.2-16-16-16s-16 7.2-16 16s7.2 16 16 16s16-7.2 16-16zm32 64c8.8 0 16-7.2 16-16s-7.2-16-16-16s-16 7.2-16 16s7.2 16 16 16z"/></svg>