<svg xmlns="http://www.w3.org/2000/svg" viewBox="0 0 576 512"><!--! Font Awesome Pro 6.2.0 by @fontawesome - https://fontawesome.com License - https://fontawesome.com/license (Commercial License) Copyright 2022 Fonticons, Inc. --><path d="M360 48c44.1 0 85 13.7 118.6 37.1C431.8 32.9 363.7 0 288 0C146.6 0 32 114.6 32 256s114.6 256 256 256c75.7 0 143.8-32.9 190.6-85.1C445 450.3 404.1 464 360 464c-114.9 0-208-93.1-208-208s93.1-208 208-208zm98.3 157.8L416 120l-42.3 85.8L279 219.5l68.5 66.7-16.2 94.2L416 336l84.6 44.5-16.2-94.2L553 219.5l-94.6-13.8z"/></svg>