<svg xmlns="http://www.w3.org/2000/svg" viewBox="0 0 640 512"><!--! Font Awesome Pro 6.2.0 by @fontawesome - https://fontawesome.com License - https://fontawesome.com/license (Commercial License) Copyright 2022 Fonticons, Inc. --><path d="M448 320c-35.3 0-64-28.7-64-64s28.7-64 64-64s64 28.7 64 64s-28.7 64-64 64zm0 128c106 0 192-86 192-192s-86-192-192-192s-192 86-192 192s86 192 192 192zm32-192c0-17.7-14.3-32-32-32s-32 14.3-32 32s14.3 32 32 32s32-14.3 32-32zM188.9 205.4L137 160h71 32V96H208 32 0v64H32 64.1l65.5 57.3L96 224v64l33.6 6.7L64.1 352H32 0v64H32 208h32V352H208 137l51.9-45.4 43 8.6c-5.2-18.9-7.9-38.7-7.9-59.2s2.7-40.3 7.9-59.2l-43 8.6z"/></svg>