<svg xmlns="http://www.w3.org/2000/svg" viewBox="0 0 640 512"><!--! Font Awesome Pro 6.2.0 by @fontawesome - https://fontawesome.com License - https://fontawesome.com/license (Commercial License) Copyright 2022 Fonticons, Inc. --><path d="M352 0l32 256V480H256V256L288 0h64zM288 256v64h64V256c0-17.7-14.3-32-32-32s-32 14.3-32 32zM72 72V96v24H96v48H72V352h56V288h96v64 64 32 32 32H160V480 467.2L72 432v16 24H24V448 168H0V120H24V96 72H72zm544 0V96v24h24v48H616V448v24H568V448 432l-88 35.2V480v32H416V480 448 416 352 288h96v64h56V168H544V120h24V96 72h48z"/></svg>