<svg xmlns="http://www.w3.org/2000/svg" viewBox="0 0 576 512"><!--! Font Awesome Pro 6.2.0 by @fontawesome - https://fontawesome.com License - https://fontawesome.com/license (Commercial License) Copyright 2022 Fonticons, Inc. --><path d="M317.5 90.6l34.1 105H462h95.3l-77.1 56-89.3 64.9 34.1 105L454.4 512l-77.1-56-89.3-64.9L198.8 456l-77.1 56 29.4-90.6 34.1-105L96 251.6l-77.1-56h95.3H224.5l34.1-105L288.1 0l29.4 90.6zm34.1 161H310.9l-12.6-38.7-10.3-31.7-.1 .2V322l.1 0L321 345.8l26.9 19.6-10.3-31.7L325 295 358 271.1l26.9-19.6H351.6zm-159.6 0h-.8l.8 .6v-.6z"/></svg>