<svg xmlns="http://www.w3.org/2000/svg" viewBox="0 0 512 512"><!--! Font Awesome Pro 6.2.0 by @fontawesome - https://fontawesome.com License - https://fontawesome.com/license (Commercial License) Copyright 2022 Fonticons, Inc. --><path d="M16 400H72h91.3L232 512h48l68.7-112H440h56V352l-4.9-8-54-88 54-88 4.9-8V112H440 348.7L280 0H232L163.3 112H72 16v48l4.9 8 54 88-54 88L16 352v48zm91.8-90.5L128.9 344H86.6l21.1-34.5zM194.6 344l-54-88 54-88H317.4l54 88-54 88H194.6zM229 400h54l-27 44-27-44zm154.1-56l21.1-34.5L425.4 344H383.1zm21.1-141.5L383.1 168h42.3l-21.1 34.5zM283 112H229l27-44 27 44zM128.9 168l-21.1 34.5L86.6 168h42.3z"/></svg>