<svg xmlns="http://www.w3.org/2000/svg" viewBox="0 0 576 512"><!--! Font Awesome Pro 6.2.0 by @fontawesome - https://fontawesome.com License - https://fontawesome.com/license (Commercial License) Copyright 2022 Fonticons, Inc. --><path d="M119.3 1.2l15.5 62.1-31 7.8L96 73V192c0 53 43 96 96 96s96-43 96-96V73L280.2 71l-31-7.8L264.7 1.2l31 7.8 32 8L352 23V48 192c0 77.2-54.6 141.6-127.3 156.7C231 404.6 278.4 448 336 448c61.9 0 112-50.1 112-112V265.3c-28.3-12.3-48-40.5-48-73.3c0-44.2 35.8-80 80-80s80 35.8 80 80c0 32.8-19.7 61-48 73.3V336c0 97.2-78.8 176-176 176c-92.9 0-168.9-71.9-175.5-163.1C87.2 334.2 32 269.6 32 192V48 23L56.2 17l32-8 31-7.8zM480 224c17.7 0 32-14.3 32-32s-14.3-32-32-32s-32 14.3-32 32s14.3 32 32 32z"/></svg>