<svg xmlns="http://www.w3.org/2000/svg" viewBox="0 0 640 512"><!--! Font Awesome Pro 6.2.0 by @fontawesome - https://fontawesome.com License - https://fontawesome.com/license (Commercial License) Copyright 2022 Fonticons, Inc. --><path d="M70.8 63.5L189.1 192H640v96H168 146.9l-14.3-15.5L.2 128.5l70.6-65zM263.2 320h81.6L368 336.9 391.2 320h81.6l-64 46.5 37.3 27.1c9.8-6.1 21.4-9.7 33.9-9.7c35.3 0 64 28.7 64 64s-28.7 64-64 64s-64-28.7-64-64c0-5.3 .7-10.5 1.9-15.5L368 396.2l-49.9 36.3c1.2 5 1.9 10.2 1.9 15.5c0 35.3-28.7 64-64 64s-64-28.7-64-64s28.7-64 64-64c12.4 0 24 3.5 33.9 9.7l37.3-27.1-64-46.5zM272 448c0-8.8-7.2-16-16-16s-16 7.2-16 16s7.2 16 16 16s16-7.2 16-16zm224 0c0-8.8-7.2-16-16-16s-16 7.2-16 16s7.2 16 16 16s16-7.2 16-16z"/></svg>