<svg xmlns="http://www.w3.org/2000/svg" viewBox="0 0 512 512"><!--! Font Awesome Pro 6.2.0 by @fontawesome - https://fontawesome.com License - https://fontawesome.com/license (Commercial License) Copyright 2022 Fonticons, Inc. --><path d="M256 496c132.5 0 240-107.5 240-240S388.5 16 256 16S16 123.5 16 256s107.5 240 240 240zM235.3 76.7L256 97.4l20.7-20.7L288 65.4 310.6 88 299.3 99.3 278.6 120 324 165.4 357.4 132l-16.7-16.7L329.4 104 352 81.4l11.3 11.3L380 109.4l8.7-8.7L400 89.4 422.6 112l-11.3 11.3-8.7 8.7 16.7 16.7L430.6 160 408 182.6l-11.3-11.3L380 154.6 346.6 188 392 233.4l20.7-20.7L424 201.4 446.6 224l-11.3 11.3L414.6 256l20.7 20.7L446.6 288 424 310.6l-11.3-11.3L392 278.6 346.6 324 380 357.4l16.7-16.7L408 329.4 430.6 352l-11.3 11.3L402.6 380l8.7 8.7L422.6 400 400 422.6l-11.3-11.3-8.7-8.7-16.7 16.7L352 430.6 329.4 408l11.3-11.3L357.4 380 324 346.6 278.6 392l20.7 20.7L310.6 424 288 446.6l-11.3-11.3L256 414.6l-20.7 20.7L224 446.6 201.4 424l11.3-11.3L233.4 392 188 346.6 154.6 380l16.7 16.7L182.6 408 160 430.6l-11.3-11.3L132 402.6l-8.7 8.7L112 422.6 89.4 400l11.3-11.3 8.7-8.7L92.7 363.3 81.4 352 104 329.4l11.3 11.3L132 357.4 165.4 324 120 278.6 99.3 299.3 88 310.6 65.4 288l11.3-11.3L97.4 256 76.7 235.3 65.4 224 88 201.4l11.3 11.3L120 233.4 165.4 188 132 154.6l-16.7 16.7L104 182.6 81.4 160l11.3-11.3L109.4 132l-8.7-8.7L89.4 112 112 89.4l11.3 11.3 8.7 8.7 16.7-16.7L160 81.4 182.6 104l-11.3 11.3L154.6 132 188 165.4 233.4 120 212.7 99.3 201.4 88 224 65.4l11.3 11.3zM210.6 188L256 233.4 301.4 188 256 142.6 210.6 188zm68 68L324 301.4 369.4 256 324 210.6 278.6 256zM256 278.6L210.6 324 256 369.4 301.4 324 256 278.6zM233.4 256L188 210.6 142.6 256 188 301.4 233.4 256z"/></svg>