<svg xmlns="http://www.w3.org/2000/svg" viewBox="0 0 640 512"><!--! Font Awesome Pro 6.2.0 by @fontawesome - https://fontawesome.com License - https://fontawesome.com/license (Commercial License) Copyright 2022 Fonticons, Inc. --><path d="M320 73.1L214 0 190.7 126.7 64 150l73.1 106H192c0-70.7 57.3-128 128-128s128 57.3 128 128h54.9L576 150 449.3 126.7 426 0 320 73.1zm0 86.9c-53 0-96 43-96 96H416c0-53-43-96-96-96zM616 288H504 480v48h24H616h24V288H616zm-208 0H88 64v48H88 408h24V288H408zm144 88H24 0v48H24 552h24V376H552zM64 464v48H88 200h24V464H200 88 64zm208 0v48h24H616h24V464H616 296 272z"/></svg>