<svg xmlns="http://www.w3.org/2000/svg" viewBox="0 0 512 512"><!--! Font Awesome Pro 6.2.0 by @fontawesome - https://fontawesome.com License - https://fontawesome.com/license (Commercial License) Copyright 2022 Fonticons, Inc. --><path d="M280 24V0H232V24 88v24h48V88 24zm157 84.9l17-17L420 58l-17 17-45.3 45.3-17 17 33.9 33.9 17-17L437 108.9zM108.9 75L92 58 58 92l17 17 45.3 45.3 17 17 33.9-33.9-17-17L108.9 75zM24 232H0v48H24 88h24V232H88 24zm400 0H400v48h24 64 24V232H488 424zM154.2 391.8l17-17-33.9-33.9-17 17L75 403.1 58 420 92 454l17-17 45.3-45.3zm237.6-33.9l-17-17-33.9 33.9 17 17L403.1 437l17 17L454 420l-17-17-45.3-45.3zM280 424V400H232v24 64 24h48V488 424zm-24-56c61.9 0 112-50.1 112-112s-50.1-112-112-112s-112 50.1-112 112s50.1 112 112 112z"/></svg>