<svg xmlns="http://www.w3.org/2000/svg" viewBox="0 0 576 512"><!--! Font Awesome Pro 6.2.0 by @fontawesome - https://fontawesome.com License - https://fontawesome.com/license (Commercial License) Copyright 2022 Fonticons, Inc. --><path d="M354.5 154.9L320 123.5V208v32H256V208 123.5l-34.5 31.3-23.7 21.5L154.8 129l23.7-21.5 88-80L288 8l21.5 19.6 88 80L421.2 129l-43 47.4-23.7-21.5zM182 224l106 73.1L394 224l23.3 126.7L544 374l-40 58H406.7c-19-46.9-65-80-118.7-80s-99.7 33.1-118.7 80H72L32 374l126.7-23.3L182 224zM0 464H24 552h24v48H552 24 0V464z"/></svg>