<svg xmlns="http://www.w3.org/2000/svg" viewBox="0 0 576 512"><!--! Font Awesome Pro 6.2.0 by @fontawesome - https://fontawesome.com License - https://fontawesome.com/license (Commercial License) Copyright 2022 Fonticons, Inc. --><path d="M256 224v-1.8l-77.5-70.5-23.7-21.5 43.1-47.4 23.7 21.5L256 135.7V32 0h64V32 135.7l34.5-31.3 23.7-21.5 43 47.4-23.7 21.5L320 222.2V224h-2l-8.4 7.7L288 251.2l-21.5-19.6L258 224h-2zm-74 0l106 73.1L394 224l23.3 126.7L544 374l-40 58H406.7c-19-46.9-65-80-118.7-80s-99.7 33.1-118.7 80H72L32 374l126.7-23.3L182 224zM0 464H24 552h24v48H552 24 0V464z"/></svg>