<svg xmlns="http://www.w3.org/2000/svg" viewBox="0 0 512 512"><!--! Font Awesome Pro 6.2.0 by @fontawesome - https://fontawesome.com License - https://fontawesome.com/license (Commercial License) Copyright 2022 Fonticons, Inc. --><path d="M0 416c0 53 43 96 96 96s96-43 96-96L192 0H0V416zM128 64v64H64V64h64zm0 128v64H64V192h64zm-8 224c0 13.3-10.7 24-24 24s-24-10.7-24-24s10.7-24 24-24s24 10.7 24 24zm60.7 96H512V320H373L186.5 506.5c-1.9 1.9-3.8 3.7-5.8 5.5zM458 189.7L322.3 54 224 152.2V423.8l234-234z"/></svg>