<svg xmlns="http://www.w3.org/2000/svg" viewBox="0 0 640 512"><!--! Font Awesome Pro 6.2.0 by @fontawesome - https://fontawesome.com License - https://fontawesome.com/license (Commercial License) Copyright 2022 Fonticons, Inc. --><path d="M352 279.6V173.7L160 0 128 32 352 279.6zM621.7 450.3L640 432l-98.3-98.3L523.3 352l98.3 98.3zm-11.3 11.3L512 363.3 491.3 384l98.3 98.3 20.7-20.7zm-32 32L480 395.3l-18.3 18.3L560 512l18.3-18.3zm-128-91.3l24-24 32-32 24-24L384 176V336l66.3 66.3zM247 210.8l-27.4 24.8L208 224l-33.4 33.4-8.2-8.2c-12.5-12.3-32.6-12.2-45 .2c-12.5 12.5-12.5 32.8 0 45.3l8 8L0 432l80 80L224 368V350.3l74.9-82.8L247 210.8zm143.5-44.5L512 32 480 0 343.6 123.4l46.9 42.9zM184 344c0 8.8-7.2 16-16 16s-16-7.2-16-16s7.2-16 16-16s16 7.2 16 16z"/></svg>