<svg xmlns="http://www.w3.org/2000/svg" viewBox="0 0 512 512"><!--! Font Awesome Pro 6.2.0 by @fontawesome - https://fontawesome.com License - https://fontawesome.com/license (Commercial License) Copyright 2022 Fonticons, Inc. --><path d="M32 0H192h32V64H192 32 0V0H32zM484.1 361.2l-128 128-22.6 22.6-45.3-45.3 22.6-22.6 128-128 22.6-22.6 45.3 45.3-22.6 22.6zM0 96H32 80h64 48 32v64H192 144v32 32H80V192 160H32 0V96zM368 328c0 22.1-17.9 40-40 40s-40-17.9-40-40s17.9-40 40-40s40 17.9 40 40zM472 512c-22.1 0-40-17.9-40-40s17.9-40 40-40s40 17.9 40 40s-17.9 40-40 40zM512 1V40 176c0 26.5-28.7 48-64 48s-64-21.5-64-48s28.7-48 64-48V79L352 98.2V208c0 26.5-28.7 48-64 48s-64-21.5-64-48s28.7-48 64-48V72 45.8l25.7-5.1 160-32L512 1zM16 320V248H88h72v72c0 21.6-9.5 41-24.5 54.2l14.8 15.7L162.8 376l21.4-23.8 47.5 42.9-21.4 23.7-16 17.7 7.5 8 21.9 23.3-46.6 43.9-21.9-23.3-4-4.2-15.5 17.2L126.2 512H112 32 0V480 434.7v-.9c0-19.4 7.2-38.2 20.3-52.6l13.1-14.4C22.5 354.3 16 337.9 16 320zM67.7 424.3c-2.4 2.6-3.7 6-3.7 9.5v.9V448H97.8l9.5-10.5L81 409.7 67.7 424.3zM88 336c8.8 0 16-7.2 16-16V304H72v16c0 8.8 7.2 16 16 16z"/></svg>