<svg xmlns="http://www.w3.org/2000/svg" viewBox="0 0 640 512"><!--! Font Awesome Pro 6.2.0 by @fontawesome - https://fontawesome.com License - https://fontawesome.com/license (Commercial License) Copyright 2022 Fonticons, Inc. --><path d="M320 0L160 128v32V272 512H288V416c0-17.7 14.3-32 32-32s32 14.3 32 32v96H480V272 160 128L320 0zM512 240V512H640V272l-80-80-48 48zM80 192L0 272V512H128V240L80 192zm240-73.9l21.3 36.9H384L362.7 192 384 228.9H341.3L320 265.9l-21.3-36.9H256L277.4 192 256 155.1h42.7L320 118.1z"/></svg>