<svg xmlns="http://www.w3.org/2000/svg" viewBox="0 0 512 512"><!--! Font Awesome Pro 6.2.0 by @fontawesome - https://fontawesome.com License - https://fontawesome.com/license (Commercial License) Copyright 2022 Fonticons, Inc. --><path d="M64 64H96 416h32v64H416 367.3l38.4 96H480h32v64H480 431.3 362.3 149.7 80.7 32 0V224H32h74.3l38.4-96H96 64V64zm3.9 256h68.9l-11.2 27.9-32 80-8 20.1H16.7l17.6-43.9 32-80 1.6-4.1zm307.2 0h68.9l33.6 84.1L495.3 448H426.3l-8-20.1L375.1 320zM213.7 128l-38.4 96H336.7l-38.4-96H213.7z"/></svg>