<svg xmlns="http://www.w3.org/2000/svg" viewBox="0 0 640 512"><!--! Font Awesome Pro 6.2.0 by @fontawesome - https://fontawesome.com License - https://fontawesome.com/license (Commercial License) Copyright 2022 Fonticons, Inc. --><path d="M640 160C640 71.6 568.4 0 480 0c-38.4 0-73.7 13.5-101.3 36.1L603.9 261.3C626.5 233.7 640 198.4 640 160zM480 320c38.4 0 73.7-13.5 101.3-36.1L356.1 58.7C333.5 86.3 320 121.6 320 160c0 88.4 71.6 160 160 160zM160 512c83 0 151.2-63.1 159.2-144H.8C8.8 448.9 77 512 160 512zM.8 336H319.2c-8-80.9-76.2-144-159.2-144S8.8 255.1 .8 336z"/></svg>