<svg xmlns="http://www.w3.org/2000/svg" viewBox="0 0 512 512"><!--! Font Awesome Pro 6.2.0 by @fontawesome - https://fontawesome.com License - https://fontawesome.com/license (Commercial License) Copyright 2022 Fonticons, Inc. --><path d="M256 32l69.9 54.1 88.3-2.7 24.7 84.9L512 218l-22.2 61.8C437.5 207.2 352.3 160 256 160s-181.5 47.2-233.8 119.8L0 218l73.1-49.7L97.8 83.4l88.3 2.7L256 32zM0 480V448C0 306.6 114.6 192 256 192s256 114.6 256 256v32H0zm112-64c8.8 0 16-7.2 16-16s-7.2-16-16-16s-16 7.2-16 16s7.2 16 16 16zm80-80c0-8.8-7.2-16-16-16s-16 7.2-16 16s7.2 16 16 16s16-7.2 16-16z"/></svg>