<svg xmlns="http://www.w3.org/2000/svg" viewBox="0 0 320 512"><!--! Font Awesome Pro 6.2.0 by @fontawesome - https://fontawesome.com License - https://fontawesome.com/license (Commercial License) Copyright 2022 Fonticons, Inc. --><path d="M0 48S48 0 160 0S320 48 320 48L295.4 208H236.2L248 72.7l.7-8-15.9-1.4-.7 8L220.1 208H168V64 56H152v8V208H99.9L88 71.3l-.7-8L71.3 64.7l.7 8L83.8 208H24.6L0 48zM256 304h39.4L320 464s-48 48-160 48S0 464 0 464L24.6 304H64L44.8 329.6l34.5 25.9L72 439.3l-.7 8 15.9 1.4 .7-8 6.4-73.9 27.2 20.4 28.8-38.4 1.6-2.1V448v8h16v-8V346.7l1.6 2.1 28.8 38.4 27.2-20.4 6.4 73.9 .7 8 15.9-1.4-.7-8-7.3-83.8 34.5-25.9L256 304zM24 240H160 296h16v32H296 192l28.8 38.4 9.6 12.8-25.6 19.2-9.6-12.8L160 282.7l-35.2 46.9-9.6 12.8L89.6 323.2l9.6-12.8L128 272H24 8V240H24z"/></svg>