<svg xmlns="http://www.w3.org/2000/svg" viewBox="0 0 576 512"><!--! Font Awesome Pro 6.2.0 by @fontawesome - https://fontawesome.com License - https://fontawesome.com/license (Commercial License) Copyright 2022 Fonticons, Inc. --><path d="M288 160c-35.3 0-64-25.6-64-57.1S288 0 288 0s64 71.3 64 102.9s-28.7 57.1-64 57.1zM0 128H197.5c13.2 37.3 48.7 64 90.5 64s77.4-26.7 90.5-64H576V352H416l0 160L0 512V128zM576 384L448 512l0-128H576zM96 256c17.7 0 32-14.3 32-32s-14.3-32-32-32s-32 14.3-32 32s14.3 32 32 32z"/></svg>