<svg xmlns="http://www.w3.org/2000/svg" viewBox="0 0 640 512"><!--! Font Awesome Pro 6.2.0 by @fontawesome - https://fontawesome.com License - https://fontawesome.com/license (Commercial License) Copyright 2022 Fonticons, Inc. --><path d="M192 0C299 0 384 38.4 384 38.4L384 64V96H320 208V224h33.9l-10.7 32H192l0 160H128v64H48V416H0V96H0V38.4S85 0 192 0zM384 224H343.1l-21.3 64H384 542.3l-21.3-64H384zM224 288h30.3l21.3-64 14-42.1 7.3-21.9H320h48V128H496v32h48 23.1l7.3 21.9L609.7 288H640l0 160v64H560V448H304v64H224V448h0l0-160zM64 96V224H176V96H64zM80 328c13.3 0 24-10.7 24-24s-10.7-24-24-24s-24 10.7-24 24s10.7 24 24 24zm248 40c0-13.3-10.7-24-24-24s-24 10.7-24 24c0 12.4 9.4 22.6 21.5 23.9c.8 .1 1.6 .1 2.5 .1c13.3 0 24-10.7 24-24zm256 0c0-13.3-10.7-24-24-24s-24 10.7-24 24s10.7 24 24 24s24-10.7 24-24z"/></svg>