<svg xmlns="http://www.w3.org/2000/svg" viewBox="0 0 512 512"><!--! Font Awesome Pro 6.2.0 by @fontawesome - https://fontawesome.com License - https://fontawesome.com/license (Commercial License) Copyright 2022 Fonticons, Inc. --><path d="M352 0H160V64H120 97.3L89.8 85.4 41.3 224H0V432v80H96V432H416v80h96V432 224H470.7L422.2 85.4 414.7 64H392 352V0zm17.3 128l33.6 96H109.1l33.6-96H369.3zM96 352c-17.7 0-32-14.3-32-32s14.3-32 32-32s32 14.3 32 32s-14.3 32-32 32zm352-32c0 17.7-14.3 32-32 32s-32-14.3-32-32s14.3-32 32-32s32 14.3 32 32z"/></svg>