<svg xmlns="http://www.w3.org/2000/svg" viewBox="0 0 576 512"><!--! Font Awesome Pro 6.2.0 by @fontawesome - https://fontawesome.com License - https://fontawesome.com/license (Commercial License) Copyright 2022 Fonticons, Inc. --><path d="M0 32H576V480H0V32zM176 176v80h96V176c0-26.5-21.5-48-48-48s-48 21.5-48 48zm176-48c-26.5 0-48 21.5-48 48v80h96V176c0-26.5-21.5-48-48-48zM48 208v48h96V208c0-26.5-21.5-48-48-48s-48 21.5-48 48zM96 384c26.5 0 48-21.5 48-48V288H48v48c0 26.5 21.5 48 48 48zm80-48c0 26.5 21.5 48 48 48s48-21.5 48-48V288H176v48zm176 48c26.5 0 48-21.5 48-48V288H304v48c0 26.5 21.5 48 48 48zm80-176v48h96V208c0-26.5-21.5-48-48-48s-48 21.5-48 48zm48 176c26.5 0 48-21.5 48-48V288H432v48c0 26.5 21.5 48 48 48z"/></svg>