<svg xmlns="http://www.w3.org/2000/svg" viewBox="0 0 512 512"><!--! Font Awesome Pro 6.2.0 by @fontawesome - https://fontawesome.com License - https://fontawesome.com/license (Commercial License) Copyright 2022 Fonticons, Inc. --><path d="M416 128c-17.7 0-32-14.3-32-32s14.3-32 32-32s32 14.3 32 32s-14.3 32-32 32zm0 64c53 0 96-43 96-96s-43-96-96-96s-96 43-96 96s43 96 96 96zM81.8 317.8L96 300.2V277.5 64h96V277.5v22.7l14.2 17.6C217.4 331.5 224 348.9 224 368c0 44.2-35.8 80-80 80s-80-35.8-80-80c0-19.1 6.6-36.5 17.8-50.3zM256 0H192 96 32V64 277.5C12 302.2 0 333.7 0 368c0 79.5 64.5 144 144 144s144-64.5 144-144c0-34.3-12-65.8-32-90.5V64 0zM144 416c26.5 0 48-21.5 48-48c0-20.9-13.4-38.7-32-45.3V112 96H128v16V322.8c-18.6 6.6-32 24.4-32 45.3c0 26.5 21.5 48 48 48z"/></svg>