<svg xmlns="http://www.w3.org/2000/svg" viewBox="0 0 320 512"><!--! Font Awesome Pro 6.2.0 by @fontawesome - https://fontawesome.com License - https://fontawesome.com/license (Commercial License) Copyright 2022 Fonticons, Inc. --><path d="M97.8 317.8L112 300.2V277.5 64h96V277.5v22.7l14.2 17.6C233.4 331.5 240 348.9 240 368c0 44.2-35.8 80-80 80s-80-35.8-80-80c0-19.1 6.6-36.5 17.8-50.3zM272 0H208 112 48V64 277.5C28 302.2 16 333.7 16 368c0 79.5 64.5 144 144 144s144-64.5 144-144c0-34.3-12-65.8-32-90.5V64 0zM160 416c26.5 0 48-21.5 48-48s-21.5-48-48-48s-48 21.5-48 48s21.5 48 48 48z"/></svg>