<svg xmlns="http://www.w3.org/2000/svg" viewBox="0 0 640 512"><!--! Font Awesome Pro 6.2.0 by @fontawesome - https://fontawesome.com License - https://fontawesome.com/license (Commercial License) Copyright 2022 Fonticons, Inc. --><path d="M224 0l55.7 89.5L352 72.7V266.8c-20.1 28.6-32 63.5-32 101.1l-40.3-9.4L224 448l-55.7-89.5L65.6 382.4 89.5 279.7 0 224l89.5-55.7L65.6 65.6 168.3 89.5 224 0zm0 288c-35.3 0-64-28.7-64-64s28.7-64 64-64s64 28.7 64 64s-28.7 64-64 64zm0 32c53 0 96-43 96-96s-43-96-96-96s-96 43-96 96s43 96 96 96zm209.8-2.2C422.6 331.5 416 348.9 416 368c0 44.2 35.8 80 80 80s80-35.8 80-80c0-19.1-6.6-36.5-17.8-50.3L544 300.2V277.5 64H448V277.5v22.7l-14.2 17.6zM608 0V64 277.5c20 24.7 32 56.2 32 90.5c0 79.5-64.5 144-144 144s-144-64.5-144-144c0-34.3 12-65.8 32-90.5V64 0h64 96 64zM496 416c-26.5 0-48-21.5-48-48c0-20.9 13.4-38.7 32-45.3V112 96h32v16V322.8c18.6 6.6 32 24.4 32 45.3c0 26.5-21.5 48-48 48z"/></svg>