<svg xmlns="http://www.w3.org/2000/svg" viewBox="0 0 512 512"><!--! Font Awesome Pro 6.2.0 by @fontawesome - https://fontawesome.com License - https://fontawesome.com/license (Commercial License) Copyright 2022 Fonticons, Inc. --><path d="M448 96c0-17.7-14.3-32-32-32s-32 14.3-32 32s14.3 32 32 32s32-14.3 32-32zm64 0c0 53-43 96-96 96s-96-43-96-96s43-96 96-96s96 43 96 96zM96 300.2L81.8 317.8C70.6 331.5 64 348.9 64 368c0 44.2 35.8 80 80 80s80-35.8 80-80c0-19.1-6.6-36.5-17.8-50.3L192 300.2V277.5 64H96V277.5v22.7zM192 0h64V64 277.5c20 24.7 32 56.2 32 90.5c0 79.5-64.5 144-144 144S0 447.6 0 368c0-34.3 12-65.8 32-90.5V64 0H96h96zm0 368c0 26.5-21.5 48-48 48s-48-21.5-48-48c0-20.9 13.4-38.7 32-45.3V272c0-8.8 7.2-16 16-16s16 7.2 16 16v50.7c18.6 6.6 32 24.4 32 45.3v0z"/></svg>