<svg xmlns="http://www.w3.org/2000/svg" viewBox="0 0 576 512"><!--! Font Awesome Pro 6.2.0 by @fontawesome - https://fontawesome.com License - https://fontawesome.com/license (Commercial License) Copyright 2022 Fonticons, Inc. --><path d="M209.9 136L176 102.1l-17 17-23 23L136 24V0H88V24l0 118.1L65 119l-17-17L14.1 136l17 17 64 64 17 17 17-17 64-64 17-17zM96 288L64 512H288V352l96 160H512L480 288 288 160 96 288zM545 153l17-17L528 102.1l-17 17-23 23V24 0H440V24 142.1l-23-23-17-17L366.1 136l17 17 64 64 17 17 17-17 64-64z"/></svg>