<svg xmlns="http://www.w3.org/2000/svg" viewBox="0 0 640 512"><!--! Font Awesome Pro 6.2.0 by @fontawesome - https://fontawesome.com License - https://fontawesome.com/license (Commercial License) Copyright 2022 Fonticons, Inc. --><path d="M141.8 52.2L121.9 72l396.1 0L498.2 52.2l-17-17L515.2 1.3l17 17L593 79l17 17-17 17-60.8 60.8-17 17-33.9-33.9 17-17L518.1 120l-396.1 0 19.8 19.8 17 17-33.9 33.9-17-17L47 113l-17-17L47 79l60.8-60.8 17-17 33.9 33.9-17 17zM96 512l32-224L320 160 512 288l32 224H416L320 352V512H96z"/></svg>