<svg xmlns="http://www.w3.org/2000/svg" viewBox="0 0 640 512"><!--! Font Awesome Pro 6.2.0 by @fontawesome - https://fontawesome.com License - https://fontawesome.com/license (Commercial License) Copyright 2022 Fonticons, Inc. --><path d="M48.4 14.8L29.4 .1 0 38 19 52.7 591.5 497.2l19 14.7L639.9 474l-19-14.7L355.7 253.4 400.2 96H503L497 120.2 487 160h66l6.1-24.2 16-64L585 32H544 192 167L161 56.2l-9.6 38.5L48.4 14.8zM206.6 137.6l.5-1.9L217 96H333.7L301.2 211.1l-94.6-73.4zM327.3 353.9L272.9 311 243.3 416H192 160v64h32H352h32V416H352 309.8l17.6-62.1z"/></svg>