<svg xmlns="http://www.w3.org/2000/svg" viewBox="0 0 640 512"><!--! Font Awesome Pro 6.2.0 by @fontawesome - https://fontawesome.com License - https://fontawesome.com/license (Commercial License) Copyright 2022 Fonticons, Inc. --><path d="M640 64H0V448H640V304c-26.5 0-48-21.5-48-48s21.5-48 48-48V64zM432 144c-8.8 0-16-7.2-16-16s7.2-16 16-16s16 7.2 16 16s-7.2 16-16 16zm0 64c-8.8 0-16-7.2-16-16s7.2-16 16-16s16 7.2 16 16s-7.2 16-16 16zm16 48c0 8.8-7.2 16-16 16s-16-7.2-16-16s7.2-16 16-16s16 7.2 16 16zm-16 80c-8.8 0-16-7.2-16-16s7.2-16 16-16s16 7.2 16 16s-7.2 16-16 16zm16 48c0 8.8-7.2 16-16 16s-16-7.2-16-16s7.2-16 16-16s16 7.2 16 16zM176 224l-32-96h56l56 96h46.9c16.1 0 31.5 6.4 42.8 17.7c7.9 7.9 7.9 20.7 0 28.5C334.4 281.6 319 288 302.9 288H256l-56 96H144l32-96H120L96 320H64l16-64L64 192H96l24 32h56z"/></svg>