<svg xmlns="http://www.w3.org/2000/svg" viewBox="0 0 640 512"><!--! Font Awesome Pro 6.2.0 by @fontawesome - https://fontawesome.com License - https://fontawesome.com/license (Commercial License) Copyright 2022 Fonticons, Inc. --><path d="M96 32V384H640V256c-26.5 0-48-21.5-48-48s21.5-48 48-48V32H96zm432 96c-8.8 0-16-7.2-16-16s7.2-16 16-16s16 7.2 16 16s-7.2 16-16 16zm0 64c-8.8 0-16-7.2-16-16s7.2-16 16-16s16 7.2 16 16s-7.2 16-16 16zm16 48c0 8.8-7.2 16-16 16s-16-7.2-16-16s7.2-16 16-16s16 7.2 16 16zm-16 80c-8.8 0-16-7.2-16-16s7.2-16 16-16s16 7.2 16 16s-7.2 16-16 16zM256 96h48l58.7 88H424c13.3 0 24 10.7 24 24s-10.7 24-24 24H362.7L304 320H256l33.5-88H242.3L224 264H192l16-56-16-56h32l18.3 32h47.2L256 96zM48 120V96H0v24V456v24H24 520h24V432H520 48V120z"/></svg>