<svg xmlns="http://www.w3.org/2000/svg" viewBox="0 0 512 512"><!--! Font Awesome Pro 6.2.0 by @fontawesome - https://fontawesome.com License - https://fontawesome.com/license (Commercial License) Copyright 2022 Fonticons, Inc. --><path d="M256 0H224V32 96v32h64V96 66.7C378.8 81.9 448 160.9 448 256c0 106-86 192-192 192S64 362 64 256c0-53.7 22-102.3 57.6-137.1l22.9-22.4L99.7 50.7 76.8 73.1C29.5 119.6 0 184.4 0 256C0 397.4 114.6 512 256 512s256-114.6 256-256S397.4 0 256 0zM193 159l-17-17L142.1 176l17 17 80 80 17 17L289.9 256l-17-17-80-80z"/></svg>