<svg xmlns="http://www.w3.org/2000/svg" viewBox="0 0 640 512"><!--! Font Awesome Pro 6.2.0 by @fontawesome - https://fontawesome.com License - https://fontawesome.com/license (Commercial License) Copyright 2022 Fonticons, Inc. --><path d="M152 72v48H104V72h48zM104 16H48V72v48 56H96v48H32 0v64H32 192v48H144v56 48 56h56 48 56V440 392 336H256V288H514.7l-33.4 33.4L458.7 344 504 389.3l22.6-22.6 88-88L637.3 256l-22.6-22.6-88-88L504 122.7 458.7 168l22.6 22.6L514.7 224H384V176h48V120 72 16H376 328 272V72v48 56h48v48H160V176h48V120 72 16H152 104zM328 72h48v48H328V72zM248 392v48H200V392h48z"/></svg>