<svg xmlns="http://www.w3.org/2000/svg" viewBox="0 0 512 512"><!--! Font Awesome Pro 6.2.0 by @fontawesome - https://fontawesome.com License - https://fontawesome.com/license (Commercial License) Copyright 2022 Fonticons, Inc. --><path d="M256 512c141.4 0 256-114.6 256-256S397.4 0 256 0S0 114.6 0 256S114.6 512 256 512zm32-256c0-17.7-14.3-32-32-32s-32 14.3-32 32s14.3 32 32 32s32-14.3 32-32zm-16.1 62l0 65c44.3-5.5 81.5-33.6 99.8-72.4l-61.9-20.1c-8.6 13.5-22.1 23.5-38 27.6zm47.9-58l61.8 20.1c1.5-7.8 2.3-15.9 2.3-24.2c0-36.8-15.5-69.9-40.3-93.3l-38.2 52.6c9.1 11 14.5 25.2 14.5 40.6c0 1.4 0 2.7-.1 4zm-40.2-63.5l38.2-52.6C299.5 133.8 278.4 128 256 128s-43.5 5.8-61.8 15.9l28.1 38.8 10 13.8c7.3-2.9 15.3-4.5 23.6-4.5s16.3 1.6 23.6 4.5zM168.3 162.7C143.5 186.1 128 219.2 128 256c0 8.3 .8 16.3 2.3 24.2L192.1 260c-.1-1.3-.1-2.7-.1-4c0-15.4 5.5-29.6 14.5-40.6l-10.1-13.9-28.1-38.7zm33.7 127.7l-61.9 20.1c18.3 38.8 55.5 66.9 99.8 72.4l0-65c-15.8-4.1-29.3-14.1-37.9-27.5zM256 416c-88.4 0-160-71.6-160-160s71.6-160 160-160s160 71.6 160 160s-71.6 160-160 160z"/></svg>