<svg xmlns="http://www.w3.org/2000/svg" viewBox="0 0 512 512"><!--! Font Awesome Pro 6.2.0 by @fontawesome - https://fontawesome.com License - https://fontawesome.com/license (Commercial License) Copyright 2022 Fonticons, Inc. --><path d="M320 0H192V41.3c-14.9 4.4-29.1 10.4-42.6 17.6L120.2 29.7 29.7 120.2l29.2 29.2c-7.3 13.4-13.2 27.7-17.6 42.6H0V320H41.3c4.4 14.9 10.4 29.1 17.6 42.6L29.7 391.8l90.5 90.5 29.2-29.2c13.4 7.3 27.7 13.2 42.6 17.6V512H320V470.7c14.9-4.4 29.1-10.4 42.6-17.6l29.2 29.2 90.5-90.5-29.2-29.2c7.3-13.4 13.2-27.7 17.6-42.6H512V192H470.7c-4.4-14.9-10.4-29.1-17.6-42.6l29.2-29.2L391.8 29.7 362.6 58.9c-13.4-7.3-27.7-13.2-42.6-17.6V0zM256 384c-70.7 0-128-57.3-128-128s57.3-128 128-128s128 57.3 128 128s-57.3 128-128 128zm0-176c13.3 0 24-10.7 24-24s-10.7-24-24-24s-24 10.7-24 24s10.7 24 24 24zm-61.1 2.9c-12.6-4.1-26.1 2.8-30.2 15.4s2.8 26.1 15.4 30.2s26.1-2.8 30.2-15.4s-2.8-26.1-15.4-30.2zm106.7 30.2c4.1 12.6 17.6 19.5 30.2 15.4s19.5-17.6 15.4-30.2s-17.6-19.5-30.2-15.4s-19.5 17.6-15.4 30.2zm-22.7 87.2c7.8 10.7 22.8 13.1 33.5 5.3s13.1-22.8 5.3-33.5s-22.8-13.1-33.5-5.3s-13.1 22.8-5.3 33.5zm-51.1-33.5c-10.7-7.8-25.7-5.4-33.5 5.3s-5.4 25.7 5.3 33.5s25.7 5.4 33.5-5.3s5.4-25.7-5.3-33.5z"/></svg>