<svg xmlns="http://www.w3.org/2000/svg" viewBox="0 0 640 512"><!--! Font Awesome Pro 6.2.0 by @fontawesome - https://fontawesome.com License - https://fontawesome.com/license (Commercial License) Copyright 2022 Fonticons, Inc. --><path d="M412.2 0H160c-25.1 0-48 19.3-65.1 50.9L48.4 14.8 29.4 .1 0 38 19 52.7 591.5 497.2l19 14.7L639.9 474l-19-14.7L576 424.4V343.1c-9.7 19.1-22.7 37.5-39 51.1l-26.2-20.3c22.2-15.1 40.7-45.9 52.3-85.9c8.2-28.2 12.8-61 12.8-96C576 86 533 0 480 0c-11.2 0-22 3.8-32 10.9c-37.3 26.4-64 97.5-64 181.1c0 33.6 4.3 65.1 11.9 92.6l-39.2-30.4c-3.1-19.9-4.7-40.7-4.7-62.2c0-56.9 11.5-110 31.5-150.1c7.5-15 17.1-29.7 28.7-41.9zM64 192c0 106 43 192 96 192H365.5L66.5 148.4C64.9 162.4 64 177 64 192zM224 416v96H528L406.2 416H224zM480 256c-17.7 0-32-28.7-32-64s14.3-64 32-64s32 28.7 32 64s-14.3 64-32 64z"/></svg>