<svg xmlns="http://www.w3.org/2000/svg" viewBox="0 0 640 512"><!--! Font Awesome Pro 6.2.0 by @fontawesome - https://fontawesome.com License - https://fontawesome.com/license (Commercial License) Copyright 2022 Fonticons, Inc. --><path d="M444.2 0C397.2 49.6 384 126.5 384 192c0 27.4-.5 54.7-1.9 81.9l57.8 44.9C425 284.9 416 240.6 416 192C416 86 459 0 512 0s96 86 96 192c0 99-37.4 180.4-85.5 190.9l98.4 76.4 19 14.7-29.4 37.9-19-14.7L19 52.7 0 38 29.4 .1l19 14.7L94.9 50.9C112 19.3 134.9 0 160 0H444.2zM66.5 148.4l303 238.8c-7.7 42.3-19.2 84-36.2 124.9H8l18.4-44.2C60.1 382.6 64 281.9 64 192c0-15 .9-29.6 2.5-43.6zM544 192c0-35.3-14.3-64-32-64s-32 28.7-32 64s14.3 64 32 64s32-28.7 32-64z"/></svg>