<svg xmlns="http://www.w3.org/2000/svg" viewBox="0 0 640 512"><!--! Font Awesome Pro 6.2.0 by @fontawesome - https://fontawesome.com License - https://fontawesome.com/license (Commercial License) Copyright 2022 Fonticons, Inc. --><path d="M384 192c0-65.5 13.2-142.4 60.2-192H160C107 0 64 86 64 192c0 89.9-3.9 190.6-37.6 275.8L8 512H333.3C376 409.7 384 301.9 384 192zM512 384c53 0 96-86 96-192S565 0 512 0s-96 86-96 192s43 192 96 192zm0-128c-17.7 0-32-28.7-32-64s14.3-64 32-64s32 28.7 32 64s-14.3 64-32 64zM144 208c0 8.8-7.2 16-16 16s-16-7.2-16-16s7.2-16 16-16s16 7.2 16 16zm64 0c0 8.8-7.2 16-16 16s-16-7.2-16-16s7.2-16 16-16s16 7.2 16 16zm48 16c-8.8 0-16-7.2-16-16s7.2-16 16-16s16 7.2 16 16s-7.2 16-16 16zm80-16c0 8.8-7.2 16-16 16s-16-7.2-16-16s7.2-16 16-16s16 7.2 16 16z"/></svg>