<svg xmlns="http://www.w3.org/2000/svg" viewBox="0 0 448 512"><!--! Font Awesome Pro 6.2.0 by @fontawesome - https://fontawesome.com License - https://fontawesome.com/license (Commercial License) Copyright 2022 Fonticons, Inc. --><path d="M24 0H0V48H24h8V196.9c-1.9 1.4-3.8 2.9-5.6 4.4C10.9 214.5 0 232.9 0 256c0 46.9 14.3 84.1 37 112.5c15.1 18.9 33.3 33.1 51.9 43.9L64 512H384l-24.9-99.6c18.6-10.8 36.8-25 51.9-43.9c22.7-28.4 37-65.5 37-112.5c0-23.1-10.9-41.5-26.4-54.6c-1.8-1.5-3.7-3-5.6-4.4V48h8 24V0H424 24zM384 256l0 .3c0 1-.3 2.6-3.8 5.6c-4.8 4.1-14 9-29.3 13.4C320.5 284 276.1 288 224 288s-96.5-4-126.9-12.8c-15.3-4.4-24.5-9.3-29.3-13.4c-3.5-3-3.8-4.6-3.8-5.6l0-.3 0-.1c0-1 0-2.5 3.8-5.8c4.8-4.1 14-9 29.3-13.4C127.5 228 171.9 224 224 224s96.5 4 126.9 12.8c15.3 4.4 24.5 9.3 29.3 13.4c3.8 3.2 3.8 4.8 3.8 5.8l0 .1zM112 64h32 16V96H144 112 96V64h16z"/></svg>