<svg xmlns="http://www.w3.org/2000/svg" viewBox="0 0 384 512"><!--! Font Awesome Pro 6.2.0 by @fontawesome - https://fontawesome.com License - https://fontawesome.com/license (Commercial License) Copyright 2022 Fonticons, Inc. --><path d="M154.1 52.1C137.3 39.1 116.7 32 95.5 32C42.7 32 0 74.7 0 127.5v6.2c0 15.8 3.7 31.3 10.7 45.5L41 239.6 80.4 460.2 83.9 480H104h8 19.9l3.7-19.5L163.9 312h56.3l28.3 148.5 3.7 19.5H272h8 20.1l3.5-19.8L343 239.6l30.2-60.5c7.1-14.1 10.7-29.7 10.7-45.5v-2.1c0-55-44.6-99.6-99.6-99.6c-24.1 0-47.4 8.8-65.6 24.6l-3.2 2.8 32.1 25-19.6 25.3-37-28.8-37-28.8z"/></svg>