<svg xmlns="http://www.w3.org/2000/svg" viewBox="0 0 576 512"><!--! Font Awesome Pro 6.2.0 by @fontawesome - https://fontawesome.com License - https://fontawesome.com/license (Commercial License) Copyright 2022 Fonticons, Inc. --><path d="M64 124.9c0 .9 0 1.8 0 2.7c0 .1 0 .3 0 .4c0 1.4 0 2.8 0 4.2c.6 34.1 8.9 66.3 23.1 95L29.7 255.5C10.7 217.1 0 173.8 0 128S10.7 38.9 29.7 .5L87.1 28.8C72.7 57.8 64.5 90.4 64 124.9zM96 128c0-30.5 7.1-59.4 19.8-85l57.4 28.3c-1 1.9-1.9 3.9-2.7 5.9l.6 .3C164 92.8 160 109.9 160 128m10.5 50.8c.9 2 1.8 4 2.7 5.9L115.8 213C103.1 187.4 96 158.5 96 128m64 0c0 18.1 4 35.2 11.1 50.5l-.6 .3M460.2 43C472.9 68.6 480 97.5 480 128s-7.1 59.4-19.8 85l-57.4-28.3c1-1.9 1.9-3.9 2.7-5.9l-.6-.3C412 163.2 416 146.1 416 128s-4-35.2-11.1-50.5l.6-.3c-.9-2-1.8-4-2.7-5.9L460.2 43zm51.7 91.5c.1-2.2 .1-4.3 .1-6.5c0-1.9 0-3.9-.1-5.8c-.9-33.5-9-65.1-23-93.4L546.3 .5c17.8 36 28.3 76.4 29.6 119c.1 2.7 .1 5.3 .1 8c0 .2 0 .4 0 .5c0 2.9 0 5.7-.1 8.6c-1.2 42.6-11.8 82.9-29.6 119l-57.4-28.3c13.9-28.1 22.1-59.5 23-92.7zM352 128c0 23.7-12.9 44.4-32 55.4V480v32H256V480 183.4c-19.1-11.1-32-31.7-32-55.4c0-35.3 28.7-64 64-64s64 28.7 64 64z"/></svg>