<svg xmlns="http://www.w3.org/2000/svg" viewBox="0 0 512 512"><!--! Font Awesome Pro 6.2.0 by @fontawesome - https://fontawesome.com License - https://fontawesome.com/license (Commercial License) Copyright 2022 Fonticons, Inc. --><path d="M216 0H192V48h24 16V96H176 160v16 16H72 31L41 167.8 79 320H48l0 64H80h32V512H400V384h32 32V320H433L471 167.8 481 128H440 352V112 96H336 280V48h16 24V0H296 256 216zM160 320H145l-1.9-7.8L113 192h47V320zm48 0V192h96V320H208zm159 0l-15 0V192h47L369 312.2 367 320z"/></svg>