<svg xmlns="http://www.w3.org/2000/svg" viewBox="0 0 640 512"><!--! Font Awesome Pro 6.2.0 by @fontawesome - https://fontawesome.com License - https://fontawesome.com/license (Commercial License) Copyright 2022 Fonticons, Inc. --><path d="M96 0h32H288h21.7l8 20.1 56 139.9H480V96 88.4l3.4-6.8 16-32 14.3-28.6 57.2 28.6L556.6 78.3 544 103.6V160h96v96l-66.4 57c-14-5.8-29.4-9-45.6-9c-39.3 0-74.1 18.9-96 48H352v32H311.8c-1.7 4.8-3.7 9.5-5.8 14.1l28.4 28.4-67.9 67.9L238.1 466c-4.6 2.2-9.3 4.1-14.1 5.8V512H128V471.8c-4.8-1.7-9.5-3.7-14.1-5.8L85.5 494.4 17.6 426.5 46 398.1c-2.2-4.6-4.1-9.3-5.8-14.1H0V288H40.2c1.7-4.8 3.7-9.5 5.8-14.1L17.6 245.5l67.9-67.9L96 188.1V160 32 0zM266.3 64H160v96h64 80.7L266.3 64zM176 256c-44.2 0-80 35.8-80 80s35.8 80 80 80s80-35.8 80-80s-35.8-80-80-80zM528 448c13.3 0 24-10.7 24-24s-10.7-24-24-24s-24 10.7-24 24s10.7 24 24 24zm0 64c-48.6 0-88-39.4-88-88c0-29.8 14.8-56.1 37.4-72c14.3-10.1 31.8-16 50.6-16c5.7 0 11.3 .5 16.7 1.6l.1 0c40.6 7.8 71.2 43.5 71.2 86.4c0 48.6-39.4 88-88 88z"/></svg>