<svg xmlns="http://www.w3.org/2000/svg" viewBox="0 0 320 512"><!--! Font Awesome Pro 6.2.0 by @fontawesome - https://fontawesome.com License - https://fontawesome.com/license (Commercial License) Copyright 2022 Fonticons, Inc. --><path d="M320 0H0V352c0 88.4 71.6 160 160 160s160-71.6 160-160V0zM160 320c26.5 0 48 21.5 48 48s-21.5 48-48 48s-48-21.5-48-48s21.5-48 48-48zm-48-80c0-26.5 21.5-48 48-48s48 21.5 48 48s-21.5 48-48 48s-48-21.5-48-48zM160 64c26.5 0 48 21.5 48 48s-21.5 48-48 48s-48-21.5-48-48s21.5-48 48-48z"/></svg>