<svg xmlns="http://www.w3.org/2000/svg" viewBox="0 0 448 512"><!--! Font Awesome Pro 6.2.0 by @fontawesome - https://fontawesome.com License - https://fontawesome.com/license (Commercial License) Copyright 2022 Fonticons, Inc. --><path d="M72 0H63.3L56.6 5.6l-48 40L39.4 82.4 80.7 48H200V96H64V448h40L40 512h80l64-64h80l64 64h80l-64-64h40V96H248V48H367.3l41.3 34.4 30.7-36.9-48-40L384.7 0H376 72zm56 160H320v96H128V160zm32 224c-17.7 0-32-14.3-32-32s14.3-32 32-32s32 14.3 32 32s-14.3 32-32 32zm160-32c0 17.7-14.3 32-32 32s-32-14.3-32-32s14.3-32 32-32s32 14.3 32 32z"/></svg>