<svg xmlns="http://www.w3.org/2000/svg" viewBox="0 0 512 512"><!--! Font Awesome Pro 6.2.0 by @fontawesome - https://fontawesome.com License - https://fontawesome.com/license (Commercial License) Copyright 2022 Fonticons, Inc. --><path d="M0 256C0 114.6 114.6 0 256 0S512 114.6 512 256V512H406.6l-64-64H400V128H112V448h57.4l-64 64H0V256zM297.4 448l64 64H150.6l64-64h82.7zM240 192V320H160V192h80zm32 128V192h80V320H272zm-88 80c-13.3 0-24-10.7-24-24s10.7-24 24-24s24 10.7 24 24s-10.7 24-24 24zm168-24c0 13.3-10.7 24-24 24s-24-10.7-24-24s10.7-24 24-24s24 10.7 24 24z"/></svg>