<svg xmlns="http://www.w3.org/2000/svg" viewBox="0 0 576 512"><!--! Font Awesome Pro 6.2.0 by @fontawesome - https://fontawesome.com License - https://fontawesome.com/license (Commercial License) Copyright 2022 Fonticons, Inc. --><path d="M407.1 32H339.6l21.3 64H215.1l21.3-64H168.9L147.6 96H112 80v64h32 14.3l-21.3 64H72 40v64H72 83.6L62.3 352H32 0v64H32h8.9L19.6 480H87.1l21.3-64H467.6l21.3 64h67.5l-21.3-64H544h32V352H544 513.7l-21.3-64H504h32V224H504 471.1l-21.3-64H464h32V96H464 428.4L407.1 32zM382.3 160l21.3 64H172.4l21.3-64H382.3zm42.7 128l21.3 64H129.7l21.3-64H424.9z"/></svg>