<svg xmlns="http://www.w3.org/2000/svg" viewBox="0 0 640 512"><!--! Font Awesome Pro 6.2.0 by @fontawesome - https://fontawesome.com License - https://fontawesome.com/license (Commercial License) Copyright 2022 Fonticons, Inc. --><path d="M544 32H0V384H65.1c7.8-54.3 54.4-96 110.9-96s103.1 41.7 110.9 96H480h32 32 64 32V320H608 544V32zM480 320H448V304l0-192V96h32v16l0 192v16zM96 96v16l0 131.2c-11.4 5.9-22.2 12.9-32 21V112 96H96zm80 128c-5.4 0-10.7 .2-16 .7L160 112V96h32v16l0 112.7c-5.3-.5-10.6-.7-16-.7zm80 19.2L256 112V96h32v16l0 152.2c-9.8-8.1-20.6-15.2-32-21zM384 96v16l0 192v16H352V304l0-192V96h32zM176 480c44.2 0 80-35.8 80-80s-35.8-80-80-80s-80 35.8-80 80s35.8 80 80 80zm0-48c-17.7 0-32-14.3-32-32s14.3-32 32-32s32 14.3 32 32s-14.3 32-32 32z"/></svg>