<svg xmlns="http://www.w3.org/2000/svg" viewBox="0 0 512 512"><!--! Font Awesome Pro 6.2.0 by @fontawesome - https://fontawesome.com License - https://fontawesome.com/license (Commercial License) Copyright 2022 Fonticons, Inc. --><path d="M224 0h64 16V32H288 224 208V0h16zm0 64h64 16V96H288 224 208V64h16zm-48 64H336h16v32H336 176 160V128h16zm-32 64H368h16v32H368 144 128V192h16zm-32 64H400h16v32H400 112 96V256h16zm64 64H336h16v32H336 176 160V320h16zm0 64H336h16v32H336 176 160V384h16zM416 512H296 216 96V448H416v64zM64 384l32 16L64 416 48 448 32 416 0 400l32-16 16-32 16 32zM464 128l16 32 32 16-32 16-16 32-16-32-32-16 32-16 16-32z"/></svg>