<svg xmlns="http://www.w3.org/2000/svg" viewBox="0 0 512 512"><!--! Font Awesome Pro 6.2.0 by @fontawesome - https://fontawesome.com License - https://fontawesome.com/license (Commercial License) Copyright 2022 Fonticons, Inc. --><path d="M256 96c26.5 0 48-21.5 48-48s-21.5-48-48-48s-48 21.5-48 48s21.5 48 48 48zm-51.1 32H189.6L180 140 103 236 83 261 133 301l20-25 31-38.7V288H328V237.3L359 276l20 25L429 261l-20-25L332 140l-9.6-12H307.1 204.9zM416 512V448H96v64H216h80H416zm48-384l-16 32-32 16 32 16 16 32 16-32 32-16-32-16-16-32zM64 352L48 320 32 352 0 368l32 16 16 32 16-32 32-16L64 352zm112-32H160v32h16H336h16V320H336 176zm0 64H160v32h16H336h16V384H336 176z"/></svg>