<svg xmlns="http://www.w3.org/2000/svg" viewBox="0 0 512 512"><!--! Font Awesome Pro 6.2.0 by @fontawesome - https://fontawesome.com License - https://fontawesome.com/license (Commercial License) Copyright 2022 Fonticons, Inc. --><path d="M304 48c0 26.5-21.5 48-48 48s-48-21.5-48-48s21.5-48 48-48s48 21.5 48 48zM189.6 128h15.4H307.1h15.4l9.6 12L409 236l20 25L379 301l-20-25-31-38.7V416H264V320H248v96H184V237.3L153 276l-20 25L83 261l20-25L180 140l9.6-12zM296 512H216 96V448H416v64H296zM480 32l32 16L480 64 464 96 448 64 416 48l32-16L464 0l16 32zM48 64L64 96l32 16L64 128 48 160 32 128 0 112 32 96 48 64z"/></svg>