<svg xmlns="http://www.w3.org/2000/svg" viewBox="0 0 512 512"><!--! Font Awesome Pro 6.2.0 by @fontawesome - https://fontawesome.com License - https://fontawesome.com/license (Commercial License) Copyright 2022 Fonticons, Inc. --><path d="M0 112V0H112l16 16L89 55l23 23 7-7 17-17L169.9 88l-17 17-7 7 15.2 15.2C187.7 107.6 220.5 96 256 96s68.3 11.6 94.9 31.2L423 55 384 16 400 0H512V112l-16 16L457 89l-72.1 72.1C404.4 187.7 416 220.5 416 256c0 80.2-59 146.6-136 158.2V432h16 24v48H296 280v8 24H232V488v-8H216 192V432h24 16V414.2C155 402.6 96 336.2 96 256c0-35.5 11.6-68.3 31.2-94.9L112 145.9l-7 7-17 17L54.1 136l17-17 7-7L55 89 16 128 0 112zM352 256c0-53-43-96-96-96s-96 43-96 96s43 96 96 96s96-43 96-96z"/></svg>