<svg xmlns="http://www.w3.org/2000/svg" viewBox="0 0 576 512"><!--! Font Awesome Pro 6.2.0 by @fontawesome - https://fontawesome.com License - https://fontawesome.com/license (Commercial License) Copyright 2022 Fonticons, Inc. --><path d="M144 0H304l16 32H448V96H0V32H128L144 0zM32 128H416v64.7c-29.3 2.6-56.6 12.5-80 27.7V208 192H304v16 39.2c-29.8 31.5-48 74-48 120.8c0 59.5 29.6 112.1 74.8 144H32V128zm112 64H112v16V432v16h32V432 208 192zm96 0H208v16V432v16h32V432 208 192zM576 368c0 79.5-64.5 144-144 144s-144-64.5-144-144s64.5-144 144-144s144 64.5 144 144zM448 288H416v16 64 16h16 48 16V352H480 448V304 288z"/></svg>