<svg xmlns="http://www.w3.org/2000/svg" viewBox="0 0 576 512"><!--! Font Awesome Pro 6.2.0 by @fontawesome - https://fontawesome.com License - https://fontawesome.com/license (Commercial License) Copyright 2022 Fonticons, Inc. --><path d="M144 0L128 32H0V96H448V32H320L304 0H144zM416 128H32L56 512H330.8C285.6 480.1 256 427.5 256 368c0-90.4 68.2-164.9 155.9-174.9L416 128zM576 368c0-79.5-64.5-144-144-144s-144 64.5-144 144s64.5 144 144 144s144-64.5 144-144zM448 288v16 48h32 16v32H480 432 416V368 304 288h32z"/></svg>