<svg xmlns="http://www.w3.org/2000/svg" viewBox="0 0 640 512"><!--! Font Awesome Pro 6.2.0 by @fontawesome - https://fontawesome.com License - https://fontawesome.com/license (Commercial License) Copyright 2022 Fonticons, Inc. --><path d="M64 128L192 0 320 128v32H272l80 96v32H304l80 96v32H224v64 32H160V480 416H0V384l80-96H32V256l80-96H64V128zM416 480V448 416 384 372.4l-7.4-8.9L372.3 320H384V288 256 244.4l-7.4-8.9L340.3 192H352V160 128 114.7l-9.4-9.4L448 0 576 128v32H528l80 96v32H560l80 96v32H480v64 32H416V480z"/></svg>