<svg xmlns="http://www.w3.org/2000/svg" viewBox="0 0 448 512"><!--! Font Awesome Pro 6.2.0 by @fontawesome - https://fontawesome.com License - https://fontawesome.com/license (Commercial License) Copyright 2022 Fonticons, Inc. --><path d="M144 81.3l53.3-28L224 0l26.7 53.3L304 80l-53.3 26.7L224 160l-26.7-53.3L144 81.3zM24 320L174.3 132.1 204.2 192h39.6l29.9-59.9L424 320v32H368l80 128v32H0V480L80 352H24V320zm160-32c0-13.3-10.7-24-24-24s-24 10.7-24 24s10.7 24 24 24s24-10.7 24-24zM288 440c13.3 0 24-10.7 24-24s-10.7-24-24-24s-24 10.7-24 24s10.7 24 24 24z"/></svg>