<svg xmlns="http://www.w3.org/2000/svg" viewBox="0 0 512 512"><!--! Font Awesome Pro 6.2.0 by @fontawesome - https://fontawesome.com License - https://fontawesome.com/license (Commercial License) Copyright 2022 Fonticons, Inc. --><path d="M256 32L0 480H512L256 32zM221.9 225.1l40 16 5.6 2.3 2.7 5.4 27.6 55.3 52.1 31.3L368 304l64 112H304l30.2-52.8-56.7-34-85.7-51.4-14.4-8.6 9.3-14 16-24 7.2-10.8 12.1 4.8zM272 184c0 13.3-10.7 24-24 24s-24-10.7-24-24s10.7-24 24-24s24 10.7 24 24zM173.2 307.4l14.9 9.3 60.3 37.7 7.5 4.7V368v32 16H240 224V400 376.9l-37.9-23.7L154.9 416H119.1l2.6-5.1 43.7-87.7 7.9-15.8z"/></svg>