<svg xmlns="http://www.w3.org/2000/svg" viewBox="0 0 640 512"><!--! Font Awesome Pro 6.2.0 by @fontawesome - https://fontawesome.com License - https://fontawesome.com/license (Commercial License) Copyright 2022 Fonticons, Inc. --><path d="M32 32H384V64h64 20.8l8.4 19 62.7 141H608v96h32v64H608 576c0 53-43 96-96 96s-96-43-96-96H256c0 53-43 96-96 96s-96-43-96-96H32 0V320H32V288H0V128H32V32zM384 224h85.9l-42.7-96H384v96zM112 384c0 26.5 21.5 48 48 48s48-21.5 48-48s-21.5-48-48-48s-48 21.5-48 48zm416 0c0-26.5-21.5-48-48-48s-48 21.5-48 48s21.5 48 48 48s48-21.5 48-48z"/></svg>