<svg xmlns="http://www.w3.org/2000/svg" viewBox="0 0 640 512"><!--! Font Awesome Pro 6.2.0 by @fontawesome - https://fontawesome.com License - https://fontawesome.com/license (Commercial License) Copyright 2022 Fonticons, Inc. --><path d="M224 0h32H384h16l9.6 12.8L496 128H608v96h32v64H608c-29.2-38.9-75.7-64-128-64s-98.8 25.1-128 64H288c-29.2-38.9-75.7-64-128-64s-98.8 25.1-128 64H0V224H32V128H224V32 0zM368 64H288v64H416L368 64zM128 256h64v20.6c7.4 2.2 14.6 5.2 21.3 8.8l14.6-14.6 45.3 45.3-14.6 14.6c3.6 6.7 6.6 13.8 8.8 21.3H288v64H267.4c-2.2 7.4-5.2 14.6-8.8 21.3l14.6 14.6-45.3 45.3-14.6-14.6c-6.7 3.6-13.8 6.6-21.3 8.8V512H128V491.4c-7.4-2.2-14.6-5.2-21.3-8.8L92.1 497.1 46.9 451.9l14.6-14.6c-3.6-6.7-6.6-13.8-8.8-21.3H32V352H52.6c2.2-7.4 5.2-14.6 8.8-21.3L46.9 316.1l45.3-45.3 14.6 14.6c6.7-3.6 13.8-6.6 21.3-8.8V256zm32 176c26.5 0 48-21.5 48-48s-21.5-48-48-48s-48 21.5-48 48s21.5 48 48 48zM448 276.6V256h64v20.6c7.4 2.2 14.6 5.2 21.3 8.8l14.6-14.6 45.3 45.3-14.6 14.6c3.6 6.7 6.6 13.8 8.8 21.3H608v64H587.4c-2.2 7.4-5.2 14.6-8.8 21.3l14.6 14.6-45.3 45.3-14.6-14.6c-6.7 3.6-13.8 6.6-21.3 8.8V512H448V491.4c-7.4-2.2-14.6-5.2-21.3-8.8l-14.6 14.6-45.3-45.3 14.6-14.6c-3.6-6.7-6.6-13.8-8.8-21.3H352V352h20.6c2.2-7.4 5.2-14.6 8.8-21.3l-14.6-14.6 45.3-45.3 14.6 14.6c6.7-3.6 13.8-6.6 21.3-8.8zM528 384c0-26.5-21.5-48-48-48s-48 21.5-48 48s21.5 48 48 48s48-21.5 48-48z"/></svg>