<svg xmlns="http://www.w3.org/2000/svg" viewBox="0 0 640 512"><!--! Font Awesome Pro 6.2.0 by @fontawesome - https://fontawesome.com License - https://fontawesome.com/license (Commercial License) Copyright 2022 Fonticons, Inc. --><path d="M128 32h32H288h18.1l9.3 15.5L402.1 192H480v96h32V176v-8.9l4.6-7.6 48-80L581 52.1 635.9 85l-16.5 27.4L576 184.9V288v64 7.1l43.4 72.4L635.9 459 581 491.9l-16.5-27.4-48-80-4.6-7.6V368 352H474.5c3.5 10 5.5 20.8 5.5 32c0 53-43 96-96 96s-96-43-96-96c0-11.2 1.9-22 5.5-32H224c-1.9 0-3.8-.2-5.6-.5c3.7 10.2 5.6 21.1 5.6 32.5c0 53-43 96-96 96s-96-43-96-96c0-11.2 1.9-22 5.5-32H0V192H128V64 32zm64 160H327.5L269.9 96H192v96zM160 384c0-17.7-14.3-32-32-32s-32 14.3-32 32s14.3 32 32 32s32-14.3 32-32zm256 0c0-17.7-14.3-32-32-32s-32 14.3-32 32s14.3 32 32 32s32-14.3 32-32z"/></svg>