<svg xmlns="http://www.w3.org/2000/svg" viewBox="0 0 640 512"><!--! Font Awesome Pro 6.2.0 by @fontawesome - https://fontawesome.com License - https://fontawesome.com/license (Commercial License) Copyright 2022 Fonticons, Inc. --><path d="M416 0H0V416H64c0 53 43 96 96 96s96-43 96-96H384c0 53 43 96 96 96s96-43 96-96h32 32V352H608V288 256 224 210.7l-9.4-9.4-96-96L493.3 96H480 416V0zM544 240v16H416V160h48 2.7L544 237.3V240zM160 464c-26.5 0-48-21.5-48-48s21.5-48 48-48s48 21.5 48 48s-21.5 48-48 48zm368-48c0 26.5-21.5 48-48 48s-48-21.5-48-48s21.5-48 48-48s48 21.5 48 48zM257 95l80 80 17 17-17 17-80 80-17 17L206.1 272l17-17 39-39H96 72V168H96 262.1l-39-39-17-17L240 78.1l17 17z"/></svg>