<svg xmlns="http://www.w3.org/2000/svg" viewBox="0 0 640 512"><!--! Font Awesome Pro 6.2.0 by @fontawesome - https://fontawesome.com License - https://fontawesome.com/license (Commercial License) Copyright 2022 Fonticons, Inc. --><path d="M256 32H224V64 192H32v96H0v64H32 65.1c-.7 5.2-1.1 10.6-1.1 16c0 61.9 50.1 112 112 112s112-50.1 112-112c0-5.4-.4-10.8-1.1-16h66.3c-.7 5.2-1.1 10.6-1.1 16c0 61.9 50.1 112 112 112s112-50.1 112-112c0-5.4-.4-10.8-1.1-16H608h32V288H608V192H527.4L409 44l-9.6-12H384 256zM445.4 192H288V96h80.6l76.8 96zM128 368c0-26.5 21.5-48 48-48s48 21.5 48 48s-21.5 48-48 48s-48-21.5-48-48zm288 0c0-26.5 21.5-48 48-48s48 21.5 48 48s-21.5 48-48 48s-48-21.5-48-48z"/></svg>