<svg xmlns="http://www.w3.org/2000/svg" viewBox="0 0 640 512"><!--! Font Awesome Pro 6.2.0 by @fontawesome - https://fontawesome.com License - https://fontawesome.com/license (Commercial License) Copyright 2022 Fonticons, Inc. --><path d="M640 0V400c0 61.9-50.1 112-112 112c-61.6 0-111.6-49.8-112-111.3L48.6 502.8l-30.8 8.6L.6 449.7l30.8-8.6L352 352.1V0H640zM576 400c0-26.5-21.5-48-48-48s-48 21.5-48 48s21.5 48 48 48s48-21.5 48-48zM14.8 176.8l77.3-20.7L117 248.8l61.8-16.6-24.8-92.7 77.3-20.7 58 216.4-216.4 58-58-216.4z"/></svg>