<svg xmlns="http://www.w3.org/2000/svg" viewBox="0 0 640 512"><!--! Font Awesome Pro 6.2.0 by @fontawesome - https://fontawesome.com License - https://fontawesome.com/license (Commercial License) Copyright 2022 Fonticons, Inc. --><path d="M416 0H64V96H0v32H64 288v32H64 32v32H64 256v32H64 0v32H64 224v32H64V416c0 53 43 96 96 96s96-43 96-96H384c0 53 43 96 96 96s96-43 96-96h32 32V352H608V288 256 224 210.7l-9.4-9.4-96-96L493.3 96H480 416V0zM544 237.3V256H416V160h50.7L544 237.3zM160 464c-26.5 0-48-21.5-48-48s21.5-48 48-48s48 21.5 48 48s-21.5 48-48 48zm368-48c0 26.5-21.5 48-48 48s-48-21.5-48-48s21.5-48 48-48s48 21.5 48 48z"/></svg>