<svg xmlns="http://www.w3.org/2000/svg" viewBox="0 0 640 512"><!--! Font Awesome Pro 6.2.0 by @fontawesome - https://fontawesome.com License - https://fontawesome.com/license (Commercial License) Copyright 2022 Fonticons, Inc. --><path d="M576 416h32 32V352H608V288 256 224 210.7l-9.4-9.4-96-96L493.3 96H480 416 400 352V352H231.6c-17.6-19.6-43.1-32-71.6-32s-54 12.4-71.6 32H0v64H64c0 53 43 96 96 96s96-43 96-96h96 32c0 53 43 96 96 96s96-43 96-96zM416 160h50.7L544 237.3V256H416V160zM208 416c0 26.5-21.5 48-48 48s-48-21.5-48-48s21.5-48 48-48s48 21.5 48 48zm272 48c-26.5 0-48-21.5-48-48s21.5-48 48-48s48 21.5 48 48s-21.5 48-48 48z"/></svg>