<svg xmlns="http://www.w3.org/2000/svg" viewBox="0 0 640 512"><!--! Font Awesome Pro 6.2.0 by @fontawesome - https://fontawesome.com License - https://fontawesome.com/license (Commercial License) Copyright 2022 Fonticons, Inc. --><path d="M64 16V0h96L384 252V128 96h32 96 13.3l9.4 9.4 96 96 9.4 9.4V224v32 32V416H576c0 53-43 96-96 96s-96-43-96-96H256c0 53-43 96-96 96s-96-43-96-96H0V256H192L96 64V176c0 26.5-21.5 48-48 48s-48-21.5-48-48V160 144H32v16 16c0 8.8 7.2 16 16 16s16-7.2 16-16V32 16zM576 256V237.3L498.7 160H448v96H576zM208 416c0-26.5-21.5-48-48-48s-48 21.5-48 48s21.5 48 48 48s48-21.5 48-48zm272 48c26.5 0 48-21.5 48-48s-21.5-48-48-48s-48 21.5-48 48s21.5 48 48 48z"/></svg>