<svg xmlns="http://www.w3.org/2000/svg" viewBox="0 0 640 512"><!--! Font Awesome Pro 6.2.0 by @fontawesome - https://fontawesome.com License - https://fontawesome.com/license (Commercial License) Copyright 2022 Fonticons, Inc. --><path d="M512 285.5c38.4 25.4 71.5 63.4 96 98.5h32V64H608c-41.7 59.7-108.4 128-184 128H400V160 136H352v24 32H312V160 136H264v24 32H224V160 136H176v24 32H48V176H0v24 48 24H48V256H81.1C70.2 274.8 64 296.7 64 320c0 70.7 57.3 128 128 128h96l.1 0H384c69 0 125.2-54.6 127.9-122.9c-1-.8-1.9-1.6-2.9-2.3C488.8 307 468.3 296 448 291v29c0 29.8-20.4 54.9-48 62V256h24c8.1 0 16.1 .8 24 2.3c1.3 .2 2.6 .5 3.9 .8c21.1 4.6 41.2 14 60.1 26.5zM352 384H312V256h40V384zM176 258V382c-27.6-7.1-48-32.2-48-62s20.4-54.9 48-62zm48-2h40V384H224V256z"/></svg>