<svg xmlns="http://www.w3.org/2000/svg" viewBox="0 0 640 512"><!--! Font Awesome Pro 6.2.0 by @fontawesome - https://fontawesome.com License - https://fontawesome.com/license (Commercial License) Copyright 2022 Fonticons, Inc. --><path d="M144 0L0 32 0 64C0 311.4 200.6 512 448 512h32l32-144L368 288l-67 83.8C232.5 335.7 176.3 279.5 140.2 211L224 144 144 0zM288 0V64h64V0H288zm0 192v64h64V192H288zM400 96H336v64h64V96zM384 0V64h64V0H384zM496 96H432v64h64V96zM480 0V64h64V0H480zM592 96H528v64h64V96zM576 0V64h64V0H576zm64 192H576v64h64V192zm-256 0v64H544V192H384z"/></svg>