<svg xmlns="http://www.w3.org/2000/svg" viewBox="0 0 512 512"><!--! Font Awesome Pro 6.2.0 by @fontawesome - https://fontawesome.com License - https://fontawesome.com/license (Commercial License) Copyright 2022 Fonticons, Inc. --><path d="M452.3 204.8L512 113.2 494.9 96.6C363-32.2 149-32.2 17.1 96.6L0 113.2l59.7 91.6 119.5-33.3L170.3 93C226 76.2 286 76.2 341.7 93l-8.9 78.5 119.5 33.3zM32 256v64H96V256H32zm0 192v64H96V448H32zm112-96H80v64h64V352zm-16-96v64h64V256H128zm112 96H176v64h64V352zm-16-96v64h64V256H224zm112 96H272v64h64V352zm32 0v64h64V352H368zm16-96H320v64h64V256zm32 0v64h64V256H416zm64 192H416v64h64V448zm-352 0v64H384V448H128z"/></svg>