<svg xmlns="http://www.w3.org/2000/svg" viewBox="0 0 448 512"><!--! Font Awesome Pro 6.2.0 by @fontawesome - https://fontawesome.com License - https://fontawesome.com/license (Commercial License) Copyright 2022 Fonticons, Inc. --><path d="M160 32V64 99.3L279.2 65.2 310 56.4 327.6 118l-30.8 8.8L160 165.9v29.4l119.2-34.1 30.8-8.8L327.6 214l-30.8 8.8L160 261.9V416h64c70.7 0 128-57.3 128-128V256h64v32c0 106-86 192-192 192H128 96V448 280.1l-23.2 6.6L42 295.6 24.4 234l30.8-8.8L96 213.6V184.1l-23.2 6.6L42 199.6 24.4 138l30.8-8.8L96 117.6V64 32h64z"/></svg>