<svg xmlns="http://www.w3.org/2000/svg" viewBox="0 0 576 512"><!--! Font Awesome Pro 6.2.0 by @fontawesome - https://fontawesome.com License - https://fontawesome.com/license (Commercial License) Copyright 2022 Fonticons, Inc. --><path d="M0 32H576V480H0V32zM384 256c0-88.4-71.6-160-160-160S64 167.6 64 256s71.6 160 160 160s160-71.6 160-160zM512 112V96H480v16V276.2l-22.3 44.6-14.3-7.2-24 48-14.3 28.6 57.2 28.6 14.3-28.6 24-48-14.3-7.2 24-48 1.7-3.4V280 112zM224 288c-17.7 0-32-14.3-32-32s14.3-32 32-32s32 14.3 32 32s-14.3 32-32 32z"/></svg>