<svg xmlns="http://www.w3.org/2000/svg" viewBox="0 0 640 512"><!--! Font Awesome Pro 6.2.0 by @fontawesome - https://fontawesome.com License - https://fontawesome.com/license (Commercial License) Copyright 2022 Fonticons, Inc. --><path d="M576 64V352H64V64H576zM64 0H0V64 352v64H64 576h64V352 64 0H576 64zM96 448v64h32H512h32V448H512 128 96zM416 112V88.9L394.4 97l-128 48L256 148.9V160v48 49.8c-5-1.2-10.4-1.8-16-1.8c-26.5 0-48 14.3-48 32s21.5 32 48 32s48-14.3 48-32V219.1l96-36v42.7c-5-1.2-10.4-1.8-16-1.8c-26.5 0-48 14.3-48 32s21.5 32 48 32s48-14.3 48-32V160 112z"/></svg>