<svg xmlns="http://www.w3.org/2000/svg" viewBox="0 0 512 512"><!--! Font Awesome Pro 6.2.0 by @fontawesome - https://fontawesome.com License - https://fontawesome.com/license (Commercial License) Copyright 2022 Fonticons, Inc. --><path d="M64 0H96 368h13.3l9.4 9.4 48 48 9.4 9.4V80 192h64v96H480V512H32V288H0V192H64V32 0zM384 128H320V64H128V192h32l32 32H320l32-32h32V128zm48 192V288H400v32h32zm-96-32v32h32V288H336zm-32 0H272v32h32V288zm-64 0H208v32h32V288zm-64 0H144v32h32V288zm-64 0H80v32h32V288zm48 128H144v32h16H352h16V416H352 160zm-16-64H112v32h32V352zm32 32h32V352H176v32zm64-32v32h32V352H240zm64 32h32V352H304v32zm96-32H368v32h32V352z"/></svg>