<svg xmlns="http://www.w3.org/2000/svg" viewBox="0 0 640 512"><!--! Font Awesome Pro 6.2.0 by @fontawesome - https://fontawesome.com License - https://fontawesome.com/license (Commercial License) Copyright 2022 Fonticons, Inc. --><path d="M180 0h57.7l69.9 144.7L253 288H144V133.1L96 220.3V368v48H0V368 208 195.7l5.9-10.8 88-160L107.6 0H136h8 36zM144 352V320H264h56H496v32H388.4 349.9L392 415.2l8.9 13.3-26.6 17.8L365.4 433 320 364.8 274.6 433l-8.9 13.3-26.6-17.8 8.9-13.3L290.1 352H251.6 144zm77.3 45.5l-26.6 39.9 79.9 53.3 26.6-39.9L320 422.5l18.8 28.2 26.6 39.9 79.9-53.3-26.6-39.9-9-13.5H496V512H144V384h86.3l-9 13.5zM496 133.1V288H287.2l52.7-138.3L396.9 0H460h36 8 28.4l13.7 24.9 88 160 5.9 10.8V208 368v48H544V368 220.3l-48-87.3z"/></svg>