<svg xmlns="http://www.w3.org/2000/svg" viewBox="0 0 512 512"><!--! Font Awesome Pro 6.2.0 by @fontawesome - https://fontawesome.com License - https://fontawesome.com/license (Commercial License) Copyright 2022 Fonticons, Inc. --><path d="M512 256c0 141.4-114.6 256-256 256S0 397.4 0 256S114.6 0 256 0S512 114.6 512 256zM160.4 169.5L138 161.1 121.1 206l22.5 8.4 64 24 .4 .2v53.5l-30.8 92.3-7.6 22.8 45.5 15.2 7.6-22.8L249.3 320h13.4l26.5 79.6 7.6 22.8 45.5-15.2-7.6-22.8L304 292.1V238.6l.4-.2 64-24 22.5-8.4L374 161.1l-22.5 8.4L291.6 192H220.4l-59.9-22.5zM256 160c22.1 0 40-17.9 40-40s-17.9-40-40-40s-40 17.9-40 40s17.9 40 40 40z"/></svg>