<svg xmlns="http://www.w3.org/2000/svg" viewBox="0 0 512 512"><!--! Font Awesome Pro 6.2.0 by @fontawesome - https://fontawesome.com License - https://fontawesome.com/license (Commercial License) Copyright 2022 Fonticons, Inc. --><path d="M288 352v32H224V352 125.3l-65.4 65.4L136 213.3 90.7 168l22.6-22.6 120-120L256 2.7l22.6 22.6 120 120L421.3 168 376 213.3l-22.6-22.6L288 125.3V352zm32 64V352H512V512H0V352H192v64H320zm112 40c13.3 0 24-10.7 24-24s-10.7-24-24-24s-24 10.7-24 24s10.7 24 24 24z"/></svg>