<svg xmlns="http://www.w3.org/2000/svg" viewBox="0 0 640 512"><!--! Font Awesome Pro 6.2.0 by @fontawesome - https://fontawesome.com License - https://fontawesome.com/license (Commercial License) Copyright 2022 Fonticons, Inc. --><path d="M224 256c-70.7 0-128-57.3-128-128S153.3 0 224 0s128 57.3 128 128s-57.3 128-128 128zM404 484.3V512H0L64 304H305.4l-15.5 26.9L326 351.7l-36.1 20.8 77 133.2L404 484.3zm32-277.9h88.1v42.4c7.9 3.4 15.4 7.7 22.3 12.8l35-20.2 45 77.8-35.2 20.3c.4 4 .7 8.1 .7 12.3s-.2 8.2-.7 12.3l35.2 20.3-45 77.8-35.1-20.2c-6.9 5.1-14.3 9.4-22.3 12.8V497H436V454.8c-8-3.4-15.6-7.7-22.5-12.9l-34.9 20.1-45-77.8 34.9-20.1c-.4-4.1-.7-8.2-.7-12.4s.2-8.3 .7-12.4l-34.9-20.2 44.9-77.8 34.9 20.2c6.9-5.1 14.5-9.4 22.5-12.9V206.4zm92.1 145.3c0-26.5-21.5-48-48.1-48s-48.1 21.5-48.1 48s21.5 48 48.1 48s48.1-21.5 48.1-48z"/></svg>