<svg xmlns="http://www.w3.org/2000/svg" viewBox="0 0 448 512"><!--! Font Awesome Pro 6.2.0 by @fontawesome - https://fontawesome.com License - https://fontawesome.com/license (Commercial License) Copyright 2022 Fonticons, Inc. --><path d="M370.7 96C346 39.5 289.6 0 224 0S102 39.5 77.3 96H48V224H77.3c24.7 56.5 81.1 96 146.7 96s122-39.5 146.7-96H400V96H370.7zM336 128v32c0 53-43 96-96 96H208c-53 0-96-43-96-96V128l32-32H304l32 32zM192 160l-16-32-16 32-32 16 32 16 16 32 16-32 32-16-32-16zM97 304H48L0 512H128V416H320v96H448L400 304H351c-33.8 29.9-78.3 48-127 48s-93.2-18.1-127-48zm95 144H160v16 48h32V464 448zm80 32c8.8 0 16-7.2 16-16s-7.2-16-16-16s-16 7.2-16 16s7.2 16 16 16z"/></svg>