<svg xmlns="http://www.w3.org/2000/svg" viewBox="0 0 640 512"><!--! Font Awesome Pro 6.2.0 by @fontawesome - https://fontawesome.com License - https://fontawesome.com/license (Commercial License) Copyright 2022 Fonticons, Inc. --><path d="M224 256c70.7 0 128-57.3 128-128S294.7 0 224 0S96 57.3 96 128s57.3 128 128 128zM448 512L384 304H320v58c27.6 7.1 48 32.2 48 62v40 16H352 336 320V448h16V424c0-17.7-14.3-32-32-32s-32 14.3-32 32v24h16v32H272 256 240V464 424c0-29.8 20.4-54.9 48-62V304H160v66.3c23.1 6.9 40 28.3 40 53.7c0 30.9-25.1 56-56 56s-56-25.1-56-56c0-25.4 16.9-46.8 40-53.7V304H64L0 512H448zM168 424c0-13.3-10.7-24-24-24s-24 10.7-24 24s10.7 24 24 24s24-10.7 24-24zM384 0V224h64v64l96-64h96V0H384z"/></svg>