<svg xmlns="http://www.w3.org/2000/svg" viewBox="0 0 448 512"><!--! Font Awesome Pro 6.2.0 by @fontawesome - https://fontawesome.com License - https://fontawesome.com/license (Commercial License) Copyright 2022 Fonticons, Inc. --><path d="M64 167C64 74.8 135.6 0 224 0s160 74.8 160 167c0 119.3-160 217-160 217s-160-97.7-160-217zM224 384c16.7 27.3 16.7 27.3 16.7 27.3l0 0 .1 0 .1-.1 .5-.3c.4-.2 .9-.6 1.6-1c1.3-.9 3.2-2.1 5.6-3.7c4.7-3.1 11.4-7.7 19.4-13.6c13.5-10 31-23.7 49.2-40.7H400l48 160H0L48 352h82.9c18.1 16.9 35.6 30.7 49.2 40.7c8 5.8 14.6 10.4 19.4 13.6c2.4 1.6 4.3 2.8 5.6 3.7c.7 .4 1.2 .8 1.6 1l.5 .3 .1 .1 .1 0 0 0c0 0 0 0 16.7-27.3zm0 0l16.7 27.3L224 421.5l-16.7-10.2L224 384zM144 176H128 112v16c0 35.3 28.7 64 64 64h16 16V240c0-35.3-28.7-64-64-64zm96 64v16h16 16c35.3 0 64-28.7 64-64V176H320 304c-35.3 0-64 28.7-64 64z"/></svg>