<svg xmlns="http://www.w3.org/2000/svg" viewBox="0 0 448 512"><!--! Font Awesome Pro 6.2.0 by @fontawesome - https://fontawesome.com License - https://fontawesome.com/license (Commercial License) Copyright 2022 Fonticons, Inc. --><path d="M304 128v16c0 44.2-35.8 80-80 80s-80-35.8-80-80V128c0-5.5 .6-10.8 1.6-16H176h12l7.2-9.6L224 64l28.8 38.4L260 112h12 30.4c1 5.2 1.6 10.5 1.6 16zm47-16h9V64H336h-1.1C312.7 25.7 271.4 0 224 0s-88.7 25.7-110.9 64H112 88v48h9c-.7 5.2-1 10.6-1 16v16c0 21.7 5.4 42.1 14.9 59.9L96 256l32 16 24-16 8 32h32l16.9-16.9c5 .6 10 .9 15.1 .9s10.2-.3 15.1-.9L256 288h32l8-32 24 16 32-16-14.9-52.1c9.5-17.9 14.9-38.3 14.9-59.9V128c0-5.4-.3-10.8-1-16zm97 400L384 320H64L0 512H448z"/></svg>