<svg xmlns="http://www.w3.org/2000/svg" viewBox="0 0 448 512"><!--! Font Awesome Pro 6.2.0 by @fontawesome - https://fontawesome.com License - https://fontawesome.com/license (Commercial License) Copyright 2022 Fonticons, Inc. --><path d="M96 128V48L224 0 352 48v80h-.3c.2 2.6 .3 5.3 .3 8v40c0 70.7-57.3 128-128 128s-128-57.3-128-128V136c0-2.7 .1-5.4 .3-8H96zm48 48c0 44.2 35.8 80 80 80s80-35.8 80-80V160H144v16zM126.1 320L224 424l97.9-104H384l64 192H0L64 320h62.1zM208 64H184V96h24v24h32V96h24V64H240V40H208V64z"/></svg>