<svg xmlns="http://www.w3.org/2000/svg" viewBox="0 0 640 512"><!--! Font Awesome Pro 6.2.0 by @fontawesome - https://fontawesome.com License - https://fontawesome.com/license (Commercial License) Copyright 2022 Fonticons, Inc. --><path d="M224 256c-70.7 0-128-57.3-128-128S153.3 0 224 0s128 57.3 128 128s-57.3 128-128 128zM336 432c0 32.9 15.1 60.4 38.2 80H0L64 304H384l10.5 34c-34.1 19.1-58.5 52.3-58.5 94zM640 169v39 48 26.2l-25.7 5.1L560 298.2V432c0 44.2-43 80-96 80s-96-35.8-96-80s43-80 96-80c11.2 0 22 1.6 32 4.6V272 224 197.8l25.7-5.1 80-16L640 169z"/></svg>