<svg xmlns="http://www.w3.org/2000/svg" viewBox="0 0 448 512"><!--! Font Awesome Pro 6.2.0 by @fontawesome - https://fontawesome.com License - https://fontawesome.com/license (Commercial License) Copyright 2022 Fonticons, Inc. --><path d="M240 0V16 64H368V320H80V64H208V16 0h32zM16 128H48V256H16V128zm384 0h32V256H400V128zM160 192c17.7 0 32-14.3 32-32s-14.3-32-32-32s-32 14.3-32 32s14.3 32 32 32zm160-32c0-17.7-14.3-32-32-32s-32 14.3-32 32s14.3 32 32 32s32-14.3 32-32zm-80 80H208v32h32V240zM400 352l48 160H352V416H96v96H0L48 352H400zM176 464v48H144V464 448h32v16zm64 0v48H208V464 448h32v16zM176 240H144v32h32V240zm96 0v32h32V240H272zm32 224v48H272V464 448h32v16z"/></svg>