<svg xmlns="http://www.w3.org/2000/svg" viewBox="0 0 640 512"><!--! Font Awesome Pro 6.2.0 by @fontawesome - https://fontawesome.com License - https://fontawesome.com/license (Commercial License) Copyright 2022 Fonticons, Inc. --><path d="M0 0H24 136h24V48H136 48v88 24H0V136 24 0zM175.8 224c-26.5 0-48-21.5-48-48s21.5-48 48-48s48 21.5 48 48s-21.5 48-48 48zm41.1 32l-7.3 21.9L190.3 336H96l24-80h96.9zM544 336H449.7l-19.4-58.1L423.1 256H520l24 80zm-128 0l16 48H208l16-48 16-48h17.6H382.4 400l16 48zm48-112c-26.5 0-48-21.5-48-48s21.5-48 48-48s48 21.5 48 48s-21.5 48-48 48zm-80-32c0 35.3-28.7 64-64 64s-64-28.7-64-64s28.7-64 64-64s64 28.7 64 64zM616 0h24V24 136v24H592V136 48H504 480V0h24H616zM0 512V488 376 352H48v24 88h88 24v48H136 24 0zm616 0H504 480V464h24 88V376 352h48v24V488v24H616z"/></svg>