<svg xmlns="http://www.w3.org/2000/svg" viewBox="0 0 448 512"><!--! Font Awesome Pro 6.2.0 by @fontawesome - https://fontawesome.com License - https://fontawesome.com/license (Commercial License) Copyright 2022 Fonticons, Inc. --><path d="M304 128v16c0 44.2-35.8 80-80 80s-80-35.8-80-80V128c0-5.5 .6-10.8 1.6-16H192l32-32 32 32h46.4c1 5.2 1.6 10.5 1.6 16zM40 192h65.3c19 46.9 65 80 118.7 80s99.7-33.1 118.7-80H408V64H334.9C312.7 25.7 271.4 0 224 0s-88.7 25.7-110.9 64H40V192zM448 512L384 320H64L0 512H448z"/></svg>