<svg xmlns="http://www.w3.org/2000/svg" viewBox="0 0 448 512"><!--! Font Awesome Pro 6.2.0 by @fontawesome - https://fontawesome.com License - https://fontawesome.com/license (Commercial License) Copyright 2022 Fonticons, Inc. --><path d="M224 48c44.2 0 80 35.8 80 80v32c0 40.1-29.5 73.3-68 79.1V224 212H212v12 15.1c-38.5-5.8-68-39-68-79.1V128c0-44.2 35.8-80 80-80zM96 128v32 8L64 208v64h98c18.4 10.2 39.5 16 62 16s43.6-5.8 62-16h98V208l-32-40v-8V128C352 57.3 294.7 0 224 0S96 57.3 96 128zm96 16c8.8 0 16-7.2 16-16s-7.2-16-16-16s-16 7.2-16 16s7.2 16 16 16zm80-16c0-8.8-7.2-16-16-16s-16 7.2-16 16s7.2 16 16 16s16-7.2 16-16zm-48 31l-8.5 8.5C204.9 178.1 194.1 180 192 180H180v24h12c7 0 19.6-3 32.1-12.3c2.2 1.6 4.5 3.2 7.1 4.6c6.5 3.8 15.4 7.6 24.8 7.6h12V180H256c-3.3 0-7.8-1.5-12.8-4.4c-4.8-2.8-8.8-6.1-10.7-8.1L224 159zM448 512L384 320H343.9l-5.3-16H304 144 109.4l-5.3 16H64L0 512H208c0-8.8 7.2-16 16-16s16 7.2 16 16H448zM224 464c-8.8 0-16-7.2-16-16s7.2-16 16-16s16 7.2 16 16s-7.2 16-16 16zm-96-64V352H320v48l-40-16H168l-40 16z"/></svg>