<svg xmlns="http://www.w3.org/2000/svg" viewBox="0 0 640 512"><!--! Font Awesome Pro 6.2.0 by @fontawesome - https://fontawesome.com License - https://fontawesome.com/license (Commercial License) Copyright 2022 Fonticons, Inc. --><path d="M224 256c-70.7 0-128-57.3-128-128S153.3 0 224 0s128 57.3 128 128s-57.3 128-128 128zm96.1 48c2.3 74.7 36.7 158.5 106 208H0L64 304H320.1zm271.2 8.4L496 275.5V460.4c56.5-26.3 90.2-87 95.3-148zM496 512c-96-32-144-130.2-144-216V279.8L496 224l144 55.8V296c0 85.8-48 184-144 216z"/></svg>