<svg xmlns="http://www.w3.org/2000/svg" viewBox="0 0 448 512"><!--! Font Awesome Pro 6.2.0 by @fontawesome - https://fontawesome.com License - https://fontawesome.com/license (Commercial License) Copyright 2022 Fonticons, Inc. --><path d="M240 80H342.7c-7.9-19.5-20.4-36.5-36.2-49.9L240 80zm37.7-68.2C261.3 4.2 243.2 0 224 0c-53.7 0-99.7 33.1-118.7 80h81.4l91-68.2zM224 256c70.7 0 128-57.3 128-128c0-5.4-.3-10.8-1-16H97c-.7 5.2-1 10.6-1 16c0 70.7 57.3 128 128 128zM448 512L384 304H156.3l48 80H336h16v16V512h96zm-204.3 0L181.5 408.2 118.9 304H96V512H243.7zm37.3 0H320V416H223.5l57.6 96zM0 512H64V304L0 512z"/></svg>