<svg xmlns="http://www.w3.org/2000/svg" viewBox="0 0 640 512"><!--! Font Awesome Pro 6.2.0 by @fontawesome - https://fontawesome.com License - https://fontawesome.com/license (Commercial License) Copyright 2022 Fonticons, Inc. --><path d="M352 128c0 70.7-57.3 128-128 128s-128-57.3-128-128S153.3 0 224 0s128 57.3 128 128zm32 176l64 208H0L64 304H384zM633.9 160l-17 17-47 47 47 47 17 17L600 321.9l-17-17-47-47-47 47-17 17L438.1 288l17-17 47-47-47-47-17-17L472 126.1l17 17 47 47 47-47 17-17L633.9 160z"/></svg>