<svg xmlns="http://www.w3.org/2000/svg" viewBox="0 0 448 512"><!--! Font Awesome Pro 6.2.0 by @fontawesome - https://fontawesome.com License - https://fontawesome.com/license (Commercial License) Copyright 2022 Fonticons, Inc. --><path d="M352 128c0 70.7-57.3 128-128 128s-128-57.3-128-128S153.3 0 224 0s128 57.3 128 128zm32 176l64 208H0L64 304h64v66.3c-23.1 6.9-40 28.3-40 53.7c0 30.9 25.1 56 56 56s56-25.1 56-56c0-25.4-16.9-46.8-40-53.7V304H288v58c-27.6 7.1-48 32.2-48 62v40 16h16 16 16V448H272V424c0-17.7 14.3-32 32-32s32 14.3 32 32v24H320v32h16 16 16V464 424c0-29.8-20.4-54.9-48-62V304h64zM144 448c-13.3 0-24-10.7-24-24s10.7-24 24-24s24 10.7 24 24s-10.7 24-24 24z"/></svg>