<svg xmlns="http://www.w3.org/2000/svg" viewBox="0 0 640 512"><!--! Font Awesome Pro 6.2.0 by @fontawesome - https://fontawesome.com License - https://fontawesome.com/license (Commercial License) Copyright 2022 Fonticons, Inc. --><path d="M96 0V53.7 144c0 70.7 57.3 128 128 128s128-57.3 128-128V53.7 0L304 24l-16 8L224 0 160 32l-16-8L96 0zm48 144V128H304v16c0 44.2-35.8 80-80 80s-80-35.8-80-80zM448 512L384 304H64L0 512H448zm192 0L576 320H422.4l56.2 182.6 2.9 9.4H640zM432 256c61.9 0 112-50.1 112-112s-50.1-112-112-112c-17.2 0-33.5 3.9-48 10.8V53.7 144c0 31.4-9 60.6-24.6 85.3C379 245.9 404.3 256 432 256z"/></svg>