<svg xmlns="http://www.w3.org/2000/svg" viewBox="0 0 448 512"><!--! Font Awesome Pro 6.2.0 by @fontawesome - https://fontawesome.com License - https://fontawesome.com/license (Commercial License) Copyright 2022 Fonticons, Inc. --><path d="M96 48v80h.3c-.2 2.6-.3 5.3-.3 8v24 16 0 48L48 272v32H224 400V272l-48-48V176 160 136c0-2.7-.1-5.4-.3-8h.3V48L224 0 96 48zm48 128h64l32-32 16 16h48v16c0 44.2-35.8 80-80 80s-80-35.8-80-80zM213.3 32h21.3V53.3H256V74.7H234.7V96H213.3V74.7H192V53.3h21.3V32zM224 424l-82.8-88H64L0 512H448L384 336H306.8L224 424z"/></svg>