<svg xmlns="http://www.w3.org/2000/svg" viewBox="0 0 448 512"><!--! Font Awesome Pro 6.2.0 by @fontawesome - https://fontawesome.com License - https://fontawesome.com/license (Commercial License) Copyright 2022 Fonticons, Inc. --><path d="M121.1 87.5L160 0l64 32L288 0l38.9 87.5C380.5 96 416 111 416 128c0 14.3-25 27.1-64.6 35.9c.4 4 .6 8 .6 12.1c0 17-3.3 33.2-9.3 48H416L375.3 336H416l32 176H0L32 336H72.7L32 224h73.3c-6-14.8-9.3-31-9.3-48c0-4.1 .2-8.1 .6-12.1C57 155.1 32 142.3 32 128c0-17 35.5-32 89.1-40.5zM144 224h64l8-32h16l8 32h64l13.5-54.1C289.8 173.8 258 176 224 176s-65.8-2.2-93.5-6.1L144 224zm-16 64l48 192 32-128-16-32-64-32zM272 480l48-192-64 32-16 32 32 128z"/></svg>