<svg xmlns="http://www.w3.org/2000/svg" viewBox="0 0 448 512"><!--! Font Awesome Pro 6.2.0 by @fontawesome - https://fontawesome.com License - https://fontawesome.com/license (Commercial License) Copyright 2022 Fonticons, Inc. --><path d="M240 0V16 64H368V320H80V64H208V16 0h32zM16 128H48V256H16V128zm384 0h32V256H400V128zM240 240H208v32h32V240zM400 352l48 160H352V416H96v96H0L48 352H400zM176 464v48H144V464 448h32v16zm96-224v32h32V240H272zm-96 0H144v32h32V240zm64 208v16 48H208V464 448h32zm64 16v48H272V464 448h32v16zM128 111l-17 17 8.5 8.5L143 160l-23.5 23.5L111 192l17 17 8.5-8.5L160 177l23.5 23.5L192 209l17-17-8.5-8.5L177 160l23.5-23.5L209 128l-17-17-8.5 8.5L160 143l-23.5-23.5L128 111zm136.5 8.5L256 111l-17 17 8.5 8.5L271 160l-23.5 23.5L239 192l17 17 8.5-8.5L288 177l23.5 23.5L320 209l17-17-8.5-8.5L305 160l23.5-23.5L337 128l-17-17-8.5 8.5L288 143l-23.5-23.5z"/></svg>