<svg xmlns="http://www.w3.org/2000/svg" viewBox="0 0 640 512"><!--! Font Awesome Pro 6.2.0 by @fontawesome - https://fontawesome.com License - https://fontawesome.com/license (Commercial License) Copyright 2022 Fonticons, Inc. --><path d="M224 80c0-44.2-35.8-80-80-80S64 35.8 64 80s35.8 80 80 80s80-35.8 80-80zm368 0c0-44.2-35.8-80-80-80s-80 35.8-80 80s35.8 80 80 80s80-35.8 80-80zM196 192H48L0 320H235.3c-26.6-23.5-43.3-57.8-43.3-96c0-11 1.4-21.8 4-32zm418.1 59.1L592 192H444c2.6 10.2 4 21 4 32h32 64 32v32 17.1l0 0 14.8-8.6 23.3-13.5zM320 128c-53 0-96 43-96 96s43 96 96 96c19.9 0 38.3-6 53.7-16.4l15.8-27.3 16-27.7 6.3 3.7c2.7-8.9 4.2-18.4 4.2-28.2c0-53-43-96-96-96zm25.7 224H176L128 512H401.1l-11.7-20.3-32-55.4-16-27.7 27.7-16L384 384l-14.9-8.6-27.7-16 4.3-7.4zM544 293.5V256H480v37.5c-11.2 4-21.5 10-30.4 17.6l-32.5-18.7-32 55.4 32.5 18.7c-1 5.7-1.6 11.6-1.6 17.6s.6 11.9 1.6 17.5l-32.5 18.7 32 55.4L449.6 457c8.9 7.6 19.2 13.6 30.4 17.6V512h64V474.5c11.2-4 21.5-10 30.4-17.6l32.5 18.7 32-55.4-32.5-18.7c1-5.7 1.6-11.6 1.6-17.5s-.6-11.9-1.6-17.6l32.5-18.7-32-55.4L574.4 311c-8.9-7.6-19.1-13.6-30.4-17.6zm8 90.5c0 22.1-17.9 40-40 40s-40-17.9-40-40s17.9-40 40-40s40 17.9 40 40z"/></svg>