<svg xmlns="http://www.w3.org/2000/svg" viewBox="0 0 640 512"><!--! Font Awesome Pro 6.2.0 by @fontawesome - https://fontawesome.com License - https://fontawesome.com/license (Commercial License) Copyright 2022 Fonticons, Inc. --><path d="M144 160c-44.2 0-80-35.8-80-80S99.8 0 144 0s80 35.8 80 80s-35.8 80-80 80zm368 0c-44.2 0-80-35.8-80-80s35.8-80 80-80s80 35.8 80 80s-35.8 80-80 80zM48 192H196c-2.6 10.2-4 21-4 32c0 38.2 16.8 72.5 43.3 96H0L48 192zM640 320H608V288H576 512 480v32H404.7c26.6-23.5 43.3-57.8 43.3-96c0-11-1.4-21.8-4-32H592l48 128zM480 480v32H128l48-160H416v32 64 32h32 32zM416 224c0 53-43 96-96 96s-96-43-96-96s43-96 96-96s96 43 96 96zm96 96h64v64h64v64H576v64H512V448H448V384h64V320z"/></svg>