<svg xmlns="http://www.w3.org/2000/svg" viewBox="0 0 448 512"><!--! Font Awesome Pro 6.2.0 by @fontawesome - https://fontawesome.com License - https://fontawesome.com/license (Commercial License) Copyright 2022 Fonticons, Inc. --><path d="M224 32C135.6 32 64 103.6 64 192v32H32V192C32 86 118 0 224 0S416 86 416 192V304v16H400 272 224 176V256h96v32H384V192c0-88.4-71.6-160-160-160zM0 512L48 352h96 32 48 48H400l48 160H0zM144 291.9c-29.3-23.5-48-59.5-48-99.9c0-70.7 57.3-128 128-128s128 57.3 128 128c0 23.3-6.2 45.2-17.1 64H304V224H272 176 144v32 35.9z"/></svg>