<svg xmlns="http://www.w3.org/2000/svg" viewBox="0 0 640 512"><!--! Font Awesome Pro 6.2.0 by @fontawesome - https://fontawesome.com License - https://fontawesome.com/license (Commercial License) Copyright 2022 Fonticons, Inc. --><path d="M303.9 213.2C314.1 198 320 179.7 320 160L288 0H256V160H240L224 0H192L180.3 117.2 160 101.4V0H128L114.7 66.3 48.4 14.8 29.4 .1 0 38 19 52.7 591.5 497.2l19 14.7L639.9 474l-19-14.7L544 399.6V352 240 208 0C512 0 384 32 384 176v99.4l-80.1-62.2zM96.8 172.2c5.3 42 37.8 75.5 79.2 82.4V480v32h64V480 285.1L96.8 172.2z"/></svg>