<svg xmlns="http://www.w3.org/2000/svg" viewBox="0 0 640 512"><!--! Font Awesome Pro 6.2.0 by @fontawesome - https://fontawesome.com License - https://fontawesome.com/license (Commercial License) Copyright 2022 Fonticons, Inc. --><path d="M249.9 64H512c35.3 0 64 28.7 64 64c0 21.9-11 41.2-27.8 52.8C513.8 148.1 467.2 128 416 128H352V292c10.2-2.6 21-4 32-4c70.7 0 128 57.3 128 128c0 38.2-16.8 72.5-43.3 96H608V320c0-31.7-7.7-61.7-21.3-88C619 208.7 640 170.8 640 128C640 57.3 582.7 0 512 0H224 198.1l-5.4 25.3L150.1 224h65.5L249.9 64zM208.7 256H143.3L109 416H48L0 464v48H127.4c.4 0 .9 0 1.3 0H224V416H174.4l34.3-160zM480 416c0-53-43-96-96-96s-96 43-96 96s43 96 96 96s96-43 96-96zm-64 0c0 17.7-14.3 32-32 32s-32-14.3-32-32s14.3-32 32-32s32 14.3 32 32z"/></svg>