<svg xmlns="http://www.w3.org/2000/svg" viewBox="0 0 512 512"><!--! Font Awesome Pro 6.2.0 by @fontawesome - https://fontawesome.com License - https://fontawesome.com/license (Commercial License) Copyright 2022 Fonticons, Inc. --><path d="M64 32H0V64 448v32H64V448 64 32zM182.6 137.4L160 114.7 114.7 160l22.6 22.6L210.7 256l-73.4 73.4L114.7 352 160 397.3l22.6-22.6L256 301.3l73.4 73.4L352 397.3 397.3 352l-22.6-22.6L301.3 256l73.4-73.4L397.3 160 352 114.7l-22.6 22.6L256 210.7l-73.4-73.4zM512 64V32H448V64 448v32h64V448 64z"/></svg>