<svg xmlns="http://www.w3.org/2000/svg" viewBox="0 0 576 512"><!--! Font Awesome Pro 6.2.0 by @fontawesome - https://fontawesome.com License - https://fontawesome.com/license (Commercial License) Copyright 2022 Fonticons, Inc. --><path d="M576 0H0V480H80l16 32h64l16-32H400l16 32h64l16-32h80V0zM224 320c44.2 0 80-35.8 80-80s-35.8-80-80-80s-80 35.8-80 80s35.8 80 80 80zm0 80c-88.4 0-160-71.6-160-160s71.6-160 160-160s160 71.6 160 160s-71.6 160-160 160zM480 221.3V352H448V221.3c-18.6-6.6-32-24.4-32-45.3c0-26.5 21.5-48 48-48s48 21.5 48 48c0 20.9-13.4 38.7-32 45.3z"/></svg>