<svg xmlns="http://www.w3.org/2000/svg" viewBox="0 0 448 512"><!--! Font Awesome Pro 6.2.0 by @fontawesome - https://fontawesome.com License - https://fontawesome.com/license (Commercial License) Copyright 2022 Fonticons, Inc. --><path d="M400 80v32H368V80h32zM368 32H320V64H128V32H80 48 0V80v32 48H32V352H0v48 32 48H48 80h48V448H320v32h48 32 48V432 400 352H416V160h32V112 80 32H400 368zM96 160h32V128H320v32h32V352H320v32H128V352H96V160zM80 400v32H48V400H80zm288 0h32v32H368V400zM48 80H80v32H48V80z"/></svg>