<svg xmlns="http://www.w3.org/2000/svg" viewBox="0 0 448 512"><!--! Font Awesome Pro 6.2.0 by @fontawesome - https://fontawesome.com License - https://fontawesome.com/license (Commercial License) Copyright 2022 Fonticons, Inc. --><path d="M0 32H128V64H320V32H448V160H384.3l-4.5 7.9L352 216.5v79l27.8 48.6 4.5 7.9H448V480H320V448H128v32H0V352H32V160H0V32zM320 368.5L292.3 320H224V192h68.3L320 143.5V128H128v32H96V352h32v32H320V368.5zM48 80v32H80V80H48zm320 0v32h32V80H368zM80 400H48v32H80V400zm288 0v32h32V400H368zM304 240H272v32h32V240z"/></svg>