<svg xmlns="http://www.w3.org/2000/svg" viewBox="0 0 512 512"><!--! Font Awesome Pro 6.2.0 by @fontawesome - https://fontawesome.com License - https://fontawesome.com/license (Commercial License) Copyright 2022 Fonticons, Inc. --><path d="M192 0H320V41.3C392.2 62.8 449.2 119.8 470.7 192H512V320H470.7C449.2 392.2 392.2 449.2 320 470.7V512H192V470.7C119.8 449.2 62.8 392.2 41.3 320H0V192H41.3C62.8 119.8 119.8 62.8 192 41.3V0zM402.7 192c-16.1-36.9-45.8-66.6-82.7-82.7V128H192V109.3c-36.9 16.1-66.6 45.8-82.7 82.7H128V320H109.3c16.1 36.9 45.8 66.6 82.7 82.7V384H320v18.7c36.9-16.1 66.6-45.8 82.7-82.7H384V192h18.7zM240 48V80h32V48H240zm32 384H240v32h32V432zM432 240v32h32V240H432zM80 240H48v32H80V240z"/></svg>