<svg xmlns="http://www.w3.org/2000/svg" viewBox="0 0 640 512"><!--! Font Awesome Pro 6.2.0 by @fontawesome - https://fontawesome.com License - https://fontawesome.com/license (Commercial License) Copyright 2022 Fonticons, Inc. --><path d="M176 288c61.9 0 112-50.1 112-112s-50.1-112-112-112S64 114.1 64 176s50.1 112 112 112zM352 176c0 86.3-62.1 158.1-144 173.1V384h32 32v64H240 208v32 32H144V480 448H112 80V384h32 32V349.1C62.1 334.1 0 262.3 0 176C0 78.8 78.8 0 176 0s176 78.8 176 176zM271.9 360.6c19.3-10.1 36.9-23.1 52.1-38.4c20 18.5 46.7 29.8 76.1 29.8c61.9 0 112-50.1 112-112s-50.1-112-112-112c-7.2 0-14.3 .7-21.1 2c-4.9-21.5-13-41.7-24-60.2C369.3 66 384.4 64 400 64c37 0 71.4 11.4 99.8 31l21.6-21.6L480 32 512 0H640V128l-32 32-41.4-41.4L545 140.2c19.5 28.4 31 62.7 31 99.8c0 97.2-78.8 176-176 176c-50.5 0-96-21.3-128.1-55.4z"/></svg>