<svg xmlns="http://www.w3.org/2000/svg" viewBox="0 0 512 512"><!--! Font Awesome Pro 6.2.0 by @fontawesome - https://fontawesome.com License - https://fontawesome.com/license (Commercial License) Copyright 2022 Fonticons, Inc. --><path d="M0 32H32 96h64 64 32V64 96H224V208.5l-47.4 47.4 39.6 39.6 .6 .6H216 160V408h56 .8l-.6 .6-39.6 39.6 11 11c-16.4 13-37.1 20.8-59.7 20.8c-53 0-96-43-96-96V96H0V64 32zM96 96v96h64V96H96zM216 376l0 0H192V352 328h24 .1c28.8 0 43.2-34.8 22.8-55.2l-17-17 17-17 17-17 17 17c20.4 20.4 55.2 5.9 55.2-22.9l0-.1V192h24 24v24 .2c.1 28.7 34.9 43 55.2 22.7l17-17 17 17 17 17-17 17c-20.4 20.4-6 55.2 22.8 55.2h.1 24v24 24H488l0 0c-28.8 0-43.2 34.8-22.9 55.2l17 17-17 17-17 17-17-17c-20.3-20.3-55-6-55.2 22.7v.2 24H352 328V488.2l0-.2c0-28.8-34.8-43.2-55.2-22.9l-17 17-17-17-17-17 17-17c20.4-20.4 5.9-55.2-22.9-55.2zm104-24c17.7 0 32-14.3 32-32s-14.3-32-32-32s-32 14.3-32 32s14.3 32 32 32zm88 32c0-13.3-10.7-24-24-24s-24 10.7-24 24s10.7 24 24 24s24-10.7 24-24z"/></svg>