<svg xmlns="http://www.w3.org/2000/svg" viewBox="0 0 512 512"><!--! Font Awesome Pro 6.2.0 by @fontawesome - https://fontawesome.com License - https://fontawesome.com/license (Commercial License) Copyright 2022 Fonticons, Inc. --><path d="M0 32H32 96h64 64 32V96H224V266.8c-20.2 28.6-32 63.5-32 101.2c0 25.2 5.3 49.1 14.8 70.8C189.5 463.7 160.6 480 128 480c-53 0-96-43-96-96V96H0V32zM96 96v96h64V96H96zM512 368c0 79.5-64.5 144-144 144s-144-64.5-144-144s64.5-144 144-144s144 64.5 144 144zm-65.4-32L424 313.4l-11.3 11.3L352 385.4l-28.7-28.7L312 345.4 289.4 368l11.3 11.3 40 40L352 430.6l11.3-11.3 72-72L446.6 336z"/></svg>