<svg xmlns="http://www.w3.org/2000/svg" viewBox="0 0 640 512"><!--! Font Awesome Pro 6.2.0 by @fontawesome - https://fontawesome.com License - https://fontawesome.com/license (Commercial License) Copyright 2022 Fonticons, Inc. --><path d="M320 0s96 80 176 80h16v48H488h-8v55.7l6.9 5.4 37.9 30c1.7 1.3 2.7 2.1 3.6 2.7c7.3 4.8 30 18.1 56 18.1h24v48H608v0H584 544v75.9c6.6 7.2 13.5 13.7 20.7 19.2c14.4 11 28.8 16.9 43.3 16.9h8 24v48H616h-8H576v32 32H512V480 448H352v32 32H288V480 448H128v32 32H64V480 448H24 0V400H24c14.5 0 28.9-5.9 43.3-16.9c10.2-7.8 19.8-17.7 28.7-28.5V288H56h0H32V240H56l0 0c26 0 48.8-13.3 56-18.1c.9-.6 2-1.4 3.6-2.7l37.9-30 6.4-5.1V176 128h-8H128V80h16C224 80 320 0 320 0zm96 128H344 320 296 224v64h72v0H416V128zm64 160H344v0H320 160v64H296v0h24H480V288z"/></svg>