<svg xmlns="http://www.w3.org/2000/svg" viewBox="0 0 512 512"><!--! Font Awesome Pro 6.2.0 by @fontawesome - https://fontawesome.com License - https://fontawesome.com/license (Commercial License) Copyright 2022 Fonticons, Inc. --><path d="M320 48H296 280V81.6c30.7 4.2 58.8 16.3 82.3 34.1L386.1 92 374.8 80.6l-17-17 33.9-33.9 17 17L437 75l28.3 28.3 17 17-33.9 33.9-17-17L420 125.9l-23.8 23.8c17.9 23.5 29.9 51.7 34.1 82.3H464V216 192h48v24 40 40 24H464V296 280H430.4c-4.2 30.7-16.3 58.8-34.1 82.3L420 386.1l11.3-11.3 17-17 33.9 33.9-17 17L437 437l-28.3 28.3-17 17-33.9-33.9 17-17L386.1 420l-23.8-23.8c-23.5 17.9-51.7 29.9-82.3 34.1V464h16 24v48H296 256 216 192V464h24 16V430.4c-30.7-4.2-58.8-16.3-82.3-34.1L125.9 420l11.3 11.3 17 17-33.9 33.9-17-17L75 437 46.7 408.7l-17-17 33.9-33.9 17 17L92 386.1l23.8-23.8C97.9 338.8 85.8 310.7 81.6 280H48v16 24H0V296 256 216 192H48v24 16H81.6c4.2-30.7 16.3-58.8 34.1-82.3L92 125.9 80.6 137.2l-17 17L29.7 120.2l17-17L75 75l28.3-28.3 17-17 33.9 33.9-17 17L125.9 92l23.8 23.8c23.5-17.9 51.7-29.9 82.3-34.1V48H216 192V0h24 40 40 24V48zM240 224c0-26.5-21.5-48-48-48s-48 21.5-48 48s21.5 48 48 48s48-21.5 48-48zm64 104c13.3 0 24-10.7 24-24s-10.7-24-24-24s-24 10.7-24 24s10.7 24 24 24z"/></svg>