<svg xmlns="http://www.w3.org/2000/svg" viewBox="0 0 640 512"><!--! Font Awesome Pro 6.2.0 by @fontawesome - https://fontawesome.com License - https://fontawesome.com/license (Commercial License) Copyright 2022 Fonticons, Inc. --><path d="M168 0h24 24V24 37.5c0 35.6 43.1 53.5 68.3 28.3l9.5-9.5 17-17 17 17 0 0 0 0 17 17-17 17-9.5 9.5C293 124.9 310.9 168 346.5 168H360h24v24 24H360 346.5c-35.6 0-53.5 43.1-28.3 68.3l0 0 9.5 9.5 17 17-17 17-17 17-17-17-9.5-9.5 0 0C259.1 293 216 310.9 216 346.5V360v24H192 168V360 346.5c0-35.6-43.1-53.5-68.3-28.3l-9.5 9.5-17 17-17-17-17-17 17-17 9.5-9.5C91 259.1 73.1 216 37.5 216H24 0V192 168H24 37.5c35.6 0 53.5-43.1 28.3-68.3l-9.5-9.5-17-17 17-17 17-17 17 17 9.5 9.5 0 0C124.9 91 168 73.1 168 37.5V24 0zm72 224c8.8 0 16-7.2 16-16s-7.2-16-16-16s-16 7.2-16 16s7.2 16 16 16zm-48-64c0-17.7-14.3-32-32-32s-32 14.3-32 32s14.3 32 32 32s32-14.3 32-32zM597.8 266.2l11.3 11.3-11.3 11.3C574.5 312.1 591 352 624 352h16v16 16H624c-33 0-49.5 39.9-26.2 63.2l11.3 11.3-11.3 11.3-11.3 11.3-11.3-11.3C551.9 446.5 512 463 512 496v16H496 480V496c0-33-39.9-49.5-63.2-26.2l-11.3 11.3-11.3-11.3 0 0-11.3-11.3 11.3-11.3C417.5 423.9 401 384 368 384H352V368 352h16c33 0 49.5-39.9 26.2-63.2l-11.3-11.3 11.3-11.3 0 0 11.3-11.3 11.3 11.3C440.1 289.5 480 273 480 240V224h16 16v16c0 33 39.9 49.5 63.2 26.2l11.3-11.3 11.3 11.3zM512 352c0-17.7-14.3-32-32-32s-32 14.3-32 32s14.3 32 32 32s32-14.3 32-32z"/></svg>