<svg xmlns="http://www.w3.org/2000/svg" viewBox="0 0 640 512"><!--! Font Awesome Pro 6.2.0 by @fontawesome - https://fontawesome.com License - https://fontawesome.com/license (Commercial License) Copyright 2022 Fonticons, Inc. --><path d="M360 48h24V0H360 320 280 256V48h24 16V81.6c-38.3 5.2-72.7 22.8-99 48.5l-25.5-19.8 1.4-1.4 28.3-28.3 17-17L184.2 29.7l-17 17L139 75l-5.7 5.7L48.4 14.8 29.4 .1 0 38 19 52.7 591.5 497.2l19 14.7L639.9 474l-19-14.7L472.4 344c11.2-19.3 18.8-41 21.9-64H528v16 24h48V296 256 216 192H528v24 16H494.4c-4.2-30.7-16.3-58.8-34.1-82.3L484 125.9l11.3 11.3 17 17 33.9-33.9-17-17L501 75 472.7 46.7l-17-17L421.8 63.7l17 17L450.1 92l-23.8 23.8C402.8 97.9 374.7 85.8 344 81.6V48h16zm41.3 364.2L149.2 213.5c-1.5 6-2.7 12.2-3.5 18.5H112V216 192H64v24 40 40 24h48V296 280h33.6c4.2 30.7 16.3 58.8 34.1 82.3L156 386.1l-11.3-11.3-17-17L93.7 391.8l17 17L139 437l28.3 28.3 17 17 33.9-33.9-17-17L189.9 420l23.8-23.8c23.5 17.9 51.7 29.9 82.3 34.1V464H280 256v48h24 40 40 24V464H360 344V430.4c20.4-2.8 39.7-9.1 57.3-18.2z"/></svg>