<svg xmlns="http://www.w3.org/2000/svg" viewBox="0 0 512 512"><!--! Font Awesome Pro 6.2.0 by @fontawesome - https://fontawesome.com License - https://fontawesome.com/license (Commercial License) Copyright 2022 Fonticons, Inc. --><path d="M256 0H224V32 43.5c0 49.9-60.3 74.9-95.6 39.6L120.2 75 97.6 52.4 75 75l0 0 0 0L52.4 97.6 75 120.2l8.2 8.2 0 0C118.4 163.7 93.4 224 43.5 224H32 0v32 32H32 43.5c49.9 0 74.9 60.3 39.6 95.6L75 391.8 52.4 414.4 75 437l0 0 22.6 22.6L120.2 437l8.2-8.2 0 0c35.3-35.2 95.6-10.3 95.6 39.6V480v32h32 32V480 468.5c0-49.9 60.3-74.9 95.6-39.6l8.2 8.2 22.6 22.6L437 437l22.6-22.6L437 391.8l-8.2-8.2c-35.3-35.3-10.3-95.6 39.6-95.6H480h32V256 224H480 468.5c-49.9 0-74.9-60.3-39.6-95.6l8.2-8.2 22.6-22.6L437 75 414.4 52.4 391.8 75l-8.2 8.2 0 0C348.3 118.4 288 93.4 288 43.5V32 0H256zm16 224c0 26.5-21.5 48-48 48s-48-21.5-48-48s21.5-48 48-48s48 21.5 48 48zm32 104c-13.3 0-24-10.7-24-24s10.7-24 24-24s24 10.7 24 24s-10.7 24-24 24z"/></svg>