<svg xmlns="http://www.w3.org/2000/svg" viewBox="0 0 640 512"><!--! Font Awesome Pro 6.2.0 by @fontawesome - https://fontawesome.com License - https://fontawesome.com/license (Commercial License) Copyright 2022 Fonticons, Inc. --><path d="M320 0H288V32 43.5c0 49.9-60.3 74.9-95.6 39.6L184.2 75 161.6 52.4 139 75l0 0 0 0-5.7 5.7L48.4 14.8 29.4 .1 0 38 19 52.7 591.5 497.2l19 14.7L639.9 474l-19-14.7L476.4 347.1c-1.4-29.7 21.2-59.1 56-59.1H544h32V256 224H544 532.5c-49.9 0-74.9-60.3-39.6-95.6l8.2-8.2 22.6-22.6L501 75 478.4 52.4 455.8 75l-8.2 8.2 0 0C412.3 118.4 352 93.4 352 43.5V32 0H320zm14.3 236.8l-70.1-54.4c7-4 15.2-6.3 23.8-6.3c26.5 0 48 21.5 48 48c0 4.4-.6 8.7-1.7 12.8zM107.5 224H96 64v32 32H96h11.5c49.9 0 74.9 60.3 39.6 95.6l-8.2 8.2-22.6 22.6L139 437l0 0 22.6 22.6L184.2 437l8.2-8.2 0 0c35.3-35.2 95.6-10.3 95.6 39.6V480v32h32 32V480 468.5c0-31.2 23.6-52.7 50-55.7L144.7 210c-9.5 8.5-22.2 14-37.2 14z"/></svg>