<svg xmlns="http://www.w3.org/2000/svg" viewBox="0 0 512 512"><!--! Font Awesome Pro 6.2.0 by @fontawesome - https://fontawesome.com License - https://fontawesome.com/license (Commercial License) Copyright 2022 Fonticons, Inc. --><path d="M160 144c-35.3 0-64-28.7-64-64s28.7-64 64-64c15.7 0 30 5.6 41.2 15C212.4 12.4 232.7 0 256 0s43.6 12.4 54.8 31C322 21.6 336.3 16 352 16c35.3 0 64 28.7 64 64s-28.7 64-64 64H304l-32 48H240l-32-48H160zM298.4 272H213.6l-66.2 74.5L240 320l80 64 54-27-75.6-85zM192 224H320L512 440v24 48H464 48 0V464 440L192 224z"/></svg>