<svg xmlns="http://www.w3.org/2000/svg" viewBox="0 0 640 512"><!--! Font Awesome Pro 6.2.0 by @fontawesome - https://fontawesome.com License - https://fontawesome.com/license (Commercial License) Copyright 2022 Fonticons, Inc. --><path d="M48.4 14.8L29.4 .1 0 38 19 52.7 591.5 497.2l19 14.7L639.9 474l-19-14.7-77.2-59.9C583.2 364.2 608 313 608 256c0-62.8-30.2-118.6-76.8-153.6l-28.8 38.4c35 26.3 57.6 68.1 57.6 115.2c0 46-21.5 86.9-55.1 113.3L384 275.4V32H336L212.2 142 48.4 14.8zM64 160V352H192L336 480h48V398.5L81.2 160H64zM473.6 332.8C496.9 315.3 512 287.4 512 256s-15.1-59.3-38.4-76.8l-28.8 38.4c11.7 8.8 19.2 22.7 19.2 38.4s-7.5 29.6-19.2 38.4l28.8 38.4z"/></svg>