<svg xmlns="http://www.w3.org/2000/svg" viewBox="0 0 576 512"><!--! Font Awesome Pro 6.2.0 by @fontawesome - https://fontawesome.com License - https://fontawesome.com/license (Commercial License) Copyright 2022 Fonticons, Inc. --><path d="M32 160V352H160L304 480h48V32H304L160 160H32zM441.6 332.8C464.9 315.3 480 287.4 480 256s-15.1-59.3-38.4-76.8l-28.8 38.4c11.7 8.8 19.2 22.7 19.2 38.4s-7.5 29.6-19.2 38.4l28.8 38.4zm57.6 76.8c46.6-35 76.8-90.8 76.8-153.6s-30.2-118.6-76.8-153.6l-28.8 38.4c35 26.3 57.6 68.1 57.6 115.2s-22.6 88.9-57.6 115.2l28.8 38.4z"/></svg>