<svg xmlns="http://www.w3.org/2000/svg" viewBox="0 0 512 512"><!--! Font Awesome Pro 6.2.0 by @fontawesome - https://fontawesome.com License - https://fontawesome.com/license (Commercial License) Copyright 2022 Fonticons, Inc. --><path d="M512 256c0 141.4-114.6 256-256 256S0 397.4 0 256S114.6 0 256 0S512 114.6 512 256zM176 80H144V96v48H96 80v32H96h48v64H96 80v32H96h48v64H96 80v32H96h48v48 16h32V416 368h64v48 16h32V416 368h64v48 16h32V416 368h48 16V336H416 368V272h48 16V240H416 368V176h48 16V144H416 368V96 80H336V96v48H272V96 80H240V96v48H176V96 80zm0 256V272h64v64H176zm96 0V272h64v64H272zm64-160v64H272V176h64zm-96 0v64H176V176h64z"/></svg>