<svg xmlns="http://www.w3.org/2000/svg" viewBox="0 0 640 512"><!--! Font Awesome Pro 6.2.0 by @fontawesome - https://fontawesome.com License - https://fontawesome.com/license (Commercial License) Copyright 2022 Fonticons, Inc. --><path d="M0 0L224 16V224H64L0 0zM384 16V224H256V16H384zM64 256H576v64H542.4c20.7 20.3 33.6 48.7 33.6 80c0 61.9-50.1 112-112 112c-56.4 0-103.1-41.7-110.9-96H286.9c-7.8 54.3-54.4 96-110.9 96c-61.9 0-112-50.1-112-112c0-31.3 12.9-59.7 33.6-80H64V256zm96 160H114c5.8 22.5 23.5 40.2 46 46V416zm0-32V338c-22.5 5.8-40.2 23.5-46 46h46zm32 78c22.5-5.8 40.2-23.5 46-46H192v46zm0-124v46h46c-5.8-22.5-23.5-40.2-46-46zM448 462V416H402c5.8 22.5 23.5 40.2 46 46zm-46-78h46V338c-22.5 5.8-40.2 23.5-46 46zm124 32H480v46c22.5-5.8 40.2-23.5 46-46zm0-32c-5.8-22.5-23.5-40.2-46-46v46h46zM416 16L640 0 576 224H416V16z"/></svg>