<svg xmlns="http://www.w3.org/2000/svg" viewBox="0 0 448 512"><!--! Font Awesome Pro 6.2.0 by @fontawesome - https://fontawesome.com License - https://fontawesome.com/license (Commercial License) Copyright 2022 Fonticons, Inc. --><path d="M118.7 0H144 384h32V32 392.6c19.1 11.1 32 31.7 32 55.4c0 35.3-28.7 64-64 64s-64-28.7-64-64c0-23.7 12.9-44.4 32-55.4V224H131.5L71.1 479.4l-7.4 31.1L1.5 495.8l7.4-31.1 104-440L118.7 0zm27.9 160H352V64H169.3l-22.7 96zM384 464c8.8 0 16-7.2 16-16s-7.2-16-16-16s-16 7.2-16 16s7.2 16 16 16z"/></svg>