<svg xmlns="http://www.w3.org/2000/svg" viewBox="0 0 448 512"><!--! Font Awesome Pro 6.2.0 by @fontawesome - https://fontawesome.com License - https://fontawesome.com/license (Commercial License) Copyright 2022 Fonticons, Inc. --><path d="M0 0H448V512H0V0zM368 304c0-79.5-64.5-144-144-144s-144 64.5-144 144s64.5 144 144 144s144-64.5 144-144zM88 112c13.3 0 24-10.7 24-24s-10.7-24-24-24S64 74.7 64 88s10.7 24 24 24zM208 88c0-13.3-10.7-24-24-24s-24 10.7-24 24s10.7 24 24 24s24-10.7 24-24zm16 328c-61.9 0-112-50.1-112-112c0-16.5 3.6-32.2 10-46.3c7.4-1.1 14.8-1.7 22-1.7c32 0 56 16 80 32s48 32 80 32c10.9 0 21.4-.9 31.2-2.5C328.5 373 281.3 416 224 416z"/></svg>