<svg xmlns="http://www.w3.org/2000/svg" viewBox="0 0 384 512"><!--! Font Awesome Pro 6.2.0 by @fontawesome - https://fontawesome.com License - https://fontawesome.com/license (Commercial License) Copyright 2022 Fonticons, Inc. --><path d="M320 0V72.2C283.7 46.8 239.6 32 192 32s-91.7 14.8-128 40.2V0H320zm0 439.8V512H64V439.8c36.3 25.3 80.4 40.2 128 40.2s91.7-14.8 128-40.2zM384 256c0 106-86 192-192 192S0 362 0 256S86 64 192 64s192 86 192 192zM216 176V152H168v24 80 12.8l10.7 7.1 48 32 20 13.3 26.6-39.9-20-13.3L216 243.2V176z"/></svg>