<svg xmlns="http://www.w3.org/2000/svg" viewBox="0 0 576 512"><!--! Font Awesome Pro 6.2.0 by @fontawesome - https://fontawesome.com License - https://fontawesome.com/license (Commercial License) Copyright 2022 Fonticons, Inc. --><path d="M256 222.2V224h2l8.4 7.7L288 251.2l21.5-19.6L318 224h2v-1.8l77.5-70.5 23.7-21.5-43-47.4-23.7 21.5L320 135.7V32 0H256V32 135.7l-34.5-31.3L197.8 82.8l-43.1 47.4 23.7 21.5L256 222.2zm32 263.2c4.5 2.4 9.7 5.1 15.6 7.7c19.8 9 48.5 18.9 80.4 18.9s60.6-9.9 80.4-18.9c5.8-2.7 11.1-5.3 15.6-7.7c4.5 2.4 9.7 5.1 15.6 7.7c19.8 9 48.5 18.9 80.4 18.9V448c-19.3 0-38.6-6.1-54-13.1c-14.9-6.8-26.9-15.4-40-24.7l-2.1-1.5-2.1 1.5c-13.1 9.3-25.1 17.9-40 24.7c-15.4 7-34.7 13.1-54 13.1s-38.6-6.1-54-13.1c-14.9-6.8-26.9-15.4-40-24.7l-2.1-1.5-2.1 1.5c-13.1 9.3-25.1 17.9-40 24.7c-15.4 7-34.7 13.1-54 13.1s-38.6-6.1-54-13.1c-14.9-6.8-26.9-15.4-40-24.7L96 408.7l-2.1 1.5c-13.1 9.3-25.1 17.9-40 24.7C38.6 441.9 19.3 448 0 448v64c31.9 0 60.6-9.9 80.4-18.9c5.8-2.7 11.1-5.3 15.6-7.7c4.5 2.4 9.7 5.1 15.6 7.7c19.8 9 48.5 18.9 80.4 18.9s60.6-9.9 80.4-18.9c5.8-2.7 11.1-5.3 15.6-7.7zM272.4 365.1c5.8-2.7 11.1-5.3 15.6-7.7c4.5 2.4 9.7 5.1 15.6 7.7c19.8 9 48.5 18.9 80.4 18.9s60.6-9.9 80.4-18.9c5.8-2.7 11.1-5.3 15.6-7.7c4.5 2.4 9.7 5.1 15.6 7.7c19.8 9 48.5 18.9 80.4 18.9V320c-19.3 0-38.6-6.1-54-13.1c-14.9-6.8-26.9-15.4-40-24.7c-.7-.5-1.4-1-2.1-1.5c-.7 .5-1.4 1-2.1 1.5c-13.1 9.3-25.1 17.9-40 24.7c-15.4 7-34.7 13.1-54 13.1s-38.6-6.1-54-13.1c-14.9-6.8-26.9-15.4-40-24.7c-.7-.5-1.4-1-2.1-1.5c-.7 .5-1.4 1-2.1 1.5c-13.1 9.3-25.1 17.9-40 24.7c-15.4 7-34.7 13.1-54 13.1s-38.6-6.1-54-13.1c-14.9-6.8-26.9-15.4-40-24.7c-.7-.5-1.4-1-2.1-1.5c-.7 .5-1.4 1-2.1 1.5c-13.1 9.3-25.1 17.9-40 24.7C38.6 313.9 19.3 320 0 320v64c31.9 0 60.6-9.9 80.4-18.9c5.8-2.7 11.1-5.3 15.6-7.7c4.5 2.4 9.7 5.1 15.6 7.7c19.8 9 48.5 18.9 80.4 18.9s60.6-9.9 80.4-18.9z"/></svg>