<svg xmlns="http://www.w3.org/2000/svg" viewBox="0 0 512 512"><!--! Font Awesome Pro 6.2.0 by @fontawesome - https://fontawesome.com License - https://fontawesome.com/license (Commercial License) Copyright 2022 Fonticons, Inc. --><path d="M384 176c0 70.7-57.3 128-128 128s-128-57.3-128-128s57.3-128 128-128s128 57.3 128 128zm7.8-112C359.5 24.9 310.7 0 256 0S152.5 24.9 120.2 64H0V512H512V64H391.8zM296 224c0-10.6-4.1-20.2-10.9-27.4l33.6-78.3 6.3-14.7L295.6 91l-6.3 14.7L255.7 184c-22 .1-39.7 18-39.7 40c0 22.1 17.9 40 40 40s40-17.9 40-40z"/></svg>