<svg xmlns="http://www.w3.org/2000/svg" viewBox="0 0 576 512"><!--! Font Awesome Pro 6.2.0 by @fontawesome - https://fontawesome.com License - https://fontawesome.com/license (Commercial License) Copyright 2022 Fonticons, Inc. --><path d="M224 96c-26.5 0-48-21.5-48-48s21.5-48 48-48s48 21.5 48 48s-21.5 48-48 48zM80 352c0 61.9 50.1 112 112 112c49.9 0 92.3-32.7 106.7-77.8l45.7 14.6C323.8 465.3 263.4 512 192 512c-88.4 0-160-71.6-160-160c0-78.3 56.3-143.5 130.6-157.3l8.8 47.2C119.4 251.5 80 297.2 80 352zM185 128h39 32 26.2l5.1 25.7 4.5 22.3H368h32v64H368 304.6l9.6 48H416h22.2l7.8 20.8 37.1 99 10.7-3.6 30.3-10.2 20.5 60.6-30.3 10.2-40 13.5-29.3 9.9-10.9-29L393.8 352H288.6c-.4 0-.8 0-1.3 0H256 229.8l-5.1-25.7-32-160L185 128z"/></svg>