<svg xmlns="http://www.w3.org/2000/svg" viewBox="0 0 448 512"><!--! Font Awesome Pro 6.2.0 by @fontawesome - https://fontawesome.com License - https://fontawesome.com/license (Commercial License) Copyright 2022 Fonticons, Inc. --><path d="M416 48c0 26.5-21.5 48-48 48s-48-21.5-48-48s21.5-48 48-48s48 21.5 48 48zM198.2 42.8l16.9 9 120 64 34 18.1L345 164l-48 60H408h37.2l-5.5 36.7-24 160-4.7 31.6-63.3-9.5 4.7-31.6L370.8 288H306.7c8.6 19.6 13.3 41.2 13.3 64c0 88.4-71.6 160-160 160S0 440.4 0 352s71.6-160 160-160c11.1 0 22 1.1 32.4 3.3l54.2-54.2-44.8-23.9-56.1 37.4-26.6 17.8L83.6 119.1l26.6-17.8 72-48 15.9-10.6zM160 448c53 0 96-43 96-96s-43-96-96-96s-96 43-96 96s43 96 96 96z"/></svg>