<svg xmlns="http://www.w3.org/2000/svg" viewBox="0 0 512 512"><!--! Font Awesome Pro 6.2.0 by @fontawesome - https://fontawesome.com License - https://fontawesome.com/license (Commercial License) Copyright 2022 Fonticons, Inc. --><path d="M438.2 96L412.1 278.8l18.5 18.5L453.3 320l-22.6 22.6-88 88L320 453.3l-22.6-22.6L234.7 368h-32H128 96V336 251.5L73.8 96H438.2zM64 480H448L502.9 96 512 32H447.4 64.6 0L9.1 96 64 480zM256 250.7V208H128V336h74.7l-16-16 22.6-22.6L256 250.7zM232 320l88 88 88-88-88-88-88 88z"/></svg>