<svg xmlns="http://www.w3.org/2000/svg" viewBox="0 0 512 512"><!--! Font Awesome Pro 6.2.0 by @fontawesome - https://fontawesome.com License - https://fontawesome.com/license (Commercial License) Copyright 2022 Fonticons, Inc. --><path d="M288 0V64h32 32c17.7 0 32 14.3 32 32s-14.3 32-32 32H32 0v64H32 352c53 0 96-43 96-96s-43-96-96-96H320 288zm64 416h32 32c53 0 96-43 96-96s-43-96-96-96H32 0v64H32 416c17.7 0 32 14.3 32 32s-14.3 32-32 32H384 352v64zM128 512h32c53 0 96-43 96-96s-43-96-96-96H32 0v64H32 160c17.7 0 32 14.3 32 32s-14.3 32-32 32H128 96v64h32z"/></svg>