<svg xmlns="http://www.w3.org/2000/svg" viewBox="0 0 512 512"><!--! Font Awesome Pro 6.2.0 by @fontawesome - https://fontawesome.com License - https://fontawesome.com/license (Commercial License) Copyright 2022 Fonticons, Inc. --><path d="M56.6 224L3.2 32H69.7L123 224h57.8L220.9 56.5 226.8 32H252h8 25.2l5.9 24.5L331.2 224H389L442.3 32h66.4L455.4 224H480h32v64H480 437.7L390.8 456.6 384.3 480H360h-8H326.8l-5.9-24.5L280.8 288H231.2L191.1 455.5 185.2 480H160h-8H127.7l-6.5-23.4L74.3 288H32 0V224H32 56.6zm84.2 64L154 335.7 165.4 288H140.8zm105.8-64h18.9L256 184.7 246.6 224zm100 64L358 335.7 371.2 288H346.6z"/></svg>