<svg xmlns="http://www.w3.org/2000/svg" viewBox="0 0 448 512"><!--! Font Awesome Pro 6.2.0 by @fontawesome - https://fontawesome.com License - https://fontawesome.com/license (Commercial License) Copyright 2022 Fonticons, Inc. --><path d="M224 96c0-53 43-96 96-96H448V128v48 16V376c0 75.1-60.9 136-136 136s-136-60.9-136-136V296c0-22.1-17.9-40-40-40s-40 17.9-40 40V464v48H0V464 296c0-75.1 60.9-136 136-136s136 60.9 136 136v80c0 22.1 17.9 40 40 40s40-17.9 40-40V192H320c-53 0-96-43-96-96zm144-8c0-13.3-10.7-24-24-24s-24 10.7-24 24s10.7 24 24 24s24-10.7 24-24z"/></svg>