<svg xmlns="http://www.w3.org/2000/svg" viewBox="0 0 512 512"><!--! Font Awesome Pro 6.2.0 by @fontawesome - https://fontawesome.com License - https://fontawesome.com/license (Commercial License) Copyright 2022 Fonticons, Inc. --><path d="M0 32H32 480h32V96H480V416h32v64H480 32 0V416H32V96H0V32zM272 96H240v16 16H144 128v32h16 96v32H112 96v32h16H240v32H144 128v32h16 96v32H128v32l48 64H336l48-64V320H272V288h96 16V256H368 272V224H400h16V192H400 272V160h96 16V128H368 272V112 96zM208 384c-8.8 0-16-7.2-16-16s7.2-16 16-16s16 7.2 16 16s-7.2 16-16 16zm112-16c0 8.8-7.2 16-16 16s-16-7.2-16-16s7.2-16 16-16s16 7.2 16 16z"/></svg>