<svg xmlns="http://www.w3.org/2000/svg" viewBox="0 0 640 512"><!--! Font Awesome Pro 6.2.0 by @fontawesome - https://fontawesome.com License - https://fontawesome.com/license (Commercial License) Copyright 2022 Fonticons, Inc. --><path d="M32 32H0V96H32 608h32V32H608 32zm0 384H0v64H32 608h32V416H608 32zM57 183l-17-17L6.1 200l17 17 39 39L23 295l-17 17L40 345.9l17-17 39-39 39 39 17 17L185.9 312l-17-17-39-39 39-39 17-17L152 166.1l-17 17-39 39L57 183zm224 0l-17-17L230.1 200l17 17 39 39-39 39-17 17L264 345.9l17-17 39-39 39 39 17 17L409.9 312l-17-17-39-39 39-39 17-17L376 166.1l-17 17-39 39-39-39zm224 0l-17-17L454.1 200l17 17 39 39-39 39-17 17L488 345.9l17-17 39-39 39 39 17 17L633.9 312l-17-17-39-39 39-39 17-17L600 166.1l-17 17-39 39-39-39z"/></svg>