<svg xmlns="http://www.w3.org/2000/svg" viewBox="0 0 320 512"><!--! Font Awesome Pro 6.2.0 by @fontawesome - https://fontawesome.com License - https://fontawesome.com/license (Commercial License) Copyright 2022 Fonticons, Inc. --><path d="M.0003 425.1V55.18C.0003 42.38 10.38 32 23.19 32C28.86 32 34.34 34.08 38.59 37.86L312.6 281.4C317.3 285.6 320 291.6 320 297.9C320 310.1 310.1 320 297.9 320H161.5L222.6 457.5C226.2 465.6 222.6 475 214.5 478.6C206.4 482.2 196.1 478.6 193.4 470.5L132.4 333.3L38.58 440.5C34.4 445.3 28.36 448 22.01 448C9.855 448 0 438.1 0 425.1L.0003 425.1zM32 72V400L118.4 299.2C124.5 292.1 133.4 288 142.7 288H272L32 72z"/></svg>