<svg xmlns="http://www.w3.org/2000/svg" viewBox="0 0 576 512"><!--! Font Awesome Pro 6.2.0 by @fontawesome - https://fontawesome.com License - https://fontawesome.com/license (Commercial License) Copyright 2022 Fonticons, Inc. --><path d="M380.9 159.2L452.6 125C468.8 117.3 488.1 121.4 499.7 135C548.9 192.4 576 265.6 576 341.2V378.8C576 388.6 565.8 394.9 557.1 390.5L493.3 358.6C485.8 354.9 476.7 357.5 472.4 364.7L442.5 414.4C437.2 423.4 424.9 424.9 417.5 417.5L380.9 380.9C374.1 374.1 362.8 374.8 356.9 382.4L300.7 455.5C294.3 463.8 281.7 463.8 275.3 455.5L219.1 382.4C213.2 374.8 201.9 374.1 195.1 380.9L158.5 417.5C151.1 424.9 138.8 423.4 133.5 414.4L103.6 364.7C99.32 357.5 90.23 354.9 82.75 358.6L18.93 390.5C10.23 394.9 0 388.6 0 378.8V341.2C0 265.6 27.05 192.4 76.27 135C87.91 121.4 107.2 117.3 123.4 125L195.1 159.2L213.8 59.52C215.1 52.84 220.9 48 227.7 48C230.5 48 233.2 48.83 235.6 50.37L280 80H296L340.4 50.37C342.8 48.83 345.5 48 348.3 48C355.1 48 360.9 52.84 362.2 59.52L380.9 159.2zM270.3 112L240.3 91.1L218.9 205.1L109.6 153.9C106.5 152.4 102.8 153.2 100.6 155.8C56.32 207.5 31.1 273.2 31.1 341.2V348.2L68.44 330C90.87 318.8 118.2 326.7 131.1 348.2L150.4 380.4L172.5 358.3C192.1 337.8 226.8 339.1 244.5 362.9L287.1 419.5L331.5 362.9C349.2 339.1 383 337.8 403.5 358.3L425.6 380.4L444.9 348.2C457.8 326.7 485.1 318.8 507.6 330L544 348.2V341.2C544 273.2 519.7 207.5 475.4 155.8C473.2 153.2 469.5 152.4 466.4 153.9L357.1 205.1L335.7 91.1L305.7 112H270.3z"/></svg>