<svg xmlns="http://www.w3.org/2000/svg" viewBox="0 0 576 512"><!--! Font Awesome Pro 6.2.0 by @fontawesome - https://fontawesome.com License - https://fontawesome.com/license (Commercial License) Copyright 2022 Fonticons, Inc. --><path d="M64 320C64 284.7 92.65 256 128 256C163.3 256 192 284.7 192 320C192 355.3 163.3 384 128 384C92.65 384 64 355.3 64 320zM128 352C145.7 352 160 337.7 160 320C160 302.3 145.7 288 128 288C110.3 288 96 302.3 96 320C96 337.7 110.3 352 128 352zM32 160H224V32C224 14.33 238.3 0 256 0H464C525.9 0 576 50.14 576 112V496C576 504.8 568.8 512 560 512C551.2 512 544 504.8 544 496V447.7H32V496C32 504.8 24.84 512 16 512C7.164 512 0 504.8 0 496V16C0 7.164 7.164 0 16 0C24.84 0 32 7.164 32 16V160zM256 256H544V192H32V415.7H224V288C224 270.3 238.3 256 256 256zM464 32H256V160H544V112C544 67.82 508.2 32 464 32zM256 415.7H544V288H256V415.7zM64 64C64 28.65 92.65 0 128 0C163.3 0 192 28.65 192 64C192 99.35 163.3 128 128 128C92.65 128 64 99.35 64 64zM128 96C145.7 96 160 81.67 160 64C160 46.33 145.7 32 128 32C110.3 32 96 46.33 96 64C96 81.67 110.3 96 128 96z"/></svg>