<svg xmlns="http://www.w3.org/2000/svg" viewBox="0 0 640 512"><!--! Font Awesome Pro 6.2.0 by @fontawesome - https://fontawesome.com License - https://fontawesome.com/license (Commercial License) Copyright 2022 Fonticons, Inc. --><path d="M16 32C24.84 32 32 39.16 32 48V192H528C589.9 192 640 242.1 640 304V464C640 472.8 632.8 480 624 480C615.2 480 608 472.8 608 464V416H32V464C32 472.8 24.84 480 16 480C7.164 480 0 472.8 0 464V48C0 39.16 7.164 32 16 32zM32 384H608V352H32V384zM32 320H608V304C608 259.8 572.2 224 528 224H32V320z"/></svg>