<svg xmlns="http://www.w3.org/2000/svg" viewBox="0 0 512 512"><!--! Font Awesome Pro 6.2.0 by @fontawesome - https://fontawesome.com License - https://fontawesome.com/license (Commercial License) Copyright 2022 Fonticons, Inc. --><path d="M480 239.1C499.4 254.6 512 277.8 512 304V464C512 472.8 504.8 480 496 480C487.2 480 480 472.8 480 464V416H32V464C32 472.8 24.84 480 16 480C7.164 480 0 472.8 0 464V304C0 277.8 12.57 254.6 32 239.1V96C32 60.65 60.65 32 96 32H416C451.3 32 480 60.65 480 96V239.1zM64 136.6C73.41 131.1 84.34 128 96 128H208C227.1 128 244.3 136.4 256 149.7C267.7 136.4 284.9 128 304 128H416C427.7 128 438.6 131.1 448 136.6V96C448 78.33 433.7 64 416 64H96C78.33 64 64 78.33 64 96V136.6zM448 225.6V192C448 174.3 433.7 160 416 160H304C286.3 160 272 174.3 272 192V224H432C437.5 224 442.8 224.6 448 225.6zM240 224V192C240 174.3 225.7 160 208 160H96C78.33 160 64 174.3 64 192V225.6C69.17 224.6 74.52 224 80 224H240zM432 256H80C53.49 256 32 277.5 32 304V384H480V304C480 277.5 458.5 256 432 256z"/></svg>