<svg xmlns="http://www.w3.org/2000/svg" viewBox="0 0 512 512"><!--! Font Awesome Pro 6.2.0 by @fontawesome - https://fontawesome.com License - https://fontawesome.com/license (Commercial License) Copyright 2022 Fonticons, Inc. --><path d="M464 48H496C504.8 48 512 55.16 512 64C512 72.84 504.8 80 496 80H464V112C464 120.8 456.8 128 448 128C439.2 128 432 120.8 432 112V80H400C391.2 80 384 72.84 384 64C384 55.16 391.2 48 400 48H432V16C432 7.164 439.2 0 448 0C456.8 0 464 7.164 464 16V48zM199.1 192C142.6 192 95.1 238.6 95.1 296V304C95.1 312.8 88.84 320 79.1 320C71.16 320 63.1 312.8 63.1 304V296C63.1 220.9 124.9 160 199.1 160H207.1C216.8 160 223.1 167.2 223.1 176C223.1 184.8 216.8 192 207.1 192H199.1zM278.5 108.3L281.4 105.4C293.9 92.88 314.1 92.88 326.6 105.4L355.3 134.1L372.7 116.7C378.9 110.4 389.1 110.4 395.3 116.7C401.6 122.9 401.6 133.1 395.3 139.3L377.9 156.7L406.6 185.4C419.1 197.9 419.1 218.1 406.6 230.6L403.8 233.5C411.7 255.5 416 279.3 416 304C416 418.9 322.9 512 208 512C93.12 512 0 418.9 0 304C0 189.1 93.12 96 208 96C232.7 96 256.5 100.3 278.5 108.3L278.5 108.3zM301.1 130.9C292.4 139.6 279.3 142.6 267.7 138.4C249.1 131.7 228.1 128 207.1 128C110.8 128 31.1 206.8 31.1 304C31.1 401.2 110.8 480 207.1 480C305.2 480 384 401.2 384 304C384 283 380.3 262.9 373.6 244.3C369.4 232.7 372.4 219.6 381.1 210.9L384 208L304 128L301.1 130.9z"/></svg>