<svg xmlns="http://www.w3.org/2000/svg" viewBox="0 0 512 512"><!--! Font Awesome Pro 6.2.0 by @fontawesome - https://fontawesome.com License - https://fontawesome.com/license (Commercial License) Copyright 2022 Fonticons, Inc. --><path d="M0 96C0 42.98 50.14 0 112 0C167.5 0 213.6 34.6 222.5 80H496C504.8 80 512 87.16 512 96C512 104.8 504.8 112 496 112H222.5C213.6 157.4 167.5 192 112 192C50.14 192 0 149 0 96zM112 160C160.1 160 192 126.9 192 96C192 65.1 160.1 32 112 32C63.01 32 32 65.1 32 96C32 126.9 63.01 160 112 160zM461.1 224C488.7 224 510.6 247.2 509 274.8L508.4 285.2C503.5 369.3 452.5 440.3 380.9 474.4C373.3 496.3 352.5 512 328 512H183.1C159.5 512 138.7 496.3 131.1 474.4C59.47 440.3 8.545 369.3 3.597 285.2L2.989 274.8C1.367 247.2 23.29 224 50.91 224H461.1zM184 480H328C338.4 480 347.4 473.3 350.7 463.9C353.5 455.8 359.4 449.2 367.2 445.5C428.6 416.2 472.2 355.3 476.5 283.3L477.1 272.9C477.6 263.7 470.3 256 461.1 256H50.91C41.7 256 34.39 263.7 34.93 272.9L35.54 283.3C39.78 355.3 83.39 416.2 144.8 445.5C152.6 449.2 158.5 455.8 161.3 463.9C164.6 473.3 173.6 480 184 480H184z"/></svg>