<svg xmlns="http://www.w3.org/2000/svg" viewBox="0 0 512 512"><!--! Font Awesome Pro 6.2.0 by @fontawesome - https://fontawesome.com License - https://fontawesome.com/license (Commercial License) Copyright 2022 Fonticons, Inc. --><path d="M176 80C176 71.16 183.2 64 192 64H224C232.8 64 240 71.16 240 80C240 88.84 232.8 96 224 96H192C183.2 96 176 88.84 176 80zM224 128C232.8 128 240 135.2 240 144C240 152.8 232.8 160 224 160H192C183.2 160 176 152.8 176 144C176 135.2 183.2 128 192 128H224zM80 192C88.84 192 96 199.2 96 208C96 216.8 88.84 224 80 224H48C39.16 224 32 216.8 32 208C32 199.2 39.16 192 48 192H80zM484.6 256C499.7 256 512 268.3 512 283.4C512 350.9 471.4 408.8 413.4 434.3C405.5 460.7 381 480 352 480H160C130.1 480 106.5 460.7 98.64 434.3C40.57 408.8 0 350.9 0 283.4C0 268.3 12.28 256 27.43 256H484.6zM160 448H352C366.5 448 378.7 438.4 382.7 425.1C385.4 416.1 391.9 408.7 400.5 404.9C446.1 385 478.2 340.3 479.9 288H32.08C33.85 340.3 65.95 385 111.5 404.9C120.1 408.7 126.6 416.1 129.3 425.1C133.3 438.4 145.5 448 159.1 448H160zM224 208C224 199.2 231.2 192 240 192H272C280.8 192 288 199.2 288 208C288 216.8 280.8 224 272 224H240C231.2 224 224 216.8 224 208zM128 208C128 199.2 135.2 192 144 192H176C184.8 192 192 199.2 192 208C192 216.8 184.8 224 176 224H144C135.2 224 128 216.8 128 208zM128 128C136.8 128 144 135.2 144 144C144 152.8 136.8 160 128 160H96C87.16 160 80 152.8 80 144C80 135.2 87.16 128 96 128H128zM320 208C320 199.2 327.2 192 336 192H368C376.8 192 384 199.2 384 208C384 216.8 376.8 224 368 224H336C327.2 224 320 216.8 320 208zM320 128C328.8 128 336 135.2 336 144C336 152.8 328.8 160 320 160H288C279.2 160 272 152.8 272 144C272 135.2 279.2 128 288 128H320zM416 208C416 199.2 423.2 192 432 192H464C472.8 192 480 199.2 480 208C480 216.8 472.8 224 464 224H432C423.2 224 416 216.8 416 208zM416 128C424.8 128 432 135.2 432 144C432 152.8 424.8 160 416 160H384C375.2 160 368 152.8 368 144C368 135.2 375.2 128 384 128H416zM320 64C328.8 64 336 71.16 336 80C336 88.84 328.8 96 320 96H288C279.2 96 272 88.84 272 80C272 71.16 279.2 64 288 64H320z"/></svg>