<svg xmlns="http://www.w3.org/2000/svg" viewBox="0 0 512 512"><!--! Font Awesome Pro 6.2.0 by @fontawesome - https://fontawesome.com License - https://fontawesome.com/license (Commercial License) Copyright 2022 Fonticons, Inc. --><path d="M19.14 127.7C10.47 129.4 2.043 123.8 .3101 115.1C-1.423 106.5 4.196 98.05 12.86 96.31L492.9 .3138C501.5-1.419 509.1 4.2 511.7 12.87C513.4 21.53 507.8 29.96 499.1 31.69L19.14 127.7zM511.1 142.9C512.6 151.8 505.9 159.4 497.1 159.1L17.06 191.1C8.247 192.6 .623 185.9 .0352 177.1C-.5526 168.3 6.118 160.6 14.94 160L494.9 128C503.8 127.5 511.4 134.1 511.1 142.9zM2.989 274.8C1.367 247.3 23.29 224 50.91 224H461.1C488.7 224 510.6 247.3 509 274.8L508.4 285.2C503.5 369.3 452.5 440.3 380.9 474.4C373.3 496.3 352.5 512 328 512H183.1C159.5 512 138.7 496.3 131.1 474.4C59.47 440.3 8.545 369.3 3.596 285.2L2.989 274.8zM144.8 445.5C152.6 449.2 158.5 455.8 161.3 463.9C164.6 473.3 173.6 480 183.1 480H328C338.4 480 347.4 473.3 350.7 463.9C353.5 455.8 359.4 449.2 367.2 445.5C428.6 416.2 472.2 355.3 476.5 283.3L477.1 272.9C477.6 263.8 470.3 256 461.1 256H50.91C41.7 256 34.39 263.8 34.93 272.9L35.54 283.3C39.78 355.3 83.39 416.2 144.8 445.5H144.8z"/></svg>