<svg xmlns="http://www.w3.org/2000/svg" viewBox="0 0 512 512"><!--! Font Awesome Pro 6.2.0 by @fontawesome - https://fontawesome.com License - https://fontawesome.com/license (Commercial License) Copyright 2022 Fonticons, Inc. --><path d="M193.7 106.6C189.3 107.9 184.6 107.2 180.8 104.7C171.1 99.16 161.8 96 151 96C123.2 96 98.89 117.2 93.22 147C91.75 154.7 84.92 160.2 77.08 160C76.72 160 76.36 160 76 160C52.66 160 32 180.5 32 208C32 216.8 24.84 224 16 224C7.164 224 0 216.8 0 208C0 168.6 27.5 134.5 64.91 128.8C77.04 91.62 110.5 64 151 64C162.4 64 173.3 66.21 183.3 70.23C199.8 47.24 225.1 32 256 32C286 32 312.2 47.24 328.7 70.23C338.7 66.21 349.6 64 360.1 64C401.5 64 434.1 91.62 447.1 128.8C484.5 134.5 512 168.6 512 208C512 216.8 504.8 224 496 224C487.2 224 480 216.8 480 208C480 180.5 459.3 160 436 160C435.6 160 435.3 160 434.9 160C427.1 160.2 420.2 154.7 418.8 147C413.1 117.2 388.8 96 361 96C350.2 96 340 99.16 331.2 104.7C327.4 107.2 322.7 107.9 318.3 106.6C313.9 105.4 310.2 102.3 308.2 98.24C298.2 77.46 278.2 63.1 256 63.1C233.8 63.1 213.9 77.46 203.8 98.24C201.8 102.3 198.1 105.4 193.7 106.6L193.7 106.6zM484.6 256C499.7 256 512 268.3 512 283.4C512 350.9 471.4 408.8 413.4 434.3C405.5 460.7 381 480 352 480H160C130.1 480 106.5 460.7 98.64 434.3C40.57 408.8 .0003 350.9 .0003 283.4C.0003 268.3 12.28 256 27.43 256H484.6zM160 448H352C366.5 448 378.7 438.4 382.7 425.1C385.4 416.1 391.9 408.7 400.5 404.9C446.1 385 478.2 340.3 479.9 288H32.08C33.85 340.3 65.95 385 111.5 404.9C120.1 408.7 126.6 416.1 129.3 425.1C133.3 438.4 145.5 448 160 448H160z"/></svg>