<svg xmlns="http://www.w3.org/2000/svg" viewBox="0 0 512 512"><!--! Font Awesome Pro 6.2.0 by @fontawesome - https://fontawesome.com License - https://fontawesome.com/license (Commercial License) Copyright 2022 Fonticons, Inc. --><path d="M144 0C152.8 0 160 7.164 160 16V32C160 52.14 169.5 71.11 185.6 83.2C209.8 101.3 224 129.8 224 160V176C224 184.8 216.8 192 208 192C199.2 192 192 184.8 192 176V160C192 139.9 182.5 120.9 166.4 108.8C142.2 90.67 128 62.22 128 32V16C128 7.164 135.2 0 144 0zM2.99 274.8C1.368 247.2 23.29 224 50.91 224H461.1C488.7 224 510.6 247.2 509 274.8L508.4 285.2C503.5 369.3 452.5 440.3 380.9 474.4C373.3 496.3 352.5 512 328 512H184C159.5 512 138.7 496.3 131.1 474.4C59.47 440.3 8.546 369.3 3.597 285.2L2.99 274.8zM144.8 445.5C152.6 449.2 158.5 455.8 161.3 463.9C164.6 473.3 173.6 480 184 480H328C338.4 480 347.4 473.3 350.7 463.9C353.5 455.8 359.4 449.2 367.2 445.5C428.6 416.2 472.2 355.3 476.5 283.3L477.1 272.9C477.6 263.7 470.3 256 461.1 256H50.91C41.7 256 34.39 263.7 34.94 272.9L35.54 283.3C39.78 355.3 83.39 416.2 144.8 445.5H144.8zM288 32C288 52.14 297.5 71.11 313.6 83.2C337.8 101.3 352 129.8 352 160V176C352 184.8 344.8 192 336 192C327.2 192 320 184.8 320 176V160C320 139.9 310.5 120.9 294.4 108.8C270.2 90.67 256 62.22 256 32V16C256 7.164 263.2 0 272 0C280.8 0 288 7.164 288 16V32z"/></svg>