<svg xmlns="http://www.w3.org/2000/svg" viewBox="0 0 448 512"><!--! Font Awesome Pro 6.2.0 by @fontawesome - https://fontawesome.com License - https://fontawesome.com/license (Commercial License) Copyright 2022 Fonticons, Inc. --><path d="M108.3 94.1C108.3 60.2 136.5 32 171.3 32C188 32 204 38.64 215.8 50.45L224 58.6L232.2 50.45C243.1 38.64 259.1 32 276.7 32C311.5 32 339.7 60.2 339.7 94.1V98.52C339.7 111.6 336.4 124.5 330.2 136.1L313.5 167.1L343.5 150.3C355.2 143.8 368.4 140.3 381.9 140.3H385C419.8 140.3 448 168.5 448 203.3C448 220 441.4 236 429.5 247.8L421.4 256L429.5 264.2C441.4 275.1 448 291.1 448 308.7C448 343.5 419.8 371.7 385 371.7H381.7C368.4 371.7 355.3 368.3 343.6 361.9L312.9 344.9L329.9 375.6C336.3 387.3 339.7 400.4 339.7 413.7V417C339.7 451.8 311.5 480 276.7 480C259.1 480 243.1 473.4 232.2 461.5L224 453.4L215.8 461.5C204 473.4 188 480 171.3 480C136.5 480 108.3 451.8 108.3 417V413.7C108.3 400.4 111.7 387.3 118.1 375.6L135.1 344.9L104.4 361.9C92.71 368.3 79.59 371.7 66.26 371.7H62.1C28.2 371.7 0 343.5 0 308.7C0 291.1 6.637 275.1 18.45 264.2L26.6 256L18.45 247.8C6.637 236 0 220 0 203.3C0 168.5 28.2 140.3 62.1 140.3H66.26C79.59 140.3 92.71 143.7 104.4 150.1L135.1 167.1L118.1 136.4C111.7 124.7 108.3 111.6 108.3 98.26L108.3 94.1zM171.3 64C154.2 64 140.3 77.88 140.3 94.1V98.26C140.3 106.2 142.3 113.1 146.1 120.9L190 200.3C193.5 206.5 192.4 214.3 187.3 219.3C182.3 224.4 174.5 225.5 168.3 222L88.91 178.1C81.97 174.3 74.18 172.3 66.26 172.3H62.1C45.88 172.3 32 186.2 32 203.3C32 211.5 35.27 219.4 41.08 225.2L60.54 244.7C63.55 247.7 65.23 251.8 65.23 256C65.23 260.2 63.55 264.3 60.54 267.3L41.08 286.8C35.27 292.6 32 300.5 32 308.7C32 325.8 45.88 339.7 62.1 339.7H66.26C74.18 339.7 81.97 337.7 88.91 333.8L168.3 289.1C174.5 286.5 182.3 287.6 187.3 292.7C192.4 297.7 193.5 305.5 190 311.7L146.1 391.1C142.3 398 140.3 405.8 140.3 413.7V417C140.3 434.1 154.2 448 171.3 448C179.5 448 187.4 444.7 193.2 438.9L212.7 419.5C215.7 416.5 219.8 414.8 224 414.8C228.2 414.8 232.3 416.5 235.3 419.5L254.8 438.9C260.6 444.7 268.5 448 276.7 448C293.8 448 307.7 434.1 307.7 417V413.7C307.7 405.8 305.7 398 301.9 391.1L257.1 311.7C254.5 305.5 255.6 297.7 260.7 292.7C265.7 287.6 273.5 286.5 279.7 289.1L359.1 333.8C366 337.7 373.8 339.7 381.7 339.7H385C402.1 339.7 416 325.8 416 308.7C416 300.5 412.7 292.6 406.9 286.8L387.5 267.3C384.5 264.3 382.8 260.2 382.8 256C382.8 251.8 384.5 247.7 387.5 244.7L406.9 225.2C412.7 219.4 416 211.5 416 203.3C416 186.2 402.1 172.3 385 172.3H381.9C373.9 172.3 366.1 174.4 359.1 178.3L281 221.1C274.8 225.4 267.1 224.4 262 219.4C256.9 214.4 255.8 206.7 259.1 200.4L302 120.9C305.8 114 307.7 106.3 307.7 98.52V94.1C307.7 77.88 293.8 64 276.7 64C268.5 64 260.6 67.27 254.8 73.08L235.3 92.54C232.3 95.55 228.2 97.23 224 97.23C219.8 97.23 215.7 95.55 212.7 92.54L193.2 73.08C187.4 67.27 179.5 64 171.3 64L171.3 64z"/></svg>