<svg xmlns="http://www.w3.org/2000/svg" viewBox="0 0 448 512"><!--! Font Awesome Pro 6.2.0 by @fontawesome - https://fontawesome.com License - https://fontawesome.com/license (Commercial License) Copyright 2022 Fonticons, Inc. --><path d="M175.1 0H272C298.5 0 320 21.49 320 48V96H336C357.4 96 376.3 110.2 382.2 130.8L446.2 354.8C450.3 369.3 447.4 384.9 438.3 396.9C429.3 408.9 415.1 416 400 416H47.1C32.94 416 18.75 408.9 9.679 396.9C.6086 384.9-2.291 369.3 1.847 354.8L65.85 130.8C71.73 110.2 90.57 96 112 96H128V48C128 21.49 149.5 0 176 0L175.1 0zM175.1 32C167.2 32 159.1 39.16 159.1 48V96H288V48C288 39.16 280.8 32 272 32H175.1zM111.1 128C104.9 128 98.58 132.7 96.62 139.6L32.62 363.6C31.24 368.4 32.2 373.6 35.23 377.6C38.25 381.6 42.98 384 47.1 384H400C405 384 409.8 381.6 412.8 377.6C415.8 373.6 416.8 368.4 415.4 363.6L351.4 139.6C349.4 132.7 343.1 128 336 128H111.1zM223.1 480C237.9 480 249.8 471.1 254.2 458.7C257.1 450.3 266.3 445.1 274.6 448.9C282.9 451.9 287.3 461 284.4 469.3C275.6 494.2 251.9 512 223.1 512C196.1 512 172.4 494.2 163.6 469.3C160.7 461 165.1 451.9 173.4 448.9C181.7 445.1 190.9 450.3 193.8 458.7C198.2 471.1 210.1 480 223.1 480z"/></svg>