<svg xmlns="http://www.w3.org/2000/svg" viewBox="0 0 576 512"><!--! Font Awesome Pro 6.2.0 by @fontawesome - https://fontawesome.com License - https://fontawesome.com/license (Commercial License) Copyright 2022 Fonticons, Inc. --><path d="M175.1 .0003H271.1C298.5 .0003 320 21.49 320 48V96H336C357.4 96 376.3 110.2 382.2 130.8L400.4 194.8C389.8 196.7 379.5 199.6 369.6 203.4L351.4 139.6C349.4 132.7 343.1 128 336 128H111.1C104.9 128 98.58 132.7 96.62 139.6L32.62 363.6C31.24 368.4 32.2 373.6 35.23 377.6C38.25 381.6 42.98 384 47.1 384H256.7C257.7 394.1 259.7 405.7 262.6 416H47.1C32.94 416 18.75 408.9 9.679 396.9C.6086 384.9-2.291 369.3 1.847 354.8L65.85 130.8C71.73 110.2 90.57 96 112 96H128V48C128 21.49 149.5 0 176 0L175.1 .0003zM175.1 32C167.2 32 159.1 39.16 159.1 48V96H287.1V48C287.1 39.16 280.8 32 271.1 32H175.1zM274.6 448.9C275.1 449.1 275.5 449.3 275.9 449.5C278.8 454.9 281.9 460.1 285.2 465.2C285.1 466.6 284.8 467.1 284.4 469.3C275.6 494.2 251.9 512 223.1 512C196.1 512 172.4 494.2 163.6 469.3C160.7 461 165.1 451.9 173.4 448.9C181.7 445.1 190.9 450.3 193.8 458.7C198.2 471.1 210.1 480 223.1 480C237.9 480 249.8 471.1 254.2 458.7C257.1 450.3 266.3 445.1 274.6 448.9zM448 351.1H496C504.8 351.1 512 359.2 512 367.1C512 376.8 504.8 383.1 496 383.1H448V431.1C448 440.8 440.8 447.1 432 447.1C423.2 447.1 416 440.8 416 431.1V383.1H368C359.2 383.1 352 376.8 352 367.1C352 359.2 359.2 351.1 368 351.1H416V303.1C416 295.2 423.2 287.1 432 287.1C440.8 287.1 448 295.2 448 303.1V351.1zM576 368C576 447.5 511.5 512 432 512C352.5 512 287.1 447.5 287.1 368C287.1 288.5 352.5 224 432 224C511.5 224 576 288.5 576 368zM432 256C370.1 256 320 306.1 320 368C320 429.9 370.1 480 432 480C493.9 480 544 429.9 544 368C544 306.1 493.9 256 432 256z"/></svg>