<svg xmlns="http://www.w3.org/2000/svg" viewBox="0 0 512 512"><!--! Font Awesome Pro 6.2.0 by @fontawesome - https://fontawesome.com License - https://fontawesome.com/license (Commercial License) Copyright 2022 Fonticons, Inc. --><path d="M256 0C397.4 0 512 114.6 512 256C512 397.4 397.4 512 256 512C114.6 512 0 397.4 0 256C0 114.6 114.6 0 256 0zM272 32.56V128C272 136.8 264.8 144 256 144C247.2 144 240 136.8 240 128V32.56C129 40.39 40.39 129 32.56 240H128C136.8 240 144 247.2 144 256C144 264.8 136.8 272 128 272H32.56C40.39 382.1 129 471.6 240 479.4V384C240 375.2 247.2 368 256 368C264.8 368 272 375.2 272 384V479.4C382.1 471.6 471.6 382.1 479.4 272H384C375.2 272 368 264.8 368 256C368 247.2 375.2 240 384 240H479.4C471.6 129 382.1 40.39 272 32.56z"/></svg>