<svg xmlns="http://www.w3.org/2000/svg" viewBox="0 0 576 512"><!--! Font Awesome Pro 6.2.0 by @fontawesome - https://fontawesome.com License - https://fontawesome.com/license (Commercial License) Copyright 2022 Fonticons, Inc. --><path d="M448 144C448 152.8 440.8 160 432 160C423.2 160 416 152.8 416 144C416 135.2 423.2 128 432 128C440.8 128 448 135.2 448 144zM288 40C288 53.26 298.7 64 312 64H328C341.3 64 352 53.26 352 40V16C352 7.164 359.2 .001 368 .001C376.8 .001 384 7.164 384 16V40C384 48.59 382.1 56.73 378.6 64H448C461.3 64 472 53.26 472 40V16C472 7.164 479.2 .001 488 .001C496.8 .001 504 7.164 504 16V40C504 62.01 491.3 81.05 472.8 90.21L527.7 145.1C538.1 155.5 544 169.7 544 184.4C544 215.1 519.1 240 488.4 240H435.9L417.4 301.9C416.5 304.8 416 307.9 416 311V472C416 494.1 398.1 512 376 512H344C321.9 512 304 494.1 304 472V368H289.2C265.1 368 241.4 362.3 220.1 351.4C219.3 369.2 210.1 385.8 194.9 395.1C185.5 402.2 181.5 413.9 185.1 424.6L196.6 459.4C205.3 485.3 186 512 158.7 512H129.3C112.1 512 96.8 500.1 91.35 484.6L69.88 420.2C65.5 407.1 65.5 392.9 69.88 379.8L78.36 354.3C79.45 351.1 80 347.7 80 344.2V339.9C80 331.4 76.63 323.3 70.63 317.3L66.75 313.4C66.01 312.6 65.29 311.9 64.59 311.1L63.97 320.1C63.42 329.8 55.82 336.5 47 335.1C38.18 335.4 31.48 327.8 32.03 319L35.34 266C38.51 215.4 80.46 176 131.2 176H332.7L342.7 140.1L328.9 149.3C321.5 154.2 311.6 152.2 306.7 144.9C301.8 137.5 303.8 127.6 311.1 122.7L351.2 96H312C281.1 96 256 70.93 256 40V16C256 7.164 263.2 0 272 0C280.8 0 288 7.164 288 16L288 40zM417.4 96C400.1 96 384.1 107.5 380.3 124.2L360.3 196.3C358.4 203.2 352.1 208 344.9 208H136C105.1 208 80 233.1 80 264V268.1C80 276.6 83.37 284.7 89.37 290.7L93.25 294.6C105.3 306.6 112 322.9 112 339.9V344.2C112 351.1 110.9 357.9 108.7 364.5L100.2 389.9C98.05 396.5 98.05 403.6 100.2 410.1L121.7 474.5C122.8 477.8 125.9 480 129.3 480H158.7C164.2 480 168 474.7 166.3 469.5L154.7 434.7C146.6 410.4 155.8 383.6 177.1 369.4C185.3 363.9 189.5 354.2 187.9 344.5L184.2 322.6C183.2 316.3 185.1 310 191.3 306.6C196.7 303.1 203.6 303.2 208.9 306.7L222.6 315.8C242.3 328.1 265.5 336 289.2 336H320C328.8 336 336 343.2 336 352V472C336 476.4 339.6 480 344 480H376C380.4 480 384 476.4 384 472V311C384 304.8 384.9 298.6 386.7 292.7L408.7 219.4C410.7 212.6 416.9 208 424 208H488.4C501.4 208 512 197.4 512 184.4C512 178.1 509.5 172.1 505.1 167.7L444.6 107.3C437.4 100.1 427.6 96 417.4 96V96z"/></svg>