<svg xmlns="http://www.w3.org/2000/svg" viewBox="0 0 576 512"><!--! Font Awesome Pro 6.2.0 by @fontawesome - https://fontawesome.com License - https://fontawesome.com/license (Commercial License) Copyright 2022 Fonticons, Inc. --><path d="M384 144C384 135.2 391.2 128 400 128C408.8 128 416 135.2 416 144C416 152.8 408.8 160 400 160C391.2 160 384 152.8 384 144zM239.1 .001C248.8 .001 255.1 7.164 255.1 16V40C255.1 53.26 266.7 64 279.1 64H296C309.3 64 320 53.26 320 40V16C320 7.164 327.2 .001 336 .001C344.8 .001 352 7.164 352 16V40C352 48.59 350.1 56.73 346.6 64H416C429.3 64 440 53.26 440 40V16C440 7.164 447.2 .001 456 .001C464.8 .001 472 7.164 472 16V40C472 62.01 459.3 81.05 440.8 90.21L475.8 125.2C483.1 108 500.2 96 520 96C546.5 96 568 117.5 568 144C568 170.5 546.5 192 520 192C517.1 192 514.3 191.7 511.6 191.3C508.2 218.7 484.8 240 456.4 240H403.9L385.4 301.9C384.5 304.8 384 307.9 384 311V472C384 494.1 366.1 512 344 512H312C289.9 512 271.1 494.1 271.1 472V368H257.2C233.1 368 209.4 362.3 188.1 351.4C187.3 369.2 178.1 385.8 162.9 395.1C153.5 402.2 149.5 413.9 153.1 424.6L164.6 459.4C173.3 485.3 154 512 126.7 512H97.3C80.08 512 64.8 500.1 59.35 484.6L37.88 420.2C33.5 407.1 33.5 392.9 37.88 379.8L46.36 354.3C47.45 351.1 48 347.7 48 344.2V339.9C48 331.4 44.63 323.3 38.63 317.3L34.75 313.4C34.01 312.6 33.29 311.9 32.59 311.1L31.97 320.1C31.42 329.8 23.82 336.5 15 335.1C6.183 335.4-.5194 327.8 .0317 319L3.344 266C6.506 215.4 48.46 176 99.16 176H300.7L310.7 140.1L296.9 149.3C289.5 154.2 279.6 152.2 274.7 144.9C269.8 137.5 271.8 127.6 279.1 122.7L319.2 96H280C249.1 96 224 70.93 224 40V16C224 7.164 231.2 0 240 0L239.1 .001zM328.3 196.3C326.4 203.2 320.1 208 312.9 208H103.1C73.07 208 47.1 233.1 47.1 264V268.1C47.1 276.6 51.37 284.7 57.37 290.7L61.25 294.6C73.26 306.6 79.1 322.9 79.1 339.9V344.2C79.1 351.1 78.89 357.9 76.72 364.5L68.24 389.9C66.05 396.5 66.05 403.6 68.24 410.1L89.71 474.5C90.8 477.8 93.85 480 97.3 480H126.7C132.2 480 136 474.7 134.3 469.5L122.7 434.7C114.6 410.4 123.8 383.6 145.1 369.4C153.3 363.9 157.5 354.2 155.9 344.5L152.2 322.6C151.2 316.3 153.1 310 159.3 306.6C164.7 303.1 171.6 303.2 176.9 306.7L190.6 315.8C210.3 328.1 233.5 336 257.2 336H287.1C296.8 336 304 343.2 304 352V472C304 476.4 307.6 480 312 480H344C348.4 480 352 476.4 352 472V311C352 304.8 352.9 298.6 354.7 292.7L376.7 219.4C378.7 212.6 384.9 208 392 208H456.4C469.4 208 480 197.4 480 184.4C480 178.1 477.5 172.1 473.1 167.7L412.6 107.3C405.4 100.1 395.6 96 385.4 96C368.1 96 352.1 107.5 348.3 124.2L328.3 196.3zM520 128C511.2 128 504 135.2 504 144C504 152.8 511.2 160 520 160C528.8 160 536 152.8 536 144C536 135.2 528.8 128 520 128z"/></svg>