<svg xmlns="http://www.w3.org/2000/svg" viewBox="0 0 512 512"><!--! Font Awesome Pro 6.2.0 by @fontawesome - https://fontawesome.com License - https://fontawesome.com/license (Commercial License) Copyright 2022 Fonticons, Inc. --><path d="M360 152C360 165.3 349.3 176 336 176C322.7 176 312 165.3 312 152C312 138.7 322.7 128 336 128C349.3 128 360 138.7 360 152zM234.5 411C194.1 421.1 153.3 410.1 124.8 384.8C118.2 378.9 117.6 368.8 123.4 362.2C129.3 355.6 139.4 355 146 360.9C166.7 379.2 196.6 387.5 226.7 379.1C263.5 370.8 289 340.1 293.5 307.5C294.6 298.7 302.7 292.6 311.4 293.7C320.2 294.9 326.4 302.1 325.2 311.7C318.1 358.4 283.8 398.7 234.5 411L234.5 411zM400 240V259C424.6 282.4 440 315.4 440 352C440 422.7 382.7 480 312 480H196C87.75 480 0 390.1 0 282.7C0 268.1 11.89 256 26.55 256C30.15 256 33.7 256.7 37.01 258.1L88 280L253 233.8C243.3 226.5 234.7 217.7 227.8 207.6C215.3 189.6 208 167.6 208 144C208 82.14 258.1 32 320 32C374.1 32 419.3 70.38 429.7 121.4C439.3 122.7 449 122.7 458.6 121.5L482.8 118.5C498.3 116.6 512 128.7 512 144.3C512 197.1 469.1 240 416.3 240H400zM368 235.4C368 218.2 375.1 203.6 383.3 192.9C393.8 179.4 400 162.5 400 144C400 99.82 364.2 64 320 64C275.8 64 240 99.82 240 144C240 170.2 252.6 193.5 272.2 208.2C281.1 215.4 286.7 227.7 284.5 239.7C282.3 251.6 273.4 261.3 261.7 264.6L96.63 310.8C89.6 312.8 82.11 312.3 75.39 309.4L32.2 290.9C36.46 377.1 108.4 448 196 448H312C365 448 408 405 408 352C408 324.5 396.5 299.8 377.1 282.3C371.6 276.2 368 267.8 368 259V235.4zM411.9 208H416.3C449.1 208 476.2 183.1 479.6 151.2L462.6 153.3C452.3 154.6 441.9 154.8 431.6 153.8C429.8 173.8 422.8 192.4 411.9 208zM402.7 208L383.3 192.9L402.7 208z"/></svg>