<svg xmlns="http://www.w3.org/2000/svg" viewBox="0 0 640 512"><!--! Font Awesome Pro 6.2.0 by @fontawesome - https://fontawesome.com License - https://fontawesome.com/license (Commercial License) Copyright 2022 Fonticons, Inc. --><path d="M297.2 191.4L305.3 192.1C314.1 192.8 320.7 200.5 319.9 209.3C319.2 218.1 311.5 224.7 302.7 223.9L294.5 223.3C236.6 218.4 192 169.1 192 111.8C192 95.8 195.4 80.56 201.4 66.77C123.3 81.14 64 149.6 64 232L64 283.1C64 315.8 52.87 347.5 32.44 373.1L28.49 377.1C22.97 384.9 12.9 386 6.005 380.5C-.8951 374.1-2.013 364.9 3.507 358L7.455 353.1C23.35 333.2 32 308.5 32 283.1L32 232C32 123.7 118 35.59 225.4 32.11C245.6 12.25 273.3 0 303.8 0C334.2 0 361.9 12.15 382.1 32H384C472.4 32 544 103.6 544 192V304C544 312.8 536.8 320 528 320C519.2 320 512 312.8 512 304V192C512 128.7 466.1 76.19 405.8 65.85C410.9 77.17 414.2 89.52 415.3 102.5L415.9 110.7C416.7 119.5 410.1 127.2 401.3 127.9C392.5 128.7 384.8 122.1 384.1 113.3L383.4 105.2C379.9 63.82 345.3 32 303.8 32C259.7 32 224 67.74 224 111.8C224 153.3 255.8 187.9 297.2 191.4L297.2 191.4zM455.4 340.3C468.6 348.4 483.5 352 504 352C535.3 352 562.5 343.2 580.6 324.8C586.8 318.5 596.9 318.4 603.2 324.6C609.5 330.8 609.6 340.9 603.4 347.2C577.4 373.7 540.6 384 504 384C495.6 384 487.7 383.5 480 382.3V383.1C480 418.1 509 448 544.9 448C574.6 448 600.6 427.7 607.8 398.9L608.5 396.1C610.6 387.5 619.3 382.3 627.9 384.5C636.5 386.6 641.7 395.3 639.5 403.9L638.8 406.6C628.1 449.8 589.3 480 544.9 480C491.4 480 448 436.6 448 383.1V372.7C444.9 371.2 441.8 369.5 438.8 367.7C430.7 362.8 423.2 356.7 416 349.6V464C416 490.5 394.5 512 368 512H336C309.5 512 288 490.5 288 464V406.7C273.2 412.7 256.1 416 240 416C223 416 206.8 412.7 192 406.7V464C192 490.5 170.5 512 144 512H112C85.49 512 64 490.5 64 464V352C64 343.2 71.17 336 80 336C88.84 336 96 343.2 96 352V464C96 472.8 103.2 480 112 480H144C152.8 480 160 472.8 160 464V384C160 383.3 160 382.6 160.1 381.1C159.6 378.2 160.5 374.2 162.9 370.8C167.9 363.5 177.9 361.7 185.2 366.8C200.7 377.6 219.6 384 240 384C260.4 384 279.3 377.6 294.8 366.8C302.1 361.7 312.1 363.5 317.1 370.8C319.5 374.2 320.4 378.2 319.9 381.1C319.1 382.6 320 383.3 320 384V464C320 472.8 327.2 480 336 480H368C376.8 480 384 472.8 384 464V304C384 295.2 391.2 288 400 288C405.6 288 410.6 290.9 413.4 295.3C428.8 318.3 441.1 332.1 455.4 340.3V340.3zM480 208C480 216.8 472.8 224 464 224C455.2 224 448 216.8 448 208C448 199.2 455.2 192 464 192C472.8 192 480 199.2 480 208z"/></svg>