<svg xmlns="http://www.w3.org/2000/svg" viewBox="0 0 576 512"><!--! Font Awesome Pro 6.2.0 by @fontawesome - https://fontawesome.com License - https://fontawesome.com/license (Commercial License) Copyright 2022 Fonticons, Inc. --><path d="M448 352H480V448C480 483.3 451.3 512 416 512H160C124.7 512 96 483.3 96 448V352H128V448C128 465.7 142.3 480 160 480H416C433.7 480 448 465.7 448 448V352zM336 192C309.5 192 288 170.5 288 144V32H160C142.3 32 128 46.33 128 64V256H96V64C96 28.65 124.7 0 160 0H316.1C328.8 0 341.1 5.057 350.1 14.06L465.9 129.9C474.9 138.9 480 151.2 480 163.9V256H448V192H336zM443.3 152.6L327.4 36.69C325.4 34.62 322.8 33.18 320 32.48V144C320 152.8 327.2 160 336 160H447.5C446.8 157.2 445.4 154.6 443.3 152.6zM144 288C152.8 288 160 295.2 160 304C160 312.8 152.8 320 144 320H16C7.164 320 0 312.8 0 304C0 295.2 7.164 288 16 288H144zM336 288C344.8 288 352 295.2 352 304C352 312.8 344.8 320 336 320H240C231.2 320 224 312.8 224 304C224 295.2 231.2 288 240 288H336zM560 288C568.8 288 576 295.2 576 304C576 312.8 568.8 320 560 320H432C423.2 320 416 312.8 416 304C416 295.2 423.2 288 432 288H560z"/></svg>