<svg xmlns="http://www.w3.org/2000/svg" viewBox="0 0 384 512"><!--! Font Awesome Pro 6.2.0 by @fontawesome - https://fontawesome.com License - https://fontawesome.com/license (Commercial License) Copyright 2022 Fonticons, Inc. --><path d="M343.8 0C367.2 0 385.6 20.02 383.7 43.36L349.1 453.4C346.3 486.5 318.6 512 285.4 512H98.56C65.3 512 37.58 486.5 34.78 453.4L.2339 43.36C-1.732 20.02 16.68 0 40.09 0L343.8 0zM36.78 96H347.1L351.8 40.67C352.2 36 348.5 32 343.8 32H40.09C35.41 32 31.73 36.01 32.12 40.67L36.78 96zM39.48 128L66.67 450.7C68.07 467.3 81.93 480 98.56 480H285.4C301.1 480 315.8 467.3 317.2 450.7L344.4 128H39.48z"/></svg>