<svg xmlns="http://www.w3.org/2000/svg" viewBox="0 0 384 512"><!--! Font Awesome Pro 6.2.0 by @fontawesome - https://fontawesome.com License - https://fontawesome.com/license (Commercial License) Copyright 2022 Fonticons, Inc. --><path d="M343.8 0C367.2 0 385.6 20.02 383.7 43.36L349.1 453.4C346.3 486.5 318.6 512 285.4 512H98.56C65.3 512 37.58 486.5 34.78 453.4L.2339 43.36C-1.732 20.02 16.68 0 40.09 0L343.8 0zM40.35 138.3L78.44 157.3C97.68 166.1 120.8 164.5 137.6 151.1C169.4 125.6 214.6 125.6 246.4 151.1C263.2 164.5 286.3 166.1 305.6 157.3L343.6 138.3L351.8 40.67C352.2 36.01 348.5 32 343.8 32H40.09C35.41 32 31.73 36.01 32.12 40.67L40.35 138.3zM43.49 175.6L66.67 450.7C68.07 467.3 81.93 480 98.56 480H285.4C301.1 480 315.8 467.3 317.2 450.7L340.4 175.7L319.9 185.1C289.5 201.2 253 197.3 226.5 176.1C206.3 159.9 177.7 159.9 157.5 176.1C131 197.3 94.53 201.2 64.12 185.1L43.49 175.6z"/></svg>