<svg xmlns="http://www.w3.org/2000/svg" viewBox="0 0 384 512"><!--! Font Awesome Pro 6.2.0 by @fontawesome - https://fontawesome.com License - https://fontawesome.com/license (Commercial License) Copyright 2022 Fonticons, Inc. --><path d="M128 188C128 163.1 161.7 117.9 180.2 94.49C186.3 86.77 197.7 86.77 203.8 94.49C222.3 117.9 256 163.1 256 188C256 221.1 227.3 248 192 248C156.7 248 128 221.1 128 188zM192 216C211.7 216 224 201.5 224 188C224 188.1 223.1 188.1 223.1 187.9C223.9 187.4 223.4 184.6 221 179.1C218.4 173 214.5 165.8 209.6 157.8C204.1 148.9 197.1 139.1 192 131.8C186 139.1 179.9 148.9 174.4 157.8C169.5 165.8 165.6 173 162.1 179.1C160.6 184.6 160.1 187.4 160 187.9C160 188.1 160 188.1 160 188C160 201.5 172.4 216 192 216V216zM343.8 0C367.2 0 385.6 20.02 383.7 43.36L349.1 453.4C346.3 486.5 318.6 512 285.4 512H98.56C65.3 512 37.58 486.5 34.78 453.4L.2339 43.36C-1.732 20.02 16.68 0 40.09 0L343.8 0zM54.42 305.3L78.44 317.3C97.68 326.1 120.8 324.5 137.6 311.1C169.4 285.6 214.6 285.6 246.4 311.1C263.2 324.5 286.3 326.1 305.6 317.3L329.5 305.4L351.8 40.67C352.2 36 348.5 32 343.8 32H40.09C35.41 32 31.73 36.01 32.12 40.67L54.42 305.3zM57.57 342.7L66.67 450.7C68.07 467.3 81.93 480 98.56 480H285.4C301.1 480 315.8 467.3 317.2 450.7L326.3 342.7L319.9 345.1C289.5 361.2 253 357.3 226.5 336.1C206.3 319.9 177.7 319.9 157.5 336.1C131 357.3 94.53 361.2 64.13 345.1L57.57 342.7z"/></svg>