<svg xmlns="http://www.w3.org/2000/svg" viewBox="0 0 448 512"><!--! Font Awesome Pro 6.2.0 by @fontawesome - https://fontawesome.com License - https://fontawesome.com/license (Commercial License) Copyright 2022 Fonticons, Inc. --><path d="M408 32C430.1 32 448 49.91 448 72V96C448 188.5 391.1 267.9 311.1 302.1L382.6 457.4C386.2 465.4 382.7 474.9 374.6 478.6C366.6 482.2 357.1 478.7 353.4 470.6L328.6 416H160C160 451.3 131.3 480 96 480C60.65 480 32 451.3 32 416C32 380.7 60.65 352 96 352C101.7 352 107.1 352.7 112.4 354.1L136 302.1C56.05 267.9 0 188.5 0 96V72C0 49.91 17.91 32 40 32H408zM408 64H39.1C35.58 64 31.1 67.58 31.1 72V96C31.1 202 117.1 288 223.1 288C330 288 416 202 416 96V72C416 67.58 412.4 64 408 64zM140.4 369.9C144.7 374 148.4 378.8 151.4 384H314.1L281.6 312.5C263.2 317.4 243.9 320 223.1 320C204.1 320 184.8 317.4 166.4 312.5L140.4 369.9zM63.1 416C63.1 433.7 78.33 448 95.1 448C113.7 448 127.1 433.7 127.1 416C127.1 398.3 113.7 384 95.1 384C78.33 384 63.1 398.3 63.1 416z"/></svg>