<svg xmlns="http://www.w3.org/2000/svg" viewBox="0 0 576 512"><!--! Font Awesome Pro 6.2.0 by @fontawesome - https://fontawesome.com License - https://fontawesome.com/license (Commercial License) Copyright 2022 Fonticons, Inc. --><path d="M408 64H40C35.58 64 32 67.58 32 72V96C32 202 117.1 288 224 288C228.7 288 233.4 287.8 238 287.5C233.6 298.3 230 309.2 227.6 319.1C226.4 319.1 225.2 320 224 320C204.1 320 184.8 317.4 166.4 312.5L140.4 369.9C144.7 374 148.4 378.8 151.4 384H226.1C228.9 394.1 231.8 405.7 235.5 416H160C160 451.3 131.3 480 96 480C60.65 480 32 451.3 32 416C32 380.7 60.65 352 96 352C101.7 352 107.1 352.7 112.4 354.1L136 302.1C56.05 267.9 0 188.5 0 96V72C0 49.91 17.91 32 40 32H408C430.1 32 448 49.91 448 72V96C448 120.1 444.2 143.3 437.1 165.1C428.7 156.4 419.9 148.1 410.1 139.1L410.9 139.1C414.2 125.9 416 111.1 416 96V72C416 67.58 412.4 64 408 64H408zM64 416C64 433.7 78.33 448 96 448C113.7 448 128 433.7 128 416C128 398.3 113.7 384 96 384C78.33 384 64 398.3 64 416zM381.1 256C385.9 256 390.5 258.2 393.5 262C395.6 264.6 411.1 284.4 426.1 303.5L443.6 325.8L466.9 298.6C470 294.9 474.7 292.9 479.5 293C484.4 293.2 488.9 295.5 491.8 299.4C495.7 304.6 498.2 309.7 500.1 313.5L500.2 313.6C521.5 352.1 512.5 404 475.2 430.1L474.9 430.3C457.3 442 438.3 448 417 448C391.1 448 366.8 439.6 348.8 423.2C330.7 406.6 320 382.7 320 354C320 338.3 325 324.3 333.4 309.8C341.6 295.7 353.7 280.3 368.6 261.9C371.6 258.2 376.2 255.1 381.1 256V256zM475.8 337.3L455.1 361.4C452 365.1 447.4 367.1 442.6 366.1C437.9 366.9 433.4 364.6 430.4 360.9L380.9 297.8C372.3 308.8 365.8 317.8 361.1 325.9C354.5 337.2 352 345.7 352 354C352 374.3 359.3 389.4 370.4 399.6C381.7 409.9 397.9 416 417 416C431.7 416 444.6 412 456.1 403.8C477.1 389.6 484.8 361.1 475.8 337.3H475.8zM423.5 197.1C430.9 205 438.1 213.1 445 221.5C451.5 213.4 458.6 204.7 466.3 197C467.1 195.3 469.7 193.6 471.5 191.1C477.1 186.9 485.9 186.9 491.5 192C516.2 214.7 537.1 244.7 551.8 273.2C566.4 301.2 576 329.9 576 350.1C576 437.9 504.7 512 416 512C326.3 512 256 437.8 256 350.1C256 323.7 268.7 291.5 288.4 259.5C308.4 227.2 336.5 193.4 369.8 163.7C375.4 158.7 383.1 158.8 389.5 163.8C401.3 174.4 412.7 185.5 423.5 197.1zM445.4 253.5C435.8 253.6 426.6 249.4 420.4 241.1C407.6 226.5 393.1 211.9 379.6 198.2C353.6 223.2 331.6 250.5 315.6 276.3C297 306.4 288 332.5 288 350.1C288 420.9 344.7 480 416 480C486.4 480 544 420.8 544 350.1C544 337.7 537.2 314.5 523.4 287.9C512.5 266.8 498.1 245.3 481.6 227.4C477.8 231.8 473.1 236.5 470.1 241.4C464.1 248.9 455 253.4 445.4 253.5H445.4zM443 351L430.4 360.9z"/></svg>