<svg xmlns="http://www.w3.org/2000/svg" viewBox="0 0 448 512"><!--! Font Awesome Pro 6.2.0 by @fontawesome - https://fontawesome.com License - https://fontawesome.com/license (Commercial License) Copyright 2022 Fonticons, Inc. --><path d="M111.1 0C120.8 0 127.1 7.164 127.1 16V20C127.1 27.55 131.6 34.67 137.6 39.2L169.6 63.2C183.7 73.78 191.1 90.37 191.1 108V112C191.1 120.8 184.8 128 175.1 128C167.2 128 159.1 120.8 159.1 112V108C159.1 100.4 156.4 93.33 150.4 88.8L118.4 64.8C104.3 54.22 95.1 37.63 95.1 20V16C95.1 7.164 103.2 0 111.1 0zM416 160C433.7 160 448 174.3 448 192C448 272.5 398.5 341.4 328.3 369.9L382.6 489.4C386.2 497.4 382.7 506.9 374.6 510.6C366.6 514.2 357.1 510.7 353.4 502.6L335.9 464H157.1C150.9 491.6 125.8 512 96 512C60.65 512 32 483.3 32 448C32 412.7 60.65 384 96 384C101.7 384 107.1 384.7 112.4 386.1L119.7 369.9C49.51 341.4 0 272.5 0 192C0 174.3 14.33 160 32 160H416zM256 352C344.4 352 416 280.4 416 192H31.1C31.1 280.4 103.6 352 191.1 352H256zM140.4 401.9C148.8 409.1 154.1 420.3 157.1 432H321.3L297.5 379.5C284.1 382.4 270.2 384 256 384H191.1C177.8 384 163.9 382.5 150.5 379.5L140.4 401.9zM95.1 416C78.33 416 63.1 430.3 63.1 448C63.1 465.7 78.33 480 95.1 480C113.7 480 127.1 465.7 127.1 448C127.1 430.3 113.7 416 95.1 416zM223.1 20C223.1 27.55 227.6 34.67 233.6 39.2L265.6 63.2C279.7 73.78 288 90.37 288 108V112C288 120.8 280.8 128 272 128C263.2 128 256 120.8 256 112V108C256 100.4 252.4 93.33 246.4 88.8L214.4 64.8C200.3 54.22 191.1 37.63 191.1 20V16C191.1 7.164 199.2 0 207.1 0C216.8 0 223.1 7.164 223.1 16V20z"/></svg>