<svg xmlns="http://www.w3.org/2000/svg" viewBox="0 0 512 512"><!--! Font Awesome Pro 6.2.0 by @fontawesome - https://fontawesome.com License - https://fontawesome.com/license (Commercial License) Copyright 2022 Fonticons, Inc. --><path d="M320 155.2V112C320 103.2 327.2 96 336 96C344.8 96 352 103.2 352 112V208C352 215.1 347.4 221.3 340.6 223.3C333.9 225.4 326.6 222.7 322.7 216.9L288 164.8V208C288 216.8 280.8 224 272 224C263.2 224 256 216.8 256 208V112C256 104.9 260.6 98.73 267.4 96.69C274.1 94.64 281.4 97.26 285.3 103.1L320 155.2zM160 176C160 184.8 167.2 192 176 192C184.8 192 192 184.8 192 176V112C192 103.2 199.2 96 208 96C216.8 96 224 103.2 224 112V176C224 202.5 202.5 224 176 224C149.5 224 128 202.5 128 176V112C128 103.2 135.2 96 144 96C152.8 96 160 103.2 160 112V176zM464 480C472.8 480 480 487.2 480 496C480 504.8 472.8 512 464 512H360C355.9 512 352 510.4 349 507.7L217.7 384H77.22C34.57 384 0 349.4 0 306.8V240C0 107.5 107.5 0 240 0C372.5 0 480 107.5 480 240V256H496C504.8 256 512 263.2 512 272C512 280.8 504.8 288 496 288H368V480H464zM240 32C125.1 32 32 125.1 32 240V306.8C32 331.8 52.24 352 77.22 352H212.5L240.8 266.9C242.1 260.4 249.1 256 256 256H448V240C448 125.1 354.9 32 240 32V32zM336 288H267.5L242.4 363.4L336 451.4V288z"/></svg>