<svg xmlns="http://www.w3.org/2000/svg" viewBox="0 0 640 512"><!--! Font Awesome Pro 6.2.0 by @fontawesome - https://fontawesome.com License - https://fontawesome.com/license (Commercial License) Copyright 2022 Fonticons, Inc. --><path d="M480 144C480 152.8 472.8 160 464 160C455.2 160 448 152.8 448 144C448 135.2 455.2 128 464 128C472.8 128 480 135.2 480 144zM496 232C496 240.8 488.8 248 480 248C471.2 248 464 240.8 464 232C464 218.7 453.3 208 440 208C431.2 208 424 200.8 424 192C424 183.2 431.2 176 440 176C470.9 176 496 201.1 496 232zM512 144C512 135.2 519.2 128 528 128C536.8 128 544 135.2 544 144C544 152.8 536.8 160 528 160C519.2 160 512 152.8 512 144zM448.2 65.56C453.3 64.54 458.6 64 464 64H512C521.9 64 531.5 65.81 540.2 69.13L556.7 52.69C562.9 46.44 573.1 46.44 579.3 52.69C585.6 58.94 585.6 69.07 579.3 75.31L567.9 86.75C582.8 101.3 592 121.6 592 144C592 149.9 595.4 155.2 600.3 158.4C624.2 174.2 640 201.2 640 232C640 266.2 620.5 295.8 592 310.4V336C592 344.8 584.8 352 576 352C567.2 352 560 344.8 560 336V319.6C557.4 319.9 554.7 320 552 320H464V336C464 344.8 456.8 352 448 352C439.2 352 432 344.8 432 336V319.6C387.1 315.6 352 277.9 352 232C352 210.1 360 190.1 373.2 174.7C379.5 167.4 384 158.6 384 149V144C384 134.1 385.5 126.3 388.3 118.1L370.1 110.9C345.5 101 319.3 96 292.9 96H223.1C135.6 96 63.1 167.6 63.1 256L63.1 283.1C64 315.8 52.87 347.5 32.44 373.1L28.49 377.1C22.97 384.9 12.9 386 6.001 380.5C-.899 374.1-2.017 364.9 3.503 358L7.451 353.1C23.34 333.2 31.1 308.5 31.1 283.1L31.1 256C31.1 149.1 117.1 64 223.1 64H292.9C323.4 64 353.6 69.83 381.1 81.16L404.7 90.26C408.4 86.25 412.4 82.62 416.8 79.41L404.7 67.31C398.4 61.07 398.4 50.94 404.7 44.69C410.9 38.44 421.1 38.44 427.3 44.69L448.2 65.56zM552 288C582.9 288 608 262.9 608 232C608 218.7 597.3 208 584 208C570.7 208 560 218.7 560 232C560 240.8 552.8 248 544 248C535.2 248 528 240.8 528 232C528 204.8 547.4 182.1 573.2 177C565.5 168.7 560 157.4 560 144C560 117.5 538.5 96 512 96H464C437.5 96 416 117.5 416 144V149C416 168.8 406.7 184.8 397.5 195.5C389.1 205.3 384 218 384 232C384 262.9 409.1 288 440 288L552 288zM448 384V424C448 454.9 422.9 480 392 480H360C329.1 480 303.1 454.9 303.1 424V385.4C272.5 393.6 239.5 393.6 207.1 385.4V424C207.1 454.9 182.9 480 151.1 480H119.1C89.07 480 63.1 454.9 63.1 424V352C63.1 343.2 71.16 336 79.1 336C88.84 336 95.1 343.2 95.1 352V424C95.1 437.3 106.7 448 119.1 448H151.1C165.3 448 175.1 437.3 175.1 424V363.9C175.1 358.8 178.4 354 182.5 351C186.6 348 191.9 347.1 196.8 348.7L208.1 352.2C239.3 361.1 272.7 361.1 303.9 352.2L315.2 348.7C320.1 347.1 325.4 348 329.5 351C333.6 354 336 358.8 336 363.9V424C336 437.3 346.7 448 360 448H392C405.3 448 416 437.3 416 424V371.8C424.5 379.4 435.7 384 448 384z"/></svg>