<svg xmlns="http://www.w3.org/2000/svg" viewBox="0 0 320 512"><!--! Font Awesome Pro 6.2.0 by @fontawesome - https://fontawesome.com License - https://fontawesome.com/license (Commercial License) Copyright 2022 Fonticons, Inc. --><path d="M175.1 67.74L251.9 48.53C286.5 39.88 320 66.05 320 101.7C320 117.3 313.4 131.6 302.7 141.7C313.2 151.6 320 165.7 320 181.7C320 197.3 313.4 211.6 302.7 221.7C313.2 231.6 320 245.7 320 261.7C320 286.9 302.9 308.8 278.5 314.9L208 332.5V352H224C241.7 352 256 366.3 256 384V448C256 465.7 241.7 480 224 480H176V496C176 504.8 168.8 512 160 512C151.2 512 144 504.8 144 496V480H96C78.33 480 64 465.7 64 448V384C64 366.3 78.33 352 96 352H112V317.5L144 309.5V352H176V320C176 312.7 180.1 306.3 188.1 304.5L270.7 283.8C280.9 281.3 288 272.2 288 261.7C288 246.9 274.1 235.1 259.7 239.6L131.9 271.5L131.8 271.6L68.1 287.5C33.51 296.1 0 269.1 0 234.3C0 218.7 6.556 204.4 17.34 194.3C6.758 184.4 .0003 170.3 .0003 154.3C.0003 138.7 6.556 124.4 17.34 114.3C6.758 104.4 0 90.31 0 74.3C0 49.15 17.12 27.23 41.51 21.13L107.9 4.533C142.5-4.115 176 22.05 176 57.7C176 61.12 175.7 64.47 175.1 67.74H175.1zM96 448H224V384H192.1L192 384L191.9 384H96V448zM288 181.7C288 166.9 274.2 156.1 259.8 159.5L68.1 207.5L67.86 207.5L49.27 212.2C39.12 214.7 32 223.8 32 234.3C32 249.1 45.94 260 60.34 256.4L270.7 203.8C280.9 201.3 288 192.2 288 181.7L288 181.7zM49.27 132.2C39.12 134.7 32 143.8 32 154.3C32 169.1 45.84 179.9 60.18 176.5L251.9 128.5L252.1 128.5L270.7 123.8C280.9 121.3 288 112.2 288 101.7C288 86.87 274.1 75.98 259.7 79.58L49.27 132.2zM126.8 79.82C136.9 77.26 144 68.15 144 57.7C144 42.87 130.1 31.98 115.7 35.58L49.27 52.17C39.12 54.71 32 63.83 32 74.3C32 89.13 45.93 100 60.31 96.43L126.7 79.83L126.8 79.82z"/></svg>