<svg xmlns="http://www.w3.org/2000/svg" viewBox="0 0 640 512"><!--! Font Awesome Pro 6.2.0 by @fontawesome - https://fontawesome.com License - https://fontawesome.com/license (Commercial License) Copyright 2022 Fonticons, Inc. --><path d="M87.15 33.69C95.06 37.64 98.26 47.25 94.31 55.15C90.36 63.06 80.75 66.26 72.84 62.31L8.844 30.31C.9405 26.36-2.263 16.75 1.689 8.844C5.64 .9405 15.25-2.263 23.15 1.689L87.15 33.69zM567.2 62.31C559.3 66.26 549.6 63.06 545.7 55.15C541.7 47.25 544.9 37.64 552.8 33.69L616.8 1.689C624.7-2.263 634.4 .9405 638.3 8.844C642.3 16.75 639.1 26.36 631.2 30.31L567.2 62.31zM79.1 159.1C88.84 159.1 95.1 167.2 95.1 175.1C95.1 184.8 88.84 191.1 79.1 191.1H15.1C7.163 191.1-.0003 184.8-.0003 175.1C-.0003 167.2 7.163 159.1 15.1 159.1H79.1zM624 159.1C632.8 159.1 640 167.2 640 175.1C640 184.8 632.8 191.1 624 191.1H560C551.2 191.1 544 184.8 544 175.1C544 167.2 551.2 159.1 560 159.1H624zM23.15 350.3C15.25 354.3 5.64 351.1 1.689 343.2C-2.263 335.3 .9405 325.6 8.844 321.7L72.84 289.7C80.75 285.7 90.36 288.9 94.31 296.8C98.26 304.7 95.06 314.4 87.15 318.3L23.15 350.3zM631.2 321.7C639.1 325.6 642.3 335.3 638.3 343.2C634.4 351.1 624.7 354.3 616.8 350.3L552.8 318.3C544.9 314.4 541.7 304.7 545.7 296.8C549.6 288.9 559.3 285.7 567.2 289.7L631.2 321.7zM267.9 4.532C302.5-4.115 336 22.05 336 57.7C336 61.12 335.7 64.47 335.1 67.74L411.9 48.53C446.5 39.88 480 66.05 480 101.7C480 117.3 473.4 131.6 462.7 141.7C473.2 151.6 479.1 165.7 479.1 181.7C479.1 197.3 473.4 211.6 462.7 221.7C473.2 231.6 480 245.7 480 261.7C480 286.9 462.9 308.8 438.5 314.9L368 332.5V352H384C401.7 352 416 366.3 416 384V448C416 465.7 401.7 480 384 480H336V496C336 504.8 328.8 512 319.1 512C311.2 512 303.1 504.8 303.1 496V480H255.1C238.3 480 223.1 465.7 223.1 448V384C223.1 366.3 238.3 352 255.1 352H271.1V317.5L303.1 309.5V352H336V320C336 312.7 340.1 306.3 348.1 304.5L430.7 283.8C440.9 281.3 448 272.2 448 261.7C448 246.9 434.1 235.1 419.7 239.6L291.9 271.5L291.8 271.6L228.1 287.5C193.5 296.1 159.1 269.1 159.1 234.3C159.1 218.7 166.6 204.4 177.3 194.3C166.8 184.4 159.1 170.3 159.1 154.3C159.1 138.7 166.6 124.4 177.3 114.3C166.8 104.4 159.1 90.31 159.1 74.3C159.1 49.15 177.1 27.23 201.5 21.13L267.9 4.532zM351.9 384H255.1V448H384V384H352.1L352 384L351.9 384zM430.7 203.8C440.9 201.3 448 192.2 448 181.7C448 166.9 434.2 156.1 419.8 159.5L228.1 207.5L227.9 207.5L209.3 212.2C199.1 214.7 191.1 223.8 191.1 234.3C191.1 249.1 205.9 260 220.3 256.4L430.7 203.8zM209.3 132.2C199.1 134.7 191.1 143.8 191.1 154.3C191.1 169.1 205.8 179.9 220.2 176.5L411.9 128.5L412.1 128.5L430.7 123.8C440.9 121.3 448 112.2 448 101.7C448 86.86 434.1 75.98 419.7 79.58L209.3 132.2zM275.7 35.58L209.3 52.17C199.1 54.71 191.1 63.83 191.1 74.3C191.1 89.13 205.1 100 220.3 96.42L286.7 79.83L286.8 79.81C296.9 77.26 303.1 68.15 303.1 57.7C303.1 42.86 290.1 31.98 275.7 35.58H275.7z"/></svg>