<svg xmlns="http://www.w3.org/2000/svg" viewBox="0 0 640 512"><!--! Font Awesome Pro 6.2.0 by @fontawesome - https://fontawesome.com License - https://fontawesome.com/license (Commercial License) Copyright 2022 Fonticons, Inc. --><path d="M256 32C132.3 32 32 132.3 32 256C32 379.7 132.3 480 256 480C311.6 480 362.5 459.7 401.7 426.2C410.4 434 421.7 439.1 434.1 439.9C388 484.5 325.2 512 256 512C114.6 512 0 397.4 0 256C0 114.6 114.6 0 256 0C392.8 0 504.6 107.4 511.6 242.4L479.4 273C479.8 267.4 480 261.7 480 256C480 132.3 379.7 32 256 32V32zM176 208C176 216.8 168.8 224 160 224C151.2 224 144 216.8 144 208V144C144 135.2 151.2 128 160 128C168.8 128 176 135.2 176 144V208zM272 208C272 216.8 264.8 224 256 224C247.2 224 240 216.8 240 208V144C240 135.2 247.2 128 256 128C264.8 128 272 135.2 272 144V208zM368 208C368 216.8 360.8 224 352 224C343.2 224 336 216.8 336 208V144C336 135.2 343.2 128 352 128C360.8 128 368 135.2 368 144V208zM603.9 252.5L569 328H618.4C630.3 328 640 337.7 640 349.6C640 355.5 637.6 361.2 633.3 365.3L484.2 506.5C480.5 510 475.5 512 470.4 512C455.7 512 446 496.8 452.1 483.5L486.1 408H437.6C425.7 408 416 398.3 416 386.4C416 380.5 418.4 374.8 422.7 370.7L571.8 229.5C575.5 225.1 580.5 224 585.6 224C600.3 224 609.1 239.2 603.9 252.5zM512 376C517.5 376 522.5 378.8 525.5 383.4C528.4 387.1 528.8 393.8 526.5 398.7L507.2 440.6L592.3 360H544C538.5 360 533.5 357.2 530.5 352.6C527.6 348 527.2 342.2 529.5 337.3L548.8 295.4L463.7 376H512z"/></svg>