<svg xmlns="http://www.w3.org/2000/svg" viewBox="0 0 512 512"><!--! Font Awesome Pro 6.2.0 by @fontawesome - https://fontawesome.com License - https://fontawesome.com/license (Commercial License) Copyright 2022 Fonticons, Inc. --><path d="M176 208C176 216.8 168.8 224 160 224C151.2 224 144 216.8 144 208V144C144 135.2 151.2 128 160 128C168.8 128 176 135.2 176 144V208zM272 208C272 216.8 264.8 224 256 224C247.2 224 240 216.8 240 208V144C240 135.2 247.2 128 256 128C264.8 128 272 135.2 272 144V208zM368 208C368 216.8 360.8 224 352 224C343.2 224 336 216.8 336 208V144C336 135.2 343.2 128 352 128C360.8 128 368 135.2 368 144V208zM512 256C512 397.4 397.4 512 256 512C114.6 512 0 397.4 0 256C0 114.6 114.6 0 256 0C397.4 0 512 114.6 512 256zM256 32C132.3 32 32 132.3 32 256C32 379.7 132.3 480 256 480C379.7 480 480 379.7 480 256C480 132.3 379.7 32 256 32z"/></svg>