<svg xmlns="http://www.w3.org/2000/svg" viewBox="0 0 640 512"><!--! Font Awesome Pro 6.2.0 by @fontawesome - https://fontawesome.com License - https://fontawesome.com/license (Commercial License) Copyright 2022 Fonticons, Inc. --><path d="M32 255.1C32 379.7 132.3 480 256 480C281.1 480 305.3 475.9 327.9 468.2C334.9 477.4 342.6 485.9 351.1 493.7C321.7 505.5 289.6 512 256 512C114.6 512 0 397.4 0 256C0 114.6 114.6 0 256 0C361.7 0 452.5 64.07 491.5 155.5C486.1 150.2 480.6 145.1 474.1 139.1C465.1 131.1 452.4 127.2 439.9 128.1C399.5 70.03 332.2 32 255.1 32C132.3 32 31.1 132.3 31.1 256L32 255.1zM368 143.1V184.9C358.2 196.2 349 207.8 340.7 219.4C337.8 216.5 336 212.4 336 207.1V143.1C336 135.2 343.2 127.1 352 127.1C360.8 127.1 368 135.2 368 143.1zM176 207.1C176 216.8 168.8 223.1 160 223.1C151.2 223.1 144 216.8 144 207.1V143.1C144 135.2 151.2 127.1 160 127.1C168.8 127.1 176 135.2 176 143.1V207.1zM272 207.1C272 216.8 264.8 223.1 256 223.1C247.2 223.1 240 216.8 240 207.1V143.1C240 135.2 247.2 127.1 256 127.1C264.8 127.1 272 135.2 272 143.1V207.1zM445.1 255.1C449.9 256 454.5 258.2 457.5 262C459.6 264.6 475.1 284.4 490.1 303.5L507.6 325.8L530.9 298.6C534 294.9 538.7 292.8 543.5 293C548.4 293.2 552.9 295.5 555.8 299.4C559.7 304.6 562.2 309.7 564.1 313.5L564.2 313.6C585.5 352.1 576.5 404 539.2 430.1L538.9 430.3C521.3 442 502.3 448 480.1 448C455.1 448 430.8 439.6 412.8 423.2C394.7 406.6 384 382.7 384 354C384 338.3 389 324.3 397.4 309.8C405.6 295.7 417.7 280.3 432.6 261.9C435.6 258.2 440.2 255.1 445.1 255.1L445.1 255.1zM539.8 337.3L519.1 361.4C516 365.1 511.4 367.1 506.6 366.1C501.9 366.9 497.4 364.6 494.4 360.9L444.9 297.8C436.3 308.8 429.8 317.8 425.1 325.9C418.5 337.2 416 345.7 416 354C416 374.3 423.3 389.4 434.4 399.6C445.7 409.9 461.9 416 481 416C495.7 416 508.6 412 520.1 403.8C541.1 389.6 548.8 361.1 539.8 337.3H539.8zM487.5 197.1C494.9 205 502.1 213.1 509 221.5C515.5 213.4 522.6 204.7 530.3 197C531.1 195.3 533.7 193.6 535.5 191.1C541.1 186.9 549.9 186.9 555.5 192C580.2 214.7 601.1 244.7 615.8 273.2C630.4 301.2 640 329.9 640 350.1C640 437.9 568.7 512 480 512C390.3 512 319.1 437.8 319.1 350.1C319.1 323.7 332.7 291.5 352.4 259.5C372.4 227.2 400.5 193.4 433.8 163.7C439.4 158.7 447.1 158.8 453.5 163.8C465.3 174.4 476.7 185.5 487.5 197.1V197.1zM509.4 253.5C499.8 253.6 490.6 249.4 484.4 241.1C471.6 226.5 457.1 211.9 443.6 198.2C417.6 223.2 395.6 250.5 379.6 276.3C361 306.4 352 332.5 352 350.1C352 420.9 408.7 480 480 480C550.4 480 608 420.8 608 350.1C608 337.7 601.2 314.5 587.4 287.9C576.5 266.8 562.1 245.3 545.6 227.4C541.8 231.8 537.1 236.5 534.1 241.4C528.1 248.9 519 253.4 509.4 253.5V253.5zM507 350.1L494.4 360.9z"/></svg>