<svg xmlns="http://www.w3.org/2000/svg" viewBox="0 0 640 512"><!--! Font Awesome Pro 6.2.0 by @fontawesome - https://fontawesome.com License - https://fontawesome.com/license (Commercial License) Copyright 2022 Fonticons, Inc. --><path d="M256 480C305.7 480 351.5 463.8 388.7 436.5C391.5 447.3 395.5 457.6 400.6 467.3C359.5 495.5 309.7 512 256 512C114.6 512 0 397.4 0 256C0 114.6 114.6 0 256 0C366.8 0 461.2 70.43 496.8 168.1C488.3 174.3 481.1 181.9 476.2 191.1L472.5 198.1C446.1 102.5 359.7 31.1 256 31.1C132.3 31.1 32 132.3 32 255.1C32 379.7 132.3 480 256 480V480zM176 208C176 216.8 168.8 224 160 224C151.2 224 144 216.8 144 208V144C144 135.2 151.2 128 160 128C168.8 128 176 135.2 176 144V208zM272 208C272 216.8 264.8 224 256 224C247.2 224 240 216.8 240 208V144C240 135.2 247.2 128 256 128C264.8 128 272 135.2 272 144V208zM368 208C368 216.8 360.8 224 352 224C343.2 224 336 216.8 336 208V144C336 135.2 343.2 128 352 128C360.8 128 368 135.2 368 144V208zM429.2 347.3L504.5 206.1C509.1 197.4 518.2 191.1 528 191.1C537.8 191.1 546.9 197.4 551.5 206.1L626.8 347.3C635.5 363.5 640 381.6 640 400C640 461.9 589.9 512 528 512C466.1 512 416 461.9 416 400C416 381.6 420.5 363.5 429.2 347.3H429.2zM448 400C448 444.2 483.8 480 528 480C572.2 480 608 444.2 608 400C608 386.9 604.8 373.9 598.6 362.4L528 230L457.4 362.4C451.2 373.9 448 386.9 448 400z"/></svg>