<svg xmlns="http://www.w3.org/2000/svg" viewBox="0 0 512 512"><!--! Font Awesome Pro 6.2.0 by @fontawesome - https://fontawesome.com License - https://fontawesome.com/license (Commercial License) Copyright 2022 Fonticons, Inc. --><path d="M336 112C336 120.8 328.8 128 320 128H288C279.2 128 272 120.8 272 112C272 103.2 279.2 96 288 96H304V80C304 71.16 311.2 64 320 64C328.8 64 336 71.16 336 80V112zM432 188C432 199 423 208 412 208C400.1 208 392 199 392 188C392 176.1 400.1 168 412 168C423 168 432 176.1 432 188zM512 216V224C512 250.5 490.5 272 464 272H378.8L357.2 326.2L369.1 330.5C387.9 336.4 400 353.2 400 372.1C400 396.3 380.3 416 356.1 416H64C46.33 416 32 430.3 32 448C32 465.7 46.33 480 64 480H464C472.8 480 480 487.2 480 496C480 504.8 472.8 512 464 512H64C28.65 512 0 483.3 0 448C0 412.7 28.65 384 64 384H111.1C101.1 370.6 96 354 96 336C96 251.3 155.8 180.6 235.5 163.8C218.2 146.1 208 122 208 96.33C208 43.4 250.9 0 304 0C322.5 0 339.7 5.222 354.4 14.27C367.3 5.28 383.1 0 400 0C444.2 0 480 35.82 480 80C480 95.74 475.4 110.4 467.6 122.8C494.7 144.8 512 178.4 512 216zM379.4 36.61C392.3 52.95 400 73.58 400 96V96.26C414.3 97.2 427.8 100.6 440.3 106.1C445.2 98.59 448 89.63 448 80C448 53.49 426.5 32 400 32C392.6 32 385.7 33.65 379.4 36.61zM175.1 384H356.1C362.7 384 368 378.7 368 372.1C368 366.1 364.7 362.4 359.9 360.8L282.9 335.2C274.6 332.4 270 323.3 272.8 314.9C275.6 306.6 284.7 302 293.1 304.8L326.7 316.1L353.1 250.1C355.6 243.1 361.5 240 368 240H464C472.8 240 480 232.8 480 224V216C480 167.4 440.6 128 392 128H384C375.2 128 368 120.8 368 112V96C368 60.65 339.3 32 304 32C268.7 32 240 60.9 240 96.33C240 123.1 256.6 147.1 281.5 156.5L293.6 161C300.9 163.7 305.1 171.2 303.7 178.9C302.4 186.5 295.7 192 288 192H272C192.5 192 127.1 256.5 127.1 336C127.1 362.5 149.5 384 175.1 384V384z"/></svg>