<svg xmlns="http://www.w3.org/2000/svg" viewBox="0 0 448 512"><!--! Font Awesome Pro 6.2.0 by @fontawesome - https://fontawesome.com License - https://fontawesome.com/license (Commercial License) Copyright 2022 Fonticons, Inc. --><path d="M96 88C96 57.07 121.1 32 152 32C182.9 32 208 57.07 208 88C208 118.9 182.9 144 152 144C121.1 144 96 118.9 96 88zM152 112C165.3 112 176 101.3 176 88C176 74.75 165.3 64 152 64C138.7 64 128 74.75 128 88C128 101.3 138.7 112 152 112zM154.5 202.9C167.7 176.6 194.6 160 224 160C253.4 160 280.3 176.6 293.5 202.9L327.2 270.5C330.7 277.3 337.2 281.1 344.6 284.1C385.9 296.4 416 334.7 416 380C416 435.2 371.2 480 316 480C294.8 480 275.2 473.4 259.1 462.2C241.7 450.2 206.3 450.2 188.9 462.2C172.8 473.4 153.2 480 132 480C76.77 480 32 435.2 32 380C32 334.7 62.12 296.4 103.4 284.1C110.8 281.1 117.3 277.3 120.8 270.5L154.5 202.9zM183.2 217.2L149.4 284.8C141.1 301.3 126.3 310.7 112.6 314.8C84.44 323.2 64 349.2 64 380C64 417.6 94.44 448 132 448C146.4 448 159.7 443.5 170.7 435.9C186.7 424.8 207.2 421.2 224 421.2C240.8 421.2 261.3 424.8 277.3 435.9C288.3 443.5 301.6 448 316 448C353.6 448 384 417.6 384 380C384 349.2 363.6 323.2 335.4 314.8C321.7 310.7 306.9 301.3 298.6 284.8L264.8 217.2C257.1 201.8 241.3 192 224 192C206.7 192 190.9 201.8 183.2 217.2V217.2zM352 88C352 118.9 326.9 144 296 144C265.1 144 240 118.9 240 88C240 57.07 265.1 32 296 32C326.9 32 352 57.07 352 88zM296 64C282.7 64 272 74.75 272 88C272 101.3 282.7 112 296 112C309.3 112 320 101.3 320 88C320 74.75 309.3 64 296 64zM336 200C336 169.1 361.1 144 392 144C422.9 144 448 169.1 448 200C448 230.9 422.9 256 392 256C361.1 256 336 230.9 336 200zM392 224C405.3 224 416 213.3 416 200C416 186.7 405.3 176 392 176C378.7 176 368 186.7 368 200C368 213.3 378.7 224 392 224zM112 200C112 230.9 86.93 256 56 256C25.07 256 0 230.9 0 200C0 169.1 25.07 144 56 144C86.93 144 112 169.1 112 200zM56 176C42.75 176 32 186.7 32 200C32 213.3 42.75 224 56 224C69.25 224 80 213.3 80 200C80 186.7 69.25 176 56 176z"/></svg>