<svg xmlns="http://www.w3.org/2000/svg" viewBox="0 0 512 512"><!--! Font Awesome Pro 6.2.0 by @fontawesome - https://fontawesome.com License - https://fontawesome.com/license (Commercial License) Copyright 2022 Fonticons, Inc. --><path d="M335.2 1.689C362.1 15.15 399.1 58.14 399.1 127.1C400.2 139.3 398.5 151.2 394.5 163.1C380.2 206 342.4 232.2 310.1 221.7C277.8 211.1 263.2 167.7 277.5 124.9C290.5 86.01 322.7 60.86 352.6 64.32C342.4 45.76 329.3 34.56 320.8 30.31C312.9 26.36 309.7 16.75 313.7 8.844C317.6 .9405 327.3-2.263 335.2 1.689L335.2 1.689zM307.9 134.1C302.7 150.5 303.2 164.9 306.6 175.2C310.1 185.4 315.6 189.8 320 191.2C324.5 192.7 331.7 192.5 340.8 186.2C349.9 179.9 358.1 168.5 364.2 153C369.3 137.5 368.8 123.1 365.4 112.8C361.9 102.6 356.4 98.21 351.1 96.76C347.5 95.29 340.3 95.55 331.2 101.8C322.1 108.1 313 119.5 307.9 134.1V134.1zM109.5 163.1C105.5 151.2 103.8 139.3 104 128C104 58.14 141.9 15.15 168.8 1.689C176.7-2.262 186.4 .9412 190.3 8.845C194.3 16.75 191.1 26.36 183.2 30.31C174.7 34.56 161.6 45.76 151.4 64.32C181.3 60.86 213.5 86.01 226.5 124.9C240.8 167.7 226.2 211.1 193.9 221.7C161.6 232.2 123.8 206 109.5 163.1L109.5 163.1zM197.4 175.2C200.8 164.9 201.3 150.5 196.1 134.1C190.1 119.5 181.9 108.1 172.8 101.8C163.7 95.55 156.5 95.29 152 96.76C147.6 98.21 142.1 102.6 138.6 112.8C135.2 123.1 134.7 137.5 139.9 153C145 168.5 154.1 179.9 163.2 186.2C172.3 192.5 179.5 192.7 183.1 191.2C188.4 189.8 193.9 185.4 197.4 175.2V175.2zM11.63 281.4C3.718 267.8-.0723 253.3 0 240C0 170.1 37.91 127.2 64.84 113.7C72.75 109.7 82.36 112.9 86.31 120.8C90.26 128.7 87.06 138.4 79.16 142.3C68.48 147.6 50.58 163.1 40.17 192C61.7 191.1 85.86 205.6 100.4 230.6C119.2 263 114.7 300.7 90.16 314.7C65.65 328.8 30.49 313.9 11.63 281.4V281.4zM79.76 275.7C80.69 268 78.99 257.5 72.71 246.7C66.44 235.9 58.02 229.1 50.73 225.1C43.45 222.9 39.38 224.1 37.75 225C36.18 225.1 33.16 228.7 32.24 236.3C31.31 243.1 33.01 254.5 39.29 265.3C45.56 276.1 53.98 282.9 61.27 286C68.55 289.1 72.62 287.9 74.25 286.1C75.82 286 78.84 283.3 79.76 275.7zM442.8 433.2C446.4 442.9 448 453.3 448 463.7V468.1C448 492.3 428.3 512 404.1 512C390.8 512 377.5 509.1 364.8 506L284.6 480.9C265.1 475.1 246 475.1 227.4 480.9L147.2 506C134.5 509.1 121.2 512 107.9 512C83.65 512 63.1 492.3 63.1 468.1V463.7C63.1 453.3 65.6 442.9 69.21 433.2C121.6 291.9 214.7 256 255.1 256C297.3 256 390.4 291.9 442.8 433.2H442.8zM256 288C230.3 288 147.8 313.4 99.21 444.3C97.1 450 96 456.5 96 463.7V468.1C96 474.7 101.3 480 107.9 480C117.1 480 128 478.5 137.6 475.5L217.8 450.4C242.7 442.6 269.3 442.6 294.2 450.4L374.4 475.5C383.1 478.5 394 480 404.1 480C410.7 480 416 474.7 416 468.1V463.7C416 456.5 414.9 450 412.8 444.3C364.2 313.4 281.7 288 256 288zM471.8 192C461.4 163.1 443.5 147.6 432.8 142.3C424.9 138.4 421.7 128.7 425.7 120.8C429.6 112.9 439.3 109.7 447.2 113.7C474.1 127.2 512 170.1 512 239.1C512.1 253.3 508.3 267.8 500.4 281.4C481.5 313.9 446.3 328.8 421.8 314.7C397.3 300.7 392.8 263 411.6 230.6C426.1 205.6 450.3 191.1 471.8 192V192zM439.3 246.7C433 257.5 431.3 268 432.2 275.7C433.2 283.3 436.2 286 437.8 286.1C439.4 287.9 443.4 289.1 450.7 286C458 282.9 466.4 276.1 472.7 265.3C478.1 254.5 480.7 243.1 479.8 236.3C478.8 228.7 475.8 225.1 474.2 225C472.6 224.1 468.6 222.9 461.3 225.1C453.1 229.1 445.6 235.9 439.3 246.7z"/></svg>