<svg xmlns="http://www.w3.org/2000/svg" viewBox="0 0 512 512"><!--! Font Awesome Pro 6.2.0 by @fontawesome - https://fontawesome.com License - https://fontawesome.com/license (Commercial License) Copyright 2022 Fonticons, Inc. --><path d="M109.5 131.1C95.19 88.26 109.8 44.92 142.1 34.34C174.4 23.77 212.2 49.96 226.5 92.85C240.8 135.7 226.2 179.1 193.9 189.7C161.6 200.2 123.8 174 109.5 131.1zM197.4 143.2C200.8 132.9 201.3 118.5 196.1 102.1C190.1 87.49 181.9 76.15 172.8 69.85C163.7 63.55 156.5 63.29 152 64.76C147.6 66.21 142.1 70.58 138.6 80.84C135.2 91.14 134.7 105.5 139.9 121C145 136.5 154.1 147.9 163.2 154.2C172.3 160.5 179.5 160.7 183.1 159.2C188.4 157.8 193.9 153.4 197.4 143.2V143.2zM11.63 249.4C-7.237 216.1-2.664 179.3 21.84 165.3C46.35 151.2 81.51 166.1 100.4 198.6C119.2 231 114.7 268.7 90.16 282.7C65.65 296.8 30.49 281.9 11.63 249.4zM79.76 243.7C80.69 236 78.99 225.5 72.71 214.7C66.44 203.9 58.02 197.1 50.73 193.1C43.45 190.9 39.38 192.1 37.75 193C36.18 193.1 33.16 196.7 32.24 204.3C31.31 211.1 33.01 222.5 39.29 233.3C45.56 244.1 53.98 250.9 61.27 254C68.55 257.1 72.62 255.9 74.25 254.1C75.82 254 78.84 251.3 79.76 243.7zM442.8 401.2C446.4 410.9 448 421.3 448 431.7V436.1C448 460.3 428.3 480 404.1 480C390.8 480 377.5 477.1 364.8 474L284.6 448.9C265.1 443.1 246 443.1 227.4 448.9L147.2 474C134.5 477.1 121.2 480 107.9 480C83.65 480 63.1 460.3 63.1 436.1V431.7C63.1 421.3 65.6 410.9 69.21 401.2C121.6 259.9 214.7 224 255.1 224C297.3 224 390.4 259.9 442.8 401.2H442.8zM256 256C230.3 256 147.8 281.4 99.21 412.3C97.1 418 96 424.5 96 431.7V436.1C96 442.7 101.3 448 107.9 448C117.1 448 128 446.5 137.6 443.5L217.8 418.4C242.7 410.6 269.3 410.6 294.2 418.4L374.4 443.5C383.1 446.5 394 448 404.1 448C410.7 448 416 442.7 416 436.1V431.7C416 424.5 414.9 418 412.8 412.3C364.2 281.4 281.7 256 256 256zM490.2 165.3C514.7 179.3 519.2 216.1 500.4 249.4C481.5 281.9 446.3 296.8 421.8 282.7C397.3 268.7 392.8 231 411.6 198.6C430.5 166.1 465.7 151.2 490.2 165.3zM439.3 214.7C433 225.5 431.3 236 432.2 243.7C433.2 251.3 436.2 254 437.8 254.1C439.4 255.9 443.4 257.1 450.7 254C458 250.9 466.4 244.1 472.7 233.3C478.1 222.5 480.7 211.1 479.8 204.3C478.8 196.7 475.8 193.1 474.2 193C472.6 192.1 468.6 190.9 461.3 193.1C453.1 197.1 445.6 203.9 439.3 214.7zM361.9 34.34C394.2 44.92 408.8 88.26 394.5 131.1C380.2 174 342.4 200.2 310.1 189.7C277.8 179.1 263.2 135.7 277.5 92.85C291.8 49.96 329.6 23.77 361.9 34.34zM307.8 102.1C302.7 118.5 303.2 132.9 306.6 143.2C310.1 153.4 315.6 157.8 320 159.2C324.5 160.7 331.7 160.5 340.8 154.2C349.9 147.9 358.1 136.5 364.2 121C369.3 105.5 368.8 91.14 365.4 80.84C361.9 70.58 356.4 66.21 351.1 64.76C347.5 63.29 340.3 63.55 331.2 69.85C322.1 76.15 313 87.49 307.8 102.1V102.1z"/></svg>