<svg xmlns="http://www.w3.org/2000/svg" viewBox="0 0 640 512"><!--! Font Awesome Pro 6.2.0 by @fontawesome - https://fontawesome.com License - https://fontawesome.com/license (Commercial License) Copyright 2022 Fonticons, Inc. --><path d="M448 236C448 224.1 456.1 216 468 216C479 216 488 224.1 488 236C488 247 479 256 468 256C456.1 256 448 247 448 236zM528 75.82V80H569.3C590.6 80 608 97.35 608 118.7C608 147.7 592.2 173.1 567.1 187.7C571.3 192.3 576.1 196.5 581.3 200H600C622.1 200 640 217.9 640 240V320C640 342.1 622.1 360 600 360H560.2L560.1 360L560 360.1C559.8 360.2 559.5 360.4 559.3 360.8C542.7 382.1 519.9 399.6 493.1 408.5L476 458.8C471.5 471.5 459.4 480 445.9 480H400C382.3 480 368 465.7 368 448V416H287.1V448C287.1 465.7 273.7 480 255.1 480H210.1C196.6 480 184.5 471.5 179.1 458.8L152.2 380.8C109.1 355.1 80 309.4 80 256V240H47.45C21.24 240 0 218.8 0 192.6C0 170.8 14.82 151.8 35.94 146.5L44.12 144.5C52.69 142.3 61.38 147.5 63.52 156.1C65.67 164.7 60.45 173.4 51.88 175.5L43.7 177.6C36.82 179.3 32 185.5 32 192.6C32 201.1 38.92 208 47.45 208H83.2C98.03 134.1 162.6 80 240 80H375.5C385.5 66.43 399.7 55.98 416.6 50.77L471.3 33.94C475.5 32.65 479.8 32 484.2 32C508.4 32 528 51.62 528 75.82H528zM525.1 112C523.4 118.4 520.9 124.5 517.8 130.2C528.8 139.5 538.1 149.9 547.1 161.5C564.1 154.1 576 137.3 576 118.7C576 115 572.1 112 569.3 112H525.1zM426 81.36C413.9 85.09 404.1 93.3 398.1 103.9L393.5 112.2L383.9 112C382.8 112 381.6 112 380.5 112H239.1C169.3 112 111.1 169.3 111.1 240V256C111.1 299.3 136.5 336.9 172.5 355.5L178.1 358.4L210.1 448H255.1V384H400V448H445.9L469.3 382.4L477.3 380.2C499.8 373.1 519.6 360.4 533.6 341.7C539.5 333.7 549 328 560.2 328H600C604.4 328 608 324.4 608 320V240C608 235.6 604.4 232 600 232H581.1C575.4 232 569.4 230.5 563.1 226.9C551.5 218.6 540.8 207.8 532.7 195.1C520.3 175.9 504.8 159.6 486.9 146.6L473.1 136.5L483.1 123.4C491.5 114.3 496 102.6 496 90.14V75.82C496 69.29 490.7 63.1 484.2 63.1C483 63.1 481.8 64.18 480.7 64.52L426 81.36z"/></svg>