<svg xmlns="http://www.w3.org/2000/svg" viewBox="0 0 384 512"><!--! Font Awesome Pro 6.2.0 by @fontawesome - https://fontawesome.com License - https://fontawesome.com/license (Commercial License) Copyright 2022 Fonticons, Inc. --><path d="M248 0C253.7 0 259 3.076 261.9 8.062L293.9 64.06C296.9 69.32 296.7 75.83 293.3 80.88L254.9 138.5C330 164.6 384 235.1 384 320C384 426 298 512 192 512C85.96 512 0 426 0 320C0 235.1 53.97 164.6 129.1 138.5L90.69 80.88C87.33 75.83 87.1 69.32 90.11 64.06L122.1 8.062C124.1 3.076 130.3 0 136 0L248 0zM221.9 130.3L261.2 71.35L238.7 32H145.3L122.8 71.35L162.1 130.3C171.8 128.8 181.8 128 192 128C202.2 128 212.2 128.8 221.9 130.3V130.3zM192 160C103.6 160 32 231.6 32 320C32 408.4 103.6 480 192 480C280.4 480 352 408.4 352 320C352 231.6 280.4 160 192 160z"/></svg>