<svg xmlns="http://www.w3.org/2000/svg" viewBox="0 0 640 512"><!--! Font Awesome Pro 6.2.0 by @fontawesome - https://fontawesome.com License - https://fontawesome.com/license (Commercial License) Copyright 2022 Fonticons, Inc. --><path d="M32 96V416C32 433.7 46.33 448 64 448H226.4C228.7 459.3 232.6 470.1 237.8 480H64C28.65 480 0 451.3 0 416V96C0 60.65 28.65 32 64 32H384C419.3 32 448 60.65 448 96V233.3C437.9 229.2 427.2 226.4 416 224.1V96C416 78.33 401.7 64 384 64H64C46.33 64 32 78.33 32 96zM128 272C128 280.8 120.8 288 112 288C103.2 288 96 280.8 96 272V144C96 135.2 103.2 128 112 128C120.8 128 128 135.2 128 144V272zM192 272C192 280.8 184.8 288 176 288C167.2 288 160 280.8 160 272V144C160 135.2 167.2 128 176 128C184.8 128 192 135.2 192 144V272zM473.1 290.8C485 283.1 498.1 280 512 280C548.3 280 578.3 306.8 583.3 341.7C616.4 354.3 640 386.4 640 424C640 472.6 600.6 512 552 512H344C295.4 512 256 472.6 256 424C256 389.7 275.6 360 304.2 345.5C307.6 295.5 349.2 256 400 256C429.8 256 456.4 269.6 473.1 290.8V290.8zM336.1 355.3C336.4 362.3 332.1 368.8 325.4 371.2C303.6 378.8 288 399.6 288 424C288 454.9 313.1 480 344 480H552C582.9 480 608 454.9 608 424C608 397.4 589.4 375 564.4 369.4C556.1 367.7 551.7 360.9 551.1 353.3C551.1 352.9 552 352.4 552 352C552 329.9 534.1 312 512 312C500.3 312 489.8 317 482.4 325.1C478.9 328.9 473.8 330.8 468.6 330.2C463.5 329.5 458.9 326.4 456.5 321.9C445.7 301.7 424.4 287.1 400 287.1C364.7 287.1 336 316.7 336 352C336 353.1 336 354.2 336.1 355.3L336.1 355.3z"/></svg>