<svg xmlns="http://www.w3.org/2000/svg" viewBox="0 0 640 512"><!--! Font Awesome Pro 6.2.0 by @fontawesome - https://fontawesome.com License - https://fontawesome.com/license (Commercial License) Copyright 2022 Fonticons, Inc. --><path d="M32 96V416C32 433.7 46.33 448 64 448H226.6C224.9 454.4 224 461 224 467.7C224 471.9 224.3 475.1 224.1 480H64C28.65 480 0 451.3 0 416V96C0 60.65 28.65 32 64 32H384C419.3 32 448 60.65 448 96V128C436.7 128 425.8 130.6 416 135.4V96C416 78.33 401.7 64 384 64H64C46.33 64 32 78.33 32 96zM128 272C128 280.8 120.8 288 112 288C103.2 288 96 280.8 96 272V144C96 135.2 103.2 128 112 128C120.8 128 128 135.2 128 144V272zM192 272C192 280.8 184.8 288 176 288C167.2 288 160 280.8 160 272V144C160 135.2 167.2 128 176 128C184.8 128 192 135.2 192 144V272zM463.1 368C463.1 376.8 456.8 384 447.1 384C439.2 384 431.1 376.8 431.1 368V304C431.1 295.2 439.2 288 447.1 288C456.8 288 463.1 295.2 463.1 304V368zM424 424C424 410.7 434.7 400 448 400C461.3 400 472 410.7 472 424C472 437.3 461.3 448 448 448C434.7 448 424 437.3 424 424zM634.2 445.8C638 452.5 640 460 640 467.7C640 492.2 620.2 512 595.7 512H300.3C275.8 512 256 492.2 256 467.7C256 460 257.1 452.5 261.8 445.8L412.2 180.9C419.5 167.1 433.2 160 448 160C462.8 160 476.5 167.1 483.8 180.9L634.2 445.8zM439.1 196.7L289.6 461.6C288.6 463.5 288 465.6 288 467.7C288 474.5 293.5 480 300.3 480H595.7C602.5 480 608 474.5 608 467.7C608 465.6 607.4 463.5 606.4 461.6L456 196.7C454.4 193.8 451.3 191.1 448 191.1C444.7 191.1 441.6 193.8 439.1 196.7V196.7z"/></svg>