<svg xmlns="http://www.w3.org/2000/svg" viewBox="0 0 640 512"><!--! Font Awesome Pro 6.2.0 by @fontawesome - https://fontawesome.com License - https://fontawesome.com/license (Commercial License) Copyright 2022 Fonticons, Inc. --><path d="M112 128C120.8 128 128 135.2 128 144V272C128 280.8 120.8 288 112 288C103.2 288 96 280.8 96 272V144C96 135.2 103.2 128 112 128zM176 128C184.8 128 192 135.2 192 144V272C192 280.8 184.8 288 176 288C167.2 288 160 280.8 160 272V144C160 135.2 167.2 128 176 128zM384 32C419.3 32 448 60.65 448 96V416C448 451.3 419.3 480 384 480H64C28.65 480 0 451.3 0 416V96C0 60.65 28.65 32 64 32H384zM384 64H64C46.33 64 32 78.33 32 96V416C32 433.7 46.33 448 64 448H384C401.7 448 416 433.7 416 416V96C416 78.33 401.7 64 384 64zM520.2 141.7C512.7 146.3 502.8 143.8 498.3 136.2C493.7 128.7 496.2 118.8 503.8 114.3L583.8 66.28C591.3 61.73 601.2 64.19 605.7 71.77C610.3 79.35 607.8 89.17 600.2 93.72L520.2 141.7zM624 240C632.8 240 640 247.2 640 256C640 264.8 632.8 272 624 272H528C519.2 272 512 264.8 512 256C512 247.2 519.2 240 528 240H624zM600.2 418.3C607.8 422.8 610.3 432.7 605.7 440.2C601.2 447.8 591.3 450.3 583.8 445.7L503.8 397.7C496.2 393.2 493.7 383.3 498.3 375.8C502.8 368.2 512.7 365.7 520.2 370.3L600.2 418.3z"/></svg>