<svg xmlns="http://www.w3.org/2000/svg" viewBox="0 0 640 512"><!--! Font Awesome Pro 6.2.0 by @fontawesome - https://fontawesome.com License - https://fontawesome.com/license (Commercial License) Copyright 2022 Fonticons, Inc. --><path d="M32 96V416C32 433.7 46.33 448 64 448H314.4C321 459.4 328.8 470.2 337.6 480H64C28.65 480 0 451.3 0 416V96C0 60.65 28.65 32 64 32H384C419.3 32 448 60.65 448 96V128.2C436.9 127.2 425.4 130.1 416 136.1V96C416 78.33 401.7 64 384 64H64C46.33 64 32 78.33 32 96V96zM128 272C128 280.8 120.8 288 112 288C103.2 288 96 280.8 96 272V144C96 135.2 103.2 128 112 128C120.8 128 128 135.2 128 144V272zM192 272C192 280.8 184.8 288 176 288C167.2 288 160 280.8 160 272V144C160 135.2 167.2 128 176 128C184.8 128 192 135.2 192 144V272zM445.1 255.9C449.9 255.9 454.5 258.1 457.5 261.9C459.6 264.4 475.1 284.3 490.1 303.4L507.6 325.6L530.9 298.4C534 294.8 538.7 292.7 543.5 292.9C548.4 293 552.9 295.4 555.8 299.3C559.7 304.4 562.2 309.5 564.1 313.4L564.2 313.5C585.5 352.8 576.5 403.9 539.2 429.1L538.9 430.2C521.3 441.9 502.3 447.8 480.1 447.8C455.1 447.8 430.8 439.5 412.8 423C394.7 406.4 384 382.5 384 353.8C384 338.2 389 324.1 397.4 309.7C405.6 295.6 417.7 280.2 432.6 261.8C435.6 258 440.2 255.8 445.1 255.9L445.1 255.9zM539.8 337.1L519.1 361.3C516 364.9 511.4 366.1 506.6 366.8C501.9 366.7 497.4 364.5 494.4 360.7L444.9 297.6C436.3 308.6 429.8 317.7 425.1 325.8C418.5 337.1 416 345.6 416 353.9C416 374.2 423.3 389.3 434.4 399.4C445.7 409.7 461.9 415.9 481 415.9C495.7 415.9 508.6 411.9 520.1 403.6C541.1 389.4 548.8 361.8 539.8 337.1H539.8zM487.5 196.1C494.9 204.9 502.1 212.1 509 221.3C515.5 213.3 522.6 204.6 530.3 196.9C531.1 195.1 533.7 193.4 535.5 191.8C541.1 186.7 549.9 186.7 555.5 191.9C580.2 214.6 601.1 244.5 615.8 273C630.4 301.1 640 329.8 640 349.9C640 437.8 568.7 511.9 480 511.9C390.3 511.9 319.1 437.7 319.1 349.9C319.1 323.5 332.7 291.3 352.4 259.4C372.4 227 400.5 193.3 433.8 163.6C439.4 158.6 447.1 158.6 453.5 163.6C465.3 174.2 476.7 185.3 487.5 196.1V196.1zM509.4 253.3C499.8 253.4 490.6 249.2 484.4 241.8C471.6 226.3 457.1 211.8 443.6 198.1C417.6 223.1 395.6 250.3 379.6 276.2C361 306.3 352 332.4 352 349.9C352 420.8 408.7 479.9 480 479.9C550.4 479.9 608 420.7 608 349.9C608 337.5 601.2 314.4 587.4 287.7C576.5 266.6 562.1 245.1 545.6 227.3C541.8 231.6 537.1 236.4 534.1 241.3C528.1 248.8 519 253.2 509.4 253.3V253.3zM507 350.9L494.4 360.7z"/></svg>