<svg xmlns="http://www.w3.org/2000/svg" viewBox="0 0 640 512"><!--! Font Awesome Pro 6.2.0 by @fontawesome - https://fontawesome.com License - https://fontawesome.com/license (Commercial License) Copyright 2022 Fonticons, Inc. --><path d="M279.1 256C279.1 269.3 269.3 280 255.1 280C242.7 280 231.1 269.3 231.1 256C231.1 242.7 242.7 232 255.1 232C269.3 232 279.1 242.7 279.1 256zM360 256C360 242.7 370.7 232 384 232C397.3 232 408 242.7 408 256C408 269.3 397.3 280 384 280C370.7 280 360 269.3 360 256zM55.65 1.946C62.46 5.651 65.63 13.71 63.18 21.06L52.04 54.48C49.55 61.95 48.67 69.86 49.45 77.7C52.3 106.3 76.33 128 105 128H184.4C202 108.4 227.6 96 255.1 96H384C412.4 96 437.1 108.4 455.6 128H534.1C563.7 128 587.7 106.3 590.6 77.7C591.3 69.86 590.5 61.95 587.1 54.48L576.8 21.06C574.4 13.71 577.5 5.651 584.4 1.946C591.2-1.759 599.7-.0479 604.5 6.006L611.1 15.33C630.1 38.02 640 66.22 640 95.29V112C640 182.7 582.7 240 512 240H480V288C480 329.8 453.3 365.3 416 378.5L389.7 466.4C381.6 493.5 356.6 512 328.4 512H311.6C283.4 512 258.4 493.5 250.3 466.4L223.1 378.5C186.7 365.3 160 329.8 160 288V240H128C57.31 240 0 182.7 0 112V95.29C0 66.22 9.892 38.02 28.05 15.33L35.51 6.006C40.35-.0482 48.84-1.759 55.65 1.946H55.65zM480 208H512C561.7 208 602.6 170.2 607.5 121.7C591.6 144.1 564.9 160 534.1 160H474.5C478.1 170 480 180.8 480 192L480 208zM32.49 121.7C37.36 170.2 78.26 208 127.1 208H159.1V192C159.1 180.8 161.9 170 165.5 160H105C75.09 160 48.39 144.1 32.49 121.7zM249.9 353.8L280.1 457.2C285 470.7 297.5 480 311.6 480H328.4C342.5 480 354.1 470.7 359 457.2L390.1 353.8L405.4 348.4C430.2 339.5 448 315.8 448 288V192C448 156.7 419.3 128 384 128H256C220.7 128 192 156.7 192 192V288C192 315.8 209.7 339.5 234.6 348.4L249.9 353.8z"/></svg>