<svg xmlns="http://www.w3.org/2000/svg" viewBox="0 0 576 512"><!--! Font Awesome Pro 6.2.0 by @fontawesome - https://fontawesome.com License - https://fontawesome.com/license (Commercial License) Copyright 2022 Fonticons, Inc. --><path d="M141.6 18.38C144.3 11.1 151.9 6.836 159.5 8.268L233.1 22.07C270.1 29.01 308.1 29.01 345.2 22.07L418.8 8.268C426.4 6.836 433.1 11.1 436.7 18.38L467.4 100.1C479.3 132.1 496.6 161.8 518.5 188L566.6 245.8C571.5 251.7 571.5 260.3 566.6 266.2L518.5 323.1C496.6 350.2 479.3 379.9 467.4 411.9L436.7 493.6C433.1 500.9 426.4 505.2 418.8 503.7L345.2 489.9C308.1 482.1 270.1 482.1 233.1 489.9L159.5 503.7C151.9 505.2 144.3 500.9 141.6 493.6L110.9 411.9C98.95 379.9 81.67 350.2 59.83 323.1L11.71 266.2C6.764 260.3 6.764 251.7 11.71 245.8L59.83 188C81.67 161.8 98.95 132.1 110.9 100.1L141.6 18.38zM159.4 62.13L140.9 111.4C127.6 146.7 108.6 179.5 84.41 208.5L58.16 239.1H128.7L131.2 237.1C156.7 208 176.3 174.4 189.1 137.1L194.3 123.3L159.4 62.13zM186.1 45.98L221.2 105.8C265.3 117.8 311.7 117.9 355.8 106L390 46.22L351.1 53.52C310.1 61.19 268.1 61.19 227.2 53.52L186.1 45.98zM418.5 60.92L383.2 122.6L388.6 137.1C401.5 174.4 421.1 208 446.6 237.1L449.1 239.1H520.1L493.9 208.5C469.7 179.5 450.6 146.7 437.4 111.4L418.5 60.92zM520.1 271.1H448.1L447.9 273.3C421.6 303.2 401.6 338.1 388.8 375.8L383.8 390.4L418.5 451.1L437.4 400.6C450.6 365.3 469.7 332.5 493.9 303.5L520.1 271.1zM390 465.8L357.8 409.4C313.6 395 266.2 393.9 221.3 405.9L186.1 466L227.2 458.5C268.1 450.8 310.1 450.8 351.1 458.5L390 465.8zM159.4 449.9L194.4 388.6L189.1 373.8C176.3 337.4 156.7 303.8 131.2 274.8L128.8 271.1H58.16L84.41 303.5C108.6 332.5 127.6 365.3 140.9 400.6L159.4 449.9zM170.2 271.1C188.8 296.5 203.1 323.5 215.2 352.1L261 271.1H170.2zM242.5 368.8C273.4 364.1 304.1 364.7 335.7 370.7L288.6 288.2L242.5 368.8zM362.8 353.6C373.9 324.4 389 296.1 407.7 271.1H316.1L362.8 353.6zM407.7 239.1C388.9 215.3 373.7 188.1 362.4 159.1L316.1 239.1H407.7zM334.6 143.2C304.1 148.1 272.1 148.1 242.5 143.1L288.6 223.7L334.6 143.2zM215.2 159.8C203.9 188.5 188.7 215.5 170.1 239.1H261L215.2 159.8z"/></svg>