<svg xmlns="http://www.w3.org/2000/svg" viewBox="0 0 576 512"><!--! Font Awesome Pro 6.2.0 by @fontawesome - https://fontawesome.com License - https://fontawesome.com/license (Commercial License) Copyright 2022 Fonticons, Inc. --><path d="M176 256C191.7 256 206.2 264.5 213.7 278.3C223.3 295.6 218.9 315.3 209.4 328.8C198.4 344.4 191.1 363.4 191.1 384C191.1 437 234.1 480 287.1 480H400C435.3 480 464 451.3 464 416C464 380.7 435.3 352 400 352C393.3 352 386.8 353 380.8 354.9C372.4 357.6 363.4 352.9 360.7 344.5C358.1 336 362.8 327 371.2 324.4C380.3 321.5 389.1 320 400 320C411.2 320 421.1 321.9 432 325.5V240C432 231.2 439.2 224 448 224H459.5C480.7 224 500.1 212 509.6 193L511.6 188.1L511.3 185.6C508 152.9 480.5 128 447.6 128H416V88C416 79.16 423.2 72 432 72C440.8 72 448 79.16 448 88V96C497.1 96.2 538.2 133.5 543.1 182.4L543.9 190.4C544.2 193.4 543.7 196.5 542.3 199.2L538.2 207.4C523.1 235.8 495.6 254.3 464 255.9V344.4C483.6 362 496 387.6 496 416C496 440.6 486.8 463 471.6 480H512C520.8 480 528 487.2 528 496C528 504.8 520.8 512 512 512H288C217.3 512 160 454.7 160 384C160 356.6 168.6 331.2 183.2 310.4C187.7 304.1 187.9 297.6 185.7 293.7C183.8 290.2 180 288 176 288C96.47 288 32 223.5 32 144C32 64.47 96.47 0 176 0C255.5 0 320 64.47 320 144V176C320 184.8 312.8 192 304 192C295.2 192 288 184.8 288 176V144C288 82.14 237.9 32 176 32C114.1 32 64 82.14 64 144C64 205.9 114.1 256 176 256zM368 72C376.8 72 384 79.16 384 88V156.2C384 195.2 376.9 222.8 362.8 248C350.1 269.3 334.2 288.5 314.6 310.1L314.6 311.1C311.8 314.3 308.9 317.6 306 320.9L294.8 333.9C280.5 350.4 272 376.6 272 400C272 408.8 264.8 416 256 416C247.2 416 240 408.8 240 400C240 370.4 250.4 336.3 270.6 312.1L281.8 299.1C284.8 296.5 287.7 293.2 290.5 289.1C310.4 267.1 324.8 250.5 334.9 232.4C345.9 212.8 352 190.8 352 156.2V88C352 79.16 359.2 72 368 72L368 72zM432 160C432 151.2 439.2 144 448 144C456.8 144 464 151.2 464 160C464 168.8 456.8 176 448 176C439.2 176 432 168.8 432 160z"/></svg>