<svg xmlns="http://www.w3.org/2000/svg" viewBox="0 0 640 512"><!--! Font Awesome Pro 6.2.0 by @fontawesome - https://fontawesome.com License - https://fontawesome.com/license (Commercial License) Copyright 2022 Fonticons, Inc. --><path d="M104 352C86.33 352 72 337.7 72 320V242L43.51 234.9C17.94 228.5 0 205.5 0 179.1C0 166.7 4.031 154.6 11.49 144.7L43.83 101.6C76.67 57.77 128.2 32 182.9 32C209.9 32 236.6 38.29 260.7 50.36L586.9 213.5C619.5 229.7 640 262.1 640 299.3V432C640 458.5 618.5 480 592 480H79.1C53.49 480 31.1 458.5 31.1 432C31.1 405.5 53.49 384 79.1 384H448V352H104zM384 320L104 250V320H384zM608 299.3C608 275.1 594.3 252.9 572.6 242.1L246.4 78.98C226.7 69.13 204.1 64 182.9 64C138.3 64 96.23 85.03 69.43 120.8L37.09 163.9C33.79 168.3 32 173.6 32 179.1C32 190.8 39.95 201 51.27 203.8L455.8 304.1C470 308.5 480 321.3 480 336V384H608V299.3zM80 416C71.16 416 64 423.2 64 432C64 440.8 71.16 448 80 448H592C600.8 448 608 440.8 608 432V416H80z"/></svg>