<svg xmlns="http://www.w3.org/2000/svg" viewBox="0 0 512 512"><!--! Font Awesome Pro 6.2.0 by @fontawesome - https://fontawesome.com License - https://fontawesome.com/license (Commercial License) Copyright 2022 Fonticons, Inc. --><path d="M128 96V48C128 21.49 149.5 0 176 0H336C362.5 0 384 21.49 384 48V96H448C483.3 96 512 124.7 512 160V416C512 451.3 483.3 480 448 480H64C28.65 480 0 451.3 0 416V160C0 124.7 28.65 96 64 96H128zM160 96H352V48C352 39.16 344.8 32 336 32H176C167.2 32 160 39.16 160 48V96zM128 128V448H384V128H128zM32 160V416C32 433.7 46.33 448 64 448H96V128H64C46.33 128 32 142.3 32 160zM480 416V160C480 142.3 465.7 128 448 128H416V448H448C465.7 448 480 433.7 480 416z"/></svg>