<svg xmlns="http://www.w3.org/2000/svg" viewBox="0 0 576 512"><!--! Font Awesome Pro 6.2.0 by @fontawesome - https://fontawesome.com License - https://fontawesome.com/license (Commercial License) Copyright 2022 Fonticons, Inc. --><path d="M416 416H160C71.63 416 0 344.4 0 256C0 167.6 71.63 96 160 96H416C504.4 96 576 167.6 576 256C576 344.4 504.4 416 416 416zM288 256C288 326.7 345.3 384 416 384C486.7 384 544 326.7 544 256C544 185.3 486.7 128 416 128C345.3 128 288 185.3 288 256zM319.1 384C281.1 354.8 256 308.3 256 256C256 203.7 281.1 157.2 319.1 128H160C89.31 128 32 185.3 32 256C32 326.7 89.31 384 160 384H319.1z"/></svg>