<svg xmlns="http://www.w3.org/2000/svg" viewBox="0 0 512 512"><!--! Font Awesome Pro 6.2.0 by @fontawesome - https://fontawesome.com License - https://fontawesome.com/license (Commercial License) Copyright 2022 Fonticons, Inc. --><path d="M227.3 132.7C233.6 138.9 233.6 149.1 227.3 155.3L190.6 192L227.3 228.7C233.6 234.9 233.6 245.1 227.3 251.3C221.1 257.6 210.9 257.6 204.7 251.3L167.1 214.6L131.3 251.3C125.1 257.6 114.9 257.6 108.7 251.3C102.4 245.1 102.4 234.9 108.7 228.7L145.4 192L108.7 155.3C102.4 149.1 102.4 138.9 108.7 132.7C114.9 126.4 125.1 126.4 131.3 132.7L167.1 169.4L204.7 132.7C210.9 126.4 221.1 126.4 227.3 132.7zM431.4 256C426.6 262.1 416.2 272 400 272C383.8 272 373.4 262.1 368.6 256C363.6 249.6 360.4 242.3 358.3 236.1C354.1 223.3 352 207.7 352 192C352 176.3 354.1 160.7 358.3 147.9C360.4 141.7 363.6 134.4 368.6 127.1C373.4 121.9 383.8 112 400 112C416.2 112 426.6 121.9 431.4 127.1C436.4 134.4 439.6 141.7 441.7 147.9C445.9 160.7 448 176.3 448 192C448 207.7 445.9 223.3 441.7 236.1C439.6 242.3 436.4 249.6 431.4 256zM385.5 212.4C388.1 228.7 393.6 240 400 240C406.4 240 411.9 228.7 414.5 212.4C415.5 206.2 416 199.3 416 192C416 184.7 415.5 177.8 414.5 171.6C411.9 155.3 406.4 144 400 144C393.6 144 388.1 155.3 385.5 171.6C384.5 177.8 384 184.7 384 192C384 199.3 384.5 206.2 385.5 212.4zM400 384H112C76.89 384 48.63 358.1 30.07 324.1C11.19 289.5 0 242.8 0 192C0 141.2 11.19 94.51 30.07 59.89C48.63 25.87 76.89 0 112 0H400C435.1 0 463.4 25.87 481.9 59.89C500.8 94.51 512 141.2 512 192V464C512 490.5 490.5 512 464 512H176C149.5 512 128 490.5 128 464V416H160V464C160 472.8 167.2 480 176 480H464C472.8 480 480 472.8 480 464V327.6C461.4 359.9 433.9 384 400 384V384zM58.16 308.8C74.35 338.5 94.09 352 112 352H337.3C330.1 343.8 323.6 334.3 318.1 324.1C299.2 289.5 288 242.8 288 192C288 141.2 299.2 94.51 318.1 59.89C323.6 49.7 330.1 40.25 337.3 32H112C94.09 32 74.35 45.53 58.16 75.21C42.3 104.3 32 145.5 32 192C32 238.5 42.3 279.7 58.16 308.8V308.8zM320 192C320 238.5 330.3 279.7 346.2 308.8C362.4 338.5 382.1 352 400 352C417.9 352 437.6 338.5 453.8 308.8C469.7 279.7 480 238.5 480 192C480 145.5 469.7 104.3 453.8 75.21C437.6 45.53 417.9 32 400 32C382.1 32 362.4 45.53 346.2 75.21C330.3 104.3 320 145.5 320 192V192z"/></svg>