<svg xmlns="http://www.w3.org/2000/svg" viewBox="0 0 576 512"><!--! Font Awesome Pro 6.2.0 by @fontawesome - https://fontawesome.com License - https://fontawesome.com/license (Commercial License) Copyright 2022 Fonticons, Inc. --><path d="M200 64C124.9 64 64 124.9 64 200V240C64 248.8 56.84 256 48 256C39.16 256 32 248.8 32 240V200C32 107.2 107.2 32 200 32C292.8 32 368 107.2 368 200V240C368 248.8 360.8 256 352 256C343.2 256 336 248.8 336 240V200C336 124.9 275.1 64 200 64zM464 208C464 199.2 471.2 192 480 192C488.8 192 496 199.2 496 208C496 216.8 488.8 224 480 224C471.2 224 464 216.8 464 208zM400 188.6C400 146.3 434.3 112 476.6 112C531.5 112 576 156.5 576 211.4V224C576 259.3 547.3 288 512 288H491.5C471.2 345.4 416.9 384 355.7 384H352V432C352 458.5 330.5 480 304 480H272C245.5 480 224 458.5 224 432V384H192V432C192 458.5 170.5 480 144 480H112C85.49 480 64 458.5 64 432V384H48C21.49 384 0 362.5 0 336C0 309.5 21.49 288 48 288H360C382.1 288 400 270.1 400 248V188.6zM256 432C256 440.8 263.2 448 272 448H304C312.8 448 320 440.8 320 432V352H355.7C403.1 352 446.7 321.2 461.1 275.4L464.8 266.9C466.1 260.4 473.1 256 480 256H512C529.7 256 544 241.7 544 224V211.4C544 174.2 513.8 144 476.6 144C451.1 144 432 163.1 432 188.6V248C432 287.8 399.8 320 360 320H47.1C39.16 320 31.1 327.2 31.1 336C31.1 344.8 39.16 352 47.1 352H95.1V432C95.1 440.8 103.2 448 111.1 448H143.1C152.8 448 159.1 440.8 159.1 432V352H255.1L256 432z"/></svg>