<svg xmlns="http://www.w3.org/2000/svg" viewBox="0 0 640 512"><!--! Font Awesome Pro 6.2.0 by @fontawesome - https://fontawesome.com License - https://fontawesome.com/license (Commercial License) Copyright 2022 Fonticons, Inc. --><path d="M532.5 287.1C514.1 287.1 499.2 296.1 489.3 308.1L464.2 288.3C479.7 269 503.4 256 532.4 255.1C454.1 255.1 414.8 161.2 470.2 105.8C414.8 161.2 319.1 121.9 319.1 43.55C319.1 85.18 293.3 115.8 259.9 127L224.7 99.23C255.8 103.1 287.1 79.99 287.1 43.55V32C287.1 14.33 302.3 0 319.1 0C337.7 0 352 14.33 352 32V43.55C352 93.44 412.3 118.4 447.6 83.15L455.8 74.98C468.3 62.48 488.5 62.48 501 74.98C513.5 87.48 513.5 107.7 501 120.2L492.9 128.4C457.6 163.7 482.6 224 532.5 224H544C561.7 224 576 238.3 576 256C576 273.7 561.7 288 544 288L532.5 287.1zM169.8 406.2C225.2 350.8 319.1 390 319.1 468.4C320 426.8 346.7 396.2 380.1 384.1L415.3 412.8C384.2 408.9 352 432 352 468.5V480C352 497.7 337.7 512 319.1 512C302.3 512 287.1 497.7 287.1 480V468.5C287.1 418.6 227.7 393.6 192.4 428.9L184.2 437C171.7 449.5 151.5 449.5 138.1 437C126.5 424.5 126.5 404.3 138.1 391.8L147.1 383.6C182.4 348.3 157.4 287.1 107.5 287.1H95.1C78.33 287.1 63.1 273.7 63.1 255.1C63.1 238.3 78.33 223.1 95.1 223.1H107.5C125.9 223.1 140.8 215.9 150.7 203.9L175.8 223.7C160.3 242.1 136.6 255.1 107.5 255.1C185.9 256 225.2 350.8 169.8 406.2H169.8zM633.9 483.4C640.9 488.9 642 498.1 636.6 505.9C631.1 512.9 621 514 614.1 508.6L6.086 28.56C-.8493 23.08-2.033 13.02 3.443 6.086C8.918-.8493 18.98-2.033 25.91 3.443L633.9 483.4z"/></svg>