<svg xmlns="http://www.w3.org/2000/svg" viewBox="0 0 320 512"><!--! Font Awesome Pro 6.2.0 by @fontawesome - https://fontawesome.com License - https://fontawesome.com/license (Commercial License) Copyright 2022 Fonticons, Inc. --><path d="M.0006 425.1V55.18C.0006 42.38 10.38 32 23.19 32C28.86 32 34.34 34.08 38.59 37.86L312.6 281.4C317.3 285.6 320 291.6 320 297.9C320 310.1 310.1 320 297.9 320H152.9L223.2 468.6C225.1 472.6 223.4 477.3 219.4 479.2C215.4 481.1 210.7 479.4 208.8 475.4L138.3 326.6L38.58 440.5C34.4 445.3 28.36 448 22.01 448C9.855 448 0 438.1 0 425.1H.0006zM297.9 304C301.3 304 304 301.3 304 297.9C304 296.2 303.3 294.5 301.1 293.4L27.96 49.82C26.64 48.65 24.95 48 23.19 48C19.22 48 16 51.22 16 55.19V425.1C16 429.3 18.69 432 22.01 432C23.75 432 25.4 431.3 26.54 429.9L131.1 309.5C134.1 305.1 139.4 304 144 304H297.9z"/></svg>