<svg xmlns="http://www.w3.org/2000/svg" viewBox="0 0 576 512"><!--! Font Awesome Pro 6.2.0 by @fontawesome - https://fontawesome.com License - https://fontawesome.com/license (Commercial License) Copyright 2022 Fonticons, Inc. --><path d="M452.6 117C468.8 109.3 488.1 113.4 499.7 127C548.9 184.4 576 257.6 576 333.2V377.9C576 388 565.3 394.6 556.2 390.1L493.3 358.6C485.8 354.9 476.7 357.5 472.4 364.7L442.5 414.4C437.2 423.4 424.9 424.9 417.5 417.5L380.9 380.9C374.1 374.1 362.8 374.8 356.9 382.4L300.7 455.5C294.3 463.8 281.7 463.8 275.3 455.5L219.1 382.4C213.2 374.8 201.9 374.1 195.1 380.9L158.5 417.5C151.1 424.9 138.8 423.4 133.5 414.4L103.6 364.7C99.32 357.5 90.23 354.9 82.75 358.6L19.79 390.1C10.7 394.6 0 388 0 377.9V333.2C0 257.6 27.05 184.4 76.27 127C87.91 113.4 107.2 109.3 123.4 117L196.5 151.9L213.8 59.52C215.1 52.84 220.9 48 227.7 48C230.5 48 233.2 48.83 235.6 50.37L280 80H296L340.4 50.37C342.8 48.83 345.5 48 348.3 48C355.1 48 360.9 52.84 362.2 59.52L379.5 151.9L452.6 117zM275.2 96L229 65.26L208.4 175.3L116.5 131.5C106.9 126.9 95.36 129.3 88.42 137.4C41.69 191.9 15.1 261.4 15.1 333.2V374.1L75.59 344.3C90.55 336.8 108.7 342.1 117.3 356.5L147.2 406.2L183.8 369.6C197.5 355.9 220 357.4 231.8 372.7L287.1 445.8L344.2 372.7C355.1 357.4 378.5 355.9 392.2 369.6L428.8 406.2L458.7 356.5C467.3 342.1 485.4 336.8 500.4 344.3L560 374.1V333.2C560 261.4 534.3 191.9 487.6 137.4C480.6 129.3 469.1 126.9 459.5 131.5L367.6 175.3L346.1 65.26L300.8 96H275.2z"/></svg>