<svg xmlns="http://www.w3.org/2000/svg" viewBox="0 0 640 512"><!--! Font Awesome Pro 6.2.0 by @fontawesome - https://fontawesome.com License - https://fontawesome.com/license (Commercial License) Copyright 2022 Fonticons, Inc. --><path d="M8 32C12.42 32 16 35.58 16 40V192H536C593.4 192 640 238.6 640 296V472C640 476.4 636.4 480 632 480C627.6 480 624 476.4 624 472V416H16V472C16 476.4 12.42 480 8 480C3.582 480 0 476.4 0 472V40C0 35.58 3.582 32 8 32zM16 400H624V336H16V400zM16 320H624V296C624 247.4 584.6 208 536 208H16V320z"/></svg>