<svg xmlns="http://www.w3.org/2000/svg" viewBox="0 0 512 512"><!--! Font Awesome Pro 6.2.0 by @fontawesome - https://fontawesome.com License - https://fontawesome.com/license (Commercial License) Copyright 2022 Fonticons, Inc. --><path d="M32 88C32 57.07 57.07 32 88 32H424C454.9 32 480 57.07 480 88V236.1C499.3 249 512 271 512 296V472C512 476.4 508.4 480 504 480C499.6 480 496 476.4 496 472V416H16V472C16 476.4 12.42 480 8 480C3.582 480 0 476.4 0 472V296C0 271 12.7 249 32 236.1V88zM48 144.8C58.16 134.4 72.33 128 88 128H208C228.4 128 246.2 138.9 256 155.1C265.8 138.9 283.6 128 304 128H424C439.7 128 453.8 134.4 464 144.8V88C464 65.91 446.1 48 424 48H88C65.91 48 48 65.91 48 88V144.8zM48 184V228.1C55.51 225.4 63.58 224 72 224H248V184C248 161.9 230.1 144 208 144H88C65.91 144 48 161.9 48 184zM264 184V224H440C448.4 224 456.5 225.4 464 228.1V184C464 161.9 446.1 144 424 144H304C281.9 144 264 161.9 264 184zM72 240C41.07 240 16 265.1 16 296V400H496V296C496 265.1 470.9 240 440 240H72z"/></svg>