<svg xmlns="http://www.w3.org/2000/svg" viewBox="0 0 576 512"><!--! Font Awesome Pro 6.2.0 by @fontawesome - https://fontawesome.com License - https://fontawesome.com/license (Commercial License) Copyright 2022 Fonticons, Inc. --><path d="M48 336C48 300.7 76.65 272 112 272C147.3 272 176 300.7 176 336C176 371.3 147.3 400 112 400C76.65 400 48 371.3 48 336zM112 384C138.5 384 160 362.5 160 336C160 309.5 138.5 288 112 288C85.49 288 64 309.5 64 336C64 362.5 85.49 384 112 384zM16 192H208V56C208 42.75 218.7 32 232 32H472C529.4 32 576 78.56 576 136V504C576 508.4 572.4 512 568 512C563.6 512 560 508.4 560 504V447.7H16V504C16 508.4 12.42 512 8 512C3.582 512 0 508.4 0 504V8C0 3.582 3.582 0 8 0C12.42 0 16 3.582 16 8V192zM232 272H560V208H16V431.7H208V296C208 282.7 218.7 272 232 272zM472 48H232C227.6 48 224 51.58 224 56V192H560V136C560 87.4 520.6 48 472 48zM224 296V431.7H560V288H232C227.6 288 224 291.6 224 296zM48 96C48 60.65 76.65 32 112 32C147.3 32 176 60.65 176 96C176 131.3 147.3 160 112 160C76.65 160 48 131.3 48 96zM112 144C138.5 144 160 122.5 160 96C160 69.49 138.5 48 112 48C85.49 48 64 69.49 64 96C64 122.5 85.49 144 112 144z"/></svg>