<svg xmlns="http://www.w3.org/2000/svg" viewBox="0 0 640 512"><!--! Font Awesome Pro 6.2.0 by @fontawesome - https://fontawesome.com License - https://fontawesome.com/license (Commercial License) Copyright 2022 Fonticons, Inc. --><path d="M16 320H272V168C272 145.9 289.9 128 312 128H536C593.4 128 640 174.6 640 232V472C640 476.4 636.4 480 632 480C627.6 480 624 476.4 624 472V416H16V472C16 476.4 12.42 480 8 480C3.582 480 0 476.4 0 472V40C0 35.58 3.582 32 8 32C12.42 32 16 35.58 16 40V320zM624 336H16V400H624V336zM536 144H312C298.7 144 288 154.7 288 168V320H624V232C624 183.4 584.6 144 536 144zM224 208C224 252.2 188.2 288 144 288C99.82 288 64 252.2 64 208C64 163.8 99.82 128 144 128C188.2 128 224 163.8 224 208zM144 144C108.7 144 80 172.7 80 208C80 243.3 108.7 272 144 272C179.3 272 208 243.3 208 208C208 172.7 179.3 144 144 144z"/></svg>