<svg xmlns="http://www.w3.org/2000/svg" viewBox="0 0 512 512"><!--! Font Awesome Pro 6.2.0 by @fontawesome - https://fontawesome.com License - https://fontawesome.com/license (Commercial License) Copyright 2022 Fonticons, Inc. --><path d="M456 56H496C500.4 56 504 59.58 504 64C504 68.42 500.4 72 496 72H456V112C456 116.4 452.4 120 448 120C443.6 120 440 116.4 440 112V72H400C395.6 72 392 68.42 392 64C392 59.58 395.6 56 400 56H440V16C440 11.58 443.6 8 448 8C452.4 8 456 11.58 456 16V56zM199.1 184C138.1 184 87.1 234.1 87.1 296V304C87.1 308.4 84.42 312 79.1 312C75.58 312 71.1 308.4 71.1 304V296C71.1 225.3 129.3 168 199.1 168H207.1C212.4 168 215.1 171.6 215.1 176C215.1 180.4 212.4 184 207.1 184H199.1zM406.6 230.6L403.8 233.5C411.7 255.5 416 279.3 416 304C416 418.9 322.9 512 208 512C93.12 512 0 418.9 0 304C0 189.1 93.12 96 208 96C232.7 96 256.5 100.3 278.5 108.3L281.4 105.4C293.9 92.88 314.1 92.88 326.6 105.4L360.1 139.7L394.3 106.3C397.5 103.2 402.5 103.2 405.7 106.3C408.8 109.5 408.8 114.5 405.7 117.7L372.3 151L406.6 185.4C419.1 197.9 419.1 218.1 406.6 230.6L406.6 230.6zM289.8 119.6C285.4 123.9 278.9 125.4 273.1 123.3C252.8 115.1 230.9 112 207.1 112C101.1 112 15.1 197.1 15.1 304C15.1 410 101.1 496 207.1 496C314 496 400 410 400 304C400 281.1 396 259.2 388.7 238.9C386.6 233.1 388.1 226.6 392.4 222.2L395.3 219.3C401.6 213.1 401.6 202.9 395.3 196.7L315.3 116.7C309.1 110.4 298.9 110.4 292.7 116.7L289.8 119.6z"/></svg>