<svg xmlns="http://www.w3.org/2000/svg" viewBox="0 0 512 512"><!--! Font Awesome Pro 6.2.0 by @fontawesome - https://fontawesome.com License - https://fontawesome.com/license (Commercial License) Copyright 2022 Fonticons, Inc. --><path d="M112 0C160.8 0 202.3 26.71 217.6 64H480C497.7 64 512 78.33 512 96C512 113.7 497.7 128 480 128H217.6C202.3 165.3 160.8 192 112 192C50.14 192 0 149 0 96C0 42.98 50.14 0 112 0V0zM480 112C488.8 112 496 104.8 496 96C496 87.16 488.8 80 480 80H206.9L202.8 70.1C190.3 39.66 155.3 16 112 16C56.58 16 16 54.04 16 96C16 137.1 56.58 176 112 176C155.3 176 190.3 152.3 202.8 121.9L206.9 112H480zM478.1 224C496.5 224 511.1 239.5 510 257.9L508.4 285.2C503.5 368.4 453.6 438.9 383.1 473.3C378.8 495.4 359.3 512 336 512H175.1C152.7 512 133.2 495.4 128.9 473.3C58.44 438.9 8.495 368.4 3.597 285.2L1.993 257.9C.9114 239.5 15.53 223.1 33.94 223.1L478.1 224zM176 496H336C351.5 496 364.5 484.9 367.4 470.2C368.4 465.3 371.6 461.1 376.1 458.9C441.5 426.9 487.9 361.5 492.4 284.2L494 256.9C494.6 247.7 487.3 240 478.1 240H33.94C24.73 240 17.42 247.7 17.97 256.9L19.57 284.2C24.12 361.5 70.47 426.9 135.9 458.9C140.4 461.1 143.6 465.3 144.6 470.2C147.5 484.9 160.5 496 176 496V496z"/></svg>