<svg xmlns="http://www.w3.org/2000/svg" viewBox="0 0 512 512"><!--! Font Awesome Pro 6.2.0 by @fontawesome - https://fontawesome.com License - https://fontawesome.com/license (Commercial License) Copyright 2022 Fonticons, Inc. --><path d="M190.4 94.63L182.1 90.06C172.6 83.66 160.5 80 147.5 80C114.1 80 85.88 104.5 79.4 137.6L78.1 144.2L71.34 144C70.9 144 70.45 144 70 144C40.41 144 16 168.8 16 200C16 207.5 17.41 214.6 19.95 221.1C21.57 225.2 19.54 229.8 15.43 231.4C11.31 233.1 6.672 231 5.059 226.9C1.792 218.6 0 209.5 0 200C0 162.1 28.56 130.7 65.18 128.2C75.24 91.29 108.1 64 147.5 64C160.6 64 172.1 67.03 184.1 72.43C199.2 48.19 225.7 32 256 32C286.3 32 312.8 48.19 327.9 72.43C339 67.03 351.4 64 364.5 64C403.9 64 436.8 91.29 446.8 128.2C483.4 130.7 512 162.1 512 200C512 209.5 510.2 218.6 506.9 226.9C505.3 231 500.7 233.1 496.6 231.4C492.5 229.8 490.4 225.2 492 221.1C494.6 214.6 496 207.5 496 200C496 168.8 471.6 144 442 144C441.6 144 441.1 144 440.7 144L433.9 144.2L432.6 137.6C426.1 104.5 397.9 80 364.5 80C351.5 80 339.4 83.66 329 90.06L321.6 94.63L317.7 86.83C306.1 63.65 282.7 48 256 48C229.3 48 205.9 63.65 194.3 86.83L190.4 94.63zM484.6 256C499.7 256 512 268.3 512 283.4C512 349.9 472.6 407.1 415.1 433.1C415.4 459.1 394.1 480 368 480H144C117.9 480 96.59 459.1 96.01 433.1C39.35 407.1 0 349.9 0 283.4C0 268.3 12.28 256 27.43 256H484.6zM144 464H368C385.4 464 399.6 450.1 399.1 432.7C400.1 426.6 403.7 421.1 409.3 418.5C460.5 395.1 496 343.4 496 283.4C496 277.1 490.9 272 484.6 272H27.43C21.12 272 16 277.1 16 283.4C16 343.4 51.5 395.1 102.7 418.5C108.3 421.1 111.9 426.6 112 432.7C112.4 450.1 126.6 464 144 464H144z"/></svg>