<svg xmlns="http://www.w3.org/2000/svg" viewBox="0 0 512 512"><!--! Font Awesome Pro 6.2.0 by @fontawesome - https://fontawesome.com License - https://fontawesome.com/license (Commercial License) Copyright 2022 Fonticons, Inc. --><path d="M180 80C180 73.37 185.4 68 192 68H224C230.6 68 236 73.37 236 80C236 86.63 230.6 92 224 92H192C185.4 92 180 86.63 180 80zM224 132C230.6 132 236 137.4 236 144C236 150.6 230.6 156 224 156H192C185.4 156 180 150.6 180 144C180 137.4 185.4 132 192 132H224zM80 196C86.63 196 92 201.4 92 208C92 214.6 86.63 220 80 220H48C41.37 220 36 214.6 36 208C36 201.4 41.37 196 48 196H80zM484.6 256C499.7 256 512 268.3 512 283.4C512 349.8 472.6 407.1 415.1 433.1C415.4 459.1 394.1 480 368 480H144C117.9 480 96.59 459.1 96.01 433.1C39.35 407.1 0 349.9 0 283.4C0 268.3 12.28 256 27.43 256H484.6zM144 464H368C385.4 464 399.6 450.1 399.1 432.7C400.1 426.6 403.7 421.1 409.3 418.5C460.5 395.1 496 343.4 496 283.4C496 277.1 490.9 272 484.6 272H27.43C21.12 272 16 277.1 16 283.4C16 343.4 51.5 395.1 102.7 418.5C108.3 421.1 111.9 426.6 112 432.7C112.4 450.1 126.6 464 144 464H144zM228 208C228 201.4 233.4 196 240 196H272C278.6 196 284 201.4 284 208C284 214.6 278.6 220 272 220H240C233.4 220 228 214.6 228 208zM132 208C132 201.4 137.4 196 144 196H176C182.6 196 188 201.4 188 208C188 214.6 182.6 220 176 220H144C137.4 220 132 214.6 132 208zM128 132C134.6 132 140 137.4 140 144C140 150.6 134.6 156 128 156H96C89.37 156 84 150.6 84 144C84 137.4 89.37 132 96 132H128zM324 208C324 201.4 329.4 196 336 196H368C374.6 196 380 201.4 380 208C380 214.6 374.6 220 368 220H336C329.4 220 324 214.6 324 208zM320 132C326.6 132 332 137.4 332 144C332 150.6 326.6 156 320 156H288C281.4 156 276 150.6 276 144C276 137.4 281.4 132 288 132H320zM420 208C420 201.4 425.4 196 432 196H464C470.6 196 476 201.4 476 208C476 214.6 470.6 220 464 220H432C425.4 220 420 214.6 420 208zM416 132C422.6 132 428 137.4 428 144C428 150.6 422.6 156 416 156H384C377.4 156 372 150.6 372 144C372 137.4 377.4 132 384 132H416zM320 68C326.6 68 332 73.37 332 80C332 86.63 326.6 92 320 92H288C281.4 92 276 86.63 276 80C276 73.37 281.4 68 288 68H320z"/></svg>