<svg xmlns="http://www.w3.org/2000/svg" viewBox="0 0 448 512"><!--! Font Awesome Pro 6.2.0 by @fontawesome - https://fontawesome.com License - https://fontawesome.com/license (Commercial License) Copyright 2022 Fonticons, Inc. --><path d="M116.3 86.1C116.3 56.62 140.9 32 171.3 32C185.9 32 199.9 37.79 210.2 48.11L224 61.92L237.8 48.11C248.1 37.79 262.1 32 276.7 32C307.1 32 331.7 56.62 331.7 86.1V91.38C331.7 102.5 329.1 113.5 324.1 123.5L291.3 189.7L356.1 156.3C366.3 151 377.6 148.3 388.1 148.3H393C423.4 148.3 448 172.9 448 203.3C448 217.9 442.2 231.9 431.9 242.2L418.1 256L431.9 269.8C442.2 280.1 448 294.1 448 308.7C448 339.1 423.4 363.7 393 363.7H388.9C377.5 363.7 366.4 361 356.2 355.9L290.3 322.3L323.9 388.2C329 398.4 331.7 409.5 331.7 420.9V425C331.7 455.4 307.1 480 276.7 480C262.1 480 248.1 474.2 237.8 463.9L224 450.1L210.2 463.9C199.9 474.2 185.9 480 171.3 480C140.9 480 116.3 455.4 116.3 425V420.9C116.3 409.5 118.1 398.4 124.1 388.2L157.7 322.3L91.75 355.9C81.65 361 70.47 363.7 59.13 363.7H54.1C24.62 363.7 0 339.1 0 308.7C0 294.1 5.794 280.1 16.11 269.8L29.92 256L16.11 242.2C5.794 231.9 0 217.9 0 203.3C0 172.9 24.62 148.3 54.1 148.3H59.13C70.47 148.3 81.65 150.1 91.75 156.1L157.7 189.7L124.1 123.8C118.1 113.6 116.3 102.5 116.3 91.13L116.3 86.1zM171.3 48C149.8 48 132.3 65.46 132.3 86.1V91.13C132.3 99.95 134.4 108.6 138.4 116.5L183.1 204.4C184.7 207.5 184.1 211.2 181.7 213.7C179.2 216.1 175.5 216.7 172.4 215.1L84.5 170.4C76.64 166.4 67.95 164.3 59.13 164.3H54.1C33.46 164.3 16 181.8 16 203.3C16 213.6 20.11 223.6 27.42 230.9L46.89 250.3C50.01 253.5 50.01 258.5 46.89 261.7L27.42 281.1C20.11 288.4 16 298.4 16 308.7C16 330.2 33.46 347.7 54.1 347.7H59.13C67.95 347.7 76.64 345.6 84.5 341.6L172.4 296.9C175.5 295.3 179.2 295.9 181.7 298.3C184.1 300.8 184.7 304.5 183.1 307.6L138.4 395.5C134.4 403.4 132.3 412.1 132.3 420.9V425C132.3 446.5 149.8 464 171.3 464C181.6 464 191.6 459.9 198.9 452.6L218.3 433.1C219.8 431.6 221.9 430.8 224 430.8C226.1 430.8 228.2 431.6 229.7 433.1L249.1 452.6C256.4 459.9 266.4 464 276.7 464C298.2 464 315.7 446.5 315.7 425V420.9C315.7 412.1 313.6 403.4 309.6 395.5L264.9 307.6C263.3 304.5 263.9 300.8 266.3 298.3C268.8 295.9 272.5 295.3 275.6 296.9L363.5 341.6C371.4 345.6 380.1 347.7 388.9 347.7H393C414.5 347.7 432 330.2 432 308.7C432 298.4 427.9 288.4 420.6 281.1L401.1 261.7C399.6 260.2 398.8 258.1 398.8 256C398.8 253.9 399.6 251.8 401.1 250.3L420.6 230.9C427.9 223.6 432 213.6 432 203.3C432 181.8 414.5 164.3 393 164.3H388.1C380.1 164.3 371.4 166.4 363.5 170.5L276.9 215.1C273.8 216.7 270.1 216.1 267.6 213.7C265.2 211.3 264.5 207.5 266.1 204.4L309.8 116.4C313.7 108.6 315.7 100.1 315.7 91.38V86.1C315.7 65.46 298.2 48 276.7 48C266.4 48 256.4 52.11 249.1 59.42L229.7 78.89C228.2 80.39 226.1 81.23 224 81.23C221.9 81.23 219.8 80.39 218.3 78.89L198.9 59.42C191.6 52.11 181.6 48 171.3 48z"/></svg>