<svg xmlns="http://www.w3.org/2000/svg" viewBox="0 0 576 512"><!--! Font Awesome Pro 6.2.0 by @fontawesome - https://fontawesome.com License - https://fontawesome.com/license (Commercial License) Copyright 2022 Fonticons, Inc. --><path d="M167.1 .0003H279.1C302.1 .0003 320 17.91 320 40V96H336C357.4 96 376.3 110.2 382.2 130.8L400.4 194.8C395.1 195.8 389.9 196.1 384.8 198.4L366.8 135.2C362.8 121.5 350.3 112 336 112H111.1C97.71 112 85.16 121.5 81.23 135.2L17.23 359.2C14.47 368.9 16.41 379.3 22.45 387.3C28.5 395.3 37.96 400 47.1 400H258.9C259.9 405.4 261.1 410.8 262.6 416H47.1C32.94 416 18.75 408.9 9.679 396.9C.6086 384.9-2.291 369.3 1.847 354.8L65.85 130.8C71.73 110.2 90.57 96 112 96H128V40C128 17.91 145.9 0 168 0L167.1 .0003zM167.1 16C154.7 16 143.1 26.75 143.1 40V96H304V40C304 26.75 293.3 16 279.1 16H167.1zM271.1 448C271.1 446.5 272.4 445.1 273.1 443.9C276.8 451.4 280.9 458.7 285.5 465.6C282.6 475.1 277 485.5 269.3 493.3C257.3 505.3 240.1 512 223.1 512C207 512 190.7 505.3 178.7 493.3C166.7 481.3 159.1 464.1 159.1 448C159.1 443.6 163.6 440 167.1 440C172.4 440 175.1 443.6 175.1 448C175.1 460.7 181.1 472.9 190.1 481.9C199.1 490.9 211.3 496 223.1 496C236.7 496 248.9 490.9 257.9 481.9C266.9 472.9 271.1 460.7 271.1 448V448zM440 359.1H504C508.4 359.1 512 363.6 512 367.1C512 372.4 508.4 375.1 504 375.1H440V439.1C440 444.4 436.4 447.1 432 447.1C427.6 447.1 424 444.4 424 439.1V375.1H360C355.6 375.1 352 372.4 352 367.1C352 363.6 355.6 359.1 360 359.1H424V295.1C424 291.6 427.6 287.1 432 287.1C436.4 287.1 440 291.6 440 295.1V359.1zM576 368C576 447.5 511.5 512 432 512C352.5 512 287.1 447.5 287.1 368C287.1 288.5 352.5 224 432 224C511.5 224 576 288.5 576 368zM432 240C361.3 240 304 297.3 304 368C304 438.7 361.3 496 432 496C502.7 496 560 438.7 560 368C560 297.3 502.7 240 432 240z"/></svg>