<svg xmlns="http://www.w3.org/2000/svg" viewBox="0 0 448 512"><!--! Font Awesome Pro 6.2.0 by @fontawesome - https://fontawesome.com License - https://fontawesome.com/license (Commercial License) Copyright 2022 Fonticons, Inc. --><path d="M167.1 0H280C302.1 0 320 17.91 320 40V96H336C357.4 96 376.3 110.2 382.2 130.8L446.2 354.8C450.3 369.3 447.4 384.9 438.3 396.9C429.3 408.9 415.1 416 400 416H47.1C32.94 416 18.75 408.9 9.679 396.9C.6086 384.9-2.291 369.3 1.847 354.8L65.85 130.8C71.73 110.2 90.57 96 112 96H128V40C128 17.91 145.9 0 168 0L167.1 0zM167.1 16C154.7 16 143.1 26.75 143.1 40V96H304V40C304 26.75 293.3 16 280 16H167.1zM111.1 112C97.71 112 85.16 121.5 81.23 135.2L17.23 359.2C14.47 368.9 16.41 379.3 22.45 387.3C28.5 395.3 37.96 400 47.1 400H400C410 400 419.5 395.3 425.5 387.3C431.6 379.3 433.5 368.9 430.8 359.2L366.8 135.2C362.8 121.5 350.3 112 336 112H111.1zM190.1 481.9C199.1 490.9 211.3 496 223.1 496C236.7 496 248.9 490.9 257.9 481.9C266.9 472.9 272 460.7 272 448C272 443.6 275.6 440 280 440C284.4 440 288 443.6 288 448C288 464.1 281.3 481.3 269.3 493.3C257.3 505.3 240.1 512 223.1 512C207 512 190.7 505.3 178.7 493.3C166.7 481.3 159.1 464.1 159.1 448C159.1 443.6 163.6 440 167.1 440C172.4 440 175.1 443.6 175.1 448C175.1 460.7 181.1 472.9 190.1 481.9z"/></svg>