<svg xmlns="http://www.w3.org/2000/svg" viewBox="0 0 512 512"><!--! Font Awesome Pro 6.2.0 by @fontawesome - https://fontawesome.com License - https://fontawesome.com/license (Commercial License) Copyright 2022 Fonticons, Inc. --><path d="M256 0C397.4 0 512 114.6 512 256C512 397.4 397.4 512 256 512C114.6 512 0 397.4 0 256C0 114.6 114.6 0 256 0zM264 16.13V120C264 124.4 260.4 128 256 128C251.6 128 248 124.4 248 120V16.13C121.8 20.26 20.26 121.8 16.13 248H120C124.4 248 128 251.6 128 256C128 260.4 124.4 264 120 264H16.13C20.26 390.2 121.8 491.7 248 495.9V392C248 387.6 251.6 384 256 384C260.4 384 264 387.6 264 392V495.9C390.2 491.7 491.7 390.2 495.9 264H392C387.6 264 384 260.4 384 256C384 251.6 387.6 248 392 248H495.9C491.7 121.8 390.2 20.26 264 16.13z"/></svg>