<svg xmlns="http://www.w3.org/2000/svg" viewBox="0 0 576 512"><!--! Font Awesome Pro 6.2.0 by @fontawesome - https://fontawesome.com License - https://fontawesome.com/license (Commercial License) Copyright 2022 Fonticons, Inc. --><path d="M416 144C416 152.8 408.8 160 400 160C391.2 160 384 152.8 384 144C384 135.2 391.2 128 400 128C408.8 128 416 135.2 416 144zM240 32C240 49.67 254.3 64 272 64H304C321.7 64 336 49.67 336 32V8C336 3.582 339.6 0 344 0C348.4 0 352 3.582 352 8V32C352 44.29 347.4 55.51 339.8 64H424C441.7 64 456 49.67 456 32V8C456 3.582 459.6 0 464 0C468.4 0 472 3.582 472 8V32C472 58.51 450.5 80 424 80H423.4C430.2 84.27 436.7 89.35 442.5 95.17L483.3 136C489.5 121.9 503.6 112 520 112C542.1 112 560 129.9 560 152C560 174.1 542.1 192 520 192C516.9 192 513.9 191.7 511 190.1C506.1 209.9 490.2 224 470.1 224H406.1L385.4 299.9C384.5 303.3 384 306.9 384 310.4V480C384 497.7 369.7 512 352 512H312C294.3 512 280 497.7 280 480V360H263.7C236.5 360 209.1 352.3 187.1 337.9L187.5 340.3C190.7 359.4 182.3 378.7 166.1 389.5C153.8 397.7 148.4 413 152.7 427.2L166.1 470.6C172.4 491.2 157 512 135.5 512H97.73C83.68 512 71.27 502.8 67.14 489.4L44.88 417.1C41.45 405.9 41.59 393.9 45.28 382.9L53.95 356.9C55.31 352.8 56 348.5 56 344.2V336.1C56 328.2 52.53 319.8 46.34 313.7C32.04 299.4 24 279.9 24 259.7V255.2C24 245.6 25.7 236.4 28.82 227.9C23.4 237.3 20.01 248 19.3 259.5L15.98 312.5C15.71 316.9 11.91 320.3 7.501 319.1C3.092 319.7-.2597 315.9 .016 311.5L3.328 258.5C6.226 212.1 44.69 176 91.16 176H307.2L318.5 144H278.8C266.2 144 256 133.8 256 121.2C256 112.5 260.9 104.6 268.6 100.7L310.1 80H272C245.5 80 224 58.51 224 32V8.001C224 3.582 227.6 .0006 232 .0006C236.4 .0006 240 3.582 240 8.001L240 32zM495.9 183.1C487.1 177.3 481.1 167.1 480.1 155.5L431.2 106.5C414.2 89.53 391.2 80 367.2 80C353.2 80 339.4 83.27 326.8 89.55L275.8 115.1C273.5 116.2 272 118.6 272 121.2C272 124.9 275.1 128 278.8 128H336C340.4 128 344 131.6 344 136C344 140.4 340.4 144 336 144H335.4L320.4 186.7C319.3 189.9 316.3 192 312.9 192H103.2C68.31 192 40 220.3 40 255.2V259.7C40 275.7 46.35 291 57.66 302.3C66.84 311.5 72 323.1 72 336.1V344.2C72 350.2 71.03 356.2 69.13 361.9L60.46 387.9C57.82 395.8 57.72 404.4 60.17 412.3L82.43 484.7C84.5 491.4 90.7 496 97.73 496H135.5C146.3 496 153.1 485.6 150.8 475.3L137.4 431.9C131 410.1 139.1 388.3 157.3 376.2C168.2 368.9 173.9 355.9 171.7 342.9L168.1 321.3C167.6 318 169.1 314.8 171.1 313.1C174.8 311.4 178.4 311.7 180.1 313.8L183.7 315.1C206.4 334.1 234.6 344 263.7 344H288C292.4 344 296 347.6 296 352V480C296 488.8 303.2 496 312 496H352C360.8 496 368 488.8 368 480V310.4C368 305.5 368.7 300.5 369.1 295.7L392.3 213.9C393.2 210.4 396.4 207.1 400 207.1H470.1C483.8 207.1 494.1 197.4 495.9 183.1L495.9 183.1zM544 152C544 138.7 533.3 128 520 128C507.8 128 497.7 137.1 496.2 148.9C496.1 149.9 496 150.9 496 152C496 162.2 502.3 170.9 511.3 174.4C513.1 175.4 516.9 176 520 176C533.3 176 544 165.3 544 152z"/></svg>