<svg xmlns="http://www.w3.org/2000/svg" viewBox="0 0 576 512"><!--! Font Awesome Pro 6.2.0 by @fontawesome - https://fontawesome.com License - https://fontawesome.com/license (Commercial License) Copyright 2022 Fonticons, Inc. --><path d="M448 144C448 152.8 440.8 160 432 160C423.2 160 416 152.8 416 144C416 135.2 423.2 128 432 128C440.8 128 448 135.2 448 144zM272 32C272 49.67 286.3 64 304 64H336C353.7 64 368 49.67 368 32V8C368 3.582 371.6 0 376 0C380.4 0 384 3.582 384 8V32C384 44.29 379.4 55.51 371.8 64H456C473.7 64 488 49.67 488 32V8C488 3.582 491.6 0 496 0C500.4 0 504 3.582 504 8V32C504 58.51 482.5 80 456 80H455.4C462.2 84.27 468.7 89.35 474.5 95.17L531.7 152.4C539.6 160.3 544 170.9 544 182.1C544 205.2 525.2 224 502.1 224H438.1L417.4 299.9C416.5 303.3 416 306.9 416 310.4V480C416 497.7 401.7 512 384 512H344C326.3 512 312 497.7 312 480V360H295.7C268.5 360 241.1 352.3 219.1 337.9L219.5 340.3C222.7 359.4 214.3 378.7 198.1 389.5C185.8 397.7 180.4 413 184.7 427.2L198.1 470.6C204.4 491.2 189 512 167.5 512H129.7C115.7 512 103.3 502.8 99.14 489.4L76.88 417.1C73.45 405.9 73.59 393.9 77.28 382.9L85.95 356.9C87.31 352.8 88 348.5 88 344.2V339.9C88 329.3 83.79 319.1 76.29 311.6L72.4 307.7C61.9 297.2 56 282.1 56 268.1V256C56 245.7 57.95 235.9 61.5 226.8C55.68 236.4 52.04 247.6 51.3 259.5L47.98 312.5C47.71 316.9 43.91 320.3 39.5 319.1C35.09 319.7 31.74 315.9 32.02 311.5L35.33 258.5C38.23 212.1 76.69 176 123.2 176H339.2L350.5 144H310.8C298.2 144 288 133.8 288 121.2C288 112.5 292.9 104.6 300.6 100.7L342.1 80H304C277.5 80 256 58.51 256 32V8C256 3.582 259.6 0 264 0C268.4 0 272 3.582 272 8L272 32zM367.4 144L352.4 186.7C351.3 189.9 348.3 192 344.9 192H136C100.7 192 72 220.7 72 256V268.1C72 278.7 76.22 288.9 83.72 296.4L87.6 300.3C98.1 310.8 104 325 104 339.9V344.2C104 350.2 103 356.2 101.1 361.9L92.46 387.9C89.82 395.8 89.72 404.4 92.17 412.3L114.4 484.7C116.5 491.4 122.7 496 129.7 496H167.5C178.3 496 185.1 485.6 182.8 475.3L169.4 431.9C163 410.1 171.1 388.3 189.3 376.2C200.2 368.9 205.9 355.9 203.7 342.9L200.1 321.3C199.6 318 201.1 314.8 203.1 313.1C206.8 311.4 210.4 311.7 213 313.8L215.7 315.1C238.4 334.1 266.6 344 295.7 344H320C324.4 344 328 347.6 328 352V480C328 488.8 335.2 496 344 496H384C392.8 496 400 488.8 400 480V310.4C400 305.5 400.7 300.5 401.1 295.7L424.3 213.9C425.2 210.4 428.4 207.1 432 207.1H502.1C516.4 207.1 528 196.4 528 182.1C528 175.2 525.3 168.6 520.4 163.7L463.2 106.5C446.2 89.53 423.2 79.1 399.2 79.1C385.2 79.1 371.4 83.27 358.8 89.55L307.8 115.1C305.5 116.2 304 118.6 304 121.2C304 124.9 307.1 127.1 310.8 127.1H368C372.4 127.1 376 131.6 376 135.1C376 140.4 372.4 143.1 368 143.1L367.4 144z"/></svg>