<svg xmlns="http://www.w3.org/2000/svg" viewBox="0 0 640 512"><!--! Font Awesome Pro 6.2.0 by @fontawesome - https://fontawesome.com License - https://fontawesome.com/license (Commercial License) Copyright 2022 Fonticons, Inc. --><path d="M296.5 207.4L304.6 208C309 208.4 312.3 212.2 311.1 216.6C311.6 221 307.8 224.3 303.4 223.1L295.3 223.4C236.1 218.9 191.1 170.3 191.1 111.8C191.1 88.61 199.1 67.04 211.2 49.16C119.4 59.49 47.1 137.4 47.1 232V264C47.1 292.7 39.63 321.8 31.48 343.3C27.38 354.2 23.28 363.3 20.2 369.7C18.66 372.9 17.37 375.4 16.46 377.1C16.01 378 15.64 378.7 15.39 379.1L15.1 379.7L15.02 379.8L14.98 379.9C14.98 379.9 14.98 379.9 7.996 376L14.98 379.9C12.83 383.8 7.955 385.1 4.097 382.1C.2397 380.8-1.13 375.9 1.022 372.1L1.078 371.1L1.319 371.5C1.536 371.1 1.862 370.5 2.281 369.7C3.119 368.1 4.33 365.7 5.789 362.7C8.709 356.7 12.61 348 16.51 337.7C24.36 316.9 31.1 289.9 31.1 264V232C31.1 123.7 118 35.58 225.4 32.11C245.6 12.25 273.3 0 303.8 0C334.2 0 361.9 12.15 382.2 32H392C475.9 32 544 100.1 544 184V328C544 332.4 540.4 336 536 336C531.6 336 528 332.4 528 328V184C528 110.1 469.1 50.02 395.7 48.05C406.7 63.89 413.8 82.75 415.3 103.3L415.1 111.4C416.3 115.8 413 119.6 408.6 119.1C404.2 120.3 400.4 117 400 112.6L399.4 104.5C395.6 54.56 353.9 16 303.8 16C250.9 16 207.1 58.91 207.1 111.8C207.1 161.9 246.6 203.6 296.5 207.4L296.5 207.4zM415.1 314.9C436.1 346.8 471.6 368 512 368C543.7 368 572.4 354.1 592.1 333.1C596 330.8 601.1 330.8 604.3 333.9C607.4 336.1 607.5 342 604.4 345.2C588.1 361.8 567.3 374.1 544 380V398.6C544 408.2 551.8 416 561.4 416C568 416 574.1 412.3 577 406.4L579.4 401.7C587.3 385.9 606.5 379.5 622.3 387.4C638.1 395.3 644.5 414.5 636.6 430.3L634.3 434.1C620.5 462.6 592.3 480 561.4 480C516.5 480 480 443.5 480 398.6V380C454.9 373.6 432.8 359.9 415.1 341.3V472C415.1 494.1 398.1 512 375.1 512H327.1C305.9 512 287.1 494.1 287.1 472V406C273.3 412.4 257.1 416 239.1 416C222.9 416 206.7 412.4 191.1 406V472C191.1 494.1 174.1 512 151.1 512H103.1C81.91 512 63.1 494.1 63.1 472V336C63.1 331.6 67.58 328 71.1 328C76.42 328 79.1 331.6 79.1 336V472C79.1 485.3 90.74 496 103.1 496H151.1C165.3 496 175.1 485.3 175.1 472V397.5C174.4 396.5 172.9 395.5 171.4 394.5C167.8 391.1 166.9 386.1 169.4 383.4C171.1 379.7 176.1 378.8 180.6 381.4C197.4 393.1 217.9 400 239.1 400C262.1 400 282.6 393.1 299.4 381.4C303 378.8 308 379.7 310.6 383.4C313.1 386.1 312.2 391.1 308.6 394.5C307.1 395.5 305.5 396.6 303.1 397.5V472C303.1 485.3 314.7 496 327.1 496H375.1C389.3 496 399.1 485.3 399.1 472V304C399.1 299.6 403.6 296 407.1 296C412.4 296 415.1 299.6 415.1 304L415.1 314.9zM528 383C522.8 383.7 517.4 384 512 384C506.6 384 501.2 383.7 496 383V398.6C496 434.7 525.3 464 561.4 464C586.2 464 608.9 449.1 619.1 427.8L622.3 423.2C626.3 415.3 623.1 405.6 615.2 401.7C607.3 397.7 597.6 400.9 593.7 408.8L591.4 413.5C585.7 424.8 574.1 432 561.4 432C542.1 432 528 417 528 398.6V383zM479.1 208C479.1 216.8 472.8 224 463.1 224C455.2 224 447.1 216.8 447.1 208C447.1 199.2 455.2 192 463.1 192C472.8 192 479.1 199.2 479.1 208z"/></svg>