<svg xmlns="http://www.w3.org/2000/svg" viewBox="0 0 576 512"><!--! Font Awesome Pro 6.2.0 by @fontawesome - https://fontawesome.com License - https://fontawesome.com/license (Commercial License) Copyright 2022 Fonticons, Inc. --><path d="M464 448V352H480V448C480 483.3 451.3 512 416 512H160C124.7 512 96 483.3 96 448V352H112V448C112 474.5 133.5 496 160 496H416C442.5 496 464 474.5 464 448zM463.8 176H344C321.9 176 304 158.1 304 136V16.24C302.7 16.08 301.4 16 300.1 16H160C133.5 16 112 37.49 112 64V240H96V64C96 28.65 124.7 0 160 0H300.1C312.8 0 325.1 5.057 334.1 14.06L465.9 145.9C474.9 154.9 480 167.2 480 179.9V240H464V179.9C464 178.6 463.9 177.3 463.8 176V176zM457.1 160C456.3 159 455.5 158.1 454.6 157.3L322.7 25.37C321.9 24.5 320.1 23.68 320 22.93V136C320 149.3 330.7 160 344 160H457.1zM152 288C156.4 288 160 291.6 160 296C160 300.4 156.4 304 152 304H8C3.582 304 0 300.4 0 296C0 291.6 3.582 288 8 288H152zM344 288C348.4 288 352 291.6 352 296C352 300.4 348.4 304 344 304H232C227.6 304 224 300.4 224 296C224 291.6 227.6 288 232 288H344zM568 288C572.4 288 576 291.6 576 296C576 300.4 572.4 304 568 304H424C419.6 304 416 300.4 416 296C416 291.6 419.6 288 424 288H568z"/></svg>