<svg xmlns="http://www.w3.org/2000/svg" viewBox="0 0 384 512"><!--! Font Awesome Pro 6.2.0 by @fontawesome - https://fontawesome.com License - https://fontawesome.com/license (Commercial License) Copyright 2022 Fonticons, Inc. --><path d="M351.1 0C370.7 0 385.4 15.96 383.8 34.6L349.1 460.6C346.8 489.6 322.5 512 293.3 512H90.73C61.56 512 37.28 489.6 34.91 460.6L.1939 34.6C-1.325 15.96 13.39 0 32.09 0L351.1 0zM25.45 147.5L63.24 164.7C87.86 175.9 116.6 172.1 138.4 157.1C170.4 133.8 213.6 133.8 245.6 157.1C267.4 172.1 296.2 175.9 320.8 164.7L358.6 147.5L367.9 33.3C368.7 23.98 361.3 16 351.1 16H32.09C22.74 16 15.38 23.98 16.14 33.3L25.45 147.5zM26.94 165.8L50.86 459.3C52.55 480 69.9 496 90.73 496H293.3C314.1 496 331.5 480 333.2 459.3L357.1 165.7L327.4 179.3C297.5 192.8 262.7 189.3 236.1 169.1C209.8 150.9 174.2 150.9 147.9 169.1C121.3 189.3 86.48 192.8 56.62 179.3L26.94 165.8z"/></svg>