<svg xmlns="http://www.w3.org/2000/svg" viewBox="0 0 384 512"><!--! Font Awesome Pro 6.2.0 by @fontawesome - https://fontawesome.com License - https://fontawesome.com/license (Commercial License) Copyright 2022 Fonticons, Inc. --><path d="M128 180C128 155.1 161.7 109.9 180.2 86.49C186.3 78.77 197.7 78.77 203.8 86.49C222.3 109.9 256 155.1 256 180C256 213.1 227.3 240 192 240C156.7 240 128 213.1 128 180zM192 224C219.5 224 240 203.3 240 180C240 177.2 238.9 172.2 235.7 164.8C232.7 157.8 228.3 149.8 223.2 141.4C213.2 125.2 201 108.8 192 97.36C182.1 108.8 170.8 125.2 160.8 141.4C155.7 149.8 151.3 157.8 148.3 164.8C145.1 172.2 144 177.2 144 180C144 203.3 164.5 224 192 224zM351.1 0C370.7 0 385.4 15.96 383.8 34.6L349.1 460.6C346.8 489.6 322.5 512 293.3 512H90.73C61.56 512 37.28 489.6 34.91 460.6L.1939 34.6C-1.325 15.96 13.39 0 32.09 0L351.1 0zM38.38 306.1L63.25 317.1C87.87 328.1 116.5 325.1 138.2 309.2C170.3 285.9 213.7 285.9 245.8 309.2C267.6 325.1 296.1 328.1 320.8 317.1L345.7 306.1L367.9 33.3C368.7 23.98 361.3 16 351.1 16H32.09C22.74 16 15.38 23.98 16.14 33.3L38.38 306.1zM39.86 324.2L50.86 459.2C52.55 480 69.9 496 90.73 496H293.3C314.1 496 331.5 480 333.2 459.2L344.2 324.2L327.2 331.8C297.4 345 262.8 341.4 236.4 322.2C209.9 302.9 174.1 302.9 147.6 322.2C121.2 341.4 86.59 345 56.75 331.8L39.86 324.2z"/></svg>