<svg xmlns="http://www.w3.org/2000/svg" viewBox="0 0 384 512"><!--! Font Awesome Pro 6.2.0 by @fontawesome - https://fontawesome.com License - https://fontawesome.com/license (Commercial License) Copyright 2022 Fonticons, Inc. --><path d="M351.1 0C370.7 0 385.4 15.96 383.8 34.6L349.1 460.6C346.8 489.6 322.5 512 293.3 512H90.73C61.56 512 37.28 489.6 34.91 460.6L.193 34.6C-1.326 15.96 13.39 0 32.09 0L351.1 0zM32.99 240H351.1L367.9 33.3C368.7 23.98 361.3 16 351.1 16H32.09C22.74 16 15.38 23.98 16.14 33.3L32.99 240zM34.29 256L50.86 459.3C52.55 480 69.9 496 90.73 496H293.3C314.1 496 331.5 480 333.2 459.3L349.7 256H34.29z"/></svg>