<svg xmlns="http://www.w3.org/2000/svg" viewBox="0 0 448 512"><!--! Font Awesome Pro 6.2.0 by @fontawesome - https://fontawesome.com License - https://fontawesome.com/license (Commercial License) Copyright 2022 Fonticons, Inc. --><path d="M408 32C430.1 32 448 49.91 448 72V96C448 189.9 390.2 270.3 308.2 303.6L383.3 468.7C385.1 472.7 383.3 477.5 379.3 479.3C375.3 481.1 370.5 479.3 368.7 475.3L334.5 400H157.1C159.3 405.1 160 410.5 160 416C160 451.3 131.3 480 96 480C60.65 480 32 451.3 32 416C32 380.7 60.65 352 96 352C103.1 352 109.9 353.2 116.3 355.3L139.8 303.6C57.79 270.3 0 189.9 0 96V72C0 49.91 17.91 32 40 32H408zM408 48H40C26.75 48 16 58.75 16 72V96C16 210.9 109.1 304 224 304C338.9 304 432 210.9 432 96V72C432 58.75 421.3 48 408 48zM327.2 384L293.2 309.1C271.4 316.2 248.1 320 224 320C199.9 320 176.6 316.2 154.8 309.1L130.7 362.2C139.2 367.7 146.3 375.2 151.4 384H327.2zM96 464C122.5 464 144 442.5 144 416C144 389.5 122.5 368 96 368C69.49 368 48 389.5 48 416C48 442.5 69.49 464 96 464z"/></svg>