<svg xmlns="http://www.w3.org/2000/svg" viewBox="0 0 576 512"><!--! Font Awesome Pro 6.2.0 by @fontawesome - https://fontawesome.com License - https://fontawesome.com/license (Commercial License) Copyright 2022 Fonticons, Inc. --><path d="M408 48H40C26.75 48 16 58.75 16 72V96C16 210.9 109.1 304 224 304C226.7 304 229.4 303.9 232 303.8C230.3 309.2 228.8 314.6 227.6 319.1C226.4 319.1 225.2 320 224 320C199.9 320 176.6 316.2 154.8 309.1L130.7 362.2C139.2 367.7 146.3 375.2 151.4 384H226.1C227.9 389.4 229.1 394.7 230.5 400H157.1C159.3 405.1 160 410.5 160 416C160 451.3 131.3 480 96 480C60.65 480 32 451.3 32 416C32 380.7 60.65 352 96 352C103.1 352 109.9 353.2 116.3 355.3L139.8 303.6C57.79 270.3 0 189.9 0 96V72C0 49.91 17.91 32 40 32H408C430.1 32 448 49.91 448 72V96C448 120.1 444.2 143.3 437.1 165.1C432.9 160.8 428.6 156.5 424.3 152.4C429.3 134.4 432 115.5 432 96V72C432 58.75 421.3 48 408 48H408zM96 464C122.5 464 144 442.5 144 416C144 389.5 122.5 368 96 368C69.49 368 48 389.5 48 416C48 442.5 69.49 464 96 464zM377.7 256C380.1 256 382.4 257.1 383.9 259C386.1 261.8 403.3 283.6 419.8 304.7L446.3 338.5L479.7 299.6C481.3 297.8 483.6 296.7 486 296.8C488.5 296.9 490.7 298.1 492.2 300C495.9 305 498.4 309.1 500.6 314.3L500.6 314.4C522.1 353.9 512.8 404.8 476 430.5L475.9 430.6C458 442.5 438.9 448.5 417.4 448.5C390.8 448.5 366.5 439.1 348.7 423.7C330.8 407.3 320 383.6 320 354.5C320 339.4 324.8 325.6 333.5 310.6C342.1 295.8 354.9 279.3 371.4 258.1C372.1 257.1 375.3 255.1 377.7 255.1V256zM439.8 356.1L407.2 314.6C395.1 300.2 384.5 285.6 377.6 276.8C364.2 293.5 354.2 306.8 347.3 318.6C339.5 332.1 336 343.1 336 354.5C336 379.4 345.1 398.7 359.5 411.9C373.9 425.1 394.2 432.5 417.4 432.5C435.6 432.5 451.7 427.5 466.9 417.4C496.3 396.8 504.6 355.1 486.5 321.9L486.3 321.6C485.8 320.5 485.2 319.4 484.7 318.4L452.1 356.4C450.6 358.2 448.3 359.2 445.9 359.2C443.5 359.1 441.2 357.1 439.8 356.1L439.8 356.1zM434.4 209.1C438 213.2 441.6 217.3 445 221.5C448.3 217.4 451.8 213.1 455.4 208.9C460.4 202.1 465.9 197.1 471.5 191.1C477.1 186.9 485.9 186.9 491.5 192C516.2 214.7 537.1 244.7 551.8 273.2C566.4 301.2 576 329.9 576 350.1C576 437.9 504.7 512 416 512C326.3 512 256 437.8 256 350.1C256 323.7 268.7 291.5 288.4 259.5C308.4 227.2 336.5 193.4 369.8 163.7C375.4 158.7 383.1 158.8 389.5 163.8C405.3 177.1 420.3 193.1 434.4 209.1V209.1zM445.2 237.5C440.4 237.5 435.8 235.4 432.7 231.7C416.2 211.8 398.5 193.4 379.6 176.4C347.8 204.9 320.1 237.2 302 267.9C282.9 298.1 272 328.1 272 350.1C272 429.4 335.5 496 416 496C495.6 496 560 429.4 560 350.1C560 333.8 551.8 307.9 537.6 280.5C523.7 253.6 504.1 225.6 481.5 204.6C473.1 212.3 465.1 221.9 457.6 231.4C454.6 235.2 450 237.4 445.2 237.5H445.2zM446.1 351.2L439.8 356.1z"/></svg>