<svg xmlns="http://www.w3.org/2000/svg" viewBox="0 0 640 512"><!--! Font Awesome Pro 6.2.0 by @fontawesome - https://fontawesome.com License - https://fontawesome.com/license (Commercial License) Copyright 2022 Fonticons, Inc. --><path d="M307.6 22.58L320.1 35.1L332.6 22.58C347.1 8.121 366.7 .0003 387.1 .0003C429.7 .0003 464.2 34.51 464.2 77.08V81.61C464.2 104.2 454.9 125.7 438.4 141.1L341.1 231.5C329.7 243.1 310.5 243.1 298.2 231.5L201.8 141.1C185.3 125.7 176 104.2 176 81.61V77.08C176 34.51 210.5 0 253.1 0C273.5 0 293.1 8.12 307.6 22.58L307.6 22.58zM191.1 81.61C191.1 99.75 199.5 117.1 212.7 129.5L309.2 219.9C315.3 225.6 324.9 225.6 331 219.9L427.5 129.5C440.7 117.1 448.2 99.75 448.2 81.61V77.08C448.2 43.35 420.9 16 387.1 16C370.9 16 355.4 22.44 343.9 33.89L325.8 52.07C322.6 55.19 317.6 55.19 314.5 52.07L296.3 33.89C284.8 22.44 269.3 16 253.1 16C219.3 16 191.1 43.35 191.1 77.08V81.61zM95.1 258.1C95.1 273.1 100.8 286.7 109.5 297.7C110.4 288.8 113.9 280.2 120.1 272.9C137.1 253.1 167.3 251.1 185.7 270.4L278.5 363.2C294.8 379.5 303.1 401.7 303.1 424.8V504C303.1 508.4 300.4 512 295.1 512C291.6 512 287.1 508.4 287.1 504V424.8C287.1 405.9 280.5 387.8 267.2 374.5L174.4 281.7C162.6 269.9 143.1 270.6 132.2 283.4C122.5 294.8 123.1 311.8 133.7 322.4L197.7 386.3C200.8 389.5 200.8 394.5 197.7 397.7C194.5 400.8 189.5 400.8 186.3 397.7L102.9 314.2C88.23 299.5 79.1 279.7 79.1 258.1V112C79.1 94.33 65.67 80 47.1 80C30.33 80 15.1 94.33 15.1 112V344.2C15.1 367.6 25.27 389.1 41.77 406.5L133.7 498.3C136.8 501.5 136.8 506.5 133.7 509.7C130.5 512.8 125.5 512.8 122.3 509.7L30.46 417.8C10.96 398.3 0 371.8 0 344.2V111.1C0 85.49 21.49 63.1 48 63.1C74.51 63.1 96 85.49 96 111.1L95.1 258.1zM640 112V344.2C640 371.8 629 398.3 609.5 417.8L517.7 509.7C514.5 512.8 509.5 512.8 506.3 509.7C503.2 506.5 503.2 501.5 506.3 498.3L598.2 406.5C614.7 389.1 624 367.6 624 344.2V112C624 94.33 609.7 80 592 80C574.3 80 560 94.33 560 112V258.1C560 279.7 551.8 299.5 537.1 314.2L453.7 397.7C450.5 400.8 445.5 400.8 442.3 397.7C439.2 394.5 439.2 389.5 442.3 386.3L506.3 322.4C516.9 311.8 517.5 294.8 507.8 283.4C496.9 270.6 477.4 269.9 465.6 281.7L372.8 374.5C359.5 387.8 352 405.9 352 424.8V504C352 508.4 348.4 512 344 512C339.6 512 336 508.4 336 504V424.8C336 401.7 345.2 379.5 361.5 363.2L454.3 270.4C472.7 251.1 502.9 253.1 519.9 272.9C526.1 280.2 529.6 288.8 530.5 297.7C539.2 286.7 544 273.1 544 258.1V112C544 85.49 565.5 64 592 64C618.5 64 640 85.49 640 112L640 112z"/></svg>