<svg xmlns="http://www.w3.org/2000/svg" viewBox="0 0 640 512"><!--! Font Awesome Pro 6.2.0 by @fontawesome - https://fontawesome.com License - https://fontawesome.com/license (Commercial License) Copyright 2022 Fonticons, Inc. --><path d="M216 248V121.6C216 107.8 223 95.18 234.8 87.87C268.2 67.03 306.7 56.03 346.1 56.03H406.5L499.1 1.124C503.7-1.157 508.6 .1551 510.9 3.967C513.1 7.779 511.9 12.69 508 14.94L410.8 72.03H346.1C309.7 72.03 274.1 82.18 243.3 101.4C236.3 105.7 232 113.5 232 121.6V248C232 265.7 246.4 280 264 280C281.7 280 296 265.7 296 248V160C296 155.6 299.6 152 304 152C308.5 152 312 155.6 312 160V248C312 274.5 290.5 296 264 296C237.6 296 216 274.5 216 248L216 248zM104 267.5V272L12.1 326.9C10.82 327.6 9.411 328 8.005 328C5.286 328 2.63 326.6 1.13 324.1C-1.136 320.3 .1142 315.4 3.911 313.1L88.1 262.9C89.68 210.4 118.2 161.4 163.4 134.3L187.9 119.6C191.7 117.3 196.6 118.5 198.9 122.3C201.2 126.1 199.9 130.1 196.2 133.2L171.7 147.1C129.9 173.1 104 218.9 104 267.5V267.5zM636.6 198.6L556.6 254.6C555.2 255.5 553.6 256 552 256C549.5 256 546.1 254.8 545.5 252.6C542.9 248.1 543.8 243.1 547.4 241.5L627.4 185.5C631 182.1 636 183.8 638.5 187.4C641.1 191.1 640.2 196.1 636.6 198.6H636.6zM520 216V264C520 281.7 505.7 296 488 296V336C488 364.3 466.9 387.8 439.6 391.5C435.9 427.7 405.2 456 368 456H233.4L131.8 511C130.6 511.7 129.3 512 128 512C125.2 512 122.4 510.5 120.1 507.8C118.9 503.9 120.3 499.1 124.2 496.1L231.4 440H368C398.9 440 424 414.9 424 384V376H432C454.1 376 472 358.1 472 336V280H488C496.9 280 504 272.8 504 264V216C504 207.2 496.9 200 488 200H336C331.6 200 328 196.4 328 192C328 187.6 331.6 184 336 184H488C505.7 184 520 198.4 520 216L520 216z"/></svg>