<svg xmlns="http://www.w3.org/2000/svg" viewBox="0 0 640 512"><!--! Font Awesome Pro 6.2.0 by @fontawesome - https://fontawesome.com License - https://fontawesome.com/license (Commercial License) Copyright 2022 Fonticons, Inc. --><path d="M360 40C360 62.09 342.1 80 320 80C297.9 80 280 62.09 280 40C280 17.91 297.9 0 320 0C342.1 0 360 17.91 360 40zM320 16C306.7 16 296 26.75 296 40C296 53.25 306.7 64 320 64C333.3 64 344 53.25 344 40C344 26.75 333.3 16 320 16zM384.5 180.1L364.7 164.3L375.8 253C377.5 266.2 368.1 278.2 354.1 279.8C341.8 281.5 329.8 272.1 328.2 258.1L323.8 223.1H316.2L311.8 258.1C310.2 272.1 298.2 281.5 285 279.8C271.9 278.2 262.5 266.2 264.2 253L275.3 164.3L255.5 180.1C245.4 189.6 230.2 188.3 221.7 178.2C213.1 168 214.4 152.9 224.5 144.3L266 109.2C276.1 100.7 288.9 96 302.2 96H337.8C351.1 96 363.9 100.7 373.1 109.2L415.5 144.3C425.6 152.9 426.9 168 418.3 178.2C409.8 188.3 394.6 189.6 384.5 180.1H384.5zM394.8 168.8C398.2 171.6 403.3 171.2 406.1 167.8C408.1 164.5 408.5 159.4 405.2 156.6L363.7 121.5C356.4 115.3 347.3 112 337.8 112H302.2C292.7 112 283.6 115.3 276.4 121.5L234.8 156.6C231.5 159.4 231 164.5 233.9 167.8C236.7 171.2 241.8 171.6 245.2 168.8L264.9 152C269.1 147.8 277.1 147.1 282.9 150.2C288.7 153.3 291.1 159.7 291.2 166.2L280.1 255C279.5 259.4 282.6 263.4 287 263.9C291.4 264.5 295.4 261.4 295.9 256.1L300.3 222C301.3 214 308.1 207.1 316.2 207.1H323.8C331.9 207.1 338.7 214 339.7 222L344.1 256.1C344.6 261.4 348.6 264.5 352.1 263.9C357.4 263.4 360.5 259.4 359.9 255L348.8 166.2C348 159.7 351.3 153.3 357.1 150.2C362.9 147.1 370 147.8 375 152L394.8 168.8zM95.1 258.1C95.1 273.1 100.8 286.7 109.5 297.7C110.4 288.8 113.9 280.2 120.1 272.9C137.1 253.1 167.3 251.1 185.7 270.4L278.5 363.2C294.8 379.5 303.1 401.7 303.1 424.8V504C303.1 508.4 300.4 512 295.1 512C291.6 512 287.1 508.4 287.1 504V424.8C287.1 405.9 280.5 387.8 267.2 374.5L174.4 281.7C162.6 269.9 143.1 270.6 132.2 283.4C122.5 294.8 123.1 311.8 133.7 322.4L197.7 386.3C200.8 389.5 200.8 394.5 197.7 397.7C194.5 400.8 189.5 400.8 186.3 397.7L102.9 314.2C88.23 299.5 79.1 279.7 79.1 258.1V111.1C79.1 94.33 65.67 79.1 47.1 79.1C30.33 79.1 15.1 94.33 15.1 111.1V344.2C15.1 367.6 25.27 389.1 41.77 406.5L133.7 498.3C136.8 501.5 136.8 506.5 133.7 509.7C130.5 512.8 125.5 512.8 122.3 509.7L30.46 417.8C10.96 398.3 0 371.8 0 344.2V111.1C0 85.49 21.49 63.1 48 63.1C74.51 63.1 96 85.49 96 111.1L95.1 258.1zM640 112V344.2C640 371.8 629 398.3 609.5 417.8L517.7 509.7C514.5 512.8 509.5 512.8 506.3 509.7C503.2 506.5 503.2 501.5 506.3 498.3L598.2 406.5C614.7 389.1 624 367.6 624 344.2V112C624 94.33 609.7 80 592 80C574.3 80 560 94.33 560 112V258.1C560 279.7 551.8 299.5 537.1 314.2L453.7 397.7C450.5 400.8 445.5 400.8 442.3 397.7C439.2 394.5 439.2 389.5 442.3 386.3L506.3 322.4C516.9 311.8 517.5 294.8 507.8 283.4C496.9 270.6 477.4 269.9 465.6 281.7L372.8 374.5C359.5 387.8 352 405.9 352 424.8V504C352 508.4 348.4 512 344 512C339.6 512 336 508.4 336 504V424.8C336 401.7 345.2 379.5 361.5 363.2L454.3 270.4C472.7 251.1 502.9 253.1 519.9 272.9C526.1 280.2 529.6 288.8 530.5 297.7C539.2 286.7 544 273.1 544 258.1V112C544 85.49 565.5 64 592 64C618.5 64 640 85.49 640 112L640 112z"/></svg>