<svg xmlns="http://www.w3.org/2000/svg" viewBox="0 0 640 512"><!--! Font Awesome Pro 6.2.0 by @fontawesome - https://fontawesome.com License - https://fontawesome.com/license (Commercial License) Copyright 2022 Fonticons, Inc. --><path d="M327.1 32.41C340.4 33.44 352.8 36.29 364.1 39.45C368.4 40.64 370.9 45.05 369.7 49.31C368.5 53.56 364.1 56.05 359.8 54.86C346.6 51.16 332.9 48.22 319.9 48.01C308.7 47.83 296.2 50.51 286.9 56.29C277.9 61.88 272 70.12 272.1 81.99C272.1 91.97 276.1 98.61 285.8 104.2C295.2 110.1 307.9 114.1 322 118.6L322.3 118.7C335.9 123 351 127.8 362.6 135.5C374.8 143.5 383.8 155 383.1 172.5C384.2 191.3 375.3 204.9 362.4 213.2C352.3 219.8 340 223.1 328 223.8V247.1C328 252.4 324.4 255.1 320 255.1C315.6 255.1 312 252.4 312 247.1V223.4C296.8 221.6 282.3 216.4 268.9 211.6C266.4 210.7 263.8 209.7 261.4 208.9C257.2 207.4 254.1 202.9 256.4 198.7C257.9 194.5 262.5 192.3 266.6 193.8C269.4 194.7 272 195.7 274.7 196.6C290.5 202.3 304.9 207.4 320.3 207.1C332.3 208.4 344.7 205.7 353.7 199.8C362.4 194.2 368.2 185.5 367.1 172.7C367.9 161.8 362.7 154.7 353.8 148.8C344.4 142.6 331.6 138.5 317.5 133.1L316 133.5C302.8 129.3 288.4 124.8 277.3 117.8C265.3 110.2 256.2 99.07 256.1 82.07C255.1 63.6 265.7 50.63 278.5 42.69C288.5 36.46 300.6 33.2 311.1 32.28V8C311.1 3.582 315.6 0 319.1 0C324.4 0 328 3.582 328 8L327.1 32.41zM95.1 258.1C95.1 273.1 100.8 286.7 109.5 297.7C110.4 288.8 113.9 280.2 120.1 272.9C137.1 253.1 167.3 251.1 185.7 270.4L278.5 363.2C294.8 379.5 303.1 401.7 303.1 424.8V504C303.1 508.4 300.4 512 295.1 512C291.6 512 287.1 508.4 287.1 504V424.8C287.1 405.9 280.5 387.8 267.2 374.5L174.4 281.7C162.6 269.9 143.1 270.6 132.2 283.4C122.5 294.8 123.1 311.8 133.7 322.4L197.7 386.3C200.8 389.5 200.8 394.5 197.7 397.7C194.5 400.8 189.5 400.8 186.3 397.7L102.9 314.2C88.23 299.5 79.1 279.7 79.1 258.1V111.1C79.1 94.33 65.67 79.1 47.1 79.1C30.33 79.1 15.1 94.33 15.1 111.1V344.2C15.1 367.6 25.27 389.1 41.77 406.5L133.7 498.3C136.8 501.5 136.8 506.5 133.7 509.7C130.5 512.8 125.5 512.8 122.3 509.7L30.46 417.8C10.96 398.3 0 371.8 0 344.2V111.1C0 85.49 21.49 63.1 48 63.1C74.51 63.1 96 85.49 96 111.1L95.1 258.1zM640 111.1V344.2C640 371.8 629 398.3 609.5 417.8L517.7 509.7C514.5 512.8 509.5 512.8 506.3 509.7C503.2 506.5 503.2 501.5 506.3 498.3L598.2 406.5C614.7 389.1 624 367.6 624 344.2V111.1C624 94.33 609.7 79.1 592 79.1C574.3 79.1 560 94.33 560 111.1V258.1C560 279.7 551.8 299.5 537.1 314.2L453.7 397.7C450.5 400.8 445.5 400.8 442.3 397.7C439.2 394.5 439.2 389.5 442.3 386.3L506.3 322.4C516.9 311.8 517.5 294.8 507.8 283.4C496.9 270.6 477.4 269.9 465.6 281.7L372.8 374.5C359.5 387.8 352 405.9 352 424.8V504C352 508.4 348.4 512 344 512C339.6 512 336 508.4 336 504V424.8C336 401.7 345.2 379.5 361.5 363.2L454.3 270.4C472.7 251.1 502.9 253.1 519.9 272.9C526.1 280.2 529.6 288.8 530.5 297.7C539.2 286.7 544 273.1 544 258.1V111.1C544 85.49 565.5 63.1 592 63.1C618.5 63.1 640 85.49 640 111.1L640 111.1z"/></svg>