<svg xmlns="http://www.w3.org/2000/svg" viewBox="0 0 640 512"><!--! Font Awesome Pro 6.2.0 by @fontawesome - https://fontawesome.com License - https://fontawesome.com/license (Commercial License) Copyright 2022 Fonticons, Inc. --><path d="M448 143.1C448 135.2 455.2 127.1 464 127.1C472.8 127.1 480 135.2 480 143.1C480 152.8 472.8 159.1 464 159.1C455.2 159.1 448 152.8 448 143.1zM544 143.1C544 152.8 536.8 159.1 528 159.1C519.2 159.1 512 152.8 512 143.1C512 135.2 519.2 127.1 528 127.1C536.8 127.1 544 135.2 544 143.1zM456 199.1C438.3 199.1 424 214.3 424 231.1C424 236.4 420.4 239.1 416 239.1C411.6 239.1 408 236.4 408 231.1C408 205.5 429.5 183.1 456 183.1C482.5 183.1 504 205.5 504 231.1C504 236.4 500.4 239.1 496 239.1C491.6 239.1 488 236.4 488 231.1C488 214.3 473.7 199.1 456 199.1zM639.8 233.9C639.9 235.9 640 237.9 640 239.1C640 266.2 627.4 289.4 608 304V336C608 349.3 597.3 360 584 360H560C546.7 360 536 349.3 536 336V319.1H488V336C488 349.3 477.3 360 464 360H440C426.7 360 416 349.3 416 336V318.4C379.5 310.1 352 278.7 352 239.1C352 219.6 359.7 200.9 372.3 186.8C378.1 179.3 384 170.1 384 160V143.1C384 128.9 388.2 114.8 395.4 102.8L371.2 93.75C346.1 84.66 321.3 79.1 295.4 79.1H215.1C123.2 79.1 47.1 155.2 47.1 247.1L47.1 291.1C47.1 321.1 37.49 351.9 18.19 376.1L14.24 380.1C11.48 384.4 6.448 385 2.998 382.2C-.4515 379.5-1.011 374.5 1.75 371L5.698 366.1C22.72 344.8 31.1 318.3 31.1 291.1L31.1 248C31.1 146.4 114.4 64 215.1 64H295.4C323.2 64 350.8 69 376.8 78.77L385.6 82.06C381.9 70.95 384.5 58.22 393.4 49.37C405.9 36.88 426.1 36.88 438.6 49.37L453.9 64.63C457.2 64.22 460.6 64 464 64H496C504.1 64 511.9 65.21 519.3 67.45L529.4 57.37C541.9 44.88 562.1 44.88 574.6 57.37C587.1 69.87 587.1 90.13 574.6 102.6L568.1 109.2C573.1 119.7 576 131.5 576 143.1C576 154.2 583.4 162.8 592.7 166.1C610.3 174.9 624.6 188.1 632.7 206.5C637.3 213.9 640 222.6 640 231.1C640 232.7 639.9 233.3 639.8 233.9H639.8zM400 143.1V160C400 175.5 392.3 188.4 384.2 197.4C374.1 208.8 368 223.6 368 239.1C368 270.9 389.1 296.8 419.2 302.7L425.5 303.1H560C569.1 303.1 577.8 302.1 585.6 298.7L592.4 295.7L598.4 291.2C613.1 279.5 624 260.9 624 239.1C624 230.8 622.1 222.1 618.6 214.2C612.8 205.6 603.1 199.1 592 199.1C574.3 199.1 560 214.3 560 231.1C560 236.4 556.4 239.1 552 239.1C547.6 239.1 544 236.4 544 231.1C544 205.8 564.1 184.5 591 184C589.5 183.1 587.8 182.3 586.2 181.6C573 175.7 560 162.4 560 143.1C560 133.1 557.7 124.6 553.7 116.2L548.7 105.9L563.3 91.31C569.6 85.06 569.6 74.93 563.3 68.69C557.1 62.44 546.9 62.44 540.7 68.69L523.8 85.54L514.6 82.75C508.8 80.97 502.5 79.1 496 79.1H464C461.2 79.1 458.5 80.17 455.9 80.51L448.1 81.49L427.3 60.69C421.1 54.44 410.9 54.44 404.7 60.69C398.4 66.93 398.4 77.06 404.7 83.31L418.5 97.11L411 108.1C404.1 118.3 400 130.6 400 143.1H400zM592 313.3C586.9 315.6 581.6 317.3 576 318.4C570.8 319.4 565.5 319.1 560 319.1H552V336C552 340.4 555.6 344 560 344H584C588.4 344 592 340.4 592 336V313.3zM464 344C468.4 344 472 340.4 472 336V319.1H432V336C432 340.4 435.6 344 440 344H464zM440 384H448V440C448 462.1 430.1 480 408 480H360C337.9 480 320 462.1 320 440V371.1L314.2 373C276.4 385.6 235.6 385.6 197.8 373L192 371.1V440C192 462.1 174.1 480 152 480H104C81.91 480 64 462.1 64 440V344C64 339.6 67.58 336 72 336C76.42 336 80 339.6 80 344V440C80 453.3 90.75 464 104 464H152C165.3 464 176 453.3 176 440V360C176 357.4 177.2 355 179.3 353.5C181.4 352 184.1 351.6 186.5 352.4L202.9 357.9C237.4 369.4 274.6 369.4 309.1 357.9L325.5 352.4C327.9 351.6 330.6 352 332.7 353.5C334.8 355 336 357.4 336 360V440C336 453.3 346.7 464 360 464H408C421.3 464 432 453.3 432 440V383.3C434.6 383.8 437.3 384 440 384H440z"/></svg>