<svg xmlns="http://www.w3.org/2000/svg" viewBox="0 0 576 512"><!--! Font Awesome Pro 6.2.0 by @fontawesome - https://fontawesome.com License - https://fontawesome.com/license (Commercial License) Copyright 2022 Fonticons, Inc. --><path d="M186.3 311.8C190.5 313.2 192.9 317.6 191.5 321.9C190.2 326.1 185.7 328.4 181.5 327.1L101.7 302.2C97.51 300.9 95.16 296.4 96.48 292.1C97.79 287.9 102.3 285.6 106.5 286.9L186.3 311.8zM394.5 327.1C390.3 328.4 385.8 326.1 384.5 321.9C383.1 317.6 385.5 313.2 389.7 311.8L469.5 286.9C473.7 285.6 478.2 287.9 479.5 292.1C480.8 296.4 478.5 300.9 474.3 302.2L394.5 327.1zM280.8 341.4C285.5 342.8 290.5 342.8 295.2 341.4L341.7 326.8C345.9 325.5 350.4 327.9 351.7 332.1C353 336.3 350.7 340.8 346.5 342.1L299.9 356.7C292.2 359.1 283.8 359.1 276.1 356.7L229.6 342.1C225.3 340.8 222.1 336.3 224.3 332.1C225.6 327.9 230.1 325.5 234.3 326.8L280.8 341.4zM22.46 81.46L278.5 1.457C284.7-.4856 291.3-.4856 297.5 1.457L553.5 81.46C555.2 81.98 556.8 82.63 558.3 83.39C569 88.75 576 99.75 576 112V400C576 413.1 566.9 426.4 553.5 430.5L297.5 510.5C291.3 512.5 284.7 512.5 278.5 510.5L22.46 430.5C9.096 426.4 0 413.1 0 400V112C0 98.01 9.096 85.63 22.46 81.46H22.46zM292.8 16.73C289.7 15.76 286.3 15.76 283.2 16.73L27.23 96.73C20.55 98.82 16 105 16 112V115.8L283.2 199.3C286.3 200.2 289.7 200.2 292.8 199.3L560 115.8V112C560 105.9 556.5 100.4 551.2 97.7C550.4 97.31 549.6 96.99 548.8 96.73L292.8 16.73zM560 202.6V132.5L297.5 214.5C291.3 216.5 284.7 216.5 278.5 214.5L16 132.5V202.6L280.8 285.4C285.5 286.8 290.5 286.8 295.2 285.4L560 202.6zM560 219.4L299.9 300.7C292.2 303.1 283.8 303.1 276.1 300.7L16 219.4V258.6L58.27 271.8C62.49 273.1 64.84 277.6 63.52 281.9C62.21 286.1 57.72 288.4 53.5 287.1L16 275.4V400C16 406.1 20.55 413.2 27.23 415.3L283.2 495.3C286.3 496.2 289.7 496.2 292.8 495.3L548.8 415.3C555.5 413.2 560 406.1 560 400V275.4L522.5 287.1C518.3 288.4 513.8 286.1 512.5 281.9C511.2 277.6 513.5 273.1 517.7 271.8L560 258.6V219.4z"/></svg>