<svg xmlns="http://www.w3.org/2000/svg" viewBox="0 0 640 512"><!--! Font Awesome Pro 6.2.0 by @fontawesome - https://fontawesome.com License - https://fontawesome.com/license (Commercial License) Copyright 2022 Fonticons, Inc. --><path d="M182.6 108.3C169.3 100.2 160.1 85.51 160.1 68.27C160.1 46.8 174.7 28.07 195.6 22.87L277.8 2.305C307.3-5.08 335.1 17.26 335.1 47.71C335.1 55.33 334.1 62.61 330.8 69.05L421.7 46.32C451.3 38.94 479.9 61.28 479.9 91.73C479.9 108.4 471.1 123.4 457.4 131.7C470.7 139.8 479.9 154.5 479.9 171.7C479.9 188.4 471.1 203.4 457.4 211.7C470.7 219.8 479.9 234.5 479.9 251.7C479.9 273.2 465.3 291.9 444.4 297.1L373.9 314.8C370.4 315.7 367.9 318.9 367.9 322.5V352H384C401.7 352 416 366.3 416 384V432C416 449.7 401.7 464 384 464H368C368 490.5 346.5 512 320 512C293.5 512 272 490.5 272 464H256C238.3 464 224 449.7 224 432V384C224 366.3 238.3 352 256 352H272V289.2L288 285.2V352H351.9V322.5C351.9 311.5 359.4 301.9 370.1 299.2L440.6 281.6C454.3 278.2 463.9 265.9 463.9 251.7C463.9 231.7 445.1 217 425.7 221.8L425.6 221.8L313.9 249.8L313.9 249.8L218.3 273.7C188.7 281.1 160.1 258.7 160.1 228.3C160.1 211.6 168.9 196.6 182.6 188.3C169.3 180.2 160.1 165.5 160.1 148.3C160.1 131.6 168.9 116.6 182.6 108.3V108.3zM199.4 38.39C185.7 41.82 176.1 54.14 176.1 68.27C176.1 88.3 194.9 102.1 214.3 98.17L296.6 77.6L296.7 77.58C310.4 74.12 319.1 61.82 319.1 47.71C319.1 27.67 301.1 12.97 281.7 17.83L199.4 38.39zM199.4 118.4C185.7 121.8 176.1 134.1 176.1 148.3C176.1 168.3 194.9 183 214.4 178.2L440.6 121.6C454.3 118.2 463.9 105.9 463.9 91.73C463.9 71.69 445.1 56.98 425.6 61.84L300.6 93.1L300.5 93.12L199.4 118.4zM239.1 384V432C239.1 440.8 247.2 448 255.1 448H384C392.8 448 400 440.8 400 432V384C400 375.2 392.8 368 384 368H255.1C247.2 368 239.1 375.2 239.1 384zM463.9 171.7C463.9 151.7 445.1 136.1 425.6 141.8L199.4 198.4C185.7 201.8 176.1 214.1 176.1 228.3C176.1 248.3 194.9 263 214.4 258.2L440.6 201.6C454.3 198.2 463.9 185.9 463.9 171.7V171.7zM288 464C288 481.7 302.3 496 320 496C337.7 496 352 481.7 352 464H288zM92.11 65.14C95.9 67.41 97.13 72.33 94.86 76.12C92.58 79.9 87.67 81.13 83.88 78.86L3.881 30.86C.0926 28.59-1.136 23.67 1.137 19.88C3.411 16.1 8.325 14.87 12.11 17.14L92.11 65.14zM556.1 78.86C552.3 81.13 547.4 79.9 545.1 76.12C542.9 72.33 544.1 67.41 547.9 65.14L627.9 17.14C631.7 14.87 636.6 16.1 638.9 19.88C641.1 23.67 639.9 28.59 636.1 30.86L556.1 78.86zM87.1 176C92.42 176 95.1 179.6 95.1 184C95.1 188.4 92.42 192 87.1 192H7.998C3.579 192-.0024 188.4-.0024 184C-.0024 179.6 3.579 176 7.998 176H87.1zM631.1 176C636.4 176 639.1 179.6 639.1 184C639.1 188.4 636.4 192 631.1 192H551.1C547.6 192 543.1 188.4 543.1 184C543.1 179.6 547.6 176 551.1 176H631.1zM12.11 334.9C8.325 337.1 3.411 335.9 1.137 332.1C-1.136 328.3 .0926 323.4 3.881 321.1L83.88 273.1C87.67 270.9 92.58 272.1 94.86 275.9C97.13 279.7 95.9 284.6 92.11 286.9L12.11 334.9zM636.1 321.1C639.9 323.4 641.1 328.3 638.9 332.1C636.6 335.9 631.7 337.1 627.9 334.9L547.9 286.9C544.1 284.6 542.9 279.7 545.1 275.9C547.4 272.1 552.3 270.9 556.1 273.1L636.1 321.1z"/></svg>