<svg xmlns="http://www.w3.org/2000/svg" viewBox="0 0 320 512"><!--! Font Awesome Pro 6.2.0 by @fontawesome - https://fontawesome.com License - https://fontawesome.com/license (Commercial License) Copyright 2022 Fonticons, Inc. --><path d="M35.56 22.87L117.8 2.305C147.3-5.08 175.1 17.26 175.1 47.71C175.1 55.33 174.1 62.61 170.8 69.05L261.7 46.32C291.3 38.94 319.9 61.28 319.9 91.73C319.9 108.4 311.1 123.4 297.4 131.7C310.7 139.8 319.9 154.5 319.9 171.7C319.9 188.4 311.1 203.4 297.4 211.7C310.7 219.8 319.9 234.5 319.9 251.7C319.9 273.2 305.3 291.9 284.4 297.1L213.9 314.8C210.4 315.7 207.9 318.9 207.9 322.5V352H224C241.7 352 256 366.3 256 384V432C256 449.7 241.7 464 224 464H208C208 490.5 186.5 512 160 512C133.5 512 112 490.5 112 464H96C78.33 464 64 449.7 64 432V384C64 366.3 78.33 352 96 352H112V289.2L128 285.2V352H191.9V322.5C191.9 311.5 199.4 301.9 210.1 299.2L280.6 281.6C294.3 278.2 303.9 265.9 303.9 251.7C303.9 231.7 285.1 217 265.7 221.8L265.6 221.8L153.9 249.8L153.9 249.8L58.26 273.7C28.72 281.1 .1056 258.7 .1056 228.3C.1056 211.6 8.912 196.6 22.6 188.3C9.278 180.2 .1056 165.5 .1056 148.3C.1056 131.6 8.912 116.6 22.6 108.3C9.278 100.2 .1056 85.51 .1056 68.27C.1056 46.8 14.72 28.07 35.56 22.87V22.87zM159.1 47.71C159.1 27.67 141.1 12.97 121.7 17.83L39.44 38.39C25.73 41.82 16.11 54.14 16.11 68.27C16.11 88.3 34.91 102.1 54.33 98.17L136.6 77.6L136.7 77.58C150.4 74.12 159.1 61.82 159.1 47.71H159.1zM16.11 148.3C16.11 168.3 34.94 183 54.38 178.2L280.6 121.6C294.3 118.2 303.9 105.9 303.9 91.73C303.9 71.69 285.1 56.98 265.6 61.84L140.6 93.1L140.5 93.12L39.44 118.4C25.73 121.8 16.11 134.1 16.11 148.3zM96 368C87.16 368 80 375.2 80 384V432C80 440.8 87.16 448 96 448H224C232.8 448 240 440.8 240 432V384C240 375.2 232.8 368 224 368H96zM280.6 201.6C294.3 198.2 303.9 185.9 303.9 171.7C303.9 151.7 285.1 136.1 265.6 141.8L39.44 198.4C25.73 201.8 16.11 214.1 16.11 228.3C16.11 248.3 34.94 263 54.38 258.2L280.6 201.6zM160 496C177.7 496 192 481.7 192 464H128C128 481.7 142.3 496 160 496z"/></svg>