<svg xmlns="http://www.w3.org/2000/svg" viewBox="0 0 512 512"><!--! Font Awesome Pro 6.2.0 by @fontawesome - https://fontawesome.com License - https://fontawesome.com/license (Commercial License) Copyright 2022 Fonticons, Inc. --><path d="M328 88C332.4 88 336 91.58 336 96V128C336 132.4 332.4 136 328 136H296C291.6 136 288 132.4 288 128C288 123.6 291.6 120 296 120H320V96C320 91.58 323.6 88 328 88zM400 192C400 183.2 407.2 176 416 176C424.8 176 432 183.2 432 192C432 200.8 424.8 208 416 208C407.2 208 400 200.8 400 192zM408 0C447.8 0 480 32.24 480 72C480 74.69 479.9 77.34 479.6 79.95C478.4 90.85 474.7 101 469.2 109.9C465.5 115.9 460.9 121.3 455.6 125.1C455.2 126.3 454.8 126.7 454.4 127C484.6 148.9 504 184.3 504 224.1C504 246.1 486.1 264 464.1 264H373.2L337.3 342.8L378.1 355.4C391.1 359.4 400 371.4 400 384.1C400 402.1 386.1 416 368.1 416H56C33.91 416 16 433.9 16 456C16 478.1 33.91 496 56 496H472C476.4 496 480 499.6 480 504C480 508.4 476.4 512 472 512H56C25.07 512 0 486.9 0 456C0 425.1 25.07 400 56 400H122.7C106.4 386.8 96 366.6 96 344V336C96 248.7 162.6 176.1 247.7 168.8C223.4 153.9 208 127.3 208 97.96V92C208 41.19 249.2 .0003 300 .0003C321.9 .0003 341.1 7.643 357.8 20.41C358.6 19.58 359.5 18.78 360.4 18C364.2 14.62 368.4 11.64 372.9 9.131C383.3 3.317 395.3 0 408 0L408 0zM370.1 29.1C370.4 30.49 369.9 30.99 369.3 31.51C383.4 47.68 392 68.84 392 92V104.6L392.8 104.6C409.8 105.8 425.7 110.5 439.9 118C441.7 116.8 443.4 115.4 445 114C447.9 111.4 450.6 108.6 452.9 105.5C453.8 104.3 454.6 103.1 455.4 101.9C460.8 93.21 464 82.98 464 71.1C464 41.07 438.9 15.1 408 15.1C406.2 15.1 404.5 16.08 402.7 16.24C390.6 17.37 379.6 22.37 370.1 29.1L370.1 29.1zM112 344C112 374.9 137.1 400 168 400H368.1C377.3 400 384 393.3 384 384.1C384 378.4 379.7 372.6 373.4 370.6L285.6 343.6C281.4 342.3 279.1 337.9 280.4 333.6C281.7 329.4 286.1 327.1 290.4 328.4L321.9 338.1L360.7 252.7C362 249.8 364.9 248 368 248H464.1C477.3 248 488 237.3 488 224.1C488 169.6 445.9 124.4 391.6 120.6L383.4 119.1C379.2 119.7 376 116.2 376 112V92C376 50.03 341.1 16 300 16C258 16 224 50.03 224 92V97.96C224 126.8 242.4 152.4 269.8 161.5L290.5 168.4C294.3 169.7 296.5 173.4 295.9 177.3C295.3 181.2 291.9 184 288 184H264C180.1 184 112 252.1 112 336V344z"/></svg>