<svg xmlns="http://www.w3.org/2000/svg" viewBox="0 0 512 512"><!--! Font Awesome Pro 6.2.0 by @fontawesome - https://fontawesome.com License - https://fontawesome.com/license (Commercial License) Copyright 2022 Fonticons, Inc. --><path d="M229.7 325.7C226.5 328.8 221.5 328.8 218.3 325.7L154.3 261.7C151.2 258.5 151.2 253.5 154.3 250.3C157.5 247.2 162.5 247.2 165.7 250.3L224 308.7L346.3 186.3C349.5 183.2 354.5 183.2 357.7 186.3C360.8 189.5 360.8 194.5 357.7 197.7L229.7 325.7zM140.6 21.15C154.1 7.652 172.4 .0664 191.5 .0664H320.5C339.6 .0664 357.9 7.652 371.4 21.15L490.8 140.6C504.3 154.1 511.9 172.4 511.9 191.5V320.5C511.9 339.6 504.3 357.9 490.8 371.4L371.4 490.8C357.9 504.3 339.6 511.9 320.5 511.9H191.5C172.4 511.9 154.1 504.3 140.6 490.8L21.15 371.4C7.652 357.9 .0666 339.6 .0666 320.5V191.5C.0666 172.4 7.652 154.1 21.15 140.6L140.6 21.15zM191.5 16.07C176.7 16.07 162.4 21.97 151.9 32.47L32.47 151.9C21.97 162.4 16.07 176.7 16.07 191.5V320.5C16.07 335.3 21.97 349.6 32.47 360.1L151.9 479.5C162.4 490 176.7 495.9 191.5 495.9H320.5C335.3 495.9 349.6 490 360.1 479.5L479.5 360.1C490 349.6 495.9 335.3 495.9 320.5V191.5C495.9 176.7 490 162.4 479.5 151.9L360.1 32.47C349.6 21.97 335.3 16.07 320.5 16.07L191.5 16.07z"/></svg>