<svg xmlns="http://www.w3.org/2000/svg" viewBox="0 0 640 512"><!--! Font Awesome Pro 6.2.0 by @fontawesome - https://fontawesome.com License - https://fontawesome.com/license (Commercial License) Copyright 2022 Fonticons, Inc. --><path d="M384 48H64C37.49 48 16 69.49 16 96V416C16 442.5 37.49 464 64 464H324.8C328.8 469.6 333 474.9 337.6 480H64C28.65 480 0 451.3 0 416V96C0 60.65 28.65 32 64 32H384C419.3 32 448 60.65 448 96V128.2C442.6 127.7 437.2 128.1 432 129.5V96C432 69.49 410.5 48 384 48H384zM96 208C78.33 208 64 193.7 64 176V128C64 110.3 78.33 96 96 96H352C369.7 96 384 110.3 384 128V167.4C371.4 180.6 359.7 194.2 349.1 208H96zM352 112H96C87.16 112 80 119.2 80 128V176C80 184.8 87.16 192 96 192H352C360.8 192 368 184.8 368 176V128C368 119.2 360.8 112 352 112zM96 272C96 263.2 103.2 256 112 256C120.8 256 128 263.2 128 272C128 280.8 120.8 288 112 288C103.2 288 96 280.8 96 272zM192 272C192 280.8 184.8 288 176 288C167.2 288 160 280.8 160 272C160 263.2 167.2 256 176 256C184.8 256 192 263.2 192 272zM224 272C224 263.2 231.2 256 240 256C248.8 256 256 263.2 256 272C256 280.8 248.8 288 240 288C231.2 288 224 280.8 224 272zM441.7 255.9C444.1 255.9 446.4 256.1 447.9 258.9C450.1 261.7 467.3 283.5 483.8 304.6L510.3 338.4L543.7 299.5C545.3 297.6 547.6 296.6 550 296.7C552.5 296.8 554.7 297.9 556.2 299.9C559.9 304.9 562.4 309.8 564.6 314.1L564.6 314.2C586.1 353.8 576.8 404.7 540 430.4L539.9 430.5C522 442.4 502.9 448.4 481.4 448.4C454.8 448.4 430.5 439.8 412.7 423.5C394.8 407.2 384 383.4 384 354.3C384 339.2 388.8 325.4 397.5 310.4C406.1 295.6 418.9 279.2 435.4 258.8C436.1 256.9 439.3 255.8 441.7 255.9V255.9zM503.8 355.9L471.2 314.4C459.1 300.1 448.5 285.4 441.6 276.7C428.2 293.4 418.2 306.7 411.3 318.5C403.5 331.9 400 342.9 400 354.3C400 379.3 409.1 398.6 423.5 411.7C437.9 424.9 458.2 432.4 481.4 432.4C499.6 432.4 515.7 427.4 530.9 417.2C560.3 396.6 568.6 354.9 550.5 321.7L550.3 321.5C549.8 320.4 549.2 319.3 548.7 318.2L516.1 356.2C514.6 358 512.3 359.1 509.9 359C507.5 358.1 505.2 357.8 503.8 355.9L503.8 355.9zM498.4 208.1C502 213 505.6 217.2 509 221.3C512.3 217.2 515.8 212.1 519.4 208.8C524.4 202.8 529.9 196.1 535.5 191.8C541.1 186.7 549.9 186.7 555.5 191.9C580.2 214.6 601.1 244.5 615.8 273C630.4 301.1 640 329.8 640 349.9C640 437.8 568.7 511.9 480 511.9C390.3 511.9 320 437.7 320 349.9C320 323.5 332.7 291.3 352.4 259.4C372.4 227 400.5 193.3 433.8 163.6C439.4 158.6 447.1 158.6 453.5 163.6C469.3 177.8 484.3 192.9 498.4 208.1V208.1zM509.2 237.3C504.4 237.4 499.8 235.3 496.7 231.6C480.2 211.7 462.5 193.3 443.6 176.2C411.8 204.8 384.1 237.1 366 267.8C346.9 298.8 336 327.1 336 349.9C336 429.2 399.5 495.9 480 495.9C559.6 495.9 624 429.2 624 349.9C624 333.6 615.8 307.7 601.6 280.4C587.7 253.5 568.1 225.5 545.5 204.4C537.1 212.1 529.1 221.8 521.6 231.3C518.6 235.1 514 237.3 509.2 237.3H509.2zM510.1 351L503.8 355.9z"/></svg>