<svg xmlns="http://www.w3.org/2000/svg" viewBox="0 0 448 512"><!--! Font Awesome Pro 6.2.0 by @fontawesome - https://fontawesome.com License - https://fontawesome.com/license (Commercial License) Copyright 2022 Fonticons, Inc. --><path d="M96 80C96 53.49 117.5 32 144 32C170.5 32 192 53.49 192 80C192 106.5 170.5 128 144 128C117.5 128 96 106.5 96 80zM144 112C161.7 112 176 97.67 176 80C176 62.33 161.7 48 144 48C126.3 48 112 62.33 112 80C112 97.67 126.3 112 144 112zM154.5 202.9C167.7 176.6 194.6 160 224 160C253.4 160 280.3 176.6 293.5 202.9L327.2 270.5C330.7 277.3 337.2 281.1 344.6 284.1C385.9 296.4 416 334.7 416 380C416 435.2 371.2 480 316 480C294.8 480 275.2 473.4 259.1 462.2C241.7 450.2 206.3 450.2 188.9 462.2C172.8 473.4 153.2 480 132 480C76.77 480 32 435.2 32 380C32 334.7 62.12 296.4 103.4 284.1C110.8 281.1 117.3 277.3 120.8 270.5L154.5 202.9zM168.8 210.1L135.1 277.6C129.2 289.3 118.5 296.3 107.1 299.5C73.28 309.8 48 341.1 48 380C48 426.4 85.61 464 132 464C149.8 464 166.3 458.5 179.8 449.1C192.2 440.5 208.1 437.2 224 437.2C239 437.2 255.8 440.5 268.2 449.1C281.7 458.5 298.2 464 316 464C362.4 464 400 426.4 400 380C400 341.1 374.7 309.8 340 299.5C329.5 296.3 318.8 289.3 312.9 277.6L279.2 210.1C268.7 189.2 247.4 176 224 176C200.6 176 179.3 189.2 168.8 210.1V210.1zM352 80C352 106.5 330.5 128 304 128C277.5 128 256 106.5 256 80C256 53.49 277.5 32 304 32C330.5 32 352 53.49 352 80zM304 48C286.3 48 272 62.33 272 80C272 97.67 286.3 112 304 112C321.7 112 336 97.67 336 80C336 62.33 321.7 48 304 48zM352 192C352 165.5 373.5 144 400 144C426.5 144 448 165.5 448 192C448 218.5 426.5 240 400 240C373.5 240 352 218.5 352 192zM400 224C417.7 224 432 209.7 432 192C432 174.3 417.7 160 400 160C382.3 160 368 174.3 368 192C368 209.7 382.3 224 400 224zM96 192C96 218.5 74.51 240 48 240C21.49 240 0 218.5 0 192C0 165.5 21.49 144 48 144C74.51 144 96 165.5 96 192zM48 160C30.33 160 16 174.3 16 192C16 209.7 30.33 224 48 224C65.67 224 80 209.7 80 192C80 174.3 65.67 160 48 160z"/></svg>