<svg xmlns="http://www.w3.org/2000/svg" viewBox="0 0 512 512"><!--! Font Awesome Pro 6.2.0 by @fontawesome - https://fontawesome.com License - https://fontawesome.com/license (Commercial License) Copyright 2022 Fonticons, Inc. --><path d="M339.6 8.846C363.7 20.91 399.1 61.07 399.1 128C400.2 139.3 398.5 151.2 394.5 163.2C380.2 206 342.4 232.2 310.1 221.7C277.8 211.1 263.2 167.7 277.5 124.9C291.8 81.97 329.6 55.77 361.9 66.35C365.9 67.66 369.7 69.49 373.1 71.76C361.8 45.14 344.2 29.05 332.4 23.16C328.5 21.18 326.9 16.38 328.8 12.42C330.8 8.472 335.6 6.87 339.6 8.846zM292.7 129.9C286.5 148.4 286.8 166.4 291.5 180.3C296.2 194.2 304.8 203.1 315.1 206.5C325.4 209.8 337.8 207.7 349.9 199.3C362.1 190.9 373.2 176.6 379.3 158.1C385.5 139.6 385.2 121.6 380.5 107.7C375.8 93.85 367.2 84.92 356.9 81.55C346.6 78.17 334.2 80.26 322.1 88.7C309.9 97.14 298.8 111.4 292.7 129.9zM109.5 163.2C105.5 151.2 103.8 139.3 104 128C104 61.07 140.3 20.91 164.4 8.846C168.4 6.87 173.2 8.472 175.2 12.42C177.1 16.38 175.5 21.18 171.6 23.16C159.8 29.05 142.2 45.14 130.9 71.76C134.3 69.49 138.1 67.66 142.1 66.35C174.4 55.77 212.2 81.97 226.5 124.9C240.8 167.7 226.2 211.1 193.9 221.7C161.6 232.2 123.8 206 109.5 163.2zM212.5 180.3C217.2 166.4 217.5 148.4 211.3 129.9C205.2 111.4 194.1 97.14 181.9 88.7C169.8 80.26 157.4 78.17 147.1 81.55C136.8 84.92 128.2 93.85 123.5 107.7C118.8 121.6 118.5 139.6 124.7 158.1C130.8 176.6 141.9 190.9 154.1 199.3C166.2 207.7 178.6 209.8 188.9 206.5C199.2 203.1 207.8 194.2 212.5 180.3zM11.63 281.4C3.718 267.8-.0723 253.3 0 240C0 173.1 36.29 132.9 60.42 120.8C64.37 118.9 69.18 120.5 71.16 124.4C73.13 128.4 71.53 133.2 67.58 135.2C53.93 141.1 32.43 162.5 22.03 197.2C46.53 183.3 81.56 198.2 100.4 230.6C119.2 263 114.7 300.7 90.16 314.7C65.65 328.8 30.49 313.9 11.63 281.4L11.63 281.4zM95.65 277.6C97.03 266.2 94.4 252.1 86.54 238.6C78.69 225.1 67.73 215.8 56.98 211.2C46.23 206.7 36.74 207.2 29.8 211.2C22.88 215.1 17.74 222.1 16.35 234.4C14.97 245.8 17.6 259.9 25.46 273.4C33.31 286.9 44.28 296.2 55.02 300.8C65.77 305.3 75.26 304.8 82.2 300.8C89.12 296.9 94.26 289 95.65 277.6zM442.8 433.2C446.4 442.9 448 453.3 448 463.7V468.1C448 492.3 428.3 512 404.1 512C390.8 512 377.5 509.1 364.8 506L284.6 480.1C265.1 475.1 246 475.1 227.4 480.1L147.2 506C134.5 509.1 121.2 512 107.9 512C83.65 512 63.1 492.3 63.1 468.1V463.7C63.1 453.3 65.6 442.9 69.21 433.2C121.6 291.9 214.7 256 255.1 256C297.3 256 390.4 291.9 442.8 433.2H442.8zM256 272C222.5 272 134.7 302.7 84.21 438.8C81.35 446.5 80 454.9 80 463.7V468.1C80 483.5 92.49 496 107.9 496C119.6 496 131.2 494.2 142.4 490.7L222.6 465.7C244.3 458.9 267.7 458.9 289.4 465.7L369.6 490.7C380.8 494.2 392.4 496 404.1 496C419.5 496 432 483.5 432 468.1V463.7C432 454.9 430.6 446.5 427.8 438.8C377.3 302.7 289.5 272 256 272zM489.1 197.2C479.6 162.5 458.1 141.1 444.4 135.2C440.5 133.2 438.9 128.4 440.8 124.4C442.8 120.5 447.6 118.9 451.6 120.8C475.7 132.9 512 173.1 512 240C512.1 253.3 508.3 267.8 500.4 281.4C481.5 313.9 446.3 328.8 421.8 314.7C397.3 300.7 392.8 263 411.6 230.6C430.4 198.2 465.5 183.3 489.1 197.2L489.1 197.2zM425.5 238.6C417.6 252.1 414.1 266.2 416.4 277.6C417.7 289 422.9 296.9 429.8 300.8C436.7 304.8 446.2 305.3 456.1 300.8C467.7 296.2 478.7 286.9 486.5 273.4C494.4 259.9 497 245.8 495.6 234.4C494.3 222.1 489.1 215.1 482.2 211.2C475.3 207.2 465.8 206.7 455 211.2C444.3 215.8 433.3 225.1 425.5 238.6z"/></svg>