<svg xmlns="http://www.w3.org/2000/svg" viewBox="0 0 512 512"><!--! Font Awesome Pro 6.2.0 by @fontawesome - https://fontawesome.com License - https://fontawesome.com/license (Commercial License) Copyright 2022 Fonticons, Inc. --><path d="M109.5 131.1C95.19 88.26 109.8 44.92 142.1 34.34C174.4 23.77 212.2 49.96 226.5 92.85C240.8 135.7 226.2 179.1 193.9 189.7C161.6 200.2 123.8 174 109.5 131.1zM212.5 148.3C217.2 134.4 217.5 116.4 211.3 97.92C205.2 79.45 194.1 65.14 181.9 56.7C169.8 48.26 157.4 46.17 147.1 49.55C136.8 52.92 128.2 61.84 123.5 75.74C118.8 89.64 118.5 107.6 124.7 126.1C130.8 144.6 141.9 158.9 154.1 167.3C166.2 175.7 178.6 177.8 188.9 174.4C199.2 171.1 207.8 162.2 212.5 148.3zM11.63 249.4C-7.237 216.1-2.664 179.3 21.84 165.3C46.35 151.2 81.51 166.1 100.4 198.6C119.2 231 114.7 268.7 90.16 282.7C65.65 296.8 30.49 281.9 11.63 249.4zM95.65 245.6C97.03 234.2 94.4 220.1 86.54 206.6C78.69 193.1 67.73 183.8 56.98 179.2C46.23 174.7 36.74 175.2 29.8 179.2C22.88 183.1 17.74 190.1 16.35 202.4C14.97 213.8 17.6 227.9 25.46 241.4C33.31 254.9 44.28 264.2 55.02 268.8C65.77 273.3 75.26 272.8 82.2 268.8C89.12 264.9 94.26 257 95.65 245.6zM442.8 401.2C446.4 410.9 448 421.3 448 431.7V436.1C448 460.3 428.3 480 404.1 480C390.8 480 377.5 477.1 364.8 474L284.6 448.9C265.1 443.1 246 443.1 227.4 448.9L147.2 474C134.5 477.1 121.2 480 107.9 480C83.65 480 63.1 460.3 63.1 436.1V431.7C63.1 421.3 65.6 410.9 69.21 401.2C121.6 259.9 214.7 224 255.1 224C297.3 224 390.4 259.9 442.8 401.2H442.8zM256 240C222.5 240 134.7 270.7 84.21 406.8C81.35 414.5 80 422.9 80 431.7V436.1C80 451.5 92.49 464 107.9 464C119.6 464 131.2 462.2 142.4 458.7L222.6 433.7C244.3 426.9 267.7 426.9 289.4 433.7L369.6 458.7C380.8 462.2 392.4 464 404.1 464C419.5 464 432 451.5 432 436.1V431.7C432 422.9 430.6 414.5 427.8 406.8C377.3 270.7 289.5 240 256 240zM490.2 165.3C514.7 179.3 519.2 216.1 500.4 249.4C481.5 281.9 446.3 296.8 421.8 282.7C397.3 268.7 392.8 231 411.6 198.6C430.5 166.1 465.7 151.2 490.2 165.3zM425.5 206.6C417.6 220.1 414.1 234.2 416.4 245.6C417.7 257 422.9 264.9 429.8 268.8C436.7 272.8 446.2 273.3 456.1 268.8C467.7 264.2 478.7 254.9 486.5 241.4C494.4 227.9 497 213.8 495.6 202.4C494.3 190.1 489.1 183.1 482.2 179.2C475.3 175.2 465.8 174.7 455 179.2C444.3 183.8 433.3 193.1 425.5 206.6zM361.9 34.34C394.2 44.92 408.8 88.26 394.5 131.1C380.2 174 342.4 200.2 310.1 189.7C277.8 179.1 263.2 135.7 277.5 92.85C291.8 49.96 329.6 23.77 361.9 34.34zM292.7 97.92C286.5 116.4 286.8 134.4 291.5 148.3C296.2 162.2 304.8 171.1 315.1 174.4C325.4 177.8 337.8 175.7 349.9 167.3C362.1 158.9 373.2 144.6 379.3 126.1C385.5 107.6 385.2 89.64 380.5 75.74C375.8 61.84 367.2 52.92 356.9 49.55C346.6 46.17 334.2 48.26 322.1 56.7C309.9 65.14 298.8 79.45 292.7 97.92z"/></svg>