<svg xmlns="http://www.w3.org/2000/svg" viewBox="0 0 640 512"><!--! Font Awesome Pro 6.2.0 by @fontawesome - https://fontawesome.com License - https://fontawesome.com/license (Commercial License) Copyright 2022 Fonticons, Inc. --><path d="M448 240C448 231.2 455.2 224 464 224C472.8 224 480 231.2 480 240C480 248.8 472.8 256 464 256C455.2 256 448 248.8 448 240zM512 60.24V88H574.4C588.6 88 600 99.45 600 113.6C600 143.6 581.4 170.5 553.6 181.2C561.7 192.5 572.7 201.5 585.3 207.4C586 207.8 586.1 208 588.1 208H608C625.7 208 640 222.3 640 240V320C640 337.7 625.7 352 608 352H581.7C578.8 352 575.9 353.6 573.1 356.6C555.8 384.9 527.3 404.9 494.9 412.6L476.5 464.1C473.1 473.6 464 480 453.9 480H408C394.7 480 384 469.3 384 456V416H271.1V456C271.1 469.3 261.3 480 247.1 480H202.1C191.1 480 182.9 473.6 179.5 464.1L149.2 379.1C107.7 353.8 80 308.1 80 256V240H45.19C20.23 240 0 219.8 0 194.8V193.3C0 174.7 11.87 158.3 29.47 152.4L53.47 144.4C57.66 143 62.19 145.3 63.59 149.5C64.99 153.7 62.72 158.2 58.53 159.6L34.53 167.6C23.46 171.3 16 181.6 16 193.3V194.8C16 210.9 29.07 224 45.19 224H80.79C88.82 143.1 157 80 240 80H381.2C381.1 80 382.7 80 383.5 80.01C391.6 69.56 402.5 61.23 415.4 56.27L473.6 33.88C476.9 32.64 480.3 32 483.8 32C499.4 32 512 44.64 512 60.24L512 60.24zM511.3 104C510.3 111.1 508.3 117.9 505.4 124.2C520.4 136.4 533.7 150.9 544.7 167.3L545.4 167.1C568.5 159.4 584 137.9 584 113.6C584 108.3 579.7 104 574.4 104L511.3 104zM421.2 71.2C409.9 75.53 400.6 83.1 394.1 92.62L391.6 96.25L387.2 96.1C385.2 96.03 383.2 96 381.2 96H239.1C160.5 96 95.1 160.5 95.1 240V256C95.1 303.3 121.6 344.6 159.8 366.7L162.3 368.2L194.6 458.7C195.7 461.9 198.8 464 202.1 464H247.1C252.4 464 255.1 460.4 255.1 456V400H400V456C400 460.4 403.6 464 408 464H453.9C457.2 464 460.3 461.9 461.4 458.7L482.8 398.7L487.3 397.8C517.4 391.9 543.9 373.9 560.5 347.9C564.1 340.1 572.7 336 581.7 336H608C616.8 336 624 328.8 624 320V240C624 231.2 616.8 224 608 224H588.1C584.1 224 581.7 223.4 578.5 221.9C560.1 213.7 546.1 200.5 536.1 183.7C524.1 163.6 508.5 146.4 490.4 132.7L484.7 128.5L488.3 122.3C493.2 113.1 496 104.3 496 94.03V60.24C496 53.48 490.5 48 483.8 48C482.3 48 480.8 48.28 479.4 48.82L421.2 71.2z"/></svg>