<svg xmlns="http://www.w3.org/2000/svg" viewBox="0 0 512 512"><!--! Font Awesome Pro 6.2.0 by @fontawesome - https://fontawesome.com License - https://fontawesome.com/license (Commercial License) Copyright 2022 Fonticons, Inc. --><path d="M160 48C160 39.16 167.2 32 176 32C220.2 32 256 67.82 256 112V136C256 144.8 248.8 152 240 152C195.8 152 160 116.2 160 72V48zM176 48V72C176 107.3 204.7 136 240 136V112C240 76.65 211.3 48 176 48zM272 48C272 39.16 279.2 32 288 32C332.2 32 368 67.82 368 112V136C368 144.8 360.8 152 352 152C307.8 152 272 116.2 272 72V48zM288 48V72C288 107.3 316.7 136 352 136V112C352 76.65 323.3 48 288 48zM480 112V136C480 144.8 472.8 152 464 152C419.8 152 384 116.2 384 72V48C384 39.16 391.2 32 400 32C444.2 32 480 67.82 480 112zM464 136V112C464 76.65 435.3 48 400 48V72C400 107.3 428.7 136 464 136zM368 208C368 252.2 332.2 288 288 288C279.2 288 272 280.8 272 272V248C272 203.8 307.8 168 352 168C360.8 168 368 175.2 368 184V208zM288 248V272C323.3 272 352 243.3 352 208V184C316.7 184 288 212.7 288 248zM240 168C248.8 168 256 175.2 256 184V208C256 252.2 220.2 288 176 288C167.2 288 160 280.8 160 272V248C160 203.8 195.8 168 240 168zM240 208V184C204.7 184 176 212.7 176 248V272C211.3 272 240 243.3 240 208zM480 208C480 252.2 444.2 288 400 288C391.2 288 384 280.8 384 272V248C384 203.8 419.8 168 464 168C472.8 168 480 175.2 480 184V208zM400 248V272C435.3 272 464 243.3 464 208V184C428.7 184 400 212.7 400 248zM0 160C0 155.6 3.582 152 8 152H152C156.4 152 160 155.6 160 160C160 164.4 156.4 168 152 168H8C3.582 168 0 164.4 0 160zM120 80C124.4 80 128 83.58 128 88C128 92.42 124.4 96 120 96H40C35.58 96 32 92.42 32 88C32 83.58 35.58 80 40 80H120zM32 232C32 227.6 35.58 224 40 224H120C124.4 224 128 227.6 128 232C128 236.4 124.4 240 120 240H40C35.58 240 32 236.4 32 232zM486.4 320C500.5 320 512 331.5 512 345.6C512 400.9 468.1 445.1 413.3 447.9C406.7 466.6 388.9 480 368 480H144C123.1 480 105.3 466.6 98.71 447.9C43.86 445.1 0 400.9 0 345.6C0 331.5 11.46 320 25.6 320H486.4zM144 464H368C381.9 464 393.8 455.1 398.2 442.6C400.4 436.4 406.1 432.2 412.7 431.9C458.1 430.3 496 392.3 496 345.6C496 340.3 491.7 336 486.4 336H25.6C20.3 336 15.1 340.3 15.1 345.6C15.1 392.3 53.01 430.3 99.27 431.9C105.9 432.2 111.6 436.4 113.8 442.6C118.2 455.1 130.1 464 143.1 464H144z"/></svg>