<svg xmlns="http://www.w3.org/2000/svg" viewBox="0 0 384 512"><!--! Font Awesome Pro 6.2.0 by @fontawesome - https://fontawesome.com License - https://fontawesome.com/license (Commercial License) Copyright 2022 Fonticons, Inc. --><path d="M132.7 10.05C137.2 3.743 144.5 0 152.2 0H231.8C239.5 0 246.8 3.743 251.3 10.05L283.3 54.86C287.2 60.27 287.3 67.5 283.6 73.03L242.5 134.7C324 156.9 384 231.4 384 320C384 426 298 512 192 512C85.96 512 0 426 0 320C0 231.4 59.97 156.9 141.5 134.7L100.4 73.03C96.72 67.5 96.84 60.27 100.7 54.86L132.7 10.05zM118.9 72L158.3 130.1C169.2 129 180.5 128 192 128C203.5 128 214.8 129 225.7 130.1L265.1 72H118.9zM264.5 56L238.3 19.35C236.8 17.25 234.3 16 231.8 16H152.2C149.7 16 147.2 17.25 145.7 19.35L119.5 56H264.5zM192 496C289.2 496 368 417.2 368 320C368 222.8 289.2 144 192 144C94.8 144 16 222.8 16 320C16 417.2 94.8 496 192 496z"/></svg>