<svg xmlns="http://www.w3.org/2000/svg" viewBox="0 0 640 512"><!--! Font Awesome Pro 6.2.0 by @fontawesome - https://fontawesome.com License - https://fontawesome.com/license (Commercial License) Copyright 2022 Fonticons, Inc. --><path d="M448 255.1V116.8C448 101 468.5 94.79 477.3 107.1L606.8 302.2C621 323.5 605.8 351.1 580.2 351.1L64 352V116.8C64 101 84.53 94.8 93.31 107.1L192 256V116.8C192 101 212.5 94.8 221.3 107.1L320 256V116.8C320 101 340.5 94.8 349.3 107.1L448 255.1zM593.5 311.1L464 116.8V335.1H580.2C592.1 335.1 600.6 321.8 593.5 311.1zM448 284.8L336 116.8V336H448V284.8zM320 284.8L208 116.8V336H320V284.8zM80 336H192V284.8L80 116.8V336zM0 439.1C0 435.6 3.582 431.1 8 431.1H632C636.4 431.1 640 435.6 640 439.1C640 444.4 636.4 447.1 632 447.1H8C3.582 447.1 0 444.4 0 439.1z"/></svg>