<svg xmlns="http://www.w3.org/2000/svg" viewBox="0 0 640 512"><!--! Font Awesome Pro 6.2.0 by @fontawesome - https://fontawesome.com License - https://fontawesome.com/license (Commercial License) Copyright 2022 Fonticons, Inc. --><path d="M16 96V416C16 442.5 37.49 464 64 464H230.8C232.8 469.5 235.1 474.9 237.8 480H64C28.65 480 0 451.3 0 416V96C0 60.65 28.65 32 64 32H384C419.3 32 448 60.65 448 96V230.8C442.8 228.1 437.5 227.5 432 226.4V96C432 69.49 410.5 48 384 48H64C37.49 48 16 69.49 16 96zM96 280C96 284.4 92.42 288 88 288C83.58 288 80 284.4 80 280V104C80 99.58 83.58 96 88 96C92.42 96 96 99.58 96 104V280zM160 280C160 284.4 156.4 288 152 288C147.6 288 144 284.4 144 280V104C144 99.58 147.6 96 152 96C156.4 96 160 99.58 160 104V280zM482.2 296.6C490.8 291.2 501 288 512 288C540.7 288 564.3 309.6 567.6 337.4C608.8 344.8 640 380.7 640 424C640 472.6 600.6 512 552 512H344C295.4 512 256 472.6 256 424C256 383.7 283.1 349.7 320.1 339.3C322.6 292.9 360.1 256 408 256C439.2 256 466.5 272.2 482.2 296.6zM336 345.4C336.1 349.3 333.4 352.7 329.6 353.4C296.7 360.1 272 389.2 272 424C272 463.8 304.2 496 344 496H552C591.8 496 624 463.8 624 424C624 386.7 595.6 355.1 559.2 352.4C555.1 351.9 551.1 348.5 552 344.4L552 344C552 321.9 534.1 304 512 304C501.6 304 492.2 307.9 485.1 314.4C483.2 316.1 480.7 316.8 478.2 316.4C475.8 315.9 473.7 314.3 472.5 312C460.8 288.3 436.3 272 408 272C368.2 272 336 304.2 336 344C336 344.5 336 344.1 336 345.4z"/></svg>