<svg xmlns="http://www.w3.org/2000/svg" viewBox="0 0 448 512"><!--! Font Awesome Pro 6.2.0 by @fontawesome - https://fontawesome.com License - https://fontawesome.com/license (Commercial License) Copyright 2022 Fonticons, Inc. --><path d="M96 280C96 284.4 92.42 288 88 288C83.58 288 80 284.4 80 280V104C80 99.58 83.58 96 88 96C92.42 96 96 99.58 96 104V280zM160 280C160 284.4 156.4 288 152 288C147.6 288 144 284.4 144 280V104C144 99.58 147.6 96 152 96C156.4 96 160 99.58 160 104V280zM0 96C0 60.65 28.65 32 64 32H384C419.3 32 448 60.65 448 96V416C448 451.3 419.3 480 384 480H64C28.65 480 0 451.3 0 416V96zM16 96V416C16 442.5 37.49 464 64 464H384C410.5 464 432 442.5 432 416V96C432 69.49 410.5 48 384 48H64C37.49 48 16 69.49 16 96z"/></svg>