<svg xmlns="http://www.w3.org/2000/svg" viewBox="0 0 640 512"><!--! Font Awesome Pro 6.2.0 by @fontawesome - https://fontawesome.com License - https://fontawesome.com/license (Commercial License) Copyright 2022 Fonticons, Inc. --><path d="M88 96C92.42 96 96 99.58 96 104V280C96 284.4 92.42 288 88 288C83.58 288 80 284.4 80 280V104C80 99.58 83.58 96 88 96zM152 96C156.4 96 160 99.58 160 104V280C160 284.4 156.4 288 152 288C147.6 288 144 284.4 144 280V104C144 99.58 147.6 96 152 96zM384 32C419.3 32 448 60.65 448 96V416C448 451.3 419.3 480 384 480H64C28.65 480 0 451.3 0 416V96C0 60.65 28.65 32 64 32H384zM384 48H64C37.49 48 16 69.49 16 96V416C16 442.5 37.49 464 64 464H384C410.5 464 432 442.5 432 416V96C432 69.49 410.5 48 384 48zM524.1 126.9C520.3 129.1 515.4 127.9 513.1 124.1C510.9 120.3 512.1 115.4 515.9 113.1L595.9 65.14C599.7 62.87 604.6 64.1 606.9 67.88C609.1 71.67 607.9 76.59 604.1 78.86L524.1 126.9zM632 248C636.4 248 640 251.6 640 256C640 260.4 636.4 264 632 264H520C515.6 264 512 260.4 512 256C512 251.6 515.6 248 520 248H632zM604.1 433.1C607.9 435.4 609.1 440.3 606.9 444.1C604.6 447.9 599.7 449.1 595.9 446.9L515.9 398.9C512.1 396.6 510.9 391.7 513.1 387.9C515.4 384.1 520.3 382.9 524.1 385.1L604.1 433.1z"/></svg>