<svg xmlns="http://www.w3.org/2000/svg" viewBox="0 0 640 512"><!--! Font Awesome Pro 6.2.0 by @fontawesome - https://fontawesome.com License - https://fontawesome.com/license (Commercial License) Copyright 2022 Fonticons, Inc. --><path d="M16 96V416C16 442.5 37.49 464 64 464H224.1C224 465.2 224 466.5 224 467.7C224 471.9 224.3 475.1 224.1 480H64C28.65 480 0 451.3 0 416V96C0 60.65 28.65 32 64 32H384C419.3 32 448 60.65 448 96V128C442.6 128 437.2 128.6 432 129.8V96C432 69.49 410.5 48 384 48H64C37.49 48 16 69.49 16 96V96zM96 280C96 284.4 92.42 288 88 288C83.58 288 80 284.4 80 280V104C80 99.58 83.58 96 88 96C92.42 96 96 99.58 96 104V280zM160 280C160 284.4 156.4 288 152 288C147.6 288 144 284.4 144 280V104C144 99.58 147.6 96 152 96C156.4 96 160 99.58 160 104V280zM455.1 384C455.1 388.4 452.4 392 447.1 392C443.6 392 439.1 388.4 439.1 384V288C439.1 283.6 443.6 280 447.1 280C452.4 280 455.1 283.6 455.1 288V384zM432 432C432 423.2 439.2 416 448 416C456.8 416 464 423.2 464 432C464 440.8 456.8 448 448 448C439.2 448 432 440.8 432 432zM448 160C462.8 160 476.5 167.1 483.8 180.9L634.2 445.8C638 452.5 640 460 640 467.7C640 492.2 620.2 512 595.7 512H300.3C275.8 512 256 492.2 256 467.7C256 460 257.1 452.5 261.8 445.8L412.2 180.9C419.5 167.1 433.2 160 448 160V160zM275.7 453.7C273.3 457.1 272 462.8 272 467.7C272 483.3 284.7 496 300.3 496H595.7C611.3 496 624 483.3 624 467.7C624 462.8 622.7 457.1 620.3 453.7L469.9 188.8C465.5 180.9 457.1 175.1 448 175.1C438.9 175.1 430.5 180.9 426.1 188.8L275.7 453.7z"/></svg>