<svg xmlns="http://www.w3.org/2000/svg" viewBox="0 0 640 512"><!--! Font Awesome Pro 6.2.0 by @fontawesome - https://fontawesome.com License - https://fontawesome.com/license (Commercial License) Copyright 2022 Fonticons, Inc. --><path d="M215.1 255.1C215.1 233.9 233.9 215.1 255.1 215.1C278.1 215.1 295.1 233.9 295.1 255.1C295.1 278.1 278.1 295.1 255.1 295.1C233.9 295.1 215.1 278.1 215.1 255.1zM255.1 231.1C242.7 231.1 231.1 242.7 231.1 255.1C231.1 269.3 242.7 279.1 255.1 279.1C269.3 279.1 279.1 269.3 279.1 255.1C279.1 242.7 269.3 231.1 255.1 231.1zM424 255.1C424 278.1 406.1 295.1 384 295.1C361.9 295.1 344 278.1 344 255.1C344 233.9 361.9 215.1 384 215.1C406.1 215.1 424 233.9 424 255.1zM384 279.1C397.3 279.1 408 269.3 408 255.1C408 242.7 397.3 231.1 384 231.1C370.7 231.1 360 242.7 360 255.1C360 269.3 370.7 279.1 384 279.1zM43.82 16.97C47.23 18.82 48.81 22.85 47.59 26.53L36.45 59.95C33.6 68.49 32.59 77.53 33.49 86.49C36.75 119.1 64.22 143.1 97.03 143.1H172.8C189.4 115.3 220.5 95.1 255.1 95.1H384C419.5 95.1 450.6 115.3 467.2 144H542.1C575.8 144 603.2 119.1 606.5 86.5C607.4 77.54 606.4 68.49 603.5 59.95L592.4 26.53C591.2 22.85 592.8 18.83 596.2 16.97C599.6 15.12 603.8 15.98 606.2 19L613.7 28.33C630.7 49.6 640 76.04 640 103.3V120C640 186.3 586.3 240 520 240H480V288C480 329.8 453.3 365.3 416 378.5L389.7 466.4C381.6 493.5 356.6 512 328.4 512H311.6C283.4 512 258.4 493.5 250.3 466.4L223.1 378.5C186.7 365.3 160 329.8 160 288V239.1H120C53.73 239.1 0 186.3 0 119.1V103.3C0 76.04 9.274 49.6 26.3 28.32L33.75 18.1C36.17 15.97 40.42 15.12 43.82 16.97H43.82zM480 224H520C577.4 224 624 177.4 624 120V103.3C624 97.55 623.5 91.85 622.6 86.24C622.5 86.86 622.5 87.47 622.4 88.09C618.3 128.9 583.1 160 542.1 160H474.5C478.1 170 480 180.8 480 191.1V224zM17.57 88.09C17.51 87.47 17.45 86.86 17.41 86.24C16.47 91.84 15.1 97.54 15.1 103.3V119.1C15.1 177.4 62.56 223.1 119.1 223.1H159.1V192C159.1 180.8 161.9 170 165.5 159.1H97.03C56 159.1 21.65 128.9 17.57 88.09V88.09zM236.9 366.1L265.6 461.8C271.7 482.1 290.4 496 311.6 496H328.4C349.6 496 368.3 482.1 374.4 461.8L403 366.1L410.7 363.4C441.8 352.4 464 322.8 464 287.1V191.1C464 147.8 428.2 111.1 384 111.1H255.1C211.8 111.1 175.1 147.8 175.1 191.1V287.1C175.1 322.8 198.2 352.4 229.3 363.4L236.9 366.1z"/></svg>