<svg xmlns="http://www.w3.org/2000/svg" viewBox="0 0 576 512"><!--! Font Awesome Pro 6.2.0 by @fontawesome - https://fontawesome.com License - https://fontawesome.com/license (Commercial License) Copyright 2022 Fonticons, Inc. --><path d="M145.7 13.19C147 9.554 150.8 7.422 154.6 8.138L232.8 22.79C270.8 29.92 309.8 29.92 347.8 22.79L425.1 8.138C429.8 7.422 433.6 9.554 434.9 13.19L467.3 99.52C479.6 132.3 497.3 162.8 519.7 189.7L570.7 250.9C573.2 253.8 573.2 258.2 570.7 261.1L519.7 322.3C497.3 349.2 479.6 379.7 467.3 412.5L434.9 498.8C433.6 502.4 429.8 504.6 425.1 503.9L347.8 489.2C309.8 482.1 270.8 482.1 232.8 489.2L154.6 503.9C150.8 504.6 147 502.4 145.7 498.8L113.3 412.5C100.1 379.7 83.25 349.2 60.83 322.3L9.854 261.1C7.382 258.2 7.382 253.8 9.854 250.9L60.83 189.7C83.25 162.8 100.1 132.3 113.3 99.52L145.7 13.19zM154.2 35.97L128.3 105.1C115.3 139.6 96.69 171.7 73.12 199.1L33.08 248H124.2L132 239.1C158.1 209.2 178.3 174.7 191.5 137.4L199.4 114.1L154.2 35.97zM167.4 26.81L211.8 104.5C262.2 118.1 315.7 119.1 366.2 104.9L410.6 27.29L350.7 38.52C310.8 46.01 269.8 46.01 229.8 38.52L167.4 26.81zM425.5 33.56L379.7 113.6L388.1 137.4C401.3 174.7 421.5 209.2 447.6 239.1L455.4 248H547.5L507.5 199.1C483.9 171.7 465.2 139.6 452.3 105.1L425.5 33.56zM547.5 264H455L448.8 271.1C421.9 301.8 401.3 337.6 388.2 376.3L380.3 399.5L425.5 478.4L452.3 406.9C465.2 372.4 483.9 340.3 507.5 312L547.5 264zM410.6 484.7L368.3 410.6L368.2 410.6L367.2 410.3C316.1 393.6 262.9 392.5 212 407L167.4 485.2L229.8 473.5C269.8 465.1 310.8 465.1 350.7 473.5L410.6 484.7zM154.2 476L199.4 396.9L191.5 374.3C178.3 336.9 158.1 302.4 132 272.6L124.5 264H33.08L73.12 312C96.69 340.3 115.3 372.4 128.3 406.9L154.2 476zM145.8 264C172.4 294.9 192.1 330.5 206.6 368.1L209.9 378.5L275.4 264H145.8zM223.1 387.7C267.2 377.8 313.1 378.7 356.8 390.5L289.1 272.1L223.1 387.7zM369.7 380.9L373 371.1C386.4 331.9 406.1 295.5 433.8 264H302.9L369.7 380.9zM434.1 248C407.4 217 386.6 181.3 373 142.7L369.2 131.1L302.9 248H434.1zM355.2 124.2C311.6 134 266.4 133.9 222.9 123.9L289.1 239.9L355.2 124.2zM209.8 133.4L206.6 142.7C192.9 181.3 172.2 217 145.5 248H275.4L209.8 133.4z"/></svg>