<svg xmlns="http://www.w3.org/2000/svg" viewBox="0 0 448 512"><!--! Font Awesome Pro 6.2.0 by @fontawesome - https://fontawesome.com License - https://fontawesome.com/license (Commercial License) Copyright 2022 Fonticons, Inc. --><path d="M160 312.6V168C160 163.6 163.6 160 168 160C172.4 160 176 163.6 176 168V344C176 347.7 173.5 350.8 169.1 351.8C166.4 352.7 162.7 351 160.1 347.8L79.1 199.4V344C79.1 348.4 76.42 352 71.1 352C67.58 352 63.1 348.4 63.1 344V167.1C63.1 164.3 66.48 161.2 70.02 160.2C73.57 159.3 77.27 160.1 79.02 164.2L160 312.6zM312 160C316.4 160 320 163.6 320 168C320 172.4 316.4 176 312 176H248V224H312C316.4 224 320 227.6 320 232C320 236.4 316.4 240 312 240H248V344C248 348.4 244.4 352 240 352C235.6 352 232 348.4 232 344V168C232 163.6 235.6 160 240 160H312zM384 344C384 348.4 380.4 352 376 352C371.6 352 368 348.4 368 344V168C368 163.6 371.6 160 376 160C380.4 160 384 163.6 384 168V344zM0 96C0 60.65 28.65 32 64 32H384C419.3 32 448 60.65 448 96V416C448 451.3 419.3 480 384 480H64C28.65 480 0 451.3 0 416V96zM16 96V416C16 442.5 37.49 464 64 464H384C410.5 464 432 442.5 432 416V96C432 69.49 410.5 48 384 48H64C37.49 48 16 69.49 16 96z"/></svg>