<svg xmlns="http://www.w3.org/2000/svg" viewBox="0 0 576 512"><!--! Font Awesome Pro 6.2.0 by @fontawesome - https://fontawesome.com License - https://fontawesome.com/license (Commercial License) Copyright 2022 Fonticons, Inc. --><path d="M172.3 15.1C103.6 15.1 47.1 71.64 47.1 140.3C47.1 208.9 103.6 264.5 172.3 264.5C185.4 264.5 197.5 271.7 203.8 283.1C211.7 297.5 208.3 314.3 199.8 326.4C187.5 343.9 180.3 365.2 180.3 388.3C180.3 447.8 228.5 496 287.1 496H393.2C435.2 496 469.2 461.1 469.2 420C469.2 378 435.2 344 393.2 344C385.2 344 377.6 345.2 370.4 347.5C366.2 348.8 361.7 346.5 360.4 342.2C359 338 361.4 333.5 365.6 332.2C374.3 329.5 383.6 328 393.2 328C410.3 328 426.3 332.7 440 340.8V239.1C440 235.6 443.6 231.1 448 231.1H464.5C490.1 231.1 513.3 216.7 523.3 193.2L527.8 182.7L527.2 176.8C523.6 140 492.6 111.1 455.6 111.1H440C435.6 111.1 432 108.4 432 103.1V79.1C418.7 79.1 408 90.74 408 103.1C408 108.4 404.4 111.1 400 111.1C395.6 111.1 392 108.4 392 103.1C392 90.74 381.3 79.1 368 79.1V148.2C368 186.1 361.2 212.3 347.8 236.1C336.4 256.6 320.2 275.2 300.6 297.7C297.8 300.1 294.9 304.3 291.9 307.7L280.7 320.7C265 338.9 255.1 367.1 255.1 392C255.1 396.4 252.4 400 247.1 400C243.6 400 239.1 396.4 239.1 392C239.1 363.9 249.1 331.8 268.6 310.2L279.8 297.2C282.8 293.8 285.7 290.4 288.5 287.2C308.4 264.4 323.3 247.2 333.9 228.3C345.6 207.3 352 183.9 352 148.2V79.1C352 71.16 359.2 63.1 368 63.1C381.1 63.1 392.7 70.28 400 79.1C407.3 70.28 418.9 63.1 432 63.1C440.8 63.1 448 71.16 448 79.1V95.1H455.6C500.8 95.1 538.7 130.3 543.2 175.2L543.1 183.2C544.1 184.5 543.9 185.9 543.4 187.2L538.1 199.5C525.4 228.9 496.5 247.1 464.5 247.1H456V352H455.2C473.6 368.8 485.2 393.1 485.2 420C485.2 451.6 469.3 479.4 445.1 496H504C508.4 496 512 499.6 512 504C512 508.4 508.4 512 504 512H288C219.7 512 164.3 456.6 164.3 388.3C164.3 361.8 172.6 337.3 186.7 317.1C192.7 308.7 193.1 298.5 189.8 290.9C186.3 284.5 179.5 280.5 172.3 280.5C94.8 280.5 32 217.7 32 140.3C32 62.8 94.8 0 172.3 0C249.7 0 312.5 62.8 312.5 140.3V173.3C312.5 177.8 308.1 181.3 304.5 181.3C300.1 181.3 296.5 177.8 296.5 173.3V140.3C296.5 71.64 240.9 16 172.3 16L172.3 15.1zM432 159.1C432 151.2 439.2 143.1 448 143.1C456.8 143.1 464 151.2 464 159.1C464 168.8 456.8 175.1 448 175.1C439.2 175.1 432 168.8 432 159.1z"/></svg>