<svg xmlns="http://www.w3.org/2000/svg" viewBox="0 0 640 512"><!--! Font Awesome Pro 6.2.0 by @fontawesome - https://fontawesome.com License - https://fontawesome.com/license (Commercial License) Copyright 2022 Fonticons, Inc. --><path d="M72 352C58.75 352 48 341.3 48 328V236L32.63 232.2C13.45 227.4 0 210.1 0 190.4C0 181 3.024 171.1 8.617 164.5L43.83 117.6C76.67 73.77 128.2 48 182.9 48C209.9 48 236.6 54.29 260.7 66.36L586.9 229.5C619.5 245.7 640 278.1 640 315.3V432C640 458.5 618.5 480 592 480H63.1C46.33 480 31.1 465.7 31.1 448C31.1 430.3 46.33 416 63.1 416H448V352H72zM448 336L64 240V328C64 332.4 67.58 336 72 336H448zM624 315.3C624 285 606.9 257.3 579.8 243.8L253.6 80.67C231.6 69.71 207.5 63.1 182.9 63.1C133.2 63.1 86.45 87.4 56.63 127.2L21.42 174.1C17.9 178.8 16 184.5 16 190.4C16 202.8 24.46 213.6 36.52 216.6L451.9 320.5C459 322.3 464 328.7 464 336V416H624L624 315.3zM64 432C55.16 432 48 439.2 48 448C48 456.8 55.16 464 64 464H592C609.7 464 624 449.7 624 432H64z"/></svg>