<svg xmlns="http://www.w3.org/2000/svg" viewBox="0 0 512 512"><!--! Font Awesome Pro 6.2.0 by @fontawesome - https://fontawesome.com License - https://fontawesome.com/license (Commercial License) Copyright 2022 Fonticons, Inc. --><path d="M128 96V40C128 17.91 145.9 0 168 0H344C366.1 0 384 17.91 384 40V96H448C483.3 96 512 124.7 512 160V416C512 451.3 483.3 480 448 480H64C28.65 480 0 451.3 0 416V160C0 124.7 28.65 96 64 96H128zM144 96H368V40C368 26.75 357.3 16 344 16H168C154.7 16 144 26.75 144 40V96zM104 112V464H408V112H104zM64 112C37.49 112 16 133.5 16 160V416C16 442.5 37.49 464 64 464H88V112H64zM448 464C474.5 464 496 442.5 496 416V160C496 133.5 474.5 112 448 112H424V464H448z"/></svg>