<svg xmlns="http://www.w3.org/2000/svg" viewBox="0 0 576 512"><!--! Font Awesome Pro 6.2.0 by @fontawesome - https://fontawesome.com License - https://fontawesome.com/license (Commercial License) Copyright 2022 Fonticons, Inc. --><path d="M512 256C512 309 469 352 416 352C362.1 352 320 309 320 256C320 202.1 362.1 160 416 160C469 160 512 202.1 512 256zM416 176C371.8 176 336 211.8 336 256C336 300.2 371.8 336 416 336C460.2 336 496 300.2 496 256C496 211.8 460.2 176 416 176zM0 256C0 167.6 71.63 96 160 96H416C504.4 96 576 167.6 576 256C576 344.4 504.4 416 416 416H160C71.63 416 0 344.4 0 256zM16 256C16 335.5 80.47 400 160 400H416C495.5 400 560 335.5 560 256C560 176.5 495.5 112 416 112H160C80.47 112 16 176.5 16 256z"/></svg>