<svg xmlns="http://www.w3.org/2000/svg" viewBox="0 0 576 512"><!--! Font Awesome Pro 6.2.0 by @fontawesome - https://fontawesome.com License - https://fontawesome.com/license (Commercial License) Copyright 2022 Fonticons, Inc. --><path d="M416 416H160C71.63 416 0 344.4 0 256C0 167.6 71.63 96 160 96H416C504.4 96 576 167.6 576 256C576 344.4 504.4 416 416 416zM272 256C272 335.5 336.5 400 416 400C495.5 400 560 335.5 560 256C560 176.5 495.5 112 416 112C336.5 112 272 176.5 272 256zM346.2 400C292.8 374.1 256 319.3 256 256C256 192.7 292.8 137.9 346.2 112H160C80.47 112 16 176.5 16 256C16 335.5 80.47 400 160 400H346.2z"/></svg>