<svg xmlns="http://www.w3.org/2000/svg" viewBox="0 0 640 512"><!--! Font Awesome Pro 6.2.0 by @fontawesome - https://fontawesome.com License - https://fontawesome.com/license (Commercial License) Copyright 2022 Fonticons, Inc. --><path d="M221.7 253.7C218.5 256.8 213.5 256.8 210.3 253.7L162.3 205.7C159.2 202.5 159.2 197.5 162.3 194.3C165.5 191.2 170.5 191.2 173.7 194.3L216 236.7L290.3 162.3C293.5 159.2 298.5 159.2 301.7 162.3C304.8 165.5 304.8 170.5 301.7 173.7L221.7 253.7zM17.28 470.1C18.03 468.4 19.1 465.1 20.49 463.6L20.52 463.6C21.81 461.3 23.06 458.9 24.27 456.5C63.58 379.2 63.1 274.7 63.1 192C63.1 85.96 106.1 0 159.1 0H495.1C531.1 0 559.4 25.87 577.9 59.89C596.8 94.51 607.1 141.2 607.1 192C607.1 242.8 596.8 289.5 577.9 324.1C559.4 358.1 531.1 384 495.1 384C466.2 384 441.4 365.4 423.2 339C424.3 330.6 425.3 321.9 426.2 312.9C443.7 346.8 468.5 368 495.1 368C549 368 591.1 289.2 591.1 191.1C591.1 94.8 549 15.1 495.1 15.1C442.1 15.1 399.1 94.8 399.1 191.1C399.1 224.3 398.9 253.6 396.9 280.2L396.8 282.3C389.1 385.3 369.5 446.7 357.3 475.9C347.3 499.9 324.2 512 301.9 512H47.1C36.47 512 25.83 505.8 20.15 495.8C15.82 488.1 14.86 479.2 17.28 470.1L17.28 470.1zM106.4 63.39C90.38 95.48 79.1 140.9 79.1 192C79.1 234.5 79.9 283.8 74.29 332.4C68.68 380.9 57.47 429.8 34.53 471.3C34.44 471.5 34.34 471.7 34.24 471.8C31.3 476.7 31.22 482.8 34.07 487.9C36.91 492.9 42.23 496 47.1 496H301.9C318.7 496 335.4 486.9 342.5 469.8C357 434.1 384 348.9 384 192C384 141.2 395.2 94.51 414.1 59.89C423.7 42.24 435.9 26.79 450.4 16H159.1C142.8 16 122.9 30.35 106.4 63.39L106.4 63.39zM475.4 254.1C470.6 250.2 467 244.2 464.3 237.9C458.9 225.3 455.1 209.1 455.1 192C455.1 174.9 458.9 158.7 464.3 146.1C467 139.8 470.6 133.8 475.4 129C480.3 124.2 487.3 120 495.1 120C504.7 120 511.7 124.2 516.6 129C521.4 133.8 524.1 139.8 527.7 146.1C533.1 158.7 535.1 174.9 535.1 192C535.1 209.1 533.1 225.3 527.7 237.9C524.1 244.2 521.4 250.2 516.6 254.1C511.7 259.8 504.7 264 495.1 264C487.3 264 480.3 259.8 475.4 254.1zM495.1 136C482.7 136 471.1 161.1 471.1 192C471.1 222.9 482.7 248 495.1 248C509.3 248 519.1 222.9 519.1 192C519.1 161.1 509.3 136 495.1 136V136z"/></svg>