<svg xmlns="http://www.w3.org/2000/svg" viewBox="0 0 576 512"><!--! Font Awesome Pro 6.2.0 by @fontawesome - https://fontawesome.com License - https://fontawesome.com/license (Commercial License) Copyright 2022 Fonticons, Inc. --><path d="M207.1 48C119.6 48 47.1 119.6 47.1 208V264C47.1 268.4 44.42 272 39.1 272C35.58 272 31.1 268.4 31.1 264V208C31.1 110.8 110.8 32 207.1 32C305.2 32 384 110.8 384 208V264C384 268.4 380.4 272 376 272C371.6 272 368 268.4 368 264V208C368 119.6 296.4 48 207.1 48zM480 208C480 199.2 487.2 192 496 192C504.8 192 512 199.2 512 208C512 216.8 504.8 224 496 224C487.2 224 480 216.8 480 208zM416 200C416 160.2 448.2 128 488 128C536.6 128 576 167.4 576 216V232C576 262.9 550.9 288 520 288H485.8L484.8 291C466.3 346.5 414.3 384 355.7 384H336V440C336 462.1 318.1 480 296 480H280C257.9 480 240 462.1 240 440V384H176V440C176 462.1 158.1 480 136 480H120C97.91 480 80 462.1 80 440V384H40C17.91 384 0 366.1 0 344C0 321.9 17.91 304 40 304H368C394.5 304 416 282.5 416 256L416 200zM255.1 368V440C255.1 453.3 266.7 464 279.1 464H296C309.3 464 320 453.3 320 440V368H355.7C407.4 368 453.3 334.9 469.6 285.9L472.4 277.5C473.5 274.2 476.6 272 480 272H520C542.1 272 560 254.1 560 232V216C560 176.2 527.8 144 488 144C457.1 144 432 169.1 432 200V256C432 291.3 403.3 320 368 320H39.1C26.74 320 15.1 330.7 15.1 344C15.1 357.3 26.74 368 39.1 368H95.1V440C95.1 453.3 106.7 464 119.1 464H135.1C149.3 464 159.1 453.3 159.1 440V368H255.1z"/></svg>