<svg xmlns="http://www.w3.org/2000/svg" viewBox="0 0 640 512"><!--! Font Awesome Pro 6.2.0 by @fontawesome - https://fontawesome.com License - https://fontawesome.com/license (Commercial License) Copyright 2022 Fonticons, Inc. --><path d="M386 399.9L402.3 412.7C375.8 415.6 352 437.1 352 468.5V480C352 497.7 337.7 512 319.1 512C302.3 512 287.1 497.7 287.1 480V468.4C287.1 418.6 227.7 393.6 192.4 428.9L184.2 437C171.7 449.5 151.5 449.5 138.1 437C126.5 424.5 126.5 404.3 138.1 391.8L147.1 383.6C182.4 348.3 157.4 287.1 107.5 287.1H95.1C78.33 287.1 63.1 273.7 63.1 255.1C63.1 238.3 78.33 223.1 95.1 223.1H107.5C122.7 223.1 135.6 218.4 145.1 209.7L157.9 219.7C145.4 232 128.1 239.1 107.5 239.1H95.1C87.16 239.1 79.1 247.2 79.1 255.1C79.1 264.8 87.16 271.1 95.1 271.1H107.5C171.7 271.1 203.8 349.6 158.5 394.9L150.3 403.1C144 409.3 144 419.5 150.3 425.7C156.5 431.1 166.7 431.1 172.9 425.7L181.1 417.5C226.4 372.2 303.1 404.3 303.1 468.5V480C303.1 488.8 311.2 496 319.1 496C328.8 496 336 488.8 336 480V468.5C336 434 358.3 408.8 386 399.9V399.9zM287.1 32C287.1 14.33 302.3 0 319.1 0C337.7 0 352 14.33 352 32V43.55C352 93.44 412.3 118.4 447.6 83.15L455.8 74.98C468.3 62.48 488.5 62.48 501 74.98C513.5 87.48 513.5 107.7 501 120.2L492.9 128.4C457.6 163.7 482.6 224 532.5 224H544C561.7 224 576 238.3 576 256C576 273.7 561.7 288 544 288H532.5C517.3 288 504.4 293.6 494.9 302.3L482.1 292.3C494.6 279.1 511.9 272 532.5 272H544C552.8 272 560 264.8 560 256C560 247.2 552.8 240 544 240H532.5C468.3 240 436.2 162.4 481.5 117.1L489.7 108.9C495.1 102.7 495.1 92.54 489.7 86.29C483.5 80.05 473.3 80.05 467.1 86.29L458.9 94.46C413.6 139.8 336 107.7 336 43.55V32C336 23.16 328.8 16 320 16C311.2 16 304 23.16 304 32V43.55C304 77.97 281.7 103.2 253.1 112.1L237.7 99.32C264.2 96.41 288 74.89 288 43.55L287.1 32zM636.1 497.7C640.4 500.5 641 505.5 638.3 508.1C635.5 512.4 630.5 513 627 510.3L3.022 14.26C-.4365 11.51-1.012 6.482 1.738 3.023C4.487-.4362 9.52-1.011 12.98 1.738L636.1 497.7zM501 74.98L489.7 86.29z"/></svg>